<?xml version="1.0" encoding="utf-8" standalone="no"?>
<!DOCTYPE svg PUBLIC "-//W3C//DTD SVG 1.1//EN"
  "http://www.w3.org/Graphics/SVG/1.1/DTD/svg11.dtd">
<svg xmlns:xlink="http://www.w3.org/1999/xlink" width="460.8pt" height="345.6pt" viewBox="0 0 460.8 345.6" xmlns="http://www.w3.org/2000/svg" version="1.1">
 <metadata>
  <rdf:RDF xmlns:dc="http://purl.org/dc/elements/1.1/" xmlns:cc="http://creativecommons.org/ns#" xmlns:rdf="http://www.w3.org/1999/02/22-rdf-syntax-ns#">
   <cc:Work>
    <dc:type rdf:resource="http://purl.org/dc/dcmitype/StillImage"/>
    <dc:date>2022-08-09T02:59:38.538240</dc:date>
    <dc:format>image/svg+xml</dc:format>
    <dc:creator>
     <cc:Agent>
      <dc:title>Matplotlib v3.5.2, https://matplotlib.org/</dc:title>
     </cc:Agent>
    </dc:creator>
   </cc:Work>
  </rdf:RDF>
 </metadata>
 <defs>
  <style type="text/css">*{stroke-linejoin: round; stroke-linecap: butt}</style>
 </defs>
 <g id="figure_1">
  <g id="patch_1">
   <path d="M 0 345.6 
L 460.8 345.6 
L 460.8 0 
L 0 0 
z
" style="fill: #ffffff"/>
  </g>
  <g id="axes_1">
   <g id="patch_2">
    <path d="M 57.6 307.584 
L 414.72 307.584 
L 414.72 41.472 
L 57.6 41.472 
z
" style="fill: #ffffff"/>
   </g>
   <g id="matplotlib.axis_1">
    <g id="xtick_1">
     <g id="line2d_1">
      <defs>
       <path id="m2fd183bc09" d="M 0 0 
L 0 3.5 
" style="stroke: #000000; stroke-width: 0.8"/>
      </defs>
      <g>
       <use xlink:href="#m2fd183bc09" x="73.832727" y="307.584" style="stroke: #000000; stroke-width: 0.8"/>
      </g>
     </g>
     <g id="text_1">
      <!-- 0.0 -->
      <g transform="translate(65.881165 322.182437)scale(0.1 -0.1)">
       <defs>
        <path id="DejaVuSans-30" d="M 2034 4250 
Q 1547 4250 1301 3770 
Q 1056 3291 1056 2328 
Q 1056 1369 1301 889 
Q 1547 409 2034 409 
Q 2525 409 2770 889 
Q 3016 1369 3016 2328 
Q 3016 3291 2770 3770 
Q 2525 4250 2034 4250 
z
M 2034 4750 
Q 2819 4750 3233 4129 
Q 3647 3509 3647 2328 
Q 3647 1150 3233 529 
Q 2819 -91 2034 -91 
Q 1250 -91 836 529 
Q 422 1150 422 2328 
Q 422 3509 836 4129 
Q 1250 4750 2034 4750 
z
" transform="scale(0.015625)"/>
        <path id="DejaVuSans-2e" d="M 684 794 
L 1344 794 
L 1344 0 
L 684 0 
L 684 794 
z
" transform="scale(0.015625)"/>
       </defs>
       <use xlink:href="#DejaVuSans-30"/>
       <use xlink:href="#DejaVuSans-2e" x="63.623047"/>
       <use xlink:href="#DejaVuSans-30" x="95.410156"/>
      </g>
     </g>
    </g>
    <g id="xtick_2">
     <g id="line2d_2">
      <g>
       <use xlink:href="#m2fd183bc09" x="101.66026" y="307.584" style="stroke: #000000; stroke-width: 0.8"/>
      </g>
     </g>
     <g id="text_2">
      <!-- 3.0 -->
      <g transform="translate(93.708697 322.182437)scale(0.1 -0.1)">
       <defs>
        <path id="DejaVuSans-33" d="M 2597 2516 
Q 3050 2419 3304 2112 
Q 3559 1806 3559 1356 
Q 3559 666 3084 287 
Q 2609 -91 1734 -91 
Q 1441 -91 1130 -33 
Q 819 25 488 141 
L 488 750 
Q 750 597 1062 519 
Q 1375 441 1716 441 
Q 2309 441 2620 675 
Q 2931 909 2931 1356 
Q 2931 1769 2642 2001 
Q 2353 2234 1838 2234 
L 1294 2234 
L 1294 2753 
L 1863 2753 
Q 2328 2753 2575 2939 
Q 2822 3125 2822 3475 
Q 2822 3834 2567 4026 
Q 2313 4219 1838 4219 
Q 1578 4219 1281 4162 
Q 984 4106 628 3988 
L 628 4550 
Q 988 4650 1302 4700 
Q 1616 4750 1894 4750 
Q 2613 4750 3031 4423 
Q 3450 4097 3450 3541 
Q 3450 3153 3228 2886 
Q 3006 2619 2597 2516 
z
" transform="scale(0.015625)"/>
       </defs>
       <use xlink:href="#DejaVuSans-33"/>
       <use xlink:href="#DejaVuSans-2e" x="63.623047"/>
       <use xlink:href="#DejaVuSans-30" x="95.410156"/>
      </g>
     </g>
    </g>
    <g id="xtick_3">
     <g id="line2d_3">
      <g>
       <use xlink:href="#m2fd183bc09" x="129.487792" y="307.584" style="stroke: #000000; stroke-width: 0.8"/>
      </g>
     </g>
     <g id="text_3">
      <!-- 6.0 -->
      <g transform="translate(121.53623 322.182437)scale(0.1 -0.1)">
       <defs>
        <path id="DejaVuSans-36" d="M 2113 2584 
Q 1688 2584 1439 2293 
Q 1191 2003 1191 1497 
Q 1191 994 1439 701 
Q 1688 409 2113 409 
Q 2538 409 2786 701 
Q 3034 994 3034 1497 
Q 3034 2003 2786 2293 
Q 2538 2584 2113 2584 
z
M 3366 4563 
L 3366 3988 
Q 3128 4100 2886 4159 
Q 2644 4219 2406 4219 
Q 1781 4219 1451 3797 
Q 1122 3375 1075 2522 
Q 1259 2794 1537 2939 
Q 1816 3084 2150 3084 
Q 2853 3084 3261 2657 
Q 3669 2231 3669 1497 
Q 3669 778 3244 343 
Q 2819 -91 2113 -91 
Q 1303 -91 875 529 
Q 447 1150 447 2328 
Q 447 3434 972 4092 
Q 1497 4750 2381 4750 
Q 2619 4750 2861 4703 
Q 3103 4656 3366 4563 
z
" transform="scale(0.015625)"/>
       </defs>
       <use xlink:href="#DejaVuSans-36"/>
       <use xlink:href="#DejaVuSans-2e" x="63.623047"/>
       <use xlink:href="#DejaVuSans-30" x="95.410156"/>
      </g>
     </g>
    </g>
    <g id="xtick_4">
     <g id="line2d_4">
      <g>
       <use xlink:href="#m2fd183bc09" x="157.315325" y="307.584" style="stroke: #000000; stroke-width: 0.8"/>
      </g>
     </g>
     <g id="text_4">
      <!-- 9.0 -->
      <g transform="translate(149.363762 322.182437)scale(0.1 -0.1)">
       <defs>
        <path id="DejaVuSans-39" d="M 703 97 
L 703 672 
Q 941 559 1184 500 
Q 1428 441 1663 441 
Q 2288 441 2617 861 
Q 2947 1281 2994 2138 
Q 2813 1869 2534 1725 
Q 2256 1581 1919 1581 
Q 1219 1581 811 2004 
Q 403 2428 403 3163 
Q 403 3881 828 4315 
Q 1253 4750 1959 4750 
Q 2769 4750 3195 4129 
Q 3622 3509 3622 2328 
Q 3622 1225 3098 567 
Q 2575 -91 1691 -91 
Q 1453 -91 1209 -44 
Q 966 3 703 97 
z
M 1959 2075 
Q 2384 2075 2632 2365 
Q 2881 2656 2881 3163 
Q 2881 3666 2632 3958 
Q 2384 4250 1959 4250 
Q 1534 4250 1286 3958 
Q 1038 3666 1038 3163 
Q 1038 2656 1286 2365 
Q 1534 2075 1959 2075 
z
" transform="scale(0.015625)"/>
       </defs>
       <use xlink:href="#DejaVuSans-39"/>
       <use xlink:href="#DejaVuSans-2e" x="63.623047"/>
       <use xlink:href="#DejaVuSans-30" x="95.410156"/>
      </g>
     </g>
    </g>
    <g id="xtick_5">
     <g id="line2d_5">
      <g>
       <use xlink:href="#m2fd183bc09" x="185.142857" y="307.584" style="stroke: #000000; stroke-width: 0.8"/>
      </g>
     </g>
     <g id="text_5">
      <!-- 12.0 -->
      <g transform="translate(174.010045 322.182437)scale(0.1 -0.1)">
       <defs>
        <path id="DejaVuSans-31" d="M 794 531 
L 1825 531 
L 1825 4091 
L 703 3866 
L 703 4441 
L 1819 4666 
L 2450 4666 
L 2450 531 
L 3481 531 
L 3481 0 
L 794 0 
L 794 531 
z
" transform="scale(0.015625)"/>
        <path id="DejaVuSans-32" d="M 1228 531 
L 3431 531 
L 3431 0 
L 469 0 
L 469 531 
Q 828 903 1448 1529 
Q 2069 2156 2228 2338 
Q 2531 2678 2651 2914 
Q 2772 3150 2772 3378 
Q 2772 3750 2511 3984 
Q 2250 4219 1831 4219 
Q 1534 4219 1204 4116 
Q 875 4013 500 3803 
L 500 4441 
Q 881 4594 1212 4672 
Q 1544 4750 1819 4750 
Q 2544 4750 2975 4387 
Q 3406 4025 3406 3419 
Q 3406 3131 3298 2873 
Q 3191 2616 2906 2266 
Q 2828 2175 2409 1742 
Q 1991 1309 1228 531 
z
" transform="scale(0.015625)"/>
       </defs>
       <use xlink:href="#DejaVuSans-31"/>
       <use xlink:href="#DejaVuSans-32" x="63.623047"/>
       <use xlink:href="#DejaVuSans-2e" x="127.246094"/>
       <use xlink:href="#DejaVuSans-30" x="159.033203"/>
      </g>
     </g>
    </g>
    <g id="xtick_6">
     <g id="line2d_6">
      <g>
       <use xlink:href="#m2fd183bc09" x="212.97039" y="307.584" style="stroke: #000000; stroke-width: 0.8"/>
      </g>
     </g>
     <g id="text_6">
      <!-- 15.0 -->
      <g transform="translate(201.837577 322.182437)scale(0.1 -0.1)">
       <defs>
        <path id="DejaVuSans-35" d="M 691 4666 
L 3169 4666 
L 3169 4134 
L 1269 4134 
L 1269 2991 
Q 1406 3038 1543 3061 
Q 1681 3084 1819 3084 
Q 2600 3084 3056 2656 
Q 3513 2228 3513 1497 
Q 3513 744 3044 326 
Q 2575 -91 1722 -91 
Q 1428 -91 1123 -41 
Q 819 9 494 109 
L 494 744 
Q 775 591 1075 516 
Q 1375 441 1709 441 
Q 2250 441 2565 725 
Q 2881 1009 2881 1497 
Q 2881 1984 2565 2268 
Q 2250 2553 1709 2553 
Q 1456 2553 1204 2497 
Q 953 2441 691 2322 
L 691 4666 
z
" transform="scale(0.015625)"/>
       </defs>
       <use xlink:href="#DejaVuSans-31"/>
       <use xlink:href="#DejaVuSans-35" x="63.623047"/>
       <use xlink:href="#DejaVuSans-2e" x="127.246094"/>
       <use xlink:href="#DejaVuSans-30" x="159.033203"/>
      </g>
     </g>
    </g>
    <g id="xtick_7">
     <g id="line2d_7">
      <g>
       <use xlink:href="#m2fd183bc09" x="240.797922" y="307.584" style="stroke: #000000; stroke-width: 0.8"/>
      </g>
     </g>
     <g id="text_7">
      <!-- 18.0 -->
      <g transform="translate(229.66511 322.182437)scale(0.1 -0.1)">
       <defs>
        <path id="DejaVuSans-38" d="M 2034 2216 
Q 1584 2216 1326 1975 
Q 1069 1734 1069 1313 
Q 1069 891 1326 650 
Q 1584 409 2034 409 
Q 2484 409 2743 651 
Q 3003 894 3003 1313 
Q 3003 1734 2745 1975 
Q 2488 2216 2034 2216 
z
M 1403 2484 
Q 997 2584 770 2862 
Q 544 3141 544 3541 
Q 544 4100 942 4425 
Q 1341 4750 2034 4750 
Q 2731 4750 3128 4425 
Q 3525 4100 3525 3541 
Q 3525 3141 3298 2862 
Q 3072 2584 2669 2484 
Q 3125 2378 3379 2068 
Q 3634 1759 3634 1313 
Q 3634 634 3220 271 
Q 2806 -91 2034 -91 
Q 1263 -91 848 271 
Q 434 634 434 1313 
Q 434 1759 690 2068 
Q 947 2378 1403 2484 
z
M 1172 3481 
Q 1172 3119 1398 2916 
Q 1625 2713 2034 2713 
Q 2441 2713 2670 2916 
Q 2900 3119 2900 3481 
Q 2900 3844 2670 4047 
Q 2441 4250 2034 4250 
Q 1625 4250 1398 4047 
Q 1172 3844 1172 3481 
z
" transform="scale(0.015625)"/>
       </defs>
       <use xlink:href="#DejaVuSans-31"/>
       <use xlink:href="#DejaVuSans-38" x="63.623047"/>
       <use xlink:href="#DejaVuSans-2e" x="127.246094"/>
       <use xlink:href="#DejaVuSans-30" x="159.033203"/>
      </g>
     </g>
    </g>
    <g id="xtick_8">
     <g id="line2d_8">
      <g>
       <use xlink:href="#m2fd183bc09" x="268.625455" y="307.584" style="stroke: #000000; stroke-width: 0.8"/>
      </g>
     </g>
     <g id="text_8">
      <!-- 21.0 -->
      <g transform="translate(257.492642 322.182437)scale(0.1 -0.1)">
       <use xlink:href="#DejaVuSans-32"/>
       <use xlink:href="#DejaVuSans-31" x="63.623047"/>
       <use xlink:href="#DejaVuSans-2e" x="127.246094"/>
       <use xlink:href="#DejaVuSans-30" x="159.033203"/>
      </g>
     </g>
    </g>
    <g id="xtick_9">
     <g id="line2d_9">
      <g>
       <use xlink:href="#m2fd183bc09" x="296.452987" y="307.584" style="stroke: #000000; stroke-width: 0.8"/>
      </g>
     </g>
     <g id="text_9">
      <!-- 24.0 -->
      <g transform="translate(285.320175 322.182437)scale(0.1 -0.1)">
       <defs>
        <path id="DejaVuSans-34" d="M 2419 4116 
L 825 1625 
L 2419 1625 
L 2419 4116 
z
M 2253 4666 
L 3047 4666 
L 3047 1625 
L 3713 1625 
L 3713 1100 
L 3047 1100 
L 3047 0 
L 2419 0 
L 2419 1100 
L 313 1100 
L 313 1709 
L 2253 4666 
z
" transform="scale(0.015625)"/>
       </defs>
       <use xlink:href="#DejaVuSans-32"/>
       <use xlink:href="#DejaVuSans-34" x="63.623047"/>
       <use xlink:href="#DejaVuSans-2e" x="127.246094"/>
       <use xlink:href="#DejaVuSans-30" x="159.033203"/>
      </g>
     </g>
    </g>
    <g id="xtick_10">
     <g id="line2d_10">
      <g>
       <use xlink:href="#m2fd183bc09" x="324.280519" y="307.584" style="stroke: #000000; stroke-width: 0.8"/>
      </g>
     </g>
     <g id="text_10">
      <!-- 27.0 -->
      <g transform="translate(313.147707 322.182437)scale(0.1 -0.1)">
       <defs>
        <path id="DejaVuSans-37" d="M 525 4666 
L 3525 4666 
L 3525 4397 
L 1831 0 
L 1172 0 
L 2766 4134 
L 525 4134 
L 525 4666 
z
" transform="scale(0.015625)"/>
       </defs>
       <use xlink:href="#DejaVuSans-32"/>
       <use xlink:href="#DejaVuSans-37" x="63.623047"/>
       <use xlink:href="#DejaVuSans-2e" x="127.246094"/>
       <use xlink:href="#DejaVuSans-30" x="159.033203"/>
      </g>
     </g>
    </g>
    <g id="xtick_11">
     <g id="line2d_11">
      <g>
       <use xlink:href="#m2fd183bc09" x="352.108052" y="307.584" style="stroke: #000000; stroke-width: 0.8"/>
      </g>
     </g>
     <g id="text_11">
      <!-- 30.0 -->
      <g transform="translate(340.975239 322.182437)scale(0.1 -0.1)">
       <use xlink:href="#DejaVuSans-33"/>
       <use xlink:href="#DejaVuSans-30" x="63.623047"/>
       <use xlink:href="#DejaVuSans-2e" x="127.246094"/>
       <use xlink:href="#DejaVuSans-30" x="159.033203"/>
      </g>
     </g>
    </g>
    <g id="xtick_12">
     <g id="line2d_12">
      <g>
       <use xlink:href="#m2fd183bc09" x="379.935584" y="307.584" style="stroke: #000000; stroke-width: 0.8"/>
      </g>
     </g>
     <g id="text_12">
      <!-- 33.0 -->
      <g transform="translate(368.802772 322.182437)scale(0.1 -0.1)">
       <use xlink:href="#DejaVuSans-33"/>
       <use xlink:href="#DejaVuSans-33" x="63.623047"/>
       <use xlink:href="#DejaVuSans-2e" x="127.246094"/>
       <use xlink:href="#DejaVuSans-30" x="159.033203"/>
      </g>
     </g>
    </g>
    <g id="text_13">
     <!-- time(s) -->
     <g transform="translate(218.357656 335.860562)scale(0.1 -0.1)">
      <defs>
       <path id="DejaVuSans-74" d="M 1172 4494 
L 1172 3500 
L 2356 3500 
L 2356 3053 
L 1172 3053 
L 1172 1153 
Q 1172 725 1289 603 
Q 1406 481 1766 481 
L 2356 481 
L 2356 0 
L 1766 0 
Q 1100 0 847 248 
Q 594 497 594 1153 
L 594 3053 
L 172 3053 
L 172 3500 
L 594 3500 
L 594 4494 
L 1172 4494 
z
" transform="scale(0.015625)"/>
       <path id="DejaVuSans-69" d="M 603 3500 
L 1178 3500 
L 1178 0 
L 603 0 
L 603 3500 
z
M 603 4863 
L 1178 4863 
L 1178 4134 
L 603 4134 
L 603 4863 
z
" transform="scale(0.015625)"/>
       <path id="DejaVuSans-6d" d="M 3328 2828 
Q 3544 3216 3844 3400 
Q 4144 3584 4550 3584 
Q 5097 3584 5394 3201 
Q 5691 2819 5691 2113 
L 5691 0 
L 5113 0 
L 5113 2094 
Q 5113 2597 4934 2840 
Q 4756 3084 4391 3084 
Q 3944 3084 3684 2787 
Q 3425 2491 3425 1978 
L 3425 0 
L 2847 0 
L 2847 2094 
Q 2847 2600 2669 2842 
Q 2491 3084 2119 3084 
Q 1678 3084 1418 2786 
Q 1159 2488 1159 1978 
L 1159 0 
L 581 0 
L 581 3500 
L 1159 3500 
L 1159 2956 
Q 1356 3278 1631 3431 
Q 1906 3584 2284 3584 
Q 2666 3584 2933 3390 
Q 3200 3197 3328 2828 
z
" transform="scale(0.015625)"/>
       <path id="DejaVuSans-65" d="M 3597 1894 
L 3597 1613 
L 953 1613 
Q 991 1019 1311 708 
Q 1631 397 2203 397 
Q 2534 397 2845 478 
Q 3156 559 3463 722 
L 3463 178 
Q 3153 47 2828 -22 
Q 2503 -91 2169 -91 
Q 1331 -91 842 396 
Q 353 884 353 1716 
Q 353 2575 817 3079 
Q 1281 3584 2069 3584 
Q 2775 3584 3186 3129 
Q 3597 2675 3597 1894 
z
M 3022 2063 
Q 3016 2534 2758 2815 
Q 2500 3097 2075 3097 
Q 1594 3097 1305 2825 
Q 1016 2553 972 2059 
L 3022 2063 
z
" transform="scale(0.015625)"/>
       <path id="DejaVuSans-28" d="M 1984 4856 
Q 1566 4138 1362 3434 
Q 1159 2731 1159 2009 
Q 1159 1288 1364 580 
Q 1569 -128 1984 -844 
L 1484 -844 
Q 1016 -109 783 600 
Q 550 1309 550 2009 
Q 550 2706 781 3412 
Q 1013 4119 1484 4856 
L 1984 4856 
z
" transform="scale(0.015625)"/>
       <path id="DejaVuSans-73" d="M 2834 3397 
L 2834 2853 
Q 2591 2978 2328 3040 
Q 2066 3103 1784 3103 
Q 1356 3103 1142 2972 
Q 928 2841 928 2578 
Q 928 2378 1081 2264 
Q 1234 2150 1697 2047 
L 1894 2003 
Q 2506 1872 2764 1633 
Q 3022 1394 3022 966 
Q 3022 478 2636 193 
Q 2250 -91 1575 -91 
Q 1294 -91 989 -36 
Q 684 19 347 128 
L 347 722 
Q 666 556 975 473 
Q 1284 391 1588 391 
Q 1994 391 2212 530 
Q 2431 669 2431 922 
Q 2431 1156 2273 1281 
Q 2116 1406 1581 1522 
L 1381 1569 
Q 847 1681 609 1914 
Q 372 2147 372 2553 
Q 372 3047 722 3315 
Q 1072 3584 1716 3584 
Q 2034 3584 2315 3537 
Q 2597 3491 2834 3397 
z
" transform="scale(0.015625)"/>
       <path id="DejaVuSans-29" d="M 513 4856 
L 1013 4856 
Q 1481 4119 1714 3412 
Q 1947 2706 1947 2009 
Q 1947 1309 1714 600 
Q 1481 -109 1013 -844 
L 513 -844 
Q 928 -128 1133 580 
Q 1338 1288 1338 2009 
Q 1338 2731 1133 3434 
Q 928 4138 513 4856 
z
" transform="scale(0.015625)"/>
      </defs>
      <use xlink:href="#DejaVuSans-74"/>
      <use xlink:href="#DejaVuSans-69" x="39.208984"/>
      <use xlink:href="#DejaVuSans-6d" x="66.992188"/>
      <use xlink:href="#DejaVuSans-65" x="164.404297"/>
      <use xlink:href="#DejaVuSans-28" x="225.927734"/>
      <use xlink:href="#DejaVuSans-73" x="264.941406"/>
      <use xlink:href="#DejaVuSans-29" x="317.041016"/>
     </g>
    </g>
   </g>
   <g id="matplotlib.axis_2">
    <g id="ytick_1">
     <g id="line2d_13">
      <defs>
       <path id="mdc68473daf" d="M 0 0 
L -3.5 0 
" style="stroke: #000000; stroke-width: 0.8"/>
      </defs>
      <g>
       <use xlink:href="#mdc68473daf" x="57.6" y="275.073766" style="stroke: #000000; stroke-width: 0.8"/>
      </g>
     </g>
     <g id="text_14">
      <!-- 35 -->
      <g transform="translate(37.875 278.872984)scale(0.1 -0.1)">
       <use xlink:href="#DejaVuSans-33"/>
       <use xlink:href="#DejaVuSans-35" x="63.623047"/>
      </g>
     </g>
    </g>
    <g id="ytick_2">
     <g id="line2d_14">
      <g>
       <use xlink:href="#mdc68473daf" x="57.6" y="241.025608" style="stroke: #000000; stroke-width: 0.8"/>
      </g>
     </g>
     <g id="text_15">
      <!-- 40 -->
      <g transform="translate(37.875 244.824827)scale(0.1 -0.1)">
       <use xlink:href="#DejaVuSans-34"/>
       <use xlink:href="#DejaVuSans-30" x="63.623047"/>
      </g>
     </g>
    </g>
    <g id="ytick_3">
     <g id="line2d_15">
      <g>
       <use xlink:href="#mdc68473daf" x="57.6" y="206.977451" style="stroke: #000000; stroke-width: 0.8"/>
      </g>
     </g>
     <g id="text_16">
      <!-- 45 -->
      <g transform="translate(37.875 210.77667)scale(0.1 -0.1)">
       <use xlink:href="#DejaVuSans-34"/>
       <use xlink:href="#DejaVuSans-35" x="63.623047"/>
      </g>
     </g>
    </g>
    <g id="ytick_4">
     <g id="line2d_16">
      <g>
       <use xlink:href="#mdc68473daf" x="57.6" y="172.929294" style="stroke: #000000; stroke-width: 0.8"/>
      </g>
     </g>
     <g id="text_17">
      <!-- 50 -->
      <g transform="translate(37.875 176.728513)scale(0.1 -0.1)">
       <use xlink:href="#DejaVuSans-35"/>
       <use xlink:href="#DejaVuSans-30" x="63.623047"/>
      </g>
     </g>
    </g>
    <g id="ytick_5">
     <g id="line2d_17">
      <g>
       <use xlink:href="#mdc68473daf" x="57.6" y="138.881137" style="stroke: #000000; stroke-width: 0.8"/>
      </g>
     </g>
     <g id="text_18">
      <!-- 55 -->
      <g transform="translate(37.875 142.680355)scale(0.1 -0.1)">
       <use xlink:href="#DejaVuSans-35"/>
       <use xlink:href="#DejaVuSans-35" x="63.623047"/>
      </g>
     </g>
    </g>
    <g id="ytick_6">
     <g id="line2d_18">
      <g>
       <use xlink:href="#mdc68473daf" x="57.6" y="104.832979" style="stroke: #000000; stroke-width: 0.8"/>
      </g>
     </g>
     <g id="text_19">
      <!-- 60 -->
      <g transform="translate(37.875 108.632198)scale(0.1 -0.1)">
       <use xlink:href="#DejaVuSans-36"/>
       <use xlink:href="#DejaVuSans-30" x="63.623047"/>
      </g>
     </g>
    </g>
    <g id="ytick_7">
     <g id="line2d_19">
      <g>
       <use xlink:href="#mdc68473daf" x="57.6" y="70.784822" style="stroke: #000000; stroke-width: 0.8"/>
      </g>
     </g>
     <g id="text_20">
      <!-- 65 -->
      <g transform="translate(37.875 74.584041)scale(0.1 -0.1)">
       <use xlink:href="#DejaVuSans-36"/>
       <use xlink:href="#DejaVuSans-35" x="63.623047"/>
      </g>
     </g>
    </g>
    <g id="text_21">
     <!-- $\alpha(\degree)$ -->
     <g transform="translate(31.795313 184.228)rotate(-90)scale(0.1 -0.1)">
      <defs>
       <path id="DejaVuSans-Oblique-3b1" d="M 2619 1628 
L 2622 2350 
Q 2625 3088 2069 3091 
Q 1653 3094 1394 2747 
Q 1069 2319 959 1747 
Q 825 1059 994 731 
Q 1169 397 1547 397 
Q 1966 397 2319 1063 
L 2619 1628 
z
M 2166 3578 
Q 3141 3594 3128 2584 
Q 3128 2584 3616 3500 
L 4128 3500 
L 3119 1603 
L 3109 919 
Q 3109 766 3194 638 
Q 3291 488 3391 488 
L 3669 488 
L 3575 0 
L 3228 0 
Q 2934 0 2722 263 
Q 2622 394 2619 669 
Q 2416 334 2066 50 
Q 1900 -81 1453 -78 
Q 722 -72 456 397 
Q 184 884 353 1747 
Q 534 2675 1009 3097 
Q 1544 3569 2166 3578 
z
" transform="scale(0.015625)"/>
       <path id="DejaVuSans-b0" d="M 1600 4347 
Q 1350 4347 1178 4173 
Q 1006 4000 1006 3750 
Q 1006 3503 1178 3333 
Q 1350 3163 1600 3163 
Q 1850 3163 2022 3333 
Q 2194 3503 2194 3750 
Q 2194 3997 2020 4172 
Q 1847 4347 1600 4347 
z
M 1600 4750 
Q 1800 4750 1984 4673 
Q 2169 4597 2303 4453 
Q 2447 4313 2519 4134 
Q 2591 3956 2591 3750 
Q 2591 3338 2302 3052 
Q 2013 2766 1594 2766 
Q 1172 2766 890 3047 
Q 609 3328 609 3750 
Q 609 4169 896 4459 
Q 1184 4750 1600 4750 
z
" transform="scale(0.015625)"/>
      </defs>
      <use xlink:href="#DejaVuSans-Oblique-3b1" transform="translate(0 0.125)"/>
      <use xlink:href="#DejaVuSans-28" transform="translate(65.917969 0.125)"/>
      <use xlink:href="#DejaVuSans-b0" transform="translate(104.931641 0.125)"/>
      <use xlink:href="#DejaVuSans-29" transform="translate(154.931641 0.125)"/>
     </g>
    </g>
   </g>
   <g id="line2d_20">
    <path d="M 73.832727 206.977451 
L 75.687896 212.833375 
L 76.615481 215.107688 
L 77.543065 216.828587 
L 78.470649 217.957463 
L 79.398234 218.480005 
L 80.325818 218.402053 
L 81.253403 217.748734 
L 82.180987 216.565782 
L 83.108571 214.92228 
L 84.96374 210.658942 
L 87.746494 203.773941 
L 88.674078 201.848141 
L 89.601662 200.260704 
L 90.529247 199.064053 
L 91.456831 198.281973 
L 92.384416 197.910474 
L 93.312 197.920523 
L 94.239584 198.262618 
L 95.167169 198.872846 
L 97.022338 200.611164 
L 99.805091 203.525026 
L 101.66026 205.123266 
L 103.515429 206.238656 
L 105.370597 206.8584 
L 107.225766 207.065469 
L 109.080935 206.991997 
L 116.50161 206.301341 
L 119.284364 206.372342 
L 130.415377 207.008927 
L 138.763636 206.951737 
L 150.822234 206.974352 
L 165.663584 206.975323 
L 166.591169 202.074027 
L 173.08426 279.431243 
L 174.011844 288.158093 
L 174.939429 294.735888 
L 175.867013 298.922371 
L 176.794597 300.774369 
L 177.722182 300.48241 
L 178.649766 298.282268 
L 179.577351 294.421705 
L 180.504935 289.150499 
L 181.432519 282.718544 
L 183.287688 267.38073 
L 186.998026 234.131405 
L 188.853195 220.273951 
L 189.780779 214.731877 
L 190.708364 210.242413 
L 191.635948 206.815282 
L 192.563532 204.393328 
L 193.491117 202.864939 
L 194.418701 202.082485 
L 195.346286 201.882357 
L 196.27387 202.102618 
L 197.201455 202.595693 
L 200.911792 205.149263 
L 201.839377 205.604382 
L 202.766961 205.927161 
L 203.694545 206.116276 
L 205.549714 206.141179 
L 207.404883 205.839304 
L 211.115221 205.05659 
L 212.97039 204.881338 
L 214.825558 204.935008 
L 216.680727 205.193718 
L 220.391065 206.034653 
L 224.101403 206.79176 
L 226.884156 207.097186 
L 229.666909 207.18363 
L 235.232416 207.055292 
L 241.725506 206.980258 
L 263.059948 206.971113 
L 289.032312 206.976676 
L 289.959896 211.947946 
L 290.887481 200.373403 
L 291.815065 191.018343 
L 292.742649 183.454933 
L 293.670234 177.302444 
L 294.597818 172.241299 
L 295.525403 168.015101 
L 296.452987 164.433642 
L 297.380571 161.391636 
L 298.308156 158.887565 
L 299.23574 156.984911 
L 300.163325 155.748664 
L 301.090909 155.218912 
L 302.018494 155.407929 
L 302.946078 156.302587 
L 303.873662 157.866995 
L 304.801247 160.044601 
L 305.728831 162.759607 
L 307.584 169.409123 
L 312.221922 187.568059 
L 314.077091 193.338623 
L 315.004675 195.704374 
L 315.93226 197.717137 
L 316.859844 199.388678 
L 317.787429 200.740624 
L 318.715013 201.802 
L 319.642597 202.607135 
L 320.570182 203.193674 
L 321.497766 203.600746 
L 323.352935 204.030119 
L 326.135688 204.214284 
L 328.918442 204.401582 
L 331.701195 204.839461 
L 340.049455 206.567052 
L 342.832208 206.834861 
L 346.542545 206.933075 
L 366.021818 206.975819 
L 392.921766 206.978278 
L 398.487273 206.977705 
L 398.487273 206.977705 
" clip-path="url(#p00b3660a3e)" style="fill: none; stroke: #1f77b4; stroke-width: 1.5; stroke-linecap: square"/>
   </g>
   <g id="line2d_21">
    <path d="M 73.832727 206.977451 
L 74.760312 210.288781 
L 75.687896 210.539892 
L 76.615481 211.805243 
L 78.470649 213.530343 
L 79.398234 214.199008 
L 80.325818 214.646917 
L 81.253403 214.802416 
L 82.180987 214.603006 
L 83.108571 214.00882 
L 84.036156 213.012777 
L 84.96374 211.645434 
L 86.818909 208.092897 
L 89.601662 202.333585 
L 90.529247 200.742381 
L 91.456831 199.466168 
L 92.384416 198.562544 
L 93.312 198.060937 
L 94.239584 197.961117 
L 95.167169 198.234416 
L 96.094753 198.827837 
L 97.022338 199.670623 
L 98.877506 201.78124 
L 100.732675 203.953057 
L 102.587844 205.749916 
L 103.515429 206.438716 
L 104.443013 206.978254 
L 105.370597 207.373737 
L 106.298182 207.636903 
L 108.153351 207.832385 
L 110.008519 207.712887 
L 118.356779 206.635946 
L 121.139532 206.668191 
L 132.270545 207.138364 
L 165.663584 206.987983 
L 166.591169 219.52251 
L 169.373922 148.148375 
L 171.229091 103.438851 
L 172.156675 83.476946 
L 173.08426 66.866462 
L 174.011844 54.663145 
L 174.939429 48.281631 
L 175.867013 48.917455 
L 176.794597 56.539209 
L 177.722182 69.794375 
L 178.649766 87.118151 
L 180.504935 129.335853 
L 183.287688 198.71601 
L 184.215273 217.73514 
L 185.142857 230.641381 
L 186.070442 236.992311 
L 186.998026 238.424991 
L 187.92561 236.740364 
L 188.853195 233.437654 
L 190.708364 225.924683 
L 191.635948 222.876825 
L 192.563532 220.723485 
L 193.491117 219.503026 
L 194.418701 219.023618 
L 195.346286 218.978053 
L 196.27387 219.045657 
L 197.201455 218.957525 
L 198.129039 218.539165 
L 199.056623 217.734968 
L 199.984208 216.60683 
L 202.766961 212.775635 
L 203.694545 211.796454 
L 204.62213 211.081501 
L 205.549714 210.629983 
L 206.477299 210.402761 
L 208.332468 210.343431 
L 210.187636 210.322586 
L 212.042805 210.002128 
L 217.608312 208.493909 
L 219.463481 208.425093 
L 223.173818 208.721494 
L 225.956571 208.845333 
L 229.666909 208.72259 
L 251.001351 207.586086 
L 265.842701 207.216253 
L 283.466805 207.060047 
L 289.032312 207.036078 
L 289.959896 195.180393 
L 291.815065 242.697858 
L 292.742649 264.573954 
L 293.670234 283.474668 
L 294.597818 290.848257 
L 295.525403 285.945957 
L 296.452987 277.693301 
L 300.163325 236.736895 
L 301.090909 228.937595 
L 302.018494 222.946102 
L 302.946078 218.528029 
L 303.873662 215.367478 
L 304.801247 213.209711 
L 305.728831 211.8591 
L 306.656416 211.149277 
L 307.584 210.897034 
L 310.366753 210.92109 
L 311.294338 211.124155 
L 312.221922 211.514299 
L 313.149506 212.079293 
L 315.004675 213.609739 
L 316.859844 215.307677 
L 317.787429 216.024542 
L 318.715013 216.556412 
L 319.642597 216.857428 
L 320.570182 216.911268 
L 321.497766 216.731677 
L 322.425351 216.356979 
L 324.280519 215.234272 
L 327.063273 213.354936 
L 328.918442 212.342506 
L 330.77361 211.622401 
L 332.628779 211.15971 
L 335.411532 210.772062 
L 345.614961 209.704884 
L 354.890805 208.414064 
L 359.528727 208.035374 
L 367.876987 207.634155 
L 379.935584 207.264259 
L 394.776935 207.084928 
L 398.487273 207.060753 
L 398.487273 207.060753 
" clip-path="url(#p00b3660a3e)" style="fill: none; stroke: #ff7f0e; stroke-width: 1.5; stroke-linecap: square"/>
   </g>
   <g id="line2d_22">
    <path d="M 73.832727 206.977451 
L 74.760312 206.768181 
L 75.687896 209.542669 
L 78.470649 213.843026 
L 79.398234 214.817578 
L 80.325818 215.36601 
L 81.253403 215.426893 
L 82.180987 214.976329 
L 83.108571 214.024828 
L 84.036156 212.614112 
L 84.96374 210.816676 
L 86.818909 206.486636 
L 88.674078 202.036554 
L 89.601662 200.092513 
L 90.529247 198.485885 
L 91.456831 197.300501 
L 92.384416 196.589307 
L 93.312 196.370028 
L 94.239584 196.624355 
L 95.167169 197.300775 
L 96.094753 198.321052 
L 97.949922 201.001978 
L 100.732675 205.165896 
L 101.66026 206.294641 
L 102.587844 207.227419 
L 103.515429 207.953618 
L 104.443013 208.477579 
L 105.370597 208.814445 
L 106.298182 208.986304 
L 107.225766 209.019118 
L 109.080935 208.777739 
L 111.863688 208.035217 
L 114.646442 207.31666 
L 116.50161 207.004731 
L 118.356779 206.854661 
L 121.139532 206.876408 
L 130.415377 207.305102 
L 135.980883 207.183591 
L 144.329143 207.026991 
L 165.663584 206.995372 
L 166.591169 219.689052 
L 168.446338 171.99499 
L 170.301506 128.583877 
L 172.156675 90.944903 
L 173.08426 78.01277 
L 174.011844 73.709 
L 174.939429 78.078545 
L 175.867013 87.668724 
L 176.794597 100.164329 
L 178.649766 129.664125 
L 181.432519 179.124222 
L 183.287688 212.528688 
L 184.215273 227.755111 
L 185.142857 239.988609 
L 186.070442 246.904006 
L 186.998026 248.153296 
L 187.92561 245.987049 
L 189.780779 238.253709 
L 191.635948 230.937573 
L 192.563532 228.115522 
L 193.491117 225.948752 
L 194.418701 224.415755 
L 195.346286 223.40858 
L 196.27387 222.771113 
L 199.984208 221.072103 
L 202.766961 219.194005 
L 204.62213 217.970468 
L 206.477299 216.951044 
L 211.115221 214.867976 
L 216.680727 212.358868 
L 218.535896 211.801948 
L 220.391065 211.448551 
L 224.101403 211.085313 
L 227.81174 210.704586 
L 234.304831 209.720127 
L 239.870338 208.957788 
L 245.435844 208.417431 
L 253.784104 207.889811 
L 263.987532 207.457162 
L 276.04613 207.209632 
L 289.032312 207.082285 
L 289.959896 191.156576 
L 291.815065 236.178443 
L 292.742649 253.753177 
L 293.670234 267.148998 
L 294.597818 276.2485 
L 295.525403 278.315529 
L 296.452987 271.475073 
L 298.308156 252.502865 
L 299.23574 245.456762 
L 301.090909 233.763009 
L 302.018494 229.017613 
L 302.946078 224.933185 
L 303.873662 221.49622 
L 304.801247 218.760505 
L 305.728831 216.840778 
L 306.656416 215.845993 
L 307.584 215.798976 
L 308.511584 216.552463 
L 312.221922 221.230611 
L 313.149506 222.044118 
L 314.077091 222.692293 
L 315.93226 223.587809 
L 316.859844 223.866336 
L 317.787429 224.028007 
L 318.715013 224.056925 
L 319.642597 223.936118 
L 320.570182 223.653847 
L 321.497766 223.208484 
L 323.352935 221.8874 
L 326.135688 219.307165 
L 327.990857 217.61185 
L 329.846026 216.190686 
L 331.701195 215.127403 
L 333.556364 214.388445 
L 336.339117 213.657241 
L 343.759792 211.952079 
L 352.108052 209.844664 
L 355.81839 209.173788 
L 360.456312 208.606528 
L 366.949403 208.081956 
L 376.225247 207.562417 
L 385.501091 207.284669 
L 398.487273 207.105675 
L 398.487273 207.105675 
" clip-path="url(#p00b3660a3e)" style="fill: none; stroke: #2ca02c; stroke-width: 1.5; stroke-linecap: square"/>
   </g>
   <g id="line2d_23">
    <path d="M 73.832727 206.977451 
L 74.760312 197.599932 
L 75.687896 195.627945 
L 76.615481 197.792465 
L 80.325818 211.124075 
L 81.253403 213.386327 
L 82.180987 214.905556 
L 83.108571 215.629572 
L 84.036156 215.562841 
L 84.96374 214.772621 
L 85.891325 213.383777 
L 86.818909 211.562486 
L 89.601662 205.35866 
L 90.529247 203.608272 
L 91.456831 202.230919 
L 92.384416 201.299556 
L 93.312 200.845744 
L 94.239584 200.860613 
L 95.167169 201.298919 
L 96.094753 202.085781 
L 97.949922 204.310877 
L 99.805091 206.694951 
L 100.732675 207.710036 
L 101.66026 208.51835 
L 102.587844 209.085273 
L 103.515429 209.403149 
L 104.443013 209.488677 
L 105.370597 209.377577 
L 107.225766 208.760903 
L 110.936104 207.257777 
L 112.791273 206.827328 
L 114.646442 206.672422 
L 117.429195 206.790776 
L 122.994701 207.216363 
L 127.632623 207.248186 
L 147.111896 207.020781 
L 165.663584 206.989058 
L 166.591169 196.924436 
L 167.518753 207.382518 
L 168.446338 214.681618 
L 169.373922 219.859376 
L 173.08426 236.550198 
L 174.011844 242.307498 
L 175.867013 256.131435 
L 177.722182 270.872251 
L 178.649766 277.010028 
L 179.577351 281.326725 
L 180.504935 283.080313 
L 181.432519 281.73039 
L 182.360104 277.167878 
L 183.287688 269.845049 
L 186.998026 234.177924 
L 187.92561 228.42772 
L 188.853195 224.400012 
L 189.780779 221.744935 
L 190.708364 220.049077 
L 191.635948 218.909882 
L 193.491117 216.866428 
L 194.418701 215.378689 
L 195.346286 213.332455 
L 196.27387 210.6939 
L 199.984208 198.327134 
L 200.911792 196.288807 
L 201.839377 195.018831 
L 202.766961 194.471643 
L 203.694545 194.532597 
L 204.62213 195.06385 
L 205.549714 195.930943 
L 207.404883 198.213337 
L 210.187636 201.778606 
L 212.042805 203.699135 
L 213.897974 205.110591 
L 215.753143 206.064182 
L 217.608312 206.68917 
L 220.391065 207.316378 
L 226.884156 208.45329 
L 229.666909 208.695116 
L 232.449662 208.68155 
L 237.087584 208.3197 
L 242.653091 207.946343 
L 260.277195 207.287987 
L 275.118545 207.102456 
L 289.032312 207.032191 
L 289.959896 214.648113 
L 292.742649 189.054667 
L 293.670234 183.11697 
L 295.525403 174.710205 
L 296.452987 169.064027 
L 299.23574 145.394574 
L 300.163325 139.969856 
L 301.090909 136.322658 
L 302.018494 134.366717 
L 302.946078 134.06587 
L 303.873662 135.321379 
L 304.801247 137.977213 
L 305.728831 141.822431 
L 306.656416 146.607372 
L 308.511584 157.968646 
L 311.294338 176.235976 
L 312.221922 181.709074 
L 313.149506 186.504054 
L 314.077091 190.483097 
L 315.004675 193.579008 
L 315.93226 195.801381 
L 316.859844 197.239457 
L 317.787429 198.051968 
L 318.715013 198.439076 
L 322.425351 199.171978 
L 323.352935 199.603485 
L 325.208104 200.819171 
L 328.918442 203.624724 
L 330.77361 204.716154 
L 332.628779 205.498995 
L 334.483948 206.045698 
L 338.194286 206.800934 
L 341.904623 207.325738 
L 344.687377 207.518944 
L 348.397714 207.52877 
L 359.528727 207.380872 
L 370.65974 207.252211 
L 387.35626 207.083893 
L 398.487273 207.031524 
L 398.487273 207.031524 
" clip-path="url(#p00b3660a3e)" style="fill: none; stroke: #d62728; stroke-width: 1.5; stroke-linecap: square"/>
   </g>
   <g id="line2d_24">
    <path d="M 73.832727 206.977451 
L 398.487273 206.977451 
L 398.487273 206.977451 
" clip-path="url(#p00b3660a3e)" style="fill: none; stroke: #9467bd; stroke-width: 1.5; stroke-linecap: square"/>
   </g>
   <g id="patch_3">
    <path d="M 57.6 307.584 
L 57.6 41.472 
" style="fill: none; stroke: #000000; stroke-width: 0.8; stroke-linejoin: miter; stroke-linecap: square"/>
   </g>
   <g id="patch_4">
    <path d="M 414.72 307.584 
L 414.72 41.472 
" style="fill: none; stroke: #000000; stroke-width: 0.8; stroke-linejoin: miter; stroke-linecap: square"/>
   </g>
   <g id="patch_5">
    <path d="M 57.6 307.584 
L 414.72 307.584 
" style="fill: none; stroke: #000000; stroke-width: 0.8; stroke-linejoin: miter; stroke-linecap: square"/>
   </g>
   <g id="patch_6">
    <path d="M 57.6 41.472 
L 414.72 41.472 
" style="fill: none; stroke: #000000; stroke-width: 0.8; stroke-linejoin: miter; stroke-linecap: square"/>
   </g>
   <g id="legend_1">
    <g id="patch_7">
     <path d="M 291.245 122.862625 
L 407.72 122.862625 
Q 409.72 122.862625 409.72 120.862625 
L 409.72 48.472 
Q 409.72 46.472 407.72 46.472 
L 291.245 46.472 
Q 289.245 46.472 289.245 48.472 
L 289.245 120.862625 
Q 289.245 122.862625 291.245 122.862625 
z
" style="fill: #ffffff; opacity: 0.8; stroke: #cccccc; stroke-linejoin: miter"/>
    </g>
    <g id="line2d_25">
     <path d="M 293.245 54.570438 
L 303.245 54.570438 
L 313.245 54.570438 
" style="fill: none; stroke: #1f77b4; stroke-width: 1.5; stroke-linecap: square"/>
    </g>
    <g id="text_22">
     <!-- $M_1$ -->
     <g transform="translate(321.245 58.070438)scale(0.1 -0.1)">
      <defs>
       <path id="DejaVuSans-Oblique-4d" d="M 1081 4666 
L 2028 4666 
L 2572 1522 
L 4378 4666 
L 5350 4666 
L 4441 0 
L 3828 0 
L 4622 4091 
L 2791 897 
L 2175 897 
L 1581 4103 
L 788 0 
L 172 0 
L 1081 4666 
z
" transform="scale(0.015625)"/>
      </defs>
      <use xlink:href="#DejaVuSans-Oblique-4d" transform="translate(0 0.09375)"/>
      <use xlink:href="#DejaVuSans-31" transform="translate(86.279297 -16.3125)scale(0.7)"/>
     </g>
    </g>
    <g id="line2d_26">
     <path d="M 293.245 69.248563 
L 303.245 69.248563 
L 313.245 69.248563 
" style="fill: none; stroke: #ff7f0e; stroke-width: 1.5; stroke-linecap: square"/>
    </g>
    <g id="text_23">
     <!-- $M_2$ -->
     <g transform="translate(321.245 72.748563)scale(0.1 -0.1)">
      <use xlink:href="#DejaVuSans-Oblique-4d" transform="translate(0 0.09375)"/>
      <use xlink:href="#DejaVuSans-32" transform="translate(86.279297 -16.3125)scale(0.7)"/>
     </g>
    </g>
    <g id="line2d_27">
     <path d="M 293.245 83.926688 
L 303.245 83.926688 
L 313.245 83.926688 
" style="fill: none; stroke: #2ca02c; stroke-width: 1.5; stroke-linecap: square"/>
    </g>
    <g id="text_24">
     <!-- $M_3$ -->
     <g transform="translate(321.245 87.426688)scale(0.1 -0.1)">
      <use xlink:href="#DejaVuSans-Oblique-4d" transform="translate(0 0.09375)"/>
      <use xlink:href="#DejaVuSans-33" transform="translate(86.279297 -16.3125)scale(0.7)"/>
     </g>
    </g>
    <g id="line2d_28">
     <path d="M 293.245 98.604813 
L 303.245 98.604813 
L 313.245 98.604813 
" style="fill: none; stroke: #d62728; stroke-width: 1.5; stroke-linecap: square"/>
    </g>
    <g id="text_25">
     <!-- $M_4$ -->
     <g transform="translate(321.245 102.104813)scale(0.1 -0.1)">
      <use xlink:href="#DejaVuSans-Oblique-4d" transform="translate(0 0.09375)"/>
      <use xlink:href="#DejaVuSans-34" transform="translate(86.279297 -16.3125)scale(0.7)"/>
     </g>
    </g>
    <g id="line2d_29">
     <path d="M 293.245 113.282938 
L 303.245 113.282938 
L 313.245 113.282938 
" style="fill: none; stroke: #9467bd; stroke-width: 1.5; stroke-linecap: square"/>
    </g>
    <g id="text_26">
     <!-- Reference Target -->
     <g transform="translate(321.245 116.782938)scale(0.1 -0.1)">
      <defs>
       <path id="DejaVuSans-52" d="M 2841 2188 
Q 3044 2119 3236 1894 
Q 3428 1669 3622 1275 
L 4263 0 
L 3584 0 
L 2988 1197 
Q 2756 1666 2539 1819 
Q 2322 1972 1947 1972 
L 1259 1972 
L 1259 0 
L 628 0 
L 628 4666 
L 2053 4666 
Q 2853 4666 3247 4331 
Q 3641 3997 3641 3322 
Q 3641 2881 3436 2590 
Q 3231 2300 2841 2188 
z
M 1259 4147 
L 1259 2491 
L 2053 2491 
Q 2509 2491 2742 2702 
Q 2975 2913 2975 3322 
Q 2975 3731 2742 3939 
Q 2509 4147 2053 4147 
L 1259 4147 
z
" transform="scale(0.015625)"/>
       <path id="DejaVuSans-66" d="M 2375 4863 
L 2375 4384 
L 1825 4384 
Q 1516 4384 1395 4259 
Q 1275 4134 1275 3809 
L 1275 3500 
L 2222 3500 
L 2222 3053 
L 1275 3053 
L 1275 0 
L 697 0 
L 697 3053 
L 147 3053 
L 147 3500 
L 697 3500 
L 697 3744 
Q 697 4328 969 4595 
Q 1241 4863 1831 4863 
L 2375 4863 
z
" transform="scale(0.015625)"/>
       <path id="DejaVuSans-72" d="M 2631 2963 
Q 2534 3019 2420 3045 
Q 2306 3072 2169 3072 
Q 1681 3072 1420 2755 
Q 1159 2438 1159 1844 
L 1159 0 
L 581 0 
L 581 3500 
L 1159 3500 
L 1159 2956 
Q 1341 3275 1631 3429 
Q 1922 3584 2338 3584 
Q 2397 3584 2469 3576 
Q 2541 3569 2628 3553 
L 2631 2963 
z
" transform="scale(0.015625)"/>
       <path id="DejaVuSans-6e" d="M 3513 2113 
L 3513 0 
L 2938 0 
L 2938 2094 
Q 2938 2591 2744 2837 
Q 2550 3084 2163 3084 
Q 1697 3084 1428 2787 
Q 1159 2491 1159 1978 
L 1159 0 
L 581 0 
L 581 3500 
L 1159 3500 
L 1159 2956 
Q 1366 3272 1645 3428 
Q 1925 3584 2291 3584 
Q 2894 3584 3203 3211 
Q 3513 2838 3513 2113 
z
" transform="scale(0.015625)"/>
       <path id="DejaVuSans-63" d="M 3122 3366 
L 3122 2828 
Q 2878 2963 2633 3030 
Q 2388 3097 2138 3097 
Q 1578 3097 1268 2742 
Q 959 2388 959 1747 
Q 959 1106 1268 751 
Q 1578 397 2138 397 
Q 2388 397 2633 464 
Q 2878 531 3122 666 
L 3122 134 
Q 2881 22 2623 -34 
Q 2366 -91 2075 -91 
Q 1284 -91 818 406 
Q 353 903 353 1747 
Q 353 2603 823 3093 
Q 1294 3584 2113 3584 
Q 2378 3584 2631 3529 
Q 2884 3475 3122 3366 
z
" transform="scale(0.015625)"/>
       <path id="DejaVuSans-20" transform="scale(0.015625)"/>
       <path id="DejaVuSans-54" d="M -19 4666 
L 3928 4666 
L 3928 4134 
L 2272 4134 
L 2272 0 
L 1638 0 
L 1638 4134 
L -19 4134 
L -19 4666 
z
" transform="scale(0.015625)"/>
       <path id="DejaVuSans-61" d="M 2194 1759 
Q 1497 1759 1228 1600 
Q 959 1441 959 1056 
Q 959 750 1161 570 
Q 1363 391 1709 391 
Q 2188 391 2477 730 
Q 2766 1069 2766 1631 
L 2766 1759 
L 2194 1759 
z
M 3341 1997 
L 3341 0 
L 2766 0 
L 2766 531 
Q 2569 213 2275 61 
Q 1981 -91 1556 -91 
Q 1019 -91 701 211 
Q 384 513 384 1019 
Q 384 1609 779 1909 
Q 1175 2209 1959 2209 
L 2766 2209 
L 2766 2266 
Q 2766 2663 2505 2880 
Q 2244 3097 1772 3097 
Q 1472 3097 1187 3025 
Q 903 2953 641 2809 
L 641 3341 
Q 956 3463 1253 3523 
Q 1550 3584 1831 3584 
Q 2591 3584 2966 3190 
Q 3341 2797 3341 1997 
z
" transform="scale(0.015625)"/>
       <path id="DejaVuSans-67" d="M 2906 1791 
Q 2906 2416 2648 2759 
Q 2391 3103 1925 3103 
Q 1463 3103 1205 2759 
Q 947 2416 947 1791 
Q 947 1169 1205 825 
Q 1463 481 1925 481 
Q 2391 481 2648 825 
Q 2906 1169 2906 1791 
z
M 3481 434 
Q 3481 -459 3084 -895 
Q 2688 -1331 1869 -1331 
Q 1566 -1331 1297 -1286 
Q 1028 -1241 775 -1147 
L 775 -588 
Q 1028 -725 1275 -790 
Q 1522 -856 1778 -856 
Q 2344 -856 2625 -561 
Q 2906 -266 2906 331 
L 2906 616 
Q 2728 306 2450 153 
Q 2172 0 1784 0 
Q 1141 0 747 490 
Q 353 981 353 1791 
Q 353 2603 747 3093 
Q 1141 3584 1784 3584 
Q 2172 3584 2450 3431 
Q 2728 3278 2906 2969 
L 2906 3500 
L 3481 3500 
L 3481 434 
z
" transform="scale(0.015625)"/>
      </defs>
      <use xlink:href="#DejaVuSans-52"/>
      <use xlink:href="#DejaVuSans-65" x="64.982422"/>
      <use xlink:href="#DejaVuSans-66" x="126.505859"/>
      <use xlink:href="#DejaVuSans-65" x="161.710938"/>
      <use xlink:href="#DejaVuSans-72" x="223.234375"/>
      <use xlink:href="#DejaVuSans-65" x="262.097656"/>
      <use xlink:href="#DejaVuSans-6e" x="323.621094"/>
      <use xlink:href="#DejaVuSans-63" x="387"/>
      <use xlink:href="#DejaVuSans-65" x="441.980469"/>
      <use xlink:href="#DejaVuSans-20" x="503.503906"/>
      <use xlink:href="#DejaVuSans-54" x="535.291016"/>
      <use xlink:href="#DejaVuSans-61" x="579.875"/>
      <use xlink:href="#DejaVuSans-72" x="641.154297"/>
      <use xlink:href="#DejaVuSans-67" x="680.517578"/>
      <use xlink:href="#DejaVuSans-65" x="743.994141"/>
      <use xlink:href="#DejaVuSans-74" x="805.517578"/>
     </g>
    </g>
   </g>
  </g>
 </g>
 <defs>
  <clipPath id="p00b3660a3e">
   <rect x="57.6" y="41.472" width="357.12" height="266.112"/>
  </clipPath>
 </defs>
</svg>
