<?xml version="1.0" encoding="UTF-8" standalone="no"?>
<svg
   width="460.8pt"
   height="345.6pt"
   viewBox="0 0 460.8 345.6"
   version="1.1"
   id="svg518"
   sodipodi:docname="resultant_error_formal.svg"
   inkscape:version="1.1.2 (b8e25be833, 2022-02-05)"
   xmlns:inkscape="http://www.inkscape.org/namespaces/inkscape"
   xmlns:sodipodi="http://sodipodi.sourceforge.net/DTD/sodipodi-0.dtd"
   xmlns:xlink="http://www.w3.org/1999/xlink"
   xmlns="http://www.w3.org/2000/svg"
   xmlns:svg="http://www.w3.org/2000/svg"
   xmlns:rdf="http://www.w3.org/1999/02/22-rdf-syntax-ns#"
   xmlns:cc="http://creativecommons.org/ns#"
   xmlns:dc="http://purl.org/dc/elements/1.1/">
  <sodipodi:namedview
     id="namedview520"
     pagecolor="#ffffff"
     bordercolor="#666666"
     borderopacity="1.0"
     inkscape:pageshadow="2"
     inkscape:pageopacity="0.0"
     inkscape:pagecheckerboard="0"
     inkscape:document-units="pt"
     showgrid="false"
     inkscape:zoom="5.3585435"
     inkscape:cx="134.36487"
     inkscape:cy="238.12441"
     inkscape:window-width="2560"
     inkscape:window-height="1406"
     inkscape:window-x="-11"
     inkscape:window-y="-11"
     inkscape:window-maximized="1"
     inkscape:current-layer="matplotlib.axis_2" />
  <metadata
     id="metadata2">
    <rdf:RDF>
      <cc:Work>
        <dc:type
           rdf:resource="http://purl.org/dc/dcmitype/StillImage" />
        <dc:date>2022-08-09T02:59:37.797230</dc:date>
        <dc:format>image/svg+xml</dc:format>
        <dc:creator>
          <cc:Agent>
            <dc:title>Matplotlib v3.5.2, https://matplotlib.org/</dc:title>
          </cc:Agent>
        </dc:creator>
      </cc:Work>
    </rdf:RDF>
  </metadata>
  <defs
     id="defs6">
    <style
       type="text/css"
       id="style4">*{stroke-linejoin: round; stroke-linecap: butt}</style>
    <path
       id="DejaVuSans-7c"
       d="M 1344,4891 V -1509 H 813 v 6400 z"
       transform="scale(0.015625)" />
    <path
       id="DejaVuSans-Oblique-65-8"
       d="m 3078,2063 q 10,50 14,103 5,53 5,106 0,381 -224,603 -223,222 -607,222 -428,0 -757,-271 -328,-270 -496,-767 z m 500,-450 H 903 q -19,-119 -25,-188 -6,-69 -6,-119 0,-434 267,-672 267,-237 755,-237 375,0 709,84 335,85 622,247 L 3116,159 Q 2806,34 2476,-28 2147,-91 1806,-91 1078,-91 686,257 294,606 294,1247 q 0,547 195,1017 195,470 574,839 243,231 579,356 336,125 714,125 594,0 945,-356 352,-356 352,-956 0,-144 -19,-308 -18,-164 -56,-351 z"
       transform="scale(0.015625)" />
    <path
       id="DejaVuSans-Oblique-72-8"
       d="m 2853,2969 q -87,47 -200,72 -112,25 -240,25 -460,0 -804,-349 -343,-348 -456,-933 L 800,0 H 225 l 684,3500 h 575 l -109,-544 q 228,303 545,465 318,163 677,163 94,0 184,-11 91,-10 182,-35 z"
       transform="scale(0.015625)" />
    <path
       id="DejaVuSans-Oblique-69-4"
       d="m 1172,4863 h 575 L 1606,4134 H 1031 Z M 909,3500 h 575 L 800,0 H 225 Z"
       transform="scale(0.015625)" />
  </defs>
  <g
     id="figure_1">
    <g
       id="patch_1">
      <path
         d="M 0 345.6  L 460.8 345.6  L 460.8 0  L 0 0  z "
         style="fill: #ffffff"
         id="path8" />
    </g>
    <g
       id="axes_1">
      <g
         id="patch_2">
        <path
           d="M 57.6 307.584  L 414.72 307.584  L 414.72 41.472  L 57.6 41.472  z "
           style="fill: #ffffff"
           id="path11" />
      </g>
      <g
         id="matplotlib.axis_1">
        <g
           id="xtick_1">
          <g
             id="line2d_1">
            <defs
               id="defs15">
              <path
                 id="m43fb5fd20c"
                 d="M 0 0  L 0 3.5  "
                 style="stroke: #000000; stroke-width: 0.8" />
            </defs>
            <g
               id="g19">
              <use
                 xlink:href="#m43fb5fd20c"
                 x="73.832727"
                 y="307.584"
                 style="stroke: #000000; stroke-width: 0.8"
                 id="use17" />
            </g>
          </g>
          <g
             id="text_1">
            <!-- 0.0 -->
            <g
               transform="translate(65.881165 322.182437)scale(0.1 -0.1)"
               id="g32">
              <defs
                 id="defs24">
                <path
                   id="DejaVuSans-30"
                   d="M 2034 4250  Q 1547 4250 1301 3770  Q 1056 3291 1056 2328  Q 1056 1369 1301 889  Q 1547 409 2034 409  Q 2525 409 2770 889  Q 3016 1369 3016 2328  Q 3016 3291 2770 3770  Q 2525 4250 2034 4250  z M 2034 4750  Q 2819 4750 3233 4129  Q 3647 3509 3647 2328  Q 3647 1150 3233 529  Q 2819 -91 2034 -91  Q 1250 -91 836 529  Q 422 1150 422 2328  Q 422 3509 836 4129  Q 1250 4750 2034 4750  z "
                   transform="scale(0.015625)" />
                <path
                   id="DejaVuSans-2e"
                   d="M 684 794  L 1344 794  L 1344 0  L 684 0  L 684 794  z "
                   transform="scale(0.015625)" />
              </defs>
              <use
                 xlink:href="#DejaVuSans-30"
                 id="use26" />
              <use
                 xlink:href="#DejaVuSans-2e"
                 x="63.623047"
                 id="use28" />
              <use
                 xlink:href="#DejaVuSans-30"
                 x="95.410156"
                 id="use30" />
            </g>
          </g>
        </g>
        <g
           id="xtick_2">
          <g
             id="line2d_2">
            <g
               id="g38">
              <use
                 xlink:href="#m43fb5fd20c"
                 x="101.66026"
                 y="307.584"
                 style="stroke: #000000; stroke-width: 0.8"
                 id="use36" />
            </g>
          </g>
          <g
             id="text_2">
            <!-- 3.0 -->
            <g
               transform="translate(93.708697 322.182437)scale(0.1 -0.1)"
               id="g50">
              <defs
                 id="defs42">
                <path
                   id="DejaVuSans-33"
                   d="M 2597 2516  Q 3050 2419 3304 2112  Q 3559 1806 3559 1356  Q 3559 666 3084 287  Q 2609 -91 1734 -91  Q 1441 -91 1130 -33  Q 819 25 488 141  L 488 750  Q 750 597 1062 519  Q 1375 441 1716 441  Q 2309 441 2620 675  Q 2931 909 2931 1356  Q 2931 1769 2642 2001  Q 2353 2234 1838 2234  L 1294 2234  L 1294 2753  L 1863 2753  Q 2328 2753 2575 2939  Q 2822 3125 2822 3475  Q 2822 3834 2567 4026  Q 2313 4219 1838 4219  Q 1578 4219 1281 4162  Q 984 4106 628 3988  L 628 4550  Q 988 4650 1302 4700  Q 1616 4750 1894 4750  Q 2613 4750 3031 4423  Q 3450 4097 3450 3541  Q 3450 3153 3228 2886  Q 3006 2619 2597 2516  z "
                   transform="scale(0.015625)" />
              </defs>
              <use
                 xlink:href="#DejaVuSans-33"
                 id="use44" />
              <use
                 xlink:href="#DejaVuSans-2e"
                 x="63.623047"
                 id="use46" />
              <use
                 xlink:href="#DejaVuSans-30"
                 x="95.410156"
                 id="use48" />
            </g>
          </g>
        </g>
        <g
           id="xtick_3">
          <g
             id="line2d_3">
            <g
               id="g56">
              <use
                 xlink:href="#m43fb5fd20c"
                 x="129.487792"
                 y="307.584"
                 style="stroke: #000000; stroke-width: 0.8"
                 id="use54" />
            </g>
          </g>
          <g
             id="text_3">
            <!-- 6.0 -->
            <g
               transform="translate(121.53623 322.182437)scale(0.1 -0.1)"
               id="g68">
              <defs
                 id="defs60">
                <path
                   id="DejaVuSans-36"
                   d="M 2113 2584  Q 1688 2584 1439 2293  Q 1191 2003 1191 1497  Q 1191 994 1439 701  Q 1688 409 2113 409  Q 2538 409 2786 701  Q 3034 994 3034 1497  Q 3034 2003 2786 2293  Q 2538 2584 2113 2584  z M 3366 4563  L 3366 3988  Q 3128 4100 2886 4159  Q 2644 4219 2406 4219  Q 1781 4219 1451 3797  Q 1122 3375 1075 2522  Q 1259 2794 1537 2939  Q 1816 3084 2150 3084  Q 2853 3084 3261 2657  Q 3669 2231 3669 1497  Q 3669 778 3244 343  Q 2819 -91 2113 -91  Q 1303 -91 875 529  Q 447 1150 447 2328  Q 447 3434 972 4092  Q 1497 4750 2381 4750  Q 2619 4750 2861 4703  Q 3103 4656 3366 4563  z "
                   transform="scale(0.015625)" />
              </defs>
              <use
                 xlink:href="#DejaVuSans-36"
                 id="use62" />
              <use
                 xlink:href="#DejaVuSans-2e"
                 x="63.623047"
                 id="use64" />
              <use
                 xlink:href="#DejaVuSans-30"
                 x="95.410156"
                 id="use66" />
            </g>
          </g>
        </g>
        <g
           id="xtick_4">
          <g
             id="line2d_4">
            <g
               id="g74">
              <use
                 xlink:href="#m43fb5fd20c"
                 x="157.315325"
                 y="307.584"
                 style="stroke: #000000; stroke-width: 0.8"
                 id="use72" />
            </g>
          </g>
          <g
             id="text_4">
            <!-- 9.0 -->
            <g
               transform="translate(149.363762 322.182437)scale(0.1 -0.1)"
               id="g86">
              <defs
                 id="defs78">
                <path
                   id="DejaVuSans-39"
                   d="M 703 97  L 703 672  Q 941 559 1184 500  Q 1428 441 1663 441  Q 2288 441 2617 861  Q 2947 1281 2994 2138  Q 2813 1869 2534 1725  Q 2256 1581 1919 1581  Q 1219 1581 811 2004  Q 403 2428 403 3163  Q 403 3881 828 4315  Q 1253 4750 1959 4750  Q 2769 4750 3195 4129  Q 3622 3509 3622 2328  Q 3622 1225 3098 567  Q 2575 -91 1691 -91  Q 1453 -91 1209 -44  Q 966 3 703 97  z M 1959 2075  Q 2384 2075 2632 2365  Q 2881 2656 2881 3163  Q 2881 3666 2632 3958  Q 2384 4250 1959 4250  Q 1534 4250 1286 3958  Q 1038 3666 1038 3163  Q 1038 2656 1286 2365  Q 1534 2075 1959 2075  z "
                   transform="scale(0.015625)" />
              </defs>
              <use
                 xlink:href="#DejaVuSans-39"
                 id="use80" />
              <use
                 xlink:href="#DejaVuSans-2e"
                 x="63.623047"
                 id="use82" />
              <use
                 xlink:href="#DejaVuSans-30"
                 x="95.410156"
                 id="use84" />
            </g>
          </g>
        </g>
        <g
           id="xtick_5">
          <g
             id="line2d_5">
            <g
               id="g92">
              <use
                 xlink:href="#m43fb5fd20c"
                 x="185.142857"
                 y="307.584"
                 style="stroke: #000000; stroke-width: 0.8"
                 id="use90" />
            </g>
          </g>
          <g
             id="text_5">
            <!-- 12.0 -->
            <g
               transform="translate(174.010045 322.182437)scale(0.1 -0.1)"
               id="g107">
              <defs
                 id="defs97">
                <path
                   id="DejaVuSans-31"
                   d="M 794 531  L 1825 531  L 1825 4091  L 703 3866  L 703 4441  L 1819 4666  L 2450 4666  L 2450 531  L 3481 531  L 3481 0  L 794 0  L 794 531  z "
                   transform="scale(0.015625)" />
                <path
                   id="DejaVuSans-32"
                   d="M 1228 531  L 3431 531  L 3431 0  L 469 0  L 469 531  Q 828 903 1448 1529  Q 2069 2156 2228 2338  Q 2531 2678 2651 2914  Q 2772 3150 2772 3378  Q 2772 3750 2511 3984  Q 2250 4219 1831 4219  Q 1534 4219 1204 4116  Q 875 4013 500 3803  L 500 4441  Q 881 4594 1212 4672  Q 1544 4750 1819 4750  Q 2544 4750 2975 4387  Q 3406 4025 3406 3419  Q 3406 3131 3298 2873  Q 3191 2616 2906 2266  Q 2828 2175 2409 1742  Q 1991 1309 1228 531  z "
                   transform="scale(0.015625)" />
              </defs>
              <use
                 xlink:href="#DejaVuSans-31"
                 id="use99" />
              <use
                 xlink:href="#DejaVuSans-32"
                 x="63.623047"
                 id="use101" />
              <use
                 xlink:href="#DejaVuSans-2e"
                 x="127.246094"
                 id="use103" />
              <use
                 xlink:href="#DejaVuSans-30"
                 x="159.033203"
                 id="use105" />
            </g>
          </g>
        </g>
        <g
           id="xtick_6">
          <g
             id="line2d_6">
            <g
               id="g113">
              <use
                 xlink:href="#m43fb5fd20c"
                 x="212.97039"
                 y="307.584"
                 style="stroke: #000000; stroke-width: 0.8"
                 id="use111" />
            </g>
          </g>
          <g
             id="text_6">
            <!-- 15.0 -->
            <g
               transform="translate(201.837577 322.182437)scale(0.1 -0.1)"
               id="g127">
              <defs
                 id="defs117">
                <path
                   id="DejaVuSans-35"
                   d="M 691 4666  L 3169 4666  L 3169 4134  L 1269 4134  L 1269 2991  Q 1406 3038 1543 3061  Q 1681 3084 1819 3084  Q 2600 3084 3056 2656  Q 3513 2228 3513 1497  Q 3513 744 3044 326  Q 2575 -91 1722 -91  Q 1428 -91 1123 -41  Q 819 9 494 109  L 494 744  Q 775 591 1075 516  Q 1375 441 1709 441  Q 2250 441 2565 725  Q 2881 1009 2881 1497  Q 2881 1984 2565 2268  Q 2250 2553 1709 2553  Q 1456 2553 1204 2497  Q 953 2441 691 2322  L 691 4666  z "
                   transform="scale(0.015625)" />
              </defs>
              <use
                 xlink:href="#DejaVuSans-31"
                 id="use119" />
              <use
                 xlink:href="#DejaVuSans-35"
                 x="63.623047"
                 id="use121" />
              <use
                 xlink:href="#DejaVuSans-2e"
                 x="127.246094"
                 id="use123" />
              <use
                 xlink:href="#DejaVuSans-30"
                 x="159.033203"
                 id="use125" />
            </g>
          </g>
        </g>
        <g
           id="xtick_7">
          <g
             id="line2d_7">
            <g
               id="g133">
              <use
                 xlink:href="#m43fb5fd20c"
                 x="240.797922"
                 y="307.584"
                 style="stroke: #000000; stroke-width: 0.8"
                 id="use131" />
            </g>
          </g>
          <g
             id="text_7">
            <!-- 18.0 -->
            <g
               transform="translate(229.66511 322.182437)scale(0.1 -0.1)"
               id="g147">
              <defs
                 id="defs137">
                <path
                   id="DejaVuSans-38"
                   d="M 2034 2216  Q 1584 2216 1326 1975  Q 1069 1734 1069 1313  Q 1069 891 1326 650  Q 1584 409 2034 409  Q 2484 409 2743 651  Q 3003 894 3003 1313  Q 3003 1734 2745 1975  Q 2488 2216 2034 2216  z M 1403 2484  Q 997 2584 770 2862  Q 544 3141 544 3541  Q 544 4100 942 4425  Q 1341 4750 2034 4750  Q 2731 4750 3128 4425  Q 3525 4100 3525 3541  Q 3525 3141 3298 2862  Q 3072 2584 2669 2484  Q 3125 2378 3379 2068  Q 3634 1759 3634 1313  Q 3634 634 3220 271  Q 2806 -91 2034 -91  Q 1263 -91 848 271  Q 434 634 434 1313  Q 434 1759 690 2068  Q 947 2378 1403 2484  z M 1172 3481  Q 1172 3119 1398 2916  Q 1625 2713 2034 2713  Q 2441 2713 2670 2916  Q 2900 3119 2900 3481  Q 2900 3844 2670 4047  Q 2441 4250 2034 4250  Q 1625 4250 1398 4047  Q 1172 3844 1172 3481  z "
                   transform="scale(0.015625)" />
              </defs>
              <use
                 xlink:href="#DejaVuSans-31"
                 id="use139" />
              <use
                 xlink:href="#DejaVuSans-38"
                 x="63.623047"
                 id="use141" />
              <use
                 xlink:href="#DejaVuSans-2e"
                 x="127.246094"
                 id="use143" />
              <use
                 xlink:href="#DejaVuSans-30"
                 x="159.033203"
                 id="use145" />
            </g>
          </g>
        </g>
        <g
           id="xtick_8">
          <g
             id="line2d_8">
            <g
               id="g153">
              <use
                 xlink:href="#m43fb5fd20c"
                 x="268.625455"
                 y="307.584"
                 style="stroke: #000000; stroke-width: 0.8"
                 id="use151" />
            </g>
          </g>
          <g
             id="text_8">
            <!-- 21.0 -->
            <g
               transform="translate(257.492642 322.182437)scale(0.1 -0.1)"
               id="g164">
              <use
                 xlink:href="#DejaVuSans-32"
                 id="use156" />
              <use
                 xlink:href="#DejaVuSans-31"
                 x="63.623047"
                 id="use158" />
              <use
                 xlink:href="#DejaVuSans-2e"
                 x="127.246094"
                 id="use160" />
              <use
                 xlink:href="#DejaVuSans-30"
                 x="159.033203"
                 id="use162" />
            </g>
          </g>
        </g>
        <g
           id="xtick_9">
          <g
             id="line2d_9">
            <g
               id="g170">
              <use
                 xlink:href="#m43fb5fd20c"
                 x="296.452987"
                 y="307.584"
                 style="stroke: #000000; stroke-width: 0.8"
                 id="use168" />
            </g>
          </g>
          <g
             id="text_9">
            <!-- 24.0 -->
            <g
               transform="translate(285.320175 322.182437)scale(0.1 -0.1)"
               id="g184">
              <defs
                 id="defs174">
                <path
                   id="DejaVuSans-34"
                   d="M 2419 4116  L 825 1625  L 2419 1625  L 2419 4116  z M 2253 4666  L 3047 4666  L 3047 1625  L 3713 1625  L 3713 1100  L 3047 1100  L 3047 0  L 2419 0  L 2419 1100  L 313 1100  L 313 1709  L 2253 4666  z "
                   transform="scale(0.015625)" />
              </defs>
              <use
                 xlink:href="#DejaVuSans-32"
                 id="use176" />
              <use
                 xlink:href="#DejaVuSans-34"
                 x="63.623047"
                 id="use178" />
              <use
                 xlink:href="#DejaVuSans-2e"
                 x="127.246094"
                 id="use180" />
              <use
                 xlink:href="#DejaVuSans-30"
                 x="159.033203"
                 id="use182" />
            </g>
          </g>
        </g>
        <g
           id="xtick_10">
          <g
             id="line2d_10">
            <g
               id="g190">
              <use
                 xlink:href="#m43fb5fd20c"
                 x="324.280519"
                 y="307.584"
                 style="stroke: #000000; stroke-width: 0.8"
                 id="use188" />
            </g>
          </g>
          <g
             id="text_10">
            <!-- 27.0 -->
            <g
               transform="translate(313.147707 322.182437)scale(0.1 -0.1)"
               id="g204">
              <defs
                 id="defs194">
                <path
                   id="DejaVuSans-37"
                   d="M 525 4666  L 3525 4666  L 3525 4397  L 1831 0  L 1172 0  L 2766 4134  L 525 4134  L 525 4666  z "
                   transform="scale(0.015625)" />
              </defs>
              <use
                 xlink:href="#DejaVuSans-32"
                 id="use196" />
              <use
                 xlink:href="#DejaVuSans-37"
                 x="63.623047"
                 id="use198" />
              <use
                 xlink:href="#DejaVuSans-2e"
                 x="127.246094"
                 id="use200" />
              <use
                 xlink:href="#DejaVuSans-30"
                 x="159.033203"
                 id="use202" />
            </g>
          </g>
        </g>
        <g
           id="xtick_11">
          <g
             id="line2d_11">
            <g
               id="g210">
              <use
                 xlink:href="#m43fb5fd20c"
                 x="352.108052"
                 y="307.584"
                 style="stroke: #000000; stroke-width: 0.8"
                 id="use208" />
            </g>
          </g>
          <g
             id="text_11">
            <!-- 30.0 -->
            <g
               transform="translate(340.975239 322.182437)scale(0.1 -0.1)"
               id="g221">
              <use
                 xlink:href="#DejaVuSans-33"
                 id="use213" />
              <use
                 xlink:href="#DejaVuSans-30"
                 x="63.623047"
                 id="use215" />
              <use
                 xlink:href="#DejaVuSans-2e"
                 x="127.246094"
                 id="use217" />
              <use
                 xlink:href="#DejaVuSans-30"
                 x="159.033203"
                 id="use219" />
            </g>
          </g>
        </g>
        <g
           id="xtick_12">
          <g
             id="line2d_12">
            <g
               id="g227">
              <use
                 xlink:href="#m43fb5fd20c"
                 x="379.935584"
                 y="307.584"
                 style="stroke: #000000; stroke-width: 0.8"
                 id="use225" />
            </g>
          </g>
          <g
             id="text_12">
            <!-- 33.0 -->
            <g
               transform="translate(368.802772 322.182437)scale(0.1 -0.1)"
               id="g238">
              <use
                 xlink:href="#DejaVuSans-33"
                 id="use230" />
              <use
                 xlink:href="#DejaVuSans-33"
                 x="63.623047"
                 id="use232" />
              <use
                 xlink:href="#DejaVuSans-2e"
                 x="127.246094"
                 id="use234" />
              <use
                 xlink:href="#DejaVuSans-30"
                 x="159.033203"
                 id="use236" />
            </g>
          </g>
        </g>
        <g
           id="text_13">
          <!-- time(s) -->
          <g
             transform="translate(218.357656 335.860562)scale(0.1 -0.1)"
             id="g265">
            <defs
               id="defs249">
              <path
                 id="DejaVuSans-74"
                 d="M 1172 4494  L 1172 3500  L 2356 3500  L 2356 3053  L 1172 3053  L 1172 1153  Q 1172 725 1289 603  Q 1406 481 1766 481  L 2356 481  L 2356 0  L 1766 0  Q 1100 0 847 248  Q 594 497 594 1153  L 594 3053  L 172 3053  L 172 3500  L 594 3500  L 594 4494  L 1172 4494  z "
                 transform="scale(0.015625)" />
              <path
                 id="DejaVuSans-69"
                 d="M 603 3500  L 1178 3500  L 1178 0  L 603 0  L 603 3500  z M 603 4863  L 1178 4863  L 1178 4134  L 603 4134  L 603 4863  z "
                 transform="scale(0.015625)" />
              <path
                 id="DejaVuSans-6d"
                 d="M 3328 2828  Q 3544 3216 3844 3400  Q 4144 3584 4550 3584  Q 5097 3584 5394 3201  Q 5691 2819 5691 2113  L 5691 0  L 5113 0  L 5113 2094  Q 5113 2597 4934 2840  Q 4756 3084 4391 3084  Q 3944 3084 3684 2787  Q 3425 2491 3425 1978  L 3425 0  L 2847 0  L 2847 2094  Q 2847 2600 2669 2842  Q 2491 3084 2119 3084  Q 1678 3084 1418 2786  Q 1159 2488 1159 1978  L 1159 0  L 581 0  L 581 3500  L 1159 3500  L 1159 2956  Q 1356 3278 1631 3431  Q 1906 3584 2284 3584  Q 2666 3584 2933 3390  Q 3200 3197 3328 2828  z "
                 transform="scale(0.015625)" />
              <path
                 id="DejaVuSans-65"
                 d="M 3597 1894  L 3597 1613  L 953 1613  Q 991 1019 1311 708  Q 1631 397 2203 397  Q 2534 397 2845 478  Q 3156 559 3463 722  L 3463 178  Q 3153 47 2828 -22  Q 2503 -91 2169 -91  Q 1331 -91 842 396  Q 353 884 353 1716  Q 353 2575 817 3079  Q 1281 3584 2069 3584  Q 2775 3584 3186 3129  Q 3597 2675 3597 1894  z M 3022 2063  Q 3016 2534 2758 2815  Q 2500 3097 2075 3097  Q 1594 3097 1305 2825  Q 1016 2553 972 2059  L 3022 2063  z "
                 transform="scale(0.015625)" />
              <path
                 id="DejaVuSans-28"
                 d="M 1984 4856  Q 1566 4138 1362 3434  Q 1159 2731 1159 2009  Q 1159 1288 1364 580  Q 1569 -128 1984 -844  L 1484 -844  Q 1016 -109 783 600  Q 550 1309 550 2009  Q 550 2706 781 3412  Q 1013 4119 1484 4856  L 1984 4856  z "
                 transform="scale(0.015625)" />
              <path
                 id="DejaVuSans-73"
                 d="M 2834 3397  L 2834 2853  Q 2591 2978 2328 3040  Q 2066 3103 1784 3103  Q 1356 3103 1142 2972  Q 928 2841 928 2578  Q 928 2378 1081 2264  Q 1234 2150 1697 2047  L 1894 2003  Q 2506 1872 2764 1633  Q 3022 1394 3022 966  Q 3022 478 2636 193  Q 2250 -91 1575 -91  Q 1294 -91 989 -36  Q 684 19 347 128  L 347 722  Q 666 556 975 473  Q 1284 391 1588 391  Q 1994 391 2212 530  Q 2431 669 2431 922  Q 2431 1156 2273 1281  Q 2116 1406 1581 1522  L 1381 1569  Q 847 1681 609 1914  Q 372 2147 372 2553  Q 372 3047 722 3315  Q 1072 3584 1716 3584  Q 2034 3584 2315 3537  Q 2597 3491 2834 3397  z "
                 transform="scale(0.015625)" />
              <path
                 id="DejaVuSans-29"
                 d="M 513 4856  L 1013 4856  Q 1481 4119 1714 3412  Q 1947 2706 1947 2009  Q 1947 1309 1714 600  Q 1481 -109 1013 -844  L 513 -844  Q 928 -128 1133 580  Q 1338 1288 1338 2009  Q 1338 2731 1133 3434  Q 928 4138 513 4856  z "
                 transform="scale(0.015625)" />
            </defs>
            <use
               xlink:href="#DejaVuSans-74"
               id="use251" />
            <use
               xlink:href="#DejaVuSans-69"
               x="39.208984"
               id="use253" />
            <use
               xlink:href="#DejaVuSans-6d"
               x="66.992188"
               id="use255" />
            <use
               xlink:href="#DejaVuSans-65"
               x="164.404297"
               id="use257" />
            <use
               xlink:href="#DejaVuSans-28"
               x="225.927734"
               id="use259" />
            <use
               xlink:href="#DejaVuSans-73"
               x="264.941406"
               id="use261" />
            <use
               xlink:href="#DejaVuSans-29"
               x="317.041016"
               id="use263" />
          </g>
        </g>
      </g>
      <g
         id="matplotlib.axis_2">
        <g
           id="ytick_1">
          <g
             id="line2d_13">
            <defs
               id="defs270">
              <path
                 id="m2486ec5144"
                 d="M 0 0  L -3.5 0  "
                 style="stroke: #000000; stroke-width: 0.8" />
            </defs>
            <g
               id="g274">
              <use
                 xlink:href="#m2486ec5144"
                 x="57.6"
                 y="298.501634"
                 style="stroke: #000000; stroke-width: 0.8"
                 id="use272" />
            </g>
          </g>
          <g
             id="text_14">
            <!-- −2.0 -->
            <g
               transform="translate(26.317187 302.300852)scale(0.1 -0.1)"
               id="g288">
              <defs
                 id="defs278">
                <path
                   id="DejaVuSans-2212"
                   d="M 678 2272  L 4684 2272  L 4684 1741  L 678 1741  L 678 2272  z "
                   transform="scale(0.015625)" />
              </defs>
              <use
                 xlink:href="#DejaVuSans-2212"
                 id="use280" />
              <use
                 xlink:href="#DejaVuSans-32"
                 x="83.789062"
                 id="use282" />
              <use
                 xlink:href="#DejaVuSans-2e"
                 x="147.412109"
                 id="use284" />
              <use
                 xlink:href="#DejaVuSans-30"
                 x="179.199219"
                 id="use286" />
            </g>
          </g>
        </g>
        <g
           id="ytick_2">
          <g
             id="line2d_14">
            <g
               id="g294">
              <use
                 xlink:href="#m2486ec5144"
                 x="57.6"
                 y="268.319788"
                 style="stroke: #000000; stroke-width: 0.8"
                 id="use292" />
            </g>
          </g>
          <g
             id="text_15">
            <!-- −1.5 -->
            <g
               transform="translate(26.317187 272.119007)scale(0.1 -0.1)"
               id="g305">
              <use
                 xlink:href="#DejaVuSans-2212"
                 id="use297" />
              <use
                 xlink:href="#DejaVuSans-31"
                 x="83.789062"
                 id="use299" />
              <use
                 xlink:href="#DejaVuSans-2e"
                 x="147.412109"
                 id="use301" />
              <use
                 xlink:href="#DejaVuSans-35"
                 x="179.199219"
                 id="use303" />
            </g>
          </g>
        </g>
        <g
           id="ytick_3">
          <g
             id="line2d_15">
            <g
               id="g311">
              <use
                 xlink:href="#m2486ec5144"
                 x="57.6"
                 y="238.137942"
                 style="stroke: #000000; stroke-width: 0.8"
                 id="use309" />
            </g>
          </g>
          <g
             id="text_16">
            <!-- −1.0 -->
            <g
               transform="translate(26.317187 241.937161)scale(0.1 -0.1)"
               id="g322">
              <use
                 xlink:href="#DejaVuSans-2212"
                 id="use314" />
              <use
                 xlink:href="#DejaVuSans-31"
                 x="83.789062"
                 id="use316" />
              <use
                 xlink:href="#DejaVuSans-2e"
                 x="147.412109"
                 id="use318" />
              <use
                 xlink:href="#DejaVuSans-30"
                 x="179.199219"
                 id="use320" />
            </g>
          </g>
        </g>
        <g
           id="ytick_4">
          <g
             id="line2d_16">
            <g
               id="g328">
              <use
                 xlink:href="#m2486ec5144"
                 x="57.6"
                 y="207.956096"
                 style="stroke: #000000; stroke-width: 0.8"
                 id="use326" />
            </g>
          </g>
          <g
             id="text_17">
            <!-- −0.5 -->
            <g
               transform="translate(26.317187 211.755315)scale(0.1 -0.1)"
               id="g339">
              <use
                 xlink:href="#DejaVuSans-2212"
                 id="use331" />
              <use
                 xlink:href="#DejaVuSans-30"
                 x="83.789062"
                 id="use333" />
              <use
                 xlink:href="#DejaVuSans-2e"
                 x="147.412109"
                 id="use335" />
              <use
                 xlink:href="#DejaVuSans-35"
                 x="179.199219"
                 id="use337" />
            </g>
          </g>
        </g>
        <g
           id="ytick_5">
          <g
             id="line2d_17">
            <g
               id="g345">
              <use
                 xlink:href="#m2486ec5144"
                 x="57.6"
                 y="177.77425"
                 style="stroke: #000000; stroke-width: 0.8"
                 id="use343" />
            </g>
          </g>
          <g
             id="text_18">
            <!-- 0.0 -->
            <g
               transform="translate(34.696875 181.573469)scale(0.1 -0.1)"
               id="g354">
              <use
                 xlink:href="#DejaVuSans-30"
                 id="use348" />
              <use
                 xlink:href="#DejaVuSans-2e"
                 x="63.623047"
                 id="use350" />
              <use
                 xlink:href="#DejaVuSans-30"
                 x="95.410156"
                 id="use352" />
            </g>
          </g>
        </g>
        <g
           id="ytick_6">
          <g
             id="line2d_18">
            <g
               id="g360">
              <use
                 xlink:href="#m2486ec5144"
                 x="57.6"
                 y="147.592404"
                 style="stroke: #000000; stroke-width: 0.8"
                 id="use358" />
            </g>
          </g>
          <g
             id="text_19">
            <!-- 0.5 -->
            <g
               transform="translate(34.696875 151.391623)scale(0.1 -0.1)"
               id="g369">
              <use
                 xlink:href="#DejaVuSans-30"
                 id="use363" />
              <use
                 xlink:href="#DejaVuSans-2e"
                 x="63.623047"
                 id="use365" />
              <use
                 xlink:href="#DejaVuSans-35"
                 x="95.410156"
                 id="use367" />
            </g>
          </g>
        </g>
        <g
           id="ytick_7">
          <g
             id="line2d_19">
            <g
               id="g375">
              <use
                 xlink:href="#m2486ec5144"
                 x="57.6"
                 y="117.410558"
                 style="stroke: #000000; stroke-width: 0.8"
                 id="use373" />
            </g>
          </g>
          <g
             id="text_20">
            <!-- 1.0 -->
            <g
               transform="translate(34.696875 121.209777)scale(0.1 -0.1)"
               id="g384">
              <use
                 xlink:href="#DejaVuSans-31"
                 id="use378" />
              <use
                 xlink:href="#DejaVuSans-2e"
                 x="63.623047"
                 id="use380" />
              <use
                 xlink:href="#DejaVuSans-30"
                 x="95.410156"
                 id="use382" />
            </g>
          </g>
        </g>
        <g
           id="ytick_8">
          <g
             id="line2d_20">
            <g
               id="g390">
              <use
                 xlink:href="#m2486ec5144"
                 x="57.6"
                 y="87.228712"
                 style="stroke: #000000; stroke-width: 0.8"
                 id="use388" />
            </g>
          </g>
          <g
             id="text_21">
            <!-- 1.5 -->
            <g
               transform="translate(34.696875 91.027931)scale(0.1 -0.1)"
               id="g399">
              <use
                 xlink:href="#DejaVuSans-31"
                 id="use393" />
              <use
                 xlink:href="#DejaVuSans-2e"
                 x="63.623047"
                 id="use395" />
              <use
                 xlink:href="#DejaVuSans-35"
                 x="95.410156"
                 id="use397" />
            </g>
          </g>
        </g>
        <g
           id="ytick_9">
          <g
             id="line2d_21">
            <g
               id="g405">
              <use
                 xlink:href="#m2486ec5144"
                 x="57.6"
                 y="57.046866"
                 style="stroke: #000000; stroke-width: 0.8"
                 id="use403" />
            </g>
          </g>
          <g
             id="text_22">
            <!-- 2.0 -->
            <g
               transform="translate(34.696875 60.846085)scale(0.1 -0.1)"
               id="g414">
              <use
                 xlink:href="#DejaVuSans-32"
                 id="use408" />
              <use
                 xlink:href="#DejaVuSans-2e"
                 x="63.623047"
                 id="use410" />
              <use
                 xlink:href="#DejaVuSans-30"
                 x="95.410156"
                 id="use412" />
            </g>
          </g>
        </g>
      </g>
      <g
         id="line2d_22">
        <path
           d="M 73.832727 177.77425  L 74.760312 176.005821  L 75.687896 174.510828  L 76.615481 173.31333  L 77.543065 172.425197  L 78.470649 171.850069  L 79.398234 171.58454  L 80.325818 171.617587  L 81.253403 171.928704  L 82.180987 172.485276  L 84.036156 174.13568  L 87.746494 177.861471  L 88.674078 178.584479  L 89.601662 179.165255  L 90.529247 179.593405  L 91.456831 179.868147  L 92.384416 179.997329  L 94.239584 179.885442  L 96.094753 179.434849  L 100.732675 178.053794  L 102.587844 177.714565  L 104.443013 177.551361  L 107.225766 177.571798  L 117.429195 178.082174  L 125.777455 177.92769  L 134.125714 177.910777  L 155.460156 177.925043  L 165.663584 177.928258  L 166.591169 196.807902  L 167.518753 194.856811  L 169.373922 190.150985  L 171.229091 184.433684  L 174.011844 175.335609  L 174.939429 172.887629  L 175.867013 170.946361  L 176.794597 169.529901  L 177.722182 168.623526  L 178.649766 168.197547  L 179.577351 168.213454  L 180.504935 168.624766  L 181.432519 169.375908  L 182.360104 170.40122  L 184.215273 172.96984  L 186.998026 176.953711  L 187.92561 178.052782  L 188.853195 178.960437  L 189.780779 179.651983  L 190.708364 180.118903  L 191.635948 180.368799  L 192.563532 180.423629  L 193.491117 180.316273  L 195.346286 179.774017  L 199.056623 178.404876  L 200.911792 177.960939  L 202.766961 177.764448  L 204.62213 177.784636  L 207.404883 178.061066  L 212.042805 178.554695  L 214.825558 178.645511  L 219.463481 178.505397  L 225.956571 178.287787  L 233.377247 178.329883  L 245.435844 178.346347  L 282.539221 178.345614  L 289.032312 178.3457  L 289.959896 159.453045  L 292.742649 165.336066  L 295.525403 171.325375  L 298.308156 177.476259  L 299.23574 179.242757  L 300.163325 180.764401  L 301.090909 182.013212  L 302.018494 182.976556  L 302.946078 183.652959  L 303.873662 184.049827  L 304.801247 184.182427  L 305.728831 184.073666  L 306.656416 183.754215  L 307.584 183.262331  L 309.439169 181.943019  L 312.221922 179.810301  L 314.077091 178.679356  L 315.93226 177.921868  L 317.787429 177.536689  L 319.642597 177.455432  L 322.425351 177.679255  L 327.063273 178.191984  L 329.846026 178.300449  L 333.556364 178.20659  L 341.904623 177.886456  L 350.252883 177.929622  L 363.239065 177.928508  L 398.487273 177.927445  L 398.487273 177.927445  "
           clip-path="url(#pd803d42228)"
           style="fill: none; stroke: #1f77b4; stroke-width: 1.5; stroke-linecap: square"
           id="path440" />
      </g>
      <g
         id="line2d_23">
        <path
           d="M 73.832727 177.77425  L 74.760312 177.223329  L 75.687896 178.030037  L 78.470649 178.507245  L 79.398234 178.438047  L 80.325818 178.231862  L 82.180987 177.467248  L 84.96374 176.100527  L 85.891325 175.814946  L 86.818909 175.681617  L 87.746494 175.710062  L 88.674078 175.890149  L 90.529247 176.595844  L 94.239584 178.381732  L 96.094753 178.989151  L 97.949922 179.271082  L 99.805091 179.272962  L 102.587844 178.989478  L 107.225766 178.469904  L 110.936104 178.296067  L 115.574026 178.346546  L 123.922286 178.495934  L 165.663584 178.435938  L 166.591169 211.696705  L 168.446338 220.563359  L 170.301506 227.37729  L 172.156675 233.05318  L 174.939429 240.781404  L 175.867013 241.525969  L 176.794597 240.381239  L 177.722182 237.535682  L 178.649766 233.195582  L 179.577351 227.543604  L 180.504935 220.798031  L 182.360104 205.008021  L 184.215273 189.354237  L 185.142857 183.599801  L 186.070442 179.563178  L 186.998026 176.84506  L 187.92561 175.31542  L 188.853195 174.826017  L 189.780779 175.157907  L 190.708364 176.035703  L 192.563532 178.116891  L 193.491117 178.841485  L 194.418701 179.250664  L 195.346286 179.369776  L 196.27387 179.264024  L 199.056623 178.5648  L 199.984208 178.494588  L 201.839377 178.732637  L 205.549714 179.701752  L 207.404883 179.859229  L 209.260052 179.740857  L 212.97039 179.395741  L 215.753143 179.438183  L 220.391065 179.631755  L 225.028987 179.532394  L 232.449662 179.426115  L 251.001351 179.421506  L 289.032312 179.444834  L 289.959896 145.451346  L 290.887481 140.565712  L 291.815065 136.512595  L 292.742649 133.053445  L 293.670234 130.545091  L 294.597818 131.548494  L 297.380571 144.934595  L 300.163325 159.943651  L 301.090909 163.941816  L 302.018494 167.087681  L 302.946078 169.415879  L 303.873662 171.007703  L 304.801247 171.941215  L 305.728831 172.29775  L 306.656416 172.186976  L 308.511584 171.492129  L 309.439169 171.48569  L 310.366753 171.82885  L 311.294338 172.455239  L 313.149506 174.1969  L 315.004675 175.831863  L 315.93226 176.381139  L 316.859844 176.713159  L 317.787429 176.84687  L 319.642597 176.710759  L 322.425351 176.343491  L 324.280519 176.385197  L 326.135688 176.662057  L 330.77361 177.514071  L 333.556364 177.775719  L 339.12187 177.980366  L 353.963221 178.213133  L 367.876987 178.350723  L 398.487273 178.425497  L 398.487273 178.425497  "
           clip-path="url(#pd803d42228)"
           style="fill: none; stroke: #ff7f0e; stroke-width: 1.5; stroke-linecap: square"
           id="path443" />
      </g>
      <g
         id="line2d_24">
        <path
           d="M 73.832727 177.77425  L 74.760312 178.878667  L 75.687896 178.57166  L 76.615481 178.790896  L 78.470649 178.714821  L 79.398234 178.467723  L 80.325818 178.040642  L 81.253403 177.446131  L 83.108571 175.909684  L 84.96374 174.283176  L 86.818909 173.009327  L 87.746494 172.59744  L 88.674078 172.358366  L 89.601662 172.294061  L 90.529247 172.395694  L 91.456831 172.644952  L 93.312 173.478211  L 98.877506 176.481441  L 100.732675 177.073741  L 102.587844 177.36532  L 104.443013 177.400734  L 107.225766 177.159162  L 111.863688 176.662393  L 115.574026 176.545667  L 121.139532 176.708751  L 127.632623 176.84215  L 165.663584 176.787788  L 166.591169 101.835692  L 168.446338 116.084627  L 170.301506 133.362457  L 173.08426 160.682942  L 174.011844 166.597063  L 174.939429 170.089356  L 175.867013 172.410407  L 177.722182 175.948188  L 179.577351 178.735346  L 180.504935 179.839726  L 181.432519 180.708321  L 182.360104 181.295456  L 183.287688 181.502993  L 184.215273 181.171607  L 186.070442 179.606287  L 186.998026 179.345305  L 187.92561 179.200115  L 188.853195 178.892069  L 189.780779 178.36647  L 191.635948 177.058116  L 192.563532 176.58196  L 193.491117 176.333618  L 194.418701 176.298394  L 196.27387 176.66427  L 198.129039 177.171102  L 199.056623 177.309042  L 199.984208 177.309855  L 200.911792 177.160687  L 201.839377 176.869324  L 203.694545 175.961106  L 207.404883 173.865051  L 209.260052 173.106226  L 211.115221 172.598901  L 213.897974 172.181341  L 217.608312 171.977243  L 229.666909 171.679242  L 237.087584 171.382774  L 250.073766 171.251392  L 274.190961 171.126133  L 289.032312 171.10474  L 289.959896 247.220308  L 293.670234 221.089552  L 296.452987 198.631154  L 299.23574 180.697703  L 300.163325 175.535994  L 301.090909 171.402664  L 302.018494 168.326709  L 302.946078 166.315597  L 303.873662 165.317563  L 304.801247 165.251142  L 305.728831 165.997955  L 306.656416 167.389187  L 309.439169 172.561131  L 310.366753 173.877627  L 311.294338 174.908947  L 312.221922 175.658186  L 313.149506 176.156647  L 314.077091 176.461843  L 315.93226 176.729549  L 318.715013 176.775133  L 321.497766 176.585126  L 327.990857 175.866876  L 330.77361 175.969023  L 340.049455 176.739869  L 345.614961 176.738315  L 356.745974 176.718827  L 376.225247 176.773854  L 398.487273 176.786069  L 398.487273 176.786069  "
           clip-path="url(#pd803d42228)"
           style="fill: none; stroke: #2ca02c; stroke-width: 1.5; stroke-linecap: square"
           id="path446" />
      </g>
      <g
         id="line2d_25">
        <path
           d="M 73.832727 177.77425  L 74.760312 181.069753  L 75.687896 182.427217  L 76.615481 182.163475  L 77.543065 181.412654  L 79.398234 179.279949  L 83.108571 174.819894  L 84.96374 173.08764  L 85.891325 172.476777  L 86.818909 172.063717  L 87.746494 171.851373  L 88.674078 171.830712  L 89.601662 171.983578  L 90.529247 172.285108  L 92.384416 173.21277  L 97.022338 175.931086  L 98.877506 176.681603  L 100.732675 177.155214  L 102.587844 177.407964  L 105.370597 177.533946  L 110.008519 177.44279  L 116.50161 177.321964  L 125.777455 177.546458  L 134.125714 177.563351  L 154.532571 177.574802  L 165.663584 177.57436  L 166.591169 145.588529  L 167.518753 140.706264  L 168.446338 137.499184  L 169.373922 135.648205  L 170.301506 134.839111  L 171.229091 134.84014  L 172.156675 135.541299  L 173.08426 137.05466  L 174.011844 139.513616  L 175.867013 145.687673  L 176.794597 148.228988  L 177.722182 150.240397  L 180.504935 155.096513  L 181.432519 157.277625  L 182.360104 160.111333  L 184.215273 167.476608  L 185.142857 171.29629  L 186.070442 174.417966  L 186.998026 176.555194  L 187.92561 177.949119  L 188.853195 178.88791  L 190.708364 180.108833  L 194.418701 182.029564  L 199.056623 184.827075  L 199.984208 185.025797  L 200.911792 184.982489  L 201.839377 184.707384  L 202.766961 184.239806  L 204.62213 182.92942  L 209.260052 179.24951  L 211.115221 178.057336  L 212.97039 177.120531  L 214.825558 176.437172  L 216.680727 175.972004  L 219.463481 175.557415  L 225.028987 175.094582  L 231.522078 174.696538  L 237.087584 174.606412  L 289.032312 174.631985  L 289.959896 207.034126  L 291.815065 215.191805  L 292.742649 217.899231  L 293.670234 219.110096  L 294.597818 218.897931  L 295.525403 217.335877  L 297.380571 212.713731  L 302.946078 202.648752  L 305.728831 197.815037  L 307.584 195.143187  L 309.439169 193.156024  L 312.221922 190.746971  L 315.004675 188.611954  L 317.787429 186.783802  L 325.208104 182.349597  L 327.063273 181.460382  L 328.918442 180.760837  L 330.77361 180.247108  L 333.556364 179.744499  L 339.12187 179.112613  L 347.47013 178.298723  L 353.035636 177.986554  L 361.383896 177.77718  L 379.008 177.614778  L 398.487273 177.583121  L 398.487273 177.583121  "
           clip-path="url(#pd803d42228)"
           style="fill: none; stroke: #d62728; stroke-width: 1.5; stroke-linecap: square"
           id="path449" />
      </g>
      <g
         id="patch_3">
        <path
           d="M 57.6 307.584  L 57.6 41.472  "
           style="fill: none; stroke: #000000; stroke-width: 0.8; stroke-linejoin: miter; stroke-linecap: square"
           id="path452" />
      </g>
      <g
         id="patch_4">
        <path
           d="M 414.72 307.584  L 414.72 41.472  "
           style="fill: none; stroke: #000000; stroke-width: 0.8; stroke-linejoin: miter; stroke-linecap: square"
           id="path455" />
      </g>
      <g
         id="patch_5">
        <path
           d="M 57.6 307.584  L 414.72 307.584  "
           style="fill: none; stroke: #000000; stroke-width: 0.8; stroke-linejoin: miter; stroke-linecap: square"
           id="path458" />
      </g>
      <g
         id="patch_6">
        <path
           d="M 57.6 41.472  L 414.72 41.472  "
           style="fill: none; stroke: #000000; stroke-width: 0.8; stroke-linejoin: miter; stroke-linecap: square"
           id="path461" />
      </g>
      <g
         id="legend_1">
        <g
           id="patch_7">
          <path
             d="M 362.32 108.1845  L 407.72 108.1845  Q 409.72 108.1845 409.72 106.1845  L 409.72 48.472  Q 409.72 46.472 407.72 46.472  L 362.32 46.472  Q 360.32 46.472 360.32 48.472  L 360.32 106.1845  Q 360.32 108.1845 362.32 108.1845  z "
             style="fill: #ffffff; opacity: 0.8; stroke: #cccccc; stroke-linejoin: miter"
             id="path464" />
        </g>
        <g
           id="line2d_26">
          <path
             d="M 364.32 54.570438  L 374.32 54.570438  L 384.32 54.570438  "
             style="fill: none; stroke: #1f77b4; stroke-width: 1.5; stroke-linecap: square"
             id="path467" />
        </g>
        <g
           id="text_24">
          <!-- $M_1$ -->
          <g
             transform="translate(392.32 58.070438)scale(0.1 -0.1)"
             id="g477">
            <defs
               id="defs471">
              <path
                 id="DejaVuSans-Oblique-4d"
                 d="M 1081 4666  L 2028 4666  L 2572 1522  L 4378 4666  L 5350 4666  L 4441 0  L 3828 0  L 4622 4091  L 2791 897  L 2175 897  L 1581 4103  L 788 0  L 172 0  L 1081 4666  z "
                 transform="scale(0.015625)" />
            </defs>
            <use
               xlink:href="#DejaVuSans-Oblique-4d"
               transform="translate(0 0.09375)"
               id="use473" />
            <use
               xlink:href="#DejaVuSans-31"
               transform="translate(86.279297 -16.3125)scale(0.7)"
               id="use475" />
          </g>
        </g>
        <g
           id="line2d_27">
          <path
             d="M 364.32 69.248563  L 374.32 69.248563  L 384.32 69.248563  "
             style="fill: none; stroke: #ff7f0e; stroke-width: 1.5; stroke-linecap: square"
             id="path480" />
        </g>
        <g
           id="text_25">
          <!-- $M_2$ -->
          <g
             transform="translate(392.32 72.748563)scale(0.1 -0.1)"
             id="g487">
            <use
               xlink:href="#DejaVuSans-Oblique-4d"
               transform="translate(0 0.09375)"
               id="use483" />
            <use
               xlink:href="#DejaVuSans-32"
               transform="translate(86.279297 -16.3125)scale(0.7)"
               id="use485" />
          </g>
        </g>
        <g
           id="line2d_28">
          <path
             d="M 364.32 83.926688  L 374.32 83.926688  L 384.32 83.926688  "
             style="fill: none; stroke: #2ca02c; stroke-width: 1.5; stroke-linecap: square"
             id="path490" />
        </g>
        <g
           id="text_26">
          <!-- $M_3$ -->
          <g
             transform="translate(392.32 87.426688)scale(0.1 -0.1)"
             id="g497">
            <use
               xlink:href="#DejaVuSans-Oblique-4d"
               transform="translate(0 0.09375)"
               id="use493" />
            <use
               xlink:href="#DejaVuSans-33"
               transform="translate(86.279297 -16.3125)scale(0.7)"
               id="use495" />
          </g>
        </g>
        <g
           id="line2d_29">
          <path
             d="M 364.32 98.604813  L 374.32 98.604813  L 384.32 98.604813  "
             style="fill: none; stroke: #d62728; stroke-width: 1.5; stroke-linecap: square"
             id="path500" />
        </g>
        <g
           id="text_27">
          <!-- $M_4$ -->
          <g
             transform="translate(392.32 102.104813)scale(0.1 -0.1)"
             id="g507">
            <use
               xlink:href="#DejaVuSans-Oblique-4d"
               transform="translate(0 0.09375)"
               id="use503" />
            <use
               xlink:href="#DejaVuSans-34"
               transform="translate(86.279297 -16.3125)scale(0.7)"
               id="use505" />
          </g>
        </g>
      </g>
    </g>
  </g>
  <g
     id="text_25-9"
     style="stroke-linecap:butt;stroke-linejoin:round"
     transform="translate(6.7281255,5.8691406)">
    <!-- $|e_{ri}|$ -->
    <g
       transform="matrix(0,-0.1,-0.1,0,13.554687,183.528)"
       id="g486">
      <defs
         id="defs474">
        <path
           id="path543"
           d="M 1344,4891 V -1509 H 813 v 6400 z"
           transform="scale(0.015625)" />
        <path
           id="path545"
           d="m 3078,2063 q 10,50 14,103 5,53 5,106 0,381 -224,603 -223,222 -607,222 -428,0 -757,-271 -328,-270 -496,-767 z m 500,-450 H 903 q -19,-119 -25,-188 -6,-69 -6,-119 0,-434 267,-672 267,-237 755,-237 375,0 709,84 335,85 622,247 L 3116,159 Q 2806,34 2476,-28 2147,-91 1806,-91 1078,-91 686,257 294,606 294,1247 q 0,547 195,1017 195,470 574,839 243,231 579,356 336,125 714,125 594,0 945,-356 352,-356 352,-956 0,-144 -19,-308 -18,-164 -56,-351 z"
           transform="scale(0.015625)" />
        <path
           id="path547"
           d="m 2853,2969 q -87,47 -200,72 -112,25 -240,25 -460,0 -804,-349 -343,-348 -456,-933 L 800,0 H 225 l 684,3500 h 575 l -109,-544 q 228,303 545,465 318,163 677,163 94,0 184,-11 91,-10 182,-35 z"
           transform="scale(0.015625)" />
        <path
           id="path549"
           d="m 1172,4863 h 575 L 1606,4134 H 1031 Z M 909,3500 h 575 L 800,0 H 225 Z"
           transform="scale(0.015625)" />
      </defs>
      <use
         xlink:href="#DejaVuSans-7c"
         transform="translate(0,0.578125)"
         id="use476"
         x="0"
         y="0"
         width="100%"
         height="100%" />
      <use
         xlink:href="#DejaVuSans-Oblique-65-8"
         transform="translate(33.691406,0.578125)"
         id="use478"
         x="0"
         y="0"
         width="100%"
         height="100%" />
      <use
         xlink:href="#DejaVuSans-Oblique-72-8"
         transform="matrix(0.7,0,0,0.7,95.214844,-15.828125)"
         id="use480"
         x="0"
         y="0"
         width="100%"
         height="100%" />
      <use
         xlink:href="#DejaVuSans-Oblique-69-4"
         transform="matrix(0.7,0,0,0.7,123.99414,-15.828125)"
         id="use482"
         x="0"
         y="0"
         width="100%"
         height="100%" />
      <use
         xlink:href="#DejaVuSans-7c"
         transform="translate(146.17676,0.578125)"
         id="use484"
         x="0"
         y="0"
         width="100%"
         height="100%" />
    </g>
  </g>
  <defs
     id="defs516">
    <clipPath
       id="pd803d42228">
      <rect
         x="57.6"
         y="41.472"
         width="357.12"
         height="266.112"
         id="rect513" />
    </clipPath>
  </defs>
</svg>
