<?xml version="1.0" encoding="utf-8" standalone="no"?>
<!DOCTYPE svg PUBLIC "-//W3C//DTD SVG 1.1//EN"
  "http://www.w3.org/Graphics/SVG/1.1/DTD/svg11.dtd">
<svg xmlns:xlink="http://www.w3.org/1999/xlink" width="460.8pt" height="345.6pt" viewBox="0 0 460.8 345.6" xmlns="http://www.w3.org/2000/svg" version="1.1">
 <metadata>
  <rdf:RDF xmlns:dc="http://purl.org/dc/elements/1.1/" xmlns:cc="http://creativecommons.org/ns#" xmlns:rdf="http://www.w3.org/1999/02/22-rdf-syntax-ns#">
   <cc:Work>
    <dc:type rdf:resource="http://purl.org/dc/dcmitype/StillImage"/>
    <dc:date>2022-08-09T16:17:27.761100</dc:date>
    <dc:format>image/svg+xml</dc:format>
    <dc:creator>
     <cc:Agent>
      <dc:title>Matplotlib v3.5.2, https://matplotlib.org/</dc:title>
     </cc:Agent>
    </dc:creator>
   </cc:Work>
  </rdf:RDF>
 </metadata>
 <defs>
  <style type="text/css">*{stroke-linejoin: round; stroke-linecap: butt}</style>
 </defs>
 <g id="figure_1">
  <g id="patch_1">
   <path d="M 0 345.6 
L 460.8 345.6 
L 460.8 0 
L 0 0 
z
" style="fill: #ffffff"/>
  </g>
  <g id="axes_1">
   <g id="patch_2">
    <path d="M 57.6 307.584 
L 414.72 307.584 
L 414.72 41.472 
L 57.6 41.472 
z
" style="fill: #ffffff"/>
   </g>
   <g id="matplotlib.axis_1">
    <g id="xtick_1">
     <g id="line2d_1">
      <defs>
       <path id="m53c6643592" d="M 0 0 
L 0 3.5 
" style="stroke: #000000; stroke-width: 0.8"/>
      </defs>
      <g>
       <use xlink:href="#m53c6643592" x="73.832727" y="307.584" style="stroke: #000000; stroke-width: 0.8"/>
      </g>
     </g>
     <g id="text_1">
      <!-- 0.0 -->
      <g transform="translate(65.881165 322.182437)scale(0.1 -0.1)">
       <defs>
        <path id="DejaVuSans-30" d="M 2034 4250 
Q 1547 4250 1301 3770 
Q 1056 3291 1056 2328 
Q 1056 1369 1301 889 
Q 1547 409 2034 409 
Q 2525 409 2770 889 
Q 3016 1369 3016 2328 
Q 3016 3291 2770 3770 
Q 2525 4250 2034 4250 
z
M 2034 4750 
Q 2819 4750 3233 4129 
Q 3647 3509 3647 2328 
Q 3647 1150 3233 529 
Q 2819 -91 2034 -91 
Q 1250 -91 836 529 
Q 422 1150 422 2328 
Q 422 3509 836 4129 
Q 1250 4750 2034 4750 
z
" transform="scale(0.015625)"/>
        <path id="DejaVuSans-2e" d="M 684 794 
L 1344 794 
L 1344 0 
L 684 0 
L 684 794 
z
" transform="scale(0.015625)"/>
       </defs>
       <use xlink:href="#DejaVuSans-30"/>
       <use xlink:href="#DejaVuSans-2e" x="63.623047"/>
       <use xlink:href="#DejaVuSans-30" x="95.410156"/>
      </g>
     </g>
    </g>
    <g id="xtick_2">
     <g id="line2d_2">
      <g>
       <use xlink:href="#m53c6643592" x="101.66026" y="307.584" style="stroke: #000000; stroke-width: 0.8"/>
      </g>
     </g>
     <g id="text_2">
      <!-- 3.0 -->
      <g transform="translate(93.708697 322.182437)scale(0.1 -0.1)">
       <defs>
        <path id="DejaVuSans-33" d="M 2597 2516 
Q 3050 2419 3304 2112 
Q 3559 1806 3559 1356 
Q 3559 666 3084 287 
Q 2609 -91 1734 -91 
Q 1441 -91 1130 -33 
Q 819 25 488 141 
L 488 750 
Q 750 597 1062 519 
Q 1375 441 1716 441 
Q 2309 441 2620 675 
Q 2931 909 2931 1356 
Q 2931 1769 2642 2001 
Q 2353 2234 1838 2234 
L 1294 2234 
L 1294 2753 
L 1863 2753 
Q 2328 2753 2575 2939 
Q 2822 3125 2822 3475 
Q 2822 3834 2567 4026 
Q 2313 4219 1838 4219 
Q 1578 4219 1281 4162 
Q 984 4106 628 3988 
L 628 4550 
Q 988 4650 1302 4700 
Q 1616 4750 1894 4750 
Q 2613 4750 3031 4423 
Q 3450 4097 3450 3541 
Q 3450 3153 3228 2886 
Q 3006 2619 2597 2516 
z
" transform="scale(0.015625)"/>
       </defs>
       <use xlink:href="#DejaVuSans-33"/>
       <use xlink:href="#DejaVuSans-2e" x="63.623047"/>
       <use xlink:href="#DejaVuSans-30" x="95.410156"/>
      </g>
     </g>
    </g>
    <g id="xtick_3">
     <g id="line2d_3">
      <g>
       <use xlink:href="#m53c6643592" x="129.487792" y="307.584" style="stroke: #000000; stroke-width: 0.8"/>
      </g>
     </g>
     <g id="text_3">
      <!-- 6.0 -->
      <g transform="translate(121.53623 322.182437)scale(0.1 -0.1)">
       <defs>
        <path id="DejaVuSans-36" d="M 2113 2584 
Q 1688 2584 1439 2293 
Q 1191 2003 1191 1497 
Q 1191 994 1439 701 
Q 1688 409 2113 409 
Q 2538 409 2786 701 
Q 3034 994 3034 1497 
Q 3034 2003 2786 2293 
Q 2538 2584 2113 2584 
z
M 3366 4563 
L 3366 3988 
Q 3128 4100 2886 4159 
Q 2644 4219 2406 4219 
Q 1781 4219 1451 3797 
Q 1122 3375 1075 2522 
Q 1259 2794 1537 2939 
Q 1816 3084 2150 3084 
Q 2853 3084 3261 2657 
Q 3669 2231 3669 1497 
Q 3669 778 3244 343 
Q 2819 -91 2113 -91 
Q 1303 -91 875 529 
Q 447 1150 447 2328 
Q 447 3434 972 4092 
Q 1497 4750 2381 4750 
Q 2619 4750 2861 4703 
Q 3103 4656 3366 4563 
z
" transform="scale(0.015625)"/>
       </defs>
       <use xlink:href="#DejaVuSans-36"/>
       <use xlink:href="#DejaVuSans-2e" x="63.623047"/>
       <use xlink:href="#DejaVuSans-30" x="95.410156"/>
      </g>
     </g>
    </g>
    <g id="xtick_4">
     <g id="line2d_4">
      <g>
       <use xlink:href="#m53c6643592" x="157.315325" y="307.584" style="stroke: #000000; stroke-width: 0.8"/>
      </g>
     </g>
     <g id="text_4">
      <!-- 9.0 -->
      <g transform="translate(149.363762 322.182437)scale(0.1 -0.1)">
       <defs>
        <path id="DejaVuSans-39" d="M 703 97 
L 703 672 
Q 941 559 1184 500 
Q 1428 441 1663 441 
Q 2288 441 2617 861 
Q 2947 1281 2994 2138 
Q 2813 1869 2534 1725 
Q 2256 1581 1919 1581 
Q 1219 1581 811 2004 
Q 403 2428 403 3163 
Q 403 3881 828 4315 
Q 1253 4750 1959 4750 
Q 2769 4750 3195 4129 
Q 3622 3509 3622 2328 
Q 3622 1225 3098 567 
Q 2575 -91 1691 -91 
Q 1453 -91 1209 -44 
Q 966 3 703 97 
z
M 1959 2075 
Q 2384 2075 2632 2365 
Q 2881 2656 2881 3163 
Q 2881 3666 2632 3958 
Q 2384 4250 1959 4250 
Q 1534 4250 1286 3958 
Q 1038 3666 1038 3163 
Q 1038 2656 1286 2365 
Q 1534 2075 1959 2075 
z
" transform="scale(0.015625)"/>
       </defs>
       <use xlink:href="#DejaVuSans-39"/>
       <use xlink:href="#DejaVuSans-2e" x="63.623047"/>
       <use xlink:href="#DejaVuSans-30" x="95.410156"/>
      </g>
     </g>
    </g>
    <g id="xtick_5">
     <g id="line2d_5">
      <g>
       <use xlink:href="#m53c6643592" x="185.142857" y="307.584" style="stroke: #000000; stroke-width: 0.8"/>
      </g>
     </g>
     <g id="text_5">
      <!-- 12.0 -->
      <g transform="translate(174.010045 322.182437)scale(0.1 -0.1)">
       <defs>
        <path id="DejaVuSans-31" d="M 794 531 
L 1825 531 
L 1825 4091 
L 703 3866 
L 703 4441 
L 1819 4666 
L 2450 4666 
L 2450 531 
L 3481 531 
L 3481 0 
L 794 0 
L 794 531 
z
" transform="scale(0.015625)"/>
        <path id="DejaVuSans-32" d="M 1228 531 
L 3431 531 
L 3431 0 
L 469 0 
L 469 531 
Q 828 903 1448 1529 
Q 2069 2156 2228 2338 
Q 2531 2678 2651 2914 
Q 2772 3150 2772 3378 
Q 2772 3750 2511 3984 
Q 2250 4219 1831 4219 
Q 1534 4219 1204 4116 
Q 875 4013 500 3803 
L 500 4441 
Q 881 4594 1212 4672 
Q 1544 4750 1819 4750 
Q 2544 4750 2975 4387 
Q 3406 4025 3406 3419 
Q 3406 3131 3298 2873 
Q 3191 2616 2906 2266 
Q 2828 2175 2409 1742 
Q 1991 1309 1228 531 
z
" transform="scale(0.015625)"/>
       </defs>
       <use xlink:href="#DejaVuSans-31"/>
       <use xlink:href="#DejaVuSans-32" x="63.623047"/>
       <use xlink:href="#DejaVuSans-2e" x="127.246094"/>
       <use xlink:href="#DejaVuSans-30" x="159.033203"/>
      </g>
     </g>
    </g>
    <g id="xtick_6">
     <g id="line2d_6">
      <g>
       <use xlink:href="#m53c6643592" x="212.97039" y="307.584" style="stroke: #000000; stroke-width: 0.8"/>
      </g>
     </g>
     <g id="text_6">
      <!-- 15.0 -->
      <g transform="translate(201.837577 322.182437)scale(0.1 -0.1)">
       <defs>
        <path id="DejaVuSans-35" d="M 691 4666 
L 3169 4666 
L 3169 4134 
L 1269 4134 
L 1269 2991 
Q 1406 3038 1543 3061 
Q 1681 3084 1819 3084 
Q 2600 3084 3056 2656 
Q 3513 2228 3513 1497 
Q 3513 744 3044 326 
Q 2575 -91 1722 -91 
Q 1428 -91 1123 -41 
Q 819 9 494 109 
L 494 744 
Q 775 591 1075 516 
Q 1375 441 1709 441 
Q 2250 441 2565 725 
Q 2881 1009 2881 1497 
Q 2881 1984 2565 2268 
Q 2250 2553 1709 2553 
Q 1456 2553 1204 2497 
Q 953 2441 691 2322 
L 691 4666 
z
" transform="scale(0.015625)"/>
       </defs>
       <use xlink:href="#DejaVuSans-31"/>
       <use xlink:href="#DejaVuSans-35" x="63.623047"/>
       <use xlink:href="#DejaVuSans-2e" x="127.246094"/>
       <use xlink:href="#DejaVuSans-30" x="159.033203"/>
      </g>
     </g>
    </g>
    <g id="xtick_7">
     <g id="line2d_7">
      <g>
       <use xlink:href="#m53c6643592" x="240.797922" y="307.584" style="stroke: #000000; stroke-width: 0.8"/>
      </g>
     </g>
     <g id="text_7">
      <!-- 18.0 -->
      <g transform="translate(229.66511 322.182437)scale(0.1 -0.1)">
       <defs>
        <path id="DejaVuSans-38" d="M 2034 2216 
Q 1584 2216 1326 1975 
Q 1069 1734 1069 1313 
Q 1069 891 1326 650 
Q 1584 409 2034 409 
Q 2484 409 2743 651 
Q 3003 894 3003 1313 
Q 3003 1734 2745 1975 
Q 2488 2216 2034 2216 
z
M 1403 2484 
Q 997 2584 770 2862 
Q 544 3141 544 3541 
Q 544 4100 942 4425 
Q 1341 4750 2034 4750 
Q 2731 4750 3128 4425 
Q 3525 4100 3525 3541 
Q 3525 3141 3298 2862 
Q 3072 2584 2669 2484 
Q 3125 2378 3379 2068 
Q 3634 1759 3634 1313 
Q 3634 634 3220 271 
Q 2806 -91 2034 -91 
Q 1263 -91 848 271 
Q 434 634 434 1313 
Q 434 1759 690 2068 
Q 947 2378 1403 2484 
z
M 1172 3481 
Q 1172 3119 1398 2916 
Q 1625 2713 2034 2713 
Q 2441 2713 2670 2916 
Q 2900 3119 2900 3481 
Q 2900 3844 2670 4047 
Q 2441 4250 2034 4250 
Q 1625 4250 1398 4047 
Q 1172 3844 1172 3481 
z
" transform="scale(0.015625)"/>
       </defs>
       <use xlink:href="#DejaVuSans-31"/>
       <use xlink:href="#DejaVuSans-38" x="63.623047"/>
       <use xlink:href="#DejaVuSans-2e" x="127.246094"/>
       <use xlink:href="#DejaVuSans-30" x="159.033203"/>
      </g>
     </g>
    </g>
    <g id="xtick_8">
     <g id="line2d_8">
      <g>
       <use xlink:href="#m53c6643592" x="268.625455" y="307.584" style="stroke: #000000; stroke-width: 0.8"/>
      </g>
     </g>
     <g id="text_8">
      <!-- 21.0 -->
      <g transform="translate(257.492642 322.182437)scale(0.1 -0.1)">
       <use xlink:href="#DejaVuSans-32"/>
       <use xlink:href="#DejaVuSans-31" x="63.623047"/>
       <use xlink:href="#DejaVuSans-2e" x="127.246094"/>
       <use xlink:href="#DejaVuSans-30" x="159.033203"/>
      </g>
     </g>
    </g>
    <g id="xtick_9">
     <g id="line2d_9">
      <g>
       <use xlink:href="#m53c6643592" x="296.452987" y="307.584" style="stroke: #000000; stroke-width: 0.8"/>
      </g>
     </g>
     <g id="text_9">
      <!-- 24.0 -->
      <g transform="translate(285.320175 322.182437)scale(0.1 -0.1)">
       <defs>
        <path id="DejaVuSans-34" d="M 2419 4116 
L 825 1625 
L 2419 1625 
L 2419 4116 
z
M 2253 4666 
L 3047 4666 
L 3047 1625 
L 3713 1625 
L 3713 1100 
L 3047 1100 
L 3047 0 
L 2419 0 
L 2419 1100 
L 313 1100 
L 313 1709 
L 2253 4666 
z
" transform="scale(0.015625)"/>
       </defs>
       <use xlink:href="#DejaVuSans-32"/>
       <use xlink:href="#DejaVuSans-34" x="63.623047"/>
       <use xlink:href="#DejaVuSans-2e" x="127.246094"/>
       <use xlink:href="#DejaVuSans-30" x="159.033203"/>
      </g>
     </g>
    </g>
    <g id="xtick_10">
     <g id="line2d_10">
      <g>
       <use xlink:href="#m53c6643592" x="324.280519" y="307.584" style="stroke: #000000; stroke-width: 0.8"/>
      </g>
     </g>
     <g id="text_10">
      <!-- 27.0 -->
      <g transform="translate(313.147707 322.182437)scale(0.1 -0.1)">
       <defs>
        <path id="DejaVuSans-37" d="M 525 4666 
L 3525 4666 
L 3525 4397 
L 1831 0 
L 1172 0 
L 2766 4134 
L 525 4134 
L 525 4666 
z
" transform="scale(0.015625)"/>
       </defs>
       <use xlink:href="#DejaVuSans-32"/>
       <use xlink:href="#DejaVuSans-37" x="63.623047"/>
       <use xlink:href="#DejaVuSans-2e" x="127.246094"/>
       <use xlink:href="#DejaVuSans-30" x="159.033203"/>
      </g>
     </g>
    </g>
    <g id="xtick_11">
     <g id="line2d_11">
      <g>
       <use xlink:href="#m53c6643592" x="352.108052" y="307.584" style="stroke: #000000; stroke-width: 0.8"/>
      </g>
     </g>
     <g id="text_11">
      <!-- 30.0 -->
      <g transform="translate(340.975239 322.182437)scale(0.1 -0.1)">
       <use xlink:href="#DejaVuSans-33"/>
       <use xlink:href="#DejaVuSans-30" x="63.623047"/>
       <use xlink:href="#DejaVuSans-2e" x="127.246094"/>
       <use xlink:href="#DejaVuSans-30" x="159.033203"/>
      </g>
     </g>
    </g>
    <g id="xtick_12">
     <g id="line2d_12">
      <g>
       <use xlink:href="#m53c6643592" x="379.935584" y="307.584" style="stroke: #000000; stroke-width: 0.8"/>
      </g>
     </g>
     <g id="text_12">
      <!-- 33.0 -->
      <g transform="translate(368.802772 322.182437)scale(0.1 -0.1)">
       <use xlink:href="#DejaVuSans-33"/>
       <use xlink:href="#DejaVuSans-33" x="63.623047"/>
       <use xlink:href="#DejaVuSans-2e" x="127.246094"/>
       <use xlink:href="#DejaVuSans-30" x="159.033203"/>
      </g>
     </g>
    </g>
    <g id="text_13">
     <!-- time(s) -->
     <g transform="translate(218.357656 335.860562)scale(0.1 -0.1)">
      <defs>
       <path id="DejaVuSans-74" d="M 1172 4494 
L 1172 3500 
L 2356 3500 
L 2356 3053 
L 1172 3053 
L 1172 1153 
Q 1172 725 1289 603 
Q 1406 481 1766 481 
L 2356 481 
L 2356 0 
L 1766 0 
Q 1100 0 847 248 
Q 594 497 594 1153 
L 594 3053 
L 172 3053 
L 172 3500 
L 594 3500 
L 594 4494 
L 1172 4494 
z
" transform="scale(0.015625)"/>
       <path id="DejaVuSans-69" d="M 603 3500 
L 1178 3500 
L 1178 0 
L 603 0 
L 603 3500 
z
M 603 4863 
L 1178 4863 
L 1178 4134 
L 603 4134 
L 603 4863 
z
" transform="scale(0.015625)"/>
       <path id="DejaVuSans-6d" d="M 3328 2828 
Q 3544 3216 3844 3400 
Q 4144 3584 4550 3584 
Q 5097 3584 5394 3201 
Q 5691 2819 5691 2113 
L 5691 0 
L 5113 0 
L 5113 2094 
Q 5113 2597 4934 2840 
Q 4756 3084 4391 3084 
Q 3944 3084 3684 2787 
Q 3425 2491 3425 1978 
L 3425 0 
L 2847 0 
L 2847 2094 
Q 2847 2600 2669 2842 
Q 2491 3084 2119 3084 
Q 1678 3084 1418 2786 
Q 1159 2488 1159 1978 
L 1159 0 
L 581 0 
L 581 3500 
L 1159 3500 
L 1159 2956 
Q 1356 3278 1631 3431 
Q 1906 3584 2284 3584 
Q 2666 3584 2933 3390 
Q 3200 3197 3328 2828 
z
" transform="scale(0.015625)"/>
       <path id="DejaVuSans-65" d="M 3597 1894 
L 3597 1613 
L 953 1613 
Q 991 1019 1311 708 
Q 1631 397 2203 397 
Q 2534 397 2845 478 
Q 3156 559 3463 722 
L 3463 178 
Q 3153 47 2828 -22 
Q 2503 -91 2169 -91 
Q 1331 -91 842 396 
Q 353 884 353 1716 
Q 353 2575 817 3079 
Q 1281 3584 2069 3584 
Q 2775 3584 3186 3129 
Q 3597 2675 3597 1894 
z
M 3022 2063 
Q 3016 2534 2758 2815 
Q 2500 3097 2075 3097 
Q 1594 3097 1305 2825 
Q 1016 2553 972 2059 
L 3022 2063 
z
" transform="scale(0.015625)"/>
       <path id="DejaVuSans-28" d="M 1984 4856 
Q 1566 4138 1362 3434 
Q 1159 2731 1159 2009 
Q 1159 1288 1364 580 
Q 1569 -128 1984 -844 
L 1484 -844 
Q 1016 -109 783 600 
Q 550 1309 550 2009 
Q 550 2706 781 3412 
Q 1013 4119 1484 4856 
L 1984 4856 
z
" transform="scale(0.015625)"/>
       <path id="DejaVuSans-73" d="M 2834 3397 
L 2834 2853 
Q 2591 2978 2328 3040 
Q 2066 3103 1784 3103 
Q 1356 3103 1142 2972 
Q 928 2841 928 2578 
Q 928 2378 1081 2264 
Q 1234 2150 1697 2047 
L 1894 2003 
Q 2506 1872 2764 1633 
Q 3022 1394 3022 966 
Q 3022 478 2636 193 
Q 2250 -91 1575 -91 
Q 1294 -91 989 -36 
Q 684 19 347 128 
L 347 722 
Q 666 556 975 473 
Q 1284 391 1588 391 
Q 1994 391 2212 530 
Q 2431 669 2431 922 
Q 2431 1156 2273 1281 
Q 2116 1406 1581 1522 
L 1381 1569 
Q 847 1681 609 1914 
Q 372 2147 372 2553 
Q 372 3047 722 3315 
Q 1072 3584 1716 3584 
Q 2034 3584 2315 3537 
Q 2597 3491 2834 3397 
z
" transform="scale(0.015625)"/>
       <path id="DejaVuSans-29" d="M 513 4856 
L 1013 4856 
Q 1481 4119 1714 3412 
Q 1947 2706 1947 2009 
Q 1947 1309 1714 600 
Q 1481 -109 1013 -844 
L 513 -844 
Q 928 -128 1133 580 
Q 1338 1288 1338 2009 
Q 1338 2731 1133 3434 
Q 928 4138 513 4856 
z
" transform="scale(0.015625)"/>
      </defs>
      <use xlink:href="#DejaVuSans-74"/>
      <use xlink:href="#DejaVuSans-69" x="39.208984"/>
      <use xlink:href="#DejaVuSans-6d" x="66.992188"/>
      <use xlink:href="#DejaVuSans-65" x="164.404297"/>
      <use xlink:href="#DejaVuSans-28" x="225.927734"/>
      <use xlink:href="#DejaVuSans-73" x="264.941406"/>
      <use xlink:href="#DejaVuSans-29" x="317.041016"/>
     </g>
    </g>
   </g>
   <g id="matplotlib.axis_2">
    <g id="ytick_1">
     <g id="line2d_13">
      <defs>
       <path id="mc2cf0513a0" d="M 0 0 
L -3.5 0 
" style="stroke: #000000; stroke-width: 0.8"/>
      </defs>
      <g>
       <use xlink:href="#mc2cf0513a0" x="57.6" y="304.137086" style="stroke: #000000; stroke-width: 0.8"/>
      </g>
     </g>
     <g id="text_14">
      <!-- −2.0 -->
      <g transform="translate(26.317187 307.936305)scale(0.1 -0.1)">
       <defs>
        <path id="DejaVuSans-2212" d="M 678 2272 
L 4684 2272 
L 4684 1741 
L 678 1741 
L 678 2272 
z
" transform="scale(0.015625)"/>
       </defs>
       <use xlink:href="#DejaVuSans-2212"/>
       <use xlink:href="#DejaVuSans-32" x="83.789062"/>
       <use xlink:href="#DejaVuSans-2e" x="147.412109"/>
       <use xlink:href="#DejaVuSans-30" x="179.199219"/>
      </g>
     </g>
    </g>
    <g id="ytick_2">
     <g id="line2d_14">
      <g>
       <use xlink:href="#mc2cf0513a0" x="57.6" y="269.752086" style="stroke: #000000; stroke-width: 0.8"/>
      </g>
     </g>
     <g id="text_15">
      <!-- −1.5 -->
      <g transform="translate(26.317187 273.551305)scale(0.1 -0.1)">
       <use xlink:href="#DejaVuSans-2212"/>
       <use xlink:href="#DejaVuSans-31" x="83.789062"/>
       <use xlink:href="#DejaVuSans-2e" x="147.412109"/>
       <use xlink:href="#DejaVuSans-35" x="179.199219"/>
      </g>
     </g>
    </g>
    <g id="ytick_3">
     <g id="line2d_15">
      <g>
       <use xlink:href="#mc2cf0513a0" x="57.6" y="235.367086" style="stroke: #000000; stroke-width: 0.8"/>
      </g>
     </g>
     <g id="text_16">
      <!-- −1.0 -->
      <g transform="translate(26.317187 239.166304)scale(0.1 -0.1)">
       <use xlink:href="#DejaVuSans-2212"/>
       <use xlink:href="#DejaVuSans-31" x="83.789062"/>
       <use xlink:href="#DejaVuSans-2e" x="147.412109"/>
       <use xlink:href="#DejaVuSans-30" x="179.199219"/>
      </g>
     </g>
    </g>
    <g id="ytick_4">
     <g id="line2d_16">
      <g>
       <use xlink:href="#mc2cf0513a0" x="57.6" y="200.982086" style="stroke: #000000; stroke-width: 0.8"/>
      </g>
     </g>
     <g id="text_17">
      <!-- −0.5 -->
      <g transform="translate(26.317187 204.781304)scale(0.1 -0.1)">
       <use xlink:href="#DejaVuSans-2212"/>
       <use xlink:href="#DejaVuSans-30" x="83.789062"/>
       <use xlink:href="#DejaVuSans-2e" x="147.412109"/>
       <use xlink:href="#DejaVuSans-35" x="179.199219"/>
      </g>
     </g>
    </g>
    <g id="ytick_5">
     <g id="line2d_17">
      <g>
       <use xlink:href="#mc2cf0513a0" x="57.6" y="166.597085" style="stroke: #000000; stroke-width: 0.8"/>
      </g>
     </g>
     <g id="text_18">
      <!-- 0.0 -->
      <g transform="translate(34.696875 170.396304)scale(0.1 -0.1)">
       <use xlink:href="#DejaVuSans-30"/>
       <use xlink:href="#DejaVuSans-2e" x="63.623047"/>
       <use xlink:href="#DejaVuSans-30" x="95.410156"/>
      </g>
     </g>
    </g>
    <g id="ytick_6">
     <g id="line2d_18">
      <g>
       <use xlink:href="#mc2cf0513a0" x="57.6" y="132.212085" style="stroke: #000000; stroke-width: 0.8"/>
      </g>
     </g>
     <g id="text_19">
      <!-- 0.5 -->
      <g transform="translate(34.696875 136.011304)scale(0.1 -0.1)">
       <use xlink:href="#DejaVuSans-30"/>
       <use xlink:href="#DejaVuSans-2e" x="63.623047"/>
       <use xlink:href="#DejaVuSans-35" x="95.410156"/>
      </g>
     </g>
    </g>
    <g id="ytick_7">
     <g id="line2d_19">
      <g>
       <use xlink:href="#mc2cf0513a0" x="57.6" y="97.827085" style="stroke: #000000; stroke-width: 0.8"/>
      </g>
     </g>
     <g id="text_20">
      <!-- 1.0 -->
      <g transform="translate(34.696875 101.626304)scale(0.1 -0.1)">
       <use xlink:href="#DejaVuSans-31"/>
       <use xlink:href="#DejaVuSans-2e" x="63.623047"/>
       <use xlink:href="#DejaVuSans-30" x="95.410156"/>
      </g>
     </g>
    </g>
    <g id="ytick_8">
     <g id="line2d_20">
      <g>
       <use xlink:href="#mc2cf0513a0" x="57.6" y="63.442085" style="stroke: #000000; stroke-width: 0.8"/>
      </g>
     </g>
     <g id="text_21">
      <!-- 1.5 -->
      <g transform="translate(34.696875 67.241304)scale(0.1 -0.1)">
       <use xlink:href="#DejaVuSans-31"/>
       <use xlink:href="#DejaVuSans-2e" x="63.623047"/>
       <use xlink:href="#DejaVuSans-35" x="95.410156"/>
      </g>
     </g>
    </g>
    <g id="text_22">
     <!-- $e_f(t)$ -->
     <g transform="translate(20.2375 184.878)rotate(-90)scale(0.1 -0.1)">
      <defs>
       <path id="DejaVuSans-Oblique-65" d="M 3078 2063 
Q 3088 2113 3092 2166 
Q 3097 2219 3097 2272 
Q 3097 2653 2873 2875 
Q 2650 3097 2266 3097 
Q 1838 3097 1509 2826 
Q 1181 2556 1013 2059 
L 3078 2063 
z
M 3578 1613 
L 903 1613 
Q 884 1494 878 1425 
Q 872 1356 872 1306 
Q 872 872 1139 634 
Q 1406 397 1894 397 
Q 2269 397 2603 481 
Q 2938 566 3225 728 
L 3116 159 
Q 2806 34 2476 -28 
Q 2147 -91 1806 -91 
Q 1078 -91 686 257 
Q 294 606 294 1247 
Q 294 1794 489 2264 
Q 684 2734 1063 3103 
Q 1306 3334 1642 3459 
Q 1978 3584 2356 3584 
Q 2950 3584 3301 3228 
Q 3653 2872 3653 2272 
Q 3653 2128 3634 1964 
Q 3616 1800 3578 1613 
z
" transform="scale(0.015625)"/>
       <path id="DejaVuSans-Oblique-66" d="M 3059 4863 
L 2969 4384 
L 2419 4384 
Q 2106 4384 1964 4261 
Q 1822 4138 1753 3809 
L 1691 3500 
L 2638 3500 
L 2553 3053 
L 1606 3053 
L 1013 0 
L 434 0 
L 1031 3053 
L 481 3053 
L 563 3500 
L 1113 3500 
L 1159 3744 
Q 1278 4363 1576 4613 
Q 1875 4863 2516 4863 
L 3059 4863 
z
" transform="scale(0.015625)"/>
       <path id="DejaVuSans-Oblique-74" d="M 2706 3500 
L 2619 3053 
L 1472 3053 
L 1100 1153 
Q 1081 1047 1072 975 
Q 1063 903 1063 863 
Q 1063 663 1183 572 
Q 1303 481 1569 481 
L 2150 481 
L 2053 0 
L 1503 0 
Q 991 0 739 200 
Q 488 400 488 806 
Q 488 878 497 964 
Q 506 1050 525 1153 
L 897 3053 
L 409 3053 
L 500 3500 
L 978 3500 
L 1172 4494 
L 1747 4494 
L 1556 3500 
L 2706 3500 
z
" transform="scale(0.015625)"/>
      </defs>
      <use xlink:href="#DejaVuSans-Oblique-65" transform="translate(0 0.125)"/>
      <use xlink:href="#DejaVuSans-Oblique-66" transform="translate(61.523438 -16.28125)scale(0.7)"/>
      <use xlink:href="#DejaVuSans-28" transform="translate(88.901367 0.125)"/>
      <use xlink:href="#DejaVuSans-Oblique-74" transform="translate(127.915039 0.125)"/>
      <use xlink:href="#DejaVuSans-29" transform="translate(167.124023 0.125)"/>
     </g>
    </g>
   </g>
   <g id="line2d_21">
    <path d="M 73.832727 166.597085 
L 398.487273 166.597085 
L 398.487273 166.597085 
" clip-path="url(#pc7cc110f61)" style="fill: none; stroke: #1f77b4; stroke-width: 1.5; stroke-linecap: square"/>
   </g>
   <g id="line2d_22">
    <path d="M 73.832727 166.597085 
L 74.760312 166.5618 
L 76.615481 164.252283 
L 78.470649 160.383541 
L 80.325818 156.360685 
L 81.253403 154.694566 
L 82.180987 153.353515 
L 83.108571 152.341642 
L 84.036156 151.639527 
L 84.96374 151.221263 
L 85.891325 151.063588 
L 86.818909 151.148645 
L 87.746494 151.463985 
L 88.674078 152.001897 
L 89.601662 152.757716 
L 90.529247 153.727011 
L 91.456831 154.901774 
L 93.312 157.797626 
L 96.094753 162.982684 
L 97.949922 166.396538 
L 99.805091 169.245895 
L 100.732675 170.346332 
L 101.66026 171.192867 
L 102.587844 171.771956 
L 103.515429 172.080522 
L 104.443013 172.124398 
L 105.370597 171.91705 
L 106.298182 171.478859 
L 107.225766 170.836807 
L 109.080935 169.080492 
L 113.718857 163.945018 
L 115.574026 162.412802 
L 116.50161 161.851459 
L 117.429195 161.433214 
L 118.356779 161.154143 
L 119.284364 161.004814 
L 121.139532 161.038759 
L 122.994701 161.402985 
L 126.705039 162.559081 
L 129.487792 163.314709 
L 131.342961 163.612653 
L 133.19813 163.715831 
L 135.053299 163.638232 
L 137.836052 163.270952 
L 144.329143 162.201633 
L 147.111896 162.019892 
L 149.894649 162.084525 
L 153.604987 162.454649 
L 160.098078 163.176687 
L 163.808416 163.29696 
L 165.663584 163.259638 
L 166.591169 227.268485 
L 168.446338 240.016325 
L 171.229091 257.170606 
L 173.08426 267.396847 
L 176.794597 286.535255 
L 177.722182 291.680276 
L 178.649766 295.317603 
L 179.577351 295.488 
L 180.504935 291.515035 
L 181.432519 284.880127 
L 183.287688 268.154592 
L 185.142857 248.824174 
L 188.853195 206.458001 
L 189.780779 200.285388 
L 190.708364 195.906909 
L 195.346286 165.846172 
L 196.27387 161.316275 
L 197.201455 155.838384 
L 198.129039 153.203125 
L 199.056623 148.330132 
L 199.984208 147.612281 
L 200.911792 143.276668 
L 201.839377 143.896813 
L 202.766961 140.49087 
L 203.694545 141.573895 
L 204.62213 139.578809 
L 205.549714 140.581575 
L 206.477299 140.03417 
L 207.404883 140.98565 
L 208.332468 141.522004 
L 210.187636 143.906617 
L 212.042805 147.044677 
L 218.535896 159.200395 
L 220.391065 161.605066 
L 221.318649 162.519873 
L 222.246234 163.245016 
L 223.173818 163.789498 
L 224.101403 164.16687 
L 225.028987 164.394137 
L 226.884156 164.478578 
L 228.739325 164.215985 
L 235.232416 162.827694 
L 237.087584 162.712206 
L 238.942753 162.794719 
L 240.797922 163.070394 
L 243.580675 163.796445 
L 246.363429 164.794667 
L 266.770286 173.048826 
L 270.480623 174.906043 
L 273.263377 176.539476 
L 276.04613 178.410261 
L 278.828883 180.539959 
L 281.611636 182.94911 
L 284.39439 185.660168 
L 287.177143 188.696903 
L 289.032312 190.9125 
L 289.959896 127.893459 
L 290.887481 123.349626 
L 291.815065 119.592318 
L 292.742649 116.612659 
L 295.525403 109.636988 
L 296.452987 109.992497 
L 297.380571 112.502019 
L 298.308156 116.590916 
L 299.23574 121.69648 
L 301.090909 133.979549 
L 305.728831 167.599466 
L 306.656416 171.278283 
L 307.584 173.3256 
L 308.511584 174.394091 
L 309.439169 174.681421 
L 310.366753 174.36439 
L 311.294338 173.522682 
L 312.221922 172.280158 
L 314.077091 169.006588 
L 317.787429 161.962673 
L 319.642597 159.173761 
L 320.570182 158.073484 
L 321.497766 157.188942 
L 322.425351 156.528631 
L 323.352935 156.097304 
L 324.280519 155.896345 
L 325.208104 155.92374 
L 326.135688 156.173717 
L 327.063273 156.636348 
L 327.990857 157.296905 
L 328.918442 158.135421 
L 330.77361 160.238073 
L 335.411532 166.218929 
L 337.266701 168.038041 
L 338.194286 168.693928 
L 339.12187 169.158786 
L 340.049455 169.426682 
L 340.977039 169.499539 
L 341.904623 169.386346 
L 342.832208 169.102362 
L 343.759792 168.66823 
L 345.614961 167.453455 
L 351.180468 163.166637 
L 353.035636 162.181721 
L 354.890805 161.585148 
L 356.745974 161.370459 
L 358.601143 161.480534 
L 360.456312 161.827402 
L 367.876987 163.628543 
L 369.732156 163.815795 
L 371.587325 163.84109 
L 374.370078 163.619715 
L 379.935584 162.765563 
L 383.645922 162.361655 
L 386.428675 162.283208 
L 390.139013 162.45008 
L 398.487273 163.08597 
L 398.487273 163.08597 
" clip-path="url(#pc7cc110f61)" style="fill: none; stroke: #ff7f0e; stroke-width: 1.5; stroke-linecap: square"/>
   </g>
   <g id="line2d_23">
    <path d="M 73.832727 166.597085 
L 74.760312 166.042196 
L 76.615481 168.150633 
L 80.325818 174.987904 
L 81.253403 175.954104 
L 82.180987 176.246146 
L 83.108571 175.840048 
L 84.036156 174.799313 
L 84.96374 173.240765 
L 86.818909 169.13186 
L 89.601662 162.416143 
L 91.456831 158.615236 
L 92.384416 157.068145 
L 93.312 155.795969 
L 94.239584 154.821874 
L 95.167169 154.165824 
L 96.094753 153.844212 
L 97.022338 153.868447 
L 97.949922 154.242773 
L 98.877506 154.962039 
L 99.805091 156.010052 
L 100.732675 157.359097 
L 102.587844 160.798038 
L 105.370597 167.023335 
L 108.153351 173.151077 
L 110.008519 176.451275 
L 110.936104 177.723907 
L 111.863688 178.696039 
L 112.791273 179.342689 
L 113.718857 179.650543 
L 114.646442 179.619236 
L 115.574026 179.261852 
L 116.50161 178.604569 
L 117.429195 177.685536 
L 119.284364 175.262009 
L 123.922286 168.421657 
L 125.777455 166.33955 
L 126.705039 165.544003 
L 127.632623 164.923324 
L 128.560208 164.477571 
L 129.487792 164.20097 
L 130.415377 164.082729 
L 131.342961 164.107898 
L 133.19813 164.513697 
L 135.053299 165.252846 
L 140.618805 167.860491 
L 142.473974 168.46293 
L 144.329143 168.831788 
L 146.184312 168.966646 
L 148.039481 168.89919 
L 150.822234 168.540885 
L 156.38774 167.691409 
L 159.170494 167.520601 
L 161.953247 167.584072 
L 165.663584 167.923585 
L 166.591169 175.491703 
L 168.446338 186.692767 
L 170.301506 195.966001 
L 171.229091 199.897124 
L 172.156675 203.332211 
L 173.08426 206.278617 
L 174.011844 208.818965 
L 174.939429 210.581199 
L 175.867013 210.798924 
L 176.794597 208.449172 
L 177.722182 203.652538 
L 178.649766 197.990695 
L 179.577351 193.329316 
L 180.504935 190.456346 
L 181.432519 188.682125 
L 187.92561 178.792946 
L 188.853195 176.391836 
L 190.708364 168.595914 
L 191.635948 168.292661 
L 192.563532 168.868672 
L 193.491117 170.409221 
L 194.418701 171.509178 
L 195.346286 173.051067 
L 196.27387 173.380431 
L 197.201455 174.531695 
L 198.129039 173.542075 
L 199.056623 174.46556 
L 199.984208 172.048095 
L 200.911792 172.934027 
L 201.839377 169.631602 
L 202.766961 170.322505 
L 203.694545 167.086335 
L 204.62213 167.202492 
L 205.549714 164.700913 
L 206.477299 164.166236 
L 207.404883 162.455678 
L 208.332468 161.567989 
L 209.260052 160.376429 
L 211.115221 158.591611 
L 212.97039 157.230942 
L 213.897974 156.741205 
L 214.825558 156.389808 
L 215.753143 156.182845 
L 216.680727 156.119882 
L 217.608312 156.195206 
L 219.463481 156.709839 
L 221.318649 157.587261 
L 227.81174 161.206927 
L 229.666909 161.878441 
L 231.522078 162.265138 
L 233.377247 162.37337 
L 235.232416 162.249305 
L 238.015169 161.779314 
L 244.50826 160.460754 
L 247.291013 160.104499 
L 250.073766 159.928093 
L 253.784104 159.927366 
L 268.625455 160.319991 
L 276.04613 160.043915 
L 286.249558 159.688463 
L 289.032312 159.672139 
L 289.959896 156.633142 
L 290.887481 150.869014 
L 291.815065 146.031552 
L 292.742649 141.974108 
L 293.670234 138.653655 
L 294.597818 137.360331 
L 295.525403 140.337655 
L 296.452987 142.722141 
L 298.308156 148.724338 
L 301.090909 158.303712 
L 302.018494 161.09858 
L 302.946078 163.480399 
L 303.873662 165.387773 
L 304.801247 166.863539 
L 306.656416 169.155819 
L 307.584 169.531154 
L 308.511584 169.211444 
L 310.366753 167.882472 
L 312.221922 166.655026 
L 314.077091 165.81481 
L 317.787429 164.374619 
L 319.642597 163.343203 
L 321.497766 162.066887 
L 327.063273 157.992457 
L 328.918442 156.993356 
L 330.77361 156.378433 
L 331.701195 156.254531 
L 332.628779 156.274122 
L 333.556364 156.451645 
L 334.483948 156.798795 
L 335.411532 157.32295 
L 336.339117 158.025712 
L 337.266701 158.901848 
L 339.12187 161.117018 
L 340.977039 163.78842 
L 344.687377 169.417729 
L 346.542545 171.780716 
L 347.47013 172.731903 
L 348.397714 173.496331 
L 349.325299 174.05723 
L 350.252883 174.40542 
L 351.180468 174.539732 
L 352.108052 174.466982 
L 353.035636 174.201501 
L 353.963221 173.764339 
L 355.81839 172.484964 
L 358.601143 170.035594 
L 361.383896 167.695058 
L 363.239065 166.507429 
L 365.094234 165.735206 
L 366.949403 165.400176 
L 368.804571 165.464714 
L 370.65974 165.846978 
L 373.442494 166.777566 
L 377.152831 168.102218 
L 379.008 168.601174 
L 380.863169 168.923085 
L 382.718338 169.055419 
L 384.573506 169.013634 
L 387.35626 168.709369 
L 394.776935 167.684487 
L 397.559688 167.574423 
L 398.487273 167.582176 
L 398.487273 167.582176 
" clip-path="url(#pc7cc110f61)" style="fill: none; stroke: #2ca02c; stroke-width: 1.5; stroke-linecap: square"/>
   </g>
   <g id="line2d_24">
    <path d="M 73.832727 166.597085 
L 74.760312 161.762465 
L 75.687896 161.485745 
L 76.615481 161.793697 
L 78.470649 161.836695 
L 79.398234 161.758313 
L 80.325818 161.814875 
L 81.253403 162.11312 
L 82.180987 162.674381 
L 84.036156 164.294791 
L 85.891325 165.838973 
L 86.818909 166.355007 
L 87.746494 166.641642 
L 88.674078 166.69555 
L 89.601662 166.539146 
L 90.529247 166.212278 
L 92.384416 165.241208 
L 95.167169 163.64511 
L 97.022338 162.837718 
L 98.877506 162.376381 
L 100.732675 162.285331 
L 102.587844 162.516964 
L 105.370597 163.243014 
L 110.008519 164.579443 
L 113.718857 165.350442 
L 116.50161 165.741853 
L 119.284364 165.883218 
L 121.139532 165.775245 
L 123.922286 165.318929 
L 128.560208 164.368276 
L 130.415377 164.154803 
L 132.270545 164.09618 
L 135.053299 164.254908 
L 141.54639 164.846857 
L 145.256727 164.904921 
L 153.604987 164.67243 
L 161.025662 164.555521 
L 165.663584 164.60639 
L 166.591169 285.795486 
L 167.518753 280.483844 
L 168.446338 273.710116 
L 169.373922 265.592338 
L 171.229091 246.110729 
L 173.08426 223.410618 
L 174.939429 197.764149 
L 176.794597 170.712585 
L 177.722182 159.22229 
L 178.649766 150.780007 
L 179.577351 145.658976 
L 180.504935 143.253103 
L 181.432519 142.706595 
L 182.360104 143.352225 
L 183.287688 144.796558 
L 184.215273 146.855491 
L 185.142857 149.467772 
L 186.070442 152.629004 
L 186.998026 156.343139 
L 188.853195 165.279448 
L 189.780779 170.163058 
L 190.708364 174.386431 
L 191.635948 176.872475 
L 192.563532 178.526345 
L 194.418701 180.628551 
L 196.27387 182.1445 
L 197.201455 182.490071 
L 198.129039 183.127469 
L 199.056623 182.923277 
L 199.984208 183.364654 
L 200.911792 182.434662 
L 201.839377 182.550672 
L 202.766961 181.082963 
L 203.694545 180.883033 
L 204.62213 179.493098 
L 205.549714 179.179787 
L 206.477299 178.275852 
L 207.404883 177.970985 
L 208.332468 177.467827 
L 212.042805 176.384882 
L 213.897974 176.05408 
L 215.753143 175.932913 
L 217.608312 176.060396 
L 219.463481 176.423498 
L 223.173818 177.514536 
L 225.956571 178.252171 
L 228.739325 178.720308 
L 231.522078 178.890926 
L 234.304831 178.79626 
L 238.942753 178.315106 
L 243.580675 177.888238 
L 248.218597 177.727063 
L 254.711688 177.801794 
L 264.915117 177.931671 
L 274.190961 177.781537 
L 289.032312 177.403125 
L 289.959896 53.568 
L 290.887481 58.010656 
L 291.815065 63.333956 
L 293.670234 76.151969 
L 294.597818 82.667284 
L 295.525403 87.68035 
L 297.380571 98.921378 
L 299.23574 108.424994 
L 305.728831 140.332265 
L 307.584 150.612051 
L 312.221922 178.467123 
L 313.149506 182.723225 
L 314.077091 186.129582 
L 315.004675 188.629995 
L 315.93226 190.174751 
L 316.859844 190.726251 
L 317.787429 190.265683 
L 318.715013 188.792073 
L 319.642597 186.325641 
L 320.570182 182.917488 
L 321.497766 178.682579 
L 323.352935 169.086421 
L 324.280519 164.967264 
L 325.208104 161.856041 
L 326.135688 159.638274 
L 327.063273 158.147025 
L 327.990857 157.271859 
L 328.918442 156.937598 
L 329.846026 157.083887 
L 330.77361 157.652237 
L 331.701195 158.575211 
L 333.556364 161.115057 
L 335.411532 163.755922 
L 336.339117 164.807128 
L 337.266701 165.578017 
L 338.194286 166.050315 
L 339.12187 166.243974 
L 340.049455 166.205289 
L 341.904623 165.681209 
L 344.687377 164.702255 
L 346.542545 164.397342 
L 348.397714 164.462128 
L 351.180468 164.993482 
L 353.963221 165.537099 
L 355.81839 165.702123 
L 357.673558 165.667152 
L 360.456312 165.324594 
L 366.021818 164.492312 
L 368.804571 164.352434 
L 372.514909 164.473329 
L 379.935584 164.876123 
L 385.501091 164.874932 
L 398.487273 164.608278 
L 398.487273 164.608278 
" clip-path="url(#pc7cc110f61)" style="fill: none; stroke: #d62728; stroke-width: 1.5; stroke-linecap: square"/>
   </g>
   <g id="patch_3">
    <path d="M 57.6 307.584 
L 57.6 41.472 
" style="fill: none; stroke: #000000; stroke-width: 0.8; stroke-linejoin: miter; stroke-linecap: square"/>
   </g>
   <g id="patch_4">
    <path d="M 414.72 307.584 
L 414.72 41.472 
" style="fill: none; stroke: #000000; stroke-width: 0.8; stroke-linejoin: miter; stroke-linecap: square"/>
   </g>
   <g id="patch_5">
    <path d="M 57.6 307.584 
L 414.72 307.584 
" style="fill: none; stroke: #000000; stroke-width: 0.8; stroke-linejoin: miter; stroke-linecap: square"/>
   </g>
   <g id="patch_6">
    <path d="M 57.6 41.472 
L 414.72 41.472 
" style="fill: none; stroke: #000000; stroke-width: 0.8; stroke-linejoin: miter; stroke-linecap: square"/>
   </g>
   <g id="legend_1">
    <g id="patch_7">
     <path d="M 362.32 108.1845 
L 407.72 108.1845 
Q 409.72 108.1845 409.72 106.1845 
L 409.72 48.472 
Q 409.72 46.472 407.72 46.472 
L 362.32 46.472 
Q 360.32 46.472 360.32 48.472 
L 360.32 106.1845 
Q 360.32 108.1845 362.32 108.1845 
z
" style="fill: #ffffff; opacity: 0.8; stroke: #cccccc; stroke-linejoin: miter"/>
    </g>
    <g id="line2d_25">
     <path d="M 364.32 54.570438 
L 374.32 54.570438 
L 384.32 54.570438 
" style="fill: none; stroke: #1f77b4; stroke-width: 1.5; stroke-linecap: square"/>
    </g>
    <g id="text_23">
     <!-- $M_1$ -->
     <g transform="translate(392.32 58.070438)scale(0.1 -0.1)">
      <defs>
       <path id="DejaVuSans-Oblique-4d" d="M 1081 4666 
L 2028 4666 
L 2572 1522 
L 4378 4666 
L 5350 4666 
L 4441 0 
L 3828 0 
L 4622 4091 
L 2791 897 
L 2175 897 
L 1581 4103 
L 788 0 
L 172 0 
L 1081 4666 
z
" transform="scale(0.015625)"/>
      </defs>
      <use xlink:href="#DejaVuSans-Oblique-4d" transform="translate(0 0.09375)"/>
      <use xlink:href="#DejaVuSans-31" transform="translate(86.279297 -16.3125)scale(0.7)"/>
     </g>
    </g>
    <g id="line2d_26">
     <path d="M 364.32 69.248563 
L 374.32 69.248563 
L 384.32 69.248563 
" style="fill: none; stroke: #ff7f0e; stroke-width: 1.5; stroke-linecap: square"/>
    </g>
    <g id="text_24">
     <!-- $M_2$ -->
     <g transform="translate(392.32 72.748563)scale(0.1 -0.1)">
      <use xlink:href="#DejaVuSans-Oblique-4d" transform="translate(0 0.09375)"/>
      <use xlink:href="#DejaVuSans-32" transform="translate(86.279297 -16.3125)scale(0.7)"/>
     </g>
    </g>
    <g id="line2d_27">
     <path d="M 364.32 83.926688 
L 374.32 83.926688 
L 384.32 83.926688 
" style="fill: none; stroke: #2ca02c; stroke-width: 1.5; stroke-linecap: square"/>
    </g>
    <g id="text_25">
     <!-- $M_3$ -->
     <g transform="translate(392.32 87.426688)scale(0.1 -0.1)">
      <use xlink:href="#DejaVuSans-Oblique-4d" transform="translate(0 0.09375)"/>
      <use xlink:href="#DejaVuSans-33" transform="translate(86.279297 -16.3125)scale(0.7)"/>
     </g>
    </g>
    <g id="line2d_28">
     <path d="M 364.32 98.604813 
L 374.32 98.604813 
L 384.32 98.604813 
" style="fill: none; stroke: #d62728; stroke-width: 1.5; stroke-linecap: square"/>
    </g>
    <g id="text_26">
     <!-- $M_4$ -->
     <g transform="translate(392.32 102.104813)scale(0.1 -0.1)">
      <use xlink:href="#DejaVuSans-Oblique-4d" transform="translate(0 0.09375)"/>
      <use xlink:href="#DejaVuSans-34" transform="translate(86.279297 -16.3125)scale(0.7)"/>
     </g>
    </g>
   </g>
  </g>
 </g>
 <defs>
  <clipPath id="pc7cc110f61">
   <rect x="57.6" y="41.472" width="357.12" height="266.112"/>
  </clipPath>
 </defs>
</svg>
