<?xml version="1.0" encoding="utf-8" standalone="no"?>
<!DOCTYPE svg PUBLIC "-//W3C//DTD SVG 1.1//EN"
  "http://www.w3.org/Graphics/SVG/1.1/DTD/svg11.dtd">
<svg xmlns:xlink="http://www.w3.org/1999/xlink" width="460.8pt" height="345.6pt" viewBox="0 0 460.8 345.6" xmlns="http://www.w3.org/2000/svg" version="1.1">
 <metadata>
  <rdf:RDF xmlns:dc="http://purl.org/dc/elements/1.1/" xmlns:cc="http://creativecommons.org/ns#" xmlns:rdf="http://www.w3.org/1999/02/22-rdf-syntax-ns#">
   <cc:Work>
    <dc:type rdf:resource="http://purl.org/dc/dcmitype/StillImage"/>
    <dc:date>2022-08-09T16:17:28.154187</dc:date>
    <dc:format>image/svg+xml</dc:format>
    <dc:creator>
     <cc:Agent>
      <dc:title>Matplotlib v3.5.2, https://matplotlib.org/</dc:title>
     </cc:Agent>
    </dc:creator>
   </cc:Work>
  </rdf:RDF>
 </metadata>
 <defs>
  <style type="text/css">*{stroke-linejoin: round; stroke-linecap: butt}</style>
 </defs>
 <g id="figure_1">
  <g id="patch_1">
   <path d="M 0 345.6 
L 460.8 345.6 
L 460.8 0 
L 0 0 
z
" style="fill: #ffffff"/>
  </g>
  <g id="axes_1">
   <g id="patch_2">
    <path d="M 57.6 307.584 
L 414.72 307.584 
L 414.72 41.472 
L 57.6 41.472 
z
" style="fill: #ffffff"/>
   </g>
   <g id="matplotlib.axis_1">
    <g id="xtick_1">
     <g id="line2d_1">
      <defs>
       <path id="md11c91aa2c" d="M 0 0 
L 0 3.5 
" style="stroke: #000000; stroke-width: 0.8"/>
      </defs>
      <g>
       <use xlink:href="#md11c91aa2c" x="73.832727" y="307.584" style="stroke: #000000; stroke-width: 0.8"/>
      </g>
     </g>
     <g id="text_1">
      <!-- 0.0 -->
      <g transform="translate(65.881165 322.182437)scale(0.1 -0.1)">
       <defs>
        <path id="DejaVuSans-30" d="M 2034 4250 
Q 1547 4250 1301 3770 
Q 1056 3291 1056 2328 
Q 1056 1369 1301 889 
Q 1547 409 2034 409 
Q 2525 409 2770 889 
Q 3016 1369 3016 2328 
Q 3016 3291 2770 3770 
Q 2525 4250 2034 4250 
z
M 2034 4750 
Q 2819 4750 3233 4129 
Q 3647 3509 3647 2328 
Q 3647 1150 3233 529 
Q 2819 -91 2034 -91 
Q 1250 -91 836 529 
Q 422 1150 422 2328 
Q 422 3509 836 4129 
Q 1250 4750 2034 4750 
z
" transform="scale(0.015625)"/>
        <path id="DejaVuSans-2e" d="M 684 794 
L 1344 794 
L 1344 0 
L 684 0 
L 684 794 
z
" transform="scale(0.015625)"/>
       </defs>
       <use xlink:href="#DejaVuSans-30"/>
       <use xlink:href="#DejaVuSans-2e" x="63.623047"/>
       <use xlink:href="#DejaVuSans-30" x="95.410156"/>
      </g>
     </g>
    </g>
    <g id="xtick_2">
     <g id="line2d_2">
      <g>
       <use xlink:href="#md11c91aa2c" x="101.66026" y="307.584" style="stroke: #000000; stroke-width: 0.8"/>
      </g>
     </g>
     <g id="text_2">
      <!-- 3.0 -->
      <g transform="translate(93.708697 322.182437)scale(0.1 -0.1)">
       <defs>
        <path id="DejaVuSans-33" d="M 2597 2516 
Q 3050 2419 3304 2112 
Q 3559 1806 3559 1356 
Q 3559 666 3084 287 
Q 2609 -91 1734 -91 
Q 1441 -91 1130 -33 
Q 819 25 488 141 
L 488 750 
Q 750 597 1062 519 
Q 1375 441 1716 441 
Q 2309 441 2620 675 
Q 2931 909 2931 1356 
Q 2931 1769 2642 2001 
Q 2353 2234 1838 2234 
L 1294 2234 
L 1294 2753 
L 1863 2753 
Q 2328 2753 2575 2939 
Q 2822 3125 2822 3475 
Q 2822 3834 2567 4026 
Q 2313 4219 1838 4219 
Q 1578 4219 1281 4162 
Q 984 4106 628 3988 
L 628 4550 
Q 988 4650 1302 4700 
Q 1616 4750 1894 4750 
Q 2613 4750 3031 4423 
Q 3450 4097 3450 3541 
Q 3450 3153 3228 2886 
Q 3006 2619 2597 2516 
z
" transform="scale(0.015625)"/>
       </defs>
       <use xlink:href="#DejaVuSans-33"/>
       <use xlink:href="#DejaVuSans-2e" x="63.623047"/>
       <use xlink:href="#DejaVuSans-30" x="95.410156"/>
      </g>
     </g>
    </g>
    <g id="xtick_3">
     <g id="line2d_3">
      <g>
       <use xlink:href="#md11c91aa2c" x="129.487792" y="307.584" style="stroke: #000000; stroke-width: 0.8"/>
      </g>
     </g>
     <g id="text_3">
      <!-- 6.0 -->
      <g transform="translate(121.53623 322.182437)scale(0.1 -0.1)">
       <defs>
        <path id="DejaVuSans-36" d="M 2113 2584 
Q 1688 2584 1439 2293 
Q 1191 2003 1191 1497 
Q 1191 994 1439 701 
Q 1688 409 2113 409 
Q 2538 409 2786 701 
Q 3034 994 3034 1497 
Q 3034 2003 2786 2293 
Q 2538 2584 2113 2584 
z
M 3366 4563 
L 3366 3988 
Q 3128 4100 2886 4159 
Q 2644 4219 2406 4219 
Q 1781 4219 1451 3797 
Q 1122 3375 1075 2522 
Q 1259 2794 1537 2939 
Q 1816 3084 2150 3084 
Q 2853 3084 3261 2657 
Q 3669 2231 3669 1497 
Q 3669 778 3244 343 
Q 2819 -91 2113 -91 
Q 1303 -91 875 529 
Q 447 1150 447 2328 
Q 447 3434 972 4092 
Q 1497 4750 2381 4750 
Q 2619 4750 2861 4703 
Q 3103 4656 3366 4563 
z
" transform="scale(0.015625)"/>
       </defs>
       <use xlink:href="#DejaVuSans-36"/>
       <use xlink:href="#DejaVuSans-2e" x="63.623047"/>
       <use xlink:href="#DejaVuSans-30" x="95.410156"/>
      </g>
     </g>
    </g>
    <g id="xtick_4">
     <g id="line2d_4">
      <g>
       <use xlink:href="#md11c91aa2c" x="157.315325" y="307.584" style="stroke: #000000; stroke-width: 0.8"/>
      </g>
     </g>
     <g id="text_4">
      <!-- 9.0 -->
      <g transform="translate(149.363762 322.182437)scale(0.1 -0.1)">
       <defs>
        <path id="DejaVuSans-39" d="M 703 97 
L 703 672 
Q 941 559 1184 500 
Q 1428 441 1663 441 
Q 2288 441 2617 861 
Q 2947 1281 2994 2138 
Q 2813 1869 2534 1725 
Q 2256 1581 1919 1581 
Q 1219 1581 811 2004 
Q 403 2428 403 3163 
Q 403 3881 828 4315 
Q 1253 4750 1959 4750 
Q 2769 4750 3195 4129 
Q 3622 3509 3622 2328 
Q 3622 1225 3098 567 
Q 2575 -91 1691 -91 
Q 1453 -91 1209 -44 
Q 966 3 703 97 
z
M 1959 2075 
Q 2384 2075 2632 2365 
Q 2881 2656 2881 3163 
Q 2881 3666 2632 3958 
Q 2384 4250 1959 4250 
Q 1534 4250 1286 3958 
Q 1038 3666 1038 3163 
Q 1038 2656 1286 2365 
Q 1534 2075 1959 2075 
z
" transform="scale(0.015625)"/>
       </defs>
       <use xlink:href="#DejaVuSans-39"/>
       <use xlink:href="#DejaVuSans-2e" x="63.623047"/>
       <use xlink:href="#DejaVuSans-30" x="95.410156"/>
      </g>
     </g>
    </g>
    <g id="xtick_5">
     <g id="line2d_5">
      <g>
       <use xlink:href="#md11c91aa2c" x="185.142857" y="307.584" style="stroke: #000000; stroke-width: 0.8"/>
      </g>
     </g>
     <g id="text_5">
      <!-- 12.0 -->
      <g transform="translate(174.010045 322.182437)scale(0.1 -0.1)">
       <defs>
        <path id="DejaVuSans-31" d="M 794 531 
L 1825 531 
L 1825 4091 
L 703 3866 
L 703 4441 
L 1819 4666 
L 2450 4666 
L 2450 531 
L 3481 531 
L 3481 0 
L 794 0 
L 794 531 
z
" transform="scale(0.015625)"/>
        <path id="DejaVuSans-32" d="M 1228 531 
L 3431 531 
L 3431 0 
L 469 0 
L 469 531 
Q 828 903 1448 1529 
Q 2069 2156 2228 2338 
Q 2531 2678 2651 2914 
Q 2772 3150 2772 3378 
Q 2772 3750 2511 3984 
Q 2250 4219 1831 4219 
Q 1534 4219 1204 4116 
Q 875 4013 500 3803 
L 500 4441 
Q 881 4594 1212 4672 
Q 1544 4750 1819 4750 
Q 2544 4750 2975 4387 
Q 3406 4025 3406 3419 
Q 3406 3131 3298 2873 
Q 3191 2616 2906 2266 
Q 2828 2175 2409 1742 
Q 1991 1309 1228 531 
z
" transform="scale(0.015625)"/>
       </defs>
       <use xlink:href="#DejaVuSans-31"/>
       <use xlink:href="#DejaVuSans-32" x="63.623047"/>
       <use xlink:href="#DejaVuSans-2e" x="127.246094"/>
       <use xlink:href="#DejaVuSans-30" x="159.033203"/>
      </g>
     </g>
    </g>
    <g id="xtick_6">
     <g id="line2d_6">
      <g>
       <use xlink:href="#md11c91aa2c" x="212.97039" y="307.584" style="stroke: #000000; stroke-width: 0.8"/>
      </g>
     </g>
     <g id="text_6">
      <!-- 15.0 -->
      <g transform="translate(201.837577 322.182437)scale(0.1 -0.1)">
       <defs>
        <path id="DejaVuSans-35" d="M 691 4666 
L 3169 4666 
L 3169 4134 
L 1269 4134 
L 1269 2991 
Q 1406 3038 1543 3061 
Q 1681 3084 1819 3084 
Q 2600 3084 3056 2656 
Q 3513 2228 3513 1497 
Q 3513 744 3044 326 
Q 2575 -91 1722 -91 
Q 1428 -91 1123 -41 
Q 819 9 494 109 
L 494 744 
Q 775 591 1075 516 
Q 1375 441 1709 441 
Q 2250 441 2565 725 
Q 2881 1009 2881 1497 
Q 2881 1984 2565 2268 
Q 2250 2553 1709 2553 
Q 1456 2553 1204 2497 
Q 953 2441 691 2322 
L 691 4666 
z
" transform="scale(0.015625)"/>
       </defs>
       <use xlink:href="#DejaVuSans-31"/>
       <use xlink:href="#DejaVuSans-35" x="63.623047"/>
       <use xlink:href="#DejaVuSans-2e" x="127.246094"/>
       <use xlink:href="#DejaVuSans-30" x="159.033203"/>
      </g>
     </g>
    </g>
    <g id="xtick_7">
     <g id="line2d_7">
      <g>
       <use xlink:href="#md11c91aa2c" x="240.797922" y="307.584" style="stroke: #000000; stroke-width: 0.8"/>
      </g>
     </g>
     <g id="text_7">
      <!-- 18.0 -->
      <g transform="translate(229.66511 322.182437)scale(0.1 -0.1)">
       <defs>
        <path id="DejaVuSans-38" d="M 2034 2216 
Q 1584 2216 1326 1975 
Q 1069 1734 1069 1313 
Q 1069 891 1326 650 
Q 1584 409 2034 409 
Q 2484 409 2743 651 
Q 3003 894 3003 1313 
Q 3003 1734 2745 1975 
Q 2488 2216 2034 2216 
z
M 1403 2484 
Q 997 2584 770 2862 
Q 544 3141 544 3541 
Q 544 4100 942 4425 
Q 1341 4750 2034 4750 
Q 2731 4750 3128 4425 
Q 3525 4100 3525 3541 
Q 3525 3141 3298 2862 
Q 3072 2584 2669 2484 
Q 3125 2378 3379 2068 
Q 3634 1759 3634 1313 
Q 3634 634 3220 271 
Q 2806 -91 2034 -91 
Q 1263 -91 848 271 
Q 434 634 434 1313 
Q 434 1759 690 2068 
Q 947 2378 1403 2484 
z
M 1172 3481 
Q 1172 3119 1398 2916 
Q 1625 2713 2034 2713 
Q 2441 2713 2670 2916 
Q 2900 3119 2900 3481 
Q 2900 3844 2670 4047 
Q 2441 4250 2034 4250 
Q 1625 4250 1398 4047 
Q 1172 3844 1172 3481 
z
" transform="scale(0.015625)"/>
       </defs>
       <use xlink:href="#DejaVuSans-31"/>
       <use xlink:href="#DejaVuSans-38" x="63.623047"/>
       <use xlink:href="#DejaVuSans-2e" x="127.246094"/>
       <use xlink:href="#DejaVuSans-30" x="159.033203"/>
      </g>
     </g>
    </g>
    <g id="xtick_8">
     <g id="line2d_8">
      <g>
       <use xlink:href="#md11c91aa2c" x="268.625455" y="307.584" style="stroke: #000000; stroke-width: 0.8"/>
      </g>
     </g>
     <g id="text_8">
      <!-- 21.0 -->
      <g transform="translate(257.492642 322.182437)scale(0.1 -0.1)">
       <use xlink:href="#DejaVuSans-32"/>
       <use xlink:href="#DejaVuSans-31" x="63.623047"/>
       <use xlink:href="#DejaVuSans-2e" x="127.246094"/>
       <use xlink:href="#DejaVuSans-30" x="159.033203"/>
      </g>
     </g>
    </g>
    <g id="xtick_9">
     <g id="line2d_9">
      <g>
       <use xlink:href="#md11c91aa2c" x="296.452987" y="307.584" style="stroke: #000000; stroke-width: 0.8"/>
      </g>
     </g>
     <g id="text_9">
      <!-- 24.0 -->
      <g transform="translate(285.320175 322.182437)scale(0.1 -0.1)">
       <defs>
        <path id="DejaVuSans-34" d="M 2419 4116 
L 825 1625 
L 2419 1625 
L 2419 4116 
z
M 2253 4666 
L 3047 4666 
L 3047 1625 
L 3713 1625 
L 3713 1100 
L 3047 1100 
L 3047 0 
L 2419 0 
L 2419 1100 
L 313 1100 
L 313 1709 
L 2253 4666 
z
" transform="scale(0.015625)"/>
       </defs>
       <use xlink:href="#DejaVuSans-32"/>
       <use xlink:href="#DejaVuSans-34" x="63.623047"/>
       <use xlink:href="#DejaVuSans-2e" x="127.246094"/>
       <use xlink:href="#DejaVuSans-30" x="159.033203"/>
      </g>
     </g>
    </g>
    <g id="xtick_10">
     <g id="line2d_10">
      <g>
       <use xlink:href="#md11c91aa2c" x="324.280519" y="307.584" style="stroke: #000000; stroke-width: 0.8"/>
      </g>
     </g>
     <g id="text_10">
      <!-- 27.0 -->
      <g transform="translate(313.147707 322.182437)scale(0.1 -0.1)">
       <defs>
        <path id="DejaVuSans-37" d="M 525 4666 
L 3525 4666 
L 3525 4397 
L 1831 0 
L 1172 0 
L 2766 4134 
L 525 4134 
L 525 4666 
z
" transform="scale(0.015625)"/>
       </defs>
       <use xlink:href="#DejaVuSans-32"/>
       <use xlink:href="#DejaVuSans-37" x="63.623047"/>
       <use xlink:href="#DejaVuSans-2e" x="127.246094"/>
       <use xlink:href="#DejaVuSans-30" x="159.033203"/>
      </g>
     </g>
    </g>
    <g id="xtick_11">
     <g id="line2d_11">
      <g>
       <use xlink:href="#md11c91aa2c" x="352.108052" y="307.584" style="stroke: #000000; stroke-width: 0.8"/>
      </g>
     </g>
     <g id="text_11">
      <!-- 30.0 -->
      <g transform="translate(340.975239 322.182437)scale(0.1 -0.1)">
       <use xlink:href="#DejaVuSans-33"/>
       <use xlink:href="#DejaVuSans-30" x="63.623047"/>
       <use xlink:href="#DejaVuSans-2e" x="127.246094"/>
       <use xlink:href="#DejaVuSans-30" x="159.033203"/>
      </g>
     </g>
    </g>
    <g id="xtick_12">
     <g id="line2d_12">
      <g>
       <use xlink:href="#md11c91aa2c" x="379.935584" y="307.584" style="stroke: #000000; stroke-width: 0.8"/>
      </g>
     </g>
     <g id="text_12">
      <!-- 33.0 -->
      <g transform="translate(368.802772 322.182437)scale(0.1 -0.1)">
       <use xlink:href="#DejaVuSans-33"/>
       <use xlink:href="#DejaVuSans-33" x="63.623047"/>
       <use xlink:href="#DejaVuSans-2e" x="127.246094"/>
       <use xlink:href="#DejaVuSans-30" x="159.033203"/>
      </g>
     </g>
    </g>
    <g id="text_13">
     <!-- time(s) -->
     <g transform="translate(218.357656 335.860562)scale(0.1 -0.1)">
      <defs>
       <path id="DejaVuSans-74" d="M 1172 4494 
L 1172 3500 
L 2356 3500 
L 2356 3053 
L 1172 3053 
L 1172 1153 
Q 1172 725 1289 603 
Q 1406 481 1766 481 
L 2356 481 
L 2356 0 
L 1766 0 
Q 1100 0 847 248 
Q 594 497 594 1153 
L 594 3053 
L 172 3053 
L 172 3500 
L 594 3500 
L 594 4494 
L 1172 4494 
z
" transform="scale(0.015625)"/>
       <path id="DejaVuSans-69" d="M 603 3500 
L 1178 3500 
L 1178 0 
L 603 0 
L 603 3500 
z
M 603 4863 
L 1178 4863 
L 1178 4134 
L 603 4134 
L 603 4863 
z
" transform="scale(0.015625)"/>
       <path id="DejaVuSans-6d" d="M 3328 2828 
Q 3544 3216 3844 3400 
Q 4144 3584 4550 3584 
Q 5097 3584 5394 3201 
Q 5691 2819 5691 2113 
L 5691 0 
L 5113 0 
L 5113 2094 
Q 5113 2597 4934 2840 
Q 4756 3084 4391 3084 
Q 3944 3084 3684 2787 
Q 3425 2491 3425 1978 
L 3425 0 
L 2847 0 
L 2847 2094 
Q 2847 2600 2669 2842 
Q 2491 3084 2119 3084 
Q 1678 3084 1418 2786 
Q 1159 2488 1159 1978 
L 1159 0 
L 581 0 
L 581 3500 
L 1159 3500 
L 1159 2956 
Q 1356 3278 1631 3431 
Q 1906 3584 2284 3584 
Q 2666 3584 2933 3390 
Q 3200 3197 3328 2828 
z
" transform="scale(0.015625)"/>
       <path id="DejaVuSans-65" d="M 3597 1894 
L 3597 1613 
L 953 1613 
Q 991 1019 1311 708 
Q 1631 397 2203 397 
Q 2534 397 2845 478 
Q 3156 559 3463 722 
L 3463 178 
Q 3153 47 2828 -22 
Q 2503 -91 2169 -91 
Q 1331 -91 842 396 
Q 353 884 353 1716 
Q 353 2575 817 3079 
Q 1281 3584 2069 3584 
Q 2775 3584 3186 3129 
Q 3597 2675 3597 1894 
z
M 3022 2063 
Q 3016 2534 2758 2815 
Q 2500 3097 2075 3097 
Q 1594 3097 1305 2825 
Q 1016 2553 972 2059 
L 3022 2063 
z
" transform="scale(0.015625)"/>
       <path id="DejaVuSans-28" d="M 1984 4856 
Q 1566 4138 1362 3434 
Q 1159 2731 1159 2009 
Q 1159 1288 1364 580 
Q 1569 -128 1984 -844 
L 1484 -844 
Q 1016 -109 783 600 
Q 550 1309 550 2009 
Q 550 2706 781 3412 
Q 1013 4119 1484 4856 
L 1984 4856 
z
" transform="scale(0.015625)"/>
       <path id="DejaVuSans-73" d="M 2834 3397 
L 2834 2853 
Q 2591 2978 2328 3040 
Q 2066 3103 1784 3103 
Q 1356 3103 1142 2972 
Q 928 2841 928 2578 
Q 928 2378 1081 2264 
Q 1234 2150 1697 2047 
L 1894 2003 
Q 2506 1872 2764 1633 
Q 3022 1394 3022 966 
Q 3022 478 2636 193 
Q 2250 -91 1575 -91 
Q 1294 -91 989 -36 
Q 684 19 347 128 
L 347 722 
Q 666 556 975 473 
Q 1284 391 1588 391 
Q 1994 391 2212 530 
Q 2431 669 2431 922 
Q 2431 1156 2273 1281 
Q 2116 1406 1581 1522 
L 1381 1569 
Q 847 1681 609 1914 
Q 372 2147 372 2553 
Q 372 3047 722 3315 
Q 1072 3584 1716 3584 
Q 2034 3584 2315 3537 
Q 2597 3491 2834 3397 
z
" transform="scale(0.015625)"/>
       <path id="DejaVuSans-29" d="M 513 4856 
L 1013 4856 
Q 1481 4119 1714 3412 
Q 1947 2706 1947 2009 
Q 1947 1309 1714 600 
Q 1481 -109 1013 -844 
L 513 -844 
Q 928 -128 1133 580 
Q 1338 1288 1338 2009 
Q 1338 2731 1133 3434 
Q 928 4138 513 4856 
z
" transform="scale(0.015625)"/>
      </defs>
      <use xlink:href="#DejaVuSans-74"/>
      <use xlink:href="#DejaVuSans-69" x="39.208984"/>
      <use xlink:href="#DejaVuSans-6d" x="66.992188"/>
      <use xlink:href="#DejaVuSans-65" x="164.404297"/>
      <use xlink:href="#DejaVuSans-28" x="225.927734"/>
      <use xlink:href="#DejaVuSans-73" x="264.941406"/>
      <use xlink:href="#DejaVuSans-29" x="317.041016"/>
     </g>
    </g>
   </g>
   <g id="matplotlib.axis_2">
    <g id="ytick_1">
     <g id="line2d_13">
      <defs>
       <path id="ma0396a18eb" d="M 0 0 
L -3.5 0 
" style="stroke: #000000; stroke-width: 0.8"/>
      </defs>
      <g>
       <use xlink:href="#ma0396a18eb" x="57.6" y="270.980261" style="stroke: #000000; stroke-width: 0.8"/>
      </g>
     </g>
     <g id="text_14">
      <!-- 30 -->
      <g transform="translate(37.875 274.77948)scale(0.1 -0.1)">
       <use xlink:href="#DejaVuSans-33"/>
       <use xlink:href="#DejaVuSans-30" x="63.623047"/>
      </g>
     </g>
    </g>
    <g id="ytick_2">
     <g id="line2d_14">
      <g>
       <use xlink:href="#ma0396a18eb" x="57.6" y="223.652076" style="stroke: #000000; stroke-width: 0.8"/>
      </g>
     </g>
     <g id="text_15">
      <!-- 40 -->
      <g transform="translate(37.875 227.451295)scale(0.1 -0.1)">
       <use xlink:href="#DejaVuSans-34"/>
       <use xlink:href="#DejaVuSans-30" x="63.623047"/>
      </g>
     </g>
    </g>
    <g id="ytick_3">
     <g id="line2d_15">
      <g>
       <use xlink:href="#ma0396a18eb" x="57.6" y="176.323892" style="stroke: #000000; stroke-width: 0.8"/>
      </g>
     </g>
     <g id="text_16">
      <!-- 50 -->
      <g transform="translate(37.875 180.12311)scale(0.1 -0.1)">
       <use xlink:href="#DejaVuSans-35"/>
       <use xlink:href="#DejaVuSans-30" x="63.623047"/>
      </g>
     </g>
    </g>
    <g id="ytick_4">
     <g id="line2d_16">
      <g>
       <use xlink:href="#ma0396a18eb" x="57.6" y="128.995707" style="stroke: #000000; stroke-width: 0.8"/>
      </g>
     </g>
     <g id="text_17">
      <!-- 60 -->
      <g transform="translate(37.875 132.794926)scale(0.1 -0.1)">
       <use xlink:href="#DejaVuSans-36"/>
       <use xlink:href="#DejaVuSans-30" x="63.623047"/>
      </g>
     </g>
    </g>
    <g id="ytick_5">
     <g id="line2d_17">
      <g>
       <use xlink:href="#ma0396a18eb" x="57.6" y="81.667522" style="stroke: #000000; stroke-width: 0.8"/>
      </g>
     </g>
     <g id="text_18">
      <!-- 70 -->
      <g transform="translate(37.875 85.466741)scale(0.1 -0.1)">
       <use xlink:href="#DejaVuSans-37"/>
       <use xlink:href="#DejaVuSans-30" x="63.623047"/>
      </g>
     </g>
    </g>
    <g id="text_19">
     <!-- $\alpha(\degree)$ -->
     <g transform="translate(31.795313 184.228)rotate(-90)scale(0.1 -0.1)">
      <defs>
       <path id="DejaVuSans-Oblique-3b1" d="M 2619 1628 
L 2622 2350 
Q 2625 3088 2069 3091 
Q 1653 3094 1394 2747 
Q 1069 2319 959 1747 
Q 825 1059 994 731 
Q 1169 397 1547 397 
Q 1966 397 2319 1063 
L 2619 1628 
z
M 2166 3578 
Q 3141 3594 3128 2584 
Q 3128 2584 3616 3500 
L 4128 3500 
L 3119 1603 
L 3109 919 
Q 3109 766 3194 638 
Q 3291 488 3391 488 
L 3669 488 
L 3575 0 
L 3228 0 
Q 2934 0 2722 263 
Q 2622 394 2619 669 
Q 2416 334 2066 50 
Q 1900 -81 1453 -78 
Q 722 -72 456 397 
Q 184 884 353 1747 
Q 534 2675 1009 3097 
Q 1544 3569 2166 3578 
z
" transform="scale(0.015625)"/>
       <path id="DejaVuSans-b0" d="M 1600 4347 
Q 1350 4347 1178 4173 
Q 1006 4000 1006 3750 
Q 1006 3503 1178 3333 
Q 1350 3163 1600 3163 
Q 1850 3163 2022 3333 
Q 2194 3503 2194 3750 
Q 2194 3997 2020 4172 
Q 1847 4347 1600 4347 
z
M 1600 4750 
Q 1800 4750 1984 4673 
Q 2169 4597 2303 4453 
Q 2447 4313 2519 4134 
Q 2591 3956 2591 3750 
Q 2591 3338 2302 3052 
Q 2013 2766 1594 2766 
Q 1172 2766 890 3047 
Q 609 3328 609 3750 
Q 609 4169 896 4459 
Q 1184 4750 1600 4750 
z
" transform="scale(0.015625)"/>
      </defs>
      <use xlink:href="#DejaVuSans-Oblique-3b1" transform="translate(0 0.125)"/>
      <use xlink:href="#DejaVuSans-28" transform="translate(65.917969 0.125)"/>
      <use xlink:href="#DejaVuSans-b0" transform="translate(104.931641 0.125)"/>
      <use xlink:href="#DejaVuSans-29" transform="translate(154.931641 0.125)"/>
     </g>
    </g>
   </g>
   <g id="line2d_18">
    <path d="M 73.832727 199.987984 
L 74.760312 195.593283 
L 75.687896 193.311625 
L 76.615481 192.319242 
L 77.543065 192.150717 
L 78.470649 192.531112 
L 79.398234 193.287221 
L 80.325818 194.301442 
L 82.180987 196.777199 
L 85.891325 201.964931 
L 87.746494 204.069623 
L 89.601662 205.618599 
L 90.529247 206.165693 
L 91.456831 206.561953 
L 92.384416 206.813687 
L 93.312 206.930865 
L 95.167169 206.814846 
L 97.022338 206.335857 
L 99.805091 205.218483 
L 105.370597 202.797028 
L 108.153351 201.871891 
L 110.936104 201.204217 
L 113.718857 200.763056 
L 117.429195 200.433325 
L 122.994701 200.243356 
L 139.691221 200.085023 
L 164.736 199.996155 
L 165.663584 199.995536 
L 166.591169 195.808903 
L 168.446338 210.268512 
L 170.301506 222.56072 
L 172.156675 233.294098 
L 174.011844 242.747011 
L 174.939429 246.759334 
L 175.867013 250.036596 
L 176.794597 252.578321 
L 177.722182 254.405607 
L 178.649766 255.558732 
L 179.577351 256.09298 
L 180.504935 256.073784 
L 181.432519 255.57063 
L 182.360104 254.600438 
L 183.287688 253.158239 
L 184.215273 251.25849 
L 185.142857 248.931234 
L 186.998026 243.169294 
L 188.853195 236.289047 
L 196.27387 206.983156 
L 198.129039 201.270384 
L 199.984208 196.71818 
L 200.911792 194.89409 
L 201.839377 193.365114 
L 202.766961 192.118968 
L 203.694545 191.138842 
L 204.62213 190.404697 
L 205.549714 189.89445 
L 206.477299 189.584966 
L 207.404883 189.452852 
L 208.332468 189.475104 
L 210.187636 189.895037 
L 212.042805 190.682043 
L 214.825558 192.252555 
L 220.391065 195.606106 
L 223.173818 197.00361 
L 225.956571 198.109702 
L 228.739325 198.924143 
L 231.522078 199.481799 
L 234.304831 199.83383 
L 238.015169 200.075655 
L 243.580675 200.163873 
L 289.032312 199.987698 
L 289.959896 203.857475 
L 291.815065 188.539372 
L 293.670234 176.197386 
L 295.525403 166.08714 
L 297.380571 157.486989 
L 298.308156 153.793416 
L 299.23574 150.68871 
L 300.163325 148.30861 
L 301.090909 146.688034 
L 302.018494 145.766147 
L 302.946078 145.440191 
L 303.873662 145.607279 
L 304.801247 146.18096 
L 305.728831 147.093099 
L 306.656416 148.290343 
L 307.584 149.729919 
L 309.439169 153.197062 
L 311.294338 157.250067 
L 314.077091 163.954542 
L 317.787429 172.996276 
L 319.642597 177.158865 
L 321.497766 180.904378 
L 323.352935 184.156582 
L 325.208104 186.889038 
L 327.063273 189.119959 
L 328.918442 190.901147 
L 330.77361 192.304041 
L 332.628779 193.406232 
L 334.483948 194.280914 
L 337.266701 195.298863 
L 340.977039 196.327577 
L 345.614961 197.332266 
L 350.252883 198.130728 
L 355.81839 198.841684 
L 361.383896 199.307656 
L 367.876987 199.620717 
L 377.152831 199.828382 
L 394.776935 199.953533 
L 398.487273 199.96336 
L 398.487273 199.96336 
" clip-path="url(#pa847b4e613)" style="fill: none; stroke: #1f77b4; stroke-width: 1.5; stroke-linecap: square"/>
   </g>
   <g id="line2d_19">
    <path d="M 73.832727 199.987984 
L 74.760312 195.550047 
L 75.687896 193.257162 
L 76.615481 191.644624 
L 77.543065 191.303159 
L 78.470649 191.290358 
L 80.325818 192.019323 
L 81.253403 192.585375 
L 82.180987 193.394357 
L 83.108571 194.537169 
L 84.036156 196.051168 
L 84.96374 197.914708 
L 86.818909 202.386852 
L 89.601662 209.35797 
L 90.529247 211.336266 
L 91.456831 213.008678 
L 92.384416 214.323795 
L 93.312 215.248764 
L 94.239584 215.767391 
L 95.167169 215.878553 
L 96.094753 215.59485 
L 97.022338 214.941503 
L 97.949922 213.954655 
L 98.877506 212.679002 
L 100.732675 209.463709 
L 103.515429 203.750577 
L 106.298182 198.10836 
L 108.153351 194.944814 
L 109.080935 193.643393 
L 110.008519 192.560469 
L 110.936104 191.711641 
L 111.863688 191.106316 
L 112.791273 190.748203 
L 113.718857 190.635565 
L 114.646442 190.761223 
L 115.574026 191.112305 
L 116.50161 191.669814 
L 117.429195 192.408462 
L 119.284364 194.2985 
L 123.922286 199.593649 
L 125.777455 201.21968 
L 127.632623 202.351043 
L 128.560208 202.725417 
L 130.415377 203.114665 
L 132.270545 203.086576 
L 134.125714 202.740998 
L 136.908468 201.881796 
L 140.618805 200.669847 
L 143.401558 200.038014 
L 145.256727 199.80618 
L 148.039481 199.720347 
L 151.749818 199.920441 
L 157.315325 200.263376 
L 161.025662 200.248319 
L 165.663584 199.988913 
L 166.591169 210.007533 
L 168.446338 177.444319 
L 170.301506 147.814302 
L 173.08426 107.92199 
L 175.867013 71.354332 
L 176.794597 60.643673 
L 177.722182 51.711727 
L 178.649766 46.204818 
L 179.577351 46.816957 
L 180.504935 54.570968 
L 181.432519 66.932193 
L 183.287688 97.637761 
L 185.142857 132.72804 
L 188.853195 206.456615 
L 189.780779 214.399603 
L 190.708364 216.40137 
L 191.635948 217.750591 
L 192.563532 216.253656 
L 193.491117 215.099151 
L 194.418701 212.862546 
L 195.346286 212.004547 
L 196.27387 209.27297 
L 197.201455 209.155402 
L 198.129039 205.660057 
L 199.056623 206.900857 
L 199.984208 202.948369 
L 200.911792 205.536771 
L 201.839377 201.89992 
L 202.766961 204.905629 
L 203.694545 202.488513 
L 204.62213 204.963369 
L 205.549714 204.11267 
L 206.477299 205.83334 
L 207.404883 206.152501 
L 208.332468 207.414979 
L 209.260052 208.273854 
L 211.115221 210.311894 
L 212.97039 212.101729 
L 214.825558 213.500785 
L 216.680727 214.471471 
L 218.535896 215.083149 
L 220.391065 215.435821 
L 222.246234 215.600204 
L 225.028987 215.584304 
L 232.449662 215.174971 
L 235.232416 215.345964 
L 238.015169 215.764467 
L 241.725506 216.592908 
L 253.784104 219.55252 
L 261.204779 220.979089 
L 269.553039 222.638554 
L 276.973714 224.137943 
L 279.756468 224.530961 
L 282.539221 224.703686 
L 284.39439 224.640584 
L 286.249558 224.388071 
L 288.104727 223.899675 
L 289.032312 223.550974 
L 289.959896 207.348362 
L 292.742649 252.462145 
L 294.597818 278.319393 
L 295.525403 287.449698 
L 296.452987 290.208799 
L 297.380571 287.105273 
L 298.308156 280.010139 
L 299.23574 270.315984 
L 301.090909 245.879093 
L 302.946078 217.127463 
L 304.801247 187.381727 
L 305.728831 175.006872 
L 306.656416 167.005836 
L 307.584 163.160569 
L 308.511584 161.83328 
L 309.439169 162.047879 
L 310.366753 163.17338 
L 311.294338 164.898127 
L 313.149506 169.262882 
L 318.715013 183.373101 
L 321.497766 189.825939 
L 323.352935 193.709934 
L 325.208104 197.084545 
L 327.063273 199.800177 
L 327.990857 200.874017 
L 328.918442 201.745587 
L 329.846026 202.410108 
L 330.77361 202.866954 
L 331.701195 203.11985 
L 332.628779 203.176736 
L 333.556364 203.049601 
L 334.483948 202.754032 
L 335.411532 202.308551 
L 337.266701 201.051903 
L 339.12187 199.457563 
L 343.759792 195.214605 
L 345.614961 193.890464 
L 347.47013 193.004994 
L 348.397714 192.75616 
L 349.325299 192.644812 
L 350.252883 192.672112 
L 351.180468 192.835149 
L 352.108052 193.126898 
L 353.963221 194.048795 
L 355.81839 195.308332 
L 361.383896 199.412328 
L 363.239065 200.397492 
L 365.094234 201.059152 
L 366.949403 201.39375 
L 368.804571 201.436142 
L 370.65974 201.24801 
L 373.442494 200.703366 
L 378.080416 199.728527 
L 380.863169 199.39741 
L 383.645922 199.331831 
L 387.35626 199.565945 
L 394.776935 200.202683 
L 398.487273 200.253707 
L 398.487273 200.253707 
" clip-path="url(#pa847b4e613)" style="fill: none; stroke: #ff7f0e; stroke-width: 1.5; stroke-linecap: square"/>
   </g>
   <g id="line2d_20">
    <path d="M 73.832727 199.987984 
L 74.760312 197.334895 
L 75.687896 194.305563 
L 77.543065 191.068312 
L 80.325818 187.056002 
L 81.253403 186.407953 
L 82.180987 186.65635 
L 83.108571 187.954793 
L 84.036156 190.279033 
L 84.96374 193.472074 
L 86.818909 201.505857 
L 89.601662 213.999479 
L 90.529247 217.535057 
L 91.456831 220.575741 
L 92.384416 223.066358 
L 93.312 224.971833 
L 94.239584 226.269831 
L 95.167169 226.946971 
L 96.094753 226.997967 
L 97.022338 226.426631 
L 97.949922 225.24805 
L 98.877506 223.491131 
L 99.805091 221.200458 
L 100.732675 218.436842 
L 102.587844 211.806463 
L 108.153351 190.085242 
L 109.080935 187.211352 
L 110.008519 184.767851 
L 110.936104 182.813812 
L 111.863688 181.394898 
L 112.791273 180.541051 
L 113.718857 180.264105 
L 114.646442 180.555861 
L 115.574026 181.386966 
L 116.50161 182.707025 
L 117.429195 184.446056 
L 119.284364 188.823829 
L 122.994701 198.40791 
L 124.84987 202.311452 
L 125.777455 203.873516 
L 126.705039 205.150565 
L 127.632623 206.137046 
L 128.560208 206.836086 
L 129.487792 207.258434 
L 130.415377 207.421578 
L 131.342961 207.348945 
L 132.270545 207.06899 
L 133.19813 206.613885 
L 135.053299 205.318241 
L 140.618805 200.756145 
L 142.473974 199.687641 
L 144.329143 199.015019 
L 146.184312 198.736535 
L 148.039481 198.796356 
L 149.894649 199.102128 
L 157.315325 200.707262 
L 159.170494 200.82937 
L 161.025662 200.789011 
L 163.808416 200.481746 
L 165.663584 200.179023 
L 166.591169 203.912348 
L 169.373922 151.730355 
L 171.229091 120.106325 
L 173.08426 92.013802 
L 174.011844 79.91071 
L 174.939429 69.972561 
L 175.867013 63.505478 
L 176.794597 62.2035 
L 177.722182 66.576773 
L 178.649766 74.809761 
L 180.504935 95.487691 
L 183.287688 129.645551 
L 186.070442 166.591087 
L 189.780779 216.965741 
L 190.708364 225.154018 
L 191.635948 226.301227 
L 192.563532 224.381308 
L 197.201455 206.2047 
L 198.129039 204.266225 
L 199.056623 200.530066 
L 199.984208 200.545261 
L 200.911792 197.20709 
L 201.839377 199.023199 
L 202.766961 196.373367 
L 203.694545 198.900935 
L 204.62213 197.444849 
L 205.549714 199.69083 
L 206.477299 199.557695 
L 207.404883 201.262786 
L 208.332468 202.037035 
L 209.260052 203.430259 
L 212.042805 207.069153 
L 213.897974 209.341998 
L 215.753143 211.258245 
L 217.608312 212.732603 
L 219.463481 213.758443 
L 221.318649 214.381266 
L 223.173818 214.665528 
L 225.028987 214.683659 
L 227.81174 214.402797 
L 231.522078 213.989801 
L 233.377247 213.964045 
L 235.232416 214.111269 
L 238.015169 214.624641 
L 241.725506 215.642036 
L 248.218597 217.474728 
L 251.928935 218.266405 
L 255.639273 218.837967 
L 262.132364 219.537735 
L 268.625455 220.293532 
L 281.611636 222.042795 
L 284.39439 222.150167 
L 287.177143 222.010371 
L 289.032312 221.732067 
L 289.959896 205.059578 
L 292.742649 252.202561 
L 293.670234 266.418904 
L 294.597818 276.52359 
L 295.525403 277.011387 
L 296.452987 275.819363 
L 297.380571 270.774349 
L 298.308156 263.38833 
L 300.163325 244.123401 
L 305.728831 180.388954 
L 306.656416 173.475984 
L 307.584 169.938956 
L 308.511584 169.161525 
L 309.439169 169.977395 
L 310.366753 171.736011 
L 312.221922 176.3946 
L 315.93226 186.043063 
L 322.425351 201.724246 
L 324.280519 205.761046 
L 326.135688 209.218785 
L 327.063273 210.667272 
L 327.990857 211.901616 
L 328.918442 212.905151 
L 329.846026 213.663437 
L 330.77361 214.163992 
L 331.701195 214.39595 
L 332.628779 214.35026 
L 333.556364 214.020309 
L 334.483948 213.403072 
L 335.411532 212.500568 
L 336.339117 211.3215 
L 337.266701 209.882596 
L 339.12187 206.337263 
L 341.904623 199.991576 
L 344.687377 193.740527 
L 346.542545 190.400017 
L 347.47013 189.127068 
L 348.397714 188.16704 
L 349.325299 187.542656 
L 350.252883 187.264429 
L 351.180468 187.33003 
L 352.108052 187.724297 
L 353.035636 188.419979 
L 353.963221 189.379079 
L 355.81839 191.895115 
L 361.383896 200.401614 
L 363.239065 202.411303 
L 364.166649 203.151287 
L 365.094234 203.70586 
L 366.021818 204.076124 
L 366.949403 204.268686 
L 367.876987 204.295019 
L 368.804571 204.170796 
L 370.65974 203.549615 
L 372.514909 202.583563 
L 377.152831 199.878735 
L 379.008 199.077324 
L 380.863169 198.569493 
L 382.718338 198.37271 
L 384.573506 198.458059 
L 386.428675 198.761828 
L 390.139013 199.684598 
L 392.921766 200.3269 
L 395.704519 200.709545 
L 398.487273 200.768498 
L 398.487273 200.768498 
" clip-path="url(#pa847b4e613)" style="fill: none; stroke: #2ca02c; stroke-width: 1.5; stroke-linecap: square"/>
   </g>
   <g id="line2d_21">
    <path d="M 73.832727 199.987984 
L 74.760312 205.671255 
L 76.615481 200.139875 
L 77.543065 198.029964 
L 78.470649 196.431427 
L 80.325818 194.111276 
L 81.253403 193.171449 
L 82.180987 192.430451 
L 83.108571 192.000979 
L 84.036156 191.986997 
L 84.96374 192.450755 
L 85.891325 193.399825 
L 86.818909 194.789633 
L 87.746494 196.535405 
L 89.601662 200.649546 
L 91.456831 204.841854 
L 93.312 208.400682 
L 94.239584 209.800571 
L 95.167169 210.903843 
L 96.094753 211.692697 
L 97.022338 212.158533 
L 97.949922 212.300718 
L 98.877506 212.126322 
L 99.805091 211.650266 
L 100.732675 210.895776 
L 101.66026 209.894199 
L 103.515429 207.311317 
L 109.080935 198.372008 
L 110.936104 196.13475 
L 111.863688 195.285237 
L 112.791273 194.633947 
L 113.718857 194.188174 
L 114.646442 193.949781 
L 115.574026 193.915146 
L 116.50161 194.074878 
L 117.429195 194.413735 
L 118.356779 194.910729 
L 120.211948 196.269543 
L 125.777455 200.936777 
L 127.632623 201.976776 
L 129.487792 202.580585 
L 131.342961 202.750838 
L 133.19813 202.551035 
L 135.053299 202.090779 
L 141.54639 200.198703 
L 143.401558 199.908331 
L 146.184312 199.741319 
L 148.967065 199.813943 
L 160.098078 200.406523 
L 163.808416 200.265304 
L 165.663584 200.141334 
L 166.591169 210.504964 
L 167.518753 215.682408 
L 169.373922 228.222886 
L 174.939429 270.235362 
L 177.722182 298.109874 
L 178.649766 302.851182 
L 179.577351 302.188072 
L 180.504935 296.987761 
L 181.432519 289.15654 
L 185.142857 254.639919 
L 186.998026 240.427193 
L 188.853195 228.889583 
L 189.780779 224.217601 
L 190.708364 220.301231 
L 191.635948 217.09014 
L 192.563532 214.39679 
L 193.491117 212.14681 
L 194.418701 210.189132 
L 196.27387 207.003568 
L 198.129039 204.71849 
L 199.056623 204.05323 
L 199.984208 203.569036 
L 201.839377 203.703076 
L 202.766961 204.211645 
L 204.62213 204.806292 
L 205.549714 204.715526 
L 206.477299 204.488146 
L 208.332468 203.420288 
L 210.187636 202.223067 
L 212.042805 201.265515 
L 213.897974 200.631684 
L 215.753143 200.286979 
L 217.608312 200.182194 
L 219.463481 200.297341 
L 221.318649 200.645836 
L 223.173818 201.239717 
L 225.028987 202.047711 
L 229.666909 204.468933 
L 232.449662 205.828426 
L 235.232416 206.946721 
L 238.015169 207.743313 
L 240.797922 208.20043 
L 243.580675 208.394451 
L 257.494442 208.926565 
L 281.611636 210.915257 
L 287.177143 211.054093 
L 289.032312 211.021293 
L 289.959896 199.610369 
L 291.815065 189.766582 
L 293.670234 179.676856 
L 298.308156 157.218496 
L 300.163325 150.122825 
L 302.018494 144.246308 
L 302.946078 141.842503 
L 303.873662 139.921866 
L 304.801247 138.584134 
L 305.728831 137.893414 
L 306.656416 137.869923 
L 307.584 138.539222 
L 308.511584 139.904247 
L 310.366753 143.31932 
L 312.221922 145.809499 
L 313.149506 147.291983 
L 314.077091 149.057544 
L 315.004675 151.211883 
L 315.93226 153.873865 
L 316.859844 157.143596 
L 317.787429 161.084301 
L 318.715013 165.717329 
L 320.570182 176.910871 
L 323.352935 195.589862 
L 324.280519 200.156059 
L 325.208104 203.070819 
L 326.135688 204.727141 
L 327.063273 205.534666 
L 327.990857 205.74749 
L 328.918442 205.523131 
L 329.846026 204.967513 
L 330.77361 204.158562 
L 332.628779 202.0389 
L 334.483948 199.729076 
L 335.411532 198.722083 
L 336.339117 197.9193 
L 337.266701 197.356145 
L 338.194286 197.02414 
L 339.12187 196.880956 
L 340.977039 196.909917 
L 342.832208 196.943044 
L 344.687377 196.651659 
L 346.542545 195.992237 
L 350.252883 194.459227 
L 351.180468 194.242043 
L 352.108052 194.146104 
L 353.035636 194.183511 
L 353.963221 194.356448 
L 355.81839 195.073053 
L 357.673558 196.157058 
L 362.311481 199.168955 
L 364.166649 200.061452 
L 366.021818 200.646587 
L 367.876987 200.918679 
L 369.732156 200.916803 
L 372.514909 200.557304 
L 379.008 199.442543 
L 381.790753 199.261381 
L 384.573506 199.305062 
L 388.283844 199.597091 
L 394.776935 200.159899 
L 398.487273 200.251711 
L 398.487273 200.251711 
" clip-path="url(#pa847b4e613)" style="fill: none; stroke: #d62728; stroke-width: 1.5; stroke-linecap: square"/>
   </g>
   <g id="line2d_22">
    <path d="M 73.832727 199.987984 
L 398.487273 199.987984 
L 398.487273 199.987984 
" clip-path="url(#pa847b4e613)" style="fill: none; stroke: #9467bd; stroke-width: 1.5; stroke-linecap: square"/>
   </g>
   <g id="patch_3">
    <path d="M 57.6 307.584 
L 57.6 41.472 
" style="fill: none; stroke: #000000; stroke-width: 0.8; stroke-linejoin: miter; stroke-linecap: square"/>
   </g>
   <g id="patch_4">
    <path d="M 414.72 307.584 
L 414.72 41.472 
" style="fill: none; stroke: #000000; stroke-width: 0.8; stroke-linejoin: miter; stroke-linecap: square"/>
   </g>
   <g id="patch_5">
    <path d="M 57.6 307.584 
L 414.72 307.584 
" style="fill: none; stroke: #000000; stroke-width: 0.8; stroke-linejoin: miter; stroke-linecap: square"/>
   </g>
   <g id="patch_6">
    <path d="M 57.6 41.472 
L 414.72 41.472 
" style="fill: none; stroke: #000000; stroke-width: 0.8; stroke-linejoin: miter; stroke-linecap: square"/>
   </g>
   <g id="legend_1">
    <g id="patch_7">
     <path d="M 291.245 122.862625 
L 407.72 122.862625 
Q 409.72 122.862625 409.72 120.862625 
L 409.72 48.472 
Q 409.72 46.472 407.72 46.472 
L 291.245 46.472 
Q 289.245 46.472 289.245 48.472 
L 289.245 120.862625 
Q 289.245 122.862625 291.245 122.862625 
z
" style="fill: #ffffff; opacity: 0.8; stroke: #cccccc; stroke-linejoin: miter"/>
    </g>
    <g id="line2d_23">
     <path d="M 293.245 54.570438 
L 303.245 54.570438 
L 313.245 54.570438 
" style="fill: none; stroke: #1f77b4; stroke-width: 1.5; stroke-linecap: square"/>
    </g>
    <g id="text_20">
     <!-- $M_1$ -->
     <g transform="translate(321.245 58.070438)scale(0.1 -0.1)">
      <defs>
       <path id="DejaVuSans-Oblique-4d" d="M 1081 4666 
L 2028 4666 
L 2572 1522 
L 4378 4666 
L 5350 4666 
L 4441 0 
L 3828 0 
L 4622 4091 
L 2791 897 
L 2175 897 
L 1581 4103 
L 788 0 
L 172 0 
L 1081 4666 
z
" transform="scale(0.015625)"/>
      </defs>
      <use xlink:href="#DejaVuSans-Oblique-4d" transform="translate(0 0.09375)"/>
      <use xlink:href="#DejaVuSans-31" transform="translate(86.279297 -16.3125)scale(0.7)"/>
     </g>
    </g>
    <g id="line2d_24">
     <path d="M 293.245 69.248563 
L 303.245 69.248563 
L 313.245 69.248563 
" style="fill: none; stroke: #ff7f0e; stroke-width: 1.5; stroke-linecap: square"/>
    </g>
    <g id="text_21">
     <!-- $M_2$ -->
     <g transform="translate(321.245 72.748563)scale(0.1 -0.1)">
      <use xlink:href="#DejaVuSans-Oblique-4d" transform="translate(0 0.09375)"/>
      <use xlink:href="#DejaVuSans-32" transform="translate(86.279297 -16.3125)scale(0.7)"/>
     </g>
    </g>
    <g id="line2d_25">
     <path d="M 293.245 83.926688 
L 303.245 83.926688 
L 313.245 83.926688 
" style="fill: none; stroke: #2ca02c; stroke-width: 1.5; stroke-linecap: square"/>
    </g>
    <g id="text_22">
     <!-- $M_3$ -->
     <g transform="translate(321.245 87.426688)scale(0.1 -0.1)">
      <use xlink:href="#DejaVuSans-Oblique-4d" transform="translate(0 0.09375)"/>
      <use xlink:href="#DejaVuSans-33" transform="translate(86.279297 -16.3125)scale(0.7)"/>
     </g>
    </g>
    <g id="line2d_26">
     <path d="M 293.245 98.604813 
L 303.245 98.604813 
L 313.245 98.604813 
" style="fill: none; stroke: #d62728; stroke-width: 1.5; stroke-linecap: square"/>
    </g>
    <g id="text_23">
     <!-- $M_4$ -->
     <g transform="translate(321.245 102.104813)scale(0.1 -0.1)">
      <use xlink:href="#DejaVuSans-Oblique-4d" transform="translate(0 0.09375)"/>
      <use xlink:href="#DejaVuSans-34" transform="translate(86.279297 -16.3125)scale(0.7)"/>
     </g>
    </g>
    <g id="line2d_27">
     <path d="M 293.245 113.282938 
L 303.245 113.282938 
L 313.245 113.282938 
" style="fill: none; stroke: #9467bd; stroke-width: 1.5; stroke-linecap: square"/>
    </g>
    <g id="text_24">
     <!-- Reference Target -->
     <g transform="translate(321.245 116.782938)scale(0.1 -0.1)">
      <defs>
       <path id="DejaVuSans-52" d="M 2841 2188 
Q 3044 2119 3236 1894 
Q 3428 1669 3622 1275 
L 4263 0 
L 3584 0 
L 2988 1197 
Q 2756 1666 2539 1819 
Q 2322 1972 1947 1972 
L 1259 1972 
L 1259 0 
L 628 0 
L 628 4666 
L 2053 4666 
Q 2853 4666 3247 4331 
Q 3641 3997 3641 3322 
Q 3641 2881 3436 2590 
Q 3231 2300 2841 2188 
z
M 1259 4147 
L 1259 2491 
L 2053 2491 
Q 2509 2491 2742 2702 
Q 2975 2913 2975 3322 
Q 2975 3731 2742 3939 
Q 2509 4147 2053 4147 
L 1259 4147 
z
" transform="scale(0.015625)"/>
       <path id="DejaVuSans-66" d="M 2375 4863 
L 2375 4384 
L 1825 4384 
Q 1516 4384 1395 4259 
Q 1275 4134 1275 3809 
L 1275 3500 
L 2222 3500 
L 2222 3053 
L 1275 3053 
L 1275 0 
L 697 0 
L 697 3053 
L 147 3053 
L 147 3500 
L 697 3500 
L 697 3744 
Q 697 4328 969 4595 
Q 1241 4863 1831 4863 
L 2375 4863 
z
" transform="scale(0.015625)"/>
       <path id="DejaVuSans-72" d="M 2631 2963 
Q 2534 3019 2420 3045 
Q 2306 3072 2169 3072 
Q 1681 3072 1420 2755 
Q 1159 2438 1159 1844 
L 1159 0 
L 581 0 
L 581 3500 
L 1159 3500 
L 1159 2956 
Q 1341 3275 1631 3429 
Q 1922 3584 2338 3584 
Q 2397 3584 2469 3576 
Q 2541 3569 2628 3553 
L 2631 2963 
z
" transform="scale(0.015625)"/>
       <path id="DejaVuSans-6e" d="M 3513 2113 
L 3513 0 
L 2938 0 
L 2938 2094 
Q 2938 2591 2744 2837 
Q 2550 3084 2163 3084 
Q 1697 3084 1428 2787 
Q 1159 2491 1159 1978 
L 1159 0 
L 581 0 
L 581 3500 
L 1159 3500 
L 1159 2956 
Q 1366 3272 1645 3428 
Q 1925 3584 2291 3584 
Q 2894 3584 3203 3211 
Q 3513 2838 3513 2113 
z
" transform="scale(0.015625)"/>
       <path id="DejaVuSans-63" d="M 3122 3366 
L 3122 2828 
Q 2878 2963 2633 3030 
Q 2388 3097 2138 3097 
Q 1578 3097 1268 2742 
Q 959 2388 959 1747 
Q 959 1106 1268 751 
Q 1578 397 2138 397 
Q 2388 397 2633 464 
Q 2878 531 3122 666 
L 3122 134 
Q 2881 22 2623 -34 
Q 2366 -91 2075 -91 
Q 1284 -91 818 406 
Q 353 903 353 1747 
Q 353 2603 823 3093 
Q 1294 3584 2113 3584 
Q 2378 3584 2631 3529 
Q 2884 3475 3122 3366 
z
" transform="scale(0.015625)"/>
       <path id="DejaVuSans-20" transform="scale(0.015625)"/>
       <path id="DejaVuSans-54" d="M -19 4666 
L 3928 4666 
L 3928 4134 
L 2272 4134 
L 2272 0 
L 1638 0 
L 1638 4134 
L -19 4134 
L -19 4666 
z
" transform="scale(0.015625)"/>
       <path id="DejaVuSans-61" d="M 2194 1759 
Q 1497 1759 1228 1600 
Q 959 1441 959 1056 
Q 959 750 1161 570 
Q 1363 391 1709 391 
Q 2188 391 2477 730 
Q 2766 1069 2766 1631 
L 2766 1759 
L 2194 1759 
z
M 3341 1997 
L 3341 0 
L 2766 0 
L 2766 531 
Q 2569 213 2275 61 
Q 1981 -91 1556 -91 
Q 1019 -91 701 211 
Q 384 513 384 1019 
Q 384 1609 779 1909 
Q 1175 2209 1959 2209 
L 2766 2209 
L 2766 2266 
Q 2766 2663 2505 2880 
Q 2244 3097 1772 3097 
Q 1472 3097 1187 3025 
Q 903 2953 641 2809 
L 641 3341 
Q 956 3463 1253 3523 
Q 1550 3584 1831 3584 
Q 2591 3584 2966 3190 
Q 3341 2797 3341 1997 
z
" transform="scale(0.015625)"/>
       <path id="DejaVuSans-67" d="M 2906 1791 
Q 2906 2416 2648 2759 
Q 2391 3103 1925 3103 
Q 1463 3103 1205 2759 
Q 947 2416 947 1791 
Q 947 1169 1205 825 
Q 1463 481 1925 481 
Q 2391 481 2648 825 
Q 2906 1169 2906 1791 
z
M 3481 434 
Q 3481 -459 3084 -895 
Q 2688 -1331 1869 -1331 
Q 1566 -1331 1297 -1286 
Q 1028 -1241 775 -1147 
L 775 -588 
Q 1028 -725 1275 -790 
Q 1522 -856 1778 -856 
Q 2344 -856 2625 -561 
Q 2906 -266 2906 331 
L 2906 616 
Q 2728 306 2450 153 
Q 2172 0 1784 0 
Q 1141 0 747 490 
Q 353 981 353 1791 
Q 353 2603 747 3093 
Q 1141 3584 1784 3584 
Q 2172 3584 2450 3431 
Q 2728 3278 2906 2969 
L 2906 3500 
L 3481 3500 
L 3481 434 
z
" transform="scale(0.015625)"/>
      </defs>
      <use xlink:href="#DejaVuSans-52"/>
      <use xlink:href="#DejaVuSans-65" x="64.982422"/>
      <use xlink:href="#DejaVuSans-66" x="126.505859"/>
      <use xlink:href="#DejaVuSans-65" x="161.710938"/>
      <use xlink:href="#DejaVuSans-72" x="223.234375"/>
      <use xlink:href="#DejaVuSans-65" x="262.097656"/>
      <use xlink:href="#DejaVuSans-6e" x="323.621094"/>
      <use xlink:href="#DejaVuSans-63" x="387"/>
      <use xlink:href="#DejaVuSans-65" x="441.980469"/>
      <use xlink:href="#DejaVuSans-20" x="503.503906"/>
      <use xlink:href="#DejaVuSans-54" x="535.291016"/>
      <use xlink:href="#DejaVuSans-61" x="579.875"/>
      <use xlink:href="#DejaVuSans-72" x="641.154297"/>
      <use xlink:href="#DejaVuSans-67" x="680.517578"/>
      <use xlink:href="#DejaVuSans-65" x="743.994141"/>
      <use xlink:href="#DejaVuSans-74" x="805.517578"/>
     </g>
    </g>
   </g>
  </g>
 </g>
 <defs>
  <clipPath id="pa847b4e613">
   <rect x="57.6" y="41.472" width="357.12" height="266.112"/>
  </clipPath>
 </defs>
</svg>
