<?xml version="1.0" encoding="utf-8" standalone="no"?>
<!DOCTYPE svg PUBLIC "-//W3C//DTD SVG 1.1//EN"
  "http://www.w3.org/Graphics/SVG/1.1/DTD/svg11.dtd">
<svg xmlns:xlink="http://www.w3.org/1999/xlink" width="460.8pt" height="345.6pt" viewBox="0 0 460.8 345.6" xmlns="http://www.w3.org/2000/svg" version="1.1">
 <metadata>
  <rdf:RDF xmlns:dc="http://purl.org/dc/elements/1.1/" xmlns:cc="http://creativecommons.org/ns#" xmlns:rdf="http://www.w3.org/1999/02/22-rdf-syntax-ns#">
   <cc:Work>
    <dc:type rdf:resource="http://purl.org/dc/dcmitype/StillImage"/>
    <dc:date>2022-08-09T16:17:28.005141</dc:date>
    <dc:format>image/svg+xml</dc:format>
    <dc:creator>
     <cc:Agent>
      <dc:title>Matplotlib v3.5.2, https://matplotlib.org/</dc:title>
     </cc:Agent>
    </dc:creator>
   </cc:Work>
  </rdf:RDF>
 </metadata>
 <defs>
  <style type="text/css">*{stroke-linejoin: round; stroke-linecap: butt}</style>
 </defs>
 <g id="figure_1">
  <g id="patch_1">
   <path d="M 0 345.6 
L 460.8 345.6 
L 460.8 0 
L 0 0 
z
" style="fill: #ffffff"/>
  </g>
  <g id="axes_1">
   <g id="patch_2">
    <path d="M 57.6 307.584 
L 414.72 307.584 
L 414.72 41.472 
L 57.6 41.472 
z
" style="fill: #ffffff"/>
   </g>
   <g id="matplotlib.axis_1">
    <g id="xtick_1">
     <g id="line2d_1">
      <defs>
       <path id="m7078d4c9dd" d="M 0 0 
L 0 3.5 
" style="stroke: #000000; stroke-width: 0.8"/>
      </defs>
      <g>
       <use xlink:href="#m7078d4c9dd" x="73.832727" y="307.584" style="stroke: #000000; stroke-width: 0.8"/>
      </g>
     </g>
     <g id="text_1">
      <!-- 0.0 -->
      <g transform="translate(65.881165 322.182437)scale(0.1 -0.1)">
       <defs>
        <path id="DejaVuSans-30" d="M 2034 4250 
Q 1547 4250 1301 3770 
Q 1056 3291 1056 2328 
Q 1056 1369 1301 889 
Q 1547 409 2034 409 
Q 2525 409 2770 889 
Q 3016 1369 3016 2328 
Q 3016 3291 2770 3770 
Q 2525 4250 2034 4250 
z
M 2034 4750 
Q 2819 4750 3233 4129 
Q 3647 3509 3647 2328 
Q 3647 1150 3233 529 
Q 2819 -91 2034 -91 
Q 1250 -91 836 529 
Q 422 1150 422 2328 
Q 422 3509 836 4129 
Q 1250 4750 2034 4750 
z
" transform="scale(0.015625)"/>
        <path id="DejaVuSans-2e" d="M 684 794 
L 1344 794 
L 1344 0 
L 684 0 
L 684 794 
z
" transform="scale(0.015625)"/>
       </defs>
       <use xlink:href="#DejaVuSans-30"/>
       <use xlink:href="#DejaVuSans-2e" x="63.623047"/>
       <use xlink:href="#DejaVuSans-30" x="95.410156"/>
      </g>
     </g>
    </g>
    <g id="xtick_2">
     <g id="line2d_2">
      <g>
       <use xlink:href="#m7078d4c9dd" x="101.66026" y="307.584" style="stroke: #000000; stroke-width: 0.8"/>
      </g>
     </g>
     <g id="text_2">
      <!-- 3.0 -->
      <g transform="translate(93.708697 322.182437)scale(0.1 -0.1)">
       <defs>
        <path id="DejaVuSans-33" d="M 2597 2516 
Q 3050 2419 3304 2112 
Q 3559 1806 3559 1356 
Q 3559 666 3084 287 
Q 2609 -91 1734 -91 
Q 1441 -91 1130 -33 
Q 819 25 488 141 
L 488 750 
Q 750 597 1062 519 
Q 1375 441 1716 441 
Q 2309 441 2620 675 
Q 2931 909 2931 1356 
Q 2931 1769 2642 2001 
Q 2353 2234 1838 2234 
L 1294 2234 
L 1294 2753 
L 1863 2753 
Q 2328 2753 2575 2939 
Q 2822 3125 2822 3475 
Q 2822 3834 2567 4026 
Q 2313 4219 1838 4219 
Q 1578 4219 1281 4162 
Q 984 4106 628 3988 
L 628 4550 
Q 988 4650 1302 4700 
Q 1616 4750 1894 4750 
Q 2613 4750 3031 4423 
Q 3450 4097 3450 3541 
Q 3450 3153 3228 2886 
Q 3006 2619 2597 2516 
z
" transform="scale(0.015625)"/>
       </defs>
       <use xlink:href="#DejaVuSans-33"/>
       <use xlink:href="#DejaVuSans-2e" x="63.623047"/>
       <use xlink:href="#DejaVuSans-30" x="95.410156"/>
      </g>
     </g>
    </g>
    <g id="xtick_3">
     <g id="line2d_3">
      <g>
       <use xlink:href="#m7078d4c9dd" x="129.487792" y="307.584" style="stroke: #000000; stroke-width: 0.8"/>
      </g>
     </g>
     <g id="text_3">
      <!-- 6.0 -->
      <g transform="translate(121.53623 322.182437)scale(0.1 -0.1)">
       <defs>
        <path id="DejaVuSans-36" d="M 2113 2584 
Q 1688 2584 1439 2293 
Q 1191 2003 1191 1497 
Q 1191 994 1439 701 
Q 1688 409 2113 409 
Q 2538 409 2786 701 
Q 3034 994 3034 1497 
Q 3034 2003 2786 2293 
Q 2538 2584 2113 2584 
z
M 3366 4563 
L 3366 3988 
Q 3128 4100 2886 4159 
Q 2644 4219 2406 4219 
Q 1781 4219 1451 3797 
Q 1122 3375 1075 2522 
Q 1259 2794 1537 2939 
Q 1816 3084 2150 3084 
Q 2853 3084 3261 2657 
Q 3669 2231 3669 1497 
Q 3669 778 3244 343 
Q 2819 -91 2113 -91 
Q 1303 -91 875 529 
Q 447 1150 447 2328 
Q 447 3434 972 4092 
Q 1497 4750 2381 4750 
Q 2619 4750 2861 4703 
Q 3103 4656 3366 4563 
z
" transform="scale(0.015625)"/>
       </defs>
       <use xlink:href="#DejaVuSans-36"/>
       <use xlink:href="#DejaVuSans-2e" x="63.623047"/>
       <use xlink:href="#DejaVuSans-30" x="95.410156"/>
      </g>
     </g>
    </g>
    <g id="xtick_4">
     <g id="line2d_4">
      <g>
       <use xlink:href="#m7078d4c9dd" x="157.315325" y="307.584" style="stroke: #000000; stroke-width: 0.8"/>
      </g>
     </g>
     <g id="text_4">
      <!-- 9.0 -->
      <g transform="translate(149.363762 322.182437)scale(0.1 -0.1)">
       <defs>
        <path id="DejaVuSans-39" d="M 703 97 
L 703 672 
Q 941 559 1184 500 
Q 1428 441 1663 441 
Q 2288 441 2617 861 
Q 2947 1281 2994 2138 
Q 2813 1869 2534 1725 
Q 2256 1581 1919 1581 
Q 1219 1581 811 2004 
Q 403 2428 403 3163 
Q 403 3881 828 4315 
Q 1253 4750 1959 4750 
Q 2769 4750 3195 4129 
Q 3622 3509 3622 2328 
Q 3622 1225 3098 567 
Q 2575 -91 1691 -91 
Q 1453 -91 1209 -44 
Q 966 3 703 97 
z
M 1959 2075 
Q 2384 2075 2632 2365 
Q 2881 2656 2881 3163 
Q 2881 3666 2632 3958 
Q 2384 4250 1959 4250 
Q 1534 4250 1286 3958 
Q 1038 3666 1038 3163 
Q 1038 2656 1286 2365 
Q 1534 2075 1959 2075 
z
" transform="scale(0.015625)"/>
       </defs>
       <use xlink:href="#DejaVuSans-39"/>
       <use xlink:href="#DejaVuSans-2e" x="63.623047"/>
       <use xlink:href="#DejaVuSans-30" x="95.410156"/>
      </g>
     </g>
    </g>
    <g id="xtick_5">
     <g id="line2d_5">
      <g>
       <use xlink:href="#m7078d4c9dd" x="185.142857" y="307.584" style="stroke: #000000; stroke-width: 0.8"/>
      </g>
     </g>
     <g id="text_5">
      <!-- 12.0 -->
      <g transform="translate(174.010045 322.182437)scale(0.1 -0.1)">
       <defs>
        <path id="DejaVuSans-31" d="M 794 531 
L 1825 531 
L 1825 4091 
L 703 3866 
L 703 4441 
L 1819 4666 
L 2450 4666 
L 2450 531 
L 3481 531 
L 3481 0 
L 794 0 
L 794 531 
z
" transform="scale(0.015625)"/>
        <path id="DejaVuSans-32" d="M 1228 531 
L 3431 531 
L 3431 0 
L 469 0 
L 469 531 
Q 828 903 1448 1529 
Q 2069 2156 2228 2338 
Q 2531 2678 2651 2914 
Q 2772 3150 2772 3378 
Q 2772 3750 2511 3984 
Q 2250 4219 1831 4219 
Q 1534 4219 1204 4116 
Q 875 4013 500 3803 
L 500 4441 
Q 881 4594 1212 4672 
Q 1544 4750 1819 4750 
Q 2544 4750 2975 4387 
Q 3406 4025 3406 3419 
Q 3406 3131 3298 2873 
Q 3191 2616 2906 2266 
Q 2828 2175 2409 1742 
Q 1991 1309 1228 531 
z
" transform="scale(0.015625)"/>
       </defs>
       <use xlink:href="#DejaVuSans-31"/>
       <use xlink:href="#DejaVuSans-32" x="63.623047"/>
       <use xlink:href="#DejaVuSans-2e" x="127.246094"/>
       <use xlink:href="#DejaVuSans-30" x="159.033203"/>
      </g>
     </g>
    </g>
    <g id="xtick_6">
     <g id="line2d_6">
      <g>
       <use xlink:href="#m7078d4c9dd" x="212.97039" y="307.584" style="stroke: #000000; stroke-width: 0.8"/>
      </g>
     </g>
     <g id="text_6">
      <!-- 15.0 -->
      <g transform="translate(201.837577 322.182437)scale(0.1 -0.1)">
       <defs>
        <path id="DejaVuSans-35" d="M 691 4666 
L 3169 4666 
L 3169 4134 
L 1269 4134 
L 1269 2991 
Q 1406 3038 1543 3061 
Q 1681 3084 1819 3084 
Q 2600 3084 3056 2656 
Q 3513 2228 3513 1497 
Q 3513 744 3044 326 
Q 2575 -91 1722 -91 
Q 1428 -91 1123 -41 
Q 819 9 494 109 
L 494 744 
Q 775 591 1075 516 
Q 1375 441 1709 441 
Q 2250 441 2565 725 
Q 2881 1009 2881 1497 
Q 2881 1984 2565 2268 
Q 2250 2553 1709 2553 
Q 1456 2553 1204 2497 
Q 953 2441 691 2322 
L 691 4666 
z
" transform="scale(0.015625)"/>
       </defs>
       <use xlink:href="#DejaVuSans-31"/>
       <use xlink:href="#DejaVuSans-35" x="63.623047"/>
       <use xlink:href="#DejaVuSans-2e" x="127.246094"/>
       <use xlink:href="#DejaVuSans-30" x="159.033203"/>
      </g>
     </g>
    </g>
    <g id="xtick_7">
     <g id="line2d_7">
      <g>
       <use xlink:href="#m7078d4c9dd" x="240.797922" y="307.584" style="stroke: #000000; stroke-width: 0.8"/>
      </g>
     </g>
     <g id="text_7">
      <!-- 18.0 -->
      <g transform="translate(229.66511 322.182437)scale(0.1 -0.1)">
       <defs>
        <path id="DejaVuSans-38" d="M 2034 2216 
Q 1584 2216 1326 1975 
Q 1069 1734 1069 1313 
Q 1069 891 1326 650 
Q 1584 409 2034 409 
Q 2484 409 2743 651 
Q 3003 894 3003 1313 
Q 3003 1734 2745 1975 
Q 2488 2216 2034 2216 
z
M 1403 2484 
Q 997 2584 770 2862 
Q 544 3141 544 3541 
Q 544 4100 942 4425 
Q 1341 4750 2034 4750 
Q 2731 4750 3128 4425 
Q 3525 4100 3525 3541 
Q 3525 3141 3298 2862 
Q 3072 2584 2669 2484 
Q 3125 2378 3379 2068 
Q 3634 1759 3634 1313 
Q 3634 634 3220 271 
Q 2806 -91 2034 -91 
Q 1263 -91 848 271 
Q 434 634 434 1313 
Q 434 1759 690 2068 
Q 947 2378 1403 2484 
z
M 1172 3481 
Q 1172 3119 1398 2916 
Q 1625 2713 2034 2713 
Q 2441 2713 2670 2916 
Q 2900 3119 2900 3481 
Q 2900 3844 2670 4047 
Q 2441 4250 2034 4250 
Q 1625 4250 1398 4047 
Q 1172 3844 1172 3481 
z
" transform="scale(0.015625)"/>
       </defs>
       <use xlink:href="#DejaVuSans-31"/>
       <use xlink:href="#DejaVuSans-38" x="63.623047"/>
       <use xlink:href="#DejaVuSans-2e" x="127.246094"/>
       <use xlink:href="#DejaVuSans-30" x="159.033203"/>
      </g>
     </g>
    </g>
    <g id="xtick_8">
     <g id="line2d_8">
      <g>
       <use xlink:href="#m7078d4c9dd" x="268.625455" y="307.584" style="stroke: #000000; stroke-width: 0.8"/>
      </g>
     </g>
     <g id="text_8">
      <!-- 21.0 -->
      <g transform="translate(257.492642 322.182437)scale(0.1 -0.1)">
       <use xlink:href="#DejaVuSans-32"/>
       <use xlink:href="#DejaVuSans-31" x="63.623047"/>
       <use xlink:href="#DejaVuSans-2e" x="127.246094"/>
       <use xlink:href="#DejaVuSans-30" x="159.033203"/>
      </g>
     </g>
    </g>
    <g id="xtick_9">
     <g id="line2d_9">
      <g>
       <use xlink:href="#m7078d4c9dd" x="296.452987" y="307.584" style="stroke: #000000; stroke-width: 0.8"/>
      </g>
     </g>
     <g id="text_9">
      <!-- 24.0 -->
      <g transform="translate(285.320175 322.182437)scale(0.1 -0.1)">
       <defs>
        <path id="DejaVuSans-34" d="M 2419 4116 
L 825 1625 
L 2419 1625 
L 2419 4116 
z
M 2253 4666 
L 3047 4666 
L 3047 1625 
L 3713 1625 
L 3713 1100 
L 3047 1100 
L 3047 0 
L 2419 0 
L 2419 1100 
L 313 1100 
L 313 1709 
L 2253 4666 
z
" transform="scale(0.015625)"/>
       </defs>
       <use xlink:href="#DejaVuSans-32"/>
       <use xlink:href="#DejaVuSans-34" x="63.623047"/>
       <use xlink:href="#DejaVuSans-2e" x="127.246094"/>
       <use xlink:href="#DejaVuSans-30" x="159.033203"/>
      </g>
     </g>
    </g>
    <g id="xtick_10">
     <g id="line2d_10">
      <g>
       <use xlink:href="#m7078d4c9dd" x="324.280519" y="307.584" style="stroke: #000000; stroke-width: 0.8"/>
      </g>
     </g>
     <g id="text_10">
      <!-- 27.0 -->
      <g transform="translate(313.147707 322.182437)scale(0.1 -0.1)">
       <defs>
        <path id="DejaVuSans-37" d="M 525 4666 
L 3525 4666 
L 3525 4397 
L 1831 0 
L 1172 0 
L 2766 4134 
L 525 4134 
L 525 4666 
z
" transform="scale(0.015625)"/>
       </defs>
       <use xlink:href="#DejaVuSans-32"/>
       <use xlink:href="#DejaVuSans-37" x="63.623047"/>
       <use xlink:href="#DejaVuSans-2e" x="127.246094"/>
       <use xlink:href="#DejaVuSans-30" x="159.033203"/>
      </g>
     </g>
    </g>
    <g id="xtick_11">
     <g id="line2d_11">
      <g>
       <use xlink:href="#m7078d4c9dd" x="352.108052" y="307.584" style="stroke: #000000; stroke-width: 0.8"/>
      </g>
     </g>
     <g id="text_11">
      <!-- 30.0 -->
      <g transform="translate(340.975239 322.182437)scale(0.1 -0.1)">
       <use xlink:href="#DejaVuSans-33"/>
       <use xlink:href="#DejaVuSans-30" x="63.623047"/>
       <use xlink:href="#DejaVuSans-2e" x="127.246094"/>
       <use xlink:href="#DejaVuSans-30" x="159.033203"/>
      </g>
     </g>
    </g>
    <g id="xtick_12">
     <g id="line2d_12">
      <g>
       <use xlink:href="#m7078d4c9dd" x="379.935584" y="307.584" style="stroke: #000000; stroke-width: 0.8"/>
      </g>
     </g>
     <g id="text_12">
      <!-- 33.0 -->
      <g transform="translate(368.802772 322.182437)scale(0.1 -0.1)">
       <use xlink:href="#DejaVuSans-33"/>
       <use xlink:href="#DejaVuSans-33" x="63.623047"/>
       <use xlink:href="#DejaVuSans-2e" x="127.246094"/>
       <use xlink:href="#DejaVuSans-30" x="159.033203"/>
      </g>
     </g>
    </g>
    <g id="text_13">
     <!-- time(s) -->
     <g transform="translate(218.357656 335.860562)scale(0.1 -0.1)">
      <defs>
       <path id="DejaVuSans-74" d="M 1172 4494 
L 1172 3500 
L 2356 3500 
L 2356 3053 
L 1172 3053 
L 1172 1153 
Q 1172 725 1289 603 
Q 1406 481 1766 481 
L 2356 481 
L 2356 0 
L 1766 0 
Q 1100 0 847 248 
Q 594 497 594 1153 
L 594 3053 
L 172 3053 
L 172 3500 
L 594 3500 
L 594 4494 
L 1172 4494 
z
" transform="scale(0.015625)"/>
       <path id="DejaVuSans-69" d="M 603 3500 
L 1178 3500 
L 1178 0 
L 603 0 
L 603 3500 
z
M 603 4863 
L 1178 4863 
L 1178 4134 
L 603 4134 
L 603 4863 
z
" transform="scale(0.015625)"/>
       <path id="DejaVuSans-6d" d="M 3328 2828 
Q 3544 3216 3844 3400 
Q 4144 3584 4550 3584 
Q 5097 3584 5394 3201 
Q 5691 2819 5691 2113 
L 5691 0 
L 5113 0 
L 5113 2094 
Q 5113 2597 4934 2840 
Q 4756 3084 4391 3084 
Q 3944 3084 3684 2787 
Q 3425 2491 3425 1978 
L 3425 0 
L 2847 0 
L 2847 2094 
Q 2847 2600 2669 2842 
Q 2491 3084 2119 3084 
Q 1678 3084 1418 2786 
Q 1159 2488 1159 1978 
L 1159 0 
L 581 0 
L 581 3500 
L 1159 3500 
L 1159 2956 
Q 1356 3278 1631 3431 
Q 1906 3584 2284 3584 
Q 2666 3584 2933 3390 
Q 3200 3197 3328 2828 
z
" transform="scale(0.015625)"/>
       <path id="DejaVuSans-65" d="M 3597 1894 
L 3597 1613 
L 953 1613 
Q 991 1019 1311 708 
Q 1631 397 2203 397 
Q 2534 397 2845 478 
Q 3156 559 3463 722 
L 3463 178 
Q 3153 47 2828 -22 
Q 2503 -91 2169 -91 
Q 1331 -91 842 396 
Q 353 884 353 1716 
Q 353 2575 817 3079 
Q 1281 3584 2069 3584 
Q 2775 3584 3186 3129 
Q 3597 2675 3597 1894 
z
M 3022 2063 
Q 3016 2534 2758 2815 
Q 2500 3097 2075 3097 
Q 1594 3097 1305 2825 
Q 1016 2553 972 2059 
L 3022 2063 
z
" transform="scale(0.015625)"/>
       <path id="DejaVuSans-28" d="M 1984 4856 
Q 1566 4138 1362 3434 
Q 1159 2731 1159 2009 
Q 1159 1288 1364 580 
Q 1569 -128 1984 -844 
L 1484 -844 
Q 1016 -109 783 600 
Q 550 1309 550 2009 
Q 550 2706 781 3412 
Q 1013 4119 1484 4856 
L 1984 4856 
z
" transform="scale(0.015625)"/>
       <path id="DejaVuSans-73" d="M 2834 3397 
L 2834 2853 
Q 2591 2978 2328 3040 
Q 2066 3103 1784 3103 
Q 1356 3103 1142 2972 
Q 928 2841 928 2578 
Q 928 2378 1081 2264 
Q 1234 2150 1697 2047 
L 1894 2003 
Q 2506 1872 2764 1633 
Q 3022 1394 3022 966 
Q 3022 478 2636 193 
Q 2250 -91 1575 -91 
Q 1294 -91 989 -36 
Q 684 19 347 128 
L 347 722 
Q 666 556 975 473 
Q 1284 391 1588 391 
Q 1994 391 2212 530 
Q 2431 669 2431 922 
Q 2431 1156 2273 1281 
Q 2116 1406 1581 1522 
L 1381 1569 
Q 847 1681 609 1914 
Q 372 2147 372 2553 
Q 372 3047 722 3315 
Q 1072 3584 1716 3584 
Q 2034 3584 2315 3537 
Q 2597 3491 2834 3397 
z
" transform="scale(0.015625)"/>
       <path id="DejaVuSans-29" d="M 513 4856 
L 1013 4856 
Q 1481 4119 1714 3412 
Q 1947 2706 1947 2009 
Q 1947 1309 1714 600 
Q 1481 -109 1013 -844 
L 513 -844 
Q 928 -128 1133 580 
Q 1338 1288 1338 2009 
Q 1338 2731 1133 3434 
Q 928 4138 513 4856 
z
" transform="scale(0.015625)"/>
      </defs>
      <use xlink:href="#DejaVuSans-74"/>
      <use xlink:href="#DejaVuSans-69" x="39.208984"/>
      <use xlink:href="#DejaVuSans-6d" x="66.992188"/>
      <use xlink:href="#DejaVuSans-65" x="164.404297"/>
      <use xlink:href="#DejaVuSans-28" x="225.927734"/>
      <use xlink:href="#DejaVuSans-73" x="264.941406"/>
      <use xlink:href="#DejaVuSans-29" x="317.041016"/>
     </g>
    </g>
   </g>
   <g id="matplotlib.axis_2">
    <g id="ytick_1">
     <g id="line2d_13">
      <defs>
       <path id="ma932ebcfdd" d="M 0 0 
L -3.5 0 
" style="stroke: #000000; stroke-width: 0.8"/>
      </defs>
      <g>
       <use xlink:href="#ma932ebcfdd" x="57.6" y="295.488" style="stroke: #000000; stroke-width: 0.8"/>
      </g>
     </g>
     <g id="text_14">
      <!-- 0.3 -->
      <g transform="translate(34.696875 299.287219)scale(0.1 -0.1)">
       <use xlink:href="#DejaVuSans-30"/>
       <use xlink:href="#DejaVuSans-2e" x="63.623047"/>
       <use xlink:href="#DejaVuSans-33" x="95.410156"/>
      </g>
     </g>
    </g>
    <g id="ytick_2">
     <g id="line2d_14">
      <g>
       <use xlink:href="#ma932ebcfdd" x="57.6" y="247.104" style="stroke: #000000; stroke-width: 0.8"/>
      </g>
     </g>
     <g id="text_15">
      <!-- 0.4 -->
      <g transform="translate(34.696875 250.903219)scale(0.1 -0.1)">
       <use xlink:href="#DejaVuSans-30"/>
       <use xlink:href="#DejaVuSans-2e" x="63.623047"/>
       <use xlink:href="#DejaVuSans-34" x="95.410156"/>
      </g>
     </g>
    </g>
    <g id="ytick_3">
     <g id="line2d_15">
      <g>
       <use xlink:href="#ma932ebcfdd" x="57.6" y="198.72" style="stroke: #000000; stroke-width: 0.8"/>
      </g>
     </g>
     <g id="text_16">
      <!-- 0.5 -->
      <g transform="translate(34.696875 202.519219)scale(0.1 -0.1)">
       <use xlink:href="#DejaVuSans-30"/>
       <use xlink:href="#DejaVuSans-2e" x="63.623047"/>
       <use xlink:href="#DejaVuSans-35" x="95.410156"/>
      </g>
     </g>
    </g>
    <g id="ytick_4">
     <g id="line2d_16">
      <g>
       <use xlink:href="#ma932ebcfdd" x="57.6" y="150.336" style="stroke: #000000; stroke-width: 0.8"/>
      </g>
     </g>
     <g id="text_17">
      <!-- 0.6 -->
      <g transform="translate(34.696875 154.135219)scale(0.1 -0.1)">
       <use xlink:href="#DejaVuSans-30"/>
       <use xlink:href="#DejaVuSans-2e" x="63.623047"/>
       <use xlink:href="#DejaVuSans-36" x="95.410156"/>
      </g>
     </g>
    </g>
    <g id="ytick_5">
     <g id="line2d_17">
      <g>
       <use xlink:href="#ma932ebcfdd" x="57.6" y="101.952" style="stroke: #000000; stroke-width: 0.8"/>
      </g>
     </g>
     <g id="text_18">
      <!-- 0.7 -->
      <g transform="translate(34.696875 105.751219)scale(0.1 -0.1)">
       <use xlink:href="#DejaVuSans-30"/>
       <use xlink:href="#DejaVuSans-2e" x="63.623047"/>
       <use xlink:href="#DejaVuSans-37" x="95.410156"/>
      </g>
     </g>
    </g>
    <g id="ytick_6">
     <g id="line2d_18">
      <g>
       <use xlink:href="#ma932ebcfdd" x="57.6" y="53.568" style="stroke: #000000; stroke-width: 0.8"/>
      </g>
     </g>
     <g id="text_19">
      <!-- 0.8 -->
      <g transform="translate(34.696875 57.367219)scale(0.1 -0.1)">
       <use xlink:href="#DejaVuSans-30"/>
       <use xlink:href="#DejaVuSans-2e" x="63.623047"/>
       <use xlink:href="#DejaVuSans-38" x="95.410156"/>
      </g>
     </g>
    </g>
    <g id="text_20">
     <!-- $speed (km/s)$ -->
     <g transform="translate(28.596875 205.628)rotate(-90)scale(0.1 -0.1)">
      <defs>
       <path id="DejaVuSans-Oblique-73" d="M 3200 3397 
L 3091 2853 
Q 2863 2978 2609 3040 
Q 2356 3103 2088 3103 
Q 1634 3103 1373 2948 
Q 1113 2794 1113 2528 
Q 1113 2219 1719 2053 
Q 1766 2041 1788 2034 
L 1972 1978 
Q 2547 1819 2739 1644 
Q 2931 1469 2931 1166 
Q 2931 609 2489 259 
Q 2047 -91 1331 -91 
Q 1053 -91 747 -37 
Q 441 16 72 128 
L 184 722 
Q 500 559 806 475 
Q 1113 391 1394 391 
Q 1816 391 2080 572 
Q 2344 753 2344 1031 
Q 2344 1331 1650 1516 
L 1591 1531 
L 1394 1581 
Q 956 1697 753 1886 
Q 550 2075 550 2369 
Q 550 2928 970 3256 
Q 1391 3584 2113 3584 
Q 2397 3584 2667 3537 
Q 2938 3491 3200 3397 
z
" transform="scale(0.015625)"/>
       <path id="DejaVuSans-Oblique-70" d="M 3175 2156 
Q 3175 2616 2975 2859 
Q 2775 3103 2400 3103 
Q 2144 3103 1911 2972 
Q 1678 2841 1497 2591 
Q 1319 2344 1212 1994 
Q 1106 1644 1106 1300 
Q 1106 863 1306 627 
Q 1506 391 1875 391 
Q 2147 391 2380 519 
Q 2613 647 2778 891 
Q 2956 1147 3065 1494 
Q 3175 1841 3175 2156 
z
M 1394 2969 
Q 1625 3272 1939 3428 
Q 2253 3584 2638 3584 
Q 3175 3584 3472 3232 
Q 3769 2881 3769 2247 
Q 3769 1728 3584 1258 
Q 3400 788 3053 416 
Q 2822 169 2531 39 
Q 2241 -91 1919 -91 
Q 1547 -91 1294 64 
Q 1041 219 916 525 
L 556 -1331 
L -19 -1331 
L 922 3500 
L 1497 3500 
L 1394 2969 
z
" transform="scale(0.015625)"/>
       <path id="DejaVuSans-Oblique-65" d="M 3078 2063 
Q 3088 2113 3092 2166 
Q 3097 2219 3097 2272 
Q 3097 2653 2873 2875 
Q 2650 3097 2266 3097 
Q 1838 3097 1509 2826 
Q 1181 2556 1013 2059 
L 3078 2063 
z
M 3578 1613 
L 903 1613 
Q 884 1494 878 1425 
Q 872 1356 872 1306 
Q 872 872 1139 634 
Q 1406 397 1894 397 
Q 2269 397 2603 481 
Q 2938 566 3225 728 
L 3116 159 
Q 2806 34 2476 -28 
Q 2147 -91 1806 -91 
Q 1078 -91 686 257 
Q 294 606 294 1247 
Q 294 1794 489 2264 
Q 684 2734 1063 3103 
Q 1306 3334 1642 3459 
Q 1978 3584 2356 3584 
Q 2950 3584 3301 3228 
Q 3653 2872 3653 2272 
Q 3653 2128 3634 1964 
Q 3616 1800 3578 1613 
z
" transform="scale(0.015625)"/>
       <path id="DejaVuSans-Oblique-64" d="M 2675 525 
Q 2444 222 2128 65 
Q 1813 -91 1428 -91 
Q 903 -91 598 267 
Q 294 625 294 1247 
Q 294 1766 478 2236 
Q 663 2706 1013 3078 
Q 1244 3325 1534 3454 
Q 1825 3584 2144 3584 
Q 2481 3584 2739 3421 
Q 2997 3259 3138 2956 
L 3513 4863 
L 4091 4863 
L 3144 0 
L 2566 0 
L 2675 525 
z
M 891 1350 
Q 891 897 1095 644 
Q 1300 391 1663 391 
Q 1931 391 2161 520 
Q 2391 650 2566 903 
Q 2750 1166 2856 1509 
Q 2963 1853 2963 2188 
Q 2963 2622 2758 2865 
Q 2553 3109 2194 3109 
Q 1922 3109 1687 2981 
Q 1453 2853 1288 2613 
Q 1106 2353 998 2009 
Q 891 1666 891 1350 
z
" transform="scale(0.015625)"/>
       <path id="DejaVuSans-Oblique-6b" d="M 1172 4863 
L 1747 4863 
L 1197 2028 
L 3169 3500 
L 3916 3500 
L 1716 1825 
L 3322 0 
L 2625 0 
L 1131 1709 
L 800 0 
L 225 0 
L 1172 4863 
z
" transform="scale(0.015625)"/>
       <path id="DejaVuSans-Oblique-6d" d="M 5747 2113 
L 5338 0 
L 4763 0 
L 5166 2094 
Q 5191 2228 5203 2325 
Q 5216 2422 5216 2491 
Q 5216 2772 5059 2928 
Q 4903 3084 4622 3084 
Q 4203 3084 3875 2770 
Q 3547 2456 3450 1953 
L 3066 0 
L 2491 0 
L 2900 2094 
Q 2925 2209 2937 2307 
Q 2950 2406 2950 2484 
Q 2950 2769 2794 2926 
Q 2638 3084 2363 3084 
Q 1938 3084 1609 2770 
Q 1281 2456 1184 1953 
L 800 0 
L 225 0 
L 909 3500 
L 1484 3500 
L 1375 2956 
Q 1609 3263 1923 3423 
Q 2238 3584 2597 3584 
Q 2978 3584 3223 3384 
Q 3469 3184 3519 2828 
Q 3781 3197 4126 3390 
Q 4472 3584 4856 3584 
Q 5306 3584 5551 3325 
Q 5797 3066 5797 2591 
Q 5797 2488 5784 2364 
Q 5772 2241 5747 2113 
z
" transform="scale(0.015625)"/>
       <path id="DejaVuSans-2f" d="M 1625 4666 
L 2156 4666 
L 531 -594 
L 0 -594 
L 1625 4666 
z
" transform="scale(0.015625)"/>
      </defs>
      <use xlink:href="#DejaVuSans-Oblique-73" transform="translate(0 0.015625)"/>
      <use xlink:href="#DejaVuSans-Oblique-70" transform="translate(52.099609 0.015625)"/>
      <use xlink:href="#DejaVuSans-Oblique-65" transform="translate(115.576172 0.015625)"/>
      <use xlink:href="#DejaVuSans-Oblique-65" transform="translate(177.099609 0.015625)"/>
      <use xlink:href="#DejaVuSans-Oblique-64" transform="translate(238.623047 0.015625)"/>
      <use xlink:href="#DejaVuSans-28" transform="translate(302.099609 0.015625)"/>
      <use xlink:href="#DejaVuSans-Oblique-6b" transform="translate(341.113281 0.015625)"/>
      <use xlink:href="#DejaVuSans-Oblique-6d" transform="translate(399.023438 0.015625)"/>
      <use xlink:href="#DejaVuSans-2f" transform="translate(496.435547 0.015625)"/>
      <use xlink:href="#DejaVuSans-Oblique-73" transform="translate(530.126953 0.015625)"/>
      <use xlink:href="#DejaVuSans-29" transform="translate(582.226562 0.015625)"/>
     </g>
    </g>
   </g>
   <g id="line2d_19">
    <path d="M 73.832727 235.364073 
L 77.543065 191.26646 
L 79.398234 171.929974 
L 81.253403 155.926161 
L 82.180987 149.454827 
L 83.108571 144.080089 
L 84.036156 139.798635 
L 84.96374 136.561116 
L 85.891325 134.282155 
L 86.818909 132.853179 
L 87.746494 132.154604 
L 88.674078 132.065351 
L 89.601662 132.469291 
L 90.529247 133.259032 
L 91.456831 134.337852 
L 93.312 137.03246 
L 97.022338 142.865527 
L 98.877506 145.377674 
L 100.732675 147.416642 
L 102.587844 148.950523 
L 104.443013 150.010899 
L 106.298182 150.667272 
L 108.153351 151.005892 
L 110.008519 151.11431 
L 112.791273 151.014165 
L 123.922286 150.220703 
L 129.487792 150.166421 
L 165.663584 150.332955 
L 166.591169 153.06787 
L 171.229091 82.394078 
L 173.08426 56.845829 
L 174.011844 53.568 
L 180.504935 53.568 
L 181.432519 54.634376 
L 182.360104 57.265735 
L 183.287688 61.137136 
L 184.215273 65.972152 
L 186.070442 77.651148 
L 188.853195 97.700702 
L 191.635948 117.747326 
L 193.491117 129.748137 
L 195.346286 139.916837 
L 196.27387 144.183546 
L 197.201455 147.871612 
L 198.129039 150.980036 
L 199.056623 153.52572 
L 199.984208 155.540624 
L 200.911792 157.068072 
L 201.839377 158.15885 
L 202.766961 158.867584 
L 203.694545 159.249685 
L 204.62213 159.359038 
L 205.549714 159.246391 
L 206.477299 158.958277 
L 208.332468 158.017728 
L 211.115221 156.174016 
L 213.897974 154.330594 
L 216.680727 152.798721 
L 218.535896 152.006771 
L 220.391065 151.397786 
L 223.173818 150.785545 
L 225.956571 150.454359 
L 229.666909 150.291493 
L 236.16 150.31996 
L 249.146182 150.374581 
L 286.249558 150.335 
L 289.032312 150.33573 
L 289.959896 146.268468 
L 294.597818 216.126414 
L 296.452987 240.203816 
L 297.380571 249.472043 
L 298.308156 255.70537 
L 299.23574 258.415361 
L 300.163325 257.858017 
L 301.090909 254.753607 
L 302.018494 249.851274 
L 302.946078 243.740992 
L 304.801247 229.478192 
L 309.439169 191.964485 
L 311.294338 178.947944 
L 313.149506 168.06811 
L 314.077091 163.541175 
L 315.004675 159.64546 
L 315.93226 156.374283 
L 316.859844 153.703837 
L 317.787429 151.595962 
L 318.715013 150.001585 
L 319.642597 148.864317 
L 320.570182 148.123868 
L 321.497766 147.718977 
L 322.425351 147.589787 
L 323.352935 147.679626 
L 324.280519 147.936292 
L 326.135688 148.768179 
L 330.77361 151.191778 
L 332.628779 151.899596 
L 334.483948 152.372958 
L 336.339117 152.619765 
L 338.194286 152.673209 
L 340.977039 152.490325 
L 345.614961 151.853404 
L 351.180468 151.115855 
L 355.81839 150.732623 
L 361.383896 150.517135 
L 371.587325 150.417906 
L 398.487273 150.344808 
L 398.487273 150.344808 
" clip-path="url(#p567ff51c6d)" style="fill: none; stroke: #1f77b4; stroke-width: 1.5; stroke-linecap: square"/>
   </g>
   <g id="line2d_20">
    <path d="M 73.832727 235.364073 
L 74.760312 234.9563 
L 75.687896 233.372073 
L 76.615481 230.880031 
L 77.543065 227.153502 
L 78.470649 222.426815 
L 79.398234 216.717008 
L 81.253403 202.944009 
L 83.108571 186.772457 
L 85.891325 159.941397 
L 89.601662 124.245122 
L 91.456831 108.820079 
L 92.384416 102.28346 
L 93.312 96.784507 
L 94.239584 92.518131 
L 95.167169 89.662974 
L 96.094753 88.356189 
L 97.022338 88.666531 
L 97.949922 90.575421 
L 98.877506 93.974646 
L 99.805091 98.68227 
L 100.732675 104.469646 
L 102.587844 118.29149 
L 106.298182 148.353066 
L 108.153351 161.18456 
L 109.080935 166.388542 
L 110.008519 170.597371 
L 110.936104 173.729988 
L 111.863688 175.763871 
L 112.791273 176.734336 
L 113.718857 176.72539 
L 114.646442 175.855729 
L 115.574026 174.264206 
L 116.50161 172.097762 
L 118.356779 166.620404 
L 122.067117 154.686375 
L 123.922286 149.85116 
L 124.84987 147.951865 
L 125.777455 146.44116 
L 126.705039 145.329262 
L 127.632623 144.610179 
L 128.560208 144.263601 
L 129.487792 144.257192 
L 130.415377 144.549034 
L 131.342961 145.090264 
L 133.19813 146.705855 
L 137.836052 151.40534 
L 138.763636 152.112843 
L 139.691221 152.67648 
L 140.618805 153.08324 
L 141.54639 153.327808 
L 142.473974 153.411978 
L 143.401558 153.343959 
L 144.329143 153.137376 
L 146.184312 152.384116 
L 148.039481 151.330355 
L 151.749818 149.102289 
L 153.604987 148.267608 
L 155.460156 147.770173 
L 157.315325 147.649992 
L 159.170494 147.887877 
L 161.025662 148.415109 
L 163.808416 149.520121 
L 165.663584 150.296512 
L 166.591169 144.608018 
L 171.229091 74.166826 
L 172.156675 60.21104 
L 173.08426 53.568 
L 176.794597 53.568 
L 177.722182 55.766719 
L 178.649766 63.649655 
L 179.577351 75.112959 
L 181.432519 102.578343 
L 192.563532 273.646257 
L 193.491117 283.710366 
L 194.418701 288.84099 
L 195.346286 287.846208 
L 196.27387 282.561994 
L 197.201455 274.170888 
L 198.129039 264.520564 
L 200.911792 230.5098 
L 208.332468 139.437473 
L 210.187636 121.088315 
L 211.115221 113.389018 
L 212.042805 106.918716 
L 212.97039 101.869197 
L 213.897974 98.363214 
L 214.825558 96.458762 
L 215.753143 96.123211 
L 216.680727 97.24061 
L 217.608312 99.630214 
L 218.535896 103.073516 
L 219.463481 107.338687 
L 221.318649 117.43591 
L 225.028987 138.483807 
L 226.884156 146.990429 
L 227.81174 150.370591 
L 228.739325 153.098379 
L 229.666909 155.157807 
L 230.594494 156.560393 
L 231.522078 157.341098 
L 232.449662 157.552871 
L 233.377247 157.260942 
L 234.304831 156.537489 
L 235.232416 155.457299 
L 236.16 154.094479 
L 238.015169 150.801054 
L 242.653091 141.957989 
L 244.50826 139.060041 
L 246.363429 136.811839 
L 247.291013 135.949885 
L 248.218597 135.260771 
L 249.146182 134.736586 
L 250.073766 134.365068 
L 251.001351 134.13036 
L 252.856519 133.994949 
L 254.711688 134.163078 
L 259.34961 134.818794 
L 261.204779 134.825611 
L 263.059948 134.563313 
L 264.915117 134.004048 
L 266.770286 133.153378 
L 268.625455 132.041888 
L 271.408208 129.989625 
L 275.118545 126.818701 
L 281.611636 121.124149 
L 284.39439 118.934401 
L 287.177143 117.061458 
L 289.032312 116.071486 
L 289.959896 119.605607 
L 291.815065 96.954686 
L 292.742649 87.651514 
L 293.670234 80.537157 
L 294.597818 76.521793 
L 295.525403 76.503731 
L 296.452987 80.614106 
L 297.380571 87.579538 
L 298.308156 96.436562 
L 300.163325 117.462476 
L 305.728831 185.036811 
L 306.656416 193.856189 
L 308.511584 208.477497 
L 309.439169 214.624523 
L 310.366753 219.858259 
L 311.294338 223.934354 
L 312.221922 226.632816 
L 313.149506 227.797942 
L 314.077091 227.392814 
L 315.004675 225.487492 
L 315.93226 222.236839 
L 316.859844 217.836151 
L 317.787429 212.491157 
L 319.642597 199.727396 
L 322.425351 177.739059 
L 326.135688 148.244366 
L 327.990857 135.402668 
L 328.918442 129.864382 
L 329.846026 125.078381 
L 330.77361 121.164286 
L 331.701195 118.229373 
L 332.628779 116.357646 
L 333.556364 115.598213 
L 334.483948 115.955814 
L 335.411532 117.386346 
L 336.339117 119.798856 
L 337.266701 123.063394 
L 338.194286 127.022241 
L 340.049455 136.320679 
L 342.832208 151.051682 
L 344.687377 159.499778 
L 345.614961 162.918132 
L 346.542545 165.681344 
L 347.47013 167.740521 
L 348.397714 169.080534 
L 349.325299 169.718295 
L 350.252883 169.698327 
L 351.180468 169.086714 
L 352.108052 167.964585 
L 353.035636 166.422028 
L 354.890805 162.451932 
L 359.528727 151.453725 
L 360.456312 149.65106 
L 361.383896 148.101058 
L 362.311481 146.832786 
L 363.239065 145.863244 
L 364.166649 145.197555 
L 365.094234 144.829607 
L 366.021818 144.743042 
L 366.949403 144.912671 
L 367.876987 145.306083 
L 368.804571 145.885469 
L 370.65974 147.435003 
L 374.370078 150.926184 
L 376.225247 152.302769 
L 377.152831 152.814234 
L 378.080416 153.191752 
L 379.008 153.430954 
L 379.935584 153.533223 
L 380.863169 153.505088 
L 382.718338 153.105024 
L 384.573506 152.356757 
L 391.066597 149.230995 
L 392.921766 148.723446 
L 394.776935 148.508826 
L 396.632104 148.578801 
L 398.487273 148.885963 
L 398.487273 148.885963 
" clip-path="url(#p567ff51c6d)" style="fill: none; stroke: #ff7f0e; stroke-width: 1.5; stroke-linecap: square"/>
   </g>
   <g id="line2d_21">
    <path d="M 73.832727 235.364073 
L 76.615481 194.008496 
L 77.543065 183.190397 
L 78.470649 176.367419 
L 79.398234 173.787917 
L 80.325818 173.702508 
L 81.253403 174.409756 
L 82.180987 174.853193 
L 83.108571 174.516759 
L 84.036156 173.242206 
L 84.96374 171.069351 
L 85.891325 168.115132 
L 86.818909 164.50663 
L 88.674078 155.771309 
L 91.456831 140.457148 
L 93.312 130.251837 
L 95.167169 121.455328 
L 96.094753 117.958174 
L 97.022338 115.227611 
L 97.949922 113.349293 
L 98.877506 112.366988 
L 99.805091 112.278613 
L 100.732675 113.038443 
L 101.66026 114.565171 
L 102.587844 116.753518 
L 103.515429 119.486298 
L 105.370597 126.114991 
L 111.863688 151.732519 
L 113.718857 157.520483 
L 114.646442 159.918257 
L 115.574026 161.940682 
L 116.50161 163.56014 
L 117.429195 164.753573 
L 118.356779 165.503184 
L 119.284364 165.798628 
L 120.211948 165.640221 
L 121.139532 165.042851 
L 122.067117 164.039307 
L 122.994701 162.68201 
L 124.84987 159.204381 
L 127.632623 153.441279 
L 129.487792 150.218492 
L 130.415377 148.964381 
L 131.342961 147.980914 
L 132.270545 147.269865 
L 133.19813 146.818334 
L 134.125714 146.602434 
L 135.053299 146.59099 
L 135.980883 146.74894 
L 137.836052 147.429488 
L 144.329143 150.597469 
L 146.184312 151.118926 
L 148.039481 151.357399 
L 149.894649 151.323398 
L 151.749818 151.062781 
L 154.532571 150.411521 
L 158.242909 149.522982 
L 160.098078 149.242129 
L 161.953247 149.127868 
L 163.808416 149.184796 
L 165.663584 149.389787 
L 166.591169 157.805796 
L 167.518753 156.62755 
L 168.446338 150.863867 
L 169.373922 141.617914 
L 171.229091 117.713931 
L 174.939429 63.304507 
L 175.867013 53.568 
L 180.504935 53.568 
L 181.432519 57.833927 
L 182.360104 65.368184 
L 184.215273 84.734967 
L 189.780779 148.233614 
L 191.635948 166.460519 
L 195.346286 198.894303 
L 196.27387 206.412385 
L 197.201455 212.804971 
L 198.129039 217.630256 
L 199.056623 220.205166 
L 199.984208 220.615 
L 200.911792 218.705845 
L 201.839377 215.238179 
L 202.766961 210.226503 
L 203.694545 204.463528 
L 205.549714 190.975763 
L 210.187636 155.475189 
L 212.042805 143.096451 
L 213.897974 132.864975 
L 214.825558 128.765537 
L 215.753143 125.442462 
L 216.680727 122.949627 
L 217.608312 121.314594 
L 218.535896 120.533074 
L 219.463481 120.567844 
L 220.391065 121.352386 
L 221.318649 122.797557 
L 222.246234 124.799158 
L 223.173818 127.24467 
L 225.028987 133.006063 
L 227.81174 142.162329 
L 229.666909 147.471431 
L 230.594494 149.660161 
L 231.522078 151.473612 
L 232.449662 152.886595 
L 233.377247 153.892881 
L 234.304831 154.503731 
L 235.232416 154.745109 
L 236.16 154.65415 
L 237.087584 154.275487 
L 238.015169 153.657683 
L 239.870338 151.901684 
L 242.653091 148.640795 
L 245.435844 145.472214 
L 247.291013 143.717725 
L 249.146182 142.358048 
L 251.001351 141.417441 
L 252.856519 140.871234 
L 254.711688 140.657724 
L 256.566857 140.690601 
L 260.277195 141.102856 
L 263.059948 141.358649 
L 264.915117 141.377337 
L 266.770286 141.232322 
L 268.625455 140.913266 
L 271.408208 140.131586 
L 274.190961 139.063601 
L 278.828883 136.948251 
L 284.39439 134.402569 
L 288.104727 132.947717 
L 289.032312 132.633608 
L 289.959896 133.165731 
L 291.815065 106.916036 
L 292.742649 96.941464 
L 293.670234 91.153014 
L 294.597818 90.241671 
L 295.525403 93.983431 
L 296.452987 101.805177 
L 297.380571 111.977264 
L 299.23574 135.922029 
L 303.873662 199.097148 
L 304.801247 209.814234 
L 305.728831 218.438229 
L 306.656416 224.022508 
L 307.584 226.1414 
L 308.511584 225.378284 
L 309.439169 222.800746 
L 311.294338 215.435774 
L 313.149506 208.041137 
L 315.004675 201.736578 
L 318.715013 190.251957 
L 320.570182 183.714819 
L 322.425351 176.426985 
L 329.846026 146.023318 
L 331.701195 139.992431 
L 332.628779 137.4786 
L 333.556364 135.364526 
L 334.483948 133.694207 
L 335.411532 132.502867 
L 336.339117 131.812488 
L 337.266701 131.628369 
L 338.194286 131.9373 
L 339.12187 132.708046 
L 340.049455 133.893799 
L 340.977039 135.436011 
L 342.832208 139.322237 
L 349.325299 154.488644 
L 350.252883 156.146142 
L 351.180468 157.566571 
L 352.108052 158.728785 
L 353.035636 159.61723 
L 353.963221 160.222023 
L 354.890805 160.539031 
L 355.81839 160.570524 
L 356.745974 160.325903 
L 357.673558 159.822564 
L 358.601143 159.086366 
L 360.456312 157.059854 
L 366.021818 149.95565 
L 366.949403 149.089748 
L 367.876987 148.391348 
L 368.804571 147.868553 
L 369.732156 147.520671 
L 370.65974 147.339389 
L 371.587325 147.310392 
L 372.514909 147.414962 
L 374.370078 147.937282 
L 377.152831 149.161479 
L 379.935584 150.428668 
L 381.790753 151.097185 
L 383.645922 151.542052 
L 385.501091 151.736501 
L 387.35626 151.689674 
L 389.211429 151.44166 
L 391.994182 150.834179 
L 395.704519 149.979986 
L 398.487273 149.578337 
L 398.487273 149.578337 
" clip-path="url(#p567ff51c6d)" style="fill: none; stroke: #2ca02c; stroke-width: 1.5; stroke-linecap: square"/>
   </g>
   <g id="line2d_22">
    <path d="M 73.832727 235.364073 
L 77.543065 201.146716 
L 80.325818 179.557539 
L 82.180987 167.345308 
L 83.108571 162.426073 
L 84.036156 158.476415 
L 84.96374 155.490139 
L 85.891325 153.336652 
L 86.818909 151.792547 
L 89.601662 148.198419 
L 90.529247 146.625251 
L 91.456831 144.662428 
L 92.384416 142.29761 
L 94.239584 136.605368 
L 97.022338 127.459485 
L 97.949922 124.818249 
L 98.877506 122.608894 
L 99.805091 120.943732 
L 100.732675 119.907809 
L 101.66026 119.553019 
L 102.587844 119.895001 
L 103.515429 120.913812 
L 104.443013 122.558369 
L 105.370597 124.75328 
L 106.298182 127.406683 
L 108.153351 133.683079 
L 112.791273 150.531244 
L 114.646442 156.135127 
L 115.574026 158.490379 
L 116.50161 160.507733 
L 117.429195 162.16583 
L 118.356779 163.448891 
L 119.284364 164.346154 
L 120.211948 164.851854 
L 121.139532 164.966003 
L 122.067117 164.695823 
L 122.994701 164.057532 
L 123.922286 163.07789 
L 124.84987 161.795068 
L 126.705039 158.527644 
L 131.342961 149.398981 
L 132.270545 147.954669 
L 133.19813 146.762751 
L 134.125714 145.851573 
L 135.053299 145.233621 
L 135.980883 144.905632 
L 136.908468 144.849907 
L 137.836052 145.036787 
L 138.763636 145.427642 
L 140.618805 146.642234 
L 145.256727 150.204734 
L 147.111896 151.197527 
L 148.967065 151.78646 
L 150.822234 151.985671 
L 152.677403 151.86003 
L 154.532571 151.499734 
L 162.880831 149.431624 
L 164.736 149.27734 
L 165.663584 149.264939 
L 166.591169 135.048394 
L 175.867013 279.113847 
L 176.794597 288.031917 
L 177.722182 287.344771 
L 178.649766 279.351896 
L 179.577351 267.755581 
L 181.432519 240.690655 
L 188.853195 127.210215 
L 189.780779 115.027323 
L 190.708364 106.602524 
L 191.635948 104.26541 
L 192.563532 106.47145 
L 193.491117 111.4749 
L 194.418701 118.113209 
L 196.27387 134.382669 
L 199.984208 169.865277 
L 200.911792 177.954399 
L 201.839377 184.42925 
L 202.766961 190.081534 
L 203.694545 193.221038 
L 204.62213 195.310795 
L 205.549714 195.053908 
L 206.477299 193.970569 
L 207.404883 191.460885 
L 208.332468 188.389129 
L 210.187636 180.394477 
L 212.042805 171.021242 
L 215.753143 151.385925 
L 217.608312 142.889998 
L 218.535896 139.363654 
L 219.463481 136.439824 
L 220.391065 134.17871 
L 221.318649 132.607956 
L 222.246234 131.720658 
L 223.173818 131.478325 
L 224.101403 131.817483 
L 225.028987 132.658054 
L 225.956571 133.911282 
L 226.884156 135.485977 
L 228.739325 139.247008 
L 231.522078 145.238117 
L 233.377247 148.712971 
L 234.304831 150.152143 
L 235.232416 151.352706 
L 236.16 152.298838 
L 237.087584 152.985841 
L 238.015169 153.419403 
L 238.942753 153.614182 
L 239.870338 153.591975 
L 240.797922 153.379732 
L 241.725506 153.007531 
L 243.580675 151.909017 
L 246.363429 149.821921 
L 249.146182 147.787623 
L 251.001351 146.677043 
L 252.856519 145.839409 
L 254.711688 145.289976 
L 256.566857 145.009037 
L 258.422026 144.951464 
L 261.204779 145.1492 
L 267.69787 145.823725 
L 270.480623 145.828071 
L 273.263377 145.574685 
L 276.04613 145.09131 
L 279.756468 144.20292 
L 289.032312 141.75366 
L 289.959896 155.772923 
L 296.452987 54.166574 
L 297.380571 53.568 
L 310.366753 53.568 
L 311.294338 61.99314 
L 313.149506 88.250556 
L 321.497766 214.534994 
L 322.425351 224.295961 
L 323.352935 228.036114 
L 324.280519 224.768495 
L 325.208104 217.005628 
L 327.063273 195.939785 
L 330.77361 150.617107 
L 331.701195 140.784166 
L 332.628779 132.436726 
L 333.556364 126.102162 
L 334.483948 122.144713 
L 335.411532 120.581717 
L 336.339117 121.07562 
L 337.266701 123.096877 
L 338.194286 126.095214 
L 341.904623 139.720572 
L 342.832208 142.343655 
L 343.759792 144.488279 
L 344.687377 146.196318 
L 345.614961 147.550718 
L 347.47013 149.607348 
L 351.180468 153.333337 
L 354.890805 157.331971 
L 355.81839 158.101112 
L 356.745974 158.676724 
L 357.673558 159.019911 
L 358.601143 159.104889 
L 359.528727 158.920943 
L 360.456312 158.472979 
L 361.383896 157.780659 
L 362.311481 156.876557 
L 364.166649 154.611196 
L 367.876987 149.718696 
L 369.732156 147.858861 
L 370.65974 147.191086 
L 371.587325 146.71674 
L 372.514909 146.437211 
L 373.442494 146.344729 
L 374.370078 146.423634 
L 375.297662 146.652109 
L 377.152831 147.450678 
L 383.645922 150.997783 
L 385.501091 151.590829 
L 387.35626 151.885034 
L 389.211429 151.899758 
L 391.066597 151.685036 
L 393.849351 151.084894 
L 398.487273 149.967133 
L 398.487273 149.967133 
" clip-path="url(#p567ff51c6d)" style="fill: none; stroke: #d62728; stroke-width: 1.5; stroke-linecap: square"/>
   </g>
   <g id="line2d_23">
    <path d="M 73.832727 295.488 
L 74.760312 150.336 
L 398.487273 150.336 
L 398.487273 150.336 
" clip-path="url(#p567ff51c6d)" style="fill: none; stroke: #9467bd; stroke-width: 1.5; stroke-linecap: square"/>
   </g>
   <g id="patch_3">
    <path d="M 57.6 307.584 
L 57.6 41.472 
" style="fill: none; stroke: #000000; stroke-width: 0.8; stroke-linejoin: miter; stroke-linecap: square"/>
   </g>
   <g id="patch_4">
    <path d="M 414.72 307.584 
L 414.72 41.472 
" style="fill: none; stroke: #000000; stroke-width: 0.8; stroke-linejoin: miter; stroke-linecap: square"/>
   </g>
   <g id="patch_5">
    <path d="M 57.6 307.584 
L 414.72 307.584 
" style="fill: none; stroke: #000000; stroke-width: 0.8; stroke-linejoin: miter; stroke-linecap: square"/>
   </g>
   <g id="patch_6">
    <path d="M 57.6 41.472 
L 414.72 41.472 
" style="fill: none; stroke: #000000; stroke-width: 0.8; stroke-linejoin: miter; stroke-linecap: square"/>
   </g>
   <g id="legend_1">
    <g id="patch_7">
     <path d="M 291.245 302.584 
L 407.72 302.584 
Q 409.72 302.584 409.72 300.584 
L 409.72 228.193375 
Q 409.72 226.193375 407.72 226.193375 
L 291.245 226.193375 
Q 289.245 226.193375 289.245 228.193375 
L 289.245 300.584 
Q 289.245 302.584 291.245 302.584 
z
" style="fill: #ffffff; opacity: 0.8; stroke: #cccccc; stroke-linejoin: miter"/>
    </g>
    <g id="line2d_24">
     <path d="M 293.245 234.291812 
L 303.245 234.291812 
L 313.245 234.291812 
" style="fill: none; stroke: #1f77b4; stroke-width: 1.5; stroke-linecap: square"/>
    </g>
    <g id="text_21">
     <!-- $M_1$ -->
     <g transform="translate(321.245 237.791812)scale(0.1 -0.1)">
      <defs>
       <path id="DejaVuSans-Oblique-4d" d="M 1081 4666 
L 2028 4666 
L 2572 1522 
L 4378 4666 
L 5350 4666 
L 4441 0 
L 3828 0 
L 4622 4091 
L 2791 897 
L 2175 897 
L 1581 4103 
L 788 0 
L 172 0 
L 1081 4666 
z
" transform="scale(0.015625)"/>
      </defs>
      <use xlink:href="#DejaVuSans-Oblique-4d" transform="translate(0 0.09375)"/>
      <use xlink:href="#DejaVuSans-31" transform="translate(86.279297 -16.3125)scale(0.7)"/>
     </g>
    </g>
    <g id="line2d_25">
     <path d="M 293.245 248.969937 
L 303.245 248.969937 
L 313.245 248.969937 
" style="fill: none; stroke: #ff7f0e; stroke-width: 1.5; stroke-linecap: square"/>
    </g>
    <g id="text_22">
     <!-- $M_2$ -->
     <g transform="translate(321.245 252.469937)scale(0.1 -0.1)">
      <use xlink:href="#DejaVuSans-Oblique-4d" transform="translate(0 0.09375)"/>
      <use xlink:href="#DejaVuSans-32" transform="translate(86.279297 -16.3125)scale(0.7)"/>
     </g>
    </g>
    <g id="line2d_26">
     <path d="M 293.245 263.648062 
L 303.245 263.648062 
L 313.245 263.648062 
" style="fill: none; stroke: #2ca02c; stroke-width: 1.5; stroke-linecap: square"/>
    </g>
    <g id="text_23">
     <!-- $M_3$ -->
     <g transform="translate(321.245 267.148062)scale(0.1 -0.1)">
      <use xlink:href="#DejaVuSans-Oblique-4d" transform="translate(0 0.09375)"/>
      <use xlink:href="#DejaVuSans-33" transform="translate(86.279297 -16.3125)scale(0.7)"/>
     </g>
    </g>
    <g id="line2d_27">
     <path d="M 293.245 278.326188 
L 303.245 278.326188 
L 313.245 278.326188 
" style="fill: none; stroke: #d62728; stroke-width: 1.5; stroke-linecap: square"/>
    </g>
    <g id="text_24">
     <!-- $M_4$ -->
     <g transform="translate(321.245 281.826188)scale(0.1 -0.1)">
      <use xlink:href="#DejaVuSans-Oblique-4d" transform="translate(0 0.09375)"/>
      <use xlink:href="#DejaVuSans-34" transform="translate(86.279297 -16.3125)scale(0.7)"/>
     </g>
    </g>
    <g id="line2d_28">
     <path d="M 293.245 293.004312 
L 303.245 293.004312 
L 313.245 293.004312 
" style="fill: none; stroke: #9467bd; stroke-width: 1.5; stroke-linecap: square"/>
    </g>
    <g id="text_25">
     <!-- Reference Target -->
     <g transform="translate(321.245 296.504312)scale(0.1 -0.1)">
      <defs>
       <path id="DejaVuSans-52" d="M 2841 2188 
Q 3044 2119 3236 1894 
Q 3428 1669 3622 1275 
L 4263 0 
L 3584 0 
L 2988 1197 
Q 2756 1666 2539 1819 
Q 2322 1972 1947 1972 
L 1259 1972 
L 1259 0 
L 628 0 
L 628 4666 
L 2053 4666 
Q 2853 4666 3247 4331 
Q 3641 3997 3641 3322 
Q 3641 2881 3436 2590 
Q 3231 2300 2841 2188 
z
M 1259 4147 
L 1259 2491 
L 2053 2491 
Q 2509 2491 2742 2702 
Q 2975 2913 2975 3322 
Q 2975 3731 2742 3939 
Q 2509 4147 2053 4147 
L 1259 4147 
z
" transform="scale(0.015625)"/>
       <path id="DejaVuSans-66" d="M 2375 4863 
L 2375 4384 
L 1825 4384 
Q 1516 4384 1395 4259 
Q 1275 4134 1275 3809 
L 1275 3500 
L 2222 3500 
L 2222 3053 
L 1275 3053 
L 1275 0 
L 697 0 
L 697 3053 
L 147 3053 
L 147 3500 
L 697 3500 
L 697 3744 
Q 697 4328 969 4595 
Q 1241 4863 1831 4863 
L 2375 4863 
z
" transform="scale(0.015625)"/>
       <path id="DejaVuSans-72" d="M 2631 2963 
Q 2534 3019 2420 3045 
Q 2306 3072 2169 3072 
Q 1681 3072 1420 2755 
Q 1159 2438 1159 1844 
L 1159 0 
L 581 0 
L 581 3500 
L 1159 3500 
L 1159 2956 
Q 1341 3275 1631 3429 
Q 1922 3584 2338 3584 
Q 2397 3584 2469 3576 
Q 2541 3569 2628 3553 
L 2631 2963 
z
" transform="scale(0.015625)"/>
       <path id="DejaVuSans-6e" d="M 3513 2113 
L 3513 0 
L 2938 0 
L 2938 2094 
Q 2938 2591 2744 2837 
Q 2550 3084 2163 3084 
Q 1697 3084 1428 2787 
Q 1159 2491 1159 1978 
L 1159 0 
L 581 0 
L 581 3500 
L 1159 3500 
L 1159 2956 
Q 1366 3272 1645 3428 
Q 1925 3584 2291 3584 
Q 2894 3584 3203 3211 
Q 3513 2838 3513 2113 
z
" transform="scale(0.015625)"/>
       <path id="DejaVuSans-63" d="M 3122 3366 
L 3122 2828 
Q 2878 2963 2633 3030 
Q 2388 3097 2138 3097 
Q 1578 3097 1268 2742 
Q 959 2388 959 1747 
Q 959 1106 1268 751 
Q 1578 397 2138 397 
Q 2388 397 2633 464 
Q 2878 531 3122 666 
L 3122 134 
Q 2881 22 2623 -34 
Q 2366 -91 2075 -91 
Q 1284 -91 818 406 
Q 353 903 353 1747 
Q 353 2603 823 3093 
Q 1294 3584 2113 3584 
Q 2378 3584 2631 3529 
Q 2884 3475 3122 3366 
z
" transform="scale(0.015625)"/>
       <path id="DejaVuSans-20" transform="scale(0.015625)"/>
       <path id="DejaVuSans-54" d="M -19 4666 
L 3928 4666 
L 3928 4134 
L 2272 4134 
L 2272 0 
L 1638 0 
L 1638 4134 
L -19 4134 
L -19 4666 
z
" transform="scale(0.015625)"/>
       <path id="DejaVuSans-61" d="M 2194 1759 
Q 1497 1759 1228 1600 
Q 959 1441 959 1056 
Q 959 750 1161 570 
Q 1363 391 1709 391 
Q 2188 391 2477 730 
Q 2766 1069 2766 1631 
L 2766 1759 
L 2194 1759 
z
M 3341 1997 
L 3341 0 
L 2766 0 
L 2766 531 
Q 2569 213 2275 61 
Q 1981 -91 1556 -91 
Q 1019 -91 701 211 
Q 384 513 384 1019 
Q 384 1609 779 1909 
Q 1175 2209 1959 2209 
L 2766 2209 
L 2766 2266 
Q 2766 2663 2505 2880 
Q 2244 3097 1772 3097 
Q 1472 3097 1187 3025 
Q 903 2953 641 2809 
L 641 3341 
Q 956 3463 1253 3523 
Q 1550 3584 1831 3584 
Q 2591 3584 2966 3190 
Q 3341 2797 3341 1997 
z
" transform="scale(0.015625)"/>
       <path id="DejaVuSans-67" d="M 2906 1791 
Q 2906 2416 2648 2759 
Q 2391 3103 1925 3103 
Q 1463 3103 1205 2759 
Q 947 2416 947 1791 
Q 947 1169 1205 825 
Q 1463 481 1925 481 
Q 2391 481 2648 825 
Q 2906 1169 2906 1791 
z
M 3481 434 
Q 3481 -459 3084 -895 
Q 2688 -1331 1869 -1331 
Q 1566 -1331 1297 -1286 
Q 1028 -1241 775 -1147 
L 775 -588 
Q 1028 -725 1275 -790 
Q 1522 -856 1778 -856 
Q 2344 -856 2625 -561 
Q 2906 -266 2906 331 
L 2906 616 
Q 2728 306 2450 153 
Q 2172 0 1784 0 
Q 1141 0 747 490 
Q 353 981 353 1791 
Q 353 2603 747 3093 
Q 1141 3584 1784 3584 
Q 2172 3584 2450 3431 
Q 2728 3278 2906 2969 
L 2906 3500 
L 3481 3500 
L 3481 434 
z
" transform="scale(0.015625)"/>
      </defs>
      <use xlink:href="#DejaVuSans-52"/>
      <use xlink:href="#DejaVuSans-65" x="64.982422"/>
      <use xlink:href="#DejaVuSans-66" x="126.505859"/>
      <use xlink:href="#DejaVuSans-65" x="161.710938"/>
      <use xlink:href="#DejaVuSans-72" x="223.234375"/>
      <use xlink:href="#DejaVuSans-65" x="262.097656"/>
      <use xlink:href="#DejaVuSans-6e" x="323.621094"/>
      <use xlink:href="#DejaVuSans-63" x="387"/>
      <use xlink:href="#DejaVuSans-65" x="441.980469"/>
      <use xlink:href="#DejaVuSans-20" x="503.503906"/>
      <use xlink:href="#DejaVuSans-54" x="535.291016"/>
      <use xlink:href="#DejaVuSans-61" x="579.875"/>
      <use xlink:href="#DejaVuSans-72" x="641.154297"/>
      <use xlink:href="#DejaVuSans-67" x="680.517578"/>
      <use xlink:href="#DejaVuSans-65" x="743.994141"/>
      <use xlink:href="#DejaVuSans-74" x="805.517578"/>
     </g>
    </g>
   </g>
  </g>
 </g>
 <defs>
  <clipPath id="p567ff51c6d">
   <rect x="57.6" y="41.472" width="357.12" height="266.112"/>
  </clipPath>
 </defs>
</svg>
