<?xml version="1.0" encoding="UTF-8" standalone="no"?>
<svg
   width="460.8pt"
   height="345.6pt"
   viewBox="0 0 460.8 345.6"
   version="1.1"
   id="svg434"
   sodipodi:docname="resultant_error_formal.svg"
   inkscape:version="1.1.2 (b8e25be833, 2022-02-05)"
   xmlns:inkscape="http://www.inkscape.org/namespaces/inkscape"
   xmlns:sodipodi="http://sodipodi.sourceforge.net/DTD/sodipodi-0.dtd"
   xmlns:xlink="http://www.w3.org/1999/xlink"
   xmlns="http://www.w3.org/2000/svg"
   xmlns:svg="http://www.w3.org/2000/svg"
   xmlns:rdf="http://www.w3.org/1999/02/22-rdf-syntax-ns#"
   xmlns:cc="http://creativecommons.org/ns#"
   xmlns:dc="http://purl.org/dc/elements/1.1/">
  <sodipodi:namedview
     id="namedview436"
     pagecolor="#ffffff"
     bordercolor="#666666"
     borderopacity="1.0"
     inkscape:pageshadow="2"
     inkscape:pageopacity="0.0"
     inkscape:pagecheckerboard="0"
     inkscape:document-units="pt"
     showgrid="false"
     inkscape:zoom="3.7890624"
     inkscape:cx="39.58763"
     inkscape:cy="266.82062"
     inkscape:window-width="2560"
     inkscape:window-height="1406"
     inkscape:window-x="-11"
     inkscape:window-y="-11"
     inkscape:window-maximized="1"
     inkscape:current-layer="matplotlib.axis_2" />
  <metadata
     id="metadata2">
    <rdf:RDF>
      <cc:Work>
        <dc:type
           rdf:resource="http://purl.org/dc/dcmitype/StillImage" />
        <dc:date>2022-08-09T16:17:27.379239</dc:date>
        <dc:format>image/svg+xml</dc:format>
        <dc:creator>
          <cc:Agent>
            <dc:title>Matplotlib v3.5.2, https://matplotlib.org/</dc:title>
          </cc:Agent>
        </dc:creator>
      </cc:Work>
    </rdf:RDF>
  </metadata>
  <defs
     id="defs6">
    <style
       type="text/css"
       id="style4">*{stroke-linejoin: round; stroke-linecap: butt}</style>
    <path
       id="DejaVuSans-7c"
       d="M 1344,4891 V -1509 H 813 v 6400 z"
       transform="scale(0.015625)" />
    <path
       id="DejaVuSans-Oblique-65-9"
       d="m 3078,2063 q 10,50 14,103 5,53 5,106 0,381 -224,603 -223,222 -607,222 -428,0 -757,-271 -328,-270 -496,-767 z m 500,-450 H 903 q -19,-119 -25,-188 -6,-69 -6,-119 0,-434 267,-672 267,-237 755,-237 375,0 709,84 335,85 622,247 L 3116,159 Q 2806,34 2476,-28 2147,-91 1806,-91 1078,-91 686,257 294,606 294,1247 q 0,547 195,1017 195,470 574,839 243,231 579,356 336,125 714,125 594,0 945,-356 352,-356 352,-956 0,-144 -19,-308 -18,-164 -56,-351 z"
       transform="scale(0.015625)" />
    <path
       id="DejaVuSans-Oblique-72-2"
       d="m 2853,2969 q -87,47 -200,72 -112,25 -240,25 -460,0 -804,-349 -343,-348 -456,-933 L 800,0 H 225 l 684,3500 h 575 l -109,-544 q 228,303 545,465 318,163 677,163 94,0 184,-11 91,-10 182,-35 z"
       transform="scale(0.015625)" />
    <path
       id="DejaVuSans-Oblique-69-6"
       d="m 1172,4863 h 575 L 1606,4134 H 1031 Z M 909,3500 h 575 L 800,0 H 225 Z"
       transform="scale(0.015625)" />
  </defs>
  <g
     id="figure_1">
    <g
       id="patch_1">
      <path
         d="M 0 345.6  L 460.8 345.6  L 460.8 0  L 0 0  z "
         style="fill: #ffffff"
         id="path8" />
    </g>
    <g
       id="axes_1">
      <g
         id="patch_2">
        <path
           d="M 57.6 307.584  L 414.72 307.584  L 414.72 41.472  L 57.6 41.472  z "
           style="fill: #ffffff"
           id="path11" />
      </g>
      <g
         id="matplotlib.axis_1">
        <g
           id="xtick_1">
          <g
             id="line2d_1">
            <defs
               id="defs15">
              <path
                 id="ma8e9132681"
                 d="M 0 0  L 0 3.5  "
                 style="stroke: #000000; stroke-width: 0.8" />
            </defs>
            <g
               id="g19">
              <use
                 xlink:href="#ma8e9132681"
                 x="73.832727"
                 y="307.584"
                 style="stroke: #000000; stroke-width: 0.8"
                 id="use17" />
            </g>
          </g>
          <g
             id="text_1">
            <!-- 0.0 -->
            <g
               transform="translate(65.881165 322.182437)scale(0.1 -0.1)"
               id="g32">
              <defs
                 id="defs24">
                <path
                   id="DejaVuSans-30"
                   d="M 2034 4250  Q 1547 4250 1301 3770  Q 1056 3291 1056 2328  Q 1056 1369 1301 889  Q 1547 409 2034 409  Q 2525 409 2770 889  Q 3016 1369 3016 2328  Q 3016 3291 2770 3770  Q 2525 4250 2034 4250  z M 2034 4750  Q 2819 4750 3233 4129  Q 3647 3509 3647 2328  Q 3647 1150 3233 529  Q 2819 -91 2034 -91  Q 1250 -91 836 529  Q 422 1150 422 2328  Q 422 3509 836 4129  Q 1250 4750 2034 4750  z "
                   transform="scale(0.015625)" />
                <path
                   id="DejaVuSans-2e"
                   d="M 684 794  L 1344 794  L 1344 0  L 684 0  L 684 794  z "
                   transform="scale(0.015625)" />
              </defs>
              <use
                 xlink:href="#DejaVuSans-30"
                 id="use26" />
              <use
                 xlink:href="#DejaVuSans-2e"
                 x="63.623047"
                 id="use28" />
              <use
                 xlink:href="#DejaVuSans-30"
                 x="95.410156"
                 id="use30" />
            </g>
          </g>
        </g>
        <g
           id="xtick_2">
          <g
             id="line2d_2">
            <g
               id="g38">
              <use
                 xlink:href="#ma8e9132681"
                 x="101.66026"
                 y="307.584"
                 style="stroke: #000000; stroke-width: 0.8"
                 id="use36" />
            </g>
          </g>
          <g
             id="text_2">
            <!-- 3.0 -->
            <g
               transform="translate(93.708697 322.182437)scale(0.1 -0.1)"
               id="g50">
              <defs
                 id="defs42">
                <path
                   id="DejaVuSans-33"
                   d="M 2597 2516  Q 3050 2419 3304 2112  Q 3559 1806 3559 1356  Q 3559 666 3084 287  Q 2609 -91 1734 -91  Q 1441 -91 1130 -33  Q 819 25 488 141  L 488 750  Q 750 597 1062 519  Q 1375 441 1716 441  Q 2309 441 2620 675  Q 2931 909 2931 1356  Q 2931 1769 2642 2001  Q 2353 2234 1838 2234  L 1294 2234  L 1294 2753  L 1863 2753  Q 2328 2753 2575 2939  Q 2822 3125 2822 3475  Q 2822 3834 2567 4026  Q 2313 4219 1838 4219  Q 1578 4219 1281 4162  Q 984 4106 628 3988  L 628 4550  Q 988 4650 1302 4700  Q 1616 4750 1894 4750  Q 2613 4750 3031 4423  Q 3450 4097 3450 3541  Q 3450 3153 3228 2886  Q 3006 2619 2597 2516  z "
                   transform="scale(0.015625)" />
              </defs>
              <use
                 xlink:href="#DejaVuSans-33"
                 id="use44" />
              <use
                 xlink:href="#DejaVuSans-2e"
                 x="63.623047"
                 id="use46" />
              <use
                 xlink:href="#DejaVuSans-30"
                 x="95.410156"
                 id="use48" />
            </g>
          </g>
        </g>
        <g
           id="xtick_3">
          <g
             id="line2d_3">
            <g
               id="g56">
              <use
                 xlink:href="#ma8e9132681"
                 x="129.487792"
                 y="307.584"
                 style="stroke: #000000; stroke-width: 0.8"
                 id="use54" />
            </g>
          </g>
          <g
             id="text_3">
            <!-- 6.0 -->
            <g
               transform="translate(121.53623 322.182437)scale(0.1 -0.1)"
               id="g68">
              <defs
                 id="defs60">
                <path
                   id="DejaVuSans-36"
                   d="M 2113 2584  Q 1688 2584 1439 2293  Q 1191 2003 1191 1497  Q 1191 994 1439 701  Q 1688 409 2113 409  Q 2538 409 2786 701  Q 3034 994 3034 1497  Q 3034 2003 2786 2293  Q 2538 2584 2113 2584  z M 3366 4563  L 3366 3988  Q 3128 4100 2886 4159  Q 2644 4219 2406 4219  Q 1781 4219 1451 3797  Q 1122 3375 1075 2522  Q 1259 2794 1537 2939  Q 1816 3084 2150 3084  Q 2853 3084 3261 2657  Q 3669 2231 3669 1497  Q 3669 778 3244 343  Q 2819 -91 2113 -91  Q 1303 -91 875 529  Q 447 1150 447 2328  Q 447 3434 972 4092  Q 1497 4750 2381 4750  Q 2619 4750 2861 4703  Q 3103 4656 3366 4563  z "
                   transform="scale(0.015625)" />
              </defs>
              <use
                 xlink:href="#DejaVuSans-36"
                 id="use62" />
              <use
                 xlink:href="#DejaVuSans-2e"
                 x="63.623047"
                 id="use64" />
              <use
                 xlink:href="#DejaVuSans-30"
                 x="95.410156"
                 id="use66" />
            </g>
          </g>
        </g>
        <g
           id="xtick_4">
          <g
             id="line2d_4">
            <g
               id="g74">
              <use
                 xlink:href="#ma8e9132681"
                 x="157.315325"
                 y="307.584"
                 style="stroke: #000000; stroke-width: 0.8"
                 id="use72" />
            </g>
          </g>
          <g
             id="text_4">
            <!-- 9.0 -->
            <g
               transform="translate(149.363762 322.182437)scale(0.1 -0.1)"
               id="g86">
              <defs
                 id="defs78">
                <path
                   id="DejaVuSans-39"
                   d="M 703 97  L 703 672  Q 941 559 1184 500  Q 1428 441 1663 441  Q 2288 441 2617 861  Q 2947 1281 2994 2138  Q 2813 1869 2534 1725  Q 2256 1581 1919 1581  Q 1219 1581 811 2004  Q 403 2428 403 3163  Q 403 3881 828 4315  Q 1253 4750 1959 4750  Q 2769 4750 3195 4129  Q 3622 3509 3622 2328  Q 3622 1225 3098 567  Q 2575 -91 1691 -91  Q 1453 -91 1209 -44  Q 966 3 703 97  z M 1959 2075  Q 2384 2075 2632 2365  Q 2881 2656 2881 3163  Q 2881 3666 2632 3958  Q 2384 4250 1959 4250  Q 1534 4250 1286 3958  Q 1038 3666 1038 3163  Q 1038 2656 1286 2365  Q 1534 2075 1959 2075  z "
                   transform="scale(0.015625)" />
              </defs>
              <use
                 xlink:href="#DejaVuSans-39"
                 id="use80" />
              <use
                 xlink:href="#DejaVuSans-2e"
                 x="63.623047"
                 id="use82" />
              <use
                 xlink:href="#DejaVuSans-30"
                 x="95.410156"
                 id="use84" />
            </g>
          </g>
        </g>
        <g
           id="xtick_5">
          <g
             id="line2d_5">
            <g
               id="g92">
              <use
                 xlink:href="#ma8e9132681"
                 x="185.142857"
                 y="307.584"
                 style="stroke: #000000; stroke-width: 0.8"
                 id="use90" />
            </g>
          </g>
          <g
             id="text_5">
            <!-- 12.0 -->
            <g
               transform="translate(174.010045 322.182437)scale(0.1 -0.1)"
               id="g107">
              <defs
                 id="defs97">
                <path
                   id="DejaVuSans-31"
                   d="M 794 531  L 1825 531  L 1825 4091  L 703 3866  L 703 4441  L 1819 4666  L 2450 4666  L 2450 531  L 3481 531  L 3481 0  L 794 0  L 794 531  z "
                   transform="scale(0.015625)" />
                <path
                   id="DejaVuSans-32"
                   d="M 1228 531  L 3431 531  L 3431 0  L 469 0  L 469 531  Q 828 903 1448 1529  Q 2069 2156 2228 2338  Q 2531 2678 2651 2914  Q 2772 3150 2772 3378  Q 2772 3750 2511 3984  Q 2250 4219 1831 4219  Q 1534 4219 1204 4116  Q 875 4013 500 3803  L 500 4441  Q 881 4594 1212 4672  Q 1544 4750 1819 4750  Q 2544 4750 2975 4387  Q 3406 4025 3406 3419  Q 3406 3131 3298 2873  Q 3191 2616 2906 2266  Q 2828 2175 2409 1742  Q 1991 1309 1228 531  z "
                   transform="scale(0.015625)" />
              </defs>
              <use
                 xlink:href="#DejaVuSans-31"
                 id="use99" />
              <use
                 xlink:href="#DejaVuSans-32"
                 x="63.623047"
                 id="use101" />
              <use
                 xlink:href="#DejaVuSans-2e"
                 x="127.246094"
                 id="use103" />
              <use
                 xlink:href="#DejaVuSans-30"
                 x="159.033203"
                 id="use105" />
            </g>
          </g>
        </g>
        <g
           id="xtick_6">
          <g
             id="line2d_6">
            <g
               id="g113">
              <use
                 xlink:href="#ma8e9132681"
                 x="212.97039"
                 y="307.584"
                 style="stroke: #000000; stroke-width: 0.8"
                 id="use111" />
            </g>
          </g>
          <g
             id="text_6">
            <!-- 15.0 -->
            <g
               transform="translate(201.837577 322.182437)scale(0.1 -0.1)"
               id="g127">
              <defs
                 id="defs117">
                <path
                   id="DejaVuSans-35"
                   d="M 691 4666  L 3169 4666  L 3169 4134  L 1269 4134  L 1269 2991  Q 1406 3038 1543 3061  Q 1681 3084 1819 3084  Q 2600 3084 3056 2656  Q 3513 2228 3513 1497  Q 3513 744 3044 326  Q 2575 -91 1722 -91  Q 1428 -91 1123 -41  Q 819 9 494 109  L 494 744  Q 775 591 1075 516  Q 1375 441 1709 441  Q 2250 441 2565 725  Q 2881 1009 2881 1497  Q 2881 1984 2565 2268  Q 2250 2553 1709 2553  Q 1456 2553 1204 2497  Q 953 2441 691 2322  L 691 4666  z "
                   transform="scale(0.015625)" />
              </defs>
              <use
                 xlink:href="#DejaVuSans-31"
                 id="use119" />
              <use
                 xlink:href="#DejaVuSans-35"
                 x="63.623047"
                 id="use121" />
              <use
                 xlink:href="#DejaVuSans-2e"
                 x="127.246094"
                 id="use123" />
              <use
                 xlink:href="#DejaVuSans-30"
                 x="159.033203"
                 id="use125" />
            </g>
          </g>
        </g>
        <g
           id="xtick_7">
          <g
             id="line2d_7">
            <g
               id="g133">
              <use
                 xlink:href="#ma8e9132681"
                 x="240.797922"
                 y="307.584"
                 style="stroke: #000000; stroke-width: 0.8"
                 id="use131" />
            </g>
          </g>
          <g
             id="text_7">
            <!-- 18.0 -->
            <g
               transform="translate(229.66511 322.182437)scale(0.1 -0.1)"
               id="g147">
              <defs
                 id="defs137">
                <path
                   id="DejaVuSans-38"
                   d="M 2034 2216  Q 1584 2216 1326 1975  Q 1069 1734 1069 1313  Q 1069 891 1326 650  Q 1584 409 2034 409  Q 2484 409 2743 651  Q 3003 894 3003 1313  Q 3003 1734 2745 1975  Q 2488 2216 2034 2216  z M 1403 2484  Q 997 2584 770 2862  Q 544 3141 544 3541  Q 544 4100 942 4425  Q 1341 4750 2034 4750  Q 2731 4750 3128 4425  Q 3525 4100 3525 3541  Q 3525 3141 3298 2862  Q 3072 2584 2669 2484  Q 3125 2378 3379 2068  Q 3634 1759 3634 1313  Q 3634 634 3220 271  Q 2806 -91 2034 -91  Q 1263 -91 848 271  Q 434 634 434 1313  Q 434 1759 690 2068  Q 947 2378 1403 2484  z M 1172 3481  Q 1172 3119 1398 2916  Q 1625 2713 2034 2713  Q 2441 2713 2670 2916  Q 2900 3119 2900 3481  Q 2900 3844 2670 4047  Q 2441 4250 2034 4250  Q 1625 4250 1398 4047  Q 1172 3844 1172 3481  z "
                   transform="scale(0.015625)" />
              </defs>
              <use
                 xlink:href="#DejaVuSans-31"
                 id="use139" />
              <use
                 xlink:href="#DejaVuSans-38"
                 x="63.623047"
                 id="use141" />
              <use
                 xlink:href="#DejaVuSans-2e"
                 x="127.246094"
                 id="use143" />
              <use
                 xlink:href="#DejaVuSans-30"
                 x="159.033203"
                 id="use145" />
            </g>
          </g>
        </g>
        <g
           id="xtick_8">
          <g
             id="line2d_8">
            <g
               id="g153">
              <use
                 xlink:href="#ma8e9132681"
                 x="268.625455"
                 y="307.584"
                 style="stroke: #000000; stroke-width: 0.8"
                 id="use151" />
            </g>
          </g>
          <g
             id="text_8">
            <!-- 21.0 -->
            <g
               transform="translate(257.492642 322.182437)scale(0.1 -0.1)"
               id="g164">
              <use
                 xlink:href="#DejaVuSans-32"
                 id="use156" />
              <use
                 xlink:href="#DejaVuSans-31"
                 x="63.623047"
                 id="use158" />
              <use
                 xlink:href="#DejaVuSans-2e"
                 x="127.246094"
                 id="use160" />
              <use
                 xlink:href="#DejaVuSans-30"
                 x="159.033203"
                 id="use162" />
            </g>
          </g>
        </g>
        <g
           id="xtick_9">
          <g
             id="line2d_9">
            <g
               id="g170">
              <use
                 xlink:href="#ma8e9132681"
                 x="296.452987"
                 y="307.584"
                 style="stroke: #000000; stroke-width: 0.8"
                 id="use168" />
            </g>
          </g>
          <g
             id="text_9">
            <!-- 24.0 -->
            <g
               transform="translate(285.320175 322.182437)scale(0.1 -0.1)"
               id="g184">
              <defs
                 id="defs174">
                <path
                   id="DejaVuSans-34"
                   d="M 2419 4116  L 825 1625  L 2419 1625  L 2419 4116  z M 2253 4666  L 3047 4666  L 3047 1625  L 3713 1625  L 3713 1100  L 3047 1100  L 3047 0  L 2419 0  L 2419 1100  L 313 1100  L 313 1709  L 2253 4666  z "
                   transform="scale(0.015625)" />
              </defs>
              <use
                 xlink:href="#DejaVuSans-32"
                 id="use176" />
              <use
                 xlink:href="#DejaVuSans-34"
                 x="63.623047"
                 id="use178" />
              <use
                 xlink:href="#DejaVuSans-2e"
                 x="127.246094"
                 id="use180" />
              <use
                 xlink:href="#DejaVuSans-30"
                 x="159.033203"
                 id="use182" />
            </g>
          </g>
        </g>
        <g
           id="xtick_10">
          <g
             id="line2d_10">
            <g
               id="g190">
              <use
                 xlink:href="#ma8e9132681"
                 x="324.280519"
                 y="307.584"
                 style="stroke: #000000; stroke-width: 0.8"
                 id="use188" />
            </g>
          </g>
          <g
             id="text_10">
            <!-- 27.0 -->
            <g
               transform="translate(313.147707 322.182437)scale(0.1 -0.1)"
               id="g204">
              <defs
                 id="defs194">
                <path
                   id="DejaVuSans-37"
                   d="M 525 4666  L 3525 4666  L 3525 4397  L 1831 0  L 1172 0  L 2766 4134  L 525 4134  L 525 4666  z "
                   transform="scale(0.015625)" />
              </defs>
              <use
                 xlink:href="#DejaVuSans-32"
                 id="use196" />
              <use
                 xlink:href="#DejaVuSans-37"
                 x="63.623047"
                 id="use198" />
              <use
                 xlink:href="#DejaVuSans-2e"
                 x="127.246094"
                 id="use200" />
              <use
                 xlink:href="#DejaVuSans-30"
                 x="159.033203"
                 id="use202" />
            </g>
          </g>
        </g>
        <g
           id="xtick_11">
          <g
             id="line2d_11">
            <g
               id="g210">
              <use
                 xlink:href="#ma8e9132681"
                 x="352.108052"
                 y="307.584"
                 style="stroke: #000000; stroke-width: 0.8"
                 id="use208" />
            </g>
          </g>
          <g
             id="text_11">
            <!-- 30.0 -->
            <g
               transform="translate(340.975239 322.182437)scale(0.1 -0.1)"
               id="g221">
              <use
                 xlink:href="#DejaVuSans-33"
                 id="use213" />
              <use
                 xlink:href="#DejaVuSans-30"
                 x="63.623047"
                 id="use215" />
              <use
                 xlink:href="#DejaVuSans-2e"
                 x="127.246094"
                 id="use217" />
              <use
                 xlink:href="#DejaVuSans-30"
                 x="159.033203"
                 id="use219" />
            </g>
          </g>
        </g>
        <g
           id="xtick_12">
          <g
             id="line2d_12">
            <g
               id="g227">
              <use
                 xlink:href="#ma8e9132681"
                 x="379.935584"
                 y="307.584"
                 style="stroke: #000000; stroke-width: 0.8"
                 id="use225" />
            </g>
          </g>
          <g
             id="text_12">
            <!-- 33.0 -->
            <g
               transform="translate(368.802772 322.182437)scale(0.1 -0.1)"
               id="g238">
              <use
                 xlink:href="#DejaVuSans-33"
                 id="use230" />
              <use
                 xlink:href="#DejaVuSans-33"
                 x="63.623047"
                 id="use232" />
              <use
                 xlink:href="#DejaVuSans-2e"
                 x="127.246094"
                 id="use234" />
              <use
                 xlink:href="#DejaVuSans-30"
                 x="159.033203"
                 id="use236" />
            </g>
          </g>
        </g>
        <g
           id="text_13">
          <!-- time(s) -->
          <g
             transform="translate(218.357656 335.860562)scale(0.1 -0.1)"
             id="g265">
            <defs
               id="defs249">
              <path
                 id="DejaVuSans-74"
                 d="M 1172 4494  L 1172 3500  L 2356 3500  L 2356 3053  L 1172 3053  L 1172 1153  Q 1172 725 1289 603  Q 1406 481 1766 481  L 2356 481  L 2356 0  L 1766 0  Q 1100 0 847 248  Q 594 497 594 1153  L 594 3053  L 172 3053  L 172 3500  L 594 3500  L 594 4494  L 1172 4494  z "
                 transform="scale(0.015625)" />
              <path
                 id="DejaVuSans-69"
                 d="M 603 3500  L 1178 3500  L 1178 0  L 603 0  L 603 3500  z M 603 4863  L 1178 4863  L 1178 4134  L 603 4134  L 603 4863  z "
                 transform="scale(0.015625)" />
              <path
                 id="DejaVuSans-6d"
                 d="M 3328 2828  Q 3544 3216 3844 3400  Q 4144 3584 4550 3584  Q 5097 3584 5394 3201  Q 5691 2819 5691 2113  L 5691 0  L 5113 0  L 5113 2094  Q 5113 2597 4934 2840  Q 4756 3084 4391 3084  Q 3944 3084 3684 2787  Q 3425 2491 3425 1978  L 3425 0  L 2847 0  L 2847 2094  Q 2847 2600 2669 2842  Q 2491 3084 2119 3084  Q 1678 3084 1418 2786  Q 1159 2488 1159 1978  L 1159 0  L 581 0  L 581 3500  L 1159 3500  L 1159 2956  Q 1356 3278 1631 3431  Q 1906 3584 2284 3584  Q 2666 3584 2933 3390  Q 3200 3197 3328 2828  z "
                 transform="scale(0.015625)" />
              <path
                 id="DejaVuSans-65"
                 d="M 3597 1894  L 3597 1613  L 953 1613  Q 991 1019 1311 708  Q 1631 397 2203 397  Q 2534 397 2845 478  Q 3156 559 3463 722  L 3463 178  Q 3153 47 2828 -22  Q 2503 -91 2169 -91  Q 1331 -91 842 396  Q 353 884 353 1716  Q 353 2575 817 3079  Q 1281 3584 2069 3584  Q 2775 3584 3186 3129  Q 3597 2675 3597 1894  z M 3022 2063  Q 3016 2534 2758 2815  Q 2500 3097 2075 3097  Q 1594 3097 1305 2825  Q 1016 2553 972 2059  L 3022 2063  z "
                 transform="scale(0.015625)" />
              <path
                 id="DejaVuSans-28"
                 d="M 1984 4856  Q 1566 4138 1362 3434  Q 1159 2731 1159 2009  Q 1159 1288 1364 580  Q 1569 -128 1984 -844  L 1484 -844  Q 1016 -109 783 600  Q 550 1309 550 2009  Q 550 2706 781 3412  Q 1013 4119 1484 4856  L 1984 4856  z "
                 transform="scale(0.015625)" />
              <path
                 id="DejaVuSans-73"
                 d="M 2834 3397  L 2834 2853  Q 2591 2978 2328 3040  Q 2066 3103 1784 3103  Q 1356 3103 1142 2972  Q 928 2841 928 2578  Q 928 2378 1081 2264  Q 1234 2150 1697 2047  L 1894 2003  Q 2506 1872 2764 1633  Q 3022 1394 3022 966  Q 3022 478 2636 193  Q 2250 -91 1575 -91  Q 1294 -91 989 -36  Q 684 19 347 128  L 347 722  Q 666 556 975 473  Q 1284 391 1588 391  Q 1994 391 2212 530  Q 2431 669 2431 922  Q 2431 1156 2273 1281  Q 2116 1406 1581 1522  L 1381 1569  Q 847 1681 609 1914  Q 372 2147 372 2553  Q 372 3047 722 3315  Q 1072 3584 1716 3584  Q 2034 3584 2315 3537  Q 2597 3491 2834 3397  z "
                 transform="scale(0.015625)" />
              <path
                 id="DejaVuSans-29"
                 d="M 513 4856  L 1013 4856  Q 1481 4119 1714 3412  Q 1947 2706 1947 2009  Q 1947 1309 1714 600  Q 1481 -109 1013 -844  L 513 -844  Q 928 -128 1133 580  Q 1338 1288 1338 2009  Q 1338 2731 1133 3434  Q 928 4138 513 4856  z "
                 transform="scale(0.015625)" />
            </defs>
            <use
               xlink:href="#DejaVuSans-74"
               id="use251" />
            <use
               xlink:href="#DejaVuSans-69"
               x="39.208984"
               id="use253" />
            <use
               xlink:href="#DejaVuSans-6d"
               x="66.992188"
               id="use255" />
            <use
               xlink:href="#DejaVuSans-65"
               x="164.404297"
               id="use257" />
            <use
               xlink:href="#DejaVuSans-28"
               x="225.927734"
               id="use259" />
            <use
               xlink:href="#DejaVuSans-73"
               x="264.941406"
               id="use261" />
            <use
               xlink:href="#DejaVuSans-29"
               x="317.041016"
               id="use263" />
          </g>
        </g>
      </g>
      <g
         id="matplotlib.axis_2">
        <g
           id="ytick_1">
          <g
             id="line2d_13">
            <defs
               id="defs270">
              <path
                 id="m7363785647"
                 d="M 0 0  L -3.5 0  "
                 style="stroke: #000000; stroke-width: 0.8" />
            </defs>
            <g
               id="g274">
              <use
                 xlink:href="#m7363785647"
                 x="57.6"
                 y="265.421725"
                 style="stroke: #000000; stroke-width: 0.8"
                 id="use272" />
            </g>
          </g>
          <g
             id="text_14">
            <!-- −2 -->
            <g
               transform="translate(35.857813 269.220944)scale(0.1 -0.1)"
               id="g284">
              <defs
                 id="defs278">
                <path
                   id="DejaVuSans-2212"
                   d="M 678 2272  L 4684 2272  L 4684 1741  L 678 1741  L 678 2272  z "
                   transform="scale(0.015625)" />
              </defs>
              <use
                 xlink:href="#DejaVuSans-2212"
                 id="use280" />
              <use
                 xlink:href="#DejaVuSans-32"
                 x="83.789062"
                 id="use282" />
            </g>
          </g>
        </g>
        <g
           id="ytick_2">
          <g
             id="line2d_14">
            <g
               id="g290">
              <use
                 xlink:href="#m7363785647"
                 x="57.6"
                 y="217.193922"
                 style="stroke: #000000; stroke-width: 0.8"
                 id="use288" />
            </g>
          </g>
          <g
             id="text_15">
            <!-- −1 -->
            <g
               transform="translate(35.857813 220.993141)scale(0.1 -0.1)"
               id="g297">
              <use
                 xlink:href="#DejaVuSans-2212"
                 id="use293" />
              <use
                 xlink:href="#DejaVuSans-31"
                 x="83.789062"
                 id="use295" />
            </g>
          </g>
        </g>
        <g
           id="ytick_3">
          <g
             id="line2d_15">
            <g
               id="g303">
              <use
                 xlink:href="#m7363785647"
                 x="57.6"
                 y="168.966119"
                 style="stroke: #000000; stroke-width: 0.8"
                 id="use301" />
            </g>
          </g>
          <g
             id="text_16">
            <!-- 0 -->
            <g
               transform="translate(44.2375 172.765337)scale(0.1 -0.1)"
               id="g308">
              <use
                 xlink:href="#DejaVuSans-30"
                 id="use306" />
            </g>
          </g>
        </g>
        <g
           id="ytick_4">
          <g
             id="line2d_16">
            <g
               id="g314">
              <use
                 xlink:href="#m7363785647"
                 x="57.6"
                 y="120.738315"
                 style="stroke: #000000; stroke-width: 0.8"
                 id="use312" />
            </g>
          </g>
          <g
             id="text_17">
            <!-- 1 -->
            <g
               transform="translate(44.2375 124.537534)scale(0.1 -0.1)"
               id="g319">
              <use
                 xlink:href="#DejaVuSans-31"
                 id="use317" />
            </g>
          </g>
        </g>
        <g
           id="ytick_5">
          <g
             id="line2d_17">
            <g
               id="g325">
              <use
                 xlink:href="#m7363785647"
                 x="57.6"
                 y="72.510512"
                 style="stroke: #000000; stroke-width: 0.8"
                 id="use323" />
            </g>
          </g>
          <g
             id="text_18">
            <!-- 2 -->
            <g
               transform="translate(44.2375 76.30973)scale(0.1 -0.1)"
               id="g330">
              <use
                 xlink:href="#DejaVuSans-32"
                 id="use328" />
            </g>
          </g>
        </g>
      </g>
      <g
         id="line2d_18">
        <path
           d="M 73.832727 168.966119  L 74.760312 168.708769  L 76.615481 167.683031  L 78.470649 166.629669  L 80.325818 165.822959  L 82.180987 165.314816  L 84.036156 165.075619  L 85.891325 165.048962  L 88.674078 165.283013  L 92.384416 165.867513  L 99.805091 167.083021  L 104.443013 167.552274  L 109.080935 167.792239  L 116.50161 167.923506  L 145.256727 168.031067  L 165.663584 168.041393  L 166.591169 141.70807  L 167.518753 140.52696  L 168.446338 139.66529  L 169.373922 139.095562  L 170.301506 138.796628  L 171.229091 138.751322  L 172.156675 138.943984  L 174.011844 139.850053  L 175.867013 141.133121  L 177.722182 142.889306  L 179.577351 145.093712  L 181.432519 147.667416  L 185.142857 153.30238  L 188.853195 158.818362  L 190.708364 161.277503  L 192.563532 163.431602  L 194.418701 165.229416  L 196.27387 166.646563  L 198.129039 167.686426  L 199.984208 168.377625  L 201.839377 168.767803  L 203.694545 168.914975  L 206.477299 168.809653  L 210.187636 168.327432  L 220.391065 166.805845  L 225.028987 166.384628  L 230.594494 166.108282  L 238.015169 165.97752  L 255.639273 165.970268  L 289.032312 165.987267  L 289.959896 192.395772  L 290.887481 193.683659  L 291.815065 194.630396  L 292.742649 195.241436  L 293.670234 195.53366  L 294.597818 195.532516  L 295.525403 195.268812  L 296.452987 194.775626  L 297.380571 194.085074  L 299.23574 192.216139  L 301.090909 189.850153  L 306.656416 182.256895  L 308.511584 180.110382  L 310.366753 178.248437  L 312.221922 176.667326  L 314.077091 175.344308  L 315.93226 174.24645  L 317.787429 173.338001  L 320.570182 172.258764  L 323.352935 171.439691  L 327.063273 170.634861  L 331.701195 169.925942  L 337.266701 169.318712  L 344.687377 168.754304  L 352.108052 168.409891  L 362.311481 168.185699  L 379.935584 168.073882  L 398.487273 168.049087  L 398.487273 168.049087  "
           clip-path="url(#pbe4ce7e498)"
           style="fill: none; stroke: #1f77b4; stroke-width: 1.5; stroke-linecap: square"
           id="path356" />
      </g>
      <g
         id="line2d_19">
        <path
           d="M 73.832727 168.966119  L 74.760312 168.941373  L 76.615481 167.321729  L 78.470649 164.608614  L 80.325818 161.78742  L 81.253403 160.618985  L 82.180987 159.678518  L 83.108571 158.9689  L 84.036156 158.476513  L 84.96374 158.183188  L 85.891325 158.072612  L 86.818909 158.132261  L 87.746494 158.353407  L 88.674078 158.73064  L 89.601662 159.260689  L 90.529247 159.940447  L 92.384416 161.721642  L 94.239584 163.960071  L 97.949922 168.825476  L 99.805091 170.823706  L 100.732675 171.595432  L 101.66026 172.1891  L 102.587844 172.59521  L 103.515429 172.811605  L 104.443013 172.842375  L 105.370597 172.696964  L 106.298182 172.389664  L 108.153351 171.369572  L 110.008519 169.984503  L 113.718857 167.106247  L 115.574026 166.031717  L 117.429195 165.34474  L 119.284364 165.044307  L 121.139532 165.068113  L 122.994701 165.323541  L 131.342961 166.873162  L 134.125714 166.932796  L 136.908468 166.736798  L 146.184312 165.779114  L 148.967065 165.768503  L 152.677403 165.982555  L 161.025662 166.606605  L 164.736 166.643723  L 165.663584 166.625596  L 166.591169 211.514443  L 168.446338 220.454393  L 171.229091 232.484541  L 173.08426 239.656115  L 176.794597 253.077714  L 177.722182 256.685873  L 178.649766 259.236698  L 179.577351 259.356197  L 180.504935 256.569991  L 181.432519 251.916988  L 183.287688 240.187515  L 185.142857 226.631261  L 188.853195 196.920232  L 189.780779 192.591432  L 190.708364 189.520843  L 195.346286 168.43951  L 196.27387 165.262732  L 197.201455 161.421135  L 198.129039 159.57305  L 199.056623 156.155663  L 199.984208 155.65224  L 200.911792 152.611713  L 201.839377 153.046615  L 202.766961 150.658057  L 203.694545 151.417573  L 204.62213 150.018436  L 205.549714 150.721667  L 206.477299 150.337777  L 207.404883 151.005041  L 208.332468 151.381182  L 210.187636 153.05349  L 212.042805 155.254184  L 218.535896 163.778884  L 220.391065 165.465259  L 222.246234 166.615341  L 224.101403 167.26183  L 225.956571 167.489071  L 227.81174 167.410934  L 230.594494 166.990949  L 234.304831 166.411964  L 237.087584 166.241687  L 239.870338 166.379995  L 242.653091 166.806753  L 245.435844 167.453151  L 251.001351 169.053165  L 258.422026 171.133984  L 265.842701 173.198734  L 269.553039 174.445146  L 273.263377 175.938631  L 276.973714 177.72757  L 279.756468 179.28479  L 282.539221 181.043047  L 285.321974 183.018596  L 288.104727 185.227759  L 289.032312 186.018308  L 289.959896 141.823602  L 290.887481 138.637051  L 291.815065 136.002084  L 292.742649 133.912475  L 295.525403 129.020497  L 296.452987 129.269812  L 297.380571 131.029719  L 298.308156 133.897227  L 299.23574 137.477714  L 301.090909 146.091724  L 305.728831 169.669079  L 306.656416 172.249002  L 307.584 173.684768  L 308.511584 174.434091  L 309.439169 174.635593  L 310.366753 174.413262  L 311.294338 173.822979  L 312.221922 172.951608  L 314.077091 170.655882  L 317.787429 165.716045  L 319.642597 163.760206  L 320.570182 162.988591  L 321.497766 162.36827  L 322.425351 161.905199  L 323.352935 161.602713  L 324.280519 161.461782  L 325.208104 161.480995  L 326.135688 161.656301  L 327.063273 161.98074  L 327.990857 162.443983  L 329.846026 163.726884  L 331.701195 165.345484  L 335.411532 168.700921  L 337.266701 169.976648  L 338.194286 170.436616  L 339.12187 170.762617  L 340.049455 170.95049  L 340.977039 171.001584  L 341.904623 170.922203  L 343.759792 170.418594  L 345.614961 169.566683  L 351.180468 166.560375  L 353.035636 165.869662  L 354.890805 165.45129  L 356.745974 165.300731  L 358.601143 165.377925  L 361.383896 165.782883  L 366.949403 166.776807  L 369.732156 167.015624  L 372.514909 167.00301  L 376.225247 166.693248  L 382.718338 166.045708  L 386.428675 165.940834  L 391.066597 166.10951  L 398.487273 166.503804  L 398.487273 166.503804  "
           clip-path="url(#pbe4ce7e498)"
           style="fill: none; stroke: #ff7f0e; stroke-width: 1.5; stroke-linecap: square"
           id="path359" />
      </g>
      <g
         id="line2d_20">
        <path
           d="M 73.832727 168.966119  L 74.760312 168.57698  L 76.615481 170.055608  L 80.325818 174.850527  L 81.253403 175.528114  L 82.180987 175.732921  L 83.108571 175.448128  L 84.036156 174.71827  L 84.96374 173.625273  L 86.818909 170.743734  L 89.601662 166.03406  L 91.456831 163.368517  L 92.384416 162.283556  L 93.312 161.39139  L 94.239584 160.708265  L 95.167169 160.248183  L 96.094753 160.022639  L 97.022338 160.039635  L 97.949922 160.302147  L 98.877506 160.806562  L 99.805091 161.541524  L 100.732675 162.487597  L 102.587844 164.899297  L 105.370597 169.265043  L 108.153351 173.562376  L 110.008519 175.876776  L 110.936104 176.769262  L 111.863688 177.451009  L 112.791273 177.9045  L 113.718857 178.120395  L 114.646442 178.09844  L 115.574026 177.847809  L 116.50161 177.386862  L 117.429195 176.742352  L 119.284364 175.042754  L 123.922286 170.245675  L 125.777455 168.785512  L 127.632623 167.792324  L 128.560208 167.479722  L 130.415377 167.202822  L 132.270545 167.325963  L 134.125714 167.742635  L 137.836052 168.979668  L 140.618805 169.852134  L 142.473974 170.274619  L 144.329143 170.533296  L 146.184312 170.627871  L 148.967065 170.515202  L 159.170494 169.613772  L 162.880831 169.703726  L 165.663584 169.896381  L 166.591169 175.203837  L 168.446338 183.059045  L 170.301506 189.562284  L 172.156675 194.728143  L 173.08426 196.794432  L 174.011844 198.575956  L 174.939429 199.811795  L 175.867013 199.964484  L 176.794597 198.316623  L 177.722182 194.952785  L 178.649766 190.982184  L 179.577351 187.713199  L 180.504935 185.698411  L 181.432519 184.454165  L 187.92561 177.51897  L 188.853195 175.835092  L 190.708364 170.367879  L 191.635948 170.155211  L 192.563532 170.559163  L 193.491117 171.639536  L 194.418701 172.410927  L 195.346286 173.49224  L 196.27387 173.72322  L 197.201455 174.530591  L 198.129039 173.836579  L 199.056623 174.484211  L 199.984208 172.788865  L 200.911792 173.41016  L 201.839377 171.094199  L 202.766961 171.578723  L 203.694545 169.309225  L 204.62213 169.390685  L 205.549714 167.636349  L 206.477299 167.261385  L 207.404883 166.061786  L 208.332468 165.439257  L 209.260052 164.603627  L 212.042805 162.835919  L 213.897974 162.054276  L 215.753143 161.662702  L 217.608312 161.671371  L 219.463481 162.032279  L 221.318649 162.647607  L 227.81174 165.186047  L 229.666909 165.656974  L 231.522078 165.928162  L 233.377247 166.004064  L 236.16 165.827276  L 240.797922 165.16479  L 245.435844 164.565514  L 249.146182 164.316992  L 253.784104 164.288703  L 269.553039 164.548935  L 289.032312 164.109714  L 289.959896 161.978492  L 290.887481 157.936159  L 291.815065 154.543689  L 292.742649 151.698238  L 293.670234 149.369634  L 294.597818 148.462637  L 295.525403 150.550608  L 296.452987 152.222827  L 298.308156 156.432116  L 301.090909 163.150048  L 302.018494 165.110065  L 302.946078 166.780413  L 303.873662 168.118038  L 304.801247 169.15298  L 306.656416 170.760536  L 307.584 171.023755  L 308.511584 170.799545  L 313.149506 168.684643  L 318.715013 167.070197  L 320.570182 166.254218  L 327.990857 162.55316  L 329.846026 161.976333  L 331.701195 161.712975  L 333.556364 161.851209  L 334.483948 162.094662  L 335.411532 162.462248  L 337.266701 163.569516  L 339.12187 165.122995  L 341.904623 167.997378  L 344.687377 170.944212  L 346.542545 172.601353  L 348.397714 173.804499  L 349.325299 174.197853  L 350.252883 174.442036  L 351.180468 174.536228  L 352.108052 174.485208  L 353.035636 174.299029  L 354.890805 173.584063  L 356.745974 172.549005  L 361.383896 169.736117  L 363.239065 168.903243  L 365.094234 168.36169  L 366.949403 168.126737  L 368.804571 168.171996  L 370.65974 168.440075  L 373.442494 169.092688  L 378.080416 170.210742  L 380.863169 170.597322  L 383.645922 170.689404  L 386.428675 170.535389  L 396.632104 169.661231  L 398.487273 169.656954  L 398.487273 169.656954  "
           clip-path="url(#pbe4ce7e498)"
           style="fill: none; stroke: #2ca02c; stroke-width: 1.5; stroke-linecap: square"
           id="path362" />
      </g>
      <g
         id="line2d_21">
        <path
           d="M 73.832727 168.966119  L 74.760312 165.575641  L 75.687896 165.38158  L 76.615481 165.597544  L 78.470649 165.627698  L 80.325818 165.612396  L 81.253403 165.821553  L 82.180987 166.21516  L 86.818909 168.796351  L 87.746494 168.997366  L 88.674078 169.035171  L 89.601662 168.925486  L 91.456831 168.381382  L 96.094753 166.585714  L 97.949922 166.135275  L 99.805091 165.942798  L 101.66026 165.999033  L 104.443013 166.422926  L 111.863688 167.845884  L 115.574026 168.289695  L 118.356779 168.458141  L 121.139532 168.389769  L 123.922286 168.069759  L 129.487792 167.315083  L 132.270545 167.212255  L 135.980883 167.389039  L 141.54639 167.738698  L 146.184312 167.769667  L 165.663584 167.570061  L 166.591169 252.558921  L 167.518753 248.833912  L 168.446338 244.083556  L 169.373922 238.390629  L 171.229091 224.728346  L 173.08426 208.808955  L 174.939429 190.823309  L 176.794597 171.852283  L 177.722182 163.794239  L 178.649766 157.873739  L 179.577351 154.282404  L 180.504935 152.595186  L 181.432519 152.211926  L 182.360104 152.6647  L 183.287688 153.677598  L 184.215273 155.12151  L 185.142857 156.95348  L 186.070442 159.170425  L 186.998026 161.775115  L 188.853195 168.042071  L 189.780779 171.466904  L 190.708364 174.428719  L 191.635948 176.17216  L 192.563532 177.332005  L 194.418701 178.806263  L 196.27387 179.869385  L 197.201455 180.111731  L 198.129039 180.558733  L 199.056623 180.415535  L 199.984208 180.725069  L 200.911792 180.072874  L 201.839377 180.15423  L 202.766961 179.124939  L 203.694545 178.984729  L 204.62213 178.00998  L 205.549714 177.790258  L 206.477299 177.156336  L 207.404883 176.942535  L 208.332468 176.589675  L 212.97039 175.6988  L 214.825558 175.535053  L 216.680727 175.535674  L 218.535896 175.711716  L 221.318649 176.223449  L 225.956571 177.139729  L 228.739325 177.468029  L 231.522078 177.587682  L 235.232416 177.467693  L 246.363429 176.795229  L 252.856519 176.796375  L 267.69787 176.897513  L 286.249558 176.603652  L 289.032312 176.5443  L 289.959896 89.699803  L 290.887481 92.8154  L 291.815065 96.548583  L 293.670234 105.537744  L 294.597818 110.106878  L 295.525403 113.622498  L 297.380571 121.505733  L 299.23574 128.170537  L 305.728831 150.546828  L 307.584 157.755953  L 312.221922 177.290473  L 313.149506 180.27524  L 314.077091 182.664089  L 315.004675 184.417607  L 315.93226 185.500931  L 316.859844 185.887692  L 317.787429 185.564701  L 318.715013 184.53127  L 319.642597 182.801583  L 320.570182 180.411475  L 321.497766 177.44157  L 323.352935 170.711868  L 324.280519 167.823139  L 325.208104 165.641265  L 326.135688 164.085965  L 327.063273 163.040165  L 327.990857 162.426419  L 328.918442 162.192004  L 329.846026 162.294595  L 330.77361 162.693174  L 331.701195 163.340448  L 333.556364 165.12162  L 335.411532 166.973635  L 336.339117 167.710837  L 337.266701 168.251455  L 338.194286 168.582673  L 339.12187 168.718485  L 340.049455 168.691355  L 341.904623 168.323823  L 344.687377 167.63729  L 346.542545 167.423457  L 348.397714 167.468891  L 351.180468 167.841525  L 353.963221 168.222759  L 356.745974 168.343097  L 359.528727 168.172978  L 366.949403 167.438744  L 370.65974 167.411335  L 385.501091 167.758387  L 398.487273 167.571385  L 398.487273 167.571385  "
           clip-path="url(#pbe4ce7e498)"
           style="fill: none; stroke: #d62728; stroke-width: 1.5; stroke-linecap: square"
           id="path365" />
      </g>
      <g
         id="patch_3">
        <path
           d="M 57.6 307.584  L 57.6 41.472  "
           style="fill: none; stroke: #000000; stroke-width: 0.8; stroke-linejoin: miter; stroke-linecap: square"
           id="path368" />
      </g>
      <g
         id="patch_4">
        <path
           d="M 414.72 307.584  L 414.72 41.472  "
           style="fill: none; stroke: #000000; stroke-width: 0.8; stroke-linejoin: miter; stroke-linecap: square"
           id="path371" />
      </g>
      <g
         id="patch_5">
        <path
           d="M 57.6 307.584  L 414.72 307.584  "
           style="fill: none; stroke: #000000; stroke-width: 0.8; stroke-linejoin: miter; stroke-linecap: square"
           id="path374" />
      </g>
      <g
         id="patch_6">
        <path
           d="M 57.6 41.472  L 414.72 41.472  "
           style="fill: none; stroke: #000000; stroke-width: 0.8; stroke-linejoin: miter; stroke-linecap: square"
           id="path377" />
      </g>
      <g
         id="legend_1">
        <g
           id="patch_7">
          <path
             d="M 362.32 108.1845  L 407.72 108.1845  Q 409.72 108.1845 409.72 106.1845  L 409.72 48.472  Q 409.72 46.472 407.72 46.472  L 362.32 46.472  Q 360.32 46.472 360.32 48.472  L 360.32 106.1845  Q 360.32 108.1845 362.32 108.1845  z "
             style="fill: #ffffff; opacity: 0.8; stroke: #cccccc; stroke-linejoin: miter"
             id="path380" />
        </g>
        <g
           id="line2d_22">
          <path
             d="M 364.32 54.570438  L 374.32 54.570438  L 384.32 54.570438  "
             style="fill: none; stroke: #1f77b4; stroke-width: 1.5; stroke-linecap: square"
             id="path383" />
        </g>
        <g
           id="text_20">
          <!-- $M_1$ -->
          <g
             transform="translate(392.32 58.070438)scale(0.1 -0.1)"
             id="g393">
            <defs
               id="defs387">
              <path
                 id="DejaVuSans-Oblique-4d"
                 d="M 1081 4666  L 2028 4666  L 2572 1522  L 4378 4666  L 5350 4666  L 4441 0  L 3828 0  L 4622 4091  L 2791 897  L 2175 897  L 1581 4103  L 788 0  L 172 0  L 1081 4666  z "
                 transform="scale(0.015625)" />
            </defs>
            <use
               xlink:href="#DejaVuSans-Oblique-4d"
               transform="translate(0 0.09375)"
               id="use389" />
            <use
               xlink:href="#DejaVuSans-31"
               transform="translate(86.279297 -16.3125)scale(0.7)"
               id="use391" />
          </g>
        </g>
        <g
           id="line2d_23">
          <path
             d="M 364.32 69.248563  L 374.32 69.248563  L 384.32 69.248563  "
             style="fill: none; stroke: #ff7f0e; stroke-width: 1.5; stroke-linecap: square"
             id="path396" />
        </g>
        <g
           id="text_21">
          <!-- $M_2$ -->
          <g
             transform="translate(392.32 72.748563)scale(0.1 -0.1)"
             id="g403">
            <use
               xlink:href="#DejaVuSans-Oblique-4d"
               transform="translate(0 0.09375)"
               id="use399" />
            <use
               xlink:href="#DejaVuSans-32"
               transform="translate(86.279297 -16.3125)scale(0.7)"
               id="use401" />
          </g>
        </g>
        <g
           id="line2d_24">
          <path
             d="M 364.32 83.926688  L 374.32 83.926688  L 384.32 83.926688  "
             style="fill: none; stroke: #2ca02c; stroke-width: 1.5; stroke-linecap: square"
             id="path406" />
        </g>
        <g
           id="text_22">
          <!-- $M_3$ -->
          <g
             transform="translate(392.32 87.426688)scale(0.1 -0.1)"
             id="g413">
            <use
               xlink:href="#DejaVuSans-Oblique-4d"
               transform="translate(0 0.09375)"
               id="use409" />
            <use
               xlink:href="#DejaVuSans-33"
               transform="translate(86.279297 -16.3125)scale(0.7)"
               id="use411" />
          </g>
        </g>
        <g
           id="line2d_25">
          <path
             d="M 364.32 98.604813  L 374.32 98.604813  L 384.32 98.604813  "
             style="fill: none; stroke: #d62728; stroke-width: 1.5; stroke-linecap: square"
             id="path416" />
        </g>
        <g
           id="text_23">
          <!-- $M_4$ -->
          <g
             transform="translate(392.32 102.104813)scale(0.1 -0.1)"
             id="g423">
            <use
               xlink:href="#DejaVuSans-Oblique-4d"
               transform="translate(0 0.09375)"
               id="use419" />
            <use
               xlink:href="#DejaVuSans-34"
               transform="translate(86.279297 -16.3125)scale(0.7)"
               id="use421" />
          </g>
        </g>
      </g>
    </g>
  </g>
  <g
     id="text_25"
     style="stroke-linecap:butt;stroke-linejoin:round"
     transform="translate(16.268751,5.8691406)">
    <!-- $|e_{ri}|$ -->
    <g
       transform="matrix(0,-0.1,-0.1,0,13.554687,183.528)"
       id="g486">
      <defs
         id="defs474">
        <path
           id="path459"
           d="M 1344,4891 V -1509 H 813 v 6400 z"
           transform="scale(0.015625)" />
        <path
           id="path461"
           d="m 3078,2063 q 10,50 14,103 5,53 5,106 0,381 -224,603 -223,222 -607,222 -428,0 -757,-271 -328,-270 -496,-767 z m 500,-450 H 903 q -19,-119 -25,-188 -6,-69 -6,-119 0,-434 267,-672 267,-237 755,-237 375,0 709,84 335,85 622,247 L 3116,159 Q 2806,34 2476,-28 2147,-91 1806,-91 1078,-91 686,257 294,606 294,1247 q 0,547 195,1017 195,470 574,839 243,231 579,356 336,125 714,125 594,0 945,-356 352,-356 352,-956 0,-144 -19,-308 -18,-164 -56,-351 z"
           transform="scale(0.015625)" />
        <path
           id="path463"
           d="m 2853,2969 q -87,47 -200,72 -112,25 -240,25 -460,0 -804,-349 -343,-348 -456,-933 L 800,0 H 225 l 684,3500 h 575 l -109,-544 q 228,303 545,465 318,163 677,163 94,0 184,-11 91,-10 182,-35 z"
           transform="scale(0.015625)" />
        <path
           id="path465"
           d="m 1172,4863 h 575 L 1606,4134 H 1031 Z M 909,3500 h 575 L 800,0 H 225 Z"
           transform="scale(0.015625)" />
      </defs>
      <use
         xlink:href="#DejaVuSans-7c"
         transform="translate(0,0.578125)"
         id="use476"
         x="0"
         y="0"
         width="100%"
         height="100%" />
      <use
         xlink:href="#DejaVuSans-Oblique-65-9"
         transform="translate(33.691406,0.578125)"
         id="use478"
         x="0"
         y="0"
         width="100%"
         height="100%" />
      <use
         xlink:href="#DejaVuSans-Oblique-72-2"
         transform="matrix(0.7,0,0,0.7,95.214844,-15.828125)"
         id="use480"
         x="0"
         y="0"
         width="100%"
         height="100%" />
      <use
         xlink:href="#DejaVuSans-Oblique-69-6"
         transform="matrix(0.7,0,0,0.7,123.99414,-15.828125)"
         id="use482"
         x="0"
         y="0"
         width="100%"
         height="100%" />
      <use
         xlink:href="#DejaVuSans-7c"
         transform="translate(146.17676,0.578125)"
         id="use484"
         x="0"
         y="0"
         width="100%"
         height="100%" />
    </g>
  </g>
  <defs
     id="defs432">
    <clipPath
       id="pbe4ce7e498">
      <rect
         x="57.6"
         y="41.472"
         width="357.12"
         height="266.112"
         id="rect429" />
    </clipPath>
  </defs>
</svg>
