<?xml version="1.0" encoding="utf-8" standalone="no"?>
<!DOCTYPE svg PUBLIC "-//W3C//DTD SVG 1.1//EN"
  "http://www.w3.org/Graphics/SVG/1.1/DTD/svg11.dtd">
<svg xmlns:xlink="http://www.w3.org/1999/xlink" width="460.8pt" height="345.6pt" viewBox="0 0 460.8 345.6" xmlns="http://www.w3.org/2000/svg" version="1.1">
 <metadata>
  <rdf:RDF xmlns:dc="http://purl.org/dc/elements/1.1/" xmlns:cc="http://creativecommons.org/ns#" xmlns:rdf="http://www.w3.org/1999/02/22-rdf-syntax-ns#">
   <cc:Work>
    <dc:type rdf:resource="http://purl.org/dc/dcmitype/StillImage"/>
    <dc:date>2022-07-03T16:24:21.422790</dc:date>
    <dc:format>image/svg+xml</dc:format>
    <dc:creator>
     <cc:Agent>
      <dc:title>Matplotlib v3.5.1, https://matplotlib.org/</dc:title>
     </cc:Agent>
    </dc:creator>
   </cc:Work>
  </rdf:RDF>
 </metadata>
 <defs>
  <style type="text/css">*{stroke-linejoin: round; stroke-linecap: butt}</style>
 </defs>
 <g id="figure_1">
  <g id="patch_1">
   <path d="M 0 345.6 
L 460.8 345.6 
L 460.8 0 
L 0 0 
z
" style="fill: #ffffff"/>
  </g>
  <g id="axes_1">
   <g id="patch_2">
    <path d="M 57.6 307.584 
L 414.72 307.584 
L 414.72 41.472 
L 57.6 41.472 
z
" style="fill: #ffffff"/>
   </g>
   <g id="matplotlib.axis_1">
    <g id="xtick_1">
     <g id="line2d_1">
      <defs>
       <path id="m6e016a90c5" d="M 0 0 
L 0 3.5 
" style="stroke: #000000; stroke-width: 0.8"/>
      </defs>
      <g>
       <use xlink:href="#m6e016a90c5" x="73.832727" y="307.584" style="stroke: #000000; stroke-width: 0.8"/>
      </g>
     </g>
     <g id="text_1">
      <!-- 0 -->
      <g transform="translate(70.651477 322.182437)scale(0.1 -0.1)">
       <defs>
        <path id="DejaVuSans-30" d="M 2034 4250 
Q 1547 4250 1301 3770 
Q 1056 3291 1056 2328 
Q 1056 1369 1301 889 
Q 1547 409 2034 409 
Q 2525 409 2770 889 
Q 3016 1369 3016 2328 
Q 3016 3291 2770 3770 
Q 2525 4250 2034 4250 
z
M 2034 4750 
Q 2819 4750 3233 4129 
Q 3647 3509 3647 2328 
Q 3647 1150 3233 529 
Q 2819 -91 2034 -91 
Q 1250 -91 836 529 
Q 422 1150 422 2328 
Q 422 3509 836 4129 
Q 1250 4750 2034 4750 
z
" transform="scale(0.015625)"/>
       </defs>
       <use xlink:href="#DejaVuSans-30"/>
      </g>
     </g>
    </g>
    <g id="xtick_2">
     <g id="line2d_2">
      <g>
       <use xlink:href="#m6e016a90c5" x="140.088757" y="307.584" style="stroke: #000000; stroke-width: 0.8"/>
      </g>
     </g>
     <g id="text_2">
      <!-- 10 -->
      <g transform="translate(133.726257 322.182437)scale(0.1 -0.1)">
       <defs>
        <path id="DejaVuSans-31" d="M 794 531 
L 1825 531 
L 1825 4091 
L 703 3866 
L 703 4441 
L 1819 4666 
L 2450 4666 
L 2450 531 
L 3481 531 
L 3481 0 
L 794 0 
L 794 531 
z
" transform="scale(0.015625)"/>
       </defs>
       <use xlink:href="#DejaVuSans-31"/>
       <use xlink:href="#DejaVuSans-30" x="63.623047"/>
      </g>
     </g>
    </g>
    <g id="xtick_3">
     <g id="line2d_3">
      <g>
       <use xlink:href="#m6e016a90c5" x="206.344787" y="307.584" style="stroke: #000000; stroke-width: 0.8"/>
      </g>
     </g>
     <g id="text_3">
      <!-- 20 -->
      <g transform="translate(199.982287 322.182437)scale(0.1 -0.1)">
       <defs>
        <path id="DejaVuSans-32" d="M 1228 531 
L 3431 531 
L 3431 0 
L 469 0 
L 469 531 
Q 828 903 1448 1529 
Q 2069 2156 2228 2338 
Q 2531 2678 2651 2914 
Q 2772 3150 2772 3378 
Q 2772 3750 2511 3984 
Q 2250 4219 1831 4219 
Q 1534 4219 1204 4116 
Q 875 4013 500 3803 
L 500 4441 
Q 881 4594 1212 4672 
Q 1544 4750 1819 4750 
Q 2544 4750 2975 4387 
Q 3406 4025 3406 3419 
Q 3406 3131 3298 2873 
Q 3191 2616 2906 2266 
Q 2828 2175 2409 1742 
Q 1991 1309 1228 531 
z
" transform="scale(0.015625)"/>
       </defs>
       <use xlink:href="#DejaVuSans-32"/>
       <use xlink:href="#DejaVuSans-30" x="63.623047"/>
      </g>
     </g>
    </g>
    <g id="xtick_4">
     <g id="line2d_4">
      <g>
       <use xlink:href="#m6e016a90c5" x="272.600816" y="307.584" style="stroke: #000000; stroke-width: 0.8"/>
      </g>
     </g>
     <g id="text_4">
      <!-- 30 -->
      <g transform="translate(266.238316 322.182437)scale(0.1 -0.1)">
       <defs>
        <path id="DejaVuSans-33" d="M 2597 2516 
Q 3050 2419 3304 2112 
Q 3559 1806 3559 1356 
Q 3559 666 3084 287 
Q 2609 -91 1734 -91 
Q 1441 -91 1130 -33 
Q 819 25 488 141 
L 488 750 
Q 750 597 1062 519 
Q 1375 441 1716 441 
Q 2309 441 2620 675 
Q 2931 909 2931 1356 
Q 2931 1769 2642 2001 
Q 2353 2234 1838 2234 
L 1294 2234 
L 1294 2753 
L 1863 2753 
Q 2328 2753 2575 2939 
Q 2822 3125 2822 3475 
Q 2822 3834 2567 4026 
Q 2313 4219 1838 4219 
Q 1578 4219 1281 4162 
Q 984 4106 628 3988 
L 628 4550 
Q 988 4650 1302 4700 
Q 1616 4750 1894 4750 
Q 2613 4750 3031 4423 
Q 3450 4097 3450 3541 
Q 3450 3153 3228 2886 
Q 3006 2619 2597 2516 
z
" transform="scale(0.015625)"/>
       </defs>
       <use xlink:href="#DejaVuSans-33"/>
       <use xlink:href="#DejaVuSans-30" x="63.623047"/>
      </g>
     </g>
    </g>
    <g id="xtick_5">
     <g id="line2d_5">
      <g>
       <use xlink:href="#m6e016a90c5" x="338.856846" y="307.584" style="stroke: #000000; stroke-width: 0.8"/>
      </g>
     </g>
     <g id="text_5">
      <!-- 40 -->
      <g transform="translate(332.494346 322.182437)scale(0.1 -0.1)">
       <defs>
        <path id="DejaVuSans-34" d="M 2419 4116 
L 825 1625 
L 2419 1625 
L 2419 4116 
z
M 2253 4666 
L 3047 4666 
L 3047 1625 
L 3713 1625 
L 3713 1100 
L 3047 1100 
L 3047 0 
L 2419 0 
L 2419 1100 
L 313 1100 
L 313 1709 
L 2253 4666 
z
" transform="scale(0.015625)"/>
       </defs>
       <use xlink:href="#DejaVuSans-34"/>
       <use xlink:href="#DejaVuSans-30" x="63.623047"/>
      </g>
     </g>
    </g>
    <g id="xtick_6">
     <g id="line2d_6">
      <g>
       <use xlink:href="#m6e016a90c5" x="405.112876" y="307.584" style="stroke: #000000; stroke-width: 0.8"/>
      </g>
     </g>
     <g id="text_6">
      <!-- 50 -->
      <g transform="translate(398.750376 322.182437)scale(0.1 -0.1)">
       <defs>
        <path id="DejaVuSans-35" d="M 691 4666 
L 3169 4666 
L 3169 4134 
L 1269 4134 
L 1269 2991 
Q 1406 3038 1543 3061 
Q 1681 3084 1819 3084 
Q 2600 3084 3056 2656 
Q 3513 2228 3513 1497 
Q 3513 744 3044 326 
Q 2575 -91 1722 -91 
Q 1428 -91 1123 -41 
Q 819 9 494 109 
L 494 744 
Q 775 591 1075 516 
Q 1375 441 1709 441 
Q 2250 441 2565 725 
Q 2881 1009 2881 1497 
Q 2881 1984 2565 2268 
Q 2250 2553 1709 2553 
Q 1456 2553 1204 2497 
Q 953 2441 691 2322 
L 691 4666 
z
" transform="scale(0.015625)"/>
       </defs>
       <use xlink:href="#DejaVuSans-35"/>
       <use xlink:href="#DejaVuSans-30" x="63.623047"/>
      </g>
     </g>
    </g>
    <g id="text_7">
     <!-- iteration -->
     <g transform="translate(215.037344 335.860562)scale(0.1 -0.1)">
      <defs>
       <path id="DejaVuSans-69" d="M 603 3500 
L 1178 3500 
L 1178 0 
L 603 0 
L 603 3500 
z
M 603 4863 
L 1178 4863 
L 1178 4134 
L 603 4134 
L 603 4863 
z
" transform="scale(0.015625)"/>
       <path id="DejaVuSans-74" d="M 1172 4494 
L 1172 3500 
L 2356 3500 
L 2356 3053 
L 1172 3053 
L 1172 1153 
Q 1172 725 1289 603 
Q 1406 481 1766 481 
L 2356 481 
L 2356 0 
L 1766 0 
Q 1100 0 847 248 
Q 594 497 594 1153 
L 594 3053 
L 172 3053 
L 172 3500 
L 594 3500 
L 594 4494 
L 1172 4494 
z
" transform="scale(0.015625)"/>
       <path id="DejaVuSans-65" d="M 3597 1894 
L 3597 1613 
L 953 1613 
Q 991 1019 1311 708 
Q 1631 397 2203 397 
Q 2534 397 2845 478 
Q 3156 559 3463 722 
L 3463 178 
Q 3153 47 2828 -22 
Q 2503 -91 2169 -91 
Q 1331 -91 842 396 
Q 353 884 353 1716 
Q 353 2575 817 3079 
Q 1281 3584 2069 3584 
Q 2775 3584 3186 3129 
Q 3597 2675 3597 1894 
z
M 3022 2063 
Q 3016 2534 2758 2815 
Q 2500 3097 2075 3097 
Q 1594 3097 1305 2825 
Q 1016 2553 972 2059 
L 3022 2063 
z
" transform="scale(0.015625)"/>
       <path id="DejaVuSans-72" d="M 2631 2963 
Q 2534 3019 2420 3045 
Q 2306 3072 2169 3072 
Q 1681 3072 1420 2755 
Q 1159 2438 1159 1844 
L 1159 0 
L 581 0 
L 581 3500 
L 1159 3500 
L 1159 2956 
Q 1341 3275 1631 3429 
Q 1922 3584 2338 3584 
Q 2397 3584 2469 3576 
Q 2541 3569 2628 3553 
L 2631 2963 
z
" transform="scale(0.015625)"/>
       <path id="DejaVuSans-61" d="M 2194 1759 
Q 1497 1759 1228 1600 
Q 959 1441 959 1056 
Q 959 750 1161 570 
Q 1363 391 1709 391 
Q 2188 391 2477 730 
Q 2766 1069 2766 1631 
L 2766 1759 
L 2194 1759 
z
M 3341 1997 
L 3341 0 
L 2766 0 
L 2766 531 
Q 2569 213 2275 61 
Q 1981 -91 1556 -91 
Q 1019 -91 701 211 
Q 384 513 384 1019 
Q 384 1609 779 1909 
Q 1175 2209 1959 2209 
L 2766 2209 
L 2766 2266 
Q 2766 2663 2505 2880 
Q 2244 3097 1772 3097 
Q 1472 3097 1187 3025 
Q 903 2953 641 2809 
L 641 3341 
Q 956 3463 1253 3523 
Q 1550 3584 1831 3584 
Q 2591 3584 2966 3190 
Q 3341 2797 3341 1997 
z
" transform="scale(0.015625)"/>
       <path id="DejaVuSans-6f" d="M 1959 3097 
Q 1497 3097 1228 2736 
Q 959 2375 959 1747 
Q 959 1119 1226 758 
Q 1494 397 1959 397 
Q 2419 397 2687 759 
Q 2956 1122 2956 1747 
Q 2956 2369 2687 2733 
Q 2419 3097 1959 3097 
z
M 1959 3584 
Q 2709 3584 3137 3096 
Q 3566 2609 3566 1747 
Q 3566 888 3137 398 
Q 2709 -91 1959 -91 
Q 1206 -91 779 398 
Q 353 888 353 1747 
Q 353 2609 779 3096 
Q 1206 3584 1959 3584 
z
" transform="scale(0.015625)"/>
       <path id="DejaVuSans-6e" d="M 3513 2113 
L 3513 0 
L 2938 0 
L 2938 2094 
Q 2938 2591 2744 2837 
Q 2550 3084 2163 3084 
Q 1697 3084 1428 2787 
Q 1159 2491 1159 1978 
L 1159 0 
L 581 0 
L 581 3500 
L 1159 3500 
L 1159 2956 
Q 1366 3272 1645 3428 
Q 1925 3584 2291 3584 
Q 2894 3584 3203 3211 
Q 3513 2838 3513 2113 
z
" transform="scale(0.015625)"/>
      </defs>
      <use xlink:href="#DejaVuSans-69"/>
      <use xlink:href="#DejaVuSans-74" x="27.783203"/>
      <use xlink:href="#DejaVuSans-65" x="66.992188"/>
      <use xlink:href="#DejaVuSans-72" x="128.515625"/>
      <use xlink:href="#DejaVuSans-61" x="169.628906"/>
      <use xlink:href="#DejaVuSans-74" x="230.908203"/>
      <use xlink:href="#DejaVuSans-69" x="270.117188"/>
      <use xlink:href="#DejaVuSans-6f" x="297.900391"/>
      <use xlink:href="#DejaVuSans-6e" x="359.082031"/>
     </g>
    </g>
   </g>
   <g id="matplotlib.axis_2">
    <g id="ytick_1">
     <g id="line2d_7">
      <defs>
       <path id="m53963f6717" d="M 0 0 
L -3.5 0 
" style="stroke: #000000; stroke-width: 0.8"/>
      </defs>
      <g>
       <use xlink:href="#m53963f6717" x="57.6" y="297.379018" style="stroke: #000000; stroke-width: 0.8"/>
      </g>
     </g>
     <g id="text_8">
      <!-- 10 -->
      <g transform="translate(37.875 301.178236)scale(0.1 -0.1)">
       <use xlink:href="#DejaVuSans-31"/>
       <use xlink:href="#DejaVuSans-30" x="63.623047"/>
      </g>
     </g>
    </g>
    <g id="ytick_2">
     <g id="line2d_8">
      <g>
       <use xlink:href="#m53963f6717" x="57.6" y="263.483539" style="stroke: #000000; stroke-width: 0.8"/>
      </g>
     </g>
     <g id="text_9">
      <!-- 20 -->
      <g transform="translate(37.875 267.282757)scale(0.1 -0.1)">
       <use xlink:href="#DejaVuSans-32"/>
       <use xlink:href="#DejaVuSans-30" x="63.623047"/>
      </g>
     </g>
    </g>
    <g id="ytick_3">
     <g id="line2d_9">
      <g>
       <use xlink:href="#m53963f6717" x="57.6" y="229.58806" style="stroke: #000000; stroke-width: 0.8"/>
      </g>
     </g>
     <g id="text_10">
      <!-- 30 -->
      <g transform="translate(37.875 233.387279)scale(0.1 -0.1)">
       <use xlink:href="#DejaVuSans-33"/>
       <use xlink:href="#DejaVuSans-30" x="63.623047"/>
      </g>
     </g>
    </g>
    <g id="ytick_4">
     <g id="line2d_10">
      <g>
       <use xlink:href="#m53963f6717" x="57.6" y="195.692581" style="stroke: #000000; stroke-width: 0.8"/>
      </g>
     </g>
     <g id="text_11">
      <!-- 40 -->
      <g transform="translate(37.875 199.4918)scale(0.1 -0.1)">
       <use xlink:href="#DejaVuSans-34"/>
       <use xlink:href="#DejaVuSans-30" x="63.623047"/>
      </g>
     </g>
    </g>
    <g id="ytick_5">
     <g id="line2d_11">
      <g>
       <use xlink:href="#m53963f6717" x="57.6" y="161.797102" style="stroke: #000000; stroke-width: 0.8"/>
      </g>
     </g>
     <g id="text_12">
      <!-- 50 -->
      <g transform="translate(37.875 165.596321)scale(0.1 -0.1)">
       <use xlink:href="#DejaVuSans-35"/>
       <use xlink:href="#DejaVuSans-30" x="63.623047"/>
      </g>
     </g>
    </g>
    <g id="ytick_6">
     <g id="line2d_12">
      <g>
       <use xlink:href="#m53963f6717" x="57.6" y="127.901623" style="stroke: #000000; stroke-width: 0.8"/>
      </g>
     </g>
     <g id="text_13">
      <!-- 60 -->
      <g transform="translate(37.875 131.700842)scale(0.1 -0.1)">
       <defs>
        <path id="DejaVuSans-36" d="M 2113 2584 
Q 1688 2584 1439 2293 
Q 1191 2003 1191 1497 
Q 1191 994 1439 701 
Q 1688 409 2113 409 
Q 2538 409 2786 701 
Q 3034 994 3034 1497 
Q 3034 2003 2786 2293 
Q 2538 2584 2113 2584 
z
M 3366 4563 
L 3366 3988 
Q 3128 4100 2886 4159 
Q 2644 4219 2406 4219 
Q 1781 4219 1451 3797 
Q 1122 3375 1075 2522 
Q 1259 2794 1537 2939 
Q 1816 3084 2150 3084 
Q 2853 3084 3261 2657 
Q 3669 2231 3669 1497 
Q 3669 778 3244 343 
Q 2819 -91 2113 -91 
Q 1303 -91 875 529 
Q 447 1150 447 2328 
Q 447 3434 972 4092 
Q 1497 4750 2381 4750 
Q 2619 4750 2861 4703 
Q 3103 4656 3366 4563 
z
" transform="scale(0.015625)"/>
       </defs>
       <use xlink:href="#DejaVuSans-36"/>
       <use xlink:href="#DejaVuSans-30" x="63.623047"/>
      </g>
     </g>
    </g>
    <g id="ytick_7">
     <g id="line2d_13">
      <g>
       <use xlink:href="#m53963f6717" x="57.6" y="94.006144" style="stroke: #000000; stroke-width: 0.8"/>
      </g>
     </g>
     <g id="text_14">
      <!-- 70 -->
      <g transform="translate(37.875 97.805363)scale(0.1 -0.1)">
       <defs>
        <path id="DejaVuSans-37" d="M 525 4666 
L 3525 4666 
L 3525 4397 
L 1831 0 
L 1172 0 
L 2766 4134 
L 525 4134 
L 525 4666 
z
" transform="scale(0.015625)"/>
       </defs>
       <use xlink:href="#DejaVuSans-37"/>
       <use xlink:href="#DejaVuSans-30" x="63.623047"/>
      </g>
     </g>
    </g>
    <g id="ytick_8">
     <g id="line2d_14">
      <g>
       <use xlink:href="#m53963f6717" x="57.6" y="60.110665" style="stroke: #000000; stroke-width: 0.8"/>
      </g>
     </g>
     <g id="text_15">
      <!-- 80 -->
      <g transform="translate(37.875 63.909884)scale(0.1 -0.1)">
       <defs>
        <path id="DejaVuSans-38" d="M 2034 2216 
Q 1584 2216 1326 1975 
Q 1069 1734 1069 1313 
Q 1069 891 1326 650 
Q 1584 409 2034 409 
Q 2484 409 2743 651 
Q 3003 894 3003 1313 
Q 3003 1734 2745 1975 
Q 2488 2216 2034 2216 
z
M 1403 2484 
Q 997 2584 770 2862 
Q 544 3141 544 3541 
Q 544 4100 942 4425 
Q 1341 4750 2034 4750 
Q 2731 4750 3128 4425 
Q 3525 4100 3525 3541 
Q 3525 3141 3298 2862 
Q 3072 2584 2669 2484 
Q 3125 2378 3379 2068 
Q 3634 1759 3634 1313 
Q 3634 634 3220 271 
Q 2806 -91 2034 -91 
Q 1263 -91 848 271 
Q 434 634 434 1313 
Q 434 1759 690 2068 
Q 947 2378 1403 2484 
z
M 1172 3481 
Q 1172 3119 1398 2916 
Q 1625 2713 2034 2713 
Q 2441 2713 2670 2916 
Q 2900 3119 2900 3481 
Q 2900 3844 2670 4047 
Q 2441 4250 2034 4250 
Q 1625 4250 1398 4047 
Q 1172 3844 1172 3481 
z
" transform="scale(0.015625)"/>
       </defs>
       <use xlink:href="#DejaVuSans-38"/>
       <use xlink:href="#DejaVuSans-30" x="63.623047"/>
      </g>
     </g>
    </g>
    <g id="text_16">
     <!-- fitness -->
     <g transform="translate(31.795312 191.092062)rotate(-90)scale(0.1 -0.1)">
      <defs>
       <path id="DejaVuSans-66" d="M 2375 4863 
L 2375 4384 
L 1825 4384 
Q 1516 4384 1395 4259 
Q 1275 4134 1275 3809 
L 1275 3500 
L 2222 3500 
L 2222 3053 
L 1275 3053 
L 1275 0 
L 697 0 
L 697 3053 
L 147 3053 
L 147 3500 
L 697 3500 
L 697 3744 
Q 697 4328 969 4595 
Q 1241 4863 1831 4863 
L 2375 4863 
z
" transform="scale(0.015625)"/>
       <path id="DejaVuSans-73" d="M 2834 3397 
L 2834 2853 
Q 2591 2978 2328 3040 
Q 2066 3103 1784 3103 
Q 1356 3103 1142 2972 
Q 928 2841 928 2578 
Q 928 2378 1081 2264 
Q 1234 2150 1697 2047 
L 1894 2003 
Q 2506 1872 2764 1633 
Q 3022 1394 3022 966 
Q 3022 478 2636 193 
Q 2250 -91 1575 -91 
Q 1294 -91 989 -36 
Q 684 19 347 128 
L 347 722 
Q 666 556 975 473 
Q 1284 391 1588 391 
Q 1994 391 2212 530 
Q 2431 669 2431 922 
Q 2431 1156 2273 1281 
Q 2116 1406 1581 1522 
L 1381 1569 
Q 847 1681 609 1914 
Q 372 2147 372 2553 
Q 372 3047 722 3315 
Q 1072 3584 1716 3584 
Q 2034 3584 2315 3537 
Q 2597 3491 2834 3397 
z
" transform="scale(0.015625)"/>
      </defs>
      <use xlink:href="#DejaVuSans-66"/>
      <use xlink:href="#DejaVuSans-69" x="35.205078"/>
      <use xlink:href="#DejaVuSans-74" x="62.988281"/>
      <use xlink:href="#DejaVuSans-6e" x="102.197266"/>
      <use xlink:href="#DejaVuSans-65" x="165.576172"/>
      <use xlink:href="#DejaVuSans-73" x="227.099609"/>
      <use xlink:href="#DejaVuSans-73" x="279.199219"/>
     </g>
    </g>
   </g>
   <g id="line2d_15">
    <path d="M 73.832727 295.488 
L 80.45833 282.989547 
L 87.083933 266.600282 
L 93.709536 271.816257 
L 100.335139 277.93021 
L 106.960742 272.04933 
L 113.586345 270.882815 
L 120.211948 268.340778 
L 126.837551 263.996358 
L 133.463154 271.804536 
L 140.088757 268.704462 
L 146.71436 270.126697 
L 153.339963 255.379477 
L 159.965566 265.8938 
L 166.591169 260.880906 
L 173.216772 269.542203 
L 179.842375 260.679081 
L 186.467978 258.558681 
L 193.093581 263.811241 
L 199.719184 259.672312 
L 206.344787 252.629027 
L 212.97039 246.345963 
L 219.595993 244.682837 
L 226.221596 245.647037 
L 232.847199 236.891927 
L 239.472801 251.717856 
L 246.098404 256.318071 
L 252.724007 261.670801 
L 259.34961 247.216317 
L 265.975213 242.817381 
L 272.600816 231.040438 
L 279.226419 237.99969 
L 285.852022 222.433633 
L 292.477625 238.453181 
L 299.103228 236.061958 
L 305.728831 236.165337 
L 312.354434 246.039679 
L 318.980037 225.451029 
L 325.60564 241.738769 
L 332.231243 225.063977 
L 338.856846 248.69315 
L 345.482449 242.630469 
L 352.108052 233.477098 
L 358.733655 238.370248 
L 365.359258 255.46868 
L 371.984861 221.259023 
L 378.610464 216.267693 
L 385.236067 236.107277 
L 391.86167 231.304811 
L 398.487273 226.438865 
" clip-path="url(#p3e4646d110)" style="fill: none; stroke: #1f77b4; stroke-width: 0.5; stroke-linecap: square"/>
   </g>
   <g id="line2d_16">
    <path d="M 73.832727 252.680859 
L 80.45833 263.624813 
L 87.083933 260.789177 
L 93.709536 260.061151 
L 100.335139 253.685835 
L 106.960742 260.218662 
L 113.586345 250.300062 
L 120.211948 248.415953 
L 126.837551 235.051853 
L 133.463154 251.133903 
L 140.088757 245.402507 
L 146.71436 244.350634 
L 153.339963 228.929966 
L 159.965566 229.724454 
L 166.591169 216.664686 
L 173.216772 232.666109 
L 179.842375 217.409333 
L 186.467978 211.186617 
L 193.093581 219.83442 
L 199.719184 214.165958 
L 206.344787 205.511163 
L 212.97039 187.759777 
L 219.595993 203.297926 
L 226.221596 206.792189 
L 232.847199 208.026031 
L 239.472801 195.246169 
L 246.098404 169.455687 
L 252.724007 180.552824 
L 259.34961 196.764748 
L 265.975213 197.109657 
L 272.600816 162.679288 
L 279.226419 179.834935 
L 285.852022 184.993779 
L 292.477625 186.297958 
L 299.103228 147.997778 
L 305.728831 113.094912 
L 312.354434 154.407849 
L 318.980037 120.843733 
L 325.60564 150.531126 
L 332.231243 155.94635 
L 338.856846 125.185579 
L 345.482449 143.900771 
L 352.108052 156.51769 
L 358.733655 113.843835 
L 365.359258 129.803153 
L 371.984861 132.502797 
L 378.610464 115.51287 
L 385.236067 111.038569 
L 391.86167 117.478671 
L 398.487273 112.472529 
" clip-path="url(#p3e4646d110)" style="fill: none; stroke: #ff7f0e; stroke-width: 0.5; stroke-linecap: square"/>
   </g>
   <g id="line2d_17">
    <path d="M 73.832727 257.831326 
L 80.45833 259.254007 
L 87.083933 262.792611 
L 93.709536 253.763245 
L 100.335139 254.769082 
L 106.960742 265.021571 
L 113.586345 240.689191 
L 120.211948 246.192371 
L 126.837551 250.645609 
L 133.463154 252.427816 
L 140.088757 243.595568 
L 146.71436 242.5034 
L 153.339963 237.799618 
L 159.965566 240.089215 
L 166.591169 231.902852 
L 173.216772 221.350799 
L 179.842375 208.854417 
L 186.467978 210.633775 
L 193.093581 213.601383 
L 199.719184 211.877884 
L 206.344787 210.441167 
L 212.97039 204.270842 
L 219.595993 190.639842 
L 226.221596 156.458734 
L 232.847199 174.342859 
L 239.472801 166.719816 
L 246.098404 156.359879 
L 252.724007 139.486265 
L 259.34961 144.475015 
L 265.975213 170.115691 
L 272.600816 166.022435 
L 279.226419 121.586171 
L 285.852022 146.060944 
L 292.477625 160.473504 
L 299.103228 114.05073 
L 305.728831 99.066545 
L 312.354434 123.641689 
L 318.980037 145.122911 
L 325.60564 84.370379 
L 332.231243 84.878757 
L 338.856846 136.282497 
L 345.482449 141.47007 
L 352.108052 82.586387 
L 358.733655 84.678745 
L 365.359258 87.600089 
L 371.984861 130.467417 
L 378.610464 65.183572 
L 385.236067 75.594843 
L 391.86167 56.277944 
L 398.487273 53.568 
" clip-path="url(#p3e4646d110)" style="fill: none; stroke: #2ca02c; stroke-width: 0.5; stroke-linecap: square"/>
   </g>
   <g id="line2d_18">
    <path d="M 73.832727 261.923795 
L 80.45833 264.439975 
L 87.083933 241.869003 
L 93.709536 250.757768 
L 100.335139 250.513133 
L 106.960742 264.433447 
L 113.586345 249.596942 
L 120.211948 246.810199 
L 126.837551 250.121654 
L 133.463154 257.378813 
L 140.088757 247.806694 
L 146.71436 249.324155 
L 153.339963 244.428863 
L 159.965566 246.63199 
L 166.591169 240.589696 
L 173.216772 222.932189 
L 179.842375 213.387729 
L 186.467978 255.952152 
L 193.093581 213.785643 
L 199.719184 202.81246 
L 206.344787 192.109474 
L 212.97039 197.246473 
L 219.595993 218.747014 
L 226.221596 150.919023 
L 232.847199 184.005321 
L 239.472801 177.083864 
L 246.098404 168.778647 
L 252.724007 166.977921 
L 259.34961 160.166281 
L 265.975213 166.759408 
L 272.600816 157.203444 
L 279.226419 118.753544 
L 285.852022 156.719733 
L 292.477625 171.385147 
L 299.103228 152.971643 
L 305.728831 151.723665 
L 312.354434 145.421037 
L 318.980037 139.685124 
L 325.60564 90.333449 
L 332.231243 71.368256 
L 338.856846 163.436279 
L 345.482449 141.924421 
L 352.108052 97.837719 
L 358.733655 98.129925 
L 365.359258 109.86714 
L 371.984861 114.240106 
L 378.610464 111.010957 
L 385.236067 125.727483 
L 391.86167 136.831093 
L 398.487273 77.01291 
" clip-path="url(#p3e4646d110)" style="fill: none; stroke: #d62728; stroke-width: 0.5; stroke-linecap: square"/>
   </g>
   <g id="patch_3">
    <path d="M 57.6 307.584 
L 57.6 41.472 
" style="fill: none; stroke: #000000; stroke-width: 0.8; stroke-linejoin: miter; stroke-linecap: square"/>
   </g>
   <g id="patch_4">
    <path d="M 414.72 307.584 
L 414.72 41.472 
" style="fill: none; stroke: #000000; stroke-width: 0.8; stroke-linejoin: miter; stroke-linecap: square"/>
   </g>
   <g id="patch_5">
    <path d="M 57.6 307.584 
L 414.72 307.584 
" style="fill: none; stroke: #000000; stroke-width: 0.8; stroke-linejoin: miter; stroke-linecap: square"/>
   </g>
   <g id="patch_6">
    <path d="M 57.6 41.472 
L 414.72 41.472 
" style="fill: none; stroke: #000000; stroke-width: 0.8; stroke-linejoin: miter; stroke-linecap: square"/>
   </g>
   <g id="text_17">
    <!-- Mean fitness -->
    <g transform="translate(198.028125 35.472)scale(0.12 -0.12)">
     <defs>
      <path id="DejaVuSans-4d" d="M 628 4666 
L 1569 4666 
L 2759 1491 
L 3956 4666 
L 4897 4666 
L 4897 0 
L 4281 0 
L 4281 4097 
L 3078 897 
L 2444 897 
L 1241 4097 
L 1241 0 
L 628 0 
L 628 4666 
z
" transform="scale(0.015625)"/>
      <path id="DejaVuSans-20" transform="scale(0.015625)"/>
     </defs>
     <use xlink:href="#DejaVuSans-4d"/>
     <use xlink:href="#DejaVuSans-65" x="86.279297"/>
     <use xlink:href="#DejaVuSans-61" x="147.802734"/>
     <use xlink:href="#DejaVuSans-6e" x="209.082031"/>
     <use xlink:href="#DejaVuSans-20" x="272.460938"/>
     <use xlink:href="#DejaVuSans-66" x="304.248047"/>
     <use xlink:href="#DejaVuSans-69" x="339.453125"/>
     <use xlink:href="#DejaVuSans-74" x="367.236328"/>
     <use xlink:href="#DejaVuSans-6e" x="406.445312"/>
     <use xlink:href="#DejaVuSans-65" x="469.824219"/>
     <use xlink:href="#DejaVuSans-73" x="531.347656"/>
     <use xlink:href="#DejaVuSans-73" x="583.447266"/>
    </g>
   </g>
   <g id="legend_1">
    <g id="patch_7">
     <path d="M 64.6 109.297 
L 136.85 109.297 
Q 138.85 109.297 138.85 107.297 
L 138.85 48.472 
Q 138.85 46.472 136.85 46.472 
L 64.6 46.472 
Q 62.6 46.472 62.6 48.472 
L 62.6 107.297 
Q 62.6 109.297 64.6 109.297 
z
" style="fill: #ffffff; opacity: 0.8; stroke: #cccccc; stroke-linejoin: miter"/>
    </g>
    <g id="line2d_19">
     <path d="M 66.6 54.570437 
L 76.6 54.570437 
L 86.6 54.570437 
" style="fill: none; stroke: #1f77b4; stroke-width: 0.5; stroke-linecap: square"/>
    </g>
    <g id="text_18">
     <!-- agent_0 -->
     <g transform="translate(94.6 58.070437)scale(0.1 -0.1)">
      <defs>
       <path id="DejaVuSans-67" d="M 2906 1791 
Q 2906 2416 2648 2759 
Q 2391 3103 1925 3103 
Q 1463 3103 1205 2759 
Q 947 2416 947 1791 
Q 947 1169 1205 825 
Q 1463 481 1925 481 
Q 2391 481 2648 825 
Q 2906 1169 2906 1791 
z
M 3481 434 
Q 3481 -459 3084 -895 
Q 2688 -1331 1869 -1331 
Q 1566 -1331 1297 -1286 
Q 1028 -1241 775 -1147 
L 775 -588 
Q 1028 -725 1275 -790 
Q 1522 -856 1778 -856 
Q 2344 -856 2625 -561 
Q 2906 -266 2906 331 
L 2906 616 
Q 2728 306 2450 153 
Q 2172 0 1784 0 
Q 1141 0 747 490 
Q 353 981 353 1791 
Q 353 2603 747 3093 
Q 1141 3584 1784 3584 
Q 2172 3584 2450 3431 
Q 2728 3278 2906 2969 
L 2906 3500 
L 3481 3500 
L 3481 434 
z
" transform="scale(0.015625)"/>
       <path id="DejaVuSans-5f" d="M 3263 -1063 
L 3263 -1509 
L -63 -1509 
L -63 -1063 
L 3263 -1063 
z
" transform="scale(0.015625)"/>
      </defs>
      <use xlink:href="#DejaVuSans-61"/>
      <use xlink:href="#DejaVuSans-67" x="61.279297"/>
      <use xlink:href="#DejaVuSans-65" x="124.755859"/>
      <use xlink:href="#DejaVuSans-6e" x="186.279297"/>
      <use xlink:href="#DejaVuSans-74" x="249.658203"/>
      <use xlink:href="#DejaVuSans-5f" x="288.867188"/>
      <use xlink:href="#DejaVuSans-30" x="338.867188"/>
     </g>
    </g>
    <g id="line2d_20">
     <path d="M 66.6 69.526687 
L 76.6 69.526687 
L 86.6 69.526687 
" style="fill: none; stroke: #ff7f0e; stroke-width: 0.5; stroke-linecap: square"/>
    </g>
    <g id="text_19">
     <!-- agent_1 -->
     <g transform="translate(94.6 73.026687)scale(0.1 -0.1)">
      <use xlink:href="#DejaVuSans-61"/>
      <use xlink:href="#DejaVuSans-67" x="61.279297"/>
      <use xlink:href="#DejaVuSans-65" x="124.755859"/>
      <use xlink:href="#DejaVuSans-6e" x="186.279297"/>
      <use xlink:href="#DejaVuSans-74" x="249.658203"/>
      <use xlink:href="#DejaVuSans-5f" x="288.867188"/>
      <use xlink:href="#DejaVuSans-31" x="338.867188"/>
     </g>
    </g>
    <g id="line2d_21">
     <path d="M 66.6 84.482937 
L 76.6 84.482937 
L 86.6 84.482937 
" style="fill: none; stroke: #2ca02c; stroke-width: 0.5; stroke-linecap: square"/>
    </g>
    <g id="text_20">
     <!-- agent_2 -->
     <g transform="translate(94.6 87.982937)scale(0.1 -0.1)">
      <use xlink:href="#DejaVuSans-61"/>
      <use xlink:href="#DejaVuSans-67" x="61.279297"/>
      <use xlink:href="#DejaVuSans-65" x="124.755859"/>
      <use xlink:href="#DejaVuSans-6e" x="186.279297"/>
      <use xlink:href="#DejaVuSans-74" x="249.658203"/>
      <use xlink:href="#DejaVuSans-5f" x="288.867188"/>
      <use xlink:href="#DejaVuSans-32" x="338.867188"/>
     </g>
    </g>
    <g id="line2d_22">
     <path d="M 66.6 99.439187 
L 76.6 99.439187 
L 86.6 99.439187 
" style="fill: none; stroke: #d62728; stroke-width: 0.5; stroke-linecap: square"/>
    </g>
    <g id="text_21">
     <!-- agent_3 -->
     <g transform="translate(94.6 102.939187)scale(0.1 -0.1)">
      <use xlink:href="#DejaVuSans-61"/>
      <use xlink:href="#DejaVuSans-67" x="61.279297"/>
      <use xlink:href="#DejaVuSans-65" x="124.755859"/>
      <use xlink:href="#DejaVuSans-6e" x="186.279297"/>
      <use xlink:href="#DejaVuSans-74" x="249.658203"/>
      <use xlink:href="#DejaVuSans-5f" x="288.867188"/>
      <use xlink:href="#DejaVuSans-33" x="338.867188"/>
     </g>
    </g>
   </g>
  </g>
 </g>
 <defs>
  <clipPath id="p3e4646d110">
   <rect x="57.6" y="41.472" width="357.12" height="266.112"/>
  </clipPath>
 </defs>
</svg>
