<?xml version="1.0" encoding="utf-8" standalone="no"?>
<!DOCTYPE svg PUBLIC "-//W3C//DTD SVG 1.1//EN"
  "http://www.w3.org/Graphics/SVG/1.1/DTD/svg11.dtd">
<svg xmlns:xlink="http://www.w3.org/1999/xlink" width="576pt" height="576pt" viewBox="0 0 576 576" xmlns="http://www.w3.org/2000/svg" version="1.1">
 <metadata>
  <rdf:RDF xmlns:dc="http://purl.org/dc/elements/1.1/" xmlns:cc="http://creativecommons.org/ns#" xmlns:rdf="http://www.w3.org/1999/02/22-rdf-syntax-ns#">
   <cc:Work>
    <dc:type rdf:resource="http://purl.org/dc/dcmitype/StillImage"/>
    <dc:date>2022-06-20T15:09:42.200490</dc:date>
    <dc:format>image/svg+xml</dc:format>
    <dc:creator>
     <cc:Agent>
      <dc:title>Matplotlib v3.5.1, https://matplotlib.org/</dc:title>
     </cc:Agent>
    </dc:creator>
   </cc:Work>
  </rdf:RDF>
 </metadata>
 <defs>
  <style type="text/css">*{stroke-linejoin: round; stroke-linecap: butt}</style>
 </defs>
 <g id="figure_1">
  <g id="patch_1">
   <path d="M 0 576 
L 576 576 
L 576 0 
L 0 0 
z
" style="fill: #ffffff"/>
  </g>
  <g id="axes_1">
   <g id="patch_2">
    <path d="M 72 512.64 
L 518.4 512.64 
L 518.4 69.12 
L 72 69.12 
z
" style="fill: #ffffff"/>
   </g>
   <g id="PathCollection_1">
    <defs>
     <path id="mf2762a49a6" d="M 0 -5 
L -1.12257 -1.545085 
L -4.755283 -1.545085 
L -1.816356 0.59017 
L -2.938926 4.045085 
L -0 1.90983 
L 2.938926 4.045085 
L 1.816356 0.59017 
L 4.755283 -1.545085 
L 1.12257 -1.545085 
z
" style="stroke: #cc1a1a; stroke-opacity: 0.5"/>
    </defs>
    <g clip-path="url(#p81b2a8d430)">
     <use xlink:href="#mf2762a49a6" x="295.55712" y="468.288" style="fill: #cc1a1a; fill-opacity: 0.5; stroke: #cc1a1a; stroke-opacity: 0.5"/>
    </g>
   </g>
   <g id="PathCollection_2">
    <defs>
     <path id="mc80ca32fac" d="M 0 2.236068 
C 0.593012 2.236068 1.161816 2.000462 1.581139 1.581139 
C 2.000462 1.161816 2.236068 0.593012 2.236068 0 
C 2.236068 -0.593012 2.000462 -1.161816 1.581139 -1.581139 
C 1.161816 -2.000462 0.593012 -2.236068 0 -2.236068 
C -0.593012 -2.236068 -1.161816 -2.000462 -1.581139 -1.581139 
C -2.000462 -1.161816 -2.236068 -0.593012 -2.236068 0 
C -2.236068 0.593012 -2.000462 1.161816 -1.581139 1.581139 
C -1.161816 2.000462 -0.593012 2.236068 0 2.236068 
z
" style="stroke: #7b68ee"/>
    </defs>
    <g clip-path="url(#p81b2a8d430)">
     <use xlink:href="#mc80ca32fac" x="141.935808" y="431.685109" style="fill: #7b68ee; stroke: #7b68ee"/>
    </g>
   </g>
   <g id="PathCollection_3">
    <defs>
     <path id="mbbb9d6c851" d="M 0 2.236068 
C 0.593012 2.236068 1.161816 2.000462 1.581139 1.581139 
C 2.000462 1.161816 2.236068 0.593012 2.236068 0 
C 2.236068 -0.593012 2.000462 -1.161816 1.581139 -1.581139 
C 1.161816 -2.000462 0.593012 -2.236068 0 -2.236068 
C -0.593012 -2.236068 -1.161816 -2.000462 -1.581139 -1.581139 
C -2.000462 -1.161816 -2.236068 -0.593012 -2.236068 0 
C -2.236068 0.593012 -2.000462 1.161816 -1.581139 1.581139 
C -1.161816 2.000462 -0.593012 2.236068 0 2.236068 
z
" style="stroke: #ffe4b5"/>
    </defs>
    <g clip-path="url(#p81b2a8d430)">
     <use xlink:href="#mbbb9d6c851" x="143.849094" y="442.559817" style="fill: #ffe4b5; stroke: #ffe4b5"/>
    </g>
   </g>
   <g id="PathCollection_4">
    <defs>
     <path id="m0eccb8f155" d="M 0 2.236068 
C 0.593012 2.236068 1.161816 2.000462 1.581139 1.581139 
C 2.000462 1.161816 2.236068 0.593012 2.236068 0 
C 2.236068 -0.593012 2.000462 -1.161816 1.581139 -1.581139 
C 1.161816 -2.000462 0.593012 -2.236068 0 -2.236068 
C -0.593012 -2.236068 -1.161816 -2.000462 -1.581139 -1.581139 
C -2.000462 -1.161816 -2.236068 -0.593012 -2.236068 0 
C -2.236068 0.593012 -2.000462 1.161816 -1.581139 1.581139 
C -1.161816 2.000462 -0.593012 2.236068 0 2.236068 
z
" style="stroke: #c54f85"/>
    </defs>
    <g clip-path="url(#p81b2a8d430)">
     <use xlink:href="#m0eccb8f155" x="90.63543" y="425.501249" style="fill: #c54f85; stroke: #c54f85"/>
    </g>
   </g>
   <g id="PathCollection_5">
    <defs>
     <path id="mb37b799844" d="M 0 2.236068 
C 0.593012 2.236068 1.161816 2.000462 1.581139 1.581139 
C 2.000462 1.161816 2.236068 0.593012 2.236068 0 
C 2.236068 -0.593012 2.000462 -1.161816 1.581139 -1.581139 
C 1.161816 -2.000462 0.593012 -2.236068 0 -2.236068 
C -0.593012 -2.236068 -1.161816 -2.000462 -1.581139 -1.581139 
C -2.000462 -1.161816 -2.236068 -0.593012 -2.236068 0 
C -2.236068 0.593012 -2.000462 1.161816 -1.581139 1.581139 
C -1.161816 2.000462 -0.593012 2.236068 0 2.236068 
z
" style="stroke: #00bfff"/>
    </defs>
    <g clip-path="url(#p81b2a8d430)">
     <use xlink:href="#mb37b799844" x="88.668606" y="450.019046" style="fill: #00bfff; stroke: #00bfff"/>
    </g>
   </g>
   <g id="matplotlib.axis_1">
    <g id="xtick_1">
     <g id="line2d_1">
      <defs>
       <path id="md2cf389a48" d="M 0 0 
L 0 3.5 
" style="stroke: #000000; stroke-width: 0.8"/>
      </defs>
      <g>
       <use xlink:href="#md2cf389a48" x="72" y="512.64" style="stroke: #000000; stroke-width: 0.8"/>
      </g>
     </g>
     <g id="text_1">
      <!-- 0 -->
      <g transform="translate(71.701689 529.511874)rotate(-45)scale(0.1 -0.1)">
       <defs>
        <path id="DejaVuSans-30" d="M 2034 4250 
Q 1547 4250 1301 3770 
Q 1056 3291 1056 2328 
Q 1056 1369 1301 889 
Q 1547 409 2034 409 
Q 2525 409 2770 889 
Q 3016 1369 3016 2328 
Q 3016 3291 2770 3770 
Q 2525 4250 2034 4250 
z
M 2034 4750 
Q 2819 4750 3233 4129 
Q 3647 3509 3647 2328 
Q 3647 1150 3233 529 
Q 2819 -91 2034 -91 
Q 1250 -91 836 529 
Q 422 1150 422 2328 
Q 422 3509 836 4129 
Q 1250 4750 2034 4750 
z
" transform="scale(0.015625)"/>
       </defs>
       <use xlink:href="#DejaVuSans-30"/>
      </g>
     </g>
    </g>
    <g id="xtick_2">
     <g id="line2d_2">
      <g>
       <use xlink:href="#md2cf389a48" x="94.32" y="512.64" style="stroke: #000000; stroke-width: 0.8"/>
      </g>
     </g>
     <g id="text_2">
      <!-- 1 -->
      <g transform="translate(94.021689 529.511874)rotate(-45)scale(0.1 -0.1)">
       <defs>
        <path id="DejaVuSans-31" d="M 794 531 
L 1825 531 
L 1825 4091 
L 703 3866 
L 703 4441 
L 1819 4666 
L 2450 4666 
L 2450 531 
L 3481 531 
L 3481 0 
L 794 0 
L 794 531 
z
" transform="scale(0.015625)"/>
       </defs>
       <use xlink:href="#DejaVuSans-31"/>
      </g>
     </g>
    </g>
    <g id="xtick_3">
     <g id="line2d_3">
      <g>
       <use xlink:href="#md2cf389a48" x="116.64" y="512.64" style="stroke: #000000; stroke-width: 0.8"/>
      </g>
     </g>
     <g id="text_3">
      <!-- 2 -->
      <g transform="translate(116.341689 529.511874)rotate(-45)scale(0.1 -0.1)">
       <defs>
        <path id="DejaVuSans-32" d="M 1228 531 
L 3431 531 
L 3431 0 
L 469 0 
L 469 531 
Q 828 903 1448 1529 
Q 2069 2156 2228 2338 
Q 2531 2678 2651 2914 
Q 2772 3150 2772 3378 
Q 2772 3750 2511 3984 
Q 2250 4219 1831 4219 
Q 1534 4219 1204 4116 
Q 875 4013 500 3803 
L 500 4441 
Q 881 4594 1212 4672 
Q 1544 4750 1819 4750 
Q 2544 4750 2975 4387 
Q 3406 4025 3406 3419 
Q 3406 3131 3298 2873 
Q 3191 2616 2906 2266 
Q 2828 2175 2409 1742 
Q 1991 1309 1228 531 
z
" transform="scale(0.015625)"/>
       </defs>
       <use xlink:href="#DejaVuSans-32"/>
      </g>
     </g>
    </g>
    <g id="xtick_4">
     <g id="line2d_4">
      <g>
       <use xlink:href="#md2cf389a48" x="138.96" y="512.64" style="stroke: #000000; stroke-width: 0.8"/>
      </g>
     </g>
     <g id="text_4">
      <!-- 3 -->
      <g transform="translate(138.661689 529.511874)rotate(-45)scale(0.1 -0.1)">
       <defs>
        <path id="DejaVuSans-33" d="M 2597 2516 
Q 3050 2419 3304 2112 
Q 3559 1806 3559 1356 
Q 3559 666 3084 287 
Q 2609 -91 1734 -91 
Q 1441 -91 1130 -33 
Q 819 25 488 141 
L 488 750 
Q 750 597 1062 519 
Q 1375 441 1716 441 
Q 2309 441 2620 675 
Q 2931 909 2931 1356 
Q 2931 1769 2642 2001 
Q 2353 2234 1838 2234 
L 1294 2234 
L 1294 2753 
L 1863 2753 
Q 2328 2753 2575 2939 
Q 2822 3125 2822 3475 
Q 2822 3834 2567 4026 
Q 2313 4219 1838 4219 
Q 1578 4219 1281 4162 
Q 984 4106 628 3988 
L 628 4550 
Q 988 4650 1302 4700 
Q 1616 4750 1894 4750 
Q 2613 4750 3031 4423 
Q 3450 4097 3450 3541 
Q 3450 3153 3228 2886 
Q 3006 2619 2597 2516 
z
" transform="scale(0.015625)"/>
       </defs>
       <use xlink:href="#DejaVuSans-33"/>
      </g>
     </g>
    </g>
    <g id="xtick_5">
     <g id="line2d_5">
      <g>
       <use xlink:href="#md2cf389a48" x="161.28" y="512.64" style="stroke: #000000; stroke-width: 0.8"/>
      </g>
     </g>
     <g id="text_5">
      <!-- 4 -->
      <g transform="translate(160.981689 529.511874)rotate(-45)scale(0.1 -0.1)">
       <defs>
        <path id="DejaVuSans-34" d="M 2419 4116 
L 825 1625 
L 2419 1625 
L 2419 4116 
z
M 2253 4666 
L 3047 4666 
L 3047 1625 
L 3713 1625 
L 3713 1100 
L 3047 1100 
L 3047 0 
L 2419 0 
L 2419 1100 
L 313 1100 
L 313 1709 
L 2253 4666 
z
" transform="scale(0.015625)"/>
       </defs>
       <use xlink:href="#DejaVuSans-34"/>
      </g>
     </g>
    </g>
    <g id="xtick_6">
     <g id="line2d_6">
      <g>
       <use xlink:href="#md2cf389a48" x="183.6" y="512.64" style="stroke: #000000; stroke-width: 0.8"/>
      </g>
     </g>
     <g id="text_6">
      <!-- 5 -->
      <g transform="translate(183.301689 529.511874)rotate(-45)scale(0.1 -0.1)">
       <defs>
        <path id="DejaVuSans-35" d="M 691 4666 
L 3169 4666 
L 3169 4134 
L 1269 4134 
L 1269 2991 
Q 1406 3038 1543 3061 
Q 1681 3084 1819 3084 
Q 2600 3084 3056 2656 
Q 3513 2228 3513 1497 
Q 3513 744 3044 326 
Q 2575 -91 1722 -91 
Q 1428 -91 1123 -41 
Q 819 9 494 109 
L 494 744 
Q 775 591 1075 516 
Q 1375 441 1709 441 
Q 2250 441 2565 725 
Q 2881 1009 2881 1497 
Q 2881 1984 2565 2268 
Q 2250 2553 1709 2553 
Q 1456 2553 1204 2497 
Q 953 2441 691 2322 
L 691 4666 
z
" transform="scale(0.015625)"/>
       </defs>
       <use xlink:href="#DejaVuSans-35"/>
      </g>
     </g>
    </g>
    <g id="xtick_7">
     <g id="line2d_7">
      <g>
       <use xlink:href="#md2cf389a48" x="205.92" y="512.64" style="stroke: #000000; stroke-width: 0.8"/>
      </g>
     </g>
     <g id="text_7">
      <!-- 6 -->
      <g transform="translate(205.621689 529.511874)rotate(-45)scale(0.1 -0.1)">
       <defs>
        <path id="DejaVuSans-36" d="M 2113 2584 
Q 1688 2584 1439 2293 
Q 1191 2003 1191 1497 
Q 1191 994 1439 701 
Q 1688 409 2113 409 
Q 2538 409 2786 701 
Q 3034 994 3034 1497 
Q 3034 2003 2786 2293 
Q 2538 2584 2113 2584 
z
M 3366 4563 
L 3366 3988 
Q 3128 4100 2886 4159 
Q 2644 4219 2406 4219 
Q 1781 4219 1451 3797 
Q 1122 3375 1075 2522 
Q 1259 2794 1537 2939 
Q 1816 3084 2150 3084 
Q 2853 3084 3261 2657 
Q 3669 2231 3669 1497 
Q 3669 778 3244 343 
Q 2819 -91 2113 -91 
Q 1303 -91 875 529 
Q 447 1150 447 2328 
Q 447 3434 972 4092 
Q 1497 4750 2381 4750 
Q 2619 4750 2861 4703 
Q 3103 4656 3366 4563 
z
" transform="scale(0.015625)"/>
       </defs>
       <use xlink:href="#DejaVuSans-36"/>
      </g>
     </g>
    </g>
    <g id="xtick_8">
     <g id="line2d_8">
      <g>
       <use xlink:href="#md2cf389a48" x="228.24" y="512.64" style="stroke: #000000; stroke-width: 0.8"/>
      </g>
     </g>
     <g id="text_8">
      <!-- 7 -->
      <g transform="translate(227.941689 529.511874)rotate(-45)scale(0.1 -0.1)">
       <defs>
        <path id="DejaVuSans-37" d="M 525 4666 
L 3525 4666 
L 3525 4397 
L 1831 0 
L 1172 0 
L 2766 4134 
L 525 4134 
L 525 4666 
z
" transform="scale(0.015625)"/>
       </defs>
       <use xlink:href="#DejaVuSans-37"/>
      </g>
     </g>
    </g>
    <g id="xtick_9">
     <g id="line2d_9">
      <g>
       <use xlink:href="#md2cf389a48" x="250.56" y="512.64" style="stroke: #000000; stroke-width: 0.8"/>
      </g>
     </g>
     <g id="text_9">
      <!-- 8 -->
      <g transform="translate(250.261689 529.511874)rotate(-45)scale(0.1 -0.1)">
       <defs>
        <path id="DejaVuSans-38" d="M 2034 2216 
Q 1584 2216 1326 1975 
Q 1069 1734 1069 1313 
Q 1069 891 1326 650 
Q 1584 409 2034 409 
Q 2484 409 2743 651 
Q 3003 894 3003 1313 
Q 3003 1734 2745 1975 
Q 2488 2216 2034 2216 
z
M 1403 2484 
Q 997 2584 770 2862 
Q 544 3141 544 3541 
Q 544 4100 942 4425 
Q 1341 4750 2034 4750 
Q 2731 4750 3128 4425 
Q 3525 4100 3525 3541 
Q 3525 3141 3298 2862 
Q 3072 2584 2669 2484 
Q 3125 2378 3379 2068 
Q 3634 1759 3634 1313 
Q 3634 634 3220 271 
Q 2806 -91 2034 -91 
Q 1263 -91 848 271 
Q 434 634 434 1313 
Q 434 1759 690 2068 
Q 947 2378 1403 2484 
z
M 1172 3481 
Q 1172 3119 1398 2916 
Q 1625 2713 2034 2713 
Q 2441 2713 2670 2916 
Q 2900 3119 2900 3481 
Q 2900 3844 2670 4047 
Q 2441 4250 2034 4250 
Q 1625 4250 1398 4047 
Q 1172 3844 1172 3481 
z
" transform="scale(0.015625)"/>
       </defs>
       <use xlink:href="#DejaVuSans-38"/>
      </g>
     </g>
    </g>
    <g id="xtick_10">
     <g id="line2d_10">
      <g>
       <use xlink:href="#md2cf389a48" x="272.88" y="512.64" style="stroke: #000000; stroke-width: 0.8"/>
      </g>
     </g>
     <g id="text_10">
      <!-- 9 -->
      <g transform="translate(272.581689 529.511874)rotate(-45)scale(0.1 -0.1)">
       <defs>
        <path id="DejaVuSans-39" d="M 703 97 
L 703 672 
Q 941 559 1184 500 
Q 1428 441 1663 441 
Q 2288 441 2617 861 
Q 2947 1281 2994 2138 
Q 2813 1869 2534 1725 
Q 2256 1581 1919 1581 
Q 1219 1581 811 2004 
Q 403 2428 403 3163 
Q 403 3881 828 4315 
Q 1253 4750 1959 4750 
Q 2769 4750 3195 4129 
Q 3622 3509 3622 2328 
Q 3622 1225 3098 567 
Q 2575 -91 1691 -91 
Q 1453 -91 1209 -44 
Q 966 3 703 97 
z
M 1959 2075 
Q 2384 2075 2632 2365 
Q 2881 2656 2881 3163 
Q 2881 3666 2632 3958 
Q 2384 4250 1959 4250 
Q 1534 4250 1286 3958 
Q 1038 3666 1038 3163 
Q 1038 2656 1286 2365 
Q 1534 2075 1959 2075 
z
" transform="scale(0.015625)"/>
       </defs>
       <use xlink:href="#DejaVuSans-39"/>
      </g>
     </g>
    </g>
    <g id="xtick_11">
     <g id="line2d_11">
      <g>
       <use xlink:href="#md2cf389a48" x="295.2" y="512.64" style="stroke: #000000; stroke-width: 0.8"/>
      </g>
     </g>
     <g id="text_11">
      <!-- 10 -->
      <g transform="translate(292.652206 534.01084)rotate(-45)scale(0.1 -0.1)">
       <use xlink:href="#DejaVuSans-31"/>
       <use xlink:href="#DejaVuSans-30" x="63.623047"/>
      </g>
     </g>
    </g>
    <g id="xtick_12">
     <g id="line2d_12">
      <g>
       <use xlink:href="#md2cf389a48" x="317.52" y="512.64" style="stroke: #000000; stroke-width: 0.8"/>
      </g>
     </g>
     <g id="text_12">
      <!-- 11 -->
      <g transform="translate(314.972206 534.01084)rotate(-45)scale(0.1 -0.1)">
       <use xlink:href="#DejaVuSans-31"/>
       <use xlink:href="#DejaVuSans-31" x="63.623047"/>
      </g>
     </g>
    </g>
    <g id="xtick_13">
     <g id="line2d_13">
      <g>
       <use xlink:href="#md2cf389a48" x="339.84" y="512.64" style="stroke: #000000; stroke-width: 0.8"/>
      </g>
     </g>
     <g id="text_13">
      <!-- 12 -->
      <g transform="translate(337.292206 534.01084)rotate(-45)scale(0.1 -0.1)">
       <use xlink:href="#DejaVuSans-31"/>
       <use xlink:href="#DejaVuSans-32" x="63.623047"/>
      </g>
     </g>
    </g>
    <g id="xtick_14">
     <g id="line2d_14">
      <g>
       <use xlink:href="#md2cf389a48" x="362.16" y="512.64" style="stroke: #000000; stroke-width: 0.8"/>
      </g>
     </g>
     <g id="text_14">
      <!-- 13 -->
      <g transform="translate(359.612206 534.01084)rotate(-45)scale(0.1 -0.1)">
       <use xlink:href="#DejaVuSans-31"/>
       <use xlink:href="#DejaVuSans-33" x="63.623047"/>
      </g>
     </g>
    </g>
    <g id="xtick_15">
     <g id="line2d_15">
      <g>
       <use xlink:href="#md2cf389a48" x="384.48" y="512.64" style="stroke: #000000; stroke-width: 0.8"/>
      </g>
     </g>
     <g id="text_15">
      <!-- 14 -->
      <g transform="translate(381.932206 534.01084)rotate(-45)scale(0.1 -0.1)">
       <use xlink:href="#DejaVuSans-31"/>
       <use xlink:href="#DejaVuSans-34" x="63.623047"/>
      </g>
     </g>
    </g>
    <g id="xtick_16">
     <g id="line2d_16">
      <g>
       <use xlink:href="#md2cf389a48" x="406.8" y="512.64" style="stroke: #000000; stroke-width: 0.8"/>
      </g>
     </g>
     <g id="text_16">
      <!-- 15 -->
      <g transform="translate(404.252206 534.01084)rotate(-45)scale(0.1 -0.1)">
       <use xlink:href="#DejaVuSans-31"/>
       <use xlink:href="#DejaVuSans-35" x="63.623047"/>
      </g>
     </g>
    </g>
    <g id="xtick_17">
     <g id="line2d_17">
      <g>
       <use xlink:href="#md2cf389a48" x="429.12" y="512.64" style="stroke: #000000; stroke-width: 0.8"/>
      </g>
     </g>
     <g id="text_17">
      <!-- 16 -->
      <g transform="translate(426.572206 534.01084)rotate(-45)scale(0.1 -0.1)">
       <use xlink:href="#DejaVuSans-31"/>
       <use xlink:href="#DejaVuSans-36" x="63.623047"/>
      </g>
     </g>
    </g>
    <g id="xtick_18">
     <g id="line2d_18">
      <g>
       <use xlink:href="#md2cf389a48" x="451.44" y="512.64" style="stroke: #000000; stroke-width: 0.8"/>
      </g>
     </g>
     <g id="text_18">
      <!-- 17 -->
      <g transform="translate(448.892206 534.01084)rotate(-45)scale(0.1 -0.1)">
       <use xlink:href="#DejaVuSans-31"/>
       <use xlink:href="#DejaVuSans-37" x="63.623047"/>
      </g>
     </g>
    </g>
    <g id="xtick_19">
     <g id="line2d_19">
      <g>
       <use xlink:href="#md2cf389a48" x="473.76" y="512.64" style="stroke: #000000; stroke-width: 0.8"/>
      </g>
     </g>
     <g id="text_19">
      <!-- 18 -->
      <g transform="translate(471.212206 534.01084)rotate(-45)scale(0.1 -0.1)">
       <use xlink:href="#DejaVuSans-31"/>
       <use xlink:href="#DejaVuSans-38" x="63.623047"/>
      </g>
     </g>
    </g>
    <g id="xtick_20">
     <g id="line2d_20">
      <g>
       <use xlink:href="#md2cf389a48" x="496.08" y="512.64" style="stroke: #000000; stroke-width: 0.8"/>
      </g>
     </g>
     <g id="text_20">
      <!-- 19 -->
      <g transform="translate(493.532206 534.01084)rotate(-45)scale(0.1 -0.1)">
       <use xlink:href="#DejaVuSans-31"/>
       <use xlink:href="#DejaVuSans-39" x="63.623047"/>
      </g>
     </g>
    </g>
    <g id="xtick_21">
     <g id="line2d_21">
      <g>
       <use xlink:href="#md2cf389a48" x="518.4" y="512.64" style="stroke: #000000; stroke-width: 0.8"/>
      </g>
     </g>
     <g id="text_21">
      <!-- 20 -->
      <g transform="translate(515.852206 534.01084)rotate(-45)scale(0.1 -0.1)">
       <use xlink:href="#DejaVuSans-32"/>
       <use xlink:href="#DejaVuSans-30" x="63.623047"/>
      </g>
     </g>
    </g>
    <g id="text_22">
     <!-- X(km) -->
     <g transform="translate(280.107812 547.079839)scale(0.1 -0.1)">
      <defs>
       <path id="DejaVuSans-58" d="M 403 4666 
L 1081 4666 
L 2241 2931 
L 3406 4666 
L 4084 4666 
L 2584 2425 
L 4184 0 
L 3506 0 
L 2194 1984 
L 872 0 
L 191 0 
L 1856 2491 
L 403 4666 
z
" transform="scale(0.015625)"/>
       <path id="DejaVuSans-28" d="M 1984 4856 
Q 1566 4138 1362 3434 
Q 1159 2731 1159 2009 
Q 1159 1288 1364 580 
Q 1569 -128 1984 -844 
L 1484 -844 
Q 1016 -109 783 600 
Q 550 1309 550 2009 
Q 550 2706 781 3412 
Q 1013 4119 1484 4856 
L 1984 4856 
z
" transform="scale(0.015625)"/>
       <path id="DejaVuSans-6b" d="M 581 4863 
L 1159 4863 
L 1159 1991 
L 2875 3500 
L 3609 3500 
L 1753 1863 
L 3688 0 
L 2938 0 
L 1159 1709 
L 1159 0 
L 581 0 
L 581 4863 
z
" transform="scale(0.015625)"/>
       <path id="DejaVuSans-6d" d="M 3328 2828 
Q 3544 3216 3844 3400 
Q 4144 3584 4550 3584 
Q 5097 3584 5394 3201 
Q 5691 2819 5691 2113 
L 5691 0 
L 5113 0 
L 5113 2094 
Q 5113 2597 4934 2840 
Q 4756 3084 4391 3084 
Q 3944 3084 3684 2787 
Q 3425 2491 3425 1978 
L 3425 0 
L 2847 0 
L 2847 2094 
Q 2847 2600 2669 2842 
Q 2491 3084 2119 3084 
Q 1678 3084 1418 2786 
Q 1159 2488 1159 1978 
L 1159 0 
L 581 0 
L 581 3500 
L 1159 3500 
L 1159 2956 
Q 1356 3278 1631 3431 
Q 1906 3584 2284 3584 
Q 2666 3584 2933 3390 
Q 3200 3197 3328 2828 
z
" transform="scale(0.015625)"/>
       <path id="DejaVuSans-29" d="M 513 4856 
L 1013 4856 
Q 1481 4119 1714 3412 
Q 1947 2706 1947 2009 
Q 1947 1309 1714 600 
Q 1481 -109 1013 -844 
L 513 -844 
Q 928 -128 1133 580 
Q 1338 1288 1338 2009 
Q 1338 2731 1133 3434 
Q 928 4138 513 4856 
z
" transform="scale(0.015625)"/>
      </defs>
      <use xlink:href="#DejaVuSans-58"/>
      <use xlink:href="#DejaVuSans-28" x="68.505859"/>
      <use xlink:href="#DejaVuSans-6b" x="107.519531"/>
      <use xlink:href="#DejaVuSans-6d" x="165.429688"/>
      <use xlink:href="#DejaVuSans-29" x="262.841797"/>
     </g>
    </g>
   </g>
   <g id="matplotlib.axis_2">
    <g id="ytick_1">
     <g id="line2d_22">
      <defs>
       <path id="mda0a614bb5" d="M 0 0 
L -3.5 0 
" style="stroke: #000000; stroke-width: 0.8"/>
      </defs>
      <g>
       <use xlink:href="#mda0a614bb5" x="72" y="512.64" style="stroke: #000000; stroke-width: 0.8"/>
      </g>
     </g>
     <g id="text_23">
      <!-- 0 -->
      <g transform="translate(58.6375 516.439219)scale(0.1 -0.1)">
       <use xlink:href="#DejaVuSans-30"/>
      </g>
     </g>
    </g>
    <g id="ytick_2">
     <g id="line2d_23">
      <g>
       <use xlink:href="#mda0a614bb5" x="72" y="490.464" style="stroke: #000000; stroke-width: 0.8"/>
      </g>
     </g>
     <g id="text_24">
      <!-- 1 -->
      <g transform="translate(58.6375 494.263219)scale(0.1 -0.1)">
       <use xlink:href="#DejaVuSans-31"/>
      </g>
     </g>
    </g>
    <g id="ytick_3">
     <g id="line2d_24">
      <g>
       <use xlink:href="#mda0a614bb5" x="72" y="468.288" style="stroke: #000000; stroke-width: 0.8"/>
      </g>
     </g>
     <g id="text_25">
      <!-- 2 -->
      <g transform="translate(58.6375 472.087219)scale(0.1 -0.1)">
       <use xlink:href="#DejaVuSans-32"/>
      </g>
     </g>
    </g>
    <g id="ytick_4">
     <g id="line2d_25">
      <g>
       <use xlink:href="#mda0a614bb5" x="72" y="446.112" style="stroke: #000000; stroke-width: 0.8"/>
      </g>
     </g>
     <g id="text_26">
      <!-- 3 -->
      <g transform="translate(58.6375 449.911219)scale(0.1 -0.1)">
       <use xlink:href="#DejaVuSans-33"/>
      </g>
     </g>
    </g>
    <g id="ytick_5">
     <g id="line2d_26">
      <g>
       <use xlink:href="#mda0a614bb5" x="72" y="423.936" style="stroke: #000000; stroke-width: 0.8"/>
      </g>
     </g>
     <g id="text_27">
      <!-- 4 -->
      <g transform="translate(58.6375 427.735219)scale(0.1 -0.1)">
       <use xlink:href="#DejaVuSans-34"/>
      </g>
     </g>
    </g>
    <g id="ytick_6">
     <g id="line2d_27">
      <g>
       <use xlink:href="#mda0a614bb5" x="72" y="401.76" style="stroke: #000000; stroke-width: 0.8"/>
      </g>
     </g>
     <g id="text_28">
      <!-- 5 -->
      <g transform="translate(58.6375 405.559219)scale(0.1 -0.1)">
       <use xlink:href="#DejaVuSans-35"/>
      </g>
     </g>
    </g>
    <g id="ytick_7">
     <g id="line2d_28">
      <g>
       <use xlink:href="#mda0a614bb5" x="72" y="379.584" style="stroke: #000000; stroke-width: 0.8"/>
      </g>
     </g>
     <g id="text_29">
      <!-- 6 -->
      <g transform="translate(58.6375 383.383219)scale(0.1 -0.1)">
       <use xlink:href="#DejaVuSans-36"/>
      </g>
     </g>
    </g>
    <g id="ytick_8">
     <g id="line2d_29">
      <g>
       <use xlink:href="#mda0a614bb5" x="72" y="357.408" style="stroke: #000000; stroke-width: 0.8"/>
      </g>
     </g>
     <g id="text_30">
      <!-- 7 -->
      <g transform="translate(58.6375 361.207219)scale(0.1 -0.1)">
       <use xlink:href="#DejaVuSans-37"/>
      </g>
     </g>
    </g>
    <g id="ytick_9">
     <g id="line2d_30">
      <g>
       <use xlink:href="#mda0a614bb5" x="72" y="335.232" style="stroke: #000000; stroke-width: 0.8"/>
      </g>
     </g>
     <g id="text_31">
      <!-- 8 -->
      <g transform="translate(58.6375 339.031219)scale(0.1 -0.1)">
       <use xlink:href="#DejaVuSans-38"/>
      </g>
     </g>
    </g>
    <g id="ytick_10">
     <g id="line2d_31">
      <g>
       <use xlink:href="#mda0a614bb5" x="72" y="313.056" style="stroke: #000000; stroke-width: 0.8"/>
      </g>
     </g>
     <g id="text_32">
      <!-- 9 -->
      <g transform="translate(58.6375 316.855219)scale(0.1 -0.1)">
       <use xlink:href="#DejaVuSans-39"/>
      </g>
     </g>
    </g>
    <g id="ytick_11">
     <g id="line2d_32">
      <g>
       <use xlink:href="#mda0a614bb5" x="72" y="290.88" style="stroke: #000000; stroke-width: 0.8"/>
      </g>
     </g>
     <g id="text_33">
      <!-- 10 -->
      <g transform="translate(52.275 294.679219)scale(0.1 -0.1)">
       <use xlink:href="#DejaVuSans-31"/>
       <use xlink:href="#DejaVuSans-30" x="63.623047"/>
      </g>
     </g>
    </g>
    <g id="ytick_12">
     <g id="line2d_33">
      <g>
       <use xlink:href="#mda0a614bb5" x="72" y="268.704" style="stroke: #000000; stroke-width: 0.8"/>
      </g>
     </g>
     <g id="text_34">
      <!-- 11 -->
      <g transform="translate(52.275 272.503219)scale(0.1 -0.1)">
       <use xlink:href="#DejaVuSans-31"/>
       <use xlink:href="#DejaVuSans-31" x="63.623047"/>
      </g>
     </g>
    </g>
    <g id="ytick_13">
     <g id="line2d_34">
      <g>
       <use xlink:href="#mda0a614bb5" x="72" y="246.528" style="stroke: #000000; stroke-width: 0.8"/>
      </g>
     </g>
     <g id="text_35">
      <!-- 12 -->
      <g transform="translate(52.275 250.327219)scale(0.1 -0.1)">
       <use xlink:href="#DejaVuSans-31"/>
       <use xlink:href="#DejaVuSans-32" x="63.623047"/>
      </g>
     </g>
    </g>
    <g id="ytick_14">
     <g id="line2d_35">
      <g>
       <use xlink:href="#mda0a614bb5" x="72" y="224.352" style="stroke: #000000; stroke-width: 0.8"/>
      </g>
     </g>
     <g id="text_36">
      <!-- 13 -->
      <g transform="translate(52.275 228.151219)scale(0.1 -0.1)">
       <use xlink:href="#DejaVuSans-31"/>
       <use xlink:href="#DejaVuSans-33" x="63.623047"/>
      </g>
     </g>
    </g>
    <g id="ytick_15">
     <g id="line2d_36">
      <g>
       <use xlink:href="#mda0a614bb5" x="72" y="202.176" style="stroke: #000000; stroke-width: 0.8"/>
      </g>
     </g>
     <g id="text_37">
      <!-- 14 -->
      <g transform="translate(52.275 205.975219)scale(0.1 -0.1)">
       <use xlink:href="#DejaVuSans-31"/>
       <use xlink:href="#DejaVuSans-34" x="63.623047"/>
      </g>
     </g>
    </g>
    <g id="ytick_16">
     <g id="line2d_37">
      <g>
       <use xlink:href="#mda0a614bb5" x="72" y="180" style="stroke: #000000; stroke-width: 0.8"/>
      </g>
     </g>
     <g id="text_38">
      <!-- 15 -->
      <g transform="translate(52.275 183.799219)scale(0.1 -0.1)">
       <use xlink:href="#DejaVuSans-31"/>
       <use xlink:href="#DejaVuSans-35" x="63.623047"/>
      </g>
     </g>
    </g>
    <g id="ytick_17">
     <g id="line2d_38">
      <g>
       <use xlink:href="#mda0a614bb5" x="72" y="157.824" style="stroke: #000000; stroke-width: 0.8"/>
      </g>
     </g>
     <g id="text_39">
      <!-- 16 -->
      <g transform="translate(52.275 161.623219)scale(0.1 -0.1)">
       <use xlink:href="#DejaVuSans-31"/>
       <use xlink:href="#DejaVuSans-36" x="63.623047"/>
      </g>
     </g>
    </g>
    <g id="ytick_18">
     <g id="line2d_39">
      <g>
       <use xlink:href="#mda0a614bb5" x="72" y="135.648" style="stroke: #000000; stroke-width: 0.8"/>
      </g>
     </g>
     <g id="text_40">
      <!-- 17 -->
      <g transform="translate(52.275 139.447219)scale(0.1 -0.1)">
       <use xlink:href="#DejaVuSans-31"/>
       <use xlink:href="#DejaVuSans-37" x="63.623047"/>
      </g>
     </g>
    </g>
    <g id="ytick_19">
     <g id="line2d_40">
      <g>
       <use xlink:href="#mda0a614bb5" x="72" y="113.472" style="stroke: #000000; stroke-width: 0.8"/>
      </g>
     </g>
     <g id="text_41">
      <!-- 18 -->
      <g transform="translate(52.275 117.271219)scale(0.1 -0.1)">
       <use xlink:href="#DejaVuSans-31"/>
       <use xlink:href="#DejaVuSans-38" x="63.623047"/>
      </g>
     </g>
    </g>
    <g id="ytick_20">
     <g id="line2d_41">
      <g>
       <use xlink:href="#mda0a614bb5" x="72" y="91.296" style="stroke: #000000; stroke-width: 0.8"/>
      </g>
     </g>
     <g id="text_42">
      <!-- 19 -->
      <g transform="translate(52.275 95.095219)scale(0.1 -0.1)">
       <use xlink:href="#DejaVuSans-31"/>
       <use xlink:href="#DejaVuSans-39" x="63.623047"/>
      </g>
     </g>
    </g>
    <g id="ytick_21">
     <g id="line2d_42">
      <g>
       <use xlink:href="#mda0a614bb5" x="72" y="69.12" style="stroke: #000000; stroke-width: 0.8"/>
      </g>
     </g>
     <g id="text_43">
      <!-- 20 -->
      <g transform="translate(52.275 72.919219)scale(0.1 -0.1)">
       <use xlink:href="#DejaVuSans-32"/>
       <use xlink:href="#DejaVuSans-30" x="63.623047"/>
      </g>
     </g>
    </g>
    <g id="text_44">
     <!-- Y(km) -->
     <g transform="translate(46.195312 305.601094)rotate(-90)scale(0.1 -0.1)">
      <defs>
       <path id="DejaVuSans-59" d="M -13 4666 
L 666 4666 
L 1959 2747 
L 3244 4666 
L 3922 4666 
L 2272 2222 
L 2272 0 
L 1638 0 
L 1638 2222 
L -13 4666 
z
" transform="scale(0.015625)"/>
      </defs>
      <use xlink:href="#DejaVuSans-59"/>
      <use xlink:href="#DejaVuSans-28" x="61.083984"/>
      <use xlink:href="#DejaVuSans-6b" x="100.097656"/>
      <use xlink:href="#DejaVuSans-6d" x="158.007812"/>
      <use xlink:href="#DejaVuSans-29" x="255.419922"/>
     </g>
    </g>
   </g>
   <g id="line2d_43">
    <path d="M 127.8 457.2 
L 129.748293 457.114577 
L 131.673046 456.802617 
L 133.54767 456.268419 
L 135.346262 455.519354 
L 137.043967 454.565764 
L 138.617323 453.420815 
L 140.044582 452.100322 
L 141.306015 450.622527 
L 142.384182 449.007848 
L 143.264175 447.278598 
L 143.933824 445.458672 
L 144.383868 443.573225 
L 144.608078 441.648315 
L 144.60335 439.710551 
L 144.369744 437.786718 
L 143.910483 435.903411 
L 143.231912 434.086665 
L 142.343407 432.361597 
L 141.257248 430.752056 
L 139.988447 429.280295 
L 138.554542 427.966662 
L 136.975354 426.829319 
L 135.272713 425.883992 
L 133.470157 425.143752 
L 131.592604 424.618833 
L 129.666011 424.316494 
L 127.717011 424.240918 
L 125.772548 424.393148 
L 123.859504 424.771084 
L 122.004327 425.369499 
L 120.232662 426.180124 
L 118.569003 427.191752 
L 117.03635 428.390544 
L 115.65614 429.759887 
L 114.447237 431.280722 
L 113.426353 432.932025 
L 112.607601 434.690966 
L 112.002302 436.533231 
L 111.618823 438.433352 
L 111.462465 440.36513 
L 111.535359 442.301685 
L 111.83637 444.216269 
L 112.361333 446.082554 
L 113.103 447.874773 
L 114.051132 449.568184 
L 115.192638 451.139406 
L 116.511758 452.566746 
L 117.990281 453.830498 
L 119.607794 454.913212 
L 121.341964 455.79994 
L 123.168954 456.478459 
L 125.063492 456.939307 
L 126.99937 457.176092 
L 128.949841 457.185537 
L 130.887954 456.967504 
L 132.786926 456.524999 
L 134.620513 455.864131 
L 136.363372 454.994025 
L 137.991413 453.926702 
L 139.48213 452.676906 
L 140.814912 451.261909 
L 141.971334 449.701264 
L 142.935403 448.016542 
L 143.693789 446.231029 
L 144.236003 444.369407 
L 144.554544 442.457411 
L 144.645005 440.521474 
L 144.506131 438.588359 
L 144.13984 436.684793 
L 143.551192 434.837094 
L 142.748326 433.070808 
L 141.742337 431.410354 
L 140.547134 429.878691 
L 139.17924 428.496995 
L 137.657566 427.284369 
L 136.003147 426.257579 
L 134.238858 425.43082 
L 132.389089 424.815524 
L 130.479413 424.420196 
L 128.536232 424.250302 
L 126.586409 424.308192 
L 124.656901 424.593064 
L 122.774382 425.100979 
L 120.964878 425.824917 
L 119.253402 426.754869 
L 117.663616 427.877978 
L 116.217497 429.178717 
L 114.935036 430.639105 
L 113.833961 432.238952 
L 112.929494 433.956141 
L 112.234137 435.766934 
L 111.757502 437.646299 
L 111.50617 439.568339 
L 111.483625 441.506323 
L 111.690082 443.433386 
L 112.122661 445.323073 
L 112.775387 447.149285 
L 113.639244 448.886799 
L 114.7023 450.511618 
L 115.949872 452.001302 
L 117.364729 453.335275 
L 118.927329 454.495113 
L 120.616089 455.464799 
L 122.407685 456.230939 
L 124.277371 456.782952 
L 126.199324 457.113214 
L 128.146998 457.217163 
L 130.093492 457.093364 
L 132.01192 456.743524 
L 133.875784 456.172476 
L 135.659339 455.388106 
L 137.33795 454.401246 
L 138.888428 453.225526 
L 140.289354 451.877185 
L 141.521375 450.374845 
L 142.56747 448.739258 
L 143.413184 446.993016 
L 144.046876 445.160035 
L 144.459658 443.265821 
L 144.645819 441.336558 
L 144.602782 439.398915 
L 144.331139 437.479677 
L 143.834642 435.605377 
L 143.120152 433.801927 
L 142.197545 432.09426 
L 141.935808 431.685109 
L 141.935808 431.685109 
" clip-path="url(#p81b2a8d430)" style="fill: none; stroke-dasharray: 3.7,1.6; stroke-dashoffset: 0; stroke: #7b68ee"/>
   </g>
   <g id="line2d_44">
    <path d="M 127.8 479.376 
L 129.750026 479.318257 
L 131.687082 479.087795 
L 133.595703 478.686453 
L 135.46065 478.117434 
L 137.267031 477.38528 
L 139.000424 476.495836 
L 140.646986 475.456203 
L 142.193571 474.274682 
L 143.627829 472.960707 
L 144.938308 471.524769 
L 146.114545 469.978333 
L 147.147147 468.333746 
L 148.027868 466.604141 
L 148.749677 464.803325 
L 149.30681 462.94568 
L 149.694819 461.046035 
L 149.910605 459.11956 
L 149.952445 457.181636 
L 149.820005 455.247736 
L 149.514342 453.333301 
L 149.037897 451.453618 
L 148.394474 449.623694 
L 147.589209 447.85814 
L 146.628534 446.171054 
L 145.520117 444.575905 
L 144.27281 443.085431 
L 142.896571 441.711532 
L 141.40239 440.465178 
L 139.802196 439.356321 
L 138.108768 438.393814 
L 136.335625 437.585342 
L 134.496928 436.93736 
L 132.607356 436.455042 
L 130.68219 436.14176 
L 128.736874 436.000579 
L 126.786733 436.036858 
L 124.847589 436.249436 
L 122.93529 436.633139 
L 121.065103 437.184903 
L 119.251958 437.900322 
L 117.510332 438.773684 
L 115.854128 439.798016 
L 114.296568 440.965139 
L 112.850087 442.265734 
L 111.526232 443.689418 
L 110.335573 445.224825 
L 109.287613 446.859694 
L 108.390719 448.580975 
L 107.65205 450.374924 
L 107.077503 452.227221 
L 106.671664 454.123076 
L 106.437773 456.047355 
L 106.377695 457.984694 
L 106.491808 459.919519 
L 106.779039 461.836505 
L 107.237121 463.720405 
L 107.862412 465.556215 
L 108.649937 467.329317 
L 109.593428 469.025587 
L 110.685378 470.631513 
L 111.917092 472.1343 
L 113.278766 473.521973 
L 114.759556 474.783473 
L 116.347669 475.908743 
L 118.030456 476.888813 
L 119.794511 477.715865 
L 121.625778 478.383303 
L 123.509665 478.885799 
L 125.431157 479.219343 
L 127.374938 479.381267 
L 129.325513 479.370275 
L 131.26733 479.186447 
L 133.184905 478.831245 
L 135.062948 478.307494 
L 136.88648 477.619365 
L 138.640957 476.772342 
L 140.312385 475.773176 
L 141.887431 474.629833 
L 143.353529 473.351427 
L 144.699268 471.947823 
L 145.913543 470.430475 
L 146.986661 468.811498 
L 147.910058 467.103814 
L 148.676363 465.321056 
L 149.279461 463.477454 
L 149.714538 461.587725 
L 149.978122 459.666951 
L 150.068111 457.730466 
L 149.983787 455.793724 
L 149.725825 453.872183 
L 149.296283 451.981181 
L 148.698592 450.135808 
L 147.937522 448.350793 
L 147.019148 446.640382 
L 145.9508 445.018224 
L 144.741004 443.497264 
L 143.399418 442.08964 
L 141.936747 440.806585 
L 140.364664 439.658337 
L 138.695716 438.654058 
L 136.943221 437.801763 
L 135.121165 437.10825 
L 133.244087 436.579054 
L 131.326966 436.218398 
L 129.385101 436.029157 
L 127.433987 436.012841 
L 125.489194 436.169581 
L 123.56624 436.498125 
L 121.68047 436.99585 
L 119.846931 437.658785 
L 118.080255 438.481639 
L 116.394539 439.457847 
L 114.803235 440.579617 
L 113.319041 441.837999 
L 111.953802 443.222951 
L 110.718413 444.72342 
L 109.622732 446.327433 
L 108.675504 448.02219 
L 107.884289 449.794165 
L 107.255402 451.629217 
L 106.793863 453.512702 
L 106.503356 455.429586 
L 106.3862 457.364571 
L 106.443292 459.302044 
L 106.673944 461.226701 
L 107.076337 463.12334 
L 107.647278 464.976767 
L 108.382225 466.772223 
L 109.275329 468.49541 
L 110.319483 470.132602 
L 111.506377 471.670757 
L 112.826563 473.097618 
L 114.269532 474.401814 
L 115.823793 475.572946 
L 117.476968 476.601676 
L 119.215891 477.479796 
L 121.026706 478.200298 
L 122.894984 478.757428 
L 124.805833 479.146733 
L 126.744019 479.365098 
L 128.694086 479.410773 
L 130.64048 479.283382 
L 132.567673 478.983933 
L 134.46029 478.514808 
L 136.303225 477.879742 
L 138.081772 477.083796 
L 139.781734 476.133316 
L 141.389541 475.035885 
L 142.892358 473.800256 
L 144.278186 472.436288 
L 145.535962 470.954866 
L 146.655643 469.367812 
L 147.628288 467.687793 
L 148.44613 465.928219 
L 149.102638 464.103134 
L 149.59257 462.227108 
L 149.912011 460.315115 
L 150.058411 458.382419 
L 150.030597 456.44445 
L 149.828791 454.516677 
L 149.454603 452.614492 
L 148.911017 450.75308 
L 148.202374 448.947302 
L 147.334328 447.211574 
L 146.31381 445.559755 
L 145.148965 444.005032 
L 143.849094 442.559817 
L 143.849094 442.559817 
" clip-path="url(#p81b2a8d430)" style="fill: none; stroke-dasharray: 3.7,1.6; stroke-dashoffset: 0; stroke: #ffe4b5"/>
   </g>
   <g id="line2d_45">
    <path d="M 105.48 479.376 
L 107.80454 479.307021 
L 110.11623 479.054559 
L 112.400413 478.620201 
L 114.642602 478.006691 
L 116.828582 477.217912 
L 118.944489 476.258859 
L 120.976907 475.135608 
L 122.912951 473.855277 
L 124.740345 472.425981 
L 126.447504 470.856778 
L 128.023608 469.157615 
L 129.458663 467.33926 
L 130.743576 465.413239 
L 131.8702 463.391759 
L 132.831395 461.287629 
L 133.621068 459.114185 
L 134.234215 456.885199 
L 134.666946 454.614796 
L 134.91652 452.317364 
L 134.98135 450.007459 
L 134.861023 447.699717 
L 134.556298 445.408762 
L 134.0691 443.149109 
L 133.402512 440.935076 
L 132.56075 438.780694 
L 131.547752 436.701481 
L 130.368123 434.710552 
L 129.032452 432.818302 
L 127.549469 431.037556 
L 125.928563 429.379606 
L 124.179998 427.854963 
L 122.314847 426.473298 
L 120.345128 425.243374 
L 118.282955 424.172915 
L 116.141547 423.268792 
L 113.934472 422.536748 
L 111.675716 421.981433 
L 109.379597 421.606377 
L 107.060667 421.413968 
L 104.733685 421.405435 
L 102.413504 421.580731 
L 100.114642 421.9387 
L 97.851651 422.477086 
L 95.638857 423.192493 
L 93.490269 424.080401 
L 91.419495 425.135198 
L 89.439648 426.350215 
L 87.563268 427.717765 
L 85.802241 429.229196 
L 84.167722 430.874944 
L 82.670224 432.644375 
L 81.320198 434.526627 
L 80.12579 436.509829 
L 79.093623 438.581492 
L 78.230298 440.728198 
L 77.541438 442.936277 
L 77.031403 445.191757 
L 76.703426 447.480363 
L 76.559584 449.78761 
L 76.600787 452.098334 
L 76.82679 454.398232 
L 77.236166 456.672906 
L 77.826323 458.907937 
L 78.593519 461.089153 
L 79.532891 463.202726 
L 80.638478 465.235252 
L 81.903266 467.173842 
L 83.31923 469.006203 
L 84.877384 470.720718 
L 86.56784 472.306515 
L 88.379871 473.753542 
L 90.301978 475.052628 
L 92.321967 476.195542 
L 94.427023 477.175043 
L 96.603794 477.984929 
L 98.838474 478.620073 
L 101.116891 479.076456 
L 103.424599 479.351193 
L 105.746966 479.442549 
L 108.069268 479.349952 
L 110.376782 479.073996 
L 112.654879 478.616434 
L 114.889117 477.980171 
L 117.065332 477.169243 
L 119.169727 476.188792 
L 121.188963 475.045035 
L 123.110237 473.74522 
L 124.921369 472.297586 
L 126.610876 470.711305 
L 128.168045 468.99643 
L 129.583001 467.163824 
L 130.84677 465.225099 
L 131.951424 463.192383 
L 132.890042 461.078585 
L 133.656611 458.897236 
L 134.246267 456.66213 
L 134.655263 454.387401 
L 134.880992 452.087437 
L 134.922007 449.776786 
L 134.778028 447.470072 
L 134.449943 445.181893 
L 133.939807 442.926737 
L 133.25083 440.718885 
L 132.387352 438.572324 
L 131.354824 436.500655 
L 130.159766 434.517007 
L 128.809733 432.633953 
L 127.313262 430.863431 
L 125.67982 429.216666 
L 123.919745 427.704099 
L 122.044177 426.335321 
L 120.064991 425.119013 
L 117.994718 424.062887 
L 115.846469 423.173642 
L 113.63385 422.456918 
L 111.370874 421.917263 
L 109.071876 421.5581 
L 106.751796 421.381697 
L 104.424941 421.389044 
L 102.106032 421.580101 
L 99.809743 421.953665 
L 97.550606 422.507378 
L 95.342919 423.237739 
L 93.200652 424.140133 
L 91.137368 425.208851 
L 90.63543 425.501249 
L 90.63543 425.501249 
" clip-path="url(#p81b2a8d430)" style="fill: none; stroke-dasharray: 3.7,1.6; stroke-dashoffset: 0; stroke: #c54f85"/>
   </g>
   <g id="line2d_46">
    <path d="M 105.48 457.2 
L 107.736611 457.120867 
L 109.975811 456.831458 
L 112.177794 456.33433 
L 114.323081 455.633876 
L 116.392697 454.736288 
L 118.368338 453.6495 
L 120.232528 452.38312 
L 121.968778 450.948343 
L 123.561733 449.357853 
L 124.997302 447.625712 
L 126.262786 445.767234 
L 127.346991 443.79885 
L 128.240325 441.737963 
L 128.934884 439.602795 
L 129.424521 437.412225 
L 129.7049 435.185622 
L 129.773538 432.942675 
L 129.62982 430.703218 
L 129.275014 428.487055 
L 128.712249 426.313784 
L 127.946498 424.202625 
L 126.984527 422.172251 
L 125.834838 420.240619 
L 124.507594 418.424816 
L 123.014527 416.740904 
L 121.36884 415.20378 
L 119.585083 413.827043 
L 117.679029 412.622875 
L 115.667535 411.60193 
L 113.568391 410.773246 
L 111.400163 410.144155 
L 109.182029 409.72023 
L 106.93361 409.505224 
L 104.674796 409.501044 
L 102.425569 409.707732 
L 100.20583 410.123465 
L 98.035218 410.744567 
L 95.932937 411.565548 
L 93.917591 412.579148 
L 92.007011 413.7764 
L 90.218729 415.14624 
L 88.568138 416.67683 
L 87.069641 418.354776 
L 85.736507 420.165223 
L 84.580538 422.092144 
L 83.611971 424.118478 
L 82.839382 426.226286 
L 82.269611 428.396907 
L 81.907704 430.611121 
L 81.756864 432.849324 
L 81.818433 435.091458 
L 82.091094 437.317695 
L 82.574575 439.508594 
L 83.264595 441.644148 
L 84.153899 443.705648 
L 85.234353 445.674936 
L 86.496384 447.534563 
L 87.92881 449.268055 
L 89.51894 450.860054 
L 91.25263 452.296434 
L 93.114513 453.56457 
L 95.088122 454.653257 
L 97.155994 455.552863 
L 99.29983 456.255425 
L 101.500664 456.754726 
L 103.739022 457.046345 
L 105.995103 457.127698 
L 108.248944 456.998061 
L 110.480607 456.658576 
L 112.670345 456.11224 
L 114.798786 455.363879 
L 116.847097 454.420108 
L 118.797154 453.289269 
L 120.6317 451.981358 
L 122.334501 450.507941 
L 123.890487 448.882044 
L 125.285887 447.118046 
L 126.508349 445.231547 
L 127.547051 443.239231 
L 128.392796 441.158718 
L 129.038095 439.008411 
L 129.47723 436.807331 
L 129.70631 434.574946 
L 129.723298 432.331006 
L 129.528039 430.09536 
L 129.122251 427.887786 
L 128.509519 425.727814 
L 127.695256 423.634555 
L 126.68666 421.626526 
L 125.492649 419.721493 
L 124.12378 417.936313 
L 122.592158 416.286778 
L 120.911331 414.787485 
L 119.096557 413.451978 
L 117.163898 412.292055 
L 115.130066 411.317694 
L 113.013061 410.537526 
L 110.831619 409.958457 
L 108.605049 409.585617 
L 106.353057 409.422308 
L 104.095576 409.469977 
L 101.852589 409.728207 
L 99.643947 410.194711 
L 97.489202 410.865363 
L 95.407425 411.734227 
L 93.417044 412.793614 
L 91.535677 414.034146 
L 89.779978 415.444844 
L 88.165486 417.01322 
L 86.706494 418.725391 
L 85.415916 420.566202 
L 84.305175 422.519355 
L 83.384104 424.567563 
L 82.660854 426.692692 
L 82.141829 428.87593 
L 81.83162 431.097949 
L 81.732973 433.339078 
L 81.846768 435.579063 
L 82.172028 437.798461 
L 82.705869 439.977609 
L 83.443558 442.097202 
L 84.378558 444.13846 
L 85.502582 446.083299 
L 86.805671 447.914488 
L 88.276276 449.615803 
L 88.668606 450.019046 
L 88.668606 450.019046 
" clip-path="url(#p81b2a8d430)" style="fill: none; stroke-dasharray: 3.7,1.6; stroke-dashoffset: 0; stroke: #00bfff"/>
   </g>
   <g id="line2d_47">
    <path d="M 116.64 468.288 
L 295.55712 468.288 
L 295.55712 468.288 
" clip-path="url(#p81b2a8d430)" style="fill: none; stroke-dasharray: 1.85,0.8; stroke-dashoffset: 0; stroke: #cc1a1a; stroke-width: 0.5"/>
   </g>
   <g id="line2d_48">
    <path d="M 141.935808 431.685109 
L 143.849094 442.559817 
" clip-path="url(#p81b2a8d430)" style="fill: none; stroke-dasharray: 1,1.65; stroke-dashoffset: 0; stroke: #ff0000"/>
   </g>
   <g id="line2d_49">
    <path d="M 141.935808 431.685109 
L 88.668606 450.019046 
" clip-path="url(#p81b2a8d430)" style="fill: none; stroke-dasharray: 1,1.65; stroke-dashoffset: 0; stroke: #ff0000"/>
   </g>
   <g id="line2d_50">
    <path d="M 143.849094 442.559817 
L 90.63543 425.501249 
" clip-path="url(#p81b2a8d430)" style="fill: none; stroke-dasharray: 1,1.65; stroke-dashoffset: 0; stroke: #ff0000"/>
   </g>
   <g id="line2d_51">
    <path d="M 90.63543 425.501249 
L 88.668606 450.019046 
" clip-path="url(#p81b2a8d430)" style="fill: none; stroke-dasharray: 1,1.65; stroke-dashoffset: 0; stroke: #ff0000"/>
   </g>
   <g id="patch_3">
    <path d="M 72 512.64 
L 72 69.12 
" style="fill: none; stroke: #000000; stroke-width: 0.8; stroke-linejoin: miter; stroke-linecap: square"/>
   </g>
   <g id="patch_4">
    <path d="M 518.4 512.64 
L 518.4 69.12 
" style="fill: none; stroke: #000000; stroke-width: 0.8; stroke-linejoin: miter; stroke-linecap: square"/>
   </g>
   <g id="patch_5">
    <path d="M 72 512.64 
L 518.4 512.64 
" style="fill: none; stroke: #000000; stroke-width: 0.8; stroke-linejoin: miter; stroke-linecap: square"/>
   </g>
   <g id="patch_6">
    <path d="M 72 69.12 
L 518.4 69.12 
" style="fill: none; stroke: #000000; stroke-width: 0.8; stroke-linejoin: miter; stroke-linecap: square"/>
   </g>
   <g id="text_45">
    <!-- time(s): 20.04 -->
    <g transform="translate(76.464 80.208)scale(0.1 -0.1)">
     <defs>
      <path id="DejaVuSans-74" d="M 1172 4494 
L 1172 3500 
L 2356 3500 
L 2356 3053 
L 1172 3053 
L 1172 1153 
Q 1172 725 1289 603 
Q 1406 481 1766 481 
L 2356 481 
L 2356 0 
L 1766 0 
Q 1100 0 847 248 
Q 594 497 594 1153 
L 594 3053 
L 172 3053 
L 172 3500 
L 594 3500 
L 594 4494 
L 1172 4494 
z
" transform="scale(0.015625)"/>
      <path id="DejaVuSans-69" d="M 603 3500 
L 1178 3500 
L 1178 0 
L 603 0 
L 603 3500 
z
M 603 4863 
L 1178 4863 
L 1178 4134 
L 603 4134 
L 603 4863 
z
" transform="scale(0.015625)"/>
      <path id="DejaVuSans-65" d="M 3597 1894 
L 3597 1613 
L 953 1613 
Q 991 1019 1311 708 
Q 1631 397 2203 397 
Q 2534 397 2845 478 
Q 3156 559 3463 722 
L 3463 178 
Q 3153 47 2828 -22 
Q 2503 -91 2169 -91 
Q 1331 -91 842 396 
Q 353 884 353 1716 
Q 353 2575 817 3079 
Q 1281 3584 2069 3584 
Q 2775 3584 3186 3129 
Q 3597 2675 3597 1894 
z
M 3022 2063 
Q 3016 2534 2758 2815 
Q 2500 3097 2075 3097 
Q 1594 3097 1305 2825 
Q 1016 2553 972 2059 
L 3022 2063 
z
" transform="scale(0.015625)"/>
      <path id="DejaVuSans-73" d="M 2834 3397 
L 2834 2853 
Q 2591 2978 2328 3040 
Q 2066 3103 1784 3103 
Q 1356 3103 1142 2972 
Q 928 2841 928 2578 
Q 928 2378 1081 2264 
Q 1234 2150 1697 2047 
L 1894 2003 
Q 2506 1872 2764 1633 
Q 3022 1394 3022 966 
Q 3022 478 2636 193 
Q 2250 -91 1575 -91 
Q 1294 -91 989 -36 
Q 684 19 347 128 
L 347 722 
Q 666 556 975 473 
Q 1284 391 1588 391 
Q 1994 391 2212 530 
Q 2431 669 2431 922 
Q 2431 1156 2273 1281 
Q 2116 1406 1581 1522 
L 1381 1569 
Q 847 1681 609 1914 
Q 372 2147 372 2553 
Q 372 3047 722 3315 
Q 1072 3584 1716 3584 
Q 2034 3584 2315 3537 
Q 2597 3491 2834 3397 
z
" transform="scale(0.015625)"/>
      <path id="DejaVuSans-3a" d="M 750 794 
L 1409 794 
L 1409 0 
L 750 0 
L 750 794 
z
M 750 3309 
L 1409 3309 
L 1409 2516 
L 750 2516 
L 750 3309 
z
" transform="scale(0.015625)"/>
      <path id="DejaVuSans-20" transform="scale(0.015625)"/>
      <path id="DejaVuSans-2e" d="M 684 794 
L 1344 794 
L 1344 0 
L 684 0 
L 684 794 
z
" transform="scale(0.015625)"/>
     </defs>
     <use xlink:href="#DejaVuSans-74"/>
     <use xlink:href="#DejaVuSans-69" x="39.208984"/>
     <use xlink:href="#DejaVuSans-6d" x="66.992188"/>
     <use xlink:href="#DejaVuSans-65" x="164.404297"/>
     <use xlink:href="#DejaVuSans-28" x="225.927734"/>
     <use xlink:href="#DejaVuSans-73" x="264.941406"/>
     <use xlink:href="#DejaVuSans-29" x="317.041016"/>
     <use xlink:href="#DejaVuSans-3a" x="356.054688"/>
     <use xlink:href="#DejaVuSans-20" x="389.746094"/>
     <use xlink:href="#DejaVuSans-32" x="421.533203"/>
     <use xlink:href="#DejaVuSans-30" x="485.15625"/>
     <use xlink:href="#DejaVuSans-2e" x="548.779297"/>
     <use xlink:href="#DejaVuSans-30" x="580.566406"/>
     <use xlink:href="#DejaVuSans-34" x="644.189453"/>
    </g>
   </g>
   <g id="text_46">
    <!-- cumul reward: [ 20.33  41.97  39.22 104.33] -->
    <g transform="translate(76.464 91.296)scale(0.1 -0.1)">
     <defs>
      <path id="DejaVuSans-63" d="M 3122 3366 
L 3122 2828 
Q 2878 2963 2633 3030 
Q 2388 3097 2138 3097 
Q 1578 3097 1268 2742 
Q 959 2388 959 1747 
Q 959 1106 1268 751 
Q 1578 397 2138 397 
Q 2388 397 2633 464 
Q 2878 531 3122 666 
L 3122 134 
Q 2881 22 2623 -34 
Q 2366 -91 2075 -91 
Q 1284 -91 818 406 
Q 353 903 353 1747 
Q 353 2603 823 3093 
Q 1294 3584 2113 3584 
Q 2378 3584 2631 3529 
Q 2884 3475 3122 3366 
z
" transform="scale(0.015625)"/>
      <path id="DejaVuSans-75" d="M 544 1381 
L 544 3500 
L 1119 3500 
L 1119 1403 
Q 1119 906 1312 657 
Q 1506 409 1894 409 
Q 2359 409 2629 706 
Q 2900 1003 2900 1516 
L 2900 3500 
L 3475 3500 
L 3475 0 
L 2900 0 
L 2900 538 
Q 2691 219 2414 64 
Q 2138 -91 1772 -91 
Q 1169 -91 856 284 
Q 544 659 544 1381 
z
M 1991 3584 
L 1991 3584 
z
" transform="scale(0.015625)"/>
      <path id="DejaVuSans-6c" d="M 603 4863 
L 1178 4863 
L 1178 0 
L 603 0 
L 603 4863 
z
" transform="scale(0.015625)"/>
      <path id="DejaVuSans-72" d="M 2631 2963 
Q 2534 3019 2420 3045 
Q 2306 3072 2169 3072 
Q 1681 3072 1420 2755 
Q 1159 2438 1159 1844 
L 1159 0 
L 581 0 
L 581 3500 
L 1159 3500 
L 1159 2956 
Q 1341 3275 1631 3429 
Q 1922 3584 2338 3584 
Q 2397 3584 2469 3576 
Q 2541 3569 2628 3553 
L 2631 2963 
z
" transform="scale(0.015625)"/>
      <path id="DejaVuSans-77" d="M 269 3500 
L 844 3500 
L 1563 769 
L 2278 3500 
L 2956 3500 
L 3675 769 
L 4391 3500 
L 4966 3500 
L 4050 0 
L 3372 0 
L 2619 2869 
L 1863 0 
L 1184 0 
L 269 3500 
z
" transform="scale(0.015625)"/>
      <path id="DejaVuSans-61" d="M 2194 1759 
Q 1497 1759 1228 1600 
Q 959 1441 959 1056 
Q 959 750 1161 570 
Q 1363 391 1709 391 
Q 2188 391 2477 730 
Q 2766 1069 2766 1631 
L 2766 1759 
L 2194 1759 
z
M 3341 1997 
L 3341 0 
L 2766 0 
L 2766 531 
Q 2569 213 2275 61 
Q 1981 -91 1556 -91 
Q 1019 -91 701 211 
Q 384 513 384 1019 
Q 384 1609 779 1909 
Q 1175 2209 1959 2209 
L 2766 2209 
L 2766 2266 
Q 2766 2663 2505 2880 
Q 2244 3097 1772 3097 
Q 1472 3097 1187 3025 
Q 903 2953 641 2809 
L 641 3341 
Q 956 3463 1253 3523 
Q 1550 3584 1831 3584 
Q 2591 3584 2966 3190 
Q 3341 2797 3341 1997 
z
" transform="scale(0.015625)"/>
      <path id="DejaVuSans-64" d="M 2906 2969 
L 2906 4863 
L 3481 4863 
L 3481 0 
L 2906 0 
L 2906 525 
Q 2725 213 2448 61 
Q 2172 -91 1784 -91 
Q 1150 -91 751 415 
Q 353 922 353 1747 
Q 353 2572 751 3078 
Q 1150 3584 1784 3584 
Q 2172 3584 2448 3432 
Q 2725 3281 2906 2969 
z
M 947 1747 
Q 947 1113 1208 752 
Q 1469 391 1925 391 
Q 2381 391 2643 752 
Q 2906 1113 2906 1747 
Q 2906 2381 2643 2742 
Q 2381 3103 1925 3103 
Q 1469 3103 1208 2742 
Q 947 2381 947 1747 
z
" transform="scale(0.015625)"/>
      <path id="DejaVuSans-5b" d="M 550 4863 
L 1875 4863 
L 1875 4416 
L 1125 4416 
L 1125 -397 
L 1875 -397 
L 1875 -844 
L 550 -844 
L 550 4863 
z
" transform="scale(0.015625)"/>
      <path id="DejaVuSans-5d" d="M 1947 4863 
L 1947 -844 
L 622 -844 
L 622 -397 
L 1369 -397 
L 1369 4416 
L 622 4416 
L 622 4863 
L 1947 4863 
z
" transform="scale(0.015625)"/>
     </defs>
     <use xlink:href="#DejaVuSans-63"/>
     <use xlink:href="#DejaVuSans-75" x="54.980469"/>
     <use xlink:href="#DejaVuSans-6d" x="118.359375"/>
     <use xlink:href="#DejaVuSans-75" x="215.771484"/>
     <use xlink:href="#DejaVuSans-6c" x="279.150391"/>
     <use xlink:href="#DejaVuSans-20" x="306.933594"/>
     <use xlink:href="#DejaVuSans-72" x="338.720703"/>
     <use xlink:href="#DejaVuSans-65" x="377.583984"/>
     <use xlink:href="#DejaVuSans-77" x="439.107422"/>
     <use xlink:href="#DejaVuSans-61" x="520.894531"/>
     <use xlink:href="#DejaVuSans-72" x="582.173828"/>
     <use xlink:href="#DejaVuSans-64" x="621.537109"/>
     <use xlink:href="#DejaVuSans-3a" x="685.013672"/>
     <use xlink:href="#DejaVuSans-20" x="718.705078"/>
     <use xlink:href="#DejaVuSans-5b" x="750.492188"/>
     <use xlink:href="#DejaVuSans-20" x="789.505859"/>
     <use xlink:href="#DejaVuSans-32" x="821.292969"/>
     <use xlink:href="#DejaVuSans-30" x="884.916016"/>
     <use xlink:href="#DejaVuSans-2e" x="948.539062"/>
     <use xlink:href="#DejaVuSans-33" x="980.326172"/>
     <use xlink:href="#DejaVuSans-33" x="1043.949219"/>
     <use xlink:href="#DejaVuSans-20" x="1107.572266"/>
     <use xlink:href="#DejaVuSans-20" x="1139.359375"/>
     <use xlink:href="#DejaVuSans-34" x="1171.146484"/>
     <use xlink:href="#DejaVuSans-31" x="1234.769531"/>
     <use xlink:href="#DejaVuSans-2e" x="1298.392578"/>
     <use xlink:href="#DejaVuSans-39" x="1330.179688"/>
     <use xlink:href="#DejaVuSans-37" x="1393.802734"/>
     <use xlink:href="#DejaVuSans-20" x="1457.425781"/>
     <use xlink:href="#DejaVuSans-20" x="1489.212891"/>
     <use xlink:href="#DejaVuSans-33" x="1521"/>
     <use xlink:href="#DejaVuSans-39" x="1584.623047"/>
     <use xlink:href="#DejaVuSans-2e" x="1648.246094"/>
     <use xlink:href="#DejaVuSans-32" x="1680.033203"/>
     <use xlink:href="#DejaVuSans-32" x="1743.65625"/>
     <use xlink:href="#DejaVuSans-20" x="1807.279297"/>
     <use xlink:href="#DejaVuSans-31" x="1839.066406"/>
     <use xlink:href="#DejaVuSans-30" x="1902.689453"/>
     <use xlink:href="#DejaVuSans-34" x="1966.3125"/>
     <use xlink:href="#DejaVuSans-2e" x="2029.935547"/>
     <use xlink:href="#DejaVuSans-33" x="2061.722656"/>
     <use xlink:href="#DejaVuSans-33" x="2125.345703"/>
     <use xlink:href="#DejaVuSans-5d" x="2188.96875"/>
    </g>
   </g>
   <g id="text_47">
    <!-- Swarm trajectory -->
    <g transform="translate(243.499687 63.12)scale(0.12 -0.12)">
     <defs>
      <path id="DejaVuSans-53" d="M 3425 4513 
L 3425 3897 
Q 3066 4069 2747 4153 
Q 2428 4238 2131 4238 
Q 1616 4238 1336 4038 
Q 1056 3838 1056 3469 
Q 1056 3159 1242 3001 
Q 1428 2844 1947 2747 
L 2328 2669 
Q 3034 2534 3370 2195 
Q 3706 1856 3706 1288 
Q 3706 609 3251 259 
Q 2797 -91 1919 -91 
Q 1588 -91 1214 -16 
Q 841 59 441 206 
L 441 856 
Q 825 641 1194 531 
Q 1563 422 1919 422 
Q 2459 422 2753 634 
Q 3047 847 3047 1241 
Q 3047 1584 2836 1778 
Q 2625 1972 2144 2069 
L 1759 2144 
Q 1053 2284 737 2584 
Q 422 2884 422 3419 
Q 422 4038 858 4394 
Q 1294 4750 2059 4750 
Q 2388 4750 2728 4690 
Q 3069 4631 3425 4513 
z
" transform="scale(0.015625)"/>
      <path id="DejaVuSans-6a" d="M 603 3500 
L 1178 3500 
L 1178 -63 
Q 1178 -731 923 -1031 
Q 669 -1331 103 -1331 
L -116 -1331 
L -116 -844 
L 38 -844 
Q 366 -844 484 -692 
Q 603 -541 603 -63 
L 603 3500 
z
M 603 4863 
L 1178 4863 
L 1178 4134 
L 603 4134 
L 603 4863 
z
" transform="scale(0.015625)"/>
      <path id="DejaVuSans-6f" d="M 1959 3097 
Q 1497 3097 1228 2736 
Q 959 2375 959 1747 
Q 959 1119 1226 758 
Q 1494 397 1959 397 
Q 2419 397 2687 759 
Q 2956 1122 2956 1747 
Q 2956 2369 2687 2733 
Q 2419 3097 1959 3097 
z
M 1959 3584 
Q 2709 3584 3137 3096 
Q 3566 2609 3566 1747 
Q 3566 888 3137 398 
Q 2709 -91 1959 -91 
Q 1206 -91 779 398 
Q 353 888 353 1747 
Q 353 2609 779 3096 
Q 1206 3584 1959 3584 
z
" transform="scale(0.015625)"/>
      <path id="DejaVuSans-79" d="M 2059 -325 
Q 1816 -950 1584 -1140 
Q 1353 -1331 966 -1331 
L 506 -1331 
L 506 -850 
L 844 -850 
Q 1081 -850 1212 -737 
Q 1344 -625 1503 -206 
L 1606 56 
L 191 3500 
L 800 3500 
L 1894 763 
L 2988 3500 
L 3597 3500 
L 2059 -325 
z
" transform="scale(0.015625)"/>
     </defs>
     <use xlink:href="#DejaVuSans-53"/>
     <use xlink:href="#DejaVuSans-77" x="63.476562"/>
     <use xlink:href="#DejaVuSans-61" x="145.263672"/>
     <use xlink:href="#DejaVuSans-72" x="206.542969"/>
     <use xlink:href="#DejaVuSans-6d" x="245.90625"/>
     <use xlink:href="#DejaVuSans-20" x="343.318359"/>
     <use xlink:href="#DejaVuSans-74" x="375.105469"/>
     <use xlink:href="#DejaVuSans-72" x="414.314453"/>
     <use xlink:href="#DejaVuSans-61" x="455.427734"/>
     <use xlink:href="#DejaVuSans-6a" x="516.707031"/>
     <use xlink:href="#DejaVuSans-65" x="544.490234"/>
     <use xlink:href="#DejaVuSans-63" x="606.013672"/>
     <use xlink:href="#DejaVuSans-74" x="660.994141"/>
     <use xlink:href="#DejaVuSans-6f" x="700.203125"/>
     <use xlink:href="#DejaVuSans-72" x="761.384766"/>
     <use xlink:href="#DejaVuSans-79" x="802.498047"/>
    </g>
   </g>
   <g id="legend_1">
    <g id="patch_7">
     <path d="M 413.484375 191.205938 
L 507.9 191.205938 
Q 510.9 191.205938 510.9 188.205938 
L 510.9 79.62 
Q 510.9 76.62 507.9 76.62 
L 413.484375 76.62 
Q 410.484375 76.62 410.484375 79.62 
L 410.484375 188.205938 
Q 410.484375 191.205938 413.484375 191.205938 
z
" style="fill: #ffffff; opacity: 0.8; stroke: #cccccc; stroke-linejoin: miter"/>
    </g>
    <g id="PathCollection_6">
     <g>
      <use xlink:href="#mf2762a49a6" x="431.484375" y="90.080156" style="fill: #cc1a1a; fill-opacity: 0.5; stroke: #cc1a1a; stroke-opacity: 0.5"/>
     </g>
    </g>
    <g id="text_48">
     <!-- Target -->
     <g transform="translate(458.484375 94.017656)scale(0.15 -0.15)">
      <defs>
       <path id="DejaVuSans-54" d="M -19 4666 
L 3928 4666 
L 3928 4134 
L 2272 4134 
L 2272 0 
L 1638 0 
L 1638 4134 
L -19 4134 
L -19 4666 
z
" transform="scale(0.015625)"/>
       <path id="DejaVuSans-67" d="M 2906 1791 
Q 2906 2416 2648 2759 
Q 2391 3103 1925 3103 
Q 1463 3103 1205 2759 
Q 947 2416 947 1791 
Q 947 1169 1205 825 
Q 1463 481 1925 481 
Q 2391 481 2648 825 
Q 2906 1169 2906 1791 
z
M 3481 434 
Q 3481 -459 3084 -895 
Q 2688 -1331 1869 -1331 
Q 1566 -1331 1297 -1286 
Q 1028 -1241 775 -1147 
L 775 -588 
Q 1028 -725 1275 -790 
Q 1522 -856 1778 -856 
Q 2344 -856 2625 -561 
Q 2906 -266 2906 331 
L 2906 616 
Q 2728 306 2450 153 
Q 2172 0 1784 0 
Q 1141 0 747 490 
Q 353 981 353 1791 
Q 353 2603 747 3093 
Q 1141 3584 1784 3584 
Q 2172 3584 2450 3431 
Q 2728 3278 2906 2969 
L 2906 3500 
L 3481 3500 
L 3481 434 
z
" transform="scale(0.015625)"/>
      </defs>
      <use xlink:href="#DejaVuSans-54"/>
      <use xlink:href="#DejaVuSans-61" x="44.583984"/>
      <use xlink:href="#DejaVuSans-72" x="105.863281"/>
      <use xlink:href="#DejaVuSans-67" x="145.226562"/>
      <use xlink:href="#DejaVuSans-65" x="208.703125"/>
      <use xlink:href="#DejaVuSans-74" x="270.226562"/>
     </g>
    </g>
    <g id="PathCollection_7">
     <g>
      <use xlink:href="#mc80ca32fac" x="431.484375" y="112.097344" style="fill: #7b68ee; stroke: #7b68ee"/>
     </g>
    </g>
    <g id="text_49">
     <!-- $M_1$ -->
     <g transform="translate(458.484375 116.034844)scale(0.15 -0.15)">
      <defs>
       <path id="DejaVuSans-Oblique-4d" d="M 1081 4666 
L 2028 4666 
L 2572 1522 
L 4378 4666 
L 5350 4666 
L 4441 0 
L 3828 0 
L 4622 4091 
L 2791 897 
L 2175 897 
L 1581 4103 
L 788 0 
L 172 0 
L 1081 4666 
z
" transform="scale(0.015625)"/>
      </defs>
      <use xlink:href="#DejaVuSans-Oblique-4d" transform="translate(0 0.09375)"/>
      <use xlink:href="#DejaVuSans-31" transform="translate(86.279297 -16.3125)scale(0.7)"/>
     </g>
    </g>
    <g id="PathCollection_8">
     <g>
      <use xlink:href="#mbbb9d6c851" x="431.484375" y="134.114531" style="fill: #ffe4b5; stroke: #ffe4b5"/>
     </g>
    </g>
    <g id="text_50">
     <!-- $M_2$ -->
     <g transform="translate(458.484375 138.052031)scale(0.15 -0.15)">
      <use xlink:href="#DejaVuSans-Oblique-4d" transform="translate(0 0.09375)"/>
      <use xlink:href="#DejaVuSans-32" transform="translate(86.279297 -16.3125)scale(0.7)"/>
     </g>
    </g>
    <g id="PathCollection_9">
     <g>
      <use xlink:href="#m0eccb8f155" x="431.484375" y="156.131719" style="fill: #c54f85; stroke: #c54f85"/>
     </g>
    </g>
    <g id="text_51">
     <!-- $M_3$ -->
     <g transform="translate(458.484375 160.069219)scale(0.15 -0.15)">
      <use xlink:href="#DejaVuSans-Oblique-4d" transform="translate(0 0.09375)"/>
      <use xlink:href="#DejaVuSans-33" transform="translate(86.279297 -16.3125)scale(0.7)"/>
     </g>
    </g>
    <g id="PathCollection_10">
     <g>
      <use xlink:href="#mb37b799844" x="431.484375" y="178.148906" style="fill: #00bfff; stroke: #00bfff"/>
     </g>
    </g>
    <g id="text_52">
     <!-- $M_4$ -->
     <g transform="translate(458.484375 182.086406)scale(0.15 -0.15)">
      <use xlink:href="#DejaVuSans-Oblique-4d" transform="translate(0 0.09375)"/>
      <use xlink:href="#DejaVuSans-34" transform="translate(86.279297 -16.3125)scale(0.7)"/>
     </g>
    </g>
   </g>
  </g>
 </g>
 <defs>
  <clipPath id="p81b2a8d430">
   <rect x="72" y="69.12" width="446.4" height="443.52"/>
  </clipPath>
 </defs>
</svg>
