<?xml version="1.0" encoding="utf-8" standalone="no"?>
<!DOCTYPE svg PUBLIC "-//W3C//DTD SVG 1.1//EN"
  "http://www.w3.org/Graphics/SVG/1.1/DTD/svg11.dtd">
<svg xmlns:xlink="http://www.w3.org/1999/xlink" width="460.8pt" height="345.6pt" viewBox="0 0 460.8 345.6" xmlns="http://www.w3.org/2000/svg" version="1.1">
 <metadata>
  <rdf:RDF xmlns:dc="http://purl.org/dc/elements/1.1/" xmlns:cc="http://creativecommons.org/ns#" xmlns:rdf="http://www.w3.org/1999/02/22-rdf-syntax-ns#">
   <cc:Work>
    <dc:type rdf:resource="http://purl.org/dc/dcmitype/StillImage"/>
    <dc:date>2022-08-28T12:20:39.047381</dc:date>
    <dc:format>image/svg+xml</dc:format>
    <dc:creator>
     <cc:Agent>
      <dc:title>Matplotlib v3.5.2, https://matplotlib.org/</dc:title>
     </cc:Agent>
    </dc:creator>
   </cc:Work>
  </rdf:RDF>
 </metadata>
 <defs>
  <style type="text/css">*{stroke-linejoin: round; stroke-linecap: butt}</style>
 </defs>
 <g id="figure_1">
  <g id="patch_1">
   <path d="M 0 345.6 
L 460.8 345.6 
L 460.8 0 
L 0 0 
z
" style="fill: #ffffff"/>
  </g>
  <g id="axes_1">
   <g id="patch_2">
    <path d="M 57.6 307.584 
L 414.72 307.584 
L 414.72 41.472 
L 57.6 41.472 
z
" style="fill: #ffffff"/>
   </g>
   <g id="matplotlib.axis_1">
    <g id="xtick_1">
     <g id="line2d_1">
      <defs>
       <path id="m61eae72476" d="M 0 0 
L 0 3.5 
" style="stroke: #000000; stroke-width: 0.8"/>
      </defs>
      <g>
       <use xlink:href="#m61eae72476" x="73.832727" y="307.584" style="stroke: #000000; stroke-width: 0.8"/>
      </g>
     </g>
     <g id="text_1">
      <!-- 0.0 -->
      <g transform="translate(65.881165 322.182437)scale(0.1 -0.1)">
       <defs>
        <path id="DejaVuSans-30" d="M 2034 4250 
Q 1547 4250 1301 3770 
Q 1056 3291 1056 2328 
Q 1056 1369 1301 889 
Q 1547 409 2034 409 
Q 2525 409 2770 889 
Q 3016 1369 3016 2328 
Q 3016 3291 2770 3770 
Q 2525 4250 2034 4250 
z
M 2034 4750 
Q 2819 4750 3233 4129 
Q 3647 3509 3647 2328 
Q 3647 1150 3233 529 
Q 2819 -91 2034 -91 
Q 1250 -91 836 529 
Q 422 1150 422 2328 
Q 422 3509 836 4129 
Q 1250 4750 2034 4750 
z
" transform="scale(0.015625)"/>
        <path id="DejaVuSans-2e" d="M 684 794 
L 1344 794 
L 1344 0 
L 684 0 
L 684 794 
z
" transform="scale(0.015625)"/>
       </defs>
       <use xlink:href="#DejaVuSans-30"/>
       <use xlink:href="#DejaVuSans-2e" x="63.623047"/>
       <use xlink:href="#DejaVuSans-30" x="95.410156"/>
      </g>
     </g>
    </g>
    <g id="xtick_2">
     <g id="line2d_2">
      <g>
       <use xlink:href="#m61eae72476" x="98.181818" y="307.584" style="stroke: #000000; stroke-width: 0.8"/>
      </g>
     </g>
     <g id="text_2">
      <!-- 3.0 -->
      <g transform="translate(90.230256 322.182437)scale(0.1 -0.1)">
       <defs>
        <path id="DejaVuSans-33" d="M 2597 2516 
Q 3050 2419 3304 2112 
Q 3559 1806 3559 1356 
Q 3559 666 3084 287 
Q 2609 -91 1734 -91 
Q 1441 -91 1130 -33 
Q 819 25 488 141 
L 488 750 
Q 750 597 1062 519 
Q 1375 441 1716 441 
Q 2309 441 2620 675 
Q 2931 909 2931 1356 
Q 2931 1769 2642 2001 
Q 2353 2234 1838 2234 
L 1294 2234 
L 1294 2753 
L 1863 2753 
Q 2328 2753 2575 2939 
Q 2822 3125 2822 3475 
Q 2822 3834 2567 4026 
Q 2313 4219 1838 4219 
Q 1578 4219 1281 4162 
Q 984 4106 628 3988 
L 628 4550 
Q 988 4650 1302 4700 
Q 1616 4750 1894 4750 
Q 2613 4750 3031 4423 
Q 3450 4097 3450 3541 
Q 3450 3153 3228 2886 
Q 3006 2619 2597 2516 
z
" transform="scale(0.015625)"/>
       </defs>
       <use xlink:href="#DejaVuSans-33"/>
       <use xlink:href="#DejaVuSans-2e" x="63.623047"/>
       <use xlink:href="#DejaVuSans-30" x="95.410156"/>
      </g>
     </g>
    </g>
    <g id="xtick_3">
     <g id="line2d_3">
      <g>
       <use xlink:href="#m61eae72476" x="122.530909" y="307.584" style="stroke: #000000; stroke-width: 0.8"/>
      </g>
     </g>
     <g id="text_3">
      <!-- 6.0 -->
      <g transform="translate(114.579347 322.182437)scale(0.1 -0.1)">
       <defs>
        <path id="DejaVuSans-36" d="M 2113 2584 
Q 1688 2584 1439 2293 
Q 1191 2003 1191 1497 
Q 1191 994 1439 701 
Q 1688 409 2113 409 
Q 2538 409 2786 701 
Q 3034 994 3034 1497 
Q 3034 2003 2786 2293 
Q 2538 2584 2113 2584 
z
M 3366 4563 
L 3366 3988 
Q 3128 4100 2886 4159 
Q 2644 4219 2406 4219 
Q 1781 4219 1451 3797 
Q 1122 3375 1075 2522 
Q 1259 2794 1537 2939 
Q 1816 3084 2150 3084 
Q 2853 3084 3261 2657 
Q 3669 2231 3669 1497 
Q 3669 778 3244 343 
Q 2819 -91 2113 -91 
Q 1303 -91 875 529 
Q 447 1150 447 2328 
Q 447 3434 972 4092 
Q 1497 4750 2381 4750 
Q 2619 4750 2861 4703 
Q 3103 4656 3366 4563 
z
" transform="scale(0.015625)"/>
       </defs>
       <use xlink:href="#DejaVuSans-36"/>
       <use xlink:href="#DejaVuSans-2e" x="63.623047"/>
       <use xlink:href="#DejaVuSans-30" x="95.410156"/>
      </g>
     </g>
    </g>
    <g id="xtick_4">
     <g id="line2d_4">
      <g>
       <use xlink:href="#m61eae72476" x="146.88" y="307.584" style="stroke: #000000; stroke-width: 0.8"/>
      </g>
     </g>
     <g id="text_4">
      <!-- 9.0 -->
      <g transform="translate(138.928438 322.182437)scale(0.1 -0.1)">
       <defs>
        <path id="DejaVuSans-39" d="M 703 97 
L 703 672 
Q 941 559 1184 500 
Q 1428 441 1663 441 
Q 2288 441 2617 861 
Q 2947 1281 2994 2138 
Q 2813 1869 2534 1725 
Q 2256 1581 1919 1581 
Q 1219 1581 811 2004 
Q 403 2428 403 3163 
Q 403 3881 828 4315 
Q 1253 4750 1959 4750 
Q 2769 4750 3195 4129 
Q 3622 3509 3622 2328 
Q 3622 1225 3098 567 
Q 2575 -91 1691 -91 
Q 1453 -91 1209 -44 
Q 966 3 703 97 
z
M 1959 2075 
Q 2384 2075 2632 2365 
Q 2881 2656 2881 3163 
Q 2881 3666 2632 3958 
Q 2384 4250 1959 4250 
Q 1534 4250 1286 3958 
Q 1038 3666 1038 3163 
Q 1038 2656 1286 2365 
Q 1534 2075 1959 2075 
z
" transform="scale(0.015625)"/>
       </defs>
       <use xlink:href="#DejaVuSans-39"/>
       <use xlink:href="#DejaVuSans-2e" x="63.623047"/>
       <use xlink:href="#DejaVuSans-30" x="95.410156"/>
      </g>
     </g>
    </g>
    <g id="xtick_5">
     <g id="line2d_5">
      <g>
       <use xlink:href="#m61eae72476" x="171.229091" y="307.584" style="stroke: #000000; stroke-width: 0.8"/>
      </g>
     </g>
     <g id="text_5">
      <!-- 12.0 -->
      <g transform="translate(160.096278 322.182437)scale(0.1 -0.1)">
       <defs>
        <path id="DejaVuSans-31" d="M 794 531 
L 1825 531 
L 1825 4091 
L 703 3866 
L 703 4441 
L 1819 4666 
L 2450 4666 
L 2450 531 
L 3481 531 
L 3481 0 
L 794 0 
L 794 531 
z
" transform="scale(0.015625)"/>
        <path id="DejaVuSans-32" d="M 1228 531 
L 3431 531 
L 3431 0 
L 469 0 
L 469 531 
Q 828 903 1448 1529 
Q 2069 2156 2228 2338 
Q 2531 2678 2651 2914 
Q 2772 3150 2772 3378 
Q 2772 3750 2511 3984 
Q 2250 4219 1831 4219 
Q 1534 4219 1204 4116 
Q 875 4013 500 3803 
L 500 4441 
Q 881 4594 1212 4672 
Q 1544 4750 1819 4750 
Q 2544 4750 2975 4387 
Q 3406 4025 3406 3419 
Q 3406 3131 3298 2873 
Q 3191 2616 2906 2266 
Q 2828 2175 2409 1742 
Q 1991 1309 1228 531 
z
" transform="scale(0.015625)"/>
       </defs>
       <use xlink:href="#DejaVuSans-31"/>
       <use xlink:href="#DejaVuSans-32" x="63.623047"/>
       <use xlink:href="#DejaVuSans-2e" x="127.246094"/>
       <use xlink:href="#DejaVuSans-30" x="159.033203"/>
      </g>
     </g>
    </g>
    <g id="xtick_6">
     <g id="line2d_6">
      <g>
       <use xlink:href="#m61eae72476" x="195.578182" y="307.584" style="stroke: #000000; stroke-width: 0.8"/>
      </g>
     </g>
     <g id="text_6">
      <!-- 15.0 -->
      <g transform="translate(184.445369 322.182437)scale(0.1 -0.1)">
       <defs>
        <path id="DejaVuSans-35" d="M 691 4666 
L 3169 4666 
L 3169 4134 
L 1269 4134 
L 1269 2991 
Q 1406 3038 1543 3061 
Q 1681 3084 1819 3084 
Q 2600 3084 3056 2656 
Q 3513 2228 3513 1497 
Q 3513 744 3044 326 
Q 2575 -91 1722 -91 
Q 1428 -91 1123 -41 
Q 819 9 494 109 
L 494 744 
Q 775 591 1075 516 
Q 1375 441 1709 441 
Q 2250 441 2565 725 
Q 2881 1009 2881 1497 
Q 2881 1984 2565 2268 
Q 2250 2553 1709 2553 
Q 1456 2553 1204 2497 
Q 953 2441 691 2322 
L 691 4666 
z
" transform="scale(0.015625)"/>
       </defs>
       <use xlink:href="#DejaVuSans-31"/>
       <use xlink:href="#DejaVuSans-35" x="63.623047"/>
       <use xlink:href="#DejaVuSans-2e" x="127.246094"/>
       <use xlink:href="#DejaVuSans-30" x="159.033203"/>
      </g>
     </g>
    </g>
    <g id="xtick_7">
     <g id="line2d_7">
      <g>
       <use xlink:href="#m61eae72476" x="219.927273" y="307.584" style="stroke: #000000; stroke-width: 0.8"/>
      </g>
     </g>
     <g id="text_7">
      <!-- 18.0 -->
      <g transform="translate(208.79446 322.182437)scale(0.1 -0.1)">
       <defs>
        <path id="DejaVuSans-38" d="M 2034 2216 
Q 1584 2216 1326 1975 
Q 1069 1734 1069 1313 
Q 1069 891 1326 650 
Q 1584 409 2034 409 
Q 2484 409 2743 651 
Q 3003 894 3003 1313 
Q 3003 1734 2745 1975 
Q 2488 2216 2034 2216 
z
M 1403 2484 
Q 997 2584 770 2862 
Q 544 3141 544 3541 
Q 544 4100 942 4425 
Q 1341 4750 2034 4750 
Q 2731 4750 3128 4425 
Q 3525 4100 3525 3541 
Q 3525 3141 3298 2862 
Q 3072 2584 2669 2484 
Q 3125 2378 3379 2068 
Q 3634 1759 3634 1313 
Q 3634 634 3220 271 
Q 2806 -91 2034 -91 
Q 1263 -91 848 271 
Q 434 634 434 1313 
Q 434 1759 690 2068 
Q 947 2378 1403 2484 
z
M 1172 3481 
Q 1172 3119 1398 2916 
Q 1625 2713 2034 2713 
Q 2441 2713 2670 2916 
Q 2900 3119 2900 3481 
Q 2900 3844 2670 4047 
Q 2441 4250 2034 4250 
Q 1625 4250 1398 4047 
Q 1172 3844 1172 3481 
z
" transform="scale(0.015625)"/>
       </defs>
       <use xlink:href="#DejaVuSans-31"/>
       <use xlink:href="#DejaVuSans-38" x="63.623047"/>
       <use xlink:href="#DejaVuSans-2e" x="127.246094"/>
       <use xlink:href="#DejaVuSans-30" x="159.033203"/>
      </g>
     </g>
    </g>
    <g id="xtick_8">
     <g id="line2d_8">
      <g>
       <use xlink:href="#m61eae72476" x="244.276364" y="307.584" style="stroke: #000000; stroke-width: 0.8"/>
      </g>
     </g>
     <g id="text_8">
      <!-- 21.0 -->
      <g transform="translate(233.143551 322.182437)scale(0.1 -0.1)">
       <use xlink:href="#DejaVuSans-32"/>
       <use xlink:href="#DejaVuSans-31" x="63.623047"/>
       <use xlink:href="#DejaVuSans-2e" x="127.246094"/>
       <use xlink:href="#DejaVuSans-30" x="159.033203"/>
      </g>
     </g>
    </g>
    <g id="xtick_9">
     <g id="line2d_9">
      <g>
       <use xlink:href="#m61eae72476" x="268.625455" y="307.584" style="stroke: #000000; stroke-width: 0.8"/>
      </g>
     </g>
     <g id="text_9">
      <!-- 24.0 -->
      <g transform="translate(257.492642 322.182437)scale(0.1 -0.1)">
       <defs>
        <path id="DejaVuSans-34" d="M 2419 4116 
L 825 1625 
L 2419 1625 
L 2419 4116 
z
M 2253 4666 
L 3047 4666 
L 3047 1625 
L 3713 1625 
L 3713 1100 
L 3047 1100 
L 3047 0 
L 2419 0 
L 2419 1100 
L 313 1100 
L 313 1709 
L 2253 4666 
z
" transform="scale(0.015625)"/>
       </defs>
       <use xlink:href="#DejaVuSans-32"/>
       <use xlink:href="#DejaVuSans-34" x="63.623047"/>
       <use xlink:href="#DejaVuSans-2e" x="127.246094"/>
       <use xlink:href="#DejaVuSans-30" x="159.033203"/>
      </g>
     </g>
    </g>
    <g id="xtick_10">
     <g id="line2d_10">
      <g>
       <use xlink:href="#m61eae72476" x="292.974545" y="307.584" style="stroke: #000000; stroke-width: 0.8"/>
      </g>
     </g>
     <g id="text_10">
      <!-- 27.0 -->
      <g transform="translate(281.841733 322.182437)scale(0.1 -0.1)">
       <defs>
        <path id="DejaVuSans-37" d="M 525 4666 
L 3525 4666 
L 3525 4397 
L 1831 0 
L 1172 0 
L 2766 4134 
L 525 4134 
L 525 4666 
z
" transform="scale(0.015625)"/>
       </defs>
       <use xlink:href="#DejaVuSans-32"/>
       <use xlink:href="#DejaVuSans-37" x="63.623047"/>
       <use xlink:href="#DejaVuSans-2e" x="127.246094"/>
       <use xlink:href="#DejaVuSans-30" x="159.033203"/>
      </g>
     </g>
    </g>
    <g id="xtick_11">
     <g id="line2d_11">
      <g>
       <use xlink:href="#m61eae72476" x="317.323636" y="307.584" style="stroke: #000000; stroke-width: 0.8"/>
      </g>
     </g>
     <g id="text_11">
      <!-- 30.0 -->
      <g transform="translate(306.190824 322.182437)scale(0.1 -0.1)">
       <use xlink:href="#DejaVuSans-33"/>
       <use xlink:href="#DejaVuSans-30" x="63.623047"/>
       <use xlink:href="#DejaVuSans-2e" x="127.246094"/>
       <use xlink:href="#DejaVuSans-30" x="159.033203"/>
      </g>
     </g>
    </g>
    <g id="xtick_12">
     <g id="line2d_12">
      <g>
       <use xlink:href="#m61eae72476" x="341.672727" y="307.584" style="stroke: #000000; stroke-width: 0.8"/>
      </g>
     </g>
     <g id="text_12">
      <!-- 33.0 -->
      <g transform="translate(330.539915 322.182437)scale(0.1 -0.1)">
       <use xlink:href="#DejaVuSans-33"/>
       <use xlink:href="#DejaVuSans-33" x="63.623047"/>
       <use xlink:href="#DejaVuSans-2e" x="127.246094"/>
       <use xlink:href="#DejaVuSans-30" x="159.033203"/>
      </g>
     </g>
    </g>
    <g id="xtick_13">
     <g id="line2d_13">
      <g>
       <use xlink:href="#m61eae72476" x="366.021818" y="307.584" style="stroke: #000000; stroke-width: 0.8"/>
      </g>
     </g>
     <g id="text_13">
      <!-- 36.0 -->
      <g transform="translate(354.889006 322.182437)scale(0.1 -0.1)">
       <use xlink:href="#DejaVuSans-33"/>
       <use xlink:href="#DejaVuSans-36" x="63.623047"/>
       <use xlink:href="#DejaVuSans-2e" x="127.246094"/>
       <use xlink:href="#DejaVuSans-30" x="159.033203"/>
      </g>
     </g>
    </g>
    <g id="xtick_14">
     <g id="line2d_14">
      <g>
       <use xlink:href="#m61eae72476" x="390.370909" y="307.584" style="stroke: #000000; stroke-width: 0.8"/>
      </g>
     </g>
     <g id="text_14">
      <!-- 39.0 -->
      <g transform="translate(379.238097 322.182437)scale(0.1 -0.1)">
       <use xlink:href="#DejaVuSans-33"/>
       <use xlink:href="#DejaVuSans-39" x="63.623047"/>
       <use xlink:href="#DejaVuSans-2e" x="127.246094"/>
       <use xlink:href="#DejaVuSans-30" x="159.033203"/>
      </g>
     </g>
    </g>
    <g id="text_15">
     <!-- time(s) -->
     <g transform="translate(218.357656 335.860562)scale(0.1 -0.1)">
      <defs>
       <path id="DejaVuSans-74" d="M 1172 4494 
L 1172 3500 
L 2356 3500 
L 2356 3053 
L 1172 3053 
L 1172 1153 
Q 1172 725 1289 603 
Q 1406 481 1766 481 
L 2356 481 
L 2356 0 
L 1766 0 
Q 1100 0 847 248 
Q 594 497 594 1153 
L 594 3053 
L 172 3053 
L 172 3500 
L 594 3500 
L 594 4494 
L 1172 4494 
z
" transform="scale(0.015625)"/>
       <path id="DejaVuSans-69" d="M 603 3500 
L 1178 3500 
L 1178 0 
L 603 0 
L 603 3500 
z
M 603 4863 
L 1178 4863 
L 1178 4134 
L 603 4134 
L 603 4863 
z
" transform="scale(0.015625)"/>
       <path id="DejaVuSans-6d" d="M 3328 2828 
Q 3544 3216 3844 3400 
Q 4144 3584 4550 3584 
Q 5097 3584 5394 3201 
Q 5691 2819 5691 2113 
L 5691 0 
L 5113 0 
L 5113 2094 
Q 5113 2597 4934 2840 
Q 4756 3084 4391 3084 
Q 3944 3084 3684 2787 
Q 3425 2491 3425 1978 
L 3425 0 
L 2847 0 
L 2847 2094 
Q 2847 2600 2669 2842 
Q 2491 3084 2119 3084 
Q 1678 3084 1418 2786 
Q 1159 2488 1159 1978 
L 1159 0 
L 581 0 
L 581 3500 
L 1159 3500 
L 1159 2956 
Q 1356 3278 1631 3431 
Q 1906 3584 2284 3584 
Q 2666 3584 2933 3390 
Q 3200 3197 3328 2828 
z
" transform="scale(0.015625)"/>
       <path id="DejaVuSans-65" d="M 3597 1894 
L 3597 1613 
L 953 1613 
Q 991 1019 1311 708 
Q 1631 397 2203 397 
Q 2534 397 2845 478 
Q 3156 559 3463 722 
L 3463 178 
Q 3153 47 2828 -22 
Q 2503 -91 2169 -91 
Q 1331 -91 842 396 
Q 353 884 353 1716 
Q 353 2575 817 3079 
Q 1281 3584 2069 3584 
Q 2775 3584 3186 3129 
Q 3597 2675 3597 1894 
z
M 3022 2063 
Q 3016 2534 2758 2815 
Q 2500 3097 2075 3097 
Q 1594 3097 1305 2825 
Q 1016 2553 972 2059 
L 3022 2063 
z
" transform="scale(0.015625)"/>
       <path id="DejaVuSans-28" d="M 1984 4856 
Q 1566 4138 1362 3434 
Q 1159 2731 1159 2009 
Q 1159 1288 1364 580 
Q 1569 -128 1984 -844 
L 1484 -844 
Q 1016 -109 783 600 
Q 550 1309 550 2009 
Q 550 2706 781 3412 
Q 1013 4119 1484 4856 
L 1984 4856 
z
" transform="scale(0.015625)"/>
       <path id="DejaVuSans-73" d="M 2834 3397 
L 2834 2853 
Q 2591 2978 2328 3040 
Q 2066 3103 1784 3103 
Q 1356 3103 1142 2972 
Q 928 2841 928 2578 
Q 928 2378 1081 2264 
Q 1234 2150 1697 2047 
L 1894 2003 
Q 2506 1872 2764 1633 
Q 3022 1394 3022 966 
Q 3022 478 2636 193 
Q 2250 -91 1575 -91 
Q 1294 -91 989 -36 
Q 684 19 347 128 
L 347 722 
Q 666 556 975 473 
Q 1284 391 1588 391 
Q 1994 391 2212 530 
Q 2431 669 2431 922 
Q 2431 1156 2273 1281 
Q 2116 1406 1581 1522 
L 1381 1569 
Q 847 1681 609 1914 
Q 372 2147 372 2553 
Q 372 3047 722 3315 
Q 1072 3584 1716 3584 
Q 2034 3584 2315 3537 
Q 2597 3491 2834 3397 
z
" transform="scale(0.015625)"/>
       <path id="DejaVuSans-29" d="M 513 4856 
L 1013 4856 
Q 1481 4119 1714 3412 
Q 1947 2706 1947 2009 
Q 1947 1309 1714 600 
Q 1481 -109 1013 -844 
L 513 -844 
Q 928 -128 1133 580 
Q 1338 1288 1338 2009 
Q 1338 2731 1133 3434 
Q 928 4138 513 4856 
z
" transform="scale(0.015625)"/>
      </defs>
      <use xlink:href="#DejaVuSans-74"/>
      <use xlink:href="#DejaVuSans-69" x="39.208984"/>
      <use xlink:href="#DejaVuSans-6d" x="66.992188"/>
      <use xlink:href="#DejaVuSans-65" x="164.404297"/>
      <use xlink:href="#DejaVuSans-28" x="225.927734"/>
      <use xlink:href="#DejaVuSans-73" x="264.941406"/>
      <use xlink:href="#DejaVuSans-29" x="317.041016"/>
     </g>
    </g>
   </g>
   <g id="matplotlib.axis_2">
    <g id="ytick_1">
     <g id="line2d_15">
      <defs>
       <path id="m35e4740c3b" d="M 0 0 
L -3.5 0 
" style="stroke: #000000; stroke-width: 0.8"/>
      </defs>
      <g>
       <use xlink:href="#m35e4740c3b" x="57.6" y="288.541259" style="stroke: #000000; stroke-width: 0.8"/>
      </g>
     </g>
     <g id="text_16">
      <!-- −1.0 -->
      <g transform="translate(26.317187 292.340478)scale(0.1 -0.1)">
       <defs>
        <path id="DejaVuSans-2212" d="M 678 2272 
L 4684 2272 
L 4684 1741 
L 678 1741 
L 678 2272 
z
" transform="scale(0.015625)"/>
       </defs>
       <use xlink:href="#DejaVuSans-2212"/>
       <use xlink:href="#DejaVuSans-31" x="83.789062"/>
       <use xlink:href="#DejaVuSans-2e" x="147.412109"/>
       <use xlink:href="#DejaVuSans-30" x="179.199219"/>
      </g>
     </g>
    </g>
    <g id="ytick_2">
     <g id="line2d_16">
      <g>
       <use xlink:href="#m35e4740c3b" x="57.6" y="229.77072" style="stroke: #000000; stroke-width: 0.8"/>
      </g>
     </g>
     <g id="text_17">
      <!-- −0.5 -->
      <g transform="translate(26.317187 233.569939)scale(0.1 -0.1)">
       <use xlink:href="#DejaVuSans-2212"/>
       <use xlink:href="#DejaVuSans-30" x="83.789062"/>
       <use xlink:href="#DejaVuSans-2e" x="147.412109"/>
       <use xlink:href="#DejaVuSans-35" x="179.199219"/>
      </g>
     </g>
    </g>
    <g id="ytick_3">
     <g id="line2d_17">
      <g>
       <use xlink:href="#m35e4740c3b" x="57.6" y="171.000181" style="stroke: #000000; stroke-width: 0.8"/>
      </g>
     </g>
     <g id="text_18">
      <!-- 0.0 -->
      <g transform="translate(34.696875 174.7994)scale(0.1 -0.1)">
       <use xlink:href="#DejaVuSans-30"/>
       <use xlink:href="#DejaVuSans-2e" x="63.623047"/>
       <use xlink:href="#DejaVuSans-30" x="95.410156"/>
      </g>
     </g>
    </g>
    <g id="ytick_4">
     <g id="line2d_18">
      <g>
       <use xlink:href="#m35e4740c3b" x="57.6" y="112.229642" style="stroke: #000000; stroke-width: 0.8"/>
      </g>
     </g>
     <g id="text_19">
      <!-- 0.5 -->
      <g transform="translate(34.696875 116.028861)scale(0.1 -0.1)">
       <use xlink:href="#DejaVuSans-30"/>
       <use xlink:href="#DejaVuSans-2e" x="63.623047"/>
       <use xlink:href="#DejaVuSans-35" x="95.410156"/>
      </g>
     </g>
    </g>
    <g id="ytick_5">
     <g id="line2d_19">
      <g>
       <use xlink:href="#m35e4740c3b" x="57.6" y="53.459103" style="stroke: #000000; stroke-width: 0.8"/>
      </g>
     </g>
     <g id="text_20">
      <!-- 1.0 -->
      <g transform="translate(34.696875 57.258322)scale(0.1 -0.1)">
       <use xlink:href="#DejaVuSans-31"/>
       <use xlink:href="#DejaVuSans-2e" x="63.623047"/>
       <use xlink:href="#DejaVuSans-30" x="95.410156"/>
      </g>
     </g>
    </g>
    <g id="text_21">
     <!-- $|e_{ri}|$ -->
     <g transform="translate(19.917187 183.528)rotate(-90)scale(0.1 -0.1)">
      <defs>
       <path id="DejaVuSans-7c" d="M 1344 4891 
L 1344 -1509 
L 813 -1509 
L 813 4891 
L 1344 4891 
z
" transform="scale(0.015625)"/>
       <path id="DejaVuSans-Oblique-65" d="M 3078 2063 
Q 3088 2113 3092 2166 
Q 3097 2219 3097 2272 
Q 3097 2653 2873 2875 
Q 2650 3097 2266 3097 
Q 1838 3097 1509 2826 
Q 1181 2556 1013 2059 
L 3078 2063 
z
M 3578 1613 
L 903 1613 
Q 884 1494 878 1425 
Q 872 1356 872 1306 
Q 872 872 1139 634 
Q 1406 397 1894 397 
Q 2269 397 2603 481 
Q 2938 566 3225 728 
L 3116 159 
Q 2806 34 2476 -28 
Q 2147 -91 1806 -91 
Q 1078 -91 686 257 
Q 294 606 294 1247 
Q 294 1794 489 2264 
Q 684 2734 1063 3103 
Q 1306 3334 1642 3459 
Q 1978 3584 2356 3584 
Q 2950 3584 3301 3228 
Q 3653 2872 3653 2272 
Q 3653 2128 3634 1964 
Q 3616 1800 3578 1613 
z
" transform="scale(0.015625)"/>
       <path id="DejaVuSans-Oblique-72" d="M 2853 2969 
Q 2766 3016 2653 3041 
Q 2541 3066 2413 3066 
Q 1953 3066 1609 2717 
Q 1266 2369 1153 1784 
L 800 0 
L 225 0 
L 909 3500 
L 1484 3500 
L 1375 2956 
Q 1603 3259 1920 3421 
Q 2238 3584 2597 3584 
Q 2691 3584 2781 3573 
Q 2872 3563 2963 3538 
L 2853 2969 
z
" transform="scale(0.015625)"/>
       <path id="DejaVuSans-Oblique-69" d="M 1172 4863 
L 1747 4863 
L 1606 4134 
L 1031 4134 
L 1172 4863 
z
M 909 3500 
L 1484 3500 
L 800 0 
L 225 0 
L 909 3500 
z
" transform="scale(0.015625)"/>
      </defs>
      <use xlink:href="#DejaVuSans-7c" transform="translate(0 0.578125)"/>
      <use xlink:href="#DejaVuSans-Oblique-65" transform="translate(33.691406 0.578125)"/>
      <use xlink:href="#DejaVuSans-Oblique-72" transform="translate(95.214844 -15.828125)scale(0.7)"/>
      <use xlink:href="#DejaVuSans-Oblique-69" transform="translate(123.994141 -15.828125)scale(0.7)"/>
      <use xlink:href="#DejaVuSans-7c" transform="translate(146.176758 0.578125)"/>
     </g>
    </g>
   </g>
   <g id="line2d_20">
    <path d="M 73.832727 171.000181 
L 74.644364 175.864256 
L 75.456 175.274681 
L 77.079273 173.261822 
L 77.890909 172.479068 
L 78.702545 171.852311 
L 79.514182 171.378435 
L 80.325818 171.052565 
L 81.137455 170.868201 
L 81.949091 170.817256 
L 82.760727 170.890156 
L 84.384 171.362288 
L 86.007273 172.1823 
L 88.442182 173.806052 
L 91.688727 176.05599 
L 93.312 176.960473 
L 94.935273 177.596862 
L 96.558545 177.904512 
L 98.181818 177.850188 
L 99.805091 177.428275 
L 101.428364 176.658997 
L 103.051636 175.58505 
L 104.674909 174.266906 
L 107.109818 171.992522 
L 111.979636 167.334995 
L 114.414545 165.408165 
L 116.037818 164.381066 
L 117.661091 163.588161 
L 119.284364 163.037853 
L 120.907636 162.726135 
L 122.530909 162.638814 
L 124.154182 162.754014 
L 125.777455 163.044801 
L 128.212364 163.745383 
L 131.458909 165.018845 
L 137.140364 167.628651 
L 142.821818 170.137416 
L 146.88 171.678524 
L 150.938182 172.956102 
L 154.184727 173.772988 
L 157.431273 174.395907 
L 160.677818 174.811521 
L 163.924364 175.00385 
L 167.170909 174.95665 
L 170.417455 174.657781 
L 173.664 174.105049 
L 176.910545 173.312592 
L 180.968727 172.042007 
L 193.954909 167.632171 
L 196.389818 167.124248 
L 198.824727 166.823447 
L 201.259636 166.759489 
L 203.694545 166.950539 
L 206.129455 167.401874 
L 208.564364 168.105503 
L 210.999273 169.040763 
L 214.245818 170.591427 
L 218.304 172.872107 
L 227.232 178.085224 
L 230.478545 179.65001 
L 232.913455 180.596571 
L 235.348364 181.307452 
L 236.16 171.000181 
L 398.487273 171.000181 
L 398.487273 171.000181 
" clip-path="url(#p9f4b8cd050)" style="fill: none; stroke: #1f77b4; stroke-width: 1.5; stroke-linecap: square"/>
   </g>
   <g id="line2d_21">
    <path d="M 73.832727 171.000181 
L 74.644364 173.412177 
L 76.267636 181.235389 
L 77.079273 180.406491 
L 77.890909 181.129023 
L 78.702545 179.303772 
L 79.514182 179.049236 
L 80.325818 177.037367 
L 81.137455 176.119892 
L 81.949091 174.109513 
L 82.760727 172.805498 
L 83.572364 170.938937 
L 86.818909 165.51451 
L 88.442182 163.867996 
L 89.253818 163.389687 
L 90.065455 163.116452 
L 90.877091 163.074897 
L 91.688727 163.229841 
L 92.500364 163.573068 
L 93.312 164.074531 
L 94.935273 165.457419 
L 97.370182 168.09816 
L 101.428364 172.686878 
L 103.051636 174.242284 
L 104.674909 175.476885 
L 106.298182 176.285048 
L 107.109818 176.499264 
L 107.921455 176.573718 
L 108.733091 176.501432 
L 109.544727 176.278114 
L 110.356364 175.903251 
L 111.168 175.380307 
L 112.791273 173.927361 
L 114.414545 172.039234 
L 120.096 164.812508 
L 121.719273 163.356402 
L 123.342545 162.391352 
L 124.154182 162.102073 
L 124.965818 161.939142 
L 125.777455 161.896704 
L 127.400727 162.13809 
L 129.024 162.739154 
L 130.647273 163.599206 
L 133.082182 165.161727 
L 137.952 168.363212 
L 140.386909 169.710939 
L 142.821818 170.806226 
L 145.256727 171.635819 
L 147.691636 172.209321 
L 150.126545 172.554247 
L 153.373091 172.737207 
L 166.359273 173.005194 
L 171.229091 173.24302 
L 174.475636 173.178297 
L 177.722182 172.881671 
L 181.780364 172.237389 
L 186.650182 171.175096 
L 194.766545 169.288477 
L 198.013091 168.766856 
L 201.259636 168.457626 
L 204.506182 168.391252 
L 206.941091 168.533006 
L 209.376 168.865749 
L 211.810909 169.39922 
L 215.057455 170.397306 
L 219.115636 171.9755 
L 228.043636 175.645955 
L 231.290182 176.700828 
L 233.725091 177.296293 
L 235.348364 177.580441 
L 236.16 187.515731 
L 236.971636 185.881744 
L 237.783273 185.287505 
L 239.406545 184.648912 
L 240.218182 184.173128 
L 241.029818 183.526794 
L 242.653091 181.749126 
L 244.276364 179.453958 
L 246.711273 175.449723 
L 249.957818 170.013296 
L 251.581091 167.594229 
L 253.204364 165.520967 
L 254.827636 163.860963 
L 256.450909 162.647487 
L 258.074182 161.880707 
L 259.697455 161.530206 
L 261.320727 161.539283 
L 262.944 161.831412 
L 265.378909 162.6071 
L 270.248727 164.350943 
L 272.683636 164.945189 
L 275.118545 165.285705 
L 278.365091 165.471877 
L 282.423273 165.677178 
L 284.858182 165.970543 
L 287.293091 166.448605 
L 290.539636 167.345765 
L 296.221091 169.263834 
L 301.090909 170.797881 
L 305.149091 171.80639 
L 309.207273 172.541287 
L 313.265455 173.028889 
L 317.323636 173.306329 
L 322.193455 173.400492 
L 327.063273 173.247323 
L 331.121455 172.91911 
L 335.179636 172.396154 
L 340.049455 171.527988 
L 353.035636 168.938733 
L 356.282182 168.608605 
L 358.717091 168.54074 
L 361.152 168.652823 
L 363.586909 168.957826 
L 366.021818 169.457113 
L 369.268364 170.403817 
L 372.514909 171.613799 
L 377.384727 173.70899 
L 382.254545 175.773215 
L 385.501091 176.920383 
L 387.936 177.580349 
L 390.370909 178.027475 
L 392.805818 178.236356 
L 395.240727 178.193676 
L 397.675636 177.89867 
L 398.487273 177.745924 
L 398.487273 177.745924 
" clip-path="url(#p9f4b8cd050)" style="fill: none; stroke: #ff7f0e; stroke-width: 1.5; stroke-linecap: square"/>
   </g>
   <g id="line2d_22">
    <path d="M 73.832727 171.000181 
L 74.644364 169.725706 
L 75.456 176.275484 
L 76.267636 176.322171 
L 77.079273 177.385346 
L 77.890909 175.501916 
L 78.702545 175.892636 
L 79.514182 174.381234 
L 80.325818 174.595356 
L 81.137455 173.554497 
L 81.949091 173.59393 
L 82.760727 172.848436 
L 83.572364 172.683472 
L 84.384 172.048694 
L 85.195636 171.674263 
L 90.065455 167.905414 
L 91.688727 166.91787 
L 92.500364 166.600652 
L 93.312 166.436003 
L 94.123636 166.436309 
L 94.935273 166.611722 
L 95.746909 166.960346 
L 96.558545 167.472785 
L 98.181818 168.905373 
L 103.051636 174.037537 
L 103.863273 174.642088 
L 104.674909 175.103512 
L 105.486545 175.408939 
L 106.298182 175.552797 
L 107.109818 175.536148 
L 107.921455 175.366593 
L 108.733091 175.056861 
L 110.356364 174.089272 
L 111.979636 172.800124 
L 117.661091 167.972575 
L 119.284364 166.887161 
L 120.907636 165.999496 
L 122.530909 165.315488 
L 124.154182 164.834986 
L 125.777455 164.554538 
L 127.400727 164.466775 
L 129.024 164.557943 
L 131.458909 164.979366 
L 134.705455 165.895963 
L 141.198545 167.874186 
L 144.445091 168.57939 
L 147.691636 169.06456 
L 160.677818 170.691956 
L 174.475636 172.928725 
L 178.533818 173.348266 
L 182.592 173.515029 
L 187.461818 173.441949 
L 193.143273 173.117537 
L 206.941091 172.10025 
L 210.999273 172.182627 
L 215.057455 172.492398 
L 219.115636 173.028668 
L 223.985455 173.908614 
L 231.290182 175.228012 
L 234.536727 175.605081 
L 235.348364 175.66758 
L 236.16 172.358584 
L 236.971636 175.236175 
L 237.783273 176.918274 
L 238.594909 176.510999 
L 239.406545 177.563655 
L 240.218182 177.897996 
L 241.029818 179.006216 
L 241.841455 179.876381 
L 243.464727 182.082702 
L 244.276364 183.152821 
L 245.899636 184.727953 
L 246.711273 185.154979 
L 247.522909 185.348154 
L 248.334545 185.186902 
L 249.146182 184.740783 
L 249.957818 183.924166 
L 250.769455 182.830422 
L 252.392727 179.755454 
L 254.016 175.855604 
L 257.262545 167.513333 
L 258.885818 164.015724 
L 259.697455 162.58182 
L 260.509091 161.434003 
L 261.320727 160.541278 
L 262.132364 159.94995 
L 262.944 159.633011 
L 263.755636 159.599135 
L 264.567273 159.817389 
L 265.378909 160.267095 
L 266.190545 160.907875 
L 267.813818 162.593643 
L 271.060364 166.277649 
L 272.683636 167.681996 
L 274.306909 168.605718 
L 275.930182 169.063599 
L 277.553455 169.15162 
L 279.176727 169.000506 
L 288.916364 167.583885 
L 294.597818 167.053097 
L 297.844364 166.951806 
L 300.279273 167.05532 
L 302.714182 167.332179 
L 305.960727 167.939387 
L 314.888727 169.883813 
L 318.135273 170.283396 
L 327.063273 171.194923 
L 336.802909 172.695961 
L 340.861091 172.871807 
L 351.412364 173.040721 
L 355.470545 172.757901 
L 360.340364 172.394028 
L 363.586909 172.407604 
L 367.645091 172.68897 
L 376.573091 173.58189 
L 380.631273 174.250023 
L 389.559273 175.940753 
L 392.805818 176.226844 
L 396.052364 176.227688 
L 398.487273 176.046535 
L 398.487273 176.046535 
" clip-path="url(#p9f4b8cd050)" style="fill: none; stroke: #2ca02c; stroke-width: 1.5; stroke-linecap: square"/>
   </g>
   <g id="line2d_23">
    <path d="M 73.832727 171.000181 
L 74.644364 166.957496 
L 75.456 173.162043 
L 76.267636 174.992282 
L 77.079273 174.089246 
L 77.890909 175.484328 
L 78.702545 173.374717 
L 79.514182 174.52442 
L 80.325818 172.547406 
L 81.137455 173.152919 
L 81.949091 171.611342 
L 82.760727 171.749565 
L 83.572364 170.651723 
L 84.384 170.534541 
L 85.195636 169.817655 
L 86.007273 169.639653 
L 86.818909 169.230217 
L 89.253818 168.90819 
L 90.877091 168.942205 
L 94.123636 169.302842 
L 97.370182 169.778779 
L 99.805091 170.395262 
L 102.24 171.372175 
L 105.486545 172.835075 
L 107.109818 173.304985 
L 108.733091 173.4044 
L 109.544727 173.287251 
L 111.168 172.712296 
L 112.791273 171.746723 
L 118.472727 167.724382 
L 120.096 167.04588 
L 121.719273 166.693974 
L 123.342545 166.625457 
L 125.777455 166.8728 
L 137.952 168.941912 
L 149.314909 171.313785 
L 153.373091 171.758227 
L 159.866182 172.428548 
L 171.229091 173.919845 
L 176.910545 174.16207 
L 183.403636 174.310282 
L 186.650182 174.132037 
L 190.708364 173.623917 
L 197.201455 172.803 
L 210.187636 171.48221 
L 213.434182 171.573345 
L 216.680727 171.894894 
L 222.362182 172.736132 
L 233.725091 174.513213 
L 235.348364 174.658444 
L 236.16 171.000181 
L 398.487273 171.000181 
L 398.487273 171.000181 
" clip-path="url(#p9f4b8cd050)" style="fill: none; stroke: #d62728; stroke-width: 1.5; stroke-linecap: square"/>
   </g>
   <g id="line2d_24">
    <path d="M 73.832727 171.000181 
L 74.644364 167.658545 
L 75.456 171.297239 
L 76.267636 175.490762 
L 77.079273 175.034424 
L 77.890909 174.09418 
L 78.702545 175.076837 
L 79.514182 172.578315 
L 80.325818 173.710725 
L 81.137455 171.256229 
L 81.949091 171.832756 
L 82.760727 169.92092 
L 83.572364 169.963668 
L 84.384 168.6299 
L 85.195636 168.40534 
L 86.007273 167.573436 
L 86.818909 167.345982 
L 87.630545 166.941977 
L 89.253818 166.844337 
L 90.877091 167.27076 
L 92.500364 168.097163 
L 96.558545 170.580624 
L 98.181818 171.271721 
L 99.805091 171.67408 
L 101.428364 171.830336 
L 110.356364 171.934435 
L 111.979636 171.781069 
L 113.602909 171.363113 
L 115.226182 170.642279 
L 116.849455 169.662439 
L 120.907636 166.938137 
L 122.530909 166.132285 
L 124.154182 165.645381 
L 125.777455 165.500119 
L 127.400727 165.657955 
L 129.024 166.036208 
L 136.328727 168.127301 
L 139.575273 168.65467 
L 146.88 169.671519 
L 150.938182 170.509216 
L 155.808 171.53662 
L 159.054545 171.954568 
L 163.112727 172.145785 
L 166.359273 172.320373 
L 169.605818 172.750161 
L 174.475636 173.538821 
L 176.910545 173.671021 
L 179.345455 173.56555 
L 184.215273 173.226238 
L 187.461818 173.278332 
L 190.708364 173.320558 
L 193.143273 173.1134 
L 196.389818 172.537954 
L 199.636364 172.006042 
L 202.071273 171.825574 
L 210.999273 171.479354 
L 215.057455 171.220693 
L 217.492364 171.262824 
L 220.738909 171.561612 
L 229.666909 172.570207 
L 235.348364 173.098407 
L 236.16 167.99394 
L 236.971636 173.976281 
L 237.783273 174.569553 
L 238.594909 175.909094 
L 239.406545 176.049865 
L 240.218182 176.849056 
L 241.029818 177.324691 
L 242.653091 178.72304 
L 243.464727 179.422909 
L 245.088 180.450747 
L 245.899636 180.741428 
L 246.711273 180.897685 
L 247.522909 180.838708 
L 248.334545 180.620838 
L 249.146182 180.195611 
L 249.957818 179.62803 
L 251.581091 178.046518 
L 254.016 174.976866 
L 258.074182 169.620621 
L 259.697455 167.786607 
L 261.320727 166.280694 
L 262.944 165.16178 
L 264.567273 164.455451 
L 266.190545 164.154523 
L 267.813818 164.223929 
L 269.437091 164.607167 
L 271.060364 165.230041 
L 274.306909 166.824506 
L 276.741818 167.937842 
L 278.365091 168.491531 
L 279.988364 168.848969 
L 281.611636 169.009551 
L 284.046545 168.945061 
L 287.293091 168.535551 
L 291.351273 168.011505 
L 294.597818 167.848994 
L 297.844364 167.975091 
L 301.090909 168.346886 
L 305.149091 169.043938 
L 317.323636 171.336493 
L 322.193455 171.934529 
L 329.498182 172.555709 
L 336.802909 172.993295 
L 341.672727 173.068338 
L 346.542545 172.9223 
L 367.645091 171.958706 
L 372.514909 172.050011 
L 377.384727 172.34548 
L 383.877818 172.98167 
L 391.994182 173.760757 
L 396.052364 173.928053 
L 398.487273 173.906187 
L 398.487273 173.906187 
" clip-path="url(#p9f4b8cd050)" style="fill: none; stroke: #9467bd; stroke-width: 1.5; stroke-linecap: square"/>
   </g>
   <g id="line2d_25">
    <path d="M 73.832727 171.000181 
L 74.644364 172.457673 
L 75.456 175.268227 
L 77.079273 179.946332 
L 77.890909 179.34296 
L 78.702545 178.505023 
L 79.514182 179.136453 
L 80.325818 177.608822 
L 81.137455 178.356819 
L 81.949091 176.854866 
L 82.760727 177.056199 
L 83.572364 175.626899 
L 84.384 175.162553 
L 85.195636 173.727539 
L 86.007273 172.754194 
L 86.818909 171.306547 
L 90.065455 166.396911 
L 90.877091 165.473176 
L 91.688727 164.737676 
L 92.500364 164.255078 
L 93.312 164.026087 
L 94.123636 164.069869 
L 94.935273 164.376393 
L 95.746909 164.933083 
L 96.558545 165.711217 
L 98.181818 167.782226 
L 102.24 173.774005 
L 103.863273 175.597804 
L 104.674909 176.274151 
L 105.486545 176.779966 
L 106.298182 177.115201 
L 107.109818 177.287115 
L 107.921455 177.308878 
L 109.544727 176.976568 
L 111.168 176.286485 
L 113.602909 174.923206 
L 119.284364 171.407655 
L 124.965818 167.768895 
L 126.589091 166.938767 
L 128.212364 166.326013 
L 129.835636 165.975242 
L 131.458909 165.899777 
L 133.082182 166.081303 
L 134.705455 166.475658 
L 137.140364 167.329182 
L 142.010182 169.140294 
L 144.445091 169.750249 
L 146.88 170.092425 
L 154.996364 170.822537 
L 157.431273 171.398314 
L 162.301091 172.708373 
L 164.736 173.091816 
L 167.170909 173.221111 
L 172.040727 173.351447 
L 174.475636 173.723713 
L 177.722182 174.542879 
L 180.157091 175.106739 
L 181.780364 175.327638 
L 184.215273 175.380957 
L 190.708364 175.141209 
L 194.766545 175.503423 
L 197.201455 175.6093 
L 199.636364 175.421063 
L 202.882909 174.813706 
L 206.129455 174.225844 
L 208.564364 173.985781 
L 219.115636 173.300983 
L 222.362182 173.109552 
L 224.797091 173.173969 
L 227.232 173.433322 
L 231.290182 174.139771 
L 235.348364 174.891937 
L 236.16 168.998447 
L 236.971636 174.649016 
L 237.783273 177.87673 
L 238.594909 178.155163 
L 239.406545 179.103307 
L 240.218182 179.714376 
L 242.653091 183.472499 
L 245.088 187.313477 
L 245.899636 188.354486 
L 246.711273 189.152205 
L 247.522909 189.732345 
L 248.334545 190.019169 
L 249.146182 190.042922 
L 249.957818 189.749974 
L 250.769455 189.182904 
L 251.581091 188.303587 
L 252.392727 187.172043 
L 254.016 184.152227 
L 255.639273 180.374033 
L 261.320727 166.00871 
L 262.944 162.899944 
L 263.755636 161.661852 
L 264.567273 160.652096 
L 265.378909 159.884656 
L 266.190545 159.358774 
L 267.002182 159.071998 
L 267.813818 159.013078 
L 268.625455 159.166293 
L 269.437091 159.510202 
L 270.248727 160.019618 
L 271.872 161.420401 
L 274.306909 164.029257 
L 276.741818 166.606258 
L 278.365091 168.045803 
L 279.988364 169.161308 
L 281.611636 169.924989 
L 283.234909 170.351626 
L 284.858182 170.486978 
L 286.481455 170.395881 
L 288.916364 169.992372 
L 294.597818 168.861556 
L 297.032727 168.591535 
L 299.467636 168.511598 
L 301.902545 168.613272 
L 305.149091 168.983954 
L 309.207273 169.701218 
L 319.758545 171.723146 
L 324.628364 172.377069 
L 341.672727 174.19927 
L 346.542545 174.54757 
L 352.224 174.717714 
L 363.586909 174.761136 
L 374.949818 174.844282 
L 379.819636 175.109344 
L 385.501091 175.664908 
L 393.617455 176.499024 
L 396.864 176.614104 
L 398.487273 176.583348 
L 398.487273 176.583348 
" clip-path="url(#p9f4b8cd050)" style="fill: none; stroke: #8c564b; stroke-width: 1.5; stroke-linecap: square"/>
   </g>
   <g id="patch_3">
    <path d="M 57.6 307.584 
L 57.6 41.472 
" style="fill: none; stroke: #000000; stroke-width: 0.8; stroke-linejoin: miter; stroke-linecap: square"/>
   </g>
   <g id="patch_4">
    <path d="M 414.72 307.584 
L 414.72 41.472 
" style="fill: none; stroke: #000000; stroke-width: 0.8; stroke-linejoin: miter; stroke-linecap: square"/>
   </g>
   <g id="patch_5">
    <path d="M 57.6 307.584 
L 414.72 307.584 
" style="fill: none; stroke: #000000; stroke-width: 0.8; stroke-linejoin: miter; stroke-linecap: square"/>
   </g>
   <g id="patch_6">
    <path d="M 57.6 41.472 
L 414.72 41.472 
" style="fill: none; stroke: #000000; stroke-width: 0.8; stroke-linejoin: miter; stroke-linecap: square"/>
   </g>
   <g id="text_22">
    <!-- node failure -->
    <g transform="translate(154.996364 218.016612)scale(0.1 -0.1)">
     <defs>
      <path id="DejaVuSans-Oblique-6e" d="M 3566 2113 
L 3156 0 
L 2578 0 
L 2988 2091 
Q 3016 2238 3031 2350 
Q 3047 2463 3047 2528 
Q 3047 2791 2881 2937 
Q 2716 3084 2419 3084 
Q 1956 3084 1622 2776 
Q 1288 2469 1184 1941 
L 800 0 
L 225 0 
L 903 3500 
L 1478 3500 
L 1363 2950 
Q 1603 3253 1940 3418 
Q 2278 3584 2650 3584 
Q 3113 3584 3367 3334 
Q 3622 3084 3622 2631 
Q 3622 2519 3608 2391 
Q 3594 2263 3566 2113 
z
" transform="scale(0.015625)"/>
      <path id="DejaVuSans-Oblique-6f" d="M 1625 -91 
Q 1009 -91 651 289 
Q 294 669 294 1325 
Q 294 1706 417 2101 
Q 541 2497 738 2766 
Q 1047 3184 1428 3384 
Q 1809 3584 2291 3584 
Q 2888 3584 3255 3212 
Q 3622 2841 3622 2241 
Q 3622 1825 3500 1412 
Q 3378 1000 3181 728 
Q 2875 309 2494 109 
Q 2113 -91 1625 -91 
z
M 891 1344 
Q 891 869 1089 633 
Q 1288 397 1691 397 
Q 2269 397 2648 901 
Q 3028 1406 3028 2181 
Q 3028 2634 2825 2865 
Q 2622 3097 2228 3097 
Q 1903 3097 1650 2945 
Q 1397 2794 1197 2484 
Q 1050 2253 970 1956 
Q 891 1659 891 1344 
z
" transform="scale(0.015625)"/>
      <path id="DejaVuSans-Oblique-64" d="M 2675 525 
Q 2444 222 2128 65 
Q 1813 -91 1428 -91 
Q 903 -91 598 267 
Q 294 625 294 1247 
Q 294 1766 478 2236 
Q 663 2706 1013 3078 
Q 1244 3325 1534 3454 
Q 1825 3584 2144 3584 
Q 2481 3584 2739 3421 
Q 2997 3259 3138 2956 
L 3513 4863 
L 4091 4863 
L 3144 0 
L 2566 0 
L 2675 525 
z
M 891 1350 
Q 891 897 1095 644 
Q 1300 391 1663 391 
Q 1931 391 2161 520 
Q 2391 650 2566 903 
Q 2750 1166 2856 1509 
Q 2963 1853 2963 2188 
Q 2963 2622 2758 2865 
Q 2553 3109 2194 3109 
Q 1922 3109 1687 2981 
Q 1453 2853 1288 2613 
Q 1106 2353 998 2009 
Q 891 1666 891 1350 
z
" transform="scale(0.015625)"/>
      <path id="DejaVuSans-Oblique-20" transform="scale(0.015625)"/>
      <path id="DejaVuSans-Oblique-66" d="M 3059 4863 
L 2969 4384 
L 2419 4384 
Q 2106 4384 1964 4261 
Q 1822 4138 1753 3809 
L 1691 3500 
L 2638 3500 
L 2553 3053 
L 1606 3053 
L 1013 0 
L 434 0 
L 1031 3053 
L 481 3053 
L 563 3500 
L 1113 3500 
L 1159 3744 
Q 1278 4363 1576 4613 
Q 1875 4863 2516 4863 
L 3059 4863 
z
" transform="scale(0.015625)"/>
      <path id="DejaVuSans-Oblique-61" d="M 3438 1997 
L 3047 0 
L 2472 0 
L 2578 531 
Q 2325 219 2001 64 
Q 1678 -91 1281 -91 
Q 834 -91 548 182 
Q 263 456 263 884 
Q 263 1497 752 1853 
Q 1241 2209 2100 2209 
L 2900 2209 
L 2931 2363 
Q 2938 2388 2941 2417 
Q 2944 2447 2944 2509 
Q 2944 2788 2717 2942 
Q 2491 3097 2081 3097 
Q 1800 3097 1504 3025 
Q 1209 2953 897 2809 
L 997 3341 
Q 1322 3463 1633 3523 
Q 1944 3584 2234 3584 
Q 2853 3584 3176 3315 
Q 3500 3047 3500 2534 
Q 3500 2431 3484 2292 
Q 3469 2153 3438 1997 
z
M 2816 1759 
L 2241 1759 
Q 1534 1759 1195 1570 
Q 856 1381 856 984 
Q 856 709 1029 553 
Q 1203 397 1509 397 
Q 1978 397 2328 733 
Q 2678 1069 2791 1631 
L 2816 1759 
z
" transform="scale(0.015625)"/>
      <path id="DejaVuSans-Oblique-6c" d="M 1172 4863 
L 1747 4863 
L 800 0 
L 225 0 
L 1172 4863 
z
" transform="scale(0.015625)"/>
      <path id="DejaVuSans-Oblique-75" d="M 428 1388 
L 838 3500 
L 1416 3500 
L 1006 1409 
Q 975 1256 961 1147 
Q 947 1038 947 966 
Q 947 700 1109 554 
Q 1272 409 1569 409 
Q 2031 409 2368 721 
Q 2706 1034 2809 1563 
L 3194 3500 
L 3769 3500 
L 3091 0 
L 2516 0 
L 2631 550 
Q 2388 244 2052 76 
Q 1716 -91 1338 -91 
Q 878 -91 622 161 
Q 366 413 366 863 
Q 366 956 381 1097 
Q 397 1238 428 1388 
z
" transform="scale(0.015625)"/>
     </defs>
     <use xlink:href="#DejaVuSans-Oblique-6e"/>
     <use xlink:href="#DejaVuSans-Oblique-6f" x="63.378906"/>
     <use xlink:href="#DejaVuSans-Oblique-64" x="124.560547"/>
     <use xlink:href="#DejaVuSans-Oblique-65" x="188.037109"/>
     <use xlink:href="#DejaVuSans-Oblique-20" x="249.560547"/>
     <use xlink:href="#DejaVuSans-Oblique-66" x="281.347656"/>
     <use xlink:href="#DejaVuSans-Oblique-61" x="316.552734"/>
     <use xlink:href="#DejaVuSans-Oblique-69" x="377.832031"/>
     <use xlink:href="#DejaVuSans-Oblique-6c" x="405.615234"/>
     <use xlink:href="#DejaVuSans-Oblique-75" x="433.398438"/>
     <use xlink:href="#DejaVuSans-Oblique-72" x="496.777344"/>
     <use xlink:href="#DejaVuSans-Oblique-65" x="537.890625"/>
    </g>
   </g>
   <g id="patch_7">
    <path d="M 213.430813 205.089533 
Q 223.986623 197.446078 233.636873 190.458338 
" style="fill: none; stroke: #000000; stroke-linecap: round"/>
    <path d="M 229.224066 191.184381 
L 233.636873 190.458338 
L 231.570024 194.424209 
" style="fill: none; stroke: #000000; stroke-linecap: round"/>
   </g>
   <g id="legend_1">
    <g id="patch_8">
     <path d="M 362.32 137.54075 
L 407.72 137.54075 
Q 409.72 137.54075 409.72 135.54075 
L 409.72 48.472 
Q 409.72 46.472 407.72 46.472 
L 362.32 46.472 
Q 360.32 46.472 360.32 48.472 
L 360.32 135.54075 
Q 360.32 137.54075 362.32 137.54075 
z
" style="fill: #ffffff; opacity: 0.8; stroke: #cccccc; stroke-linejoin: miter"/>
    </g>
    <g id="line2d_26">
     <path d="M 364.32 54.570438 
L 374.32 54.570438 
L 384.32 54.570438 
" style="fill: none; stroke: #1f77b4; stroke-width: 1.5; stroke-linecap: square"/>
    </g>
    <g id="text_23">
     <!-- $M_1$ -->
     <g transform="translate(392.32 58.070438)scale(0.1 -0.1)">
      <defs>
       <path id="DejaVuSans-Oblique-4d" d="M 1081 4666 
L 2028 4666 
L 2572 1522 
L 4378 4666 
L 5350 4666 
L 4441 0 
L 3828 0 
L 4622 4091 
L 2791 897 
L 2175 897 
L 1581 4103 
L 788 0 
L 172 0 
L 1081 4666 
z
" transform="scale(0.015625)"/>
      </defs>
      <use xlink:href="#DejaVuSans-Oblique-4d" transform="translate(0 0.09375)"/>
      <use xlink:href="#DejaVuSans-31" transform="translate(86.279297 -16.3125)scale(0.7)"/>
     </g>
    </g>
    <g id="line2d_27">
     <path d="M 364.32 69.248563 
L 374.32 69.248563 
L 384.32 69.248563 
" style="fill: none; stroke: #ff7f0e; stroke-width: 1.5; stroke-linecap: square"/>
    </g>
    <g id="text_24">
     <!-- $M_2$ -->
     <g transform="translate(392.32 72.748563)scale(0.1 -0.1)">
      <use xlink:href="#DejaVuSans-Oblique-4d" transform="translate(0 0.09375)"/>
      <use xlink:href="#DejaVuSans-32" transform="translate(86.279297 -16.3125)scale(0.7)"/>
     </g>
    </g>
    <g id="line2d_28">
     <path d="M 364.32 83.926688 
L 374.32 83.926688 
L 384.32 83.926688 
" style="fill: none; stroke: #2ca02c; stroke-width: 1.5; stroke-linecap: square"/>
    </g>
    <g id="text_25">
     <!-- $M_3$ -->
     <g transform="translate(392.32 87.426688)scale(0.1 -0.1)">
      <use xlink:href="#DejaVuSans-Oblique-4d" transform="translate(0 0.09375)"/>
      <use xlink:href="#DejaVuSans-33" transform="translate(86.279297 -16.3125)scale(0.7)"/>
     </g>
    </g>
    <g id="line2d_29">
     <path d="M 364.32 98.604813 
L 374.32 98.604813 
L 384.32 98.604813 
" style="fill: none; stroke: #d62728; stroke-width: 1.5; stroke-linecap: square"/>
    </g>
    <g id="text_26">
     <!-- $M_4$ -->
     <g transform="translate(392.32 102.104813)scale(0.1 -0.1)">
      <use xlink:href="#DejaVuSans-Oblique-4d" transform="translate(0 0.09375)"/>
      <use xlink:href="#DejaVuSans-34" transform="translate(86.279297 -16.3125)scale(0.7)"/>
     </g>
    </g>
    <g id="line2d_30">
     <path d="M 364.32 113.282938 
L 374.32 113.282938 
L 384.32 113.282938 
" style="fill: none; stroke: #9467bd; stroke-width: 1.5; stroke-linecap: square"/>
    </g>
    <g id="text_27">
     <!-- $M_5$ -->
     <g transform="translate(392.32 116.782938)scale(0.1 -0.1)">
      <use xlink:href="#DejaVuSans-Oblique-4d" transform="translate(0 0.09375)"/>
      <use xlink:href="#DejaVuSans-35" transform="translate(86.279297 -16.3125)scale(0.7)"/>
     </g>
    </g>
    <g id="line2d_31">
     <path d="M 364.32 127.961063 
L 374.32 127.961063 
L 384.32 127.961063 
" style="fill: none; stroke: #8c564b; stroke-width: 1.5; stroke-linecap: square"/>
    </g>
    <g id="text_28">
     <!-- $M_6$ -->
     <g transform="translate(392.32 131.461063)scale(0.1 -0.1)">
      <use xlink:href="#DejaVuSans-Oblique-4d" transform="translate(0 0.09375)"/>
      <use xlink:href="#DejaVuSans-36" transform="translate(86.279297 -16.3125)scale(0.7)"/>
     </g>
    </g>
   </g>
  </g>
  <g id="axes_2">
   <g id="patch_9">
    <path d="M 241.16 275.9728 
L 355.4384 275.9728 
L 355.4384 212.10592 
L 241.16 212.10592 
z
" style="fill: #ffffff"/>
   </g>
   <g id="matplotlib.axis_3">
    <g id="xtick_15">
     <g id="line2d_32">
      <g>
       <use xlink:href="#m61eae72476" x="246.354473" y="275.9728" style="stroke: #000000; stroke-width: 0.8"/>
      </g>
     </g>
     <g id="text_29">
      <!-- 0.0 -->
      <g transform="translate(238.40291 290.571237)scale(0.1 -0.1)">
       <use xlink:href="#DejaVuSans-30"/>
       <use xlink:href="#DejaVuSans-2e" x="63.623047"/>
       <use xlink:href="#DejaVuSans-30" x="95.410156"/>
      </g>
     </g>
    </g>
    <g id="xtick_16">
     <g id="line2d_33">
      <g>
       <use xlink:href="#m61eae72476" x="254.146182" y="275.9728" style="stroke: #000000; stroke-width: 0.8"/>
      </g>
     </g>
     <g id="text_30">
      <!-- 3.0 -->
      <g transform="translate(246.194619 290.571237)scale(0.1 -0.1)">
       <use xlink:href="#DejaVuSans-33"/>
       <use xlink:href="#DejaVuSans-2e" x="63.623047"/>
       <use xlink:href="#DejaVuSans-30" x="95.410156"/>
      </g>
     </g>
    </g>
    <g id="xtick_17">
     <g id="line2d_34">
      <g>
       <use xlink:href="#m61eae72476" x="261.937891" y="275.9728" style="stroke: #000000; stroke-width: 0.8"/>
      </g>
     </g>
     <g id="text_31">
      <!-- 6.0 -->
      <g transform="translate(253.986328 290.571237)scale(0.1 -0.1)">
       <use xlink:href="#DejaVuSans-36"/>
       <use xlink:href="#DejaVuSans-2e" x="63.623047"/>
       <use xlink:href="#DejaVuSans-30" x="95.410156"/>
      </g>
     </g>
    </g>
    <g id="xtick_18">
     <g id="line2d_35">
      <g>
       <use xlink:href="#m61eae72476" x="269.7296" y="275.9728" style="stroke: #000000; stroke-width: 0.8"/>
      </g>
     </g>
     <g id="text_32">
      <!-- 9.0 -->
      <g transform="translate(261.778037 290.571237)scale(0.1 -0.1)">
       <use xlink:href="#DejaVuSans-39"/>
       <use xlink:href="#DejaVuSans-2e" x="63.623047"/>
       <use xlink:href="#DejaVuSans-30" x="95.410156"/>
      </g>
     </g>
    </g>
    <g id="xtick_19">
     <g id="line2d_36">
      <g>
       <use xlink:href="#m61eae72476" x="277.521309" y="275.9728" style="stroke: #000000; stroke-width: 0.8"/>
      </g>
     </g>
     <g id="text_33">
      <!-- 12.0 -->
      <g transform="translate(266.388497 290.571237)scale(0.1 -0.1)">
       <use xlink:href="#DejaVuSans-31"/>
       <use xlink:href="#DejaVuSans-32" x="63.623047"/>
       <use xlink:href="#DejaVuSans-2e" x="127.246094"/>
       <use xlink:href="#DejaVuSans-30" x="159.033203"/>
      </g>
     </g>
    </g>
    <g id="xtick_20">
     <g id="line2d_37">
      <g>
       <use xlink:href="#m61eae72476" x="285.313018" y="275.9728" style="stroke: #000000; stroke-width: 0.8"/>
      </g>
     </g>
     <g id="text_34">
      <!-- 15.0 -->
      <g transform="translate(274.180206 290.571237)scale(0.1 -0.1)">
       <use xlink:href="#DejaVuSans-31"/>
       <use xlink:href="#DejaVuSans-35" x="63.623047"/>
       <use xlink:href="#DejaVuSans-2e" x="127.246094"/>
       <use xlink:href="#DejaVuSans-30" x="159.033203"/>
      </g>
     </g>
    </g>
    <g id="xtick_21">
     <g id="line2d_38">
      <g>
       <use xlink:href="#m61eae72476" x="293.104727" y="275.9728" style="stroke: #000000; stroke-width: 0.8"/>
      </g>
     </g>
     <g id="text_35">
      <!-- 18.0 -->
      <g transform="translate(281.971915 290.571237)scale(0.1 -0.1)">
       <use xlink:href="#DejaVuSans-31"/>
       <use xlink:href="#DejaVuSans-38" x="63.623047"/>
       <use xlink:href="#DejaVuSans-2e" x="127.246094"/>
       <use xlink:href="#DejaVuSans-30" x="159.033203"/>
      </g>
     </g>
    </g>
    <g id="xtick_22">
     <g id="line2d_39">
      <g>
       <use xlink:href="#m61eae72476" x="300.896436" y="275.9728" style="stroke: #000000; stroke-width: 0.8"/>
      </g>
     </g>
     <g id="text_36">
      <!-- 21.0 -->
      <g transform="translate(289.763624 290.571237)scale(0.1 -0.1)">
       <use xlink:href="#DejaVuSans-32"/>
       <use xlink:href="#DejaVuSans-31" x="63.623047"/>
       <use xlink:href="#DejaVuSans-2e" x="127.246094"/>
       <use xlink:href="#DejaVuSans-30" x="159.033203"/>
      </g>
     </g>
    </g>
    <g id="xtick_23">
     <g id="line2d_40">
      <g>
       <use xlink:href="#m61eae72476" x="308.688145" y="275.9728" style="stroke: #000000; stroke-width: 0.8"/>
      </g>
     </g>
     <g id="text_37">
      <!-- 24.0 -->
      <g transform="translate(297.555333 290.571237)scale(0.1 -0.1)">
       <use xlink:href="#DejaVuSans-32"/>
       <use xlink:href="#DejaVuSans-34" x="63.623047"/>
       <use xlink:href="#DejaVuSans-2e" x="127.246094"/>
       <use xlink:href="#DejaVuSans-30" x="159.033203"/>
      </g>
     </g>
    </g>
    <g id="xtick_24">
     <g id="line2d_41">
      <g>
       <use xlink:href="#m61eae72476" x="316.479855" y="275.9728" style="stroke: #000000; stroke-width: 0.8"/>
      </g>
     </g>
     <g id="text_38">
      <!-- 27.0 -->
      <g transform="translate(305.347042 290.571237)scale(0.1 -0.1)">
       <use xlink:href="#DejaVuSans-32"/>
       <use xlink:href="#DejaVuSans-37" x="63.623047"/>
       <use xlink:href="#DejaVuSans-2e" x="127.246094"/>
       <use xlink:href="#DejaVuSans-30" x="159.033203"/>
      </g>
     </g>
    </g>
    <g id="xtick_25">
     <g id="line2d_42">
      <g>
       <use xlink:href="#m61eae72476" x="324.271564" y="275.9728" style="stroke: #000000; stroke-width: 0.8"/>
      </g>
     </g>
     <g id="text_39">
      <!-- 30.0 -->
      <g transform="translate(313.138751 290.571237)scale(0.1 -0.1)">
       <use xlink:href="#DejaVuSans-33"/>
       <use xlink:href="#DejaVuSans-30" x="63.623047"/>
       <use xlink:href="#DejaVuSans-2e" x="127.246094"/>
       <use xlink:href="#DejaVuSans-30" x="159.033203"/>
      </g>
     </g>
    </g>
    <g id="xtick_26">
     <g id="line2d_43">
      <g>
       <use xlink:href="#m61eae72476" x="332.063273" y="275.9728" style="stroke: #000000; stroke-width: 0.8"/>
      </g>
     </g>
     <g id="text_40">
      <!-- 33.0 -->
      <g transform="translate(320.93046 290.571237)scale(0.1 -0.1)">
       <use xlink:href="#DejaVuSans-33"/>
       <use xlink:href="#DejaVuSans-33" x="63.623047"/>
       <use xlink:href="#DejaVuSans-2e" x="127.246094"/>
       <use xlink:href="#DejaVuSans-30" x="159.033203"/>
      </g>
     </g>
    </g>
    <g id="xtick_27">
     <g id="line2d_44">
      <g>
       <use xlink:href="#m61eae72476" x="339.854982" y="275.9728" style="stroke: #000000; stroke-width: 0.8"/>
      </g>
     </g>
     <g id="text_41">
      <!-- 36.0 -->
      <g transform="translate(328.722169 290.571237)scale(0.1 -0.1)">
       <use xlink:href="#DejaVuSans-33"/>
       <use xlink:href="#DejaVuSans-36" x="63.623047"/>
       <use xlink:href="#DejaVuSans-2e" x="127.246094"/>
       <use xlink:href="#DejaVuSans-30" x="159.033203"/>
      </g>
     </g>
    </g>
    <g id="xtick_28">
     <g id="line2d_45">
      <g>
       <use xlink:href="#m61eae72476" x="347.646691" y="275.9728" style="stroke: #000000; stroke-width: 0.8"/>
      </g>
     </g>
     <g id="text_42">
      <!-- 39.0 -->
      <g transform="translate(336.513878 290.571237)scale(0.1 -0.1)">
       <use xlink:href="#DejaVuSans-33"/>
       <use xlink:href="#DejaVuSans-39" x="63.623047"/>
       <use xlink:href="#DejaVuSans-2e" x="127.246094"/>
       <use xlink:href="#DejaVuSans-30" x="159.033203"/>
      </g>
     </g>
    </g>
    <g id="text_43">
     <!-- time(s) -->
     <g transform="translate(280.496856 304.249362)scale(0.1 -0.1)">
      <use xlink:href="#DejaVuSans-74"/>
      <use xlink:href="#DejaVuSans-69" x="39.208984"/>
      <use xlink:href="#DejaVuSans-6d" x="66.992188"/>
      <use xlink:href="#DejaVuSans-65" x="164.404297"/>
      <use xlink:href="#DejaVuSans-28" x="225.927734"/>
      <use xlink:href="#DejaVuSans-73" x="264.941406"/>
      <use xlink:href="#DejaVuSans-29" x="317.041016"/>
     </g>
    </g>
   </g>
   <g id="matplotlib.axis_4">
    <g id="ytick_6">
     <g id="line2d_46">
      <g>
       <use xlink:href="#m35e4740c3b" x="241.16" y="275.547479" style="stroke: #000000; stroke-width: 0.8"/>
      </g>
     </g>
     <g id="text_44">
      <!-- 0 -->
      <g transform="translate(227.7975 279.346698)scale(0.1 -0.1)">
       <use xlink:href="#DejaVuSans-30"/>
      </g>
     </g>
    </g>
    <g id="ytick_7">
     <g id="line2d_47">
      <g>
       <use xlink:href="#m35e4740c3b" x="241.16" y="233.015416" style="stroke: #000000; stroke-width: 0.8"/>
      </g>
     </g>
     <g id="text_45">
      <!-- 50 -->
      <g transform="translate(221.435 236.814635)scale(0.1 -0.1)">
       <use xlink:href="#DejaVuSans-35"/>
       <use xlink:href="#DejaVuSans-30" x="63.623047"/>
      </g>
     </g>
    </g>
    <g id="text_46">
     <!-- $\alpha(\degree)$ -->
     <g transform="translate(215.355313 253.73936)rotate(-90)scale(0.1 -0.1)">
      <defs>
       <path id="DejaVuSans-Oblique-3b1" d="M 2619 1628 
L 2622 2350 
Q 2625 3088 2069 3091 
Q 1653 3094 1394 2747 
Q 1069 2319 959 1747 
Q 825 1059 994 731 
Q 1169 397 1547 397 
Q 1966 397 2319 1063 
L 2619 1628 
z
M 2166 3578 
Q 3141 3594 3128 2584 
Q 3128 2584 3616 3500 
L 4128 3500 
L 3119 1603 
L 3109 919 
Q 3109 766 3194 638 
Q 3291 488 3391 488 
L 3669 488 
L 3575 0 
L 3228 0 
Q 2934 0 2722 263 
Q 2622 394 2619 669 
Q 2416 334 2066 50 
Q 1900 -81 1453 -78 
Q 722 -72 456 397 
Q 184 884 353 1747 
Q 534 2675 1009 3097 
Q 1544 3569 2166 3578 
z
" transform="scale(0.015625)"/>
       <path id="DejaVuSans-b0" d="M 1600 4347 
Q 1350 4347 1178 4173 
Q 1006 4000 1006 3750 
Q 1006 3503 1178 3333 
Q 1350 3163 1600 3163 
Q 1850 3163 2022 3333 
Q 2194 3503 2194 3750 
Q 2194 3997 2020 4172 
Q 1847 4347 1600 4347 
z
M 1600 4750 
Q 1800 4750 1984 4673 
Q 2169 4597 2303 4453 
Q 2447 4313 2519 4134 
Q 2591 3956 2591 3750 
Q 2591 3338 2302 3052 
Q 2013 2766 1594 2766 
Q 1172 2766 890 3047 
Q 609 3328 609 3750 
Q 609 4169 896 4459 
Q 1184 4750 1600 4750 
z
" transform="scale(0.015625)"/>
      </defs>
      <use xlink:href="#DejaVuSans-Oblique-3b1" transform="translate(0 0.125)"/>
      <use xlink:href="#DejaVuSans-28" transform="translate(65.917969 0.125)"/>
      <use xlink:href="#DejaVuSans-b0" transform="translate(104.931641 0.125)"/>
      <use xlink:href="#DejaVuSans-29" transform="translate(154.931641 0.125)"/>
     </g>
    </g>
   </g>
   <g id="line2d_48">
    <path d="M 246.354473 275.547479 
L 246.614196 273.232411 
L 246.87392 273.302112 
L 247.653091 274.004422 
L 248.172538 274.173461 
L 248.691985 274.098431 
L 249.211433 273.787535 
L 249.73088 273.25481 
L 250.510051 272.082528 
L 251.548945 269.94825 
L 252.847564 266.640236 
L 254.665629 261.344684 
L 257.262865 253.064722 
L 259.860102 244.057519 
L 264.535127 227.554538 
L 266.093469 222.858157 
L 267.392087 219.538795 
L 268.690705 216.860448 
L 269.7296 215.224879 
L 270.768495 214.065539 
L 271.547665 213.51723 
L 272.326836 213.247599 
L 273.106007 213.257112 
L 273.885178 213.54408 
L 274.664349 214.104899 
L 275.44352 214.934205 
L 276.482415 216.445289 
L 277.521309 218.400144 
L 278.819927 221.42738 
L 280.118545 225.042339 
L 281.676887 230.039258 
L 283.754676 237.516026 
L 289.208873 257.699228 
L 291.026938 263.328906 
L 292.325556 266.737918 
L 293.624175 269.567406 
L 294.663069 271.387746 
L 295.701964 272.80111 
L 296.740858 273.800854 
L 297.520029 274.277101 
L 298.2992 274.518064 
L 299.078371 271.548643 
L 299.857542 269.506126 
L 300.896436 267.538352 
L 302.195055 265.648153 
L 304.532567 262.753707 
L 309.207593 256.991607 
L 313.103447 251.806425 
L 324.01184 237.023249 
L 326.609076 234.044516 
L 328.946589 231.713251 
L 331.024378 229.947634 
L 333.102167 228.475061 
L 335.179956 227.283153 
L 337.257745 226.347181 
L 339.595258 225.559367 
L 341.932771 225.002669 
L 344.789731 224.562355 
L 348.166138 224.278063 
L 350.243927 224.186182 
L 350.243927 224.186182 
" clip-path="url(#p034815dd52)" style="fill: none; stroke: #1f77b4; stroke-width: 1.5; stroke-linecap: square"/>
   </g>
   <g id="line2d_49">
    <path d="M 246.354473 275.547479 
L 246.87392 270.766586 
L 247.133644 270.06667 
L 248.951709 272.692688 
L 249.73088 273.066077 
L 250.250327 272.998884 
L 250.769775 272.640799 
L 251.289222 271.994805 
L 252.068393 270.521386 
L 252.847564 268.526219 
L 253.886458 265.266486 
L 255.964247 257.751542 
L 258.821207 247.6023 
L 267.132364 220.117057 
L 268.430982 216.932985 
L 269.469876 214.962351 
L 270.249047 213.85866 
L 271.028218 213.092792 
L 271.807389 212.669715 
L 272.58656 212.58262 
L 273.365731 212.812655 
L 274.144902 213.33188 
L 274.924073 214.109471 
L 275.962967 215.50434 
L 277.001862 217.280367 
L 278.30048 220.0359 
L 279.599098 223.396863 
L 281.15744 228.177619 
L 282.975505 234.566233 
L 289.468596 258.264259 
L 291.026938 262.844609 
L 292.325556 266.082873 
L 293.624175 268.75667 
L 294.663069 270.481135 
L 295.701964 271.838283 
L 296.740858 272.83355 
L 297.779753 273.473682 
L 298.2992 273.662304 
L 298.558924 274.438277 
L 298.818647 274.659496 
L 299.338095 274.60921 
L 302.195055 273.738907 
L 302.974225 273.114499 
L 303.753396 272.140106 
L 304.532567 270.771757 
L 305.311738 269.002264 
L 306.350633 266.06322 
L 307.649251 261.627943 
L 309.467316 254.51073 
L 315.960407 228.21055 
L 317.518749 223.089585 
L 318.817367 219.527612 
L 319.856262 217.192465 
L 320.895156 215.339062 
L 321.934051 213.981732 
L 322.713222 213.294547 
L 323.492393 212.892569 
L 324.271564 212.775086 
L 325.050735 212.939327 
L 325.829905 213.380602 
L 326.609076 214.092611 
L 327.388247 215.067762 
L 328.427142 216.762219 
L 329.466036 218.885568 
L 330.764655 222.099399 
L 332.322996 226.679799 
L 334.141062 232.799907 
L 338.29664 247.985952 
L 340.634153 255.965849 
L 342.452218 261.435287 
L 344.01056 265.485727 
L 345.568902 268.881036 
L 346.86752 271.171485 
L 347.906415 272.627718 
L 348.945309 273.728964 
L 349.984204 274.453678 
L 350.243927 274.573341 
L 350.243927 274.573341 
" clip-path="url(#p034815dd52)" style="fill: none; stroke: #ff7f0e; stroke-width: 1.5; stroke-linecap: square"/>
   </g>
   <g id="line2d_50">
    <path d="M 246.354473 275.547479 
L 246.87392 270.825348 
L 247.133644 270.59859 
L 247.393367 270.703302 
L 247.653091 271.365324 
L 247.912815 271.673661 
L 248.172538 272.227286 
L 249.211433 273.127694 
L 249.73088 273.155931 
L 250.250327 272.925557 
L 250.769775 272.451513 
L 251.548945 271.305169 
L 252.328116 269.665684 
L 253.367011 266.786996 
L 254.665629 262.362087 
L 259.340655 245.646717 
L 266.87264 221.046475 
L 268.171258 217.760485 
L 269.210153 215.654127 
L 269.989324 214.439289 
L 270.768495 213.563937 
L 271.547665 213.031641 
L 272.326836 212.82804 
L 273.106007 212.927772 
L 273.885178 213.303822 
L 274.664349 213.934944 
L 275.703244 215.151979 
L 276.742138 216.785357 
L 277.781033 218.823598 
L 279.079651 221.916781 
L 280.378269 225.584277 
L 281.936611 230.672691 
L 284.0144 238.296457 
L 288.689425 255.760852 
L 290.507491 261.575273 
L 292.065833 265.76537 
L 293.364451 268.619339 
L 294.403345 270.465133 
L 295.44224 271.920727 
L 296.481135 272.992859 
L 297.520029 273.690879 
L 298.2992 273.973685 
L 298.558924 272.975465 
L 298.818647 272.732292 
L 299.078371 272.892576 
L 300.636713 272.473089 
L 301.935331 271.819395 
L 304.532567 270.862353 
L 305.052015 270.380271 
L 305.571462 269.668692 
L 306.350633 268.105815 
L 307.129804 265.927014 
L 308.168698 262.159807 
L 309.467316 256.47192 
L 314.142342 235.25303 
L 315.960407 228.128371 
L 317.518749 222.93475 
L 318.817367 219.466707 
L 319.856262 217.263116 
L 320.895156 215.494107 
L 321.934051 214.102093 
L 322.972945 213.102165 
L 323.752116 212.660364 
L 324.531287 212.531241 
L 325.050735 212.633609 
L 325.829905 213.072504 
L 326.609076 213.831455 
L 327.647971 215.262469 
L 328.686865 217.075217 
L 329.985484 219.817594 
L 331.284102 223.141957 
L 332.58272 227.069537 
L 334.400785 233.302809 
L 341.413324 258.143954 
L 343.231389 263.29277 
L 344.789731 267.015598 
L 346.088349 269.583513 
L 347.386967 271.657279 
L 348.425862 272.959368 
L 349.464756 273.934075 
L 350.243927 274.438815 
L 350.243927 274.438815 
" clip-path="url(#p034815dd52)" style="fill: none; stroke: #2ca02c; stroke-width: 1.5; stroke-linecap: square"/>
   </g>
   <g id="line2d_51">
    <path d="M 246.354473 275.547479 
L 246.614196 274.058917 
L 246.87392 271.575915 
L 247.133644 271.239926 
L 247.393367 271.625707 
L 247.653091 271.764502 
L 247.912815 272.432086 
L 248.172538 272.484593 
L 248.432262 273.005793 
L 248.691985 272.998424 
L 248.951709 273.300755 
L 249.211433 273.235337 
L 249.471156 273.328089 
L 250.250327 272.85979 
L 250.769775 272.276211 
L 251.548945 270.974609 
L 252.58784 268.573832 
L 253.886458 264.789368 
L 255.704524 258.599558 
L 260.898996 240.546481 
L 265.833745 224.021185 
L 267.132364 220.358239 
L 268.430982 217.338064 
L 269.469876 215.418605 
L 270.508771 213.979638 
L 271.287942 213.25508 
L 272.067113 212.863885 
L 272.846284 212.815026 
L 273.625455 213.093071 
L 274.404625 213.661562 
L 275.44352 214.79655 
L 276.482415 216.301356 
L 277.521309 218.176903 
L 278.560204 220.465545 
L 279.858822 223.925469 
L 281.417164 228.813093 
L 283.494953 236.186822 
L 289.72832 259.159258 
L 291.286662 263.797296 
L 292.58528 267.052191 
L 293.883898 269.707308 
L 294.922793 271.387617 
L 295.961687 272.672151 
L 297.000582 273.566474 
L 297.779753 273.986653 
L 298.2992 274.149571 
L 299.078371 271.912125 
L 300.117265 269.65082 
L 301.15616 267.9217 
L 302.454778 266.239141 
L 303.753396 264.910447 
L 305.311738 263.632288 
L 307.129804 262.446397 
L 309.207593 261.378578 
L 311.545105 260.445183 
L 314.142342 259.654756 
L 317.259025 258.95818 
L 320.895156 258.3932 
L 325.310458 257.948506 
L 331.024378 257.614974 
L 339.075811 257.390233 
L 350.243927 257.278544 
L 350.243927 257.278544 
" clip-path="url(#p034815dd52)" style="fill: none; stroke: #d62728; stroke-width: 1.5; stroke-linecap: square"/>
   </g>
   <g id="line2d_52">
    <path d="M 246.354473 275.547479 
L 246.614196 274.334243 
L 246.87392 272.344658 
L 247.133644 271.450267 
L 247.653091 272.248725 
L 247.912815 272.426703 
L 248.172538 272.990213 
L 248.432262 272.970849 
L 248.691985 273.410295 
L 248.951709 273.319945 
L 249.211433 273.543975 
L 249.471156 273.400575 
L 249.73088 273.41066 
L 250.510051 272.694173 
L 251.029498 271.927663 
L 251.808669 270.340611 
L 252.847564 267.607986 
L 254.405905 262.799454 
L 257.522589 252.302191 
L 265.833745 224.103727 
L 267.392087 219.649976 
L 268.430982 217.262567 
L 269.469876 215.458376 
L 270.508771 214.194852 
L 271.287942 213.543199 
L 272.067113 213.119682 
L 272.846284 212.939936 
L 273.625455 213.048728 
L 274.404625 213.492922 
L 275.183796 214.289282 
L 275.962967 215.406306 
L 277.001862 217.270442 
L 278.560204 220.575922 
L 279.858822 223.827565 
L 281.15744 227.744807 
L 282.975505 234.166937 
L 290.247767 260.744121 
L 291.806109 265.20267 
L 293.104727 268.276156 
L 294.403345 270.724342 
L 295.44224 272.23384 
L 296.481135 273.344746 
L 297.260305 273.914861 
L 298.039476 274.259989 
L 298.2992 274.325503 
L 298.558924 272.714925 
L 299.078371 272.460262 
L 299.338095 272.580365 
L 300.376989 272.454724 
L 304.01312 271.070864 
L 304.792291 270.334944 
L 305.571462 269.177816 
L 306.350633 267.523513 
L 307.129804 265.370525 
L 308.168698 261.806359 
L 309.467316 256.522487 
L 312.324276 243.569934 
L 314.921513 232.207403 
L 316.479855 226.308423 
L 317.778473 222.185719 
L 319.077091 218.840847 
L 320.115985 216.701048 
L 321.15488 215.00577 
L 322.193775 213.743077 
L 322.972945 213.088243 
L 323.752116 212.699228 
L 324.531287 212.591987 
L 325.310458 212.778876 
L 326.089629 213.264487 
L 326.8688 214.043671 
L 327.647971 215.102199 
L 328.686865 216.912512 
L 329.985484 219.743729 
L 331.284102 223.130422 
L 332.842444 227.846448 
L 334.660509 234.087815 
L 341.1536 257.235727 
L 342.971665 262.552874 
L 344.530007 266.433638 
L 345.828625 269.144892 
L 347.127244 271.356788 
L 348.166138 272.754595 
L 349.205033 273.810962 
L 350.243927 274.512556 
L 350.243927 274.512556 
" clip-path="url(#p034815dd52)" style="fill: none; stroke: #9467bd; stroke-width: 1.5; stroke-linecap: square"/>
   </g>
   <g id="line2d_53">
    <path d="M 246.354473 275.547479 
L 246.87392 271.975813 
L 247.133644 271.278148 
L 247.393367 271.230692 
L 247.912815 272.242163 
L 248.951709 273.26136 
L 249.990604 273.04945 
L 250.769775 272.293523 
L 251.548945 271.079271 
L 252.328116 269.391307 
L 253.367011 266.524555 
L 254.925353 261.380985 
L 264.794851 227.274109 
L 267.132364 220.547838 
L 268.430982 217.300664 
L 269.469876 215.306225 
L 270.249047 214.271181 
L 271.028218 213.618334 
L 271.807389 213.273333 
L 272.58656 213.148481 
L 273.365731 213.19545 
L 274.144902 213.43488 
L 274.924073 213.942353 
L 275.703244 214.798696 
L 276.482415 216.035749 
L 277.521309 218.192313 
L 279.339375 222.676823 
L 280.897716 226.957342 
L 282.196335 231.178591 
L 284.0144 238.005278 
L 288.169978 253.636813 
L 290.247767 260.717312 
L 291.806109 265.212423 
L 293.104727 268.339791 
L 294.403345 270.847845 
L 295.44224 272.377455 
L 296.481135 273.47927 
L 297.260305 274.031499 
L 298.039476 274.355541 
L 298.2992 274.413788 
L 298.558924 272.847307 
L 298.818647 272.335409 
L 299.597818 272.58774 
L 300.117265 272.530243 
L 301.415884 271.916553 
L 304.532567 270.343393 
L 305.311738 269.485464 
L 306.090909 268.176485 
L 306.87008 266.354782 
L 307.908975 263.138029 
L 309.207593 258.077621 
L 311.025658 249.866079 
L 314.661789 233.285678 
L 316.220131 227.175984 
L 317.518749 222.887615 
L 318.817367 219.388991 
L 319.856262 217.134294 
L 320.895156 215.33058 
L 321.934051 213.963996 
L 322.713222 213.231313 
L 323.492393 212.761263 
L 324.271564 212.56746 
L 325.050735 212.661983 
L 325.829905 213.051905 
L 326.609076 213.736741 
L 327.388247 214.707383 
L 328.427142 216.416218 
L 329.466036 218.550654 
L 330.764655 221.739846 
L 332.322996 226.236024 
L 334.141062 232.267363 
L 336.998022 242.73171 
L 339.854982 252.975123 
L 341.932771 259.594474 
L 343.491113 263.906806 
L 345.049455 267.567974 
L 346.348073 270.081446 
L 347.646691 272.084533 
L 348.685585 273.309014 
L 349.72448 274.187546 
L 350.243927 274.493216 
L 350.243927 274.493216 
" clip-path="url(#p034815dd52)" style="fill: none; stroke: #8c564b; stroke-width: 1.5; stroke-linecap: square"/>
   </g>
   <g id="line2d_54">
    <path d="M 246.354473 275.547479 
L 247.133644 275.455655 
L 247.912815 275.089265 
L 248.691985 274.451561 
L 249.471156 273.548203 
L 250.510051 271.944677 
L 251.548945 269.908684 
L 252.847564 266.805063 
L 254.405905 262.364167 
L 256.223971 256.396623 
L 258.821207 246.956862 
L 262.976785 231.753501 
L 264.794851 225.89195 
L 266.353193 221.572384 
L 267.651811 218.588135 
L 268.690705 216.657507 
L 269.7296 215.166325 
L 270.508771 214.350743 
L 271.287942 213.802966 
L 272.067113 213.527856 
L 272.846284 213.527856 
L 273.625455 213.802966 
L 274.404625 214.350743 
L 275.183796 215.166325 
L 276.222691 216.657507 
L 277.261585 218.588135 
L 278.560204 221.572384 
L 279.858822 225.121737 
L 281.417164 230.002989 
L 283.494953 237.278795 
L 289.988044 260.73494 
L 291.546385 265.405229 
L 292.845004 268.738294 
L 294.143622 271.475081 
L 295.182516 273.189369 
L 296.221411 274.451561 
L 297.000582 275.089265 
L 297.779753 275.455655 
L 298.558924 275.547479 
L 299.338095 275.363922 
L 300.117265 274.906613 
L 300.896436 274.179611 
L 301.675607 273.189369 
L 302.714502 271.475081 
L 303.753396 269.335733 
L 305.052015 266.115801 
L 306.610356 261.55796 
L 308.428422 255.490312 
L 311.285382 245.00974 
L 314.921513 231.753501 
L 316.739578 225.89195 
L 318.29792 221.572384 
L 319.596538 218.588135 
L 320.635433 216.657507 
L 321.674327 215.166325 
L 322.453498 214.350743 
L 323.232669 213.802966 
L 324.01184 213.527856 
L 324.791011 213.527856 
L 325.570182 213.802966 
L 326.349353 214.350743 
L 327.128524 215.166325 
L 328.167418 216.657507 
L 329.206313 218.588135 
L 330.504931 221.572384 
L 331.803549 225.121737 
L 333.361891 230.002989 
L 335.43968 237.278795 
L 341.932771 260.73494 
L 343.491113 265.405229 
L 344.789731 268.738294 
L 346.088349 271.475081 
L 347.127244 273.189369 
L 348.166138 274.451561 
L 348.945309 275.089265 
L 349.72448 275.455655 
L 350.243927 275.547479 
L 350.243927 275.547479 
" clip-path="url(#p034815dd52)" style="fill: none; stroke: #e377c2; stroke-width: 1.5; stroke-linecap: square"/>
   </g>
   <g id="patch_10">
    <path d="M 241.16 275.9728 
L 241.16 212.10592 
" style="fill: none; stroke: #000000; stroke-width: 0.8; stroke-linejoin: miter; stroke-linecap: square"/>
   </g>
   <g id="patch_11">
    <path d="M 355.4384 275.9728 
L 355.4384 212.10592 
" style="fill: none; stroke: #000000; stroke-width: 0.8; stroke-linejoin: miter; stroke-linecap: square"/>
   </g>
   <g id="patch_12">
    <path d="M 241.16 275.9728 
L 355.4384 275.9728 
" style="fill: none; stroke: #000000; stroke-width: 0.8; stroke-linejoin: miter; stroke-linecap: square"/>
   </g>
   <g id="patch_13">
    <path d="M 241.16 212.10592 
L 355.4384 212.10592 
" style="fill: none; stroke: #000000; stroke-width: 0.8; stroke-linejoin: miter; stroke-linecap: square"/>
   </g>
   <g id="legend_2">
    <g id="patch_14">
     <path d="M 248.16 270.9728 
L 364.635 270.9728 
Q 366.635 270.9728 366.635 268.9728 
L 366.635 167.225925 
Q 366.635 165.225925 364.635 165.225925 
L 248.16 165.225925 
Q 246.16 165.225925 246.16 167.225925 
L 246.16 268.9728 
Q 246.16 270.9728 248.16 270.9728 
z
" style="fill: #ffffff; opacity: 0.8; stroke: #cccccc; stroke-linejoin: miter"/>
    </g>
    <g id="line2d_55">
     <path d="M 250.16 173.324363 
L 260.16 173.324363 
L 270.16 173.324363 
" style="fill: none; stroke: #1f77b4; stroke-width: 1.5; stroke-linecap: square"/>
    </g>
    <g id="text_47">
     <!-- $M_1$ -->
     <g transform="translate(278.16 176.824363)scale(0.1 -0.1)">
      <use xlink:href="#DejaVuSans-Oblique-4d" transform="translate(0 0.09375)"/>
      <use xlink:href="#DejaVuSans-31" transform="translate(86.279297 -16.3125)scale(0.7)"/>
     </g>
    </g>
    <g id="line2d_56">
     <path d="M 250.16 188.002488 
L 260.16 188.002488 
L 270.16 188.002488 
" style="fill: none; stroke: #ff7f0e; stroke-width: 1.5; stroke-linecap: square"/>
    </g>
    <g id="text_48">
     <!-- $M_2$ -->
     <g transform="translate(278.16 191.502488)scale(0.1 -0.1)">
      <use xlink:href="#DejaVuSans-Oblique-4d" transform="translate(0 0.09375)"/>
      <use xlink:href="#DejaVuSans-32" transform="translate(86.279297 -16.3125)scale(0.7)"/>
     </g>
    </g>
    <g id="line2d_57">
     <path d="M 250.16 202.680612 
L 260.16 202.680612 
L 270.16 202.680612 
" style="fill: none; stroke: #2ca02c; stroke-width: 1.5; stroke-linecap: square"/>
    </g>
    <g id="text_49">
     <!-- $M_3$ -->
     <g transform="translate(278.16 206.180612)scale(0.1 -0.1)">
      <use xlink:href="#DejaVuSans-Oblique-4d" transform="translate(0 0.09375)"/>
      <use xlink:href="#DejaVuSans-33" transform="translate(86.279297 -16.3125)scale(0.7)"/>
     </g>
    </g>
    <g id="line2d_58">
     <path d="M 250.16 217.358738 
L 260.16 217.358738 
L 270.16 217.358738 
" style="fill: none; stroke: #d62728; stroke-width: 1.5; stroke-linecap: square"/>
    </g>
    <g id="text_50">
     <!-- $M_4$ -->
     <g transform="translate(278.16 220.858738)scale(0.1 -0.1)">
      <use xlink:href="#DejaVuSans-Oblique-4d" transform="translate(0 0.09375)"/>
      <use xlink:href="#DejaVuSans-34" transform="translate(86.279297 -16.3125)scale(0.7)"/>
     </g>
    </g>
    <g id="line2d_59">
     <path d="M 250.16 232.036863 
L 260.16 232.036863 
L 270.16 232.036863 
" style="fill: none; stroke: #9467bd; stroke-width: 1.5; stroke-linecap: square"/>
    </g>
    <g id="text_51">
     <!-- $M_5$ -->
     <g transform="translate(278.16 235.536863)scale(0.1 -0.1)">
      <use xlink:href="#DejaVuSans-Oblique-4d" transform="translate(0 0.09375)"/>
      <use xlink:href="#DejaVuSans-35" transform="translate(86.279297 -16.3125)scale(0.7)"/>
     </g>
    </g>
    <g id="line2d_60">
     <path d="M 250.16 246.714988 
L 260.16 246.714988 
L 270.16 246.714988 
" style="fill: none; stroke: #8c564b; stroke-width: 1.5; stroke-linecap: square"/>
    </g>
    <g id="text_52">
     <!-- $M_6$ -->
     <g transform="translate(278.16 250.214988)scale(0.1 -0.1)">
      <use xlink:href="#DejaVuSans-Oblique-4d" transform="translate(0 0.09375)"/>
      <use xlink:href="#DejaVuSans-36" transform="translate(86.279297 -16.3125)scale(0.7)"/>
     </g>
    </g>
    <g id="line2d_61">
     <path d="M 250.16 261.393113 
L 260.16 261.393113 
L 270.16 261.393113 
" style="fill: none; stroke: #e377c2; stroke-width: 1.5; stroke-linecap: square"/>
    </g>
    <g id="text_53">
     <!-- Reference Target -->
     <g transform="translate(278.16 264.893113)scale(0.1 -0.1)">
      <defs>
       <path id="DejaVuSans-52" d="M 2841 2188 
Q 3044 2119 3236 1894 
Q 3428 1669 3622 1275 
L 4263 0 
L 3584 0 
L 2988 1197 
Q 2756 1666 2539 1819 
Q 2322 1972 1947 1972 
L 1259 1972 
L 1259 0 
L 628 0 
L 628 4666 
L 2053 4666 
Q 2853 4666 3247 4331 
Q 3641 3997 3641 3322 
Q 3641 2881 3436 2590 
Q 3231 2300 2841 2188 
z
M 1259 4147 
L 1259 2491 
L 2053 2491 
Q 2509 2491 2742 2702 
Q 2975 2913 2975 3322 
Q 2975 3731 2742 3939 
Q 2509 4147 2053 4147 
L 1259 4147 
z
" transform="scale(0.015625)"/>
       <path id="DejaVuSans-66" d="M 2375 4863 
L 2375 4384 
L 1825 4384 
Q 1516 4384 1395 4259 
Q 1275 4134 1275 3809 
L 1275 3500 
L 2222 3500 
L 2222 3053 
L 1275 3053 
L 1275 0 
L 697 0 
L 697 3053 
L 147 3053 
L 147 3500 
L 697 3500 
L 697 3744 
Q 697 4328 969 4595 
Q 1241 4863 1831 4863 
L 2375 4863 
z
" transform="scale(0.015625)"/>
       <path id="DejaVuSans-72" d="M 2631 2963 
Q 2534 3019 2420 3045 
Q 2306 3072 2169 3072 
Q 1681 3072 1420 2755 
Q 1159 2438 1159 1844 
L 1159 0 
L 581 0 
L 581 3500 
L 1159 3500 
L 1159 2956 
Q 1341 3275 1631 3429 
Q 1922 3584 2338 3584 
Q 2397 3584 2469 3576 
Q 2541 3569 2628 3553 
L 2631 2963 
z
" transform="scale(0.015625)"/>
       <path id="DejaVuSans-6e" d="M 3513 2113 
L 3513 0 
L 2938 0 
L 2938 2094 
Q 2938 2591 2744 2837 
Q 2550 3084 2163 3084 
Q 1697 3084 1428 2787 
Q 1159 2491 1159 1978 
L 1159 0 
L 581 0 
L 581 3500 
L 1159 3500 
L 1159 2956 
Q 1366 3272 1645 3428 
Q 1925 3584 2291 3584 
Q 2894 3584 3203 3211 
Q 3513 2838 3513 2113 
z
" transform="scale(0.015625)"/>
       <path id="DejaVuSans-63" d="M 3122 3366 
L 3122 2828 
Q 2878 2963 2633 3030 
Q 2388 3097 2138 3097 
Q 1578 3097 1268 2742 
Q 959 2388 959 1747 
Q 959 1106 1268 751 
Q 1578 397 2138 397 
Q 2388 397 2633 464 
Q 2878 531 3122 666 
L 3122 134 
Q 2881 22 2623 -34 
Q 2366 -91 2075 -91 
Q 1284 -91 818 406 
Q 353 903 353 1747 
Q 353 2603 823 3093 
Q 1294 3584 2113 3584 
Q 2378 3584 2631 3529 
Q 2884 3475 3122 3366 
z
" transform="scale(0.015625)"/>
       <path id="DejaVuSans-20" transform="scale(0.015625)"/>
       <path id="DejaVuSans-54" d="M -19 4666 
L 3928 4666 
L 3928 4134 
L 2272 4134 
L 2272 0 
L 1638 0 
L 1638 4134 
L -19 4134 
L -19 4666 
z
" transform="scale(0.015625)"/>
       <path id="DejaVuSans-61" d="M 2194 1759 
Q 1497 1759 1228 1600 
Q 959 1441 959 1056 
Q 959 750 1161 570 
Q 1363 391 1709 391 
Q 2188 391 2477 730 
Q 2766 1069 2766 1631 
L 2766 1759 
L 2194 1759 
z
M 3341 1997 
L 3341 0 
L 2766 0 
L 2766 531 
Q 2569 213 2275 61 
Q 1981 -91 1556 -91 
Q 1019 -91 701 211 
Q 384 513 384 1019 
Q 384 1609 779 1909 
Q 1175 2209 1959 2209 
L 2766 2209 
L 2766 2266 
Q 2766 2663 2505 2880 
Q 2244 3097 1772 3097 
Q 1472 3097 1187 3025 
Q 903 2953 641 2809 
L 641 3341 
Q 956 3463 1253 3523 
Q 1550 3584 1831 3584 
Q 2591 3584 2966 3190 
Q 3341 2797 3341 1997 
z
" transform="scale(0.015625)"/>
       <path id="DejaVuSans-67" d="M 2906 1791 
Q 2906 2416 2648 2759 
Q 2391 3103 1925 3103 
Q 1463 3103 1205 2759 
Q 947 2416 947 1791 
Q 947 1169 1205 825 
Q 1463 481 1925 481 
Q 2391 481 2648 825 
Q 2906 1169 2906 1791 
z
M 3481 434 
Q 3481 -459 3084 -895 
Q 2688 -1331 1869 -1331 
Q 1566 -1331 1297 -1286 
Q 1028 -1241 775 -1147 
L 775 -588 
Q 1028 -725 1275 -790 
Q 1522 -856 1778 -856 
Q 2344 -856 2625 -561 
Q 2906 -266 2906 331 
L 2906 616 
Q 2728 306 2450 153 
Q 2172 0 1784 0 
Q 1141 0 747 490 
Q 353 981 353 1791 
Q 353 2603 747 3093 
Q 1141 3584 1784 3584 
Q 2172 3584 2450 3431 
Q 2728 3278 2906 2969 
L 2906 3500 
L 3481 3500 
L 3481 434 
z
" transform="scale(0.015625)"/>
      </defs>
      <use xlink:href="#DejaVuSans-52"/>
      <use xlink:href="#DejaVuSans-65" x="64.982422"/>
      <use xlink:href="#DejaVuSans-66" x="126.505859"/>
      <use xlink:href="#DejaVuSans-65" x="161.710938"/>
      <use xlink:href="#DejaVuSans-72" x="223.234375"/>
      <use xlink:href="#DejaVuSans-65" x="262.097656"/>
      <use xlink:href="#DejaVuSans-6e" x="323.621094"/>
      <use xlink:href="#DejaVuSans-63" x="387"/>
      <use xlink:href="#DejaVuSans-65" x="441.980469"/>
      <use xlink:href="#DejaVuSans-20" x="503.503906"/>
      <use xlink:href="#DejaVuSans-54" x="535.291016"/>
      <use xlink:href="#DejaVuSans-61" x="579.875"/>
      <use xlink:href="#DejaVuSans-72" x="641.154297"/>
      <use xlink:href="#DejaVuSans-67" x="680.517578"/>
      <use xlink:href="#DejaVuSans-65" x="743.994141"/>
      <use xlink:href="#DejaVuSans-74" x="805.517578"/>
     </g>
    </g>
   </g>
  </g>
 </g>
 <defs>
  <clipPath id="p9f4b8cd050">
   <rect x="57.6" y="41.472" width="357.12" height="266.112"/>
  </clipPath>
  <clipPath id="p034815dd52">
   <rect x="241.16" y="212.10592" width="114.2784" height="63.86688"/>
  </clipPath>
 </defs>
</svg>
