<?xml version="1.0" encoding="utf-8" standalone="no"?>
<!DOCTYPE svg PUBLIC "-//W3C//DTD SVG 1.1//EN"
  "http://www.w3.org/Graphics/SVG/1.1/DTD/svg11.dtd">
<svg xmlns:xlink="http://www.w3.org/1999/xlink" width="460.8pt" height="345.6pt" viewBox="0 0 460.8 345.6" xmlns="http://www.w3.org/2000/svg" version="1.1">
 <metadata>
  <rdf:RDF xmlns:dc="http://purl.org/dc/elements/1.1/" xmlns:cc="http://creativecommons.org/ns#" xmlns:rdf="http://www.w3.org/1999/02/22-rdf-syntax-ns#">
   <cc:Work>
    <dc:type rdf:resource="http://purl.org/dc/dcmitype/StillImage"/>
    <dc:date>2022-08-28T12:20:38.867308</dc:date>
    <dc:format>image/svg+xml</dc:format>
    <dc:creator>
     <cc:Agent>
      <dc:title>Matplotlib v3.5.2, https://matplotlib.org/</dc:title>
     </cc:Agent>
    </dc:creator>
   </cc:Work>
  </rdf:RDF>
 </metadata>
 <defs>
  <style type="text/css">*{stroke-linejoin: round; stroke-linecap: butt}</style>
 </defs>
 <g id="figure_1">
  <g id="patch_1">
   <path d="M 0 345.6 
L 460.8 345.6 
L 460.8 0 
L 0 0 
z
" style="fill: #ffffff"/>
  </g>
  <g id="axes_1">
   <g id="patch_2">
    <path d="M 57.6 307.584 
L 414.72 307.584 
L 414.72 41.472 
L 57.6 41.472 
z
" style="fill: #ffffff"/>
   </g>
   <g id="matplotlib.axis_1">
    <g id="xtick_1">
     <g id="line2d_1">
      <defs>
       <path id="m87783321c3" d="M 0 0 
L 0 3.5 
" style="stroke: #000000; stroke-width: 0.8"/>
      </defs>
      <g>
       <use xlink:href="#m87783321c3" x="73.832727" y="307.584" style="stroke: #000000; stroke-width: 0.8"/>
      </g>
     </g>
     <g id="text_1">
      <!-- 0.0 -->
      <g transform="translate(65.881165 322.182437)scale(0.1 -0.1)">
       <defs>
        <path id="DejaVuSans-30" d="M 2034 4250 
Q 1547 4250 1301 3770 
Q 1056 3291 1056 2328 
Q 1056 1369 1301 889 
Q 1547 409 2034 409 
Q 2525 409 2770 889 
Q 3016 1369 3016 2328 
Q 3016 3291 2770 3770 
Q 2525 4250 2034 4250 
z
M 2034 4750 
Q 2819 4750 3233 4129 
Q 3647 3509 3647 2328 
Q 3647 1150 3233 529 
Q 2819 -91 2034 -91 
Q 1250 -91 836 529 
Q 422 1150 422 2328 
Q 422 3509 836 4129 
Q 1250 4750 2034 4750 
z
" transform="scale(0.015625)"/>
        <path id="DejaVuSans-2e" d="M 684 794 
L 1344 794 
L 1344 0 
L 684 0 
L 684 794 
z
" transform="scale(0.015625)"/>
       </defs>
       <use xlink:href="#DejaVuSans-30"/>
       <use xlink:href="#DejaVuSans-2e" x="63.623047"/>
       <use xlink:href="#DejaVuSans-30" x="95.410156"/>
      </g>
     </g>
    </g>
    <g id="xtick_2">
     <g id="line2d_2">
      <g>
       <use xlink:href="#m87783321c3" x="98.181818" y="307.584" style="stroke: #000000; stroke-width: 0.8"/>
      </g>
     </g>
     <g id="text_2">
      <!-- 3.0 -->
      <g transform="translate(90.230256 322.182437)scale(0.1 -0.1)">
       <defs>
        <path id="DejaVuSans-33" d="M 2597 2516 
Q 3050 2419 3304 2112 
Q 3559 1806 3559 1356 
Q 3559 666 3084 287 
Q 2609 -91 1734 -91 
Q 1441 -91 1130 -33 
Q 819 25 488 141 
L 488 750 
Q 750 597 1062 519 
Q 1375 441 1716 441 
Q 2309 441 2620 675 
Q 2931 909 2931 1356 
Q 2931 1769 2642 2001 
Q 2353 2234 1838 2234 
L 1294 2234 
L 1294 2753 
L 1863 2753 
Q 2328 2753 2575 2939 
Q 2822 3125 2822 3475 
Q 2822 3834 2567 4026 
Q 2313 4219 1838 4219 
Q 1578 4219 1281 4162 
Q 984 4106 628 3988 
L 628 4550 
Q 988 4650 1302 4700 
Q 1616 4750 1894 4750 
Q 2613 4750 3031 4423 
Q 3450 4097 3450 3541 
Q 3450 3153 3228 2886 
Q 3006 2619 2597 2516 
z
" transform="scale(0.015625)"/>
       </defs>
       <use xlink:href="#DejaVuSans-33"/>
       <use xlink:href="#DejaVuSans-2e" x="63.623047"/>
       <use xlink:href="#DejaVuSans-30" x="95.410156"/>
      </g>
     </g>
    </g>
    <g id="xtick_3">
     <g id="line2d_3">
      <g>
       <use xlink:href="#m87783321c3" x="122.530909" y="307.584" style="stroke: #000000; stroke-width: 0.8"/>
      </g>
     </g>
     <g id="text_3">
      <!-- 6.0 -->
      <g transform="translate(114.579347 322.182437)scale(0.1 -0.1)">
       <defs>
        <path id="DejaVuSans-36" d="M 2113 2584 
Q 1688 2584 1439 2293 
Q 1191 2003 1191 1497 
Q 1191 994 1439 701 
Q 1688 409 2113 409 
Q 2538 409 2786 701 
Q 3034 994 3034 1497 
Q 3034 2003 2786 2293 
Q 2538 2584 2113 2584 
z
M 3366 4563 
L 3366 3988 
Q 3128 4100 2886 4159 
Q 2644 4219 2406 4219 
Q 1781 4219 1451 3797 
Q 1122 3375 1075 2522 
Q 1259 2794 1537 2939 
Q 1816 3084 2150 3084 
Q 2853 3084 3261 2657 
Q 3669 2231 3669 1497 
Q 3669 778 3244 343 
Q 2819 -91 2113 -91 
Q 1303 -91 875 529 
Q 447 1150 447 2328 
Q 447 3434 972 4092 
Q 1497 4750 2381 4750 
Q 2619 4750 2861 4703 
Q 3103 4656 3366 4563 
z
" transform="scale(0.015625)"/>
       </defs>
       <use xlink:href="#DejaVuSans-36"/>
       <use xlink:href="#DejaVuSans-2e" x="63.623047"/>
       <use xlink:href="#DejaVuSans-30" x="95.410156"/>
      </g>
     </g>
    </g>
    <g id="xtick_4">
     <g id="line2d_4">
      <g>
       <use xlink:href="#m87783321c3" x="146.88" y="307.584" style="stroke: #000000; stroke-width: 0.8"/>
      </g>
     </g>
     <g id="text_4">
      <!-- 9.0 -->
      <g transform="translate(138.928438 322.182437)scale(0.1 -0.1)">
       <defs>
        <path id="DejaVuSans-39" d="M 703 97 
L 703 672 
Q 941 559 1184 500 
Q 1428 441 1663 441 
Q 2288 441 2617 861 
Q 2947 1281 2994 2138 
Q 2813 1869 2534 1725 
Q 2256 1581 1919 1581 
Q 1219 1581 811 2004 
Q 403 2428 403 3163 
Q 403 3881 828 4315 
Q 1253 4750 1959 4750 
Q 2769 4750 3195 4129 
Q 3622 3509 3622 2328 
Q 3622 1225 3098 567 
Q 2575 -91 1691 -91 
Q 1453 -91 1209 -44 
Q 966 3 703 97 
z
M 1959 2075 
Q 2384 2075 2632 2365 
Q 2881 2656 2881 3163 
Q 2881 3666 2632 3958 
Q 2384 4250 1959 4250 
Q 1534 4250 1286 3958 
Q 1038 3666 1038 3163 
Q 1038 2656 1286 2365 
Q 1534 2075 1959 2075 
z
" transform="scale(0.015625)"/>
       </defs>
       <use xlink:href="#DejaVuSans-39"/>
       <use xlink:href="#DejaVuSans-2e" x="63.623047"/>
       <use xlink:href="#DejaVuSans-30" x="95.410156"/>
      </g>
     </g>
    </g>
    <g id="xtick_5">
     <g id="line2d_5">
      <g>
       <use xlink:href="#m87783321c3" x="171.229091" y="307.584" style="stroke: #000000; stroke-width: 0.8"/>
      </g>
     </g>
     <g id="text_5">
      <!-- 12.0 -->
      <g transform="translate(160.096278 322.182437)scale(0.1 -0.1)">
       <defs>
        <path id="DejaVuSans-31" d="M 794 531 
L 1825 531 
L 1825 4091 
L 703 3866 
L 703 4441 
L 1819 4666 
L 2450 4666 
L 2450 531 
L 3481 531 
L 3481 0 
L 794 0 
L 794 531 
z
" transform="scale(0.015625)"/>
        <path id="DejaVuSans-32" d="M 1228 531 
L 3431 531 
L 3431 0 
L 469 0 
L 469 531 
Q 828 903 1448 1529 
Q 2069 2156 2228 2338 
Q 2531 2678 2651 2914 
Q 2772 3150 2772 3378 
Q 2772 3750 2511 3984 
Q 2250 4219 1831 4219 
Q 1534 4219 1204 4116 
Q 875 4013 500 3803 
L 500 4441 
Q 881 4594 1212 4672 
Q 1544 4750 1819 4750 
Q 2544 4750 2975 4387 
Q 3406 4025 3406 3419 
Q 3406 3131 3298 2873 
Q 3191 2616 2906 2266 
Q 2828 2175 2409 1742 
Q 1991 1309 1228 531 
z
" transform="scale(0.015625)"/>
       </defs>
       <use xlink:href="#DejaVuSans-31"/>
       <use xlink:href="#DejaVuSans-32" x="63.623047"/>
       <use xlink:href="#DejaVuSans-2e" x="127.246094"/>
       <use xlink:href="#DejaVuSans-30" x="159.033203"/>
      </g>
     </g>
    </g>
    <g id="xtick_6">
     <g id="line2d_6">
      <g>
       <use xlink:href="#m87783321c3" x="195.578182" y="307.584" style="stroke: #000000; stroke-width: 0.8"/>
      </g>
     </g>
     <g id="text_6">
      <!-- 15.0 -->
      <g transform="translate(184.445369 322.182437)scale(0.1 -0.1)">
       <defs>
        <path id="DejaVuSans-35" d="M 691 4666 
L 3169 4666 
L 3169 4134 
L 1269 4134 
L 1269 2991 
Q 1406 3038 1543 3061 
Q 1681 3084 1819 3084 
Q 2600 3084 3056 2656 
Q 3513 2228 3513 1497 
Q 3513 744 3044 326 
Q 2575 -91 1722 -91 
Q 1428 -91 1123 -41 
Q 819 9 494 109 
L 494 744 
Q 775 591 1075 516 
Q 1375 441 1709 441 
Q 2250 441 2565 725 
Q 2881 1009 2881 1497 
Q 2881 1984 2565 2268 
Q 2250 2553 1709 2553 
Q 1456 2553 1204 2497 
Q 953 2441 691 2322 
L 691 4666 
z
" transform="scale(0.015625)"/>
       </defs>
       <use xlink:href="#DejaVuSans-31"/>
       <use xlink:href="#DejaVuSans-35" x="63.623047"/>
       <use xlink:href="#DejaVuSans-2e" x="127.246094"/>
       <use xlink:href="#DejaVuSans-30" x="159.033203"/>
      </g>
     </g>
    </g>
    <g id="xtick_7">
     <g id="line2d_7">
      <g>
       <use xlink:href="#m87783321c3" x="219.927273" y="307.584" style="stroke: #000000; stroke-width: 0.8"/>
      </g>
     </g>
     <g id="text_7">
      <!-- 18.0 -->
      <g transform="translate(208.79446 322.182437)scale(0.1 -0.1)">
       <defs>
        <path id="DejaVuSans-38" d="M 2034 2216 
Q 1584 2216 1326 1975 
Q 1069 1734 1069 1313 
Q 1069 891 1326 650 
Q 1584 409 2034 409 
Q 2484 409 2743 651 
Q 3003 894 3003 1313 
Q 3003 1734 2745 1975 
Q 2488 2216 2034 2216 
z
M 1403 2484 
Q 997 2584 770 2862 
Q 544 3141 544 3541 
Q 544 4100 942 4425 
Q 1341 4750 2034 4750 
Q 2731 4750 3128 4425 
Q 3525 4100 3525 3541 
Q 3525 3141 3298 2862 
Q 3072 2584 2669 2484 
Q 3125 2378 3379 2068 
Q 3634 1759 3634 1313 
Q 3634 634 3220 271 
Q 2806 -91 2034 -91 
Q 1263 -91 848 271 
Q 434 634 434 1313 
Q 434 1759 690 2068 
Q 947 2378 1403 2484 
z
M 1172 3481 
Q 1172 3119 1398 2916 
Q 1625 2713 2034 2713 
Q 2441 2713 2670 2916 
Q 2900 3119 2900 3481 
Q 2900 3844 2670 4047 
Q 2441 4250 2034 4250 
Q 1625 4250 1398 4047 
Q 1172 3844 1172 3481 
z
" transform="scale(0.015625)"/>
       </defs>
       <use xlink:href="#DejaVuSans-31"/>
       <use xlink:href="#DejaVuSans-38" x="63.623047"/>
       <use xlink:href="#DejaVuSans-2e" x="127.246094"/>
       <use xlink:href="#DejaVuSans-30" x="159.033203"/>
      </g>
     </g>
    </g>
    <g id="xtick_8">
     <g id="line2d_8">
      <g>
       <use xlink:href="#m87783321c3" x="244.276364" y="307.584" style="stroke: #000000; stroke-width: 0.8"/>
      </g>
     </g>
     <g id="text_8">
      <!-- 21.0 -->
      <g transform="translate(233.143551 322.182437)scale(0.1 -0.1)">
       <use xlink:href="#DejaVuSans-32"/>
       <use xlink:href="#DejaVuSans-31" x="63.623047"/>
       <use xlink:href="#DejaVuSans-2e" x="127.246094"/>
       <use xlink:href="#DejaVuSans-30" x="159.033203"/>
      </g>
     </g>
    </g>
    <g id="xtick_9">
     <g id="line2d_9">
      <g>
       <use xlink:href="#m87783321c3" x="268.625455" y="307.584" style="stroke: #000000; stroke-width: 0.8"/>
      </g>
     </g>
     <g id="text_9">
      <!-- 24.0 -->
      <g transform="translate(257.492642 322.182437)scale(0.1 -0.1)">
       <defs>
        <path id="DejaVuSans-34" d="M 2419 4116 
L 825 1625 
L 2419 1625 
L 2419 4116 
z
M 2253 4666 
L 3047 4666 
L 3047 1625 
L 3713 1625 
L 3713 1100 
L 3047 1100 
L 3047 0 
L 2419 0 
L 2419 1100 
L 313 1100 
L 313 1709 
L 2253 4666 
z
" transform="scale(0.015625)"/>
       </defs>
       <use xlink:href="#DejaVuSans-32"/>
       <use xlink:href="#DejaVuSans-34" x="63.623047"/>
       <use xlink:href="#DejaVuSans-2e" x="127.246094"/>
       <use xlink:href="#DejaVuSans-30" x="159.033203"/>
      </g>
     </g>
    </g>
    <g id="xtick_10">
     <g id="line2d_10">
      <g>
       <use xlink:href="#m87783321c3" x="292.974545" y="307.584" style="stroke: #000000; stroke-width: 0.8"/>
      </g>
     </g>
     <g id="text_10">
      <!-- 27.0 -->
      <g transform="translate(281.841733 322.182437)scale(0.1 -0.1)">
       <defs>
        <path id="DejaVuSans-37" d="M 525 4666 
L 3525 4666 
L 3525 4397 
L 1831 0 
L 1172 0 
L 2766 4134 
L 525 4134 
L 525 4666 
z
" transform="scale(0.015625)"/>
       </defs>
       <use xlink:href="#DejaVuSans-32"/>
       <use xlink:href="#DejaVuSans-37" x="63.623047"/>
       <use xlink:href="#DejaVuSans-2e" x="127.246094"/>
       <use xlink:href="#DejaVuSans-30" x="159.033203"/>
      </g>
     </g>
    </g>
    <g id="xtick_11">
     <g id="line2d_11">
      <g>
       <use xlink:href="#m87783321c3" x="317.323636" y="307.584" style="stroke: #000000; stroke-width: 0.8"/>
      </g>
     </g>
     <g id="text_11">
      <!-- 30.0 -->
      <g transform="translate(306.190824 322.182437)scale(0.1 -0.1)">
       <use xlink:href="#DejaVuSans-33"/>
       <use xlink:href="#DejaVuSans-30" x="63.623047"/>
       <use xlink:href="#DejaVuSans-2e" x="127.246094"/>
       <use xlink:href="#DejaVuSans-30" x="159.033203"/>
      </g>
     </g>
    </g>
    <g id="xtick_12">
     <g id="line2d_12">
      <g>
       <use xlink:href="#m87783321c3" x="341.672727" y="307.584" style="stroke: #000000; stroke-width: 0.8"/>
      </g>
     </g>
     <g id="text_12">
      <!-- 33.0 -->
      <g transform="translate(330.539915 322.182437)scale(0.1 -0.1)">
       <use xlink:href="#DejaVuSans-33"/>
       <use xlink:href="#DejaVuSans-33" x="63.623047"/>
       <use xlink:href="#DejaVuSans-2e" x="127.246094"/>
       <use xlink:href="#DejaVuSans-30" x="159.033203"/>
      </g>
     </g>
    </g>
    <g id="xtick_13">
     <g id="line2d_13">
      <g>
       <use xlink:href="#m87783321c3" x="366.021818" y="307.584" style="stroke: #000000; stroke-width: 0.8"/>
      </g>
     </g>
     <g id="text_13">
      <!-- 36.0 -->
      <g transform="translate(354.889006 322.182437)scale(0.1 -0.1)">
       <use xlink:href="#DejaVuSans-33"/>
       <use xlink:href="#DejaVuSans-36" x="63.623047"/>
       <use xlink:href="#DejaVuSans-2e" x="127.246094"/>
       <use xlink:href="#DejaVuSans-30" x="159.033203"/>
      </g>
     </g>
    </g>
    <g id="xtick_14">
     <g id="line2d_14">
      <g>
       <use xlink:href="#m87783321c3" x="390.370909" y="307.584" style="stroke: #000000; stroke-width: 0.8"/>
      </g>
     </g>
     <g id="text_14">
      <!-- 39.0 -->
      <g transform="translate(379.238097 322.182437)scale(0.1 -0.1)">
       <use xlink:href="#DejaVuSans-33"/>
       <use xlink:href="#DejaVuSans-39" x="63.623047"/>
       <use xlink:href="#DejaVuSans-2e" x="127.246094"/>
       <use xlink:href="#DejaVuSans-30" x="159.033203"/>
      </g>
     </g>
    </g>
    <g id="text_15">
     <!-- time(s) -->
     <g transform="translate(218.357656 335.860562)scale(0.1 -0.1)">
      <defs>
       <path id="DejaVuSans-74" d="M 1172 4494 
L 1172 3500 
L 2356 3500 
L 2356 3053 
L 1172 3053 
L 1172 1153 
Q 1172 725 1289 603 
Q 1406 481 1766 481 
L 2356 481 
L 2356 0 
L 1766 0 
Q 1100 0 847 248 
Q 594 497 594 1153 
L 594 3053 
L 172 3053 
L 172 3500 
L 594 3500 
L 594 4494 
L 1172 4494 
z
" transform="scale(0.015625)"/>
       <path id="DejaVuSans-69" d="M 603 3500 
L 1178 3500 
L 1178 0 
L 603 0 
L 603 3500 
z
M 603 4863 
L 1178 4863 
L 1178 4134 
L 603 4134 
L 603 4863 
z
" transform="scale(0.015625)"/>
       <path id="DejaVuSans-6d" d="M 3328 2828 
Q 3544 3216 3844 3400 
Q 4144 3584 4550 3584 
Q 5097 3584 5394 3201 
Q 5691 2819 5691 2113 
L 5691 0 
L 5113 0 
L 5113 2094 
Q 5113 2597 4934 2840 
Q 4756 3084 4391 3084 
Q 3944 3084 3684 2787 
Q 3425 2491 3425 1978 
L 3425 0 
L 2847 0 
L 2847 2094 
Q 2847 2600 2669 2842 
Q 2491 3084 2119 3084 
Q 1678 3084 1418 2786 
Q 1159 2488 1159 1978 
L 1159 0 
L 581 0 
L 581 3500 
L 1159 3500 
L 1159 2956 
Q 1356 3278 1631 3431 
Q 1906 3584 2284 3584 
Q 2666 3584 2933 3390 
Q 3200 3197 3328 2828 
z
" transform="scale(0.015625)"/>
       <path id="DejaVuSans-65" d="M 3597 1894 
L 3597 1613 
L 953 1613 
Q 991 1019 1311 708 
Q 1631 397 2203 397 
Q 2534 397 2845 478 
Q 3156 559 3463 722 
L 3463 178 
Q 3153 47 2828 -22 
Q 2503 -91 2169 -91 
Q 1331 -91 842 396 
Q 353 884 353 1716 
Q 353 2575 817 3079 
Q 1281 3584 2069 3584 
Q 2775 3584 3186 3129 
Q 3597 2675 3597 1894 
z
M 3022 2063 
Q 3016 2534 2758 2815 
Q 2500 3097 2075 3097 
Q 1594 3097 1305 2825 
Q 1016 2553 972 2059 
L 3022 2063 
z
" transform="scale(0.015625)"/>
       <path id="DejaVuSans-28" d="M 1984 4856 
Q 1566 4138 1362 3434 
Q 1159 2731 1159 2009 
Q 1159 1288 1364 580 
Q 1569 -128 1984 -844 
L 1484 -844 
Q 1016 -109 783 600 
Q 550 1309 550 2009 
Q 550 2706 781 3412 
Q 1013 4119 1484 4856 
L 1984 4856 
z
" transform="scale(0.015625)"/>
       <path id="DejaVuSans-73" d="M 2834 3397 
L 2834 2853 
Q 2591 2978 2328 3040 
Q 2066 3103 1784 3103 
Q 1356 3103 1142 2972 
Q 928 2841 928 2578 
Q 928 2378 1081 2264 
Q 1234 2150 1697 2047 
L 1894 2003 
Q 2506 1872 2764 1633 
Q 3022 1394 3022 966 
Q 3022 478 2636 193 
Q 2250 -91 1575 -91 
Q 1294 -91 989 -36 
Q 684 19 347 128 
L 347 722 
Q 666 556 975 473 
Q 1284 391 1588 391 
Q 1994 391 2212 530 
Q 2431 669 2431 922 
Q 2431 1156 2273 1281 
Q 2116 1406 1581 1522 
L 1381 1569 
Q 847 1681 609 1914 
Q 372 2147 372 2553 
Q 372 3047 722 3315 
Q 1072 3584 1716 3584 
Q 2034 3584 2315 3537 
Q 2597 3491 2834 3397 
z
" transform="scale(0.015625)"/>
       <path id="DejaVuSans-29" d="M 513 4856 
L 1013 4856 
Q 1481 4119 1714 3412 
Q 1947 2706 1947 2009 
Q 1947 1309 1714 600 
Q 1481 -109 1013 -844 
L 513 -844 
Q 928 -128 1133 580 
Q 1338 1288 1338 2009 
Q 1338 2731 1133 3434 
Q 928 4138 513 4856 
z
" transform="scale(0.015625)"/>
      </defs>
      <use xlink:href="#DejaVuSans-74"/>
      <use xlink:href="#DejaVuSans-69" x="39.208984"/>
      <use xlink:href="#DejaVuSans-6d" x="66.992188"/>
      <use xlink:href="#DejaVuSans-65" x="164.404297"/>
      <use xlink:href="#DejaVuSans-28" x="225.927734"/>
      <use xlink:href="#DejaVuSans-73" x="264.941406"/>
      <use xlink:href="#DejaVuSans-29" x="317.041016"/>
     </g>
    </g>
   </g>
   <g id="matplotlib.axis_2">
    <g id="ytick_1">
     <g id="line2d_15">
      <defs>
       <path id="m824187b048" d="M 0 0 
L -3.5 0 
" style="stroke: #000000; stroke-width: 0.8"/>
      </defs>
      <g>
       <use xlink:href="#m824187b048" x="57.6" y="288.541259" style="stroke: #000000; stroke-width: 0.8"/>
      </g>
     </g>
     <g id="text_16">
      <!-- −1.0 -->
      <g transform="translate(26.317187 292.340478)scale(0.1 -0.1)">
       <defs>
        <path id="DejaVuSans-2212" d="M 678 2272 
L 4684 2272 
L 4684 1741 
L 678 1741 
L 678 2272 
z
" transform="scale(0.015625)"/>
       </defs>
       <use xlink:href="#DejaVuSans-2212"/>
       <use xlink:href="#DejaVuSans-31" x="83.789062"/>
       <use xlink:href="#DejaVuSans-2e" x="147.412109"/>
       <use xlink:href="#DejaVuSans-30" x="179.199219"/>
      </g>
     </g>
    </g>
    <g id="ytick_2">
     <g id="line2d_16">
      <g>
       <use xlink:href="#m824187b048" x="57.6" y="229.77072" style="stroke: #000000; stroke-width: 0.8"/>
      </g>
     </g>
     <g id="text_17">
      <!-- −0.5 -->
      <g transform="translate(26.317187 233.569939)scale(0.1 -0.1)">
       <use xlink:href="#DejaVuSans-2212"/>
       <use xlink:href="#DejaVuSans-30" x="83.789062"/>
       <use xlink:href="#DejaVuSans-2e" x="147.412109"/>
       <use xlink:href="#DejaVuSans-35" x="179.199219"/>
      </g>
     </g>
    </g>
    <g id="ytick_3">
     <g id="line2d_17">
      <g>
       <use xlink:href="#m824187b048" x="57.6" y="171.000181" style="stroke: #000000; stroke-width: 0.8"/>
      </g>
     </g>
     <g id="text_18">
      <!-- 0.0 -->
      <g transform="translate(34.696875 174.7994)scale(0.1 -0.1)">
       <use xlink:href="#DejaVuSans-30"/>
       <use xlink:href="#DejaVuSans-2e" x="63.623047"/>
       <use xlink:href="#DejaVuSans-30" x="95.410156"/>
      </g>
     </g>
    </g>
    <g id="ytick_4">
     <g id="line2d_18">
      <g>
       <use xlink:href="#m824187b048" x="57.6" y="112.229642" style="stroke: #000000; stroke-width: 0.8"/>
      </g>
     </g>
     <g id="text_19">
      <!-- 0.5 -->
      <g transform="translate(34.696875 116.028861)scale(0.1 -0.1)">
       <use xlink:href="#DejaVuSans-30"/>
       <use xlink:href="#DejaVuSans-2e" x="63.623047"/>
       <use xlink:href="#DejaVuSans-35" x="95.410156"/>
      </g>
     </g>
    </g>
    <g id="ytick_5">
     <g id="line2d_19">
      <g>
       <use xlink:href="#m824187b048" x="57.6" y="53.459103" style="stroke: #000000; stroke-width: 0.8"/>
      </g>
     </g>
     <g id="text_20">
      <!-- 1.0 -->
      <g transform="translate(34.696875 57.258322)scale(0.1 -0.1)">
       <use xlink:href="#DejaVuSans-31"/>
       <use xlink:href="#DejaVuSans-2e" x="63.623047"/>
       <use xlink:href="#DejaVuSans-30" x="95.410156"/>
      </g>
     </g>
    </g>
    <g id="text_21">
     <!-- $|e_{ri}|$ -->
     <g transform="translate(19.917187 183.528)rotate(-90)scale(0.1 -0.1)">
      <defs>
       <path id="DejaVuSans-7c" d="M 1344 4891 
L 1344 -1509 
L 813 -1509 
L 813 4891 
L 1344 4891 
z
" transform="scale(0.015625)"/>
       <path id="DejaVuSans-Oblique-65" d="M 3078 2063 
Q 3088 2113 3092 2166 
Q 3097 2219 3097 2272 
Q 3097 2653 2873 2875 
Q 2650 3097 2266 3097 
Q 1838 3097 1509 2826 
Q 1181 2556 1013 2059 
L 3078 2063 
z
M 3578 1613 
L 903 1613 
Q 884 1494 878 1425 
Q 872 1356 872 1306 
Q 872 872 1139 634 
Q 1406 397 1894 397 
Q 2269 397 2603 481 
Q 2938 566 3225 728 
L 3116 159 
Q 2806 34 2476 -28 
Q 2147 -91 1806 -91 
Q 1078 -91 686 257 
Q 294 606 294 1247 
Q 294 1794 489 2264 
Q 684 2734 1063 3103 
Q 1306 3334 1642 3459 
Q 1978 3584 2356 3584 
Q 2950 3584 3301 3228 
Q 3653 2872 3653 2272 
Q 3653 2128 3634 1964 
Q 3616 1800 3578 1613 
z
" transform="scale(0.015625)"/>
       <path id="DejaVuSans-Oblique-72" d="M 2853 2969 
Q 2766 3016 2653 3041 
Q 2541 3066 2413 3066 
Q 1953 3066 1609 2717 
Q 1266 2369 1153 1784 
L 800 0 
L 225 0 
L 909 3500 
L 1484 3500 
L 1375 2956 
Q 1603 3259 1920 3421 
Q 2238 3584 2597 3584 
Q 2691 3584 2781 3573 
Q 2872 3563 2963 3538 
L 2853 2969 
z
" transform="scale(0.015625)"/>
       <path id="DejaVuSans-Oblique-69" d="M 1172 4863 
L 1747 4863 
L 1606 4134 
L 1031 4134 
L 1172 4863 
z
M 909 3500 
L 1484 3500 
L 800 0 
L 225 0 
L 909 3500 
z
" transform="scale(0.015625)"/>
      </defs>
      <use xlink:href="#DejaVuSans-7c" transform="translate(0 0.578125)"/>
      <use xlink:href="#DejaVuSans-Oblique-65" transform="translate(33.691406 0.578125)"/>
      <use xlink:href="#DejaVuSans-Oblique-72" transform="translate(95.214844 -15.828125)scale(0.7)"/>
      <use xlink:href="#DejaVuSans-Oblique-69" transform="translate(123.994141 -15.828125)scale(0.7)"/>
      <use xlink:href="#DejaVuSans-7c" transform="translate(146.176758 0.578125)"/>
     </g>
    </g>
   </g>
   <g id="line2d_20">
    <path d="M 73.832727 171.000181 
L 74.644364 175.864256 
L 75.456 175.274681 
L 77.079273 173.261822 
L 77.890909 172.479068 
L 78.702545 171.852311 
L 79.514182 171.378435 
L 80.325818 171.052565 
L 81.137455 170.868201 
L 81.949091 170.817256 
L 82.760727 170.890156 
L 84.384 171.362288 
L 86.007273 172.1823 
L 88.442182 173.806052 
L 91.688727 176.05599 
L 93.312 176.960473 
L 94.935273 177.596862 
L 96.558545 177.904512 
L 98.181818 177.850188 
L 99.805091 177.428275 
L 101.428364 176.658997 
L 103.051636 175.58505 
L 104.674909 174.266906 
L 107.109818 171.992522 
L 111.979636 167.334995 
L 114.414545 165.408165 
L 116.037818 164.381066 
L 117.661091 163.588161 
L 119.284364 163.037853 
L 120.907636 162.726135 
L 122.530909 162.638814 
L 124.154182 162.754014 
L 125.777455 163.044801 
L 128.212364 163.745383 
L 131.458909 165.018845 
L 137.140364 167.628651 
L 142.821818 170.137416 
L 146.88 171.678524 
L 150.938182 172.956102 
L 154.184727 173.772988 
L 157.431273 174.395907 
L 160.677818 174.811521 
L 163.924364 175.00385 
L 167.170909 174.95665 
L 170.417455 174.657781 
L 173.664 174.105049 
L 176.910545 173.312592 
L 180.968727 172.042007 
L 193.954909 167.632171 
L 196.389818 167.124248 
L 198.824727 166.823447 
L 201.259636 166.759489 
L 203.694545 166.950539 
L 206.129455 167.401874 
L 208.564364 168.105503 
L 210.999273 169.040763 
L 214.245818 170.591427 
L 218.304 172.872107 
L 227.232 178.085224 
L 230.478545 179.65001 
L 232.913455 180.596571 
L 235.348364 181.307452 
L 236.16 171.000181 
L 398.487273 171.000181 
L 398.487273 171.000181 
" clip-path="url(#p8c334edf69)" style="fill: none; stroke: #1f77b4; stroke-width: 1.5; stroke-linecap: square"/>
   </g>
   <g id="line2d_21">
    <path d="M 73.832727 171.000181 
L 74.644364 173.412177 
L 76.267636 181.235389 
L 77.079273 180.406491 
L 77.890909 181.129023 
L 78.702545 179.303772 
L 79.514182 179.049236 
L 80.325818 177.037367 
L 81.137455 176.119892 
L 81.949091 174.109513 
L 82.760727 172.805498 
L 83.572364 170.938937 
L 86.818909 165.51451 
L 88.442182 163.867996 
L 89.253818 163.389687 
L 90.065455 163.116452 
L 90.877091 163.074897 
L 91.688727 163.229841 
L 92.500364 163.573068 
L 93.312 164.074531 
L 94.935273 165.457419 
L 97.370182 168.09816 
L 101.428364 172.686878 
L 103.051636 174.242284 
L 104.674909 175.476885 
L 106.298182 176.285048 
L 107.109818 176.499264 
L 107.921455 176.573718 
L 108.733091 176.501432 
L 109.544727 176.278114 
L 110.356364 175.903251 
L 111.168 175.380307 
L 112.791273 173.927361 
L 114.414545 172.039234 
L 120.096 164.812508 
L 121.719273 163.356402 
L 123.342545 162.391352 
L 124.154182 162.102073 
L 124.965818 161.939142 
L 125.777455 161.896704 
L 127.400727 162.13809 
L 129.024 162.739154 
L 130.647273 163.599206 
L 133.082182 165.161727 
L 137.952 168.363212 
L 140.386909 169.710939 
L 142.821818 170.806226 
L 145.256727 171.635819 
L 147.691636 172.209321 
L 150.126545 172.554247 
L 153.373091 172.737207 
L 166.359273 173.005194 
L 171.229091 173.24302 
L 174.475636 173.178297 
L 177.722182 172.881671 
L 181.780364 172.237389 
L 186.650182 171.175096 
L 194.766545 169.288477 
L 198.013091 168.766856 
L 201.259636 168.457626 
L 204.506182 168.391252 
L 206.941091 168.533006 
L 209.376 168.865749 
L 211.810909 169.39922 
L 215.057455 170.397306 
L 219.115636 171.9755 
L 228.043636 175.645955 
L 231.290182 176.700828 
L 233.725091 177.296293 
L 235.348364 177.580441 
L 236.16 187.515731 
L 236.971636 185.881744 
L 237.783273 185.287505 
L 239.406545 184.648912 
L 240.218182 184.173128 
L 241.029818 183.526794 
L 242.653091 181.749126 
L 244.276364 179.453958 
L 246.711273 175.449723 
L 249.957818 170.013296 
L 251.581091 167.594229 
L 253.204364 165.520967 
L 254.827636 163.860963 
L 256.450909 162.647487 
L 258.074182 161.880707 
L 259.697455 161.530206 
L 261.320727 161.539283 
L 262.944 161.831412 
L 265.378909 162.6071 
L 270.248727 164.350943 
L 272.683636 164.945189 
L 275.118545 165.285705 
L 278.365091 165.471877 
L 282.423273 165.677178 
L 284.858182 165.970543 
L 287.293091 166.448605 
L 290.539636 167.345765 
L 296.221091 169.263834 
L 301.090909 170.797881 
L 305.149091 171.80639 
L 309.207273 172.541287 
L 313.265455 173.028889 
L 317.323636 173.306329 
L 322.193455 173.400492 
L 327.063273 173.247323 
L 331.121455 172.91911 
L 335.179636 172.396154 
L 340.049455 171.527988 
L 353.035636 168.938733 
L 356.282182 168.608605 
L 358.717091 168.54074 
L 361.152 168.652823 
L 363.586909 168.957826 
L 366.021818 169.457113 
L 369.268364 170.403817 
L 372.514909 171.613799 
L 377.384727 173.70899 
L 382.254545 175.773215 
L 385.501091 176.920383 
L 387.936 177.580349 
L 390.370909 178.027475 
L 392.805818 178.236356 
L 395.240727 178.193676 
L 397.675636 177.89867 
L 398.487273 177.745924 
L 398.487273 177.745924 
" clip-path="url(#p8c334edf69)" style="fill: none; stroke: #ff7f0e; stroke-width: 1.5; stroke-linecap: square"/>
   </g>
   <g id="line2d_22">
    <path d="M 73.832727 171.000181 
L 74.644364 169.725706 
L 75.456 176.275484 
L 76.267636 176.322171 
L 77.079273 177.385346 
L 77.890909 175.501916 
L 78.702545 175.892636 
L 79.514182 174.381234 
L 80.325818 174.595356 
L 81.137455 173.554497 
L 81.949091 173.59393 
L 82.760727 172.848436 
L 83.572364 172.683472 
L 84.384 172.048694 
L 85.195636 171.674263 
L 90.065455 167.905414 
L 91.688727 166.91787 
L 92.500364 166.600652 
L 93.312 166.436003 
L 94.123636 166.436309 
L 94.935273 166.611722 
L 95.746909 166.960346 
L 96.558545 167.472785 
L 98.181818 168.905373 
L 103.051636 174.037537 
L 103.863273 174.642088 
L 104.674909 175.103512 
L 105.486545 175.408939 
L 106.298182 175.552797 
L 107.109818 175.536148 
L 107.921455 175.366593 
L 108.733091 175.056861 
L 110.356364 174.089272 
L 111.979636 172.800124 
L 117.661091 167.972575 
L 119.284364 166.887161 
L 120.907636 165.999496 
L 122.530909 165.315488 
L 124.154182 164.834986 
L 125.777455 164.554538 
L 127.400727 164.466775 
L 129.024 164.557943 
L 131.458909 164.979366 
L 134.705455 165.895963 
L 141.198545 167.874186 
L 144.445091 168.57939 
L 147.691636 169.06456 
L 160.677818 170.691956 
L 174.475636 172.928725 
L 178.533818 173.348266 
L 182.592 173.515029 
L 187.461818 173.441949 
L 193.143273 173.117537 
L 206.941091 172.10025 
L 210.999273 172.182627 
L 215.057455 172.492398 
L 219.115636 173.028668 
L 223.985455 173.908614 
L 231.290182 175.228012 
L 234.536727 175.605081 
L 235.348364 175.66758 
L 236.16 172.358584 
L 236.971636 175.236175 
L 237.783273 176.918274 
L 238.594909 176.510999 
L 239.406545 177.563655 
L 240.218182 177.897996 
L 241.029818 179.006216 
L 241.841455 179.876381 
L 243.464727 182.082702 
L 244.276364 183.152821 
L 245.899636 184.727953 
L 246.711273 185.154979 
L 247.522909 185.348154 
L 248.334545 185.186902 
L 249.146182 184.740783 
L 249.957818 183.924166 
L 250.769455 182.830422 
L 252.392727 179.755454 
L 254.016 175.855604 
L 257.262545 167.513333 
L 258.885818 164.015724 
L 259.697455 162.58182 
L 260.509091 161.434003 
L 261.320727 160.541278 
L 262.132364 159.94995 
L 262.944 159.633011 
L 263.755636 159.599135 
L 264.567273 159.817389 
L 265.378909 160.267095 
L 266.190545 160.907875 
L 267.813818 162.593643 
L 271.060364 166.277649 
L 272.683636 167.681996 
L 274.306909 168.605718 
L 275.930182 169.063599 
L 277.553455 169.15162 
L 279.176727 169.000506 
L 288.916364 167.583885 
L 294.597818 167.053097 
L 297.844364 166.951806 
L 300.279273 167.05532 
L 302.714182 167.332179 
L 305.960727 167.939387 
L 314.888727 169.883813 
L 318.135273 170.283396 
L 327.063273 171.194923 
L 336.802909 172.695961 
L 340.861091 172.871807 
L 351.412364 173.040721 
L 355.470545 172.757901 
L 360.340364 172.394028 
L 363.586909 172.407604 
L 367.645091 172.68897 
L 376.573091 173.58189 
L 380.631273 174.250023 
L 389.559273 175.940753 
L 392.805818 176.226844 
L 396.052364 176.227688 
L 398.487273 176.046535 
L 398.487273 176.046535 
" clip-path="url(#p8c334edf69)" style="fill: none; stroke: #2ca02c; stroke-width: 1.5; stroke-linecap: square"/>
   </g>
   <g id="line2d_23">
    <path d="M 73.832727 171.000181 
L 74.644364 166.957496 
L 75.456 173.162043 
L 76.267636 174.992282 
L 77.079273 174.089246 
L 77.890909 175.484328 
L 78.702545 173.374717 
L 79.514182 174.52442 
L 80.325818 172.547406 
L 81.137455 173.152919 
L 81.949091 171.611342 
L 82.760727 171.749565 
L 83.572364 170.651723 
L 84.384 170.534541 
L 85.195636 169.817655 
L 86.007273 169.639653 
L 86.818909 169.230217 
L 89.253818 168.90819 
L 90.877091 168.942205 
L 94.123636 169.302842 
L 97.370182 169.778779 
L 99.805091 170.395262 
L 102.24 171.372175 
L 105.486545 172.835075 
L 107.109818 173.304985 
L 108.733091 173.4044 
L 109.544727 173.287251 
L 111.168 172.712296 
L 112.791273 171.746723 
L 118.472727 167.724382 
L 120.096 167.04588 
L 121.719273 166.693974 
L 123.342545 166.625457 
L 125.777455 166.8728 
L 137.952 168.941912 
L 149.314909 171.313785 
L 153.373091 171.758227 
L 159.866182 172.428548 
L 171.229091 173.919845 
L 176.910545 174.16207 
L 183.403636 174.310282 
L 186.650182 174.132037 
L 190.708364 173.623917 
L 197.201455 172.803 
L 210.187636 171.48221 
L 213.434182 171.573345 
L 216.680727 171.894894 
L 222.362182 172.736132 
L 233.725091 174.513213 
L 235.348364 174.658444 
L 236.16 171.000181 
L 398.487273 171.000181 
L 398.487273 171.000181 
" clip-path="url(#p8c334edf69)" style="fill: none; stroke: #d62728; stroke-width: 1.5; stroke-linecap: square"/>
   </g>
   <g id="line2d_24">
    <path d="M 73.832727 171.000181 
L 74.644364 167.658545 
L 75.456 171.297239 
L 76.267636 175.490762 
L 77.079273 175.034424 
L 77.890909 174.09418 
L 78.702545 175.076837 
L 79.514182 172.578315 
L 80.325818 173.710725 
L 81.137455 171.256229 
L 81.949091 171.832756 
L 82.760727 169.92092 
L 83.572364 169.963668 
L 84.384 168.6299 
L 85.195636 168.40534 
L 86.007273 167.573436 
L 86.818909 167.345982 
L 87.630545 166.941977 
L 89.253818 166.844337 
L 90.877091 167.27076 
L 92.500364 168.097163 
L 96.558545 170.580624 
L 98.181818 171.271721 
L 99.805091 171.67408 
L 101.428364 171.830336 
L 110.356364 171.934435 
L 111.979636 171.781069 
L 113.602909 171.363113 
L 115.226182 170.642279 
L 116.849455 169.662439 
L 120.907636 166.938137 
L 122.530909 166.132285 
L 124.154182 165.645381 
L 125.777455 165.500119 
L 127.400727 165.657955 
L 129.024 166.036208 
L 136.328727 168.127301 
L 139.575273 168.65467 
L 146.88 169.671519 
L 150.938182 170.509216 
L 155.808 171.53662 
L 159.054545 171.954568 
L 163.112727 172.145785 
L 166.359273 172.320373 
L 169.605818 172.750161 
L 174.475636 173.538821 
L 176.910545 173.671021 
L 179.345455 173.56555 
L 184.215273 173.226238 
L 187.461818 173.278332 
L 190.708364 173.320558 
L 193.143273 173.1134 
L 196.389818 172.537954 
L 199.636364 172.006042 
L 202.071273 171.825574 
L 210.999273 171.479354 
L 215.057455 171.220693 
L 217.492364 171.262824 
L 220.738909 171.561612 
L 229.666909 172.570207 
L 235.348364 173.098407 
L 236.16 167.99394 
L 236.971636 173.976281 
L 237.783273 174.569553 
L 238.594909 175.909094 
L 239.406545 176.049865 
L 240.218182 176.849056 
L 241.029818 177.324691 
L 242.653091 178.72304 
L 243.464727 179.422909 
L 245.088 180.450747 
L 245.899636 180.741428 
L 246.711273 180.897685 
L 247.522909 180.838708 
L 248.334545 180.620838 
L 249.146182 180.195611 
L 249.957818 179.62803 
L 251.581091 178.046518 
L 254.016 174.976866 
L 258.074182 169.620621 
L 259.697455 167.786607 
L 261.320727 166.280694 
L 262.944 165.16178 
L 264.567273 164.455451 
L 266.190545 164.154523 
L 267.813818 164.223929 
L 269.437091 164.607167 
L 271.060364 165.230041 
L 274.306909 166.824506 
L 276.741818 167.937842 
L 278.365091 168.491531 
L 279.988364 168.848969 
L 281.611636 169.009551 
L 284.046545 168.945061 
L 287.293091 168.535551 
L 291.351273 168.011505 
L 294.597818 167.848994 
L 297.844364 167.975091 
L 301.090909 168.346886 
L 305.149091 169.043938 
L 317.323636 171.336493 
L 322.193455 171.934529 
L 329.498182 172.555709 
L 336.802909 172.993295 
L 341.672727 173.068338 
L 346.542545 172.9223 
L 367.645091 171.958706 
L 372.514909 172.050011 
L 377.384727 172.34548 
L 383.877818 172.98167 
L 391.994182 173.760757 
L 396.052364 173.928053 
L 398.487273 173.906187 
L 398.487273 173.906187 
" clip-path="url(#p8c334edf69)" style="fill: none; stroke: #9467bd; stroke-width: 1.5; stroke-linecap: square"/>
   </g>
   <g id="line2d_25">
    <path d="M 73.832727 171.000181 
L 74.644364 172.457673 
L 75.456 175.268227 
L 77.079273 179.946332 
L 77.890909 179.34296 
L 78.702545 178.505023 
L 79.514182 179.136453 
L 80.325818 177.608822 
L 81.137455 178.356819 
L 81.949091 176.854866 
L 82.760727 177.056199 
L 83.572364 175.626899 
L 84.384 175.162553 
L 85.195636 173.727539 
L 86.007273 172.754194 
L 86.818909 171.306547 
L 90.065455 166.396911 
L 90.877091 165.473176 
L 91.688727 164.737676 
L 92.500364 164.255078 
L 93.312 164.026087 
L 94.123636 164.069869 
L 94.935273 164.376393 
L 95.746909 164.933083 
L 96.558545 165.711217 
L 98.181818 167.782226 
L 102.24 173.774005 
L 103.863273 175.597804 
L 104.674909 176.274151 
L 105.486545 176.779966 
L 106.298182 177.115201 
L 107.109818 177.287115 
L 107.921455 177.308878 
L 109.544727 176.976568 
L 111.168 176.286485 
L 113.602909 174.923206 
L 119.284364 171.407655 
L 124.965818 167.768895 
L 126.589091 166.938767 
L 128.212364 166.326013 
L 129.835636 165.975242 
L 131.458909 165.899777 
L 133.082182 166.081303 
L 134.705455 166.475658 
L 137.140364 167.329182 
L 142.010182 169.140294 
L 144.445091 169.750249 
L 146.88 170.092425 
L 154.996364 170.822537 
L 157.431273 171.398314 
L 162.301091 172.708373 
L 164.736 173.091816 
L 167.170909 173.221111 
L 172.040727 173.351447 
L 174.475636 173.723713 
L 177.722182 174.542879 
L 180.157091 175.106739 
L 181.780364 175.327638 
L 184.215273 175.380957 
L 190.708364 175.141209 
L 194.766545 175.503423 
L 197.201455 175.6093 
L 199.636364 175.421063 
L 202.882909 174.813706 
L 206.129455 174.225844 
L 208.564364 173.985781 
L 219.115636 173.300983 
L 222.362182 173.109552 
L 224.797091 173.173969 
L 227.232 173.433322 
L 231.290182 174.139771 
L 235.348364 174.891937 
L 236.16 168.998447 
L 236.971636 174.649016 
L 237.783273 177.87673 
L 238.594909 178.155163 
L 239.406545 179.103307 
L 240.218182 179.714376 
L 242.653091 183.472499 
L 245.088 187.313477 
L 245.899636 188.354486 
L 246.711273 189.152205 
L 247.522909 189.732345 
L 248.334545 190.019169 
L 249.146182 190.042922 
L 249.957818 189.749974 
L 250.769455 189.182904 
L 251.581091 188.303587 
L 252.392727 187.172043 
L 254.016 184.152227 
L 255.639273 180.374033 
L 261.320727 166.00871 
L 262.944 162.899944 
L 263.755636 161.661852 
L 264.567273 160.652096 
L 265.378909 159.884656 
L 266.190545 159.358774 
L 267.002182 159.071998 
L 267.813818 159.013078 
L 268.625455 159.166293 
L 269.437091 159.510202 
L 270.248727 160.019618 
L 271.872 161.420401 
L 274.306909 164.029257 
L 276.741818 166.606258 
L 278.365091 168.045803 
L 279.988364 169.161308 
L 281.611636 169.924989 
L 283.234909 170.351626 
L 284.858182 170.486978 
L 286.481455 170.395881 
L 288.916364 169.992372 
L 294.597818 168.861556 
L 297.032727 168.591535 
L 299.467636 168.511598 
L 301.902545 168.613272 
L 305.149091 168.983954 
L 309.207273 169.701218 
L 319.758545 171.723146 
L 324.628364 172.377069 
L 341.672727 174.19927 
L 346.542545 174.54757 
L 352.224 174.717714 
L 363.586909 174.761136 
L 374.949818 174.844282 
L 379.819636 175.109344 
L 385.501091 175.664908 
L 393.617455 176.499024 
L 396.864 176.614104 
L 398.487273 176.583348 
L 398.487273 176.583348 
" clip-path="url(#p8c334edf69)" style="fill: none; stroke: #8c564b; stroke-width: 1.5; stroke-linecap: square"/>
   </g>
   <g id="patch_3">
    <path d="M 57.6 307.584 
L 57.6 41.472 
" style="fill: none; stroke: #000000; stroke-width: 0.8; stroke-linejoin: miter; stroke-linecap: square"/>
   </g>
   <g id="patch_4">
    <path d="M 414.72 307.584 
L 414.72 41.472 
" style="fill: none; stroke: #000000; stroke-width: 0.8; stroke-linejoin: miter; stroke-linecap: square"/>
   </g>
   <g id="patch_5">
    <path d="M 57.6 307.584 
L 414.72 307.584 
" style="fill: none; stroke: #000000; stroke-width: 0.8; stroke-linejoin: miter; stroke-linecap: square"/>
   </g>
   <g id="patch_6">
    <path d="M 57.6 41.472 
L 414.72 41.472 
" style="fill: none; stroke: #000000; stroke-width: 0.8; stroke-linejoin: miter; stroke-linecap: square"/>
   </g>
   <g id="text_22">
    <!-- node failure -->
    <g transform="translate(154.996364 218.016612)scale(0.1 -0.1)">
     <defs>
      <path id="DejaVuSans-Oblique-6e" d="M 3566 2113 
L 3156 0 
L 2578 0 
L 2988 2091 
Q 3016 2238 3031 2350 
Q 3047 2463 3047 2528 
Q 3047 2791 2881 2937 
Q 2716 3084 2419 3084 
Q 1956 3084 1622 2776 
Q 1288 2469 1184 1941 
L 800 0 
L 225 0 
L 903 3500 
L 1478 3500 
L 1363 2950 
Q 1603 3253 1940 3418 
Q 2278 3584 2650 3584 
Q 3113 3584 3367 3334 
Q 3622 3084 3622 2631 
Q 3622 2519 3608 2391 
Q 3594 2263 3566 2113 
z
" transform="scale(0.015625)"/>
      <path id="DejaVuSans-Oblique-6f" d="M 1625 -91 
Q 1009 -91 651 289 
Q 294 669 294 1325 
Q 294 1706 417 2101 
Q 541 2497 738 2766 
Q 1047 3184 1428 3384 
Q 1809 3584 2291 3584 
Q 2888 3584 3255 3212 
Q 3622 2841 3622 2241 
Q 3622 1825 3500 1412 
Q 3378 1000 3181 728 
Q 2875 309 2494 109 
Q 2113 -91 1625 -91 
z
M 891 1344 
Q 891 869 1089 633 
Q 1288 397 1691 397 
Q 2269 397 2648 901 
Q 3028 1406 3028 2181 
Q 3028 2634 2825 2865 
Q 2622 3097 2228 3097 
Q 1903 3097 1650 2945 
Q 1397 2794 1197 2484 
Q 1050 2253 970 1956 
Q 891 1659 891 1344 
z
" transform="scale(0.015625)"/>
      <path id="DejaVuSans-Oblique-64" d="M 2675 525 
Q 2444 222 2128 65 
Q 1813 -91 1428 -91 
Q 903 -91 598 267 
Q 294 625 294 1247 
Q 294 1766 478 2236 
Q 663 2706 1013 3078 
Q 1244 3325 1534 3454 
Q 1825 3584 2144 3584 
Q 2481 3584 2739 3421 
Q 2997 3259 3138 2956 
L 3513 4863 
L 4091 4863 
L 3144 0 
L 2566 0 
L 2675 525 
z
M 891 1350 
Q 891 897 1095 644 
Q 1300 391 1663 391 
Q 1931 391 2161 520 
Q 2391 650 2566 903 
Q 2750 1166 2856 1509 
Q 2963 1853 2963 2188 
Q 2963 2622 2758 2865 
Q 2553 3109 2194 3109 
Q 1922 3109 1687 2981 
Q 1453 2853 1288 2613 
Q 1106 2353 998 2009 
Q 891 1666 891 1350 
z
" transform="scale(0.015625)"/>
      <path id="DejaVuSans-Oblique-20" transform="scale(0.015625)"/>
      <path id="DejaVuSans-Oblique-66" d="M 3059 4863 
L 2969 4384 
L 2419 4384 
Q 2106 4384 1964 4261 
Q 1822 4138 1753 3809 
L 1691 3500 
L 2638 3500 
L 2553 3053 
L 1606 3053 
L 1013 0 
L 434 0 
L 1031 3053 
L 481 3053 
L 563 3500 
L 1113 3500 
L 1159 3744 
Q 1278 4363 1576 4613 
Q 1875 4863 2516 4863 
L 3059 4863 
z
" transform="scale(0.015625)"/>
      <path id="DejaVuSans-Oblique-61" d="M 3438 1997 
L 3047 0 
L 2472 0 
L 2578 531 
Q 2325 219 2001 64 
Q 1678 -91 1281 -91 
Q 834 -91 548 182 
Q 263 456 263 884 
Q 263 1497 752 1853 
Q 1241 2209 2100 2209 
L 2900 2209 
L 2931 2363 
Q 2938 2388 2941 2417 
Q 2944 2447 2944 2509 
Q 2944 2788 2717 2942 
Q 2491 3097 2081 3097 
Q 1800 3097 1504 3025 
Q 1209 2953 897 2809 
L 997 3341 
Q 1322 3463 1633 3523 
Q 1944 3584 2234 3584 
Q 2853 3584 3176 3315 
Q 3500 3047 3500 2534 
Q 3500 2431 3484 2292 
Q 3469 2153 3438 1997 
z
M 2816 1759 
L 2241 1759 
Q 1534 1759 1195 1570 
Q 856 1381 856 984 
Q 856 709 1029 553 
Q 1203 397 1509 397 
Q 1978 397 2328 733 
Q 2678 1069 2791 1631 
L 2816 1759 
z
" transform="scale(0.015625)"/>
      <path id="DejaVuSans-Oblique-6c" d="M 1172 4863 
L 1747 4863 
L 800 0 
L 225 0 
L 1172 4863 
z
" transform="scale(0.015625)"/>
      <path id="DejaVuSans-Oblique-75" d="M 428 1388 
L 838 3500 
L 1416 3500 
L 1006 1409 
Q 975 1256 961 1147 
Q 947 1038 947 966 
Q 947 700 1109 554 
Q 1272 409 1569 409 
Q 2031 409 2368 721 
Q 2706 1034 2809 1563 
L 3194 3500 
L 3769 3500 
L 3091 0 
L 2516 0 
L 2631 550 
Q 2388 244 2052 76 
Q 1716 -91 1338 -91 
Q 878 -91 622 161 
Q 366 413 366 863 
Q 366 956 381 1097 
Q 397 1238 428 1388 
z
" transform="scale(0.015625)"/>
     </defs>
     <use xlink:href="#DejaVuSans-Oblique-6e"/>
     <use xlink:href="#DejaVuSans-Oblique-6f" x="63.378906"/>
     <use xlink:href="#DejaVuSans-Oblique-64" x="124.560547"/>
     <use xlink:href="#DejaVuSans-Oblique-65" x="188.037109"/>
     <use xlink:href="#DejaVuSans-Oblique-20" x="249.560547"/>
     <use xlink:href="#DejaVuSans-Oblique-66" x="281.347656"/>
     <use xlink:href="#DejaVuSans-Oblique-61" x="316.552734"/>
     <use xlink:href="#DejaVuSans-Oblique-69" x="377.832031"/>
     <use xlink:href="#DejaVuSans-Oblique-6c" x="405.615234"/>
     <use xlink:href="#DejaVuSans-Oblique-75" x="433.398438"/>
     <use xlink:href="#DejaVuSans-Oblique-72" x="496.777344"/>
     <use xlink:href="#DejaVuSans-Oblique-65" x="537.890625"/>
    </g>
   </g>
   <g id="patch_7">
    <path d="M 213.430813 205.089533 
Q 223.986623 197.446078 233.636873 190.458338 
" style="fill: none; stroke: #000000; stroke-linecap: round"/>
    <path d="M 229.224066 191.184381 
L 233.636873 190.458338 
L 231.570024 194.424209 
" style="fill: none; stroke: #000000; stroke-linecap: round"/>
   </g>
   <g id="legend_1">
    <g id="patch_8">
     <path d="M 362.32 137.54075 
L 407.72 137.54075 
Q 409.72 137.54075 409.72 135.54075 
L 409.72 48.472 
Q 409.72 46.472 407.72 46.472 
L 362.32 46.472 
Q 360.32 46.472 360.32 48.472 
L 360.32 135.54075 
Q 360.32 137.54075 362.32 137.54075 
z
" style="fill: #ffffff; opacity: 0.8; stroke: #cccccc; stroke-linejoin: miter"/>
    </g>
    <g id="line2d_26">
     <path d="M 364.32 54.570438 
L 374.32 54.570438 
L 384.32 54.570438 
" style="fill: none; stroke: #1f77b4; stroke-width: 1.5; stroke-linecap: square"/>
    </g>
    <g id="text_23">
     <!-- $M_1$ -->
     <g transform="translate(392.32 58.070438)scale(0.1 -0.1)">
      <defs>
       <path id="DejaVuSans-Oblique-4d" d="M 1081 4666 
L 2028 4666 
L 2572 1522 
L 4378 4666 
L 5350 4666 
L 4441 0 
L 3828 0 
L 4622 4091 
L 2791 897 
L 2175 897 
L 1581 4103 
L 788 0 
L 172 0 
L 1081 4666 
z
" transform="scale(0.015625)"/>
      </defs>
      <use xlink:href="#DejaVuSans-Oblique-4d" transform="translate(0 0.09375)"/>
      <use xlink:href="#DejaVuSans-31" transform="translate(86.279297 -16.3125)scale(0.7)"/>
     </g>
    </g>
    <g id="line2d_27">
     <path d="M 364.32 69.248563 
L 374.32 69.248563 
L 384.32 69.248563 
" style="fill: none; stroke: #ff7f0e; stroke-width: 1.5; stroke-linecap: square"/>
    </g>
    <g id="text_24">
     <!-- $M_2$ -->
     <g transform="translate(392.32 72.748563)scale(0.1 -0.1)">
      <use xlink:href="#DejaVuSans-Oblique-4d" transform="translate(0 0.09375)"/>
      <use xlink:href="#DejaVuSans-32" transform="translate(86.279297 -16.3125)scale(0.7)"/>
     </g>
    </g>
    <g id="line2d_28">
     <path d="M 364.32 83.926688 
L 374.32 83.926688 
L 384.32 83.926688 
" style="fill: none; stroke: #2ca02c; stroke-width: 1.5; stroke-linecap: square"/>
    </g>
    <g id="text_25">
     <!-- $M_3$ -->
     <g transform="translate(392.32 87.426688)scale(0.1 -0.1)">
      <use xlink:href="#DejaVuSans-Oblique-4d" transform="translate(0 0.09375)"/>
      <use xlink:href="#DejaVuSans-33" transform="translate(86.279297 -16.3125)scale(0.7)"/>
     </g>
    </g>
    <g id="line2d_29">
     <path d="M 364.32 98.604813 
L 374.32 98.604813 
L 384.32 98.604813 
" style="fill: none; stroke: #d62728; stroke-width: 1.5; stroke-linecap: square"/>
    </g>
    <g id="text_26">
     <!-- $M_4$ -->
     <g transform="translate(392.32 102.104813)scale(0.1 -0.1)">
      <use xlink:href="#DejaVuSans-Oblique-4d" transform="translate(0 0.09375)"/>
      <use xlink:href="#DejaVuSans-34" transform="translate(86.279297 -16.3125)scale(0.7)"/>
     </g>
    </g>
    <g id="line2d_30">
     <path d="M 364.32 113.282938 
L 374.32 113.282938 
L 384.32 113.282938 
" style="fill: none; stroke: #9467bd; stroke-width: 1.5; stroke-linecap: square"/>
    </g>
    <g id="text_27">
     <!-- $M_5$ -->
     <g transform="translate(392.32 116.782938)scale(0.1 -0.1)">
      <use xlink:href="#DejaVuSans-Oblique-4d" transform="translate(0 0.09375)"/>
      <use xlink:href="#DejaVuSans-35" transform="translate(86.279297 -16.3125)scale(0.7)"/>
     </g>
    </g>
    <g id="line2d_31">
     <path d="M 364.32 127.961063 
L 374.32 127.961063 
L 384.32 127.961063 
" style="fill: none; stroke: #8c564b; stroke-width: 1.5; stroke-linecap: square"/>
    </g>
    <g id="text_28">
     <!-- $M_6$ -->
     <g transform="translate(392.32 131.461063)scale(0.1 -0.1)">
      <use xlink:href="#DejaVuSans-Oblique-4d" transform="translate(0 0.09375)"/>
      <use xlink:href="#DejaVuSans-36" transform="translate(86.279297 -16.3125)scale(0.7)"/>
     </g>
    </g>
   </g>
  </g>
  <g id="axes_2">
   <g id="patch_9">
    <path d="M 241.16 275.9728 
L 355.4384 275.9728 
L 355.4384 212.10592 
L 241.16 212.10592 
z
" style="fill: #ffffff"/>
   </g>
   <g id="matplotlib.axis_3">
    <g id="xtick_15">
     <g id="line2d_32">
      <g>
       <use xlink:href="#m87783321c3" x="246.354473" y="275.9728" style="stroke: #000000; stroke-width: 0.8"/>
      </g>
     </g>
     <g id="text_29">
      <!-- 0.0 -->
      <g transform="translate(238.40291 290.571237)scale(0.1 -0.1)">
       <use xlink:href="#DejaVuSans-30"/>
       <use xlink:href="#DejaVuSans-2e" x="63.623047"/>
       <use xlink:href="#DejaVuSans-30" x="95.410156"/>
      </g>
     </g>
    </g>
    <g id="xtick_16">
     <g id="line2d_33">
      <g>
       <use xlink:href="#m87783321c3" x="254.146182" y="275.9728" style="stroke: #000000; stroke-width: 0.8"/>
      </g>
     </g>
     <g id="text_30">
      <!-- 3.0 -->
      <g transform="translate(246.194619 290.571237)scale(0.1 -0.1)">
       <use xlink:href="#DejaVuSans-33"/>
       <use xlink:href="#DejaVuSans-2e" x="63.623047"/>
       <use xlink:href="#DejaVuSans-30" x="95.410156"/>
      </g>
     </g>
    </g>
    <g id="xtick_17">
     <g id="line2d_34">
      <g>
       <use xlink:href="#m87783321c3" x="261.937891" y="275.9728" style="stroke: #000000; stroke-width: 0.8"/>
      </g>
     </g>
     <g id="text_31">
      <!-- 6.0 -->
      <g transform="translate(253.986328 290.571237)scale(0.1 -0.1)">
       <use xlink:href="#DejaVuSans-36"/>
       <use xlink:href="#DejaVuSans-2e" x="63.623047"/>
       <use xlink:href="#DejaVuSans-30" x="95.410156"/>
      </g>
     </g>
    </g>
    <g id="xtick_18">
     <g id="line2d_35">
      <g>
       <use xlink:href="#m87783321c3" x="269.7296" y="275.9728" style="stroke: #000000; stroke-width: 0.8"/>
      </g>
     </g>
     <g id="text_32">
      <!-- 9.0 -->
      <g transform="translate(261.778037 290.571237)scale(0.1 -0.1)">
       <use xlink:href="#DejaVuSans-39"/>
       <use xlink:href="#DejaVuSans-2e" x="63.623047"/>
       <use xlink:href="#DejaVuSans-30" x="95.410156"/>
      </g>
     </g>
    </g>
    <g id="xtick_19">
     <g id="line2d_36">
      <g>
       <use xlink:href="#m87783321c3" x="277.521309" y="275.9728" style="stroke: #000000; stroke-width: 0.8"/>
      </g>
     </g>
     <g id="text_33">
      <!-- 12.0 -->
      <g transform="translate(266.388497 290.571237)scale(0.1 -0.1)">
       <use xlink:href="#DejaVuSans-31"/>
       <use xlink:href="#DejaVuSans-32" x="63.623047"/>
       <use xlink:href="#DejaVuSans-2e" x="127.246094"/>
       <use xlink:href="#DejaVuSans-30" x="159.033203"/>
      </g>
     </g>
    </g>
    <g id="xtick_20">
     <g id="line2d_37">
      <g>
       <use xlink:href="#m87783321c3" x="285.313018" y="275.9728" style="stroke: #000000; stroke-width: 0.8"/>
      </g>
     </g>
     <g id="text_34">
      <!-- 15.0 -->
      <g transform="translate(274.180206 290.571237)scale(0.1 -0.1)">
       <use xlink:href="#DejaVuSans-31"/>
       <use xlink:href="#DejaVuSans-35" x="63.623047"/>
       <use xlink:href="#DejaVuSans-2e" x="127.246094"/>
       <use xlink:href="#DejaVuSans-30" x="159.033203"/>
      </g>
     </g>
    </g>
    <g id="xtick_21">
     <g id="line2d_38">
      <g>
       <use xlink:href="#m87783321c3" x="293.104727" y="275.9728" style="stroke: #000000; stroke-width: 0.8"/>
      </g>
     </g>
     <g id="text_35">
      <!-- 18.0 -->
      <g transform="translate(281.971915 290.571237)scale(0.1 -0.1)">
       <use xlink:href="#DejaVuSans-31"/>
       <use xlink:href="#DejaVuSans-38" x="63.623047"/>
       <use xlink:href="#DejaVuSans-2e" x="127.246094"/>
       <use xlink:href="#DejaVuSans-30" x="159.033203"/>
      </g>
     </g>
    </g>
    <g id="xtick_22">
     <g id="line2d_39">
      <g>
       <use xlink:href="#m87783321c3" x="300.896436" y="275.9728" style="stroke: #000000; stroke-width: 0.8"/>
      </g>
     </g>
     <g id="text_36">
      <!-- 21.0 -->
      <g transform="translate(289.763624 290.571237)scale(0.1 -0.1)">
       <use xlink:href="#DejaVuSans-32"/>
       <use xlink:href="#DejaVuSans-31" x="63.623047"/>
       <use xlink:href="#DejaVuSans-2e" x="127.246094"/>
       <use xlink:href="#DejaVuSans-30" x="159.033203"/>
      </g>
     </g>
    </g>
    <g id="xtick_23">
     <g id="line2d_40">
      <g>
       <use xlink:href="#m87783321c3" x="308.688145" y="275.9728" style="stroke: #000000; stroke-width: 0.8"/>
      </g>
     </g>
     <g id="text_37">
      <!-- 24.0 -->
      <g transform="translate(297.555333 290.571237)scale(0.1 -0.1)">
       <use xlink:href="#DejaVuSans-32"/>
       <use xlink:href="#DejaVuSans-34" x="63.623047"/>
       <use xlink:href="#DejaVuSans-2e" x="127.246094"/>
       <use xlink:href="#DejaVuSans-30" x="159.033203"/>
      </g>
     </g>
    </g>
    <g id="xtick_24">
     <g id="line2d_41">
      <g>
       <use xlink:href="#m87783321c3" x="316.479855" y="275.9728" style="stroke: #000000; stroke-width: 0.8"/>
      </g>
     </g>
     <g id="text_38">
      <!-- 27.0 -->
      <g transform="translate(305.347042 290.571237)scale(0.1 -0.1)">
       <use xlink:href="#DejaVuSans-32"/>
       <use xlink:href="#DejaVuSans-37" x="63.623047"/>
       <use xlink:href="#DejaVuSans-2e" x="127.246094"/>
       <use xlink:href="#DejaVuSans-30" x="159.033203"/>
      </g>
     </g>
    </g>
    <g id="xtick_25">
     <g id="line2d_42">
      <g>
       <use xlink:href="#m87783321c3" x="324.271564" y="275.9728" style="stroke: #000000; stroke-width: 0.8"/>
      </g>
     </g>
     <g id="text_39">
      <!-- 30.0 -->
      <g transform="translate(313.138751 290.571237)scale(0.1 -0.1)">
       <use xlink:href="#DejaVuSans-33"/>
       <use xlink:href="#DejaVuSans-30" x="63.623047"/>
       <use xlink:href="#DejaVuSans-2e" x="127.246094"/>
       <use xlink:href="#DejaVuSans-30" x="159.033203"/>
      </g>
     </g>
    </g>
    <g id="xtick_26">
     <g id="line2d_43">
      <g>
       <use xlink:href="#m87783321c3" x="332.063273" y="275.9728" style="stroke: #000000; stroke-width: 0.8"/>
      </g>
     </g>
     <g id="text_40">
      <!-- 33.0 -->
      <g transform="translate(320.93046 290.571237)scale(0.1 -0.1)">
       <use xlink:href="#DejaVuSans-33"/>
       <use xlink:href="#DejaVuSans-33" x="63.623047"/>
       <use xlink:href="#DejaVuSans-2e" x="127.246094"/>
       <use xlink:href="#DejaVuSans-30" x="159.033203"/>
      </g>
     </g>
    </g>
    <g id="xtick_27">
     <g id="line2d_44">
      <g>
       <use xlink:href="#m87783321c3" x="339.854982" y="275.9728" style="stroke: #000000; stroke-width: 0.8"/>
      </g>
     </g>
     <g id="text_41">
      <!-- 36.0 -->
      <g transform="translate(328.722169 290.571237)scale(0.1 -0.1)">
       <use xlink:href="#DejaVuSans-33"/>
       <use xlink:href="#DejaVuSans-36" x="63.623047"/>
       <use xlink:href="#DejaVuSans-2e" x="127.246094"/>
       <use xlink:href="#DejaVuSans-30" x="159.033203"/>
      </g>
     </g>
    </g>
    <g id="xtick_28">
     <g id="line2d_45">
      <g>
       <use xlink:href="#m87783321c3" x="347.646691" y="275.9728" style="stroke: #000000; stroke-width: 0.8"/>
      </g>
     </g>
     <g id="text_42">
      <!-- 39.0 -->
      <g transform="translate(336.513878 290.571237)scale(0.1 -0.1)">
       <use xlink:href="#DejaVuSans-33"/>
       <use xlink:href="#DejaVuSans-39" x="63.623047"/>
       <use xlink:href="#DejaVuSans-2e" x="127.246094"/>
       <use xlink:href="#DejaVuSans-30" x="159.033203"/>
      </g>
     </g>
    </g>
    <g id="text_43">
     <!-- time(s) -->
     <g transform="translate(280.496856 304.249362)scale(0.1 -0.1)">
      <use xlink:href="#DejaVuSans-74"/>
      <use xlink:href="#DejaVuSans-69" x="39.208984"/>
      <use xlink:href="#DejaVuSans-6d" x="66.992188"/>
      <use xlink:href="#DejaVuSans-65" x="164.404297"/>
      <use xlink:href="#DejaVuSans-28" x="225.927734"/>
      <use xlink:href="#DejaVuSans-73" x="264.941406"/>
      <use xlink:href="#DejaVuSans-29" x="317.041016"/>
     </g>
    </g>
   </g>
   <g id="matplotlib.axis_4">
    <g id="ytick_6">
     <g id="line2d_46">
      <g>
       <use xlink:href="#m824187b048" x="241.16" y="273.06976" style="stroke: #000000; stroke-width: 0.8"/>
      </g>
     </g>
     <g id="text_44">
      <!-- 0.3 -->
      <g transform="translate(218.256875 276.868979)scale(0.1 -0.1)">
       <use xlink:href="#DejaVuSans-30"/>
       <use xlink:href="#DejaVuSans-2e" x="63.623047"/>
       <use xlink:href="#DejaVuSans-33" x="95.410156"/>
      </g>
     </g>
    </g>
    <g id="ytick_7">
     <g id="line2d_47">
      <g>
       <use xlink:href="#m824187b048" x="241.16" y="251.086542" style="stroke: #000000; stroke-width: 0.8"/>
      </g>
     </g>
     <g id="text_45">
      <!-- 0.4 -->
      <g transform="translate(218.256875 254.885761)scale(0.1 -0.1)">
       <use xlink:href="#DejaVuSans-30"/>
       <use xlink:href="#DejaVuSans-2e" x="63.623047"/>
       <use xlink:href="#DejaVuSans-34" x="95.410156"/>
      </g>
     </g>
    </g>
    <g id="ytick_8">
     <g id="line2d_48">
      <g>
       <use xlink:href="#m824187b048" x="241.16" y="229.103324" style="stroke: #000000; stroke-width: 0.8"/>
      </g>
     </g>
     <g id="text_46">
      <!-- 0.5 -->
      <g transform="translate(218.256875 232.902542)scale(0.1 -0.1)">
       <use xlink:href="#DejaVuSans-30"/>
       <use xlink:href="#DejaVuSans-2e" x="63.623047"/>
       <use xlink:href="#DejaVuSans-35" x="95.410156"/>
      </g>
     </g>
    </g>
    <g id="text_47">
     <!-- $speed (km/s)$ -->
     <g transform="translate(212.156875 275.13936)rotate(-90)scale(0.1 -0.1)">
      <defs>
       <path id="DejaVuSans-Oblique-73" d="M 3200 3397 
L 3091 2853 
Q 2863 2978 2609 3040 
Q 2356 3103 2088 3103 
Q 1634 3103 1373 2948 
Q 1113 2794 1113 2528 
Q 1113 2219 1719 2053 
Q 1766 2041 1788 2034 
L 1972 1978 
Q 2547 1819 2739 1644 
Q 2931 1469 2931 1166 
Q 2931 609 2489 259 
Q 2047 -91 1331 -91 
Q 1053 -91 747 -37 
Q 441 16 72 128 
L 184 722 
Q 500 559 806 475 
Q 1113 391 1394 391 
Q 1816 391 2080 572 
Q 2344 753 2344 1031 
Q 2344 1331 1650 1516 
L 1591 1531 
L 1394 1581 
Q 956 1697 753 1886 
Q 550 2075 550 2369 
Q 550 2928 970 3256 
Q 1391 3584 2113 3584 
Q 2397 3584 2667 3537 
Q 2938 3491 3200 3397 
z
" transform="scale(0.015625)"/>
       <path id="DejaVuSans-Oblique-70" d="M 3175 2156 
Q 3175 2616 2975 2859 
Q 2775 3103 2400 3103 
Q 2144 3103 1911 2972 
Q 1678 2841 1497 2591 
Q 1319 2344 1212 1994 
Q 1106 1644 1106 1300 
Q 1106 863 1306 627 
Q 1506 391 1875 391 
Q 2147 391 2380 519 
Q 2613 647 2778 891 
Q 2956 1147 3065 1494 
Q 3175 1841 3175 2156 
z
M 1394 2969 
Q 1625 3272 1939 3428 
Q 2253 3584 2638 3584 
Q 3175 3584 3472 3232 
Q 3769 2881 3769 2247 
Q 3769 1728 3584 1258 
Q 3400 788 3053 416 
Q 2822 169 2531 39 
Q 2241 -91 1919 -91 
Q 1547 -91 1294 64 
Q 1041 219 916 525 
L 556 -1331 
L -19 -1331 
L 922 3500 
L 1497 3500 
L 1394 2969 
z
" transform="scale(0.015625)"/>
       <path id="DejaVuSans-Oblique-6b" d="M 1172 4863 
L 1747 4863 
L 1197 2028 
L 3169 3500 
L 3916 3500 
L 1716 1825 
L 3322 0 
L 2625 0 
L 1131 1709 
L 800 0 
L 225 0 
L 1172 4863 
z
" transform="scale(0.015625)"/>
       <path id="DejaVuSans-Oblique-6d" d="M 5747 2113 
L 5338 0 
L 4763 0 
L 5166 2094 
Q 5191 2228 5203 2325 
Q 5216 2422 5216 2491 
Q 5216 2772 5059 2928 
Q 4903 3084 4622 3084 
Q 4203 3084 3875 2770 
Q 3547 2456 3450 1953 
L 3066 0 
L 2491 0 
L 2900 2094 
Q 2925 2209 2937 2307 
Q 2950 2406 2950 2484 
Q 2950 2769 2794 2926 
Q 2638 3084 2363 3084 
Q 1938 3084 1609 2770 
Q 1281 2456 1184 1953 
L 800 0 
L 225 0 
L 909 3500 
L 1484 3500 
L 1375 2956 
Q 1609 3263 1923 3423 
Q 2238 3584 2597 3584 
Q 2978 3584 3223 3384 
Q 3469 3184 3519 2828 
Q 3781 3197 4126 3390 
Q 4472 3584 4856 3584 
Q 5306 3584 5551 3325 
Q 5797 3066 5797 2591 
Q 5797 2488 5784 2364 
Q 5772 2241 5747 2113 
z
" transform="scale(0.015625)"/>
       <path id="DejaVuSans-2f" d="M 1625 4666 
L 2156 4666 
L 531 -594 
L 0 -594 
L 1625 4666 
z
" transform="scale(0.015625)"/>
      </defs>
      <use xlink:href="#DejaVuSans-Oblique-73" transform="translate(0 0.015625)"/>
      <use xlink:href="#DejaVuSans-Oblique-70" transform="translate(52.099609 0.015625)"/>
      <use xlink:href="#DejaVuSans-Oblique-65" transform="translate(115.576172 0.015625)"/>
      <use xlink:href="#DejaVuSans-Oblique-65" transform="translate(177.099609 0.015625)"/>
      <use xlink:href="#DejaVuSans-Oblique-64" transform="translate(238.623047 0.015625)"/>
      <use xlink:href="#DejaVuSans-28" transform="translate(302.099609 0.015625)"/>
      <use xlink:href="#DejaVuSans-Oblique-6b" transform="translate(341.113281 0.015625)"/>
      <use xlink:href="#DejaVuSans-Oblique-6d" transform="translate(399.023438 0.015625)"/>
      <use xlink:href="#DejaVuSans-2f" transform="translate(496.435547 0.015625)"/>
      <use xlink:href="#DejaVuSans-Oblique-73" transform="translate(530.126953 0.015625)"/>
      <use xlink:href="#DejaVuSans-29" transform="translate(582.226562 0.015625)"/>
     </g>
    </g>
   </g>
   <g id="line2d_49">
    <path d="M 246.354473 245.752519 
L 246.87392 240.186377 
L 248.172538 229.437578 
L 248.951709 224.417832 
L 249.471156 221.997839 
L 249.990604 220.41908 
L 250.510051 219.700113 
L 250.769775 219.652339 
L 251.029498 219.799763 
L 251.548945 220.625348 
L 252.068393 222.046144 
L 252.847564 224.954087 
L 255.185076 234.363547 
L 255.964247 236.339487 
L 256.483695 237.133436 
L 257.003142 237.499896 
L 257.522589 237.463034 
L 258.042036 237.069392 
L 258.561484 236.381201 
L 259.340655 234.952688 
L 262.457338 228.573994 
L 263.496233 227.204715 
L 264.275404 226.511318 
L 265.054575 226.06648 
L 266.093469 225.777156 
L 267.132364 225.733231 
L 268.430982 225.895003 
L 270.249047 226.376112 
L 272.067113 227.113992 
L 273.885178 228.132283 
L 275.962967 229.585835 
L 278.819927 231.588533 
L 280.118545 232.22409 
L 281.15744 232.499895 
L 282.196335 232.519561 
L 283.235229 232.255334 
L 284.274124 231.701233 
L 285.313018 230.876535 
L 286.611636 229.538008 
L 290.767215 224.862379 
L 291.806109 224.127026 
L 292.58528 223.793661 
L 293.364451 223.666001 
L 294.143622 223.748886 
L 294.922793 224.036088 
L 295.961687 224.706965 
L 297.000582 225.647779 
L 298.2992 227.076457 
L 298.818647 224.45946 
L 299.338095 222.866239 
L 299.857542 221.977031 
L 300.376989 221.570154 
L 300.896436 221.494437 
L 301.415884 221.646773 
L 302.195055 222.15433 
L 303.233949 223.133389 
L 305.311738 225.503986 
L 309.72704 230.589537 
L 312.064553 232.931319 
L 314.142342 234.703696 
L 315.960407 235.974359 
L 317.778473 236.957828 
L 319.336815 237.562318 
L 320.895156 237.946772 
L 322.453498 238.120138 
L 324.271564 238.079267 
L 326.089629 237.815336 
L 328.427142 237.229325 
L 331.803549 236.110957 
L 337.257745 234.301786 
L 340.374429 233.504915 
L 343.491113 232.928508 
L 346.86752 232.524479 
L 350.243927 232.293509 
L 350.243927 232.293509 
" clip-path="url(#p87c8970344)" style="fill: none; stroke: #1f77b4; stroke-width: 1.5; stroke-linecap: square"/>
   </g>
   <g id="line2d_50">
    <path d="M 246.354473 245.752519 
L 246.87392 241.301196 
L 247.393367 238.658513 
L 249.211433 231.025288 
L 250.250327 224.85039 
L 251.289222 218.799624 
L 251.808669 216.585853 
L 252.328116 215.27327 
L 252.58784 215.00896 
L 252.847564 215.019409 
L 253.107287 215.304558 
L 253.626735 216.661322 
L 254.146182 218.945807 
L 254.925353 223.67386 
L 257.522589 241.516948 
L 258.042036 243.796336 
L 258.561484 245.185566 
L 258.821207 245.509457 
L 259.080931 245.577529 
L 259.340655 245.39141 
L 259.600378 244.959474 
L 260.119825 243.42311 
L 260.898996 239.808648 
L 263.236509 227.170103 
L 264.01568 224.50472 
L 264.535127 223.371409 
L 265.054575 222.700771 
L 265.574022 222.409917 
L 266.093469 222.404204 
L 266.87264 222.734982 
L 269.989324 224.565744 
L 271.028218 224.740543 
L 273.365731 224.931915 
L 274.144902 225.341089 
L 274.924073 226.060872 
L 275.962967 227.456299 
L 278.819927 231.741028 
L 279.858822 232.798526 
L 280.897716 233.514177 
L 281.676887 233.833416 
L 282.456058 233.95523 
L 283.235229 233.864602 
L 284.0144 233.555412 
L 284.793571 233.0342 
L 285.832465 232.03096 
L 286.87136 230.698522 
L 288.169978 228.629734 
L 291.286662 223.371267 
L 292.065833 222.46443 
L 292.845004 221.859695 
L 293.624175 221.587599 
L 294.143622 221.595792 
L 294.922793 221.886215 
L 295.701964 222.488694 
L 296.481135 223.364335 
L 297.520029 224.863316 
L 298.2992 226.150815 
L 299.078371 233.502232 
L 299.857542 238.748674 
L 300.376989 240.907407 
L 300.896436 241.92504 
L 301.15616 242.01849 
L 301.415884 241.853524 
L 301.675607 241.44995 
L 302.195055 240.022875 
L 302.974225 236.741051 
L 305.311738 225.581663 
L 305.831185 224.01493 
L 306.350633 223.033895 
L 306.87008 222.66367 
L 307.129804 222.700078 
L 307.649251 223.172456 
L 308.168698 224.08888 
L 308.947869 226.004073 
L 310.506211 230.031289 
L 311.285382 231.38454 
L 311.804829 231.905646 
L 312.324276 232.116684 
L 312.843724 232.044663 
L 313.363171 231.735858 
L 314.142342 230.954289 
L 317.259025 227.245141 
L 318.29792 226.513792 
L 319.336815 226.099346 
L 320.375709 225.941602 
L 321.674327 226.009446 
L 322.972945 226.292994 
L 324.531287 226.861416 
L 326.349353 227.78596 
L 330.764655 230.206272 
L 332.063273 230.611999 
L 333.361891 230.785101 
L 334.660509 230.720718 
L 335.959127 230.42913 
L 337.517469 229.814674 
L 342.192495 227.651515 
L 343.231389 227.526208 
L 344.270284 227.628867 
L 345.309178 227.946438 
L 346.86752 228.709946 
L 349.464756 230.041115 
L 350.243927 230.287334 
L 350.243927 230.287334 
" clip-path="url(#p87c8970344)" style="fill: none; stroke: #ff7f0e; stroke-width: 1.5; stroke-linecap: square"/>
   </g>
   <g id="line2d_51">
    <path d="M 246.354473 245.752519 
L 246.87392 243.696292 
L 248.432262 230.552938 
L 248.951709 227.614733 
L 249.471156 225.523766 
L 250.250327 223.411134 
L 252.58784 218.571978 
L 252.847564 218.29202 
L 253.107287 218.179629 
L 253.367011 218.271759 
L 253.626735 218.599594 
L 254.146182 220.039176 
L 254.665629 222.533009 
L 255.4448 227.866675 
L 257.262865 241.441199 
L 257.782313 243.846143 
L 258.30176 245.094319 
L 258.561484 245.270787 
L 258.821207 245.164277 
L 259.080931 244.798031 
L 259.600378 243.408801 
L 260.379549 240.195727 
L 262.976785 228.203238 
L 263.755956 225.687585 
L 264.535127 223.969916 
L 265.054575 223.293388 
L 265.574022 222.977616 
L 266.093469 222.979186 
L 266.612916 223.227758 
L 267.651811 224.100831 
L 268.690705 224.883319 
L 269.469876 225.142241 
L 270.249047 225.110421 
L 272.326836 224.763649 
L 273.106007 224.979527 
L 273.885178 225.467551 
L 274.924073 226.441871 
L 276.742138 228.573423 
L 279.599098 232.020854 
L 280.378269 232.672589 
L 281.15744 233.083143 
L 281.936611 233.25954 
L 282.975505 233.209238 
L 284.0144 232.90529 
L 284.793571 232.491757 
L 285.572742 231.868743 
L 286.351913 231.006494 
L 287.390807 229.518747 
L 291.546385 223.047542 
L 292.325556 222.296495 
L 293.104727 221.828219 
L 293.883898 221.681165 
L 294.403345 221.770546 
L 295.182516 222.180857 
L 295.961687 222.895546 
L 297.000582 224.234585 
L 298.558924 226.445663 
L 299.078371 225.683049 
L 299.338095 225.692464 
L 299.597818 225.933626 
L 299.857542 226.617409 
L 300.376989 228.988411 
L 301.15616 234.618423 
L 302.714502 246.912273 
L 303.233949 249.055874 
L 303.493673 249.440294 
L 303.753396 249.30842 
L 304.01312 248.663697 
L 304.532567 245.921201 
L 305.052015 241.621994 
L 307.389527 219.305742 
L 307.908975 217.208014 
L 308.168698 216.845642 
L 308.428422 216.927971 
L 308.688145 217.416964 
L 309.207593 219.384425 
L 309.986764 223.784337 
L 311.025658 229.710942 
L 311.545105 231.89617 
L 312.064553 233.354371 
L 312.584 234.114291 
L 313.103447 234.304028 
L 313.622895 234.087105 
L 314.402065 233.301087 
L 315.181236 232.185398 
L 316.220131 230.259253 
L 317.518749 227.216693 
L 318.817367 224.332312 
L 319.336815 223.555189 
L 319.856262 223.106042 
L 320.375709 223.006464 
L 320.895156 223.228419 
L 321.674327 223.994463 
L 323.232669 225.723748 
L 323.752116 226.015731 
L 324.271564 226.105647 
L 325.050735 225.947103 
L 326.089629 225.627529 
L 326.609076 225.635015 
L 327.128524 225.846033 
L 327.647971 226.279244 
L 328.427142 227.270502 
L 329.985484 229.440824 
L 330.764655 230.070393 
L 331.543825 230.300605 
L 333.881338 230.503904 
L 335.699404 231.046414 
L 336.218851 230.978166 
L 336.998022 230.583379 
L 338.036916 229.681106 
L 339.335535 228.543837 
L 340.374429 227.909754 
L 343.231389 226.637443 
L 344.270284 226.365397 
L 345.049455 226.398801 
L 345.828625 226.681693 
L 346.607796 227.192606 
L 347.906415 228.355877 
L 349.72448 229.987468 
L 350.243927 230.359701 
L 350.243927 230.359701 
" clip-path="url(#p87c8970344)" style="fill: none; stroke: #2ca02c; stroke-width: 1.5; stroke-linecap: square"/>
   </g>
   <g id="line2d_52">
    <path d="M 246.354473 245.752519 
L 246.87392 242.186815 
L 248.172538 232.388805 
L 248.951709 227.807943 
L 250.250327 221.978107 
L 250.769775 220.335657 
L 251.289222 219.278806 
L 251.548945 218.992963 
L 251.808669 218.876825 
L 252.068393 218.921334 
L 252.328116 219.121241 
L 252.847564 219.931563 
L 253.367011 221.190234 
L 254.146182 223.694701 
L 255.185076 227.991315 
L 256.223971 233.404224 
L 257.782313 241.763022 
L 258.30176 243.516519 
L 258.561484 244.015795 
L 258.821207 244.225701 
L 259.080931 244.132927 
L 259.340655 243.738408 
L 259.860102 242.118286 
L 260.639273 238.171597 
L 262.197615 229.548801 
L 262.717062 227.571424 
L 263.236509 226.221366 
L 263.755956 225.405463 
L 264.275404 224.95577 
L 265.314298 224.492103 
L 267.132364 223.886303 
L 267.651811 223.926175 
L 268.171258 224.133464 
L 268.950429 224.70327 
L 270.249047 225.718914 
L 270.768495 225.909148 
L 271.287942 225.911905 
L 272.067113 225.622015 
L 273.106007 225.114715 
L 273.625455 225.045032 
L 274.144902 225.213054 
L 274.664349 225.654063 
L 275.44352 226.772703 
L 277.521309 230.273438 
L 278.30048 231.000667 
L 279.339375 231.516134 
L 280.378269 232.030184 
L 282.715782 233.511438 
L 283.235229 233.518455 
L 283.754676 233.330909 
L 284.533847 232.756622 
L 286.092189 231.177151 
L 287.650531 229.36223 
L 288.689425 227.786455 
L 291.286662 223.510326 
L 292.065833 222.654244 
L 292.845004 222.109376 
L 293.624175 221.870465 
L 294.403345 221.923523 
L 295.182516 222.260513 
L 295.961687 222.876923 
L 296.740858 223.759027 
L 297.779753 225.283704 
L 298.2992 226.15333 
L 298.818647 224.857565 
L 299.338095 223.98626 
L 299.857542 223.430113 
L 300.376989 223.107713 
L 301.15616 222.933238 
L 301.935331 223.00457 
L 302.974225 223.320102 
L 305.052015 224.244894 
L 308.168698 225.593526 
L 310.506211 226.368297 
L 313.103447 226.996612 
L 316.220131 227.506497 
L 320.115985 227.898967 
L 325.310458 228.183677 
L 333.361891 228.377173 
L 348.425862 228.477265 
L 350.243927 228.481371 
L 350.243927 228.481371 
" clip-path="url(#p87c8970344)" style="fill: none; stroke: #d62728; stroke-width: 1.5; stroke-linecap: square"/>
   </g>
   <g id="line2d_53">
    <path d="M 246.354473 245.752519 
L 247.133644 239.233633 
L 247.912815 234.371862 
L 250.250327 222.078285 
L 251.029498 218.734796 
L 251.548945 217.437964 
L 251.808669 217.166063 
L 252.068393 217.169484 
L 252.328116 217.450049 
L 252.847564 218.79666 
L 253.367011 221.007902 
L 254.665629 228.201157 
L 255.704524 233.248475 
L 256.483695 235.985632 
L 257.522589 238.729273 
L 258.561484 240.84903 
L 259.080931 241.43192 
L 259.340655 241.511402 
L 259.600378 241.413161 
L 259.860102 241.1161 
L 260.379549 239.884608 
L 260.898996 237.841148 
L 261.678167 233.701434 
L 262.976785 226.736353 
L 263.496233 224.881133 
L 264.01568 223.829711 
L 264.275404 223.59974 
L 264.535127 223.54354 
L 265.054575 223.836665 
L 266.612916 225.515478 
L 267.132364 225.646926 
L 267.651811 225.457902 
L 268.430982 224.783557 
L 269.210153 224.103232 
L 269.7296 223.891845 
L 270.249047 223.974851 
L 270.768495 224.356335 
L 271.547665 225.32282 
L 272.58656 226.653158 
L 273.106007 227.046054 
L 273.625455 227.169194 
L 274.144902 227.048608 
L 275.44352 226.464997 
L 275.962967 226.544873 
L 276.482415 227.001023 
L 277.001862 227.862112 
L 277.781033 229.726096 
L 278.819927 232.290689 
L 279.339375 233.141112 
L 279.858822 233.5367 
L 280.378269 233.492513 
L 280.897716 233.135991 
L 281.936611 232.278801 
L 282.456058 232.122019 
L 282.975505 232.230181 
L 284.533847 233.017661 
L 285.053295 232.893489 
L 285.572742 232.425766 
L 286.351913 231.204585 
L 287.910255 228.434561 
L 288.949149 227.111474 
L 290.507491 225.21767 
L 292.325556 222.75901 
L 293.104727 222.131607 
L 293.624175 221.955497 
L 294.143622 221.967252 
L 294.922793 222.274644 
L 295.961687 223.051763 
L 297.000582 224.104723 
L 298.039476 225.420369 
L 298.2992 225.793079 
L 298.818647 224.843568 
L 299.078371 224.722071 
L 299.338095 224.917274 
L 299.597818 225.487603 
L 300.117265 227.590214 
L 300.896436 232.559081 
L 302.195055 241.692485 
L 302.714502 244.169069 
L 303.233949 245.404329 
L 303.493673 245.510452 
L 303.753396 245.280503 
L 304.01312 244.731795 
L 304.532567 242.798048 
L 305.311738 238.362577 
L 307.389527 224.899142 
L 307.908975 222.631039 
L 308.428422 221.184226 
L 308.688145 220.793737 
L 308.947869 220.627942 
L 309.207593 220.68228 
L 309.467316 220.947123 
L 309.986764 222.046228 
L 310.506211 223.760469 
L 313.103447 233.560084 
L 313.622895 234.355678 
L 313.882618 234.523994 
L 314.142342 234.542952 
L 314.402065 234.420246 
L 314.921513 233.796033 
L 315.44096 232.764651 
L 316.479855 230.010313 
L 317.778473 226.527325 
L 318.557644 224.946119 
L 319.336815 223.923751 
L 319.856262 223.560384 
L 320.375709 223.428488 
L 320.895156 223.491955 
L 321.674327 223.853809 
L 325.310458 226.085662 
L 327.647971 227.092401 
L 328.686865 227.811129 
L 332.322996 230.71167 
L 333.102167 230.994686 
L 333.881338 231.095834 
L 334.920233 230.992524 
L 336.218851 230.601769 
L 337.777193 229.902712 
L 339.595258 228.850598 
L 342.452218 227.150308 
L 343.491113 226.789062 
L 344.530007 226.681985 
L 345.568902 226.856467 
L 346.607796 227.296818 
L 347.906415 228.133485 
L 350.243927 229.883863 
L 350.243927 229.883863 
" clip-path="url(#p87c8970344)" style="fill: none; stroke: #9467bd; stroke-width: 1.5; stroke-linecap: square"/>
   </g>
   <g id="line2d_54">
    <path d="M 246.354473 245.752519 
L 247.653091 231.37935 
L 248.172538 228.245044 
L 248.432262 227.368929 
L 248.951709 226.932709 
L 249.211433 227.081345 
L 249.990604 227.054079 
L 250.250327 226.859734 
L 250.769775 225.894983 
L 251.548945 223.393791 
L 252.58784 219.797231 
L 253.107287 218.832091 
L 253.367011 218.723451 
L 253.626735 218.903332 
L 253.886458 219.384358 
L 254.405905 221.225751 
L 254.925353 224.067995 
L 257.262865 239.041089 
L 257.782313 240.722756 
L 258.30176 241.498977 
L 258.561484 241.590387 
L 258.821207 241.518768 
L 259.340655 240.998055 
L 260.119825 239.60979 
L 260.898996 237.743813 
L 261.678167 235.355719 
L 262.717062 231.273593 
L 264.01568 225.911984 
L 264.535127 224.338559 
L 265.054575 223.372431 
L 265.314298 223.141187 
L 265.574022 223.07393 
L 265.833745 223.157025 
L 266.353193 223.683184 
L 267.911535 225.898932 
L 268.430982 226.119566 
L 268.950429 225.932313 
L 269.469876 225.418754 
L 270.768495 223.898644 
L 271.287942 223.703004 
L 271.807389 223.91943 
L 272.326836 224.532426 
L 273.365731 226.423385 
L 274.144902 227.674671 
L 274.664349 228.130292 
L 275.183796 228.223813 
L 275.703244 228.022631 
L 276.742138 227.415634 
L 277.261585 227.420268 
L 277.781033 227.838533 
L 278.30048 228.702583 
L 279.079651 230.601532 
L 280.118545 233.095034 
L 280.637993 233.804897 
L 280.897716 233.963215 
L 281.15744 233.987547 
L 281.676887 233.676697 
L 282.456058 232.643665 
L 283.235229 231.608081 
L 283.754676 231.22465 
L 284.274124 231.157884 
L 285.053295 231.461019 
L 285.832465 231.723931 
L 286.351913 231.595896 
L 286.87136 231.129688 
L 287.390807 230.350333 
L 289.988044 225.70044 
L 291.026938 224.69351 
L 293.624175 222.761954 
L 294.403345 222.419834 
L 295.182516 222.381072 
L 295.701964 222.549682 
L 296.481135 223.082935 
L 297.260305 223.896986 
L 298.2992 225.282451 
L 298.558924 225.187048 
L 299.338095 222.541982 
L 299.597818 222.603009 
L 299.857542 223.286413 
L 300.376989 225.963496 
L 301.15616 231.948559 
L 302.454778 242.411961 
L 302.974225 245.448496 
L 303.493673 247.28925 
L 303.753396 247.688341 
L 304.01312 247.726236 
L 304.272844 247.399118 
L 304.532567 246.725916 
L 305.052015 244.430338 
L 305.831185 239.171133 
L 307.908975 223.120863 
L 308.428422 220.612334 
L 308.947869 219.252148 
L 309.207593 219.026142 
L 309.467316 219.093978 
L 309.72704 219.436713 
L 310.246487 220.83344 
L 311.025658 224.16576 
L 312.584 231.531481 
L 313.103447 233.26382 
L 313.622895 234.372058 
L 314.142342 234.814676 
L 314.402065 234.79455 
L 314.661789 234.626071 
L 315.181236 233.900203 
L 315.960407 232.095841 
L 318.29792 225.819286 
L 319.077091 224.503436 
L 319.596538 223.947394 
L 320.115985 223.632206 
L 320.635433 223.526371 
L 321.414604 223.671156 
L 322.453498 224.20751 
L 325.050735 225.742546 
L 328.427142 227.391566 
L 329.72576 228.385886 
L 331.803549 230.044426 
L 332.842444 230.577751 
L 333.881338 230.803343 
L 334.920233 230.751592 
L 336.218851 230.417114 
L 338.036916 229.663961 
L 340.114705 228.536173 
L 342.452218 227.25346 
L 343.491113 226.886457 
L 344.530007 226.749948 
L 345.568902 226.883208 
L 346.607796 227.286059 
L 347.906415 228.10391 
L 350.243927 229.944475 
L 350.243927 229.944475 
" clip-path="url(#p87c8970344)" style="fill: none; stroke: #8c564b; stroke-width: 1.5; stroke-linecap: square"/>
   </g>
   <g id="line2d_55">
    <path d="M 246.354473 273.06976 
L 246.614196 229.103324 
L 350.243927 229.103324 
L 350.243927 229.103324 
" clip-path="url(#p87c8970344)" style="fill: none; stroke: #e377c2; stroke-width: 1.5; stroke-linecap: square"/>
   </g>
   <g id="patch_10">
    <path d="M 241.16 275.9728 
L 241.16 212.10592 
" style="fill: none; stroke: #000000; stroke-width: 0.8; stroke-linejoin: miter; stroke-linecap: square"/>
   </g>
   <g id="patch_11">
    <path d="M 355.4384 275.9728 
L 355.4384 212.10592 
" style="fill: none; stroke: #000000; stroke-width: 0.8; stroke-linejoin: miter; stroke-linecap: square"/>
   </g>
   <g id="patch_12">
    <path d="M 241.16 275.9728 
L 355.4384 275.9728 
" style="fill: none; stroke: #000000; stroke-width: 0.8; stroke-linejoin: miter; stroke-linecap: square"/>
   </g>
   <g id="patch_13">
    <path d="M 241.16 212.10592 
L 355.4384 212.10592 
" style="fill: none; stroke: #000000; stroke-width: 0.8; stroke-linejoin: miter; stroke-linecap: square"/>
   </g>
   <g id="legend_2">
    <g id="patch_14">
     <path d="M 231.9634 322.852795 
L 348.4384 322.852795 
Q 350.4384 322.852795 350.4384 320.852795 
L 350.4384 219.10592 
Q 350.4384 217.10592 348.4384 217.10592 
L 231.9634 217.10592 
Q 229.9634 217.10592 229.9634 219.10592 
L 229.9634 320.852795 
Q 229.9634 322.852795 231.9634 322.852795 
z
" style="fill: #ffffff; opacity: 0.8; stroke: #cccccc; stroke-linejoin: miter"/>
    </g>
    <g id="line2d_56">
     <path d="M 233.9634 225.204357 
L 243.9634 225.204357 
L 253.9634 225.204357 
" style="fill: none; stroke: #1f77b4; stroke-width: 1.5; stroke-linecap: square"/>
    </g>
    <g id="text_48">
     <!-- $M_1$ -->
     <g transform="translate(261.9634 228.704357)scale(0.1 -0.1)">
      <use xlink:href="#DejaVuSans-Oblique-4d" transform="translate(0 0.09375)"/>
      <use xlink:href="#DejaVuSans-31" transform="translate(86.279297 -16.3125)scale(0.7)"/>
     </g>
    </g>
    <g id="line2d_57">
     <path d="M 233.9634 239.882482 
L 243.9634 239.882482 
L 253.9634 239.882482 
" style="fill: none; stroke: #ff7f0e; stroke-width: 1.5; stroke-linecap: square"/>
    </g>
    <g id="text_49">
     <!-- $M_2$ -->
     <g transform="translate(261.9634 243.382482)scale(0.1 -0.1)">
      <use xlink:href="#DejaVuSans-Oblique-4d" transform="translate(0 0.09375)"/>
      <use xlink:href="#DejaVuSans-32" transform="translate(86.279297 -16.3125)scale(0.7)"/>
     </g>
    </g>
    <g id="line2d_58">
     <path d="M 233.9634 254.560607 
L 243.9634 254.560607 
L 253.9634 254.560607 
" style="fill: none; stroke: #2ca02c; stroke-width: 1.5; stroke-linecap: square"/>
    </g>
    <g id="text_50">
     <!-- $M_3$ -->
     <g transform="translate(261.9634 258.060607)scale(0.1 -0.1)">
      <use xlink:href="#DejaVuSans-Oblique-4d" transform="translate(0 0.09375)"/>
      <use xlink:href="#DejaVuSans-33" transform="translate(86.279297 -16.3125)scale(0.7)"/>
     </g>
    </g>
    <g id="line2d_59">
     <path d="M 233.9634 269.238732 
L 243.9634 269.238732 
L 253.9634 269.238732 
" style="fill: none; stroke: #d62728; stroke-width: 1.5; stroke-linecap: square"/>
    </g>
    <g id="text_51">
     <!-- $M_4$ -->
     <g transform="translate(261.9634 272.738732)scale(0.1 -0.1)">
      <use xlink:href="#DejaVuSans-Oblique-4d" transform="translate(0 0.09375)"/>
      <use xlink:href="#DejaVuSans-34" transform="translate(86.279297 -16.3125)scale(0.7)"/>
     </g>
    </g>
    <g id="line2d_60">
     <path d="M 233.9634 283.916857 
L 243.9634 283.916857 
L 253.9634 283.916857 
" style="fill: none; stroke: #9467bd; stroke-width: 1.5; stroke-linecap: square"/>
    </g>
    <g id="text_52">
     <!-- $M_5$ -->
     <g transform="translate(261.9634 287.416857)scale(0.1 -0.1)">
      <use xlink:href="#DejaVuSans-Oblique-4d" transform="translate(0 0.09375)"/>
      <use xlink:href="#DejaVuSans-35" transform="translate(86.279297 -16.3125)scale(0.7)"/>
     </g>
    </g>
    <g id="line2d_61">
     <path d="M 233.9634 298.594982 
L 243.9634 298.594982 
L 253.9634 298.594982 
" style="fill: none; stroke: #8c564b; stroke-width: 1.5; stroke-linecap: square"/>
    </g>
    <g id="text_53">
     <!-- $M_6$ -->
     <g transform="translate(261.9634 302.094982)scale(0.1 -0.1)">
      <use xlink:href="#DejaVuSans-Oblique-4d" transform="translate(0 0.09375)"/>
      <use xlink:href="#DejaVuSans-36" transform="translate(86.279297 -16.3125)scale(0.7)"/>
     </g>
    </g>
    <g id="line2d_62">
     <path d="M 233.9634 313.273107 
L 243.9634 313.273107 
L 253.9634 313.273107 
" style="fill: none; stroke: #e377c2; stroke-width: 1.5; stroke-linecap: square"/>
    </g>
    <g id="text_54">
     <!-- Reference Target -->
     <g transform="translate(261.9634 316.773107)scale(0.1 -0.1)">
      <defs>
       <path id="DejaVuSans-52" d="M 2841 2188 
Q 3044 2119 3236 1894 
Q 3428 1669 3622 1275 
L 4263 0 
L 3584 0 
L 2988 1197 
Q 2756 1666 2539 1819 
Q 2322 1972 1947 1972 
L 1259 1972 
L 1259 0 
L 628 0 
L 628 4666 
L 2053 4666 
Q 2853 4666 3247 4331 
Q 3641 3997 3641 3322 
Q 3641 2881 3436 2590 
Q 3231 2300 2841 2188 
z
M 1259 4147 
L 1259 2491 
L 2053 2491 
Q 2509 2491 2742 2702 
Q 2975 2913 2975 3322 
Q 2975 3731 2742 3939 
Q 2509 4147 2053 4147 
L 1259 4147 
z
" transform="scale(0.015625)"/>
       <path id="DejaVuSans-66" d="M 2375 4863 
L 2375 4384 
L 1825 4384 
Q 1516 4384 1395 4259 
Q 1275 4134 1275 3809 
L 1275 3500 
L 2222 3500 
L 2222 3053 
L 1275 3053 
L 1275 0 
L 697 0 
L 697 3053 
L 147 3053 
L 147 3500 
L 697 3500 
L 697 3744 
Q 697 4328 969 4595 
Q 1241 4863 1831 4863 
L 2375 4863 
z
" transform="scale(0.015625)"/>
       <path id="DejaVuSans-72" d="M 2631 2963 
Q 2534 3019 2420 3045 
Q 2306 3072 2169 3072 
Q 1681 3072 1420 2755 
Q 1159 2438 1159 1844 
L 1159 0 
L 581 0 
L 581 3500 
L 1159 3500 
L 1159 2956 
Q 1341 3275 1631 3429 
Q 1922 3584 2338 3584 
Q 2397 3584 2469 3576 
Q 2541 3569 2628 3553 
L 2631 2963 
z
" transform="scale(0.015625)"/>
       <path id="DejaVuSans-6e" d="M 3513 2113 
L 3513 0 
L 2938 0 
L 2938 2094 
Q 2938 2591 2744 2837 
Q 2550 3084 2163 3084 
Q 1697 3084 1428 2787 
Q 1159 2491 1159 1978 
L 1159 0 
L 581 0 
L 581 3500 
L 1159 3500 
L 1159 2956 
Q 1366 3272 1645 3428 
Q 1925 3584 2291 3584 
Q 2894 3584 3203 3211 
Q 3513 2838 3513 2113 
z
" transform="scale(0.015625)"/>
       <path id="DejaVuSans-63" d="M 3122 3366 
L 3122 2828 
Q 2878 2963 2633 3030 
Q 2388 3097 2138 3097 
Q 1578 3097 1268 2742 
Q 959 2388 959 1747 
Q 959 1106 1268 751 
Q 1578 397 2138 397 
Q 2388 397 2633 464 
Q 2878 531 3122 666 
L 3122 134 
Q 2881 22 2623 -34 
Q 2366 -91 2075 -91 
Q 1284 -91 818 406 
Q 353 903 353 1747 
Q 353 2603 823 3093 
Q 1294 3584 2113 3584 
Q 2378 3584 2631 3529 
Q 2884 3475 3122 3366 
z
" transform="scale(0.015625)"/>
       <path id="DejaVuSans-20" transform="scale(0.015625)"/>
       <path id="DejaVuSans-54" d="M -19 4666 
L 3928 4666 
L 3928 4134 
L 2272 4134 
L 2272 0 
L 1638 0 
L 1638 4134 
L -19 4134 
L -19 4666 
z
" transform="scale(0.015625)"/>
       <path id="DejaVuSans-61" d="M 2194 1759 
Q 1497 1759 1228 1600 
Q 959 1441 959 1056 
Q 959 750 1161 570 
Q 1363 391 1709 391 
Q 2188 391 2477 730 
Q 2766 1069 2766 1631 
L 2766 1759 
L 2194 1759 
z
M 3341 1997 
L 3341 0 
L 2766 0 
L 2766 531 
Q 2569 213 2275 61 
Q 1981 -91 1556 -91 
Q 1019 -91 701 211 
Q 384 513 384 1019 
Q 384 1609 779 1909 
Q 1175 2209 1959 2209 
L 2766 2209 
L 2766 2266 
Q 2766 2663 2505 2880 
Q 2244 3097 1772 3097 
Q 1472 3097 1187 3025 
Q 903 2953 641 2809 
L 641 3341 
Q 956 3463 1253 3523 
Q 1550 3584 1831 3584 
Q 2591 3584 2966 3190 
Q 3341 2797 3341 1997 
z
" transform="scale(0.015625)"/>
       <path id="DejaVuSans-67" d="M 2906 1791 
Q 2906 2416 2648 2759 
Q 2391 3103 1925 3103 
Q 1463 3103 1205 2759 
Q 947 2416 947 1791 
Q 947 1169 1205 825 
Q 1463 481 1925 481 
Q 2391 481 2648 825 
Q 2906 1169 2906 1791 
z
M 3481 434 
Q 3481 -459 3084 -895 
Q 2688 -1331 1869 -1331 
Q 1566 -1331 1297 -1286 
Q 1028 -1241 775 -1147 
L 775 -588 
Q 1028 -725 1275 -790 
Q 1522 -856 1778 -856 
Q 2344 -856 2625 -561 
Q 2906 -266 2906 331 
L 2906 616 
Q 2728 306 2450 153 
Q 2172 0 1784 0 
Q 1141 0 747 490 
Q 353 981 353 1791 
Q 353 2603 747 3093 
Q 1141 3584 1784 3584 
Q 2172 3584 2450 3431 
Q 2728 3278 2906 2969 
L 2906 3500 
L 3481 3500 
L 3481 434 
z
" transform="scale(0.015625)"/>
      </defs>
      <use xlink:href="#DejaVuSans-52"/>
      <use xlink:href="#DejaVuSans-65" x="64.982422"/>
      <use xlink:href="#DejaVuSans-66" x="126.505859"/>
      <use xlink:href="#DejaVuSans-65" x="161.710938"/>
      <use xlink:href="#DejaVuSans-72" x="223.234375"/>
      <use xlink:href="#DejaVuSans-65" x="262.097656"/>
      <use xlink:href="#DejaVuSans-6e" x="323.621094"/>
      <use xlink:href="#DejaVuSans-63" x="387"/>
      <use xlink:href="#DejaVuSans-65" x="441.980469"/>
      <use xlink:href="#DejaVuSans-20" x="503.503906"/>
      <use xlink:href="#DejaVuSans-54" x="535.291016"/>
      <use xlink:href="#DejaVuSans-61" x="579.875"/>
      <use xlink:href="#DejaVuSans-72" x="641.154297"/>
      <use xlink:href="#DejaVuSans-67" x="680.517578"/>
      <use xlink:href="#DejaVuSans-65" x="743.994141"/>
      <use xlink:href="#DejaVuSans-74" x="805.517578"/>
     </g>
    </g>
   </g>
  </g>
 </g>
 <defs>
  <clipPath id="p8c334edf69">
   <rect x="57.6" y="41.472" width="357.12" height="266.112"/>
  </clipPath>
  <clipPath id="p87c8970344">
   <rect x="241.16" y="212.10592" width="114.2784" height="63.86688"/>
  </clipPath>
 </defs>
</svg>
