<?xml version="1.0" encoding="utf-8" standalone="no"?>
<!DOCTYPE svg PUBLIC "-//W3C//DTD SVG 1.1//EN"
  "http://www.w3.org/Graphics/SVG/1.1/DTD/svg11.dtd">
<svg xmlns:xlink="http://www.w3.org/1999/xlink" width="460.8pt" height="345.6pt" viewBox="0 0 460.8 345.6" xmlns="http://www.w3.org/2000/svg" version="1.1">
 <metadata>
  <rdf:RDF xmlns:dc="http://purl.org/dc/elements/1.1/" xmlns:cc="http://creativecommons.org/ns#" xmlns:rdf="http://www.w3.org/1999/02/22-rdf-syntax-ns#">
   <cc:Work>
    <dc:type rdf:resource="http://purl.org/dc/dcmitype/StillImage"/>
    <dc:date>2022-08-28T12:20:38.174710</dc:date>
    <dc:format>image/svg+xml</dc:format>
    <dc:creator>
     <cc:Agent>
      <dc:title>Matplotlib v3.5.2, https://matplotlib.org/</dc:title>
     </cc:Agent>
    </dc:creator>
   </cc:Work>
  </rdf:RDF>
 </metadata>
 <defs>
  <style type="text/css">*{stroke-linejoin: round; stroke-linecap: butt}</style>
 </defs>
 <g id="figure_1">
  <g id="patch_1">
   <path d="M 0 345.6 
L 460.8 345.6 
L 460.8 0 
L 0 0 
z
" style="fill: #ffffff"/>
  </g>
  <g id="axes_1">
   <g id="patch_2">
    <path d="M 57.6 307.584 
L 414.72 307.584 
L 414.72 41.472 
L 57.6 41.472 
z
" style="fill: #ffffff"/>
   </g>
   <g id="matplotlib.axis_1">
    <g id="xtick_1">
     <g id="line2d_1">
      <defs>
       <path id="m5c4f4b7706" d="M 0 0 
L 0 3.5 
" style="stroke: #000000; stroke-width: 0.8"/>
      </defs>
      <g>
       <use xlink:href="#m5c4f4b7706" x="73.832727" y="307.584" style="stroke: #000000; stroke-width: 0.8"/>
      </g>
     </g>
     <g id="text_1">
      <!-- 0.0 -->
      <g transform="translate(65.881165 322.182437)scale(0.1 -0.1)">
       <defs>
        <path id="DejaVuSans-30" d="M 2034 4250 
Q 1547 4250 1301 3770 
Q 1056 3291 1056 2328 
Q 1056 1369 1301 889 
Q 1547 409 2034 409 
Q 2525 409 2770 889 
Q 3016 1369 3016 2328 
Q 3016 3291 2770 3770 
Q 2525 4250 2034 4250 
z
M 2034 4750 
Q 2819 4750 3233 4129 
Q 3647 3509 3647 2328 
Q 3647 1150 3233 529 
Q 2819 -91 2034 -91 
Q 1250 -91 836 529 
Q 422 1150 422 2328 
Q 422 3509 836 4129 
Q 1250 4750 2034 4750 
z
" transform="scale(0.015625)"/>
        <path id="DejaVuSans-2e" d="M 684 794 
L 1344 794 
L 1344 0 
L 684 0 
L 684 794 
z
" transform="scale(0.015625)"/>
       </defs>
       <use xlink:href="#DejaVuSans-30"/>
       <use xlink:href="#DejaVuSans-2e" x="63.623047"/>
       <use xlink:href="#DejaVuSans-30" x="95.410156"/>
      </g>
     </g>
    </g>
    <g id="xtick_2">
     <g id="line2d_2">
      <g>
       <use xlink:href="#m5c4f4b7706" x="98.181818" y="307.584" style="stroke: #000000; stroke-width: 0.8"/>
      </g>
     </g>
     <g id="text_2">
      <!-- 3.0 -->
      <g transform="translate(90.230256 322.182437)scale(0.1 -0.1)">
       <defs>
        <path id="DejaVuSans-33" d="M 2597 2516 
Q 3050 2419 3304 2112 
Q 3559 1806 3559 1356 
Q 3559 666 3084 287 
Q 2609 -91 1734 -91 
Q 1441 -91 1130 -33 
Q 819 25 488 141 
L 488 750 
Q 750 597 1062 519 
Q 1375 441 1716 441 
Q 2309 441 2620 675 
Q 2931 909 2931 1356 
Q 2931 1769 2642 2001 
Q 2353 2234 1838 2234 
L 1294 2234 
L 1294 2753 
L 1863 2753 
Q 2328 2753 2575 2939 
Q 2822 3125 2822 3475 
Q 2822 3834 2567 4026 
Q 2313 4219 1838 4219 
Q 1578 4219 1281 4162 
Q 984 4106 628 3988 
L 628 4550 
Q 988 4650 1302 4700 
Q 1616 4750 1894 4750 
Q 2613 4750 3031 4423 
Q 3450 4097 3450 3541 
Q 3450 3153 3228 2886 
Q 3006 2619 2597 2516 
z
" transform="scale(0.015625)"/>
       </defs>
       <use xlink:href="#DejaVuSans-33"/>
       <use xlink:href="#DejaVuSans-2e" x="63.623047"/>
       <use xlink:href="#DejaVuSans-30" x="95.410156"/>
      </g>
     </g>
    </g>
    <g id="xtick_3">
     <g id="line2d_3">
      <g>
       <use xlink:href="#m5c4f4b7706" x="122.530909" y="307.584" style="stroke: #000000; stroke-width: 0.8"/>
      </g>
     </g>
     <g id="text_3">
      <!-- 6.0 -->
      <g transform="translate(114.579347 322.182437)scale(0.1 -0.1)">
       <defs>
        <path id="DejaVuSans-36" d="M 2113 2584 
Q 1688 2584 1439 2293 
Q 1191 2003 1191 1497 
Q 1191 994 1439 701 
Q 1688 409 2113 409 
Q 2538 409 2786 701 
Q 3034 994 3034 1497 
Q 3034 2003 2786 2293 
Q 2538 2584 2113 2584 
z
M 3366 4563 
L 3366 3988 
Q 3128 4100 2886 4159 
Q 2644 4219 2406 4219 
Q 1781 4219 1451 3797 
Q 1122 3375 1075 2522 
Q 1259 2794 1537 2939 
Q 1816 3084 2150 3084 
Q 2853 3084 3261 2657 
Q 3669 2231 3669 1497 
Q 3669 778 3244 343 
Q 2819 -91 2113 -91 
Q 1303 -91 875 529 
Q 447 1150 447 2328 
Q 447 3434 972 4092 
Q 1497 4750 2381 4750 
Q 2619 4750 2861 4703 
Q 3103 4656 3366 4563 
z
" transform="scale(0.015625)"/>
       </defs>
       <use xlink:href="#DejaVuSans-36"/>
       <use xlink:href="#DejaVuSans-2e" x="63.623047"/>
       <use xlink:href="#DejaVuSans-30" x="95.410156"/>
      </g>
     </g>
    </g>
    <g id="xtick_4">
     <g id="line2d_4">
      <g>
       <use xlink:href="#m5c4f4b7706" x="146.88" y="307.584" style="stroke: #000000; stroke-width: 0.8"/>
      </g>
     </g>
     <g id="text_4">
      <!-- 9.0 -->
      <g transform="translate(138.928438 322.182437)scale(0.1 -0.1)">
       <defs>
        <path id="DejaVuSans-39" d="M 703 97 
L 703 672 
Q 941 559 1184 500 
Q 1428 441 1663 441 
Q 2288 441 2617 861 
Q 2947 1281 2994 2138 
Q 2813 1869 2534 1725 
Q 2256 1581 1919 1581 
Q 1219 1581 811 2004 
Q 403 2428 403 3163 
Q 403 3881 828 4315 
Q 1253 4750 1959 4750 
Q 2769 4750 3195 4129 
Q 3622 3509 3622 2328 
Q 3622 1225 3098 567 
Q 2575 -91 1691 -91 
Q 1453 -91 1209 -44 
Q 966 3 703 97 
z
M 1959 2075 
Q 2384 2075 2632 2365 
Q 2881 2656 2881 3163 
Q 2881 3666 2632 3958 
Q 2384 4250 1959 4250 
Q 1534 4250 1286 3958 
Q 1038 3666 1038 3163 
Q 1038 2656 1286 2365 
Q 1534 2075 1959 2075 
z
" transform="scale(0.015625)"/>
       </defs>
       <use xlink:href="#DejaVuSans-39"/>
       <use xlink:href="#DejaVuSans-2e" x="63.623047"/>
       <use xlink:href="#DejaVuSans-30" x="95.410156"/>
      </g>
     </g>
    </g>
    <g id="xtick_5">
     <g id="line2d_5">
      <g>
       <use xlink:href="#m5c4f4b7706" x="171.229091" y="307.584" style="stroke: #000000; stroke-width: 0.8"/>
      </g>
     </g>
     <g id="text_5">
      <!-- 12.0 -->
      <g transform="translate(160.096278 322.182437)scale(0.1 -0.1)">
       <defs>
        <path id="DejaVuSans-31" d="M 794 531 
L 1825 531 
L 1825 4091 
L 703 3866 
L 703 4441 
L 1819 4666 
L 2450 4666 
L 2450 531 
L 3481 531 
L 3481 0 
L 794 0 
L 794 531 
z
" transform="scale(0.015625)"/>
        <path id="DejaVuSans-32" d="M 1228 531 
L 3431 531 
L 3431 0 
L 469 0 
L 469 531 
Q 828 903 1448 1529 
Q 2069 2156 2228 2338 
Q 2531 2678 2651 2914 
Q 2772 3150 2772 3378 
Q 2772 3750 2511 3984 
Q 2250 4219 1831 4219 
Q 1534 4219 1204 4116 
Q 875 4013 500 3803 
L 500 4441 
Q 881 4594 1212 4672 
Q 1544 4750 1819 4750 
Q 2544 4750 2975 4387 
Q 3406 4025 3406 3419 
Q 3406 3131 3298 2873 
Q 3191 2616 2906 2266 
Q 2828 2175 2409 1742 
Q 1991 1309 1228 531 
z
" transform="scale(0.015625)"/>
       </defs>
       <use xlink:href="#DejaVuSans-31"/>
       <use xlink:href="#DejaVuSans-32" x="63.623047"/>
       <use xlink:href="#DejaVuSans-2e" x="127.246094"/>
       <use xlink:href="#DejaVuSans-30" x="159.033203"/>
      </g>
     </g>
    </g>
    <g id="xtick_6">
     <g id="line2d_6">
      <g>
       <use xlink:href="#m5c4f4b7706" x="195.578182" y="307.584" style="stroke: #000000; stroke-width: 0.8"/>
      </g>
     </g>
     <g id="text_6">
      <!-- 15.0 -->
      <g transform="translate(184.445369 322.182437)scale(0.1 -0.1)">
       <defs>
        <path id="DejaVuSans-35" d="M 691 4666 
L 3169 4666 
L 3169 4134 
L 1269 4134 
L 1269 2991 
Q 1406 3038 1543 3061 
Q 1681 3084 1819 3084 
Q 2600 3084 3056 2656 
Q 3513 2228 3513 1497 
Q 3513 744 3044 326 
Q 2575 -91 1722 -91 
Q 1428 -91 1123 -41 
Q 819 9 494 109 
L 494 744 
Q 775 591 1075 516 
Q 1375 441 1709 441 
Q 2250 441 2565 725 
Q 2881 1009 2881 1497 
Q 2881 1984 2565 2268 
Q 2250 2553 1709 2553 
Q 1456 2553 1204 2497 
Q 953 2441 691 2322 
L 691 4666 
z
" transform="scale(0.015625)"/>
       </defs>
       <use xlink:href="#DejaVuSans-31"/>
       <use xlink:href="#DejaVuSans-35" x="63.623047"/>
       <use xlink:href="#DejaVuSans-2e" x="127.246094"/>
       <use xlink:href="#DejaVuSans-30" x="159.033203"/>
      </g>
     </g>
    </g>
    <g id="xtick_7">
     <g id="line2d_7">
      <g>
       <use xlink:href="#m5c4f4b7706" x="219.927273" y="307.584" style="stroke: #000000; stroke-width: 0.8"/>
      </g>
     </g>
     <g id="text_7">
      <!-- 18.0 -->
      <g transform="translate(208.79446 322.182437)scale(0.1 -0.1)">
       <defs>
        <path id="DejaVuSans-38" d="M 2034 2216 
Q 1584 2216 1326 1975 
Q 1069 1734 1069 1313 
Q 1069 891 1326 650 
Q 1584 409 2034 409 
Q 2484 409 2743 651 
Q 3003 894 3003 1313 
Q 3003 1734 2745 1975 
Q 2488 2216 2034 2216 
z
M 1403 2484 
Q 997 2584 770 2862 
Q 544 3141 544 3541 
Q 544 4100 942 4425 
Q 1341 4750 2034 4750 
Q 2731 4750 3128 4425 
Q 3525 4100 3525 3541 
Q 3525 3141 3298 2862 
Q 3072 2584 2669 2484 
Q 3125 2378 3379 2068 
Q 3634 1759 3634 1313 
Q 3634 634 3220 271 
Q 2806 -91 2034 -91 
Q 1263 -91 848 271 
Q 434 634 434 1313 
Q 434 1759 690 2068 
Q 947 2378 1403 2484 
z
M 1172 3481 
Q 1172 3119 1398 2916 
Q 1625 2713 2034 2713 
Q 2441 2713 2670 2916 
Q 2900 3119 2900 3481 
Q 2900 3844 2670 4047 
Q 2441 4250 2034 4250 
Q 1625 4250 1398 4047 
Q 1172 3844 1172 3481 
z
" transform="scale(0.015625)"/>
       </defs>
       <use xlink:href="#DejaVuSans-31"/>
       <use xlink:href="#DejaVuSans-38" x="63.623047"/>
       <use xlink:href="#DejaVuSans-2e" x="127.246094"/>
       <use xlink:href="#DejaVuSans-30" x="159.033203"/>
      </g>
     </g>
    </g>
    <g id="xtick_8">
     <g id="line2d_8">
      <g>
       <use xlink:href="#m5c4f4b7706" x="244.276364" y="307.584" style="stroke: #000000; stroke-width: 0.8"/>
      </g>
     </g>
     <g id="text_8">
      <!-- 21.0 -->
      <g transform="translate(233.143551 322.182437)scale(0.1 -0.1)">
       <use xlink:href="#DejaVuSans-32"/>
       <use xlink:href="#DejaVuSans-31" x="63.623047"/>
       <use xlink:href="#DejaVuSans-2e" x="127.246094"/>
       <use xlink:href="#DejaVuSans-30" x="159.033203"/>
      </g>
     </g>
    </g>
    <g id="xtick_9">
     <g id="line2d_9">
      <g>
       <use xlink:href="#m5c4f4b7706" x="268.625455" y="307.584" style="stroke: #000000; stroke-width: 0.8"/>
      </g>
     </g>
     <g id="text_9">
      <!-- 24.0 -->
      <g transform="translate(257.492642 322.182437)scale(0.1 -0.1)">
       <defs>
        <path id="DejaVuSans-34" d="M 2419 4116 
L 825 1625 
L 2419 1625 
L 2419 4116 
z
M 2253 4666 
L 3047 4666 
L 3047 1625 
L 3713 1625 
L 3713 1100 
L 3047 1100 
L 3047 0 
L 2419 0 
L 2419 1100 
L 313 1100 
L 313 1709 
L 2253 4666 
z
" transform="scale(0.015625)"/>
       </defs>
       <use xlink:href="#DejaVuSans-32"/>
       <use xlink:href="#DejaVuSans-34" x="63.623047"/>
       <use xlink:href="#DejaVuSans-2e" x="127.246094"/>
       <use xlink:href="#DejaVuSans-30" x="159.033203"/>
      </g>
     </g>
    </g>
    <g id="xtick_10">
     <g id="line2d_10">
      <g>
       <use xlink:href="#m5c4f4b7706" x="292.974545" y="307.584" style="stroke: #000000; stroke-width: 0.8"/>
      </g>
     </g>
     <g id="text_10">
      <!-- 27.0 -->
      <g transform="translate(281.841733 322.182437)scale(0.1 -0.1)">
       <defs>
        <path id="DejaVuSans-37" d="M 525 4666 
L 3525 4666 
L 3525 4397 
L 1831 0 
L 1172 0 
L 2766 4134 
L 525 4134 
L 525 4666 
z
" transform="scale(0.015625)"/>
       </defs>
       <use xlink:href="#DejaVuSans-32"/>
       <use xlink:href="#DejaVuSans-37" x="63.623047"/>
       <use xlink:href="#DejaVuSans-2e" x="127.246094"/>
       <use xlink:href="#DejaVuSans-30" x="159.033203"/>
      </g>
     </g>
    </g>
    <g id="xtick_11">
     <g id="line2d_11">
      <g>
       <use xlink:href="#m5c4f4b7706" x="317.323636" y="307.584" style="stroke: #000000; stroke-width: 0.8"/>
      </g>
     </g>
     <g id="text_11">
      <!-- 30.0 -->
      <g transform="translate(306.190824 322.182437)scale(0.1 -0.1)">
       <use xlink:href="#DejaVuSans-33"/>
       <use xlink:href="#DejaVuSans-30" x="63.623047"/>
       <use xlink:href="#DejaVuSans-2e" x="127.246094"/>
       <use xlink:href="#DejaVuSans-30" x="159.033203"/>
      </g>
     </g>
    </g>
    <g id="xtick_12">
     <g id="line2d_12">
      <g>
       <use xlink:href="#m5c4f4b7706" x="341.672727" y="307.584" style="stroke: #000000; stroke-width: 0.8"/>
      </g>
     </g>
     <g id="text_12">
      <!-- 33.0 -->
      <g transform="translate(330.539915 322.182437)scale(0.1 -0.1)">
       <use xlink:href="#DejaVuSans-33"/>
       <use xlink:href="#DejaVuSans-33" x="63.623047"/>
       <use xlink:href="#DejaVuSans-2e" x="127.246094"/>
       <use xlink:href="#DejaVuSans-30" x="159.033203"/>
      </g>
     </g>
    </g>
    <g id="xtick_13">
     <g id="line2d_13">
      <g>
       <use xlink:href="#m5c4f4b7706" x="366.021818" y="307.584" style="stroke: #000000; stroke-width: 0.8"/>
      </g>
     </g>
     <g id="text_13">
      <!-- 36.0 -->
      <g transform="translate(354.889006 322.182437)scale(0.1 -0.1)">
       <use xlink:href="#DejaVuSans-33"/>
       <use xlink:href="#DejaVuSans-36" x="63.623047"/>
       <use xlink:href="#DejaVuSans-2e" x="127.246094"/>
       <use xlink:href="#DejaVuSans-30" x="159.033203"/>
      </g>
     </g>
    </g>
    <g id="xtick_14">
     <g id="line2d_14">
      <g>
       <use xlink:href="#m5c4f4b7706" x="390.370909" y="307.584" style="stroke: #000000; stroke-width: 0.8"/>
      </g>
     </g>
     <g id="text_14">
      <!-- 39.0 -->
      <g transform="translate(379.238097 322.182437)scale(0.1 -0.1)">
       <use xlink:href="#DejaVuSans-33"/>
       <use xlink:href="#DejaVuSans-39" x="63.623047"/>
       <use xlink:href="#DejaVuSans-2e" x="127.246094"/>
       <use xlink:href="#DejaVuSans-30" x="159.033203"/>
      </g>
     </g>
    </g>
    <g id="text_15">
     <!-- time(s) -->
     <g transform="translate(218.357656 335.860562)scale(0.1 -0.1)">
      <defs>
       <path id="DejaVuSans-74" d="M 1172 4494 
L 1172 3500 
L 2356 3500 
L 2356 3053 
L 1172 3053 
L 1172 1153 
Q 1172 725 1289 603 
Q 1406 481 1766 481 
L 2356 481 
L 2356 0 
L 1766 0 
Q 1100 0 847 248 
Q 594 497 594 1153 
L 594 3053 
L 172 3053 
L 172 3500 
L 594 3500 
L 594 4494 
L 1172 4494 
z
" transform="scale(0.015625)"/>
       <path id="DejaVuSans-69" d="M 603 3500 
L 1178 3500 
L 1178 0 
L 603 0 
L 603 3500 
z
M 603 4863 
L 1178 4863 
L 1178 4134 
L 603 4134 
L 603 4863 
z
" transform="scale(0.015625)"/>
       <path id="DejaVuSans-6d" d="M 3328 2828 
Q 3544 3216 3844 3400 
Q 4144 3584 4550 3584 
Q 5097 3584 5394 3201 
Q 5691 2819 5691 2113 
L 5691 0 
L 5113 0 
L 5113 2094 
Q 5113 2597 4934 2840 
Q 4756 3084 4391 3084 
Q 3944 3084 3684 2787 
Q 3425 2491 3425 1978 
L 3425 0 
L 2847 0 
L 2847 2094 
Q 2847 2600 2669 2842 
Q 2491 3084 2119 3084 
Q 1678 3084 1418 2786 
Q 1159 2488 1159 1978 
L 1159 0 
L 581 0 
L 581 3500 
L 1159 3500 
L 1159 2956 
Q 1356 3278 1631 3431 
Q 1906 3584 2284 3584 
Q 2666 3584 2933 3390 
Q 3200 3197 3328 2828 
z
" transform="scale(0.015625)"/>
       <path id="DejaVuSans-65" d="M 3597 1894 
L 3597 1613 
L 953 1613 
Q 991 1019 1311 708 
Q 1631 397 2203 397 
Q 2534 397 2845 478 
Q 3156 559 3463 722 
L 3463 178 
Q 3153 47 2828 -22 
Q 2503 -91 2169 -91 
Q 1331 -91 842 396 
Q 353 884 353 1716 
Q 353 2575 817 3079 
Q 1281 3584 2069 3584 
Q 2775 3584 3186 3129 
Q 3597 2675 3597 1894 
z
M 3022 2063 
Q 3016 2534 2758 2815 
Q 2500 3097 2075 3097 
Q 1594 3097 1305 2825 
Q 1016 2553 972 2059 
L 3022 2063 
z
" transform="scale(0.015625)"/>
       <path id="DejaVuSans-28" d="M 1984 4856 
Q 1566 4138 1362 3434 
Q 1159 2731 1159 2009 
Q 1159 1288 1364 580 
Q 1569 -128 1984 -844 
L 1484 -844 
Q 1016 -109 783 600 
Q 550 1309 550 2009 
Q 550 2706 781 3412 
Q 1013 4119 1484 4856 
L 1984 4856 
z
" transform="scale(0.015625)"/>
       <path id="DejaVuSans-73" d="M 2834 3397 
L 2834 2853 
Q 2591 2978 2328 3040 
Q 2066 3103 1784 3103 
Q 1356 3103 1142 2972 
Q 928 2841 928 2578 
Q 928 2378 1081 2264 
Q 1234 2150 1697 2047 
L 1894 2003 
Q 2506 1872 2764 1633 
Q 3022 1394 3022 966 
Q 3022 478 2636 193 
Q 2250 -91 1575 -91 
Q 1294 -91 989 -36 
Q 684 19 347 128 
L 347 722 
Q 666 556 975 473 
Q 1284 391 1588 391 
Q 1994 391 2212 530 
Q 2431 669 2431 922 
Q 2431 1156 2273 1281 
Q 2116 1406 1581 1522 
L 1381 1569 
Q 847 1681 609 1914 
Q 372 2147 372 2553 
Q 372 3047 722 3315 
Q 1072 3584 1716 3584 
Q 2034 3584 2315 3537 
Q 2597 3491 2834 3397 
z
" transform="scale(0.015625)"/>
       <path id="DejaVuSans-29" d="M 513 4856 
L 1013 4856 
Q 1481 4119 1714 3412 
Q 1947 2706 1947 2009 
Q 1947 1309 1714 600 
Q 1481 -109 1013 -844 
L 513 -844 
Q 928 -128 1133 580 
Q 1338 1288 1338 2009 
Q 1338 2731 1133 3434 
Q 928 4138 513 4856 
z
" transform="scale(0.015625)"/>
      </defs>
      <use xlink:href="#DejaVuSans-74"/>
      <use xlink:href="#DejaVuSans-69" x="39.208984"/>
      <use xlink:href="#DejaVuSans-6d" x="66.992188"/>
      <use xlink:href="#DejaVuSans-65" x="164.404297"/>
      <use xlink:href="#DejaVuSans-28" x="225.927734"/>
      <use xlink:href="#DejaVuSans-73" x="264.941406"/>
      <use xlink:href="#DejaVuSans-29" x="317.041016"/>
     </g>
    </g>
   </g>
   <g id="matplotlib.axis_2">
    <g id="ytick_1">
     <g id="line2d_15">
      <defs>
       <path id="m694fd863c5" d="M 0 0 
L -3.5 0 
" style="stroke: #000000; stroke-width: 0.8"/>
      </defs>
      <g>
       <use xlink:href="#m694fd863c5" x="57.6" y="288.541259" style="stroke: #000000; stroke-width: 0.8"/>
      </g>
     </g>
     <g id="text_16">
      <!-- −1.0 -->
      <g transform="translate(26.317187 292.340478)scale(0.1 -0.1)">
       <defs>
        <path id="DejaVuSans-2212" d="M 678 2272 
L 4684 2272 
L 4684 1741 
L 678 1741 
L 678 2272 
z
" transform="scale(0.015625)"/>
       </defs>
       <use xlink:href="#DejaVuSans-2212"/>
       <use xlink:href="#DejaVuSans-31" x="83.789062"/>
       <use xlink:href="#DejaVuSans-2e" x="147.412109"/>
       <use xlink:href="#DejaVuSans-30" x="179.199219"/>
      </g>
     </g>
    </g>
    <g id="ytick_2">
     <g id="line2d_16">
      <g>
       <use xlink:href="#m694fd863c5" x="57.6" y="229.77072" style="stroke: #000000; stroke-width: 0.8"/>
      </g>
     </g>
     <g id="text_17">
      <!-- −0.5 -->
      <g transform="translate(26.317187 233.569939)scale(0.1 -0.1)">
       <use xlink:href="#DejaVuSans-2212"/>
       <use xlink:href="#DejaVuSans-30" x="83.789062"/>
       <use xlink:href="#DejaVuSans-2e" x="147.412109"/>
       <use xlink:href="#DejaVuSans-35" x="179.199219"/>
      </g>
     </g>
    </g>
    <g id="ytick_3">
     <g id="line2d_17">
      <g>
       <use xlink:href="#m694fd863c5" x="57.6" y="171.000181" style="stroke: #000000; stroke-width: 0.8"/>
      </g>
     </g>
     <g id="text_18">
      <!-- 0.0 -->
      <g transform="translate(34.696875 174.7994)scale(0.1 -0.1)">
       <use xlink:href="#DejaVuSans-30"/>
       <use xlink:href="#DejaVuSans-2e" x="63.623047"/>
       <use xlink:href="#DejaVuSans-30" x="95.410156"/>
      </g>
     </g>
    </g>
    <g id="ytick_4">
     <g id="line2d_18">
      <g>
       <use xlink:href="#m694fd863c5" x="57.6" y="112.229642" style="stroke: #000000; stroke-width: 0.8"/>
      </g>
     </g>
     <g id="text_19">
      <!-- 0.5 -->
      <g transform="translate(34.696875 116.028861)scale(0.1 -0.1)">
       <use xlink:href="#DejaVuSans-30"/>
       <use xlink:href="#DejaVuSans-2e" x="63.623047"/>
       <use xlink:href="#DejaVuSans-35" x="95.410156"/>
      </g>
     </g>
    </g>
    <g id="ytick_5">
     <g id="line2d_19">
      <g>
       <use xlink:href="#m694fd863c5" x="57.6" y="53.459103" style="stroke: #000000; stroke-width: 0.8"/>
      </g>
     </g>
     <g id="text_20">
      <!-- 1.0 -->
      <g transform="translate(34.696875 57.258322)scale(0.1 -0.1)">
       <use xlink:href="#DejaVuSans-31"/>
       <use xlink:href="#DejaVuSans-2e" x="63.623047"/>
       <use xlink:href="#DejaVuSans-30" x="95.410156"/>
      </g>
     </g>
    </g>
    <g id="text_21">
     <!-- $|e_{ri}|$ -->
     <g transform="translate(19.917187 183.528)rotate(-90)scale(0.1 -0.1)">
      <defs>
       <path id="DejaVuSans-7c" d="M 1344 4891 
L 1344 -1509 
L 813 -1509 
L 813 4891 
L 1344 4891 
z
" transform="scale(0.015625)"/>
       <path id="DejaVuSans-Oblique-65" d="M 3078 2063 
Q 3088 2113 3092 2166 
Q 3097 2219 3097 2272 
Q 3097 2653 2873 2875 
Q 2650 3097 2266 3097 
Q 1838 3097 1509 2826 
Q 1181 2556 1013 2059 
L 3078 2063 
z
M 3578 1613 
L 903 1613 
Q 884 1494 878 1425 
Q 872 1356 872 1306 
Q 872 872 1139 634 
Q 1406 397 1894 397 
Q 2269 397 2603 481 
Q 2938 566 3225 728 
L 3116 159 
Q 2806 34 2476 -28 
Q 2147 -91 1806 -91 
Q 1078 -91 686 257 
Q 294 606 294 1247 
Q 294 1794 489 2264 
Q 684 2734 1063 3103 
Q 1306 3334 1642 3459 
Q 1978 3584 2356 3584 
Q 2950 3584 3301 3228 
Q 3653 2872 3653 2272 
Q 3653 2128 3634 1964 
Q 3616 1800 3578 1613 
z
" transform="scale(0.015625)"/>
       <path id="DejaVuSans-Oblique-72" d="M 2853 2969 
Q 2766 3016 2653 3041 
Q 2541 3066 2413 3066 
Q 1953 3066 1609 2717 
Q 1266 2369 1153 1784 
L 800 0 
L 225 0 
L 909 3500 
L 1484 3500 
L 1375 2956 
Q 1603 3259 1920 3421 
Q 2238 3584 2597 3584 
Q 2691 3584 2781 3573 
Q 2872 3563 2963 3538 
L 2853 2969 
z
" transform="scale(0.015625)"/>
       <path id="DejaVuSans-Oblique-69" d="M 1172 4863 
L 1747 4863 
L 1606 4134 
L 1031 4134 
L 1172 4863 
z
M 909 3500 
L 1484 3500 
L 800 0 
L 225 0 
L 909 3500 
z
" transform="scale(0.015625)"/>
      </defs>
      <use xlink:href="#DejaVuSans-7c" transform="translate(0 0.578125)"/>
      <use xlink:href="#DejaVuSans-Oblique-65" transform="translate(33.691406 0.578125)"/>
      <use xlink:href="#DejaVuSans-Oblique-72" transform="translate(95.214844 -15.828125)scale(0.7)"/>
      <use xlink:href="#DejaVuSans-Oblique-69" transform="translate(123.994141 -15.828125)scale(0.7)"/>
      <use xlink:href="#DejaVuSans-7c" transform="translate(146.176758 0.578125)"/>
     </g>
    </g>
   </g>
   <g id="line2d_20">
    <path d="M 73.832727 171.000181 
L 74.644364 175.864256 
L 75.456 175.274681 
L 77.079273 173.261822 
L 77.890909 172.479068 
L 78.702545 171.852311 
L 79.514182 171.378435 
L 80.325818 171.052565 
L 81.137455 170.868201 
L 81.949091 170.817256 
L 82.760727 170.890156 
L 84.384 171.362288 
L 86.007273 172.1823 
L 88.442182 173.806052 
L 91.688727 176.05599 
L 93.312 176.960473 
L 94.935273 177.596862 
L 96.558545 177.904512 
L 98.181818 177.850188 
L 99.805091 177.428275 
L 101.428364 176.658997 
L 103.051636 175.58505 
L 104.674909 174.266906 
L 107.109818 171.992522 
L 111.979636 167.334995 
L 114.414545 165.408165 
L 116.037818 164.381066 
L 117.661091 163.588161 
L 119.284364 163.037853 
L 120.907636 162.726135 
L 122.530909 162.638814 
L 124.154182 162.754014 
L 125.777455 163.044801 
L 128.212364 163.745383 
L 131.458909 165.018845 
L 137.140364 167.628651 
L 142.821818 170.137416 
L 146.88 171.678524 
L 150.938182 172.956102 
L 154.184727 173.772988 
L 157.431273 174.395907 
L 160.677818 174.811521 
L 163.924364 175.00385 
L 167.170909 174.95665 
L 170.417455 174.657781 
L 173.664 174.105049 
L 176.910545 173.312592 
L 180.968727 172.042007 
L 193.954909 167.632171 
L 196.389818 167.124248 
L 198.824727 166.823447 
L 201.259636 166.759489 
L 203.694545 166.950539 
L 206.129455 167.401874 
L 208.564364 168.105503 
L 210.999273 169.040763 
L 214.245818 170.591427 
L 218.304 172.872107 
L 227.232 178.085224 
L 230.478545 179.65001 
L 232.913455 180.596571 
L 235.348364 181.307452 
L 236.16 171.000181 
L 398.487273 171.000181 
L 398.487273 171.000181 
" clip-path="url(#pd666d34c3f)" style="fill: none; stroke: #1f77b4; stroke-width: 1.5; stroke-linecap: square"/>
   </g>
   <g id="line2d_21">
    <path d="M 73.832727 171.000181 
L 74.644364 173.412177 
L 76.267636 181.235389 
L 77.079273 180.406491 
L 77.890909 181.129023 
L 78.702545 179.303772 
L 79.514182 179.049236 
L 80.325818 177.037367 
L 81.137455 176.119892 
L 81.949091 174.109513 
L 82.760727 172.805498 
L 83.572364 170.938937 
L 86.818909 165.51451 
L 88.442182 163.867996 
L 89.253818 163.389687 
L 90.065455 163.116452 
L 90.877091 163.074897 
L 91.688727 163.229841 
L 92.500364 163.573068 
L 93.312 164.074531 
L 94.935273 165.457419 
L 97.370182 168.09816 
L 101.428364 172.686878 
L 103.051636 174.242284 
L 104.674909 175.476885 
L 106.298182 176.285048 
L 107.109818 176.499264 
L 107.921455 176.573718 
L 108.733091 176.501432 
L 109.544727 176.278114 
L 110.356364 175.903251 
L 111.168 175.380307 
L 112.791273 173.927361 
L 114.414545 172.039234 
L 120.096 164.812508 
L 121.719273 163.356402 
L 123.342545 162.391352 
L 124.154182 162.102073 
L 124.965818 161.939142 
L 125.777455 161.896704 
L 127.400727 162.13809 
L 129.024 162.739154 
L 130.647273 163.599206 
L 133.082182 165.161727 
L 137.952 168.363212 
L 140.386909 169.710939 
L 142.821818 170.806226 
L 145.256727 171.635819 
L 147.691636 172.209321 
L 150.126545 172.554247 
L 153.373091 172.737207 
L 166.359273 173.005194 
L 171.229091 173.24302 
L 174.475636 173.178297 
L 177.722182 172.881671 
L 181.780364 172.237389 
L 186.650182 171.175096 
L 194.766545 169.288477 
L 198.013091 168.766856 
L 201.259636 168.457626 
L 204.506182 168.391252 
L 206.941091 168.533006 
L 209.376 168.865749 
L 211.810909 169.39922 
L 215.057455 170.397306 
L 219.115636 171.9755 
L 228.043636 175.645955 
L 231.290182 176.700828 
L 233.725091 177.296293 
L 235.348364 177.580441 
L 236.16 187.515731 
L 236.971636 185.881744 
L 237.783273 185.287505 
L 239.406545 184.648912 
L 240.218182 184.173128 
L 241.029818 183.526794 
L 242.653091 181.749126 
L 244.276364 179.453958 
L 246.711273 175.449723 
L 249.957818 170.013296 
L 251.581091 167.594229 
L 253.204364 165.520967 
L 254.827636 163.860963 
L 256.450909 162.647487 
L 258.074182 161.880707 
L 259.697455 161.530206 
L 261.320727 161.539283 
L 262.944 161.831412 
L 265.378909 162.6071 
L 270.248727 164.350943 
L 272.683636 164.945189 
L 275.118545 165.285705 
L 278.365091 165.471877 
L 282.423273 165.677178 
L 284.858182 165.970543 
L 287.293091 166.448605 
L 290.539636 167.345765 
L 296.221091 169.263834 
L 301.090909 170.797881 
L 305.149091 171.80639 
L 309.207273 172.541287 
L 313.265455 173.028889 
L 317.323636 173.306329 
L 322.193455 173.400492 
L 327.063273 173.247323 
L 331.121455 172.91911 
L 335.179636 172.396154 
L 340.049455 171.527988 
L 353.035636 168.938733 
L 356.282182 168.608605 
L 358.717091 168.54074 
L 361.152 168.652823 
L 363.586909 168.957826 
L 366.021818 169.457113 
L 369.268364 170.403817 
L 372.514909 171.613799 
L 377.384727 173.70899 
L 382.254545 175.773215 
L 385.501091 176.920383 
L 387.936 177.580349 
L 390.370909 178.027475 
L 392.805818 178.236356 
L 395.240727 178.193676 
L 397.675636 177.89867 
L 398.487273 177.745924 
L 398.487273 177.745924 
" clip-path="url(#pd666d34c3f)" style="fill: none; stroke: #ff7f0e; stroke-width: 1.5; stroke-linecap: square"/>
   </g>
   <g id="line2d_22">
    <path d="M 73.832727 171.000181 
L 74.644364 169.725706 
L 75.456 176.275484 
L 76.267636 176.322171 
L 77.079273 177.385346 
L 77.890909 175.501916 
L 78.702545 175.892636 
L 79.514182 174.381234 
L 80.325818 174.595356 
L 81.137455 173.554497 
L 81.949091 173.59393 
L 82.760727 172.848436 
L 83.572364 172.683472 
L 84.384 172.048694 
L 85.195636 171.674263 
L 90.065455 167.905414 
L 91.688727 166.91787 
L 92.500364 166.600652 
L 93.312 166.436003 
L 94.123636 166.436309 
L 94.935273 166.611722 
L 95.746909 166.960346 
L 96.558545 167.472785 
L 98.181818 168.905373 
L 103.051636 174.037537 
L 103.863273 174.642088 
L 104.674909 175.103512 
L 105.486545 175.408939 
L 106.298182 175.552797 
L 107.109818 175.536148 
L 107.921455 175.366593 
L 108.733091 175.056861 
L 110.356364 174.089272 
L 111.979636 172.800124 
L 117.661091 167.972575 
L 119.284364 166.887161 
L 120.907636 165.999496 
L 122.530909 165.315488 
L 124.154182 164.834986 
L 125.777455 164.554538 
L 127.400727 164.466775 
L 129.024 164.557943 
L 131.458909 164.979366 
L 134.705455 165.895963 
L 141.198545 167.874186 
L 144.445091 168.57939 
L 147.691636 169.06456 
L 160.677818 170.691956 
L 174.475636 172.928725 
L 178.533818 173.348266 
L 182.592 173.515029 
L 187.461818 173.441949 
L 193.143273 173.117537 
L 206.941091 172.10025 
L 210.999273 172.182627 
L 215.057455 172.492398 
L 219.115636 173.028668 
L 223.985455 173.908614 
L 231.290182 175.228012 
L 234.536727 175.605081 
L 235.348364 175.66758 
L 236.16 172.358584 
L 236.971636 175.236175 
L 237.783273 176.918274 
L 238.594909 176.510999 
L 239.406545 177.563655 
L 240.218182 177.897996 
L 241.029818 179.006216 
L 241.841455 179.876381 
L 243.464727 182.082702 
L 244.276364 183.152821 
L 245.899636 184.727953 
L 246.711273 185.154979 
L 247.522909 185.348154 
L 248.334545 185.186902 
L 249.146182 184.740783 
L 249.957818 183.924166 
L 250.769455 182.830422 
L 252.392727 179.755454 
L 254.016 175.855604 
L 257.262545 167.513333 
L 258.885818 164.015724 
L 259.697455 162.58182 
L 260.509091 161.434003 
L 261.320727 160.541278 
L 262.132364 159.94995 
L 262.944 159.633011 
L 263.755636 159.599135 
L 264.567273 159.817389 
L 265.378909 160.267095 
L 266.190545 160.907875 
L 267.813818 162.593643 
L 271.060364 166.277649 
L 272.683636 167.681996 
L 274.306909 168.605718 
L 275.930182 169.063599 
L 277.553455 169.15162 
L 279.176727 169.000506 
L 288.916364 167.583885 
L 294.597818 167.053097 
L 297.844364 166.951806 
L 300.279273 167.05532 
L 302.714182 167.332179 
L 305.960727 167.939387 
L 314.888727 169.883813 
L 318.135273 170.283396 
L 327.063273 171.194923 
L 336.802909 172.695961 
L 340.861091 172.871807 
L 351.412364 173.040721 
L 355.470545 172.757901 
L 360.340364 172.394028 
L 363.586909 172.407604 
L 367.645091 172.68897 
L 376.573091 173.58189 
L 380.631273 174.250023 
L 389.559273 175.940753 
L 392.805818 176.226844 
L 396.052364 176.227688 
L 398.487273 176.046535 
L 398.487273 176.046535 
" clip-path="url(#pd666d34c3f)" style="fill: none; stroke: #2ca02c; stroke-width: 1.5; stroke-linecap: square"/>
   </g>
   <g id="line2d_23">
    <path d="M 73.832727 171.000181 
L 74.644364 166.957496 
L 75.456 173.162043 
L 76.267636 174.992282 
L 77.079273 174.089246 
L 77.890909 175.484328 
L 78.702545 173.374717 
L 79.514182 174.52442 
L 80.325818 172.547406 
L 81.137455 173.152919 
L 81.949091 171.611342 
L 82.760727 171.749565 
L 83.572364 170.651723 
L 84.384 170.534541 
L 85.195636 169.817655 
L 86.007273 169.639653 
L 86.818909 169.230217 
L 89.253818 168.90819 
L 90.877091 168.942205 
L 94.123636 169.302842 
L 97.370182 169.778779 
L 99.805091 170.395262 
L 102.24 171.372175 
L 105.486545 172.835075 
L 107.109818 173.304985 
L 108.733091 173.4044 
L 109.544727 173.287251 
L 111.168 172.712296 
L 112.791273 171.746723 
L 118.472727 167.724382 
L 120.096 167.04588 
L 121.719273 166.693974 
L 123.342545 166.625457 
L 125.777455 166.8728 
L 137.952 168.941912 
L 149.314909 171.313785 
L 153.373091 171.758227 
L 159.866182 172.428548 
L 171.229091 173.919845 
L 176.910545 174.16207 
L 183.403636 174.310282 
L 186.650182 174.132037 
L 190.708364 173.623917 
L 197.201455 172.803 
L 210.187636 171.48221 
L 213.434182 171.573345 
L 216.680727 171.894894 
L 222.362182 172.736132 
L 233.725091 174.513213 
L 235.348364 174.658444 
L 236.16 171.000181 
L 398.487273 171.000181 
L 398.487273 171.000181 
" clip-path="url(#pd666d34c3f)" style="fill: none; stroke: #d62728; stroke-width: 1.5; stroke-linecap: square"/>
   </g>
   <g id="line2d_24">
    <path d="M 73.832727 171.000181 
L 74.644364 167.658545 
L 75.456 171.297239 
L 76.267636 175.490762 
L 77.079273 175.034424 
L 77.890909 174.09418 
L 78.702545 175.076837 
L 79.514182 172.578315 
L 80.325818 173.710725 
L 81.137455 171.256229 
L 81.949091 171.832756 
L 82.760727 169.92092 
L 83.572364 169.963668 
L 84.384 168.6299 
L 85.195636 168.40534 
L 86.007273 167.573436 
L 86.818909 167.345982 
L 87.630545 166.941977 
L 89.253818 166.844337 
L 90.877091 167.27076 
L 92.500364 168.097163 
L 96.558545 170.580624 
L 98.181818 171.271721 
L 99.805091 171.67408 
L 101.428364 171.830336 
L 110.356364 171.934435 
L 111.979636 171.781069 
L 113.602909 171.363113 
L 115.226182 170.642279 
L 116.849455 169.662439 
L 120.907636 166.938137 
L 122.530909 166.132285 
L 124.154182 165.645381 
L 125.777455 165.500119 
L 127.400727 165.657955 
L 129.024 166.036208 
L 136.328727 168.127301 
L 139.575273 168.65467 
L 146.88 169.671519 
L 150.938182 170.509216 
L 155.808 171.53662 
L 159.054545 171.954568 
L 163.112727 172.145785 
L 166.359273 172.320373 
L 169.605818 172.750161 
L 174.475636 173.538821 
L 176.910545 173.671021 
L 179.345455 173.56555 
L 184.215273 173.226238 
L 187.461818 173.278332 
L 190.708364 173.320558 
L 193.143273 173.1134 
L 196.389818 172.537954 
L 199.636364 172.006042 
L 202.071273 171.825574 
L 210.999273 171.479354 
L 215.057455 171.220693 
L 217.492364 171.262824 
L 220.738909 171.561612 
L 229.666909 172.570207 
L 235.348364 173.098407 
L 236.16 167.99394 
L 236.971636 173.976281 
L 237.783273 174.569553 
L 238.594909 175.909094 
L 239.406545 176.049865 
L 240.218182 176.849056 
L 241.029818 177.324691 
L 242.653091 178.72304 
L 243.464727 179.422909 
L 245.088 180.450747 
L 245.899636 180.741428 
L 246.711273 180.897685 
L 247.522909 180.838708 
L 248.334545 180.620838 
L 249.146182 180.195611 
L 249.957818 179.62803 
L 251.581091 178.046518 
L 254.016 174.976866 
L 258.074182 169.620621 
L 259.697455 167.786607 
L 261.320727 166.280694 
L 262.944 165.16178 
L 264.567273 164.455451 
L 266.190545 164.154523 
L 267.813818 164.223929 
L 269.437091 164.607167 
L 271.060364 165.230041 
L 274.306909 166.824506 
L 276.741818 167.937842 
L 278.365091 168.491531 
L 279.988364 168.848969 
L 281.611636 169.009551 
L 284.046545 168.945061 
L 287.293091 168.535551 
L 291.351273 168.011505 
L 294.597818 167.848994 
L 297.844364 167.975091 
L 301.090909 168.346886 
L 305.149091 169.043938 
L 317.323636 171.336493 
L 322.193455 171.934529 
L 329.498182 172.555709 
L 336.802909 172.993295 
L 341.672727 173.068338 
L 346.542545 172.9223 
L 367.645091 171.958706 
L 372.514909 172.050011 
L 377.384727 172.34548 
L 383.877818 172.98167 
L 391.994182 173.760757 
L 396.052364 173.928053 
L 398.487273 173.906187 
L 398.487273 173.906187 
" clip-path="url(#pd666d34c3f)" style="fill: none; stroke: #9467bd; stroke-width: 1.5; stroke-linecap: square"/>
   </g>
   <g id="line2d_25">
    <path d="M 73.832727 171.000181 
L 74.644364 172.457673 
L 75.456 175.268227 
L 77.079273 179.946332 
L 77.890909 179.34296 
L 78.702545 178.505023 
L 79.514182 179.136453 
L 80.325818 177.608822 
L 81.137455 178.356819 
L 81.949091 176.854866 
L 82.760727 177.056199 
L 83.572364 175.626899 
L 84.384 175.162553 
L 85.195636 173.727539 
L 86.007273 172.754194 
L 86.818909 171.306547 
L 90.065455 166.396911 
L 90.877091 165.473176 
L 91.688727 164.737676 
L 92.500364 164.255078 
L 93.312 164.026087 
L 94.123636 164.069869 
L 94.935273 164.376393 
L 95.746909 164.933083 
L 96.558545 165.711217 
L 98.181818 167.782226 
L 102.24 173.774005 
L 103.863273 175.597804 
L 104.674909 176.274151 
L 105.486545 176.779966 
L 106.298182 177.115201 
L 107.109818 177.287115 
L 107.921455 177.308878 
L 109.544727 176.976568 
L 111.168 176.286485 
L 113.602909 174.923206 
L 119.284364 171.407655 
L 124.965818 167.768895 
L 126.589091 166.938767 
L 128.212364 166.326013 
L 129.835636 165.975242 
L 131.458909 165.899777 
L 133.082182 166.081303 
L 134.705455 166.475658 
L 137.140364 167.329182 
L 142.010182 169.140294 
L 144.445091 169.750249 
L 146.88 170.092425 
L 154.996364 170.822537 
L 157.431273 171.398314 
L 162.301091 172.708373 
L 164.736 173.091816 
L 167.170909 173.221111 
L 172.040727 173.351447 
L 174.475636 173.723713 
L 177.722182 174.542879 
L 180.157091 175.106739 
L 181.780364 175.327638 
L 184.215273 175.380957 
L 190.708364 175.141209 
L 194.766545 175.503423 
L 197.201455 175.6093 
L 199.636364 175.421063 
L 202.882909 174.813706 
L 206.129455 174.225844 
L 208.564364 173.985781 
L 219.115636 173.300983 
L 222.362182 173.109552 
L 224.797091 173.173969 
L 227.232 173.433322 
L 231.290182 174.139771 
L 235.348364 174.891937 
L 236.16 168.998447 
L 236.971636 174.649016 
L 237.783273 177.87673 
L 238.594909 178.155163 
L 239.406545 179.103307 
L 240.218182 179.714376 
L 242.653091 183.472499 
L 245.088 187.313477 
L 245.899636 188.354486 
L 246.711273 189.152205 
L 247.522909 189.732345 
L 248.334545 190.019169 
L 249.146182 190.042922 
L 249.957818 189.749974 
L 250.769455 189.182904 
L 251.581091 188.303587 
L 252.392727 187.172043 
L 254.016 184.152227 
L 255.639273 180.374033 
L 261.320727 166.00871 
L 262.944 162.899944 
L 263.755636 161.661852 
L 264.567273 160.652096 
L 265.378909 159.884656 
L 266.190545 159.358774 
L 267.002182 159.071998 
L 267.813818 159.013078 
L 268.625455 159.166293 
L 269.437091 159.510202 
L 270.248727 160.019618 
L 271.872 161.420401 
L 274.306909 164.029257 
L 276.741818 166.606258 
L 278.365091 168.045803 
L 279.988364 169.161308 
L 281.611636 169.924989 
L 283.234909 170.351626 
L 284.858182 170.486978 
L 286.481455 170.395881 
L 288.916364 169.992372 
L 294.597818 168.861556 
L 297.032727 168.591535 
L 299.467636 168.511598 
L 301.902545 168.613272 
L 305.149091 168.983954 
L 309.207273 169.701218 
L 319.758545 171.723146 
L 324.628364 172.377069 
L 341.672727 174.19927 
L 346.542545 174.54757 
L 352.224 174.717714 
L 363.586909 174.761136 
L 374.949818 174.844282 
L 379.819636 175.109344 
L 385.501091 175.664908 
L 393.617455 176.499024 
L 396.864 176.614104 
L 398.487273 176.583348 
L 398.487273 176.583348 
" clip-path="url(#pd666d34c3f)" style="fill: none; stroke: #8c564b; stroke-width: 1.5; stroke-linecap: square"/>
   </g>
   <g id="patch_3">
    <path d="M 57.6 307.584 
L 57.6 41.472 
" style="fill: none; stroke: #000000; stroke-width: 0.8; stroke-linejoin: miter; stroke-linecap: square"/>
   </g>
   <g id="patch_4">
    <path d="M 414.72 307.584 
L 414.72 41.472 
" style="fill: none; stroke: #000000; stroke-width: 0.8; stroke-linejoin: miter; stroke-linecap: square"/>
   </g>
   <g id="patch_5">
    <path d="M 57.6 307.584 
L 414.72 307.584 
" style="fill: none; stroke: #000000; stroke-width: 0.8; stroke-linejoin: miter; stroke-linecap: square"/>
   </g>
   <g id="patch_6">
    <path d="M 57.6 41.472 
L 414.72 41.472 
" style="fill: none; stroke: #000000; stroke-width: 0.8; stroke-linejoin: miter; stroke-linecap: square"/>
   </g>
   <g id="text_22">
    <!-- node failure -->
    <g transform="translate(154.996364 218.016612)scale(0.1 -0.1)">
     <defs>
      <path id="DejaVuSans-Oblique-6e" d="M 3566 2113 
L 3156 0 
L 2578 0 
L 2988 2091 
Q 3016 2238 3031 2350 
Q 3047 2463 3047 2528 
Q 3047 2791 2881 2937 
Q 2716 3084 2419 3084 
Q 1956 3084 1622 2776 
Q 1288 2469 1184 1941 
L 800 0 
L 225 0 
L 903 3500 
L 1478 3500 
L 1363 2950 
Q 1603 3253 1940 3418 
Q 2278 3584 2650 3584 
Q 3113 3584 3367 3334 
Q 3622 3084 3622 2631 
Q 3622 2519 3608 2391 
Q 3594 2263 3566 2113 
z
" transform="scale(0.015625)"/>
      <path id="DejaVuSans-Oblique-6f" d="M 1625 -91 
Q 1009 -91 651 289 
Q 294 669 294 1325 
Q 294 1706 417 2101 
Q 541 2497 738 2766 
Q 1047 3184 1428 3384 
Q 1809 3584 2291 3584 
Q 2888 3584 3255 3212 
Q 3622 2841 3622 2241 
Q 3622 1825 3500 1412 
Q 3378 1000 3181 728 
Q 2875 309 2494 109 
Q 2113 -91 1625 -91 
z
M 891 1344 
Q 891 869 1089 633 
Q 1288 397 1691 397 
Q 2269 397 2648 901 
Q 3028 1406 3028 2181 
Q 3028 2634 2825 2865 
Q 2622 3097 2228 3097 
Q 1903 3097 1650 2945 
Q 1397 2794 1197 2484 
Q 1050 2253 970 1956 
Q 891 1659 891 1344 
z
" transform="scale(0.015625)"/>
      <path id="DejaVuSans-Oblique-64" d="M 2675 525 
Q 2444 222 2128 65 
Q 1813 -91 1428 -91 
Q 903 -91 598 267 
Q 294 625 294 1247 
Q 294 1766 478 2236 
Q 663 2706 1013 3078 
Q 1244 3325 1534 3454 
Q 1825 3584 2144 3584 
Q 2481 3584 2739 3421 
Q 2997 3259 3138 2956 
L 3513 4863 
L 4091 4863 
L 3144 0 
L 2566 0 
L 2675 525 
z
M 891 1350 
Q 891 897 1095 644 
Q 1300 391 1663 391 
Q 1931 391 2161 520 
Q 2391 650 2566 903 
Q 2750 1166 2856 1509 
Q 2963 1853 2963 2188 
Q 2963 2622 2758 2865 
Q 2553 3109 2194 3109 
Q 1922 3109 1687 2981 
Q 1453 2853 1288 2613 
Q 1106 2353 998 2009 
Q 891 1666 891 1350 
z
" transform="scale(0.015625)"/>
      <path id="DejaVuSans-Oblique-20" transform="scale(0.015625)"/>
      <path id="DejaVuSans-Oblique-66" d="M 3059 4863 
L 2969 4384 
L 2419 4384 
Q 2106 4384 1964 4261 
Q 1822 4138 1753 3809 
L 1691 3500 
L 2638 3500 
L 2553 3053 
L 1606 3053 
L 1013 0 
L 434 0 
L 1031 3053 
L 481 3053 
L 563 3500 
L 1113 3500 
L 1159 3744 
Q 1278 4363 1576 4613 
Q 1875 4863 2516 4863 
L 3059 4863 
z
" transform="scale(0.015625)"/>
      <path id="DejaVuSans-Oblique-61" d="M 3438 1997 
L 3047 0 
L 2472 0 
L 2578 531 
Q 2325 219 2001 64 
Q 1678 -91 1281 -91 
Q 834 -91 548 182 
Q 263 456 263 884 
Q 263 1497 752 1853 
Q 1241 2209 2100 2209 
L 2900 2209 
L 2931 2363 
Q 2938 2388 2941 2417 
Q 2944 2447 2944 2509 
Q 2944 2788 2717 2942 
Q 2491 3097 2081 3097 
Q 1800 3097 1504 3025 
Q 1209 2953 897 2809 
L 997 3341 
Q 1322 3463 1633 3523 
Q 1944 3584 2234 3584 
Q 2853 3584 3176 3315 
Q 3500 3047 3500 2534 
Q 3500 2431 3484 2292 
Q 3469 2153 3438 1997 
z
M 2816 1759 
L 2241 1759 
Q 1534 1759 1195 1570 
Q 856 1381 856 984 
Q 856 709 1029 553 
Q 1203 397 1509 397 
Q 1978 397 2328 733 
Q 2678 1069 2791 1631 
L 2816 1759 
z
" transform="scale(0.015625)"/>
      <path id="DejaVuSans-Oblique-6c" d="M 1172 4863 
L 1747 4863 
L 800 0 
L 225 0 
L 1172 4863 
z
" transform="scale(0.015625)"/>
      <path id="DejaVuSans-Oblique-75" d="M 428 1388 
L 838 3500 
L 1416 3500 
L 1006 1409 
Q 975 1256 961 1147 
Q 947 1038 947 966 
Q 947 700 1109 554 
Q 1272 409 1569 409 
Q 2031 409 2368 721 
Q 2706 1034 2809 1563 
L 3194 3500 
L 3769 3500 
L 3091 0 
L 2516 0 
L 2631 550 
Q 2388 244 2052 76 
Q 1716 -91 1338 -91 
Q 878 -91 622 161 
Q 366 413 366 863 
Q 366 956 381 1097 
Q 397 1238 428 1388 
z
" transform="scale(0.015625)"/>
     </defs>
     <use xlink:href="#DejaVuSans-Oblique-6e"/>
     <use xlink:href="#DejaVuSans-Oblique-6f" x="63.378906"/>
     <use xlink:href="#DejaVuSans-Oblique-64" x="124.560547"/>
     <use xlink:href="#DejaVuSans-Oblique-65" x="188.037109"/>
     <use xlink:href="#DejaVuSans-Oblique-20" x="249.560547"/>
     <use xlink:href="#DejaVuSans-Oblique-66" x="281.347656"/>
     <use xlink:href="#DejaVuSans-Oblique-61" x="316.552734"/>
     <use xlink:href="#DejaVuSans-Oblique-69" x="377.832031"/>
     <use xlink:href="#DejaVuSans-Oblique-6c" x="405.615234"/>
     <use xlink:href="#DejaVuSans-Oblique-75" x="433.398438"/>
     <use xlink:href="#DejaVuSans-Oblique-72" x="496.777344"/>
     <use xlink:href="#DejaVuSans-Oblique-65" x="537.890625"/>
    </g>
   </g>
   <g id="patch_7">
    <path d="M 213.430813 205.089533 
Q 223.986623 197.446078 233.636873 190.458338 
" style="fill: none; stroke: #000000; stroke-linecap: round"/>
    <path d="M 229.224066 191.184381 
L 233.636873 190.458338 
L 231.570024 194.424209 
" style="fill: none; stroke: #000000; stroke-linecap: round"/>
   </g>
   <g id="legend_1">
    <g id="patch_8">
     <path d="M 362.32 137.54075 
L 407.72 137.54075 
Q 409.72 137.54075 409.72 135.54075 
L 409.72 48.472 
Q 409.72 46.472 407.72 46.472 
L 362.32 46.472 
Q 360.32 46.472 360.32 48.472 
L 360.32 135.54075 
Q 360.32 137.54075 362.32 137.54075 
z
" style="fill: #ffffff; opacity: 0.8; stroke: #cccccc; stroke-linejoin: miter"/>
    </g>
    <g id="line2d_26">
     <path d="M 364.32 54.570438 
L 374.32 54.570438 
L 384.32 54.570438 
" style="fill: none; stroke: #1f77b4; stroke-width: 1.5; stroke-linecap: square"/>
    </g>
    <g id="text_23">
     <!-- $M_1$ -->
     <g transform="translate(392.32 58.070438)scale(0.1 -0.1)">
      <defs>
       <path id="DejaVuSans-Oblique-4d" d="M 1081 4666 
L 2028 4666 
L 2572 1522 
L 4378 4666 
L 5350 4666 
L 4441 0 
L 3828 0 
L 4622 4091 
L 2791 897 
L 2175 897 
L 1581 4103 
L 788 0 
L 172 0 
L 1081 4666 
z
" transform="scale(0.015625)"/>
      </defs>
      <use xlink:href="#DejaVuSans-Oblique-4d" transform="translate(0 0.09375)"/>
      <use xlink:href="#DejaVuSans-31" transform="translate(86.279297 -16.3125)scale(0.7)"/>
     </g>
    </g>
    <g id="line2d_27">
     <path d="M 364.32 69.248563 
L 374.32 69.248563 
L 384.32 69.248563 
" style="fill: none; stroke: #ff7f0e; stroke-width: 1.5; stroke-linecap: square"/>
    </g>
    <g id="text_24">
     <!-- $M_2$ -->
     <g transform="translate(392.32 72.748563)scale(0.1 -0.1)">
      <use xlink:href="#DejaVuSans-Oblique-4d" transform="translate(0 0.09375)"/>
      <use xlink:href="#DejaVuSans-32" transform="translate(86.279297 -16.3125)scale(0.7)"/>
     </g>
    </g>
    <g id="line2d_28">
     <path d="M 364.32 83.926688 
L 374.32 83.926688 
L 384.32 83.926688 
" style="fill: none; stroke: #2ca02c; stroke-width: 1.5; stroke-linecap: square"/>
    </g>
    <g id="text_25">
     <!-- $M_3$ -->
     <g transform="translate(392.32 87.426688)scale(0.1 -0.1)">
      <use xlink:href="#DejaVuSans-Oblique-4d" transform="translate(0 0.09375)"/>
      <use xlink:href="#DejaVuSans-33" transform="translate(86.279297 -16.3125)scale(0.7)"/>
     </g>
    </g>
    <g id="line2d_29">
     <path d="M 364.32 98.604813 
L 374.32 98.604813 
L 384.32 98.604813 
" style="fill: none; stroke: #d62728; stroke-width: 1.5; stroke-linecap: square"/>
    </g>
    <g id="text_26">
     <!-- $M_4$ -->
     <g transform="translate(392.32 102.104813)scale(0.1 -0.1)">
      <use xlink:href="#DejaVuSans-Oblique-4d" transform="translate(0 0.09375)"/>
      <use xlink:href="#DejaVuSans-34" transform="translate(86.279297 -16.3125)scale(0.7)"/>
     </g>
    </g>
    <g id="line2d_30">
     <path d="M 364.32 113.282938 
L 374.32 113.282938 
L 384.32 113.282938 
" style="fill: none; stroke: #9467bd; stroke-width: 1.5; stroke-linecap: square"/>
    </g>
    <g id="text_27">
     <!-- $M_5$ -->
     <g transform="translate(392.32 116.782938)scale(0.1 -0.1)">
      <use xlink:href="#DejaVuSans-Oblique-4d" transform="translate(0 0.09375)"/>
      <use xlink:href="#DejaVuSans-35" transform="translate(86.279297 -16.3125)scale(0.7)"/>
     </g>
    </g>
    <g id="line2d_31">
     <path d="M 364.32 127.961063 
L 374.32 127.961063 
L 384.32 127.961063 
" style="fill: none; stroke: #8c564b; stroke-width: 1.5; stroke-linecap: square"/>
    </g>
    <g id="text_28">
     <!-- $M_6$ -->
     <g transform="translate(392.32 131.461063)scale(0.1 -0.1)">
      <use xlink:href="#DejaVuSans-Oblique-4d" transform="translate(0 0.09375)"/>
      <use xlink:href="#DejaVuSans-36" transform="translate(86.279297 -16.3125)scale(0.7)"/>
     </g>
    </g>
   </g>
  </g>
  <g id="axes_2">
   <g id="patch_9">
    <path d="M 241.16 275.9728 
L 355.4384 275.9728 
L 355.4384 212.10592 
L 241.16 212.10592 
z
" style="fill: #ffffff"/>
   </g>
   <g id="matplotlib.axis_3">
    <g id="xtick_15">
     <g id="line2d_32">
      <g>
       <use xlink:href="#m5c4f4b7706" x="241.16" y="275.9728" style="stroke: #000000; stroke-width: 0.8"/>
      </g>
     </g>
     <g id="text_29">
      <!-- 180 -->
      <g transform="translate(231.61625 290.571237)scale(0.1 -0.1)">
       <use xlink:href="#DejaVuSans-31"/>
       <use xlink:href="#DejaVuSans-38" x="63.623047"/>
       <use xlink:href="#DejaVuSans-30" x="127.246094"/>
      </g>
     </g>
    </g>
    <g id="xtick_16">
     <g id="line2d_33">
      <g>
       <use xlink:href="#m5c4f4b7706" x="298.2992" y="275.9728" style="stroke: #000000; stroke-width: 0.8"/>
      </g>
     </g>
     <g id="text_30">
      <!-- 200 -->
      <g transform="translate(288.75545 290.571237)scale(0.1 -0.1)">
       <use xlink:href="#DejaVuSans-32"/>
       <use xlink:href="#DejaVuSans-30" x="63.623047"/>
       <use xlink:href="#DejaVuSans-30" x="127.246094"/>
      </g>
     </g>
    </g>
    <g id="xtick_17">
     <g id="line2d_34">
      <g>
       <use xlink:href="#m5c4f4b7706" x="355.4384" y="275.9728" style="stroke: #000000; stroke-width: 0.8"/>
      </g>
     </g>
     <g id="text_31">
      <!-- 220 -->
      <g transform="translate(345.89465 290.571237)scale(0.1 -0.1)">
       <use xlink:href="#DejaVuSans-32"/>
       <use xlink:href="#DejaVuSans-32" x="63.623047"/>
       <use xlink:href="#DejaVuSans-30" x="127.246094"/>
      </g>
     </g>
    </g>
   </g>
   <g id="matplotlib.axis_4">
    <g id="ytick_6">
     <g id="line2d_35">
      <g>
       <use xlink:href="#m694fd863c5" x="241.16" y="259.431797" style="stroke: #000000; stroke-width: 0.8"/>
      </g>
     </g>
     <g id="text_32">
      <!-- −0.1 -->
      <g transform="translate(209.877188 263.231016)scale(0.1 -0.1)">
       <use xlink:href="#DejaVuSans-2212"/>
       <use xlink:href="#DejaVuSans-30" x="83.789062"/>
       <use xlink:href="#DejaVuSans-2e" x="147.412109"/>
       <use xlink:href="#DejaVuSans-31" x="179.199219"/>
      </g>
     </g>
    </g>
    <g id="ytick_7">
     <g id="line2d_36">
      <g>
       <use xlink:href="#m694fd863c5" x="241.16" y="237.43836" style="stroke: #000000; stroke-width: 0.8"/>
      </g>
     </g>
     <g id="text_33">
      <!-- 0.0 -->
      <g transform="translate(218.256875 241.237579)scale(0.1 -0.1)">
       <use xlink:href="#DejaVuSans-30"/>
       <use xlink:href="#DejaVuSans-2e" x="63.623047"/>
       <use xlink:href="#DejaVuSans-30" x="95.410156"/>
      </g>
     </g>
    </g>
    <g id="ytick_8">
     <g id="line2d_37">
      <g>
       <use xlink:href="#m694fd863c5" x="241.16" y="215.444923" style="stroke: #000000; stroke-width: 0.8"/>
      </g>
     </g>
     <g id="text_34">
      <!-- 0.1 -->
      <g transform="translate(218.256875 219.244142)scale(0.1 -0.1)">
       <use xlink:href="#DejaVuSans-30"/>
       <use xlink:href="#DejaVuSans-2e" x="63.623047"/>
       <use xlink:href="#DejaVuSans-31" x="95.410156"/>
      </g>
     </g>
    </g>
   </g>
   <g id="line2d_38">
    <path d="M -1 241.19715 
L 6.88928 242.277693 
L 15.46016 243.256206 
L 24.03104 244.024082 
L 32.60192 244.569864 
L 41.1728 244.880656 
L 49.74368 244.943316 
L 58.31456 244.746322 
L 66.88544 244.282197 
L 75.45632 243.550232 
L 84.0272 242.559495 
L 92.59808 241.331264 
L 101.16896 239.901056 
L 112.5968 237.769518 
L 135.45248 233.377928 
L 144.02336 231.949838 
L 152.59424 230.780727 
L 158.30816 230.185994 
L 164.02208 229.763866 
L 169.736 229.531872 
L 175.44992 229.503483 
L 181.16384 229.687659 
L 186.87776 230.088588 
L 192.59168 230.705469 
L 198.3056 231.53266 
L 204.01952 232.559777 
L 209.73344 233.772039 
L 218.30432 235.895603 
L 226.8752 238.315424 
L 238.30304 241.844904 
L 261.15872 249.043581 
L 269.7296 251.479214 
L 278.30048 253.623296 
L 284.0144 254.849997 
L 289.72832 255.889732 
L 295.44224 256.72458 
L 298.2992 237.43836 
L 461.8 237.43836 
L 461.8 237.43836 
" clip-path="url(#p7d769b1682)" style="fill: none; stroke: #1f77b4; stroke-width: 1.5; stroke-linecap: square"/>
   </g>
   <g id="line2d_39">
    <path d="M -1 240.503225 
L 6.88928 240.688557 
L 18.31712 240.69323 
L 32.60192 240.685106 
L 44.02976 240.905684 
L 69.7424 241.634998 
L 78.31328 241.585371 
L 86.88416 241.288341 
L 95.45504 240.758571 
L 104.02592 240.032694 
L 115.45376 238.818685 
L 129.73856 237.022673 
L 146.88032 234.854263 
L 155.4512 233.956876 
L 164.02208 233.259523 
L 172.59296 232.785891 
L 181.16384 232.556641 
L 189.73472 232.607915 
L 195.44864 232.82196 
L 201.16256 233.195383 
L 206.87648 233.735813 
L 212.5904 234.442758 
L 221.16128 235.792516 
L 229.73216 237.429338 
L 241.16 239.901454 
L 264.01568 244.984929 
L 272.58656 246.668833 
L 281.15744 248.104998 
L 286.87136 248.887805 
L 292.58528 249.507572 
L 295.44224 249.750868 
L 298.2992 268.341064 
L 301.15616 265.283666 
L 304.01312 264.171768 
L 309.72704 262.976878 
L 312.584 262.086627 
L 315.44096 260.877253 
L 318.29792 259.355364 
L 321.15488 257.551009 
L 324.01184 255.503593 
L 326.8688 253.256457 
L 332.58272 248.342289 
L 346.86752 235.591772 
L 352.58144 231.065389 
L 355.4384 229.035443 
L 358.29536 227.186051 
L 361.15232 225.530977 
L 364.00928 224.079971 
L 366.86624 222.838816 
L 369.7232 221.809403 
L 372.58016 220.989843 
L 375.43712 220.374659 
L 378.29408 219.954981 
L 381.15104 219.718827 
L 384.008 219.651461 
L 386.86496 219.735811 
L 389.72192 219.952906 
L 395.43584 220.703255 
L 401.14976 221.733834 
L 415.43456 224.52218 
L 421.14848 225.421676 
L 426.8624 226.108696 
L 432.57632 226.581072 
L 441.1472 226.965421 
L 461.8 227.511958 
L 461.8 227.511958 
" clip-path="url(#p7d769b1682)" style="fill: none; stroke: #ff7f0e; stroke-width: 1.5; stroke-linecap: square"/>
   </g>
   <g id="line2d_40">
    <path d="M -1 234.519295 
L 15.46016 235.497712 
L 29.74496 236.612128 
L 81.17024 241.046912 
L 92.59808 241.710907 
L 101.16896 242.014377 
L 112.5968 242.152982 
L 124.02464 242.057562 
L 138.30944 241.716065 
L 152.59424 241.143498 
L 184.0208 239.686048 
L 195.44864 239.496729 
L 206.87648 239.585843 
L 218.30432 239.947444 
L 229.73216 240.582214 
L 241.16 241.481461 
L 255.4448 242.880411 
L 275.44352 244.876048 
L 286.87136 245.746659 
L 295.44224 246.171659 
L 298.2992 239.980105 
L 301.15616 245.364447 
L 304.01312 248.511868 
L 306.87008 247.749804 
L 309.72704 249.719459 
L 312.584 250.345054 
L 315.44096 252.418673 
L 318.29792 254.046864 
L 321.15488 256.264533 
L 326.8688 260.177501 
L 329.72576 261.767578 
L 332.58272 263.124774 
L 335.43968 263.923794 
L 338.29664 264.285251 
L 341.1536 263.983527 
L 344.01056 263.148782 
L 346.86752 261.620786 
L 349.72448 259.574251 
L 352.58144 256.895502 
L 355.4384 253.820595 
L 358.29536 250.265792 
L 361.15232 246.523477 
L 369.7232 234.604067 
L 372.58016 230.914023 
L 375.43712 227.421196 
L 378.29408 224.36955 
L 381.15104 221.686531 
L 384.008 219.538819 
L 386.86496 217.868417 
L 389.72192 216.761966 
L 392.57888 216.168933 
L 395.43584 216.105546 
L 398.2928 216.513929 
L 401.14976 217.355386 
L 404.00672 218.554367 
L 406.86368 220.035466 
L 412.5776 223.484663 
L 418.29152 227.003341 
L 421.14848 228.601899 
L 424.00544 230.021649 
L 426.8624 231.229613 
L 429.71936 232.209062 
L 432.57632 232.958014 
L 435.43328 233.486632 
L 438.29024 233.814767 
L 441.1472 233.968861 
L 444.00416 233.979467 
L 449.71808 233.696713 
L 461.8 232.601628 
L 461.8 232.601628 
" clip-path="url(#p7d769b1682)" style="fill: none; stroke: #2ca02c; stroke-width: 1.5; stroke-linecap: square"/>
   </g>
   <g id="line2d_41">
    <path d="M -1 238.440333 
L 12.6032 239.12947 
L 26.888 239.916428 
L 38.31584 240.770136 
L 58.31456 242.341462 
L 66.88544 242.792172 
L 78.31328 243.13558 
L 106.88288 243.636213 
L 115.45376 243.592319 
L 124.02464 243.298462 
L 132.59552 242.771308 
L 158.30816 240.977812 
L 184.0208 239.374115 
L 195.44864 238.679448 
L 204.01952 238.379058 
L 212.5904 238.362144 
L 221.16128 238.627597 
L 229.73216 239.112483 
L 244.01696 240.200006 
L 269.7296 242.478007 
L 284.0144 243.647117 
L 292.58528 244.160491 
L 295.44224 244.283438 
L 298.2992 237.43836 
L 461.8 237.43836 
L 461.8 237.43836 
" clip-path="url(#p7d769b1682)" style="fill: none; stroke: #d62728; stroke-width: 1.5; stroke-linecap: square"/>
   </g>
   <g id="line2d_42">
    <path d="M -1 236.601773 
L 12.6032 238.165664 
L 21.17408 238.901698 
L 29.74496 239.336278 
L 41.1728 239.581931 
L 49.74368 239.78993 
L 58.31456 240.247195 
L 66.88544 240.978537 
L 78.31328 242.003307 
L 84.0272 242.32501 
L 89.74112 242.435843 
L 95.45504 242.342603 
L 118.31072 241.588458 
L 129.73856 241.755785 
L 138.30944 241.780082 
L 144.02336 241.573897 
L 149.73728 241.164678 
L 169.736 239.320454 
L 175.44992 239.055204 
L 184.0208 238.92076 
L 198.3056 238.776418 
L 209.73344 238.334955 
L 221.16128 237.89833 
L 229.73216 237.86594 
L 238.30304 238.158722 
L 249.73088 238.870608 
L 266.87264 239.94398 
L 295.44224 241.36441 
L 298.2992 231.813299 
L 301.15616 243.007024 
L 304.01312 244.117112 
L 306.87008 246.623563 
L 309.72704 246.886963 
L 312.584 248.382352 
L 315.44096 249.272326 
L 318.29792 250.722939 
L 321.15488 251.888816 
L 324.01184 253.19836 
L 329.72576 255.121577 
L 332.58272 255.665477 
L 335.43968 255.957855 
L 338.29664 255.847501 
L 341.1536 255.439839 
L 344.01056 254.644183 
L 346.86752 253.582167 
L 349.72448 252.195336 
L 352.58144 250.622957 
L 358.29536 246.919985 
L 372.58016 236.725116 
L 378.29408 233.050956 
L 384.008 229.916361 
L 386.86496 228.607597 
L 389.72192 227.4577 
L 392.57888 226.513965 
L 395.43584 225.75271 
L 398.2928 225.192334 
L 401.14976 224.817919 
L 404.00672 224.629261 
L 406.86368 224.613072 
L 409.72064 224.759127 
L 412.5776 225.052154 
L 415.43456 225.476214 
L 421.14848 226.64169 
L 426.8624 228.087248 
L 438.29024 231.070321 
L 444.00416 232.269767 
L 449.71808 233.12614 
L 455.432 233.607287 
L 461.14592 233.739929 
L 461.8 233.729877 
L 461.8 233.729877 
" clip-path="url(#p7d769b1682)" style="fill: none; stroke: #9467bd; stroke-width: 1.5; stroke-linecap: square"/>
   </g>
   <g id="line2d_43">
    <path d="M -1 236.226493 
L 6.88928 236.615824 
L 12.6032 237.105966 
L 18.31712 237.785292 
L 29.74496 239.47886 
L 38.31584 240.634605 
L 44.02976 241.170584 
L 49.74368 241.47806 
L 58.31456 241.607541 
L 69.7424 241.721147 
L 75.45632 242.010924 
L 81.17024 242.534437 
L 89.74112 243.659761 
L 98.312 244.816265 
L 104.02592 245.364519 
L 109.73984 245.634007 
L 115.45376 245.635352 
L 135.45248 245.136028 
L 141.1664 245.281043 
L 158.30816 246.049999 
L 164.02208 246.010519 
L 169.736 245.710395 
L 178.30688 244.890641 
L 189.73472 243.702389 
L 195.44864 243.285737 
L 204.01952 242.941561 
L 226.8752 242.329841 
L 246.87392 241.427407 
L 252.58784 241.383015 
L 258.30176 241.505795 
L 264.01568 241.793228 
L 272.58656 242.470437 
L 295.44224 244.720333 
L 298.2992 233.69286 
L 301.15616 244.265796 
L 304.01312 250.305261 
L 306.87008 250.826246 
L 309.72704 252.600344 
L 312.584 253.743731 
L 318.29792 258.147281 
L 324.01184 263.261754 
L 326.8688 265.7691 
L 329.72576 267.96262 
L 332.58272 269.91048 
L 335.43968 271.403116 
L 338.29664 272.48863 
L 341.1536 273.025315 
L 344.01056 273.06976 
L 346.86752 272.521618 
L 349.72448 271.460557 
L 352.58144 269.815243 
L 355.4384 267.697978 
L 358.29536 265.059404 
L 361.15232 262.047518 
L 364.00928 258.628235 
L 366.86624 254.978034 
L 372.58016 247.097411 
L 378.29408 239.06697 
L 381.15104 235.180184 
L 384.008 231.522255 
L 386.86496 228.09868 
L 389.72192 225.013881 
L 392.57888 222.281782 
L 395.43584 219.965154 
L 398.2928 218.075772 
L 401.14976 216.639794 
L 404.00672 215.6558 
L 406.86368 215.119207 
L 409.72064 215.00896 
L 412.5776 215.295644 
L 415.43456 215.939141 
L 418.29152 216.892325 
L 421.14848 218.102337 
L 424.00544 219.513369 
L 429.71936 222.713308 
L 438.29024 227.685101 
L 444.00416 230.632457 
L 446.86112 231.910341 
L 449.71808 233.0351 
L 452.57504 233.997593 
L 455.432 234.794252 
L 458.28896 235.426538 
L 461.8 235.974584 
L 461.8 235.974584 
" clip-path="url(#p7d769b1682)" style="fill: none; stroke: #8c564b; stroke-width: 1.5; stroke-linecap: square"/>
   </g>
   <g id="patch_10">
    <path d="M 241.16 275.9728 
L 241.16 212.10592 
" style="fill: none; stroke: #000000; stroke-width: 0.8; stroke-linejoin: miter; stroke-linecap: square"/>
   </g>
   <g id="patch_11">
    <path d="M 355.4384 275.9728 
L 355.4384 212.10592 
" style="fill: none; stroke: #000000; stroke-width: 0.8; stroke-linejoin: miter; stroke-linecap: square"/>
   </g>
   <g id="patch_12">
    <path d="M 241.16 275.9728 
L 355.4384 275.9728 
" style="fill: none; stroke: #000000; stroke-width: 0.8; stroke-linejoin: miter; stroke-linecap: square"/>
   </g>
   <g id="patch_13">
    <path d="M 241.16 212.10592 
L 355.4384 212.10592 
" style="fill: none; stroke: #000000; stroke-width: 0.8; stroke-linejoin: miter; stroke-linecap: square"/>
   </g>
  </g>
 </g>
 <defs>
  <clipPath id="pd666d34c3f">
   <rect x="57.6" y="41.472" width="357.12" height="266.112"/>
  </clipPath>
  <clipPath id="p7d769b1682">
   <rect x="241.16" y="212.10592" width="114.2784" height="63.86688"/>
  </clipPath>
 </defs>
</svg>
