<?xml version="1.0" encoding="utf-8" standalone="no"?>
<!DOCTYPE svg PUBLIC "-//W3C//DTD SVG 1.1//EN"
  "http://www.w3.org/Graphics/SVG/1.1/DTD/svg11.dtd">
<svg xmlns:xlink="http://www.w3.org/1999/xlink" width="576pt" height="576pt" viewBox="0 0 576 576" xmlns="http://www.w3.org/2000/svg" version="1.1">
 <metadata>
  <rdf:RDF xmlns:dc="http://purl.org/dc/elements/1.1/" xmlns:cc="http://creativecommons.org/ns#" xmlns:rdf="http://www.w3.org/1999/02/22-rdf-syntax-ns#">
   <cc:Work>
    <dc:type rdf:resource="http://purl.org/dc/dcmitype/StillImage"/>
    <dc:date>2022-08-28T12:20:41.328410</dc:date>
    <dc:format>image/svg+xml</dc:format>
    <dc:creator>
     <cc:Agent>
      <dc:title>Matplotlib v3.5.2, https://matplotlib.org/</dc:title>
     </cc:Agent>
    </dc:creator>
   </cc:Work>
  </rdf:RDF>
 </metadata>
 <defs>
  <style type="text/css">*{stroke-linejoin: round; stroke-linecap: butt}</style>
 </defs>
 <g id="figure_1">
  <g id="patch_1">
   <path d="M 0 576 
L 576 576 
L 576 0 
L 0 0 
z
" style="fill: #ffffff"/>
  </g>
  <g id="axes_1">
   <g id="patch_2">
    <path d="M 72 512.64 
L 518.4 512.64 
L 518.4 69.12 
L 72 69.12 
z
" style="fill: #ffffff"/>
   </g>
   <g id="PathCollection_1">
    <defs>
     <path id="mc357bd5f9f" d="M 0 -5 
L -1.12257 -1.545085 
L -4.755283 -1.545085 
L -1.816356 0.59017 
L -2.938926 4.045085 
L -0 1.90983 
L 2.938926 4.045085 
L 1.816356 0.59017 
L 4.755283 -1.545085 
L 1.12257 -1.545085 
z
" style="stroke: #cc1a1a; stroke-opacity: 0.5"/>
    </defs>
    <g clip-path="url(#pae99eaca16)">
     <use xlink:href="#mc357bd5f9f" x="415.987957" y="240.72037" style="fill: #cc1a1a; fill-opacity: 0.5; stroke: #cc1a1a; stroke-opacity: 0.5"/>
    </g>
   </g>
   <g id="PathCollection_2">
    <defs>
     <path id="m298c873142" d="M -1.25 -1.875 
L -1.25 1.875 
L 5 0 
z
" style="stroke: #7b68ee"/>
    </defs>
    <g clip-path="url(#pae99eaca16)"/>
   </g>
   <g id="PathCollection_3">
    <defs>
     <path id="m11d058384a" d="M -1.25 -1.875 
L -1.25 1.875 
L 5 0 
z
" style="stroke: #ffe4b5"/>
    </defs>
    <g clip-path="url(#pae99eaca16)"/>
   </g>
   <g id="PathCollection_4">
    <defs>
     <path id="mb16ccec24f" d="M -1.25 -1.875 
L -1.25 1.875 
L 5 0 
z
" style="stroke: #c54f85"/>
    </defs>
    <g clip-path="url(#pae99eaca16)"/>
   </g>
   <g id="PathCollection_5">
    <defs>
     <path id="m1629505ed8" d="M -1.25 -1.875 
L -1.25 1.875 
L 5 0 
z
" style="stroke: #00bfff"/>
    </defs>
    <g clip-path="url(#pae99eaca16)"/>
   </g>
   <g id="PathCollection_6">
    <defs>
     <path id="m6ec1ed4aae" d="M -1.25 -1.875 
L -1.25 1.875 
L 5 0 
z
" style="stroke: #86f2c0"/>
    </defs>
    <g clip-path="url(#pae99eaca16)"/>
   </g>
   <g id="PathCollection_7">
    <defs>
     <path id="m5d0e0aacf8" d="M -1.25 -1.875 
L -1.25 1.875 
L 5 0 
z
" style="stroke: #3cb371"/>
    </defs>
    <g clip-path="url(#pae99eaca16)"/>
   </g>
   <g id="matplotlib.axis_1">
    <g id="xtick_1">
     <g id="line2d_1">
      <defs>
       <path id="mc75b84db91" d="M 0 0 
L 0 3.5 
" style="stroke: #000000; stroke-width: 0.8"/>
      </defs>
      <g>
       <use xlink:href="#mc75b84db91" x="72" y="512.64" style="stroke: #000000; stroke-width: 0.8"/>
      </g>
     </g>
     <g id="text_1">
      <!-- 1 -->
      <g transform="translate(71.642027 531.486248)rotate(-45)scale(0.12 -0.12)">
       <defs>
        <path id="DejaVuSans-31" d="M 794 531 
L 1825 531 
L 1825 4091 
L 703 3866 
L 703 4441 
L 1819 4666 
L 2450 4666 
L 2450 531 
L 3481 531 
L 3481 0 
L 794 0 
L 794 531 
z
" transform="scale(0.015625)"/>
       </defs>
       <use xlink:href="#DejaVuSans-31"/>
      </g>
     </g>
    </g>
    <g id="xtick_2">
     <g id="line2d_2">
      <g>
       <use xlink:href="#mc75b84db91" x="90.6" y="512.64" style="stroke: #000000; stroke-width: 0.8"/>
      </g>
     </g>
     <g id="text_2">
      <!-- 2 -->
      <g transform="translate(90.242027 531.486248)rotate(-45)scale(0.12 -0.12)">
       <defs>
        <path id="DejaVuSans-32" d="M 1228 531 
L 3431 531 
L 3431 0 
L 469 0 
L 469 531 
Q 828 903 1448 1529 
Q 2069 2156 2228 2338 
Q 2531 2678 2651 2914 
Q 2772 3150 2772 3378 
Q 2772 3750 2511 3984 
Q 2250 4219 1831 4219 
Q 1534 4219 1204 4116 
Q 875 4013 500 3803 
L 500 4441 
Q 881 4594 1212 4672 
Q 1544 4750 1819 4750 
Q 2544 4750 2975 4387 
Q 3406 4025 3406 3419 
Q 3406 3131 3298 2873 
Q 3191 2616 2906 2266 
Q 2828 2175 2409 1742 
Q 1991 1309 1228 531 
z
" transform="scale(0.015625)"/>
       </defs>
       <use xlink:href="#DejaVuSans-32"/>
      </g>
     </g>
    </g>
    <g id="xtick_3">
     <g id="line2d_3">
      <g>
       <use xlink:href="#mc75b84db91" x="109.2" y="512.64" style="stroke: #000000; stroke-width: 0.8"/>
      </g>
     </g>
     <g id="text_3">
      <!-- 3 -->
      <g transform="translate(108.842027 531.486248)rotate(-45)scale(0.12 -0.12)">
       <defs>
        <path id="DejaVuSans-33" d="M 2597 2516 
Q 3050 2419 3304 2112 
Q 3559 1806 3559 1356 
Q 3559 666 3084 287 
Q 2609 -91 1734 -91 
Q 1441 -91 1130 -33 
Q 819 25 488 141 
L 488 750 
Q 750 597 1062 519 
Q 1375 441 1716 441 
Q 2309 441 2620 675 
Q 2931 909 2931 1356 
Q 2931 1769 2642 2001 
Q 2353 2234 1838 2234 
L 1294 2234 
L 1294 2753 
L 1863 2753 
Q 2328 2753 2575 2939 
Q 2822 3125 2822 3475 
Q 2822 3834 2567 4026 
Q 2313 4219 1838 4219 
Q 1578 4219 1281 4162 
Q 984 4106 628 3988 
L 628 4550 
Q 988 4650 1302 4700 
Q 1616 4750 1894 4750 
Q 2613 4750 3031 4423 
Q 3450 4097 3450 3541 
Q 3450 3153 3228 2886 
Q 3006 2619 2597 2516 
z
" transform="scale(0.015625)"/>
       </defs>
       <use xlink:href="#DejaVuSans-33"/>
      </g>
     </g>
    </g>
    <g id="xtick_4">
     <g id="line2d_4">
      <g>
       <use xlink:href="#mc75b84db91" x="127.8" y="512.64" style="stroke: #000000; stroke-width: 0.8"/>
      </g>
     </g>
     <g id="text_4">
      <!-- 4 -->
      <g transform="translate(127.442027 531.486248)rotate(-45)scale(0.12 -0.12)">
       <defs>
        <path id="DejaVuSans-34" d="M 2419 4116 
L 825 1625 
L 2419 1625 
L 2419 4116 
z
M 2253 4666 
L 3047 4666 
L 3047 1625 
L 3713 1625 
L 3713 1100 
L 3047 1100 
L 3047 0 
L 2419 0 
L 2419 1100 
L 313 1100 
L 313 1709 
L 2253 4666 
z
" transform="scale(0.015625)"/>
       </defs>
       <use xlink:href="#DejaVuSans-34"/>
      </g>
     </g>
    </g>
    <g id="xtick_5">
     <g id="line2d_5">
      <g>
       <use xlink:href="#mc75b84db91" x="146.4" y="512.64" style="stroke: #000000; stroke-width: 0.8"/>
      </g>
     </g>
     <g id="text_5">
      <!-- 5 -->
      <g transform="translate(146.042027 531.486248)rotate(-45)scale(0.12 -0.12)">
       <defs>
        <path id="DejaVuSans-35" d="M 691 4666 
L 3169 4666 
L 3169 4134 
L 1269 4134 
L 1269 2991 
Q 1406 3038 1543 3061 
Q 1681 3084 1819 3084 
Q 2600 3084 3056 2656 
Q 3513 2228 3513 1497 
Q 3513 744 3044 326 
Q 2575 -91 1722 -91 
Q 1428 -91 1123 -41 
Q 819 9 494 109 
L 494 744 
Q 775 591 1075 516 
Q 1375 441 1709 441 
Q 2250 441 2565 725 
Q 2881 1009 2881 1497 
Q 2881 1984 2565 2268 
Q 2250 2553 1709 2553 
Q 1456 2553 1204 2497 
Q 953 2441 691 2322 
L 691 4666 
z
" transform="scale(0.015625)"/>
       </defs>
       <use xlink:href="#DejaVuSans-35"/>
      </g>
     </g>
    </g>
    <g id="xtick_6">
     <g id="line2d_6">
      <g>
       <use xlink:href="#mc75b84db91" x="165" y="512.64" style="stroke: #000000; stroke-width: 0.8"/>
      </g>
     </g>
     <g id="text_6">
      <!-- 6 -->
      <g transform="translate(164.642027 531.486248)rotate(-45)scale(0.12 -0.12)">
       <defs>
        <path id="DejaVuSans-36" d="M 2113 2584 
Q 1688 2584 1439 2293 
Q 1191 2003 1191 1497 
Q 1191 994 1439 701 
Q 1688 409 2113 409 
Q 2538 409 2786 701 
Q 3034 994 3034 1497 
Q 3034 2003 2786 2293 
Q 2538 2584 2113 2584 
z
M 3366 4563 
L 3366 3988 
Q 3128 4100 2886 4159 
Q 2644 4219 2406 4219 
Q 1781 4219 1451 3797 
Q 1122 3375 1075 2522 
Q 1259 2794 1537 2939 
Q 1816 3084 2150 3084 
Q 2853 3084 3261 2657 
Q 3669 2231 3669 1497 
Q 3669 778 3244 343 
Q 2819 -91 2113 -91 
Q 1303 -91 875 529 
Q 447 1150 447 2328 
Q 447 3434 972 4092 
Q 1497 4750 2381 4750 
Q 2619 4750 2861 4703 
Q 3103 4656 3366 4563 
z
" transform="scale(0.015625)"/>
       </defs>
       <use xlink:href="#DejaVuSans-36"/>
      </g>
     </g>
    </g>
    <g id="xtick_7">
     <g id="line2d_7">
      <g>
       <use xlink:href="#mc75b84db91" x="183.6" y="512.64" style="stroke: #000000; stroke-width: 0.8"/>
      </g>
     </g>
     <g id="text_7">
      <!-- 7 -->
      <g transform="translate(183.242027 531.486248)rotate(-45)scale(0.12 -0.12)">
       <defs>
        <path id="DejaVuSans-37" d="M 525 4666 
L 3525 4666 
L 3525 4397 
L 1831 0 
L 1172 0 
L 2766 4134 
L 525 4134 
L 525 4666 
z
" transform="scale(0.015625)"/>
       </defs>
       <use xlink:href="#DejaVuSans-37"/>
      </g>
     </g>
    </g>
    <g id="xtick_8">
     <g id="line2d_8">
      <g>
       <use xlink:href="#mc75b84db91" x="202.2" y="512.64" style="stroke: #000000; stroke-width: 0.8"/>
      </g>
     </g>
     <g id="text_8">
      <!-- 8 -->
      <g transform="translate(201.842027 531.486248)rotate(-45)scale(0.12 -0.12)">
       <defs>
        <path id="DejaVuSans-38" d="M 2034 2216 
Q 1584 2216 1326 1975 
Q 1069 1734 1069 1313 
Q 1069 891 1326 650 
Q 1584 409 2034 409 
Q 2484 409 2743 651 
Q 3003 894 3003 1313 
Q 3003 1734 2745 1975 
Q 2488 2216 2034 2216 
z
M 1403 2484 
Q 997 2584 770 2862 
Q 544 3141 544 3541 
Q 544 4100 942 4425 
Q 1341 4750 2034 4750 
Q 2731 4750 3128 4425 
Q 3525 4100 3525 3541 
Q 3525 3141 3298 2862 
Q 3072 2584 2669 2484 
Q 3125 2378 3379 2068 
Q 3634 1759 3634 1313 
Q 3634 634 3220 271 
Q 2806 -91 2034 -91 
Q 1263 -91 848 271 
Q 434 634 434 1313 
Q 434 1759 690 2068 
Q 947 2378 1403 2484 
z
M 1172 3481 
Q 1172 3119 1398 2916 
Q 1625 2713 2034 2713 
Q 2441 2713 2670 2916 
Q 2900 3119 2900 3481 
Q 2900 3844 2670 4047 
Q 2441 4250 2034 4250 
Q 1625 4250 1398 4047 
Q 1172 3844 1172 3481 
z
" transform="scale(0.015625)"/>
       </defs>
       <use xlink:href="#DejaVuSans-38"/>
      </g>
     </g>
    </g>
    <g id="xtick_9">
     <g id="line2d_9">
      <g>
       <use xlink:href="#mc75b84db91" x="220.8" y="512.64" style="stroke: #000000; stroke-width: 0.8"/>
      </g>
     </g>
     <g id="text_9">
      <!-- 9 -->
      <g transform="translate(220.442027 531.486248)rotate(-45)scale(0.12 -0.12)">
       <defs>
        <path id="DejaVuSans-39" d="M 703 97 
L 703 672 
Q 941 559 1184 500 
Q 1428 441 1663 441 
Q 2288 441 2617 861 
Q 2947 1281 2994 2138 
Q 2813 1869 2534 1725 
Q 2256 1581 1919 1581 
Q 1219 1581 811 2004 
Q 403 2428 403 3163 
Q 403 3881 828 4315 
Q 1253 4750 1959 4750 
Q 2769 4750 3195 4129 
Q 3622 3509 3622 2328 
Q 3622 1225 3098 567 
Q 2575 -91 1691 -91 
Q 1453 -91 1209 -44 
Q 966 3 703 97 
z
M 1959 2075 
Q 2384 2075 2632 2365 
Q 2881 2656 2881 3163 
Q 2881 3666 2632 3958 
Q 2384 4250 1959 4250 
Q 1534 4250 1286 3958 
Q 1038 3666 1038 3163 
Q 1038 2656 1286 2365 
Q 1534 2075 1959 2075 
z
" transform="scale(0.015625)"/>
       </defs>
       <use xlink:href="#DejaVuSans-39"/>
      </g>
     </g>
    </g>
    <g id="xtick_10">
     <g id="line2d_10">
      <g>
       <use xlink:href="#mc75b84db91" x="239.4" y="512.64" style="stroke: #000000; stroke-width: 0.8"/>
      </g>
     </g>
     <g id="text_10">
      <!-- 10 -->
      <g transform="translate(236.342647 536.885009)rotate(-45)scale(0.12 -0.12)">
       <defs>
        <path id="DejaVuSans-30" d="M 2034 4250 
Q 1547 4250 1301 3770 
Q 1056 3291 1056 2328 
Q 1056 1369 1301 889 
Q 1547 409 2034 409 
Q 2525 409 2770 889 
Q 3016 1369 3016 2328 
Q 3016 3291 2770 3770 
Q 2525 4250 2034 4250 
z
M 2034 4750 
Q 2819 4750 3233 4129 
Q 3647 3509 3647 2328 
Q 3647 1150 3233 529 
Q 2819 -91 2034 -91 
Q 1250 -91 836 529 
Q 422 1150 422 2328 
Q 422 3509 836 4129 
Q 1250 4750 2034 4750 
z
" transform="scale(0.015625)"/>
       </defs>
       <use xlink:href="#DejaVuSans-31"/>
       <use xlink:href="#DejaVuSans-30" x="63.623047"/>
      </g>
     </g>
    </g>
    <g id="xtick_11">
     <g id="line2d_11">
      <g>
       <use xlink:href="#mc75b84db91" x="258" y="512.64" style="stroke: #000000; stroke-width: 0.8"/>
      </g>
     </g>
     <g id="text_11">
      <!-- 11 -->
      <g transform="translate(254.942647 536.885009)rotate(-45)scale(0.12 -0.12)">
       <use xlink:href="#DejaVuSans-31"/>
       <use xlink:href="#DejaVuSans-31" x="63.623047"/>
      </g>
     </g>
    </g>
    <g id="xtick_12">
     <g id="line2d_12">
      <g>
       <use xlink:href="#mc75b84db91" x="276.6" y="512.64" style="stroke: #000000; stroke-width: 0.8"/>
      </g>
     </g>
     <g id="text_12">
      <!-- 12 -->
      <g transform="translate(273.542647 536.885009)rotate(-45)scale(0.12 -0.12)">
       <use xlink:href="#DejaVuSans-31"/>
       <use xlink:href="#DejaVuSans-32" x="63.623047"/>
      </g>
     </g>
    </g>
    <g id="xtick_13">
     <g id="line2d_13">
      <g>
       <use xlink:href="#mc75b84db91" x="295.2" y="512.64" style="stroke: #000000; stroke-width: 0.8"/>
      </g>
     </g>
     <g id="text_13">
      <!-- 13 -->
      <g transform="translate(292.142647 536.885009)rotate(-45)scale(0.12 -0.12)">
       <use xlink:href="#DejaVuSans-31"/>
       <use xlink:href="#DejaVuSans-33" x="63.623047"/>
      </g>
     </g>
    </g>
    <g id="xtick_14">
     <g id="line2d_14">
      <g>
       <use xlink:href="#mc75b84db91" x="313.8" y="512.64" style="stroke: #000000; stroke-width: 0.8"/>
      </g>
     </g>
     <g id="text_14">
      <!-- 14 -->
      <g transform="translate(310.742647 536.885009)rotate(-45)scale(0.12 -0.12)">
       <use xlink:href="#DejaVuSans-31"/>
       <use xlink:href="#DejaVuSans-34" x="63.623047"/>
      </g>
     </g>
    </g>
    <g id="xtick_15">
     <g id="line2d_15">
      <g>
       <use xlink:href="#mc75b84db91" x="332.4" y="512.64" style="stroke: #000000; stroke-width: 0.8"/>
      </g>
     </g>
     <g id="text_15">
      <!-- 15 -->
      <g transform="translate(329.342647 536.885009)rotate(-45)scale(0.12 -0.12)">
       <use xlink:href="#DejaVuSans-31"/>
       <use xlink:href="#DejaVuSans-35" x="63.623047"/>
      </g>
     </g>
    </g>
    <g id="xtick_16">
     <g id="line2d_16">
      <g>
       <use xlink:href="#mc75b84db91" x="351" y="512.64" style="stroke: #000000; stroke-width: 0.8"/>
      </g>
     </g>
     <g id="text_16">
      <!-- 16 -->
      <g transform="translate(347.942647 536.885009)rotate(-45)scale(0.12 -0.12)">
       <use xlink:href="#DejaVuSans-31"/>
       <use xlink:href="#DejaVuSans-36" x="63.623047"/>
      </g>
     </g>
    </g>
    <g id="xtick_17">
     <g id="line2d_17">
      <g>
       <use xlink:href="#mc75b84db91" x="369.6" y="512.64" style="stroke: #000000; stroke-width: 0.8"/>
      </g>
     </g>
     <g id="text_17">
      <!-- 17 -->
      <g transform="translate(366.542647 536.885009)rotate(-45)scale(0.12 -0.12)">
       <use xlink:href="#DejaVuSans-31"/>
       <use xlink:href="#DejaVuSans-37" x="63.623047"/>
      </g>
     </g>
    </g>
    <g id="xtick_18">
     <g id="line2d_18">
      <g>
       <use xlink:href="#mc75b84db91" x="388.2" y="512.64" style="stroke: #000000; stroke-width: 0.8"/>
      </g>
     </g>
     <g id="text_18">
      <!-- 18 -->
      <g transform="translate(385.142647 536.885009)rotate(-45)scale(0.12 -0.12)">
       <use xlink:href="#DejaVuSans-31"/>
       <use xlink:href="#DejaVuSans-38" x="63.623047"/>
      </g>
     </g>
    </g>
    <g id="xtick_19">
     <g id="line2d_19">
      <g>
       <use xlink:href="#mc75b84db91" x="406.8" y="512.64" style="stroke: #000000; stroke-width: 0.8"/>
      </g>
     </g>
     <g id="text_19">
      <!-- 19 -->
      <g transform="translate(403.742647 536.885009)rotate(-45)scale(0.12 -0.12)">
       <use xlink:href="#DejaVuSans-31"/>
       <use xlink:href="#DejaVuSans-39" x="63.623047"/>
      </g>
     </g>
    </g>
    <g id="xtick_20">
     <g id="line2d_20">
      <g>
       <use xlink:href="#mc75b84db91" x="425.4" y="512.64" style="stroke: #000000; stroke-width: 0.8"/>
      </g>
     </g>
     <g id="text_20">
      <!-- 20 -->
      <g transform="translate(422.342647 536.885009)rotate(-45)scale(0.12 -0.12)">
       <use xlink:href="#DejaVuSans-32"/>
       <use xlink:href="#DejaVuSans-30" x="63.623047"/>
      </g>
     </g>
    </g>
    <g id="xtick_21">
     <g id="line2d_21">
      <g>
       <use xlink:href="#mc75b84db91" x="444" y="512.64" style="stroke: #000000; stroke-width: 0.8"/>
      </g>
     </g>
     <g id="text_21">
      <!-- 21 -->
      <g transform="translate(440.942647 536.885009)rotate(-45)scale(0.12 -0.12)">
       <use xlink:href="#DejaVuSans-32"/>
       <use xlink:href="#DejaVuSans-31" x="63.623047"/>
      </g>
     </g>
    </g>
    <g id="xtick_22">
     <g id="line2d_22">
      <g>
       <use xlink:href="#mc75b84db91" x="462.6" y="512.64" style="stroke: #000000; stroke-width: 0.8"/>
      </g>
     </g>
     <g id="text_22">
      <!-- 22 -->
      <g transform="translate(459.542647 536.885009)rotate(-45)scale(0.12 -0.12)">
       <use xlink:href="#DejaVuSans-32"/>
       <use xlink:href="#DejaVuSans-32" x="63.623047"/>
      </g>
     </g>
    </g>
    <g id="xtick_23">
     <g id="line2d_23">
      <g>
       <use xlink:href="#mc75b84db91" x="481.2" y="512.64" style="stroke: #000000; stroke-width: 0.8"/>
      </g>
     </g>
     <g id="text_23">
      <!-- 23 -->
      <g transform="translate(478.142647 536.885009)rotate(-45)scale(0.12 -0.12)">
       <use xlink:href="#DejaVuSans-32"/>
       <use xlink:href="#DejaVuSans-33" x="63.623047"/>
      </g>
     </g>
    </g>
    <g id="xtick_24">
     <g id="line2d_24">
      <g>
       <use xlink:href="#mc75b84db91" x="499.8" y="512.64" style="stroke: #000000; stroke-width: 0.8"/>
      </g>
     </g>
     <g id="text_24">
      <!-- 24 -->
      <g transform="translate(496.742647 536.885009)rotate(-45)scale(0.12 -0.12)">
       <use xlink:href="#DejaVuSans-32"/>
       <use xlink:href="#DejaVuSans-34" x="63.623047"/>
      </g>
     </g>
    </g>
    <g id="text_25">
     <!-- $X$(km) -->
     <g transform="translate(280.1 550.248119)scale(0.1 -0.1)">
      <defs>
       <path id="DejaVuSans-Oblique-58" d="M 878 4666 
L 1516 4666 
L 2316 2981 
L 3763 4666 
L 4500 4666 
L 2578 2438 
L 3738 0 
L 3103 0 
L 2163 1966 
L 459 0 
L -275 0 
L 1906 2509 
L 878 4666 
z
" transform="scale(0.015625)"/>
       <path id="DejaVuSans-28" d="M 1984 4856 
Q 1566 4138 1362 3434 
Q 1159 2731 1159 2009 
Q 1159 1288 1364 580 
Q 1569 -128 1984 -844 
L 1484 -844 
Q 1016 -109 783 600 
Q 550 1309 550 2009 
Q 550 2706 781 3412 
Q 1013 4119 1484 4856 
L 1984 4856 
z
" transform="scale(0.015625)"/>
       <path id="DejaVuSans-6b" d="M 581 4863 
L 1159 4863 
L 1159 1991 
L 2875 3500 
L 3609 3500 
L 1753 1863 
L 3688 0 
L 2938 0 
L 1159 1709 
L 1159 0 
L 581 0 
L 581 4863 
z
" transform="scale(0.015625)"/>
       <path id="DejaVuSans-6d" d="M 3328 2828 
Q 3544 3216 3844 3400 
Q 4144 3584 4550 3584 
Q 5097 3584 5394 3201 
Q 5691 2819 5691 2113 
L 5691 0 
L 5113 0 
L 5113 2094 
Q 5113 2597 4934 2840 
Q 4756 3084 4391 3084 
Q 3944 3084 3684 2787 
Q 3425 2491 3425 1978 
L 3425 0 
L 2847 0 
L 2847 2094 
Q 2847 2600 2669 2842 
Q 2491 3084 2119 3084 
Q 1678 3084 1418 2786 
Q 1159 2488 1159 1978 
L 1159 0 
L 581 0 
L 581 3500 
L 1159 3500 
L 1159 2956 
Q 1356 3278 1631 3431 
Q 1906 3584 2284 3584 
Q 2666 3584 2933 3390 
Q 3200 3197 3328 2828 
z
" transform="scale(0.015625)"/>
       <path id="DejaVuSans-29" d="M 513 4856 
L 1013 4856 
Q 1481 4119 1714 3412 
Q 1947 2706 1947 2009 
Q 1947 1309 1714 600 
Q 1481 -109 1013 -844 
L 513 -844 
Q 928 -128 1133 580 
Q 1338 1288 1338 2009 
Q 1338 2731 1133 3434 
Q 928 4138 513 4856 
z
" transform="scale(0.015625)"/>
      </defs>
      <use xlink:href="#DejaVuSans-Oblique-58" transform="translate(0 0.015625)"/>
      <use xlink:href="#DejaVuSans-28" transform="translate(68.505859 0.015625)"/>
      <use xlink:href="#DejaVuSans-6b" transform="translate(107.519531 0.015625)"/>
      <use xlink:href="#DejaVuSans-6d" transform="translate(165.429688 0.015625)"/>
      <use xlink:href="#DejaVuSans-29" transform="translate(262.841797 0.015625)"/>
     </g>
    </g>
   </g>
   <g id="matplotlib.axis_2">
    <g id="ytick_1">
     <g id="line2d_25">
      <defs>
       <path id="mfffa812c26" d="M 0 0 
L -3.5 0 
" style="stroke: #000000; stroke-width: 0.8"/>
      </defs>
      <g>
       <use xlink:href="#mfffa812c26" x="72" y="512.64" style="stroke: #000000; stroke-width: 0.8"/>
      </g>
     </g>
     <g id="text_26">
      <!-- 1 -->
      <g transform="translate(57.365 517.199062)scale(0.12 -0.12)">
       <use xlink:href="#DejaVuSans-31"/>
      </g>
     </g>
    </g>
    <g id="ytick_2">
     <g id="line2d_26">
      <g>
       <use xlink:href="#mfffa812c26" x="72" y="494.16" style="stroke: #000000; stroke-width: 0.8"/>
      </g>
     </g>
     <g id="text_27">
      <!-- 2 -->
      <g transform="translate(57.365 498.719063)scale(0.12 -0.12)">
       <use xlink:href="#DejaVuSans-32"/>
      </g>
     </g>
    </g>
    <g id="ytick_3">
     <g id="line2d_27">
      <g>
       <use xlink:href="#mfffa812c26" x="72" y="475.68" style="stroke: #000000; stroke-width: 0.8"/>
      </g>
     </g>
     <g id="text_28">
      <!-- 3 -->
      <g transform="translate(57.365 480.239062)scale(0.12 -0.12)">
       <use xlink:href="#DejaVuSans-33"/>
      </g>
     </g>
    </g>
    <g id="ytick_4">
     <g id="line2d_28">
      <g>
       <use xlink:href="#mfffa812c26" x="72" y="457.2" style="stroke: #000000; stroke-width: 0.8"/>
      </g>
     </g>
     <g id="text_29">
      <!-- 4 -->
      <g transform="translate(57.365 461.759063)scale(0.12 -0.12)">
       <use xlink:href="#DejaVuSans-34"/>
      </g>
     </g>
    </g>
    <g id="ytick_5">
     <g id="line2d_29">
      <g>
       <use xlink:href="#mfffa812c26" x="72" y="438.72" style="stroke: #000000; stroke-width: 0.8"/>
      </g>
     </g>
     <g id="text_30">
      <!-- 5 -->
      <g transform="translate(57.365 443.279063)scale(0.12 -0.12)">
       <use xlink:href="#DejaVuSans-35"/>
      </g>
     </g>
    </g>
    <g id="ytick_6">
     <g id="line2d_30">
      <g>
       <use xlink:href="#mfffa812c26" x="72" y="420.24" style="stroke: #000000; stroke-width: 0.8"/>
      </g>
     </g>
     <g id="text_31">
      <!-- 6 -->
      <g transform="translate(57.365 424.799062)scale(0.12 -0.12)">
       <use xlink:href="#DejaVuSans-36"/>
      </g>
     </g>
    </g>
    <g id="ytick_7">
     <g id="line2d_31">
      <g>
       <use xlink:href="#mfffa812c26" x="72" y="401.76" style="stroke: #000000; stroke-width: 0.8"/>
      </g>
     </g>
     <g id="text_32">
      <!-- 7 -->
      <g transform="translate(57.365 406.319063)scale(0.12 -0.12)">
       <use xlink:href="#DejaVuSans-37"/>
      </g>
     </g>
    </g>
    <g id="ytick_8">
     <g id="line2d_32">
      <g>
       <use xlink:href="#mfffa812c26" x="72" y="383.28" style="stroke: #000000; stroke-width: 0.8"/>
      </g>
     </g>
     <g id="text_33">
      <!-- 8 -->
      <g transform="translate(57.365 387.839063)scale(0.12 -0.12)">
       <use xlink:href="#DejaVuSans-38"/>
      </g>
     </g>
    </g>
    <g id="ytick_9">
     <g id="line2d_33">
      <g>
       <use xlink:href="#mfffa812c26" x="72" y="364.8" style="stroke: #000000; stroke-width: 0.8"/>
      </g>
     </g>
     <g id="text_34">
      <!-- 9 -->
      <g transform="translate(57.365 369.359063)scale(0.12 -0.12)">
       <use xlink:href="#DejaVuSans-39"/>
      </g>
     </g>
    </g>
    <g id="ytick_10">
     <g id="line2d_34">
      <g>
       <use xlink:href="#mfffa812c26" x="72" y="346.32" style="stroke: #000000; stroke-width: 0.8"/>
      </g>
     </g>
     <g id="text_35">
      <!-- 10 -->
      <g transform="translate(49.73 350.879063)scale(0.12 -0.12)">
       <use xlink:href="#DejaVuSans-31"/>
       <use xlink:href="#DejaVuSans-30" x="63.623047"/>
      </g>
     </g>
    </g>
    <g id="ytick_11">
     <g id="line2d_35">
      <g>
       <use xlink:href="#mfffa812c26" x="72" y="327.84" style="stroke: #000000; stroke-width: 0.8"/>
      </g>
     </g>
     <g id="text_36">
      <!-- 11 -->
      <g transform="translate(49.73 332.399063)scale(0.12 -0.12)">
       <use xlink:href="#DejaVuSans-31"/>
       <use xlink:href="#DejaVuSans-31" x="63.623047"/>
      </g>
     </g>
    </g>
    <g id="ytick_12">
     <g id="line2d_36">
      <g>
       <use xlink:href="#mfffa812c26" x="72" y="309.36" style="stroke: #000000; stroke-width: 0.8"/>
      </g>
     </g>
     <g id="text_37">
      <!-- 12 -->
      <g transform="translate(49.73 313.919062)scale(0.12 -0.12)">
       <use xlink:href="#DejaVuSans-31"/>
       <use xlink:href="#DejaVuSans-32" x="63.623047"/>
      </g>
     </g>
    </g>
    <g id="ytick_13">
     <g id="line2d_37">
      <g>
       <use xlink:href="#mfffa812c26" x="72" y="290.88" style="stroke: #000000; stroke-width: 0.8"/>
      </g>
     </g>
     <g id="text_38">
      <!-- 13 -->
      <g transform="translate(49.73 295.439063)scale(0.12 -0.12)">
       <use xlink:href="#DejaVuSans-31"/>
       <use xlink:href="#DejaVuSans-33" x="63.623047"/>
      </g>
     </g>
    </g>
    <g id="ytick_14">
     <g id="line2d_38">
      <g>
       <use xlink:href="#mfffa812c26" x="72" y="272.4" style="stroke: #000000; stroke-width: 0.8"/>
      </g>
     </g>
     <g id="text_39">
      <!-- 14 -->
      <g transform="translate(49.73 276.959063)scale(0.12 -0.12)">
       <use xlink:href="#DejaVuSans-31"/>
       <use xlink:href="#DejaVuSans-34" x="63.623047"/>
      </g>
     </g>
    </g>
    <g id="ytick_15">
     <g id="line2d_39">
      <g>
       <use xlink:href="#mfffa812c26" x="72" y="253.92" style="stroke: #000000; stroke-width: 0.8"/>
      </g>
     </g>
     <g id="text_40">
      <!-- 15 -->
      <g transform="translate(49.73 258.479063)scale(0.12 -0.12)">
       <use xlink:href="#DejaVuSans-31"/>
       <use xlink:href="#DejaVuSans-35" x="63.623047"/>
      </g>
     </g>
    </g>
    <g id="ytick_16">
     <g id="line2d_40">
      <g>
       <use xlink:href="#mfffa812c26" x="72" y="235.44" style="stroke: #000000; stroke-width: 0.8"/>
      </g>
     </g>
     <g id="text_41">
      <!-- 16 -->
      <g transform="translate(49.73 239.999063)scale(0.12 -0.12)">
       <use xlink:href="#DejaVuSans-31"/>
       <use xlink:href="#DejaVuSans-36" x="63.623047"/>
      </g>
     </g>
    </g>
    <g id="ytick_17">
     <g id="line2d_41">
      <g>
       <use xlink:href="#mfffa812c26" x="72" y="216.96" style="stroke: #000000; stroke-width: 0.8"/>
      </g>
     </g>
     <g id="text_42">
      <!-- 17 -->
      <g transform="translate(49.73 221.519063)scale(0.12 -0.12)">
       <use xlink:href="#DejaVuSans-31"/>
       <use xlink:href="#DejaVuSans-37" x="63.623047"/>
      </g>
     </g>
    </g>
    <g id="ytick_18">
     <g id="line2d_42">
      <g>
       <use xlink:href="#mfffa812c26" x="72" y="198.48" style="stroke: #000000; stroke-width: 0.8"/>
      </g>
     </g>
     <g id="text_43">
      <!-- 18 -->
      <g transform="translate(49.73 203.039063)scale(0.12 -0.12)">
       <use xlink:href="#DejaVuSans-31"/>
       <use xlink:href="#DejaVuSans-38" x="63.623047"/>
      </g>
     </g>
    </g>
    <g id="ytick_19">
     <g id="line2d_43">
      <g>
       <use xlink:href="#mfffa812c26" x="72" y="180" style="stroke: #000000; stroke-width: 0.8"/>
      </g>
     </g>
     <g id="text_44">
      <!-- 19 -->
      <g transform="translate(49.73 184.559063)scale(0.12 -0.12)">
       <use xlink:href="#DejaVuSans-31"/>
       <use xlink:href="#DejaVuSans-39" x="63.623047"/>
      </g>
     </g>
    </g>
    <g id="ytick_20">
     <g id="line2d_44">
      <g>
       <use xlink:href="#mfffa812c26" x="72" y="161.52" style="stroke: #000000; stroke-width: 0.8"/>
      </g>
     </g>
     <g id="text_45">
      <!-- 20 -->
      <g transform="translate(49.73 166.079063)scale(0.12 -0.12)">
       <use xlink:href="#DejaVuSans-32"/>
       <use xlink:href="#DejaVuSans-30" x="63.623047"/>
      </g>
     </g>
    </g>
    <g id="ytick_21">
     <g id="line2d_45">
      <g>
       <use xlink:href="#mfffa812c26" x="72" y="143.04" style="stroke: #000000; stroke-width: 0.8"/>
      </g>
     </g>
     <g id="text_46">
      <!-- 21 -->
      <g transform="translate(49.73 147.599063)scale(0.12 -0.12)">
       <use xlink:href="#DejaVuSans-32"/>
       <use xlink:href="#DejaVuSans-31" x="63.623047"/>
      </g>
     </g>
    </g>
    <g id="ytick_22">
     <g id="line2d_46">
      <g>
       <use xlink:href="#mfffa812c26" x="72" y="124.56" style="stroke: #000000; stroke-width: 0.8"/>
      </g>
     </g>
     <g id="text_47">
      <!-- 22 -->
      <g transform="translate(49.73 129.119063)scale(0.12 -0.12)">
       <use xlink:href="#DejaVuSans-32"/>
       <use xlink:href="#DejaVuSans-32" x="63.623047"/>
      </g>
     </g>
    </g>
    <g id="ytick_23">
     <g id="line2d_47">
      <g>
       <use xlink:href="#mfffa812c26" x="72" y="106.08" style="stroke: #000000; stroke-width: 0.8"/>
      </g>
     </g>
     <g id="text_48">
      <!-- 23 -->
      <g transform="translate(49.73 110.639063)scale(0.12 -0.12)">
       <use xlink:href="#DejaVuSans-32"/>
       <use xlink:href="#DejaVuSans-33" x="63.623047"/>
      </g>
     </g>
    </g>
    <g id="ytick_24">
     <g id="line2d_48">
      <g>
       <use xlink:href="#mfffa812c26" x="72" y="87.6" style="stroke: #000000; stroke-width: 0.8"/>
      </g>
     </g>
     <g id="text_49">
      <!-- 24 -->
      <g transform="translate(49.73 92.159063)scale(0.12 -0.12)">
       <use xlink:href="#DejaVuSans-32"/>
       <use xlink:href="#DejaVuSans-34" x="63.623047"/>
      </g>
     </g>
    </g>
    <g id="text_50">
     <!-- $Y$(km) -->
     <g transform="translate(43.650312 305.63)rotate(-90)scale(0.1 -0.1)">
      <defs>
       <path id="DejaVuSans-Oblique-59" d="M 403 4666 
L 1081 4666 
L 1953 2747 
L 3616 4666 
L 4325 4666 
L 2209 2222 
L 1778 0 
L 1147 0 
L 1575 2222 
L 403 4666 
z
" transform="scale(0.015625)"/>
      </defs>
      <use xlink:href="#DejaVuSans-Oblique-59" transform="translate(0 0.015625)"/>
      <use xlink:href="#DejaVuSans-28" transform="translate(61.083984 0.015625)"/>
      <use xlink:href="#DejaVuSans-6b" transform="translate(100.097656 0.015625)"/>
      <use xlink:href="#DejaVuSans-6d" transform="translate(158.007812 0.015625)"/>
      <use xlink:href="#DejaVuSans-29" transform="translate(255.419922 0.015625)"/>
     </g>
    </g>
   </g>
   <g id="line2d_49">
    <path d="M 146.4 425.784 
L 148.906027 425.705408 
L 164.373874 424.987044 
L 168.31421 424.509548 
L 172.095924 423.84311 
L 175.684286 422.987121 
L 179.083142 421.944422 
L 182.322024 420.710959 
L 185.438402 419.272338 
L 188.460962 417.607147 
L 191.39945 415.694208 
L 194.243144 413.520113 
L 196.966342 411.084286 
L 199.537358 408.400254 
L 201.927447 405.49334 
L 204.117142 402.396197 
L 206.099133 399.143995 
L 207.878231 395.770646 
L 209.469622 392.306606 
L 211.230828 387.888612 
L 213.087032 382.513237 
L 215.586317 374.420749 
L 218.104672 366.441619 
L 219.984807 361.263755 
L 221.760353 357.07679 
L 223.353303 353.832566 
L 225.122797 350.699639 
L 227.086186 347.695177 
L 229.256591 344.837093 
L 231.642443 342.143765 
L 234.247011 339.633522 
L 236.342795 337.881565 
L 238.557289 336.249197 
L 240.885491 334.742269 
L 244.154594 332.936005 
L 247.592735 331.367646 
L 251.174735 330.038161 
L 254.872377 328.941939 
L 258.656095 328.066547 
L 262.496777 327.393091 
L 267.336972 326.797549 
L 272.179623 326.422202 
L 278.90189 326.146388 
L 280.803173 326.099201 
L 280.803173 326.099201 
" clip-path="url(#pae99eaca16)" style="fill: none; stroke-dasharray: 3.7,1.6; stroke-dashoffset: 0; stroke: #7b68ee; stroke-opacity: 0.5"/>
   </g>
   <g id="line2d_50">
    <path d="M 157.675651 432.252 
L 159.311047 432.204464 
L 167.158578 431.53617 
L 178.020206 430.856193 
L 182.180201 430.344972 
L 186.229113 429.593043 
L 190.029687 428.599478 
L 193.505203 427.397069 
L 196.646922 426.026524 
L 199.507784 424.508715 
L 202.184067 422.825798 
L 204.777884 420.924559 
L 207.351473 418.743612 
L 209.904616 416.245395 
L 212.385788 413.434112 
L 214.723537 410.353315 
L 216.859169 407.06657 
L 218.764366 403.635495 
L 220.440922 400.108015 
L 221.912063 396.517029 
L 223.518156 391.969904 
L 225.218983 386.457953 
L 229.341097 372.718031 
L 230.905858 368.312814 
L 232.643235 364.065404 
L 234.186822 360.794404 
L 235.891876 357.64568 
L 237.778754 354.631162 
L 239.863324 351.765778 
L 242.156574 349.065454 
L 244.664411 346.545691 
L 247.387135 344.220786 
L 250.319671 342.102821 
L 253.452891 340.200594 
L 256.774523 338.519181 
L 260.268375 337.059894 
L 263.91277 335.819938 
L 267.680117 334.791641 
L 271.538458 333.961799 
L 276.438347 333.17455 
L 281.366037 332.621054 
L 287.242785 332.188975 
L 294.862814 331.86074 
L 307.48821 331.526551 
L 312.838063 331.204867 
L 317.561316 330.68511 
L 321.419402 330.022947 
L 325.238801 329.100018 
L 328.020012 328.228602 
L 330.696858 327.205595 
L 333.253186 326.035854 
L 335.68407 324.723615 
L 337.992115 323.27073 
L 340.182929 321.676766 
L 342.261327 319.940577 
L 344.229283 318.062421 
L 346.085771 316.045723 
L 347.82798 313.897925 
L 349.968457 310.850197 
L 351.899058 307.62387 
L 353.626654 304.256453 
L 355.167539 300.783906 
L 356.868724 296.342761 
L 358.660731 290.929983 
L 361.620949 280.96684 
L 363.572223 274.71571 
L 365.120822 270.342139 
L 366.865102 266.076114 
L 368.435786 262.760891 
L 370.186141 259.550876 
L 372.133361 256.464928 
L 374.289106 253.523294 
L 376.658766 250.746677 
L 379.2412 248.154849 
L 382.029041 245.76517 
L 385.009447 243.591407 
L 388.165021 241.643035 
L 391.474693 239.924971 
L 394.914573 238.437499 
L 398.458926 237.176231 
L 402.081434 236.132117 
L 405.756718 235.291598 
L 410.390666 234.499995 
L 415.036423 233.956661 
L 420.596252 233.564035 
L 427.048045 233.346984 
L 427.048045 233.346984 
" clip-path="url(#pae99eaca16)" style="fill: none; stroke-dasharray: 3.7,1.6; stroke-dashoffset: 0; stroke: #ffe4b5; stroke-opacity: 0.5"/>
   </g>
   <g id="line2d_51">
    <path d="M 157.675651 445.188 
L 159.280129 445.149517 
L 165.43216 444.632415 
L 178.159184 443.834178 
L 182.204085 443.317363 
L 186.19258 442.561492 
L 189.971188 441.559603 
L 193.41874 440.351032 
L 196.514712 438.983297 
L 199.340891 437.466306 
L 202.02497 435.760655 
L 204.661902 433.809752 
L 207.278671 431.574026 
L 209.849387 429.040943 
L 212.323355 426.22257 
L 214.646212 423.152829 
L 216.773161 419.88388 
L 218.678189 416.475468 
L 220.359208 412.978484 
L 221.83698 409.423345 
L 223.455916 404.914187 
L 225.456487 398.50191 
L 229.350696 385.723867 
L 231.249029 380.457307 
L 233.030393 376.226031 
L 234.61687 372.965939 
L 236.368936 369.830785 
L 238.30654 366.831633 
L 240.446743 363.981953 
L 242.79983 361.299562 
L 245.368219 358.803603 
L 248.149372 356.509889 
L 250.372188 354.929097 
L 253.513102 353.013907 
L 256.845596 351.324493 
L 260.351061 349.86432 
L 264.004647 348.631823 
L 267.777526 347.619021 
L 271.638566 346.811395 
L 276.539624 346.05872 
L 281.466504 345.543845 
L 287.339142 345.15816 
L 305.932963 344.179804 
L 315.281099 343.374867 
L 319.709489 342.833624 
L 323.602547 342.15101 
L 326.605921 341.439148 
L 329.554235 340.54317 
L 332.355326 339.473739 
L 334.963875 338.250494 
L 337.377271 336.888994 
L 339.6182 335.39394 
L 341.714728 333.761731 
L 343.686557 331.988018 
L 345.542164 330.072921 
L 347.283449 328.020947 
L 348.911454 325.838116 
L 350.911716 322.734167 
L 352.729341 319.425605 
L 354.378664 315.945414 
L 356.222732 311.435535 
L 357.848604 306.856413 
L 359.570213 301.369204 
L 364.240967 285.88479 
L 365.87037 281.476854 
L 367.697551 277.229077 
L 369.334301 273.948129 
L 371.1583 270.774147 
L 373.189333 267.727567 
L 375.430983 264.840419 
L 377.877881 262.139384 
L 380.527588 259.63746 
L 383.381559 257.340588 
L 386.434432 255.257121 
L 389.666276 253.398069 
L 393.047435 251.770399 
L 396.54937 250.372744 
L 400.149468 249.196725 
L 403.827283 248.229997 
L 407.559258 247.457415 
L 412.259469 246.73639 
L 416.954647 246.246789 
L 422.54236 245.896608 
L 427.152829 245.742808 
L 427.152829 245.742808 
" clip-path="url(#pae99eaca16)" style="fill: none; stroke-dasharray: 3.7,1.6; stroke-dashoffset: 0; stroke: #c54f85; stroke-opacity: 0.5"/>
   </g>
   <g id="line2d_52">
    <path d="M 146.4 451.656 
L 148.861557 451.56343 
L 154.211943 451.187706 
L 166.045337 450.472981 
L 170.063857 449.977302 
L 173.97243 449.269496 
L 177.706577 448.335302 
L 181.210829 447.184083 
L 184.440126 445.847382 
L 187.394018 444.355776 
L 190.144606 442.699972 
L 192.80675 440.818457 
L 195.456398 438.640288 
L 198.083752 436.140044 
L 200.617486 433.351512 
L 202.981636 430.33577 
L 205.135226 427.141044 
L 207.071846 423.795766 
L 208.800936 420.328254 
L 210.337252 416.778339 
L 212.020326 412.284395 
L 213.782638 406.849821 
L 218.828107 390.465043 
L 220.446991 386.134135 
L 222.251714 381.952575 
L 223.87039 378.713566 
L 225.669393 375.58946 
L 227.658441 372.610619 
L 229.84347 369.799028 
L 232.235424 367.163637 
L 234.845858 364.712012 
L 236.948036 363.002857 
L 239.168944 361.413567 
L 241.501724 359.950508 
L 244.775325 358.201641 
L 248.223849 356.684547 
L 251.830824 355.396698 
L 255.570263 354.332087 
L 259.408374 353.479121 
L 263.309955 352.819335 
L 268.22816 352.228442 
L 274.12223 351.786688 
L 280.897548 351.506016 
L 280.897548 351.506016 
" clip-path="url(#pae99eaca16)" style="fill: none; stroke-dasharray: 3.7,1.6; stroke-dashoffset: 0; stroke: #00bfff; stroke-opacity: 0.5"/>
   </g>
   <g id="line2d_53">
    <path d="M 135.124349 445.188 
L 137.605332 445.112434 
L 142.937635 444.763366 
L 152.738005 444.256693 
L 156.835772 443.84262 
L 160.834622 443.219742 
L 164.616294 442.383412 
L 168.146868 441.346236 
L 171.453335 440.114797 
L 174.566302 438.692002 
L 177.496183 437.085299 
L 180.262717 435.291605 
L 182.920311 433.272247 
L 185.526917 430.96372 
L 188.090236 428.329111 
L 190.555634 425.397957 
L 192.842358 422.254462 
L 194.895324 418.98075 
L 196.709222 415.6121 
L 198.314861 412.144428 
L 200.091229 407.669041 
L 201.971266 402.178875 
L 204.467159 393.992338 
L 206.961488 385.877897 
L 208.53247 381.428204 
L 210.282252 377.148031 
L 212.219592 373.092589 
L 213.940051 369.983759 
L 215.859955 366.973209 
L 218.004077 364.084483 
L 220.362907 361.368823 
L 222.917552 358.861062 
L 225.670845 356.56363 
L 227.8772 354.974602 
L 230.207527 353.503329 
L 233.491971 351.737835 
L 236.946417 350.209824 
L 240.541807 348.920433 
L 244.261227 347.859445 
L 248.085439 347.011793 
L 251.982429 346.358828 
L 256.897711 345.77972 
L 262.784401 345.356744 
L 270.523109 345.075801 
L 274.37808 344.876466 
L 287.41809 343.979152 
L 293.903516 343.358001 
L 298.340636 342.726064 
L 302.098275 341.962773 
L 304.969496 341.19572 
L 307.81637 340.246808 
L 310.575177 339.118756 
L 313.194127 337.826342 
L 315.641482 336.389581 
L 317.9077 334.825572 
L 320.001498 333.142466 
L 321.941849 331.338354 
L 323.749278 329.405179 
L 325.43985 327.335 
L 327.528219 324.358432 
L 329.435909 321.151051 
L 331.167884 317.752199 
L 332.731702 314.214267 
L 334.471564 309.676363 
L 336.301609 304.165512 
L 338.740571 295.908076 
L 341.202188 287.74546 
L 342.739261 283.303721 
L 344.472119 278.978535 
L 346.028573 275.629051 
L 347.756333 272.396058 
L 349.672097 269.293699 
L 351.790298 266.336438 
L 354.120714 263.541075 
L 356.665936 260.9265 
L 359.420437 258.511295 
L 362.371763 256.310802 
L 365.502823 254.335295 
L 368.793792 252.589684 
L 372.222951 251.074052 
L 375.766857 249.784143 
L 379.400621 248.71148 
L 383.098773 247.843317 
L 386.836674 247.162782 
L 391.531503 246.544426 
L 396.219667 246.140821 
L 401.806922 245.868491 
L 404.580685 245.792242 
L 404.580685 245.792242 
" clip-path="url(#pae99eaca16)" style="fill: none; stroke-dasharray: 3.7,1.6; stroke-dashoffset: 0; stroke: #86f2c0; stroke-opacity: 0.5"/>
   </g>
   <g id="line2d_54">
    <path d="M 135.124349 432.252 
L 137.640468 432.153821 
L 143.180087 431.754173 
L 154.651176 431.063192 
L 158.640963 430.582724 
L 162.639753 429.869982 
L 166.481125 428.91568 
L 170.032105 427.753077 
L 173.264206 426.418816 
L 176.244971 424.916872 
L 179.069175 423.220078 
L 181.791608 421.299036 
L 184.422623 419.133807 
L 186.959682 416.703069 
L 189.399148 413.985527 
L 191.722858 410.986507 
L 193.890023 407.760566 
L 195.852781 404.394841 
L 197.585852 400.958308 
L 199.103417 397.467768 
L 200.767434 392.998906 
L 202.558121 387.483005 
L 208.22003 369.447646 
L 209.930883 365.081022 
L 211.467881 361.712943 
L 213.143617 358.508171 
L 214.965098 355.460469 
L 216.972889 352.536405 
L 219.212686 349.72913 
L 221.694224 347.07879 
L 223.696269 345.226847 
L 226.526277 342.961623 
L 229.534879 340.927009 
L 232.737008 339.113674 
L 236.134472 337.524766 
L 239.69881 336.170304 
L 243.387714 335.051727 
L 247.167733 334.15709 
L 251.018161 333.465956 
L 255.901617 332.850293 
L 260.818187 332.457743 
L 267.660167 332.161554 
L 274.451331 331.883369 
L 286.932988 331.003635 
L 293.959962 330.298061 
L 298.230382 329.688529 
L 301.927031 328.955705 
L 304.805268 328.210035 
L 307.693008 327.275615 
L 310.507762 326.153919 
L 313.18134 324.861677 
L 315.67259 323.42215 
L 317.96849 321.855648 
L 320.077874 320.172854 
L 322.021985 318.373199 
L 323.824817 316.448484 
L 325.506122 314.38941 
L 327.579963 311.428623 
L 329.474356 308.235096 
L 331.195628 304.846765 
L 332.751187 301.31576 
L 334.483605 296.780694 
L 336.308731 291.263349 
L 338.746824 282.985418 
L 341.209427 274.808383 
L 342.748167 270.358841 
L 344.485712 266.022798 
L 346.048537 262.663037 
L 347.78432 259.419864 
L 349.708654 256.308606 
L 351.835 253.344222 
L 354.172595 250.543419 
L 356.723859 247.92473 
L 359.483205 245.506415 
L 362.437986 243.303653 
L 365.570767 241.326642 
L 368.861473 239.580176 
L 372.288522 238.064133 
L 375.829071 236.774026 
L 379.459141 235.701189 
L 383.154176 234.832768 
L 386.890184 234.151828 
L 391.584598 233.532687 
L 396.273741 233.12791 
L 401.861464 232.853656 
L 404.634093 232.776336 
L 404.634093 232.776336 
" clip-path="url(#pae99eaca16)" style="fill: none; stroke-dasharray: 3.7,1.6; stroke-dashoffset: 0; stroke: #3cb371; stroke-opacity: 0.5"/>
   </g>
   <g id="line2d_55">
    <path d="M 146.4 438.72 
L 156.629108 438.624682 
L 162.200723 438.330332 
L 166.824566 437.846278 
L 170.49706 437.260031 
L 174.130261 436.468702 
L 177.705864 435.451231 
L 181.202543 434.19207 
L 184.596897 432.681798 
L 187.86469 430.917488 
L 190.982288 428.902733 
L 193.928169 426.647295 
L 196.684363 424.166397 
L 199.237705 421.479685 
L 201.58078 418.609968 
L 203.712518 415.58185 
L 205.638393 412.420385 
L 207.370266 409.149881 
L 208.925916 405.792958 
L 210.65814 401.505978 
L 212.498254 396.272495 
L 214.999745 388.336725 
L 217.546 380.415225 
L 219.463306 375.209316 
L 221.285184 370.959292 
L 222.926378 367.642885 
L 224.753386 364.423949 
L 226.781102 361.326046 
L 229.018233 358.373995 
L 231.466981 355.592784 
L 234.123053 353.006294 
L 236.976063 350.63592 
L 240.010303 348.499241 
L 243.205856 346.608861 
L 246.539957 344.971525 
L 249.988483 343.587585 
L 253.527445 342.450841 
L 257.134342 341.548746 
L 260.789261 340.862905 
L 264.475652 340.369796 
L 269.108762 339.98174 
L 274.684269 339.768799 
L 283.053979 339.720185 
L 291.423086 339.624866 
L 296.994701 339.330517 
L 301.618545 338.846463 
L 305.291039 338.260216 
L 308.92424 337.468887 
L 312.499842 336.451416 
L 315.996521 335.192255 
L 319.390875 333.681983 
L 322.658668 331.917673 
L 325.776267 329.902918 
L 328.722148 327.64748 
L 331.478342 325.166582 
L 334.031683 322.47987 
L 336.374758 319.610153 
L 338.506496 316.582035 
L 340.432372 313.42057 
L 342.164245 310.150066 
L 343.719895 306.793143 
L 345.452119 302.506163 
L 347.292232 297.27268 
L 349.793723 289.33691 
L 352.339979 281.41541 
L 354.257284 276.2095 
L 356.079163 271.959476 
L 357.720357 268.64307 
L 359.547365 265.424133 
L 361.57508 262.326231 
L 363.812212 259.37418 
L 366.26096 256.592969 
L 368.917032 254.006479 
L 371.770042 251.636105 
L 374.804282 249.499426 
L 377.999835 247.609046 
L 381.333936 245.97171 
L 384.782461 244.58777 
L 388.321424 243.451026 
L 391.928321 242.548931 
L 395.58324 241.86309 
L 399.269631 241.369981 
L 403.90274 240.981925 
L 409.478248 240.768984 
L 415.987957 240.72037 
L 415.987957 240.72037 
" clip-path="url(#pae99eaca16)" style="fill: none; stroke-dasharray: 1.85,0.8; stroke-dashoffset: 0; stroke: #cc1a1a; stroke-width: 0.5"/>
   </g>
   <g id="patch_3">
    <path d="M 72 512.64 
L 72 69.12 
" style="fill: none; stroke: #000000; stroke-width: 0.8; stroke-linejoin: miter; stroke-linecap: square"/>
   </g>
   <g id="patch_4">
    <path d="M 518.4 512.64 
L 518.4 69.12 
" style="fill: none; stroke: #000000; stroke-width: 0.8; stroke-linejoin: miter; stroke-linecap: square"/>
   </g>
   <g id="patch_5">
    <path d="M 72 512.64 
L 518.4 512.64 
" style="fill: none; stroke: #000000; stroke-width: 0.8; stroke-linejoin: miter; stroke-linecap: square"/>
   </g>
   <g id="patch_6">
    <path d="M 72 69.12 
L 518.4 69.12 
" style="fill: none; stroke: #000000; stroke-width: 0.8; stroke-linejoin: miter; stroke-linecap: square"/>
   </g>
   <g id="legend_1">
    <g id="PathCollection_8">
     <g>
      <use xlink:href="#mc357bd5f9f" x="100.5" y="90.080156" style="fill: #cc1a1a; fill-opacity: 0.5; stroke: #cc1a1a; stroke-opacity: 0.5"/>
     </g>
    </g>
    <g id="text_51">
     <!-- Target -->
     <g transform="translate(127.5 94.017656)scale(0.15 -0.15)">
      <defs>
       <path id="DejaVuSans-54" d="M -19 4666 
L 3928 4666 
L 3928 4134 
L 2272 4134 
L 2272 0 
L 1638 0 
L 1638 4134 
L -19 4134 
L -19 4666 
z
" transform="scale(0.015625)"/>
       <path id="DejaVuSans-61" d="M 2194 1759 
Q 1497 1759 1228 1600 
Q 959 1441 959 1056 
Q 959 750 1161 570 
Q 1363 391 1709 391 
Q 2188 391 2477 730 
Q 2766 1069 2766 1631 
L 2766 1759 
L 2194 1759 
z
M 3341 1997 
L 3341 0 
L 2766 0 
L 2766 531 
Q 2569 213 2275 61 
Q 1981 -91 1556 -91 
Q 1019 -91 701 211 
Q 384 513 384 1019 
Q 384 1609 779 1909 
Q 1175 2209 1959 2209 
L 2766 2209 
L 2766 2266 
Q 2766 2663 2505 2880 
Q 2244 3097 1772 3097 
Q 1472 3097 1187 3025 
Q 903 2953 641 2809 
L 641 3341 
Q 956 3463 1253 3523 
Q 1550 3584 1831 3584 
Q 2591 3584 2966 3190 
Q 3341 2797 3341 1997 
z
" transform="scale(0.015625)"/>
       <path id="DejaVuSans-72" d="M 2631 2963 
Q 2534 3019 2420 3045 
Q 2306 3072 2169 3072 
Q 1681 3072 1420 2755 
Q 1159 2438 1159 1844 
L 1159 0 
L 581 0 
L 581 3500 
L 1159 3500 
L 1159 2956 
Q 1341 3275 1631 3429 
Q 1922 3584 2338 3584 
Q 2397 3584 2469 3576 
Q 2541 3569 2628 3553 
L 2631 2963 
z
" transform="scale(0.015625)"/>
       <path id="DejaVuSans-67" d="M 2906 1791 
Q 2906 2416 2648 2759 
Q 2391 3103 1925 3103 
Q 1463 3103 1205 2759 
Q 947 2416 947 1791 
Q 947 1169 1205 825 
Q 1463 481 1925 481 
Q 2391 481 2648 825 
Q 2906 1169 2906 1791 
z
M 3481 434 
Q 3481 -459 3084 -895 
Q 2688 -1331 1869 -1331 
Q 1566 -1331 1297 -1286 
Q 1028 -1241 775 -1147 
L 775 -588 
Q 1028 -725 1275 -790 
Q 1522 -856 1778 -856 
Q 2344 -856 2625 -561 
Q 2906 -266 2906 331 
L 2906 616 
Q 2728 306 2450 153 
Q 2172 0 1784 0 
Q 1141 0 747 490 
Q 353 981 353 1791 
Q 353 2603 747 3093 
Q 1141 3584 1784 3584 
Q 2172 3584 2450 3431 
Q 2728 3278 2906 2969 
L 2906 3500 
L 3481 3500 
L 3481 434 
z
" transform="scale(0.015625)"/>
       <path id="DejaVuSans-65" d="M 3597 1894 
L 3597 1613 
L 953 1613 
Q 991 1019 1311 708 
Q 1631 397 2203 397 
Q 2534 397 2845 478 
Q 3156 559 3463 722 
L 3463 178 
Q 3153 47 2828 -22 
Q 2503 -91 2169 -91 
Q 1331 -91 842 396 
Q 353 884 353 1716 
Q 353 2575 817 3079 
Q 1281 3584 2069 3584 
Q 2775 3584 3186 3129 
Q 3597 2675 3597 1894 
z
M 3022 2063 
Q 3016 2534 2758 2815 
Q 2500 3097 2075 3097 
Q 1594 3097 1305 2825 
Q 1016 2553 972 2059 
L 3022 2063 
z
" transform="scale(0.015625)"/>
       <path id="DejaVuSans-74" d="M 1172 4494 
L 1172 3500 
L 2356 3500 
L 2356 3053 
L 1172 3053 
L 1172 1153 
Q 1172 725 1289 603 
Q 1406 481 1766 481 
L 2356 481 
L 2356 0 
L 1766 0 
Q 1100 0 847 248 
Q 594 497 594 1153 
L 594 3053 
L 172 3053 
L 172 3500 
L 594 3500 
L 594 4494 
L 1172 4494 
z
" transform="scale(0.015625)"/>
      </defs>
      <use xlink:href="#DejaVuSans-54"/>
      <use xlink:href="#DejaVuSans-61" x="44.583984"/>
      <use xlink:href="#DejaVuSans-72" x="105.863281"/>
      <use xlink:href="#DejaVuSans-67" x="145.226562"/>
      <use xlink:href="#DejaVuSans-65" x="208.703125"/>
      <use xlink:href="#DejaVuSans-74" x="270.226562"/>
     </g>
    </g>
    <g id="PathCollection_9">
     <g>
      <use xlink:href="#m298c873142" x="100.5" y="112.097344" style="fill: #7b68ee; stroke: #7b68ee"/>
     </g>
    </g>
    <g id="text_52">
     <!-- $M_1$ -->
     <g transform="translate(127.5 116.034844)scale(0.15 -0.15)">
      <defs>
       <path id="DejaVuSans-Oblique-4d" d="M 1081 4666 
L 2028 4666 
L 2572 1522 
L 4378 4666 
L 5350 4666 
L 4441 0 
L 3828 0 
L 4622 4091 
L 2791 897 
L 2175 897 
L 1581 4103 
L 788 0 
L 172 0 
L 1081 4666 
z
" transform="scale(0.015625)"/>
      </defs>
      <use xlink:href="#DejaVuSans-Oblique-4d" transform="translate(0 0.09375)"/>
      <use xlink:href="#DejaVuSans-31" transform="translate(86.279297 -16.3125)scale(0.7)"/>
     </g>
    </g>
    <g id="PathCollection_10">
     <g>
      <use xlink:href="#m11d058384a" x="100.5" y="134.114531" style="fill: #ffe4b5; stroke: #ffe4b5"/>
     </g>
    </g>
    <g id="text_53">
     <!-- $M_2$ -->
     <g transform="translate(127.5 138.052031)scale(0.15 -0.15)">
      <use xlink:href="#DejaVuSans-Oblique-4d" transform="translate(0 0.09375)"/>
      <use xlink:href="#DejaVuSans-32" transform="translate(86.279297 -16.3125)scale(0.7)"/>
     </g>
    </g>
    <g id="PathCollection_11">
     <g>
      <use xlink:href="#mb16ccec24f" x="100.5" y="156.131719" style="fill: #c54f85; stroke: #c54f85"/>
     </g>
    </g>
    <g id="text_54">
     <!-- $M_3$ -->
     <g transform="translate(127.5 160.069219)scale(0.15 -0.15)">
      <use xlink:href="#DejaVuSans-Oblique-4d" transform="translate(0 0.09375)"/>
      <use xlink:href="#DejaVuSans-33" transform="translate(86.279297 -16.3125)scale(0.7)"/>
     </g>
    </g>
    <g id="PathCollection_12">
     <g>
      <use xlink:href="#m1629505ed8" x="100.5" y="178.148906" style="fill: #00bfff; stroke: #00bfff"/>
     </g>
    </g>
    <g id="text_55">
     <!-- $M_4$ -->
     <g transform="translate(127.5 182.086406)scale(0.15 -0.15)">
      <use xlink:href="#DejaVuSans-Oblique-4d" transform="translate(0 0.09375)"/>
      <use xlink:href="#DejaVuSans-34" transform="translate(86.279297 -16.3125)scale(0.7)"/>
     </g>
    </g>
    <g id="PathCollection_13">
     <g>
      <use xlink:href="#m6ec1ed4aae" x="100.5" y="200.166094" style="fill: #86f2c0; stroke: #86f2c0"/>
     </g>
    </g>
    <g id="text_56">
     <!-- $M_5$ -->
     <g transform="translate(127.5 204.103594)scale(0.15 -0.15)">
      <use xlink:href="#DejaVuSans-Oblique-4d" transform="translate(0 0.09375)"/>
      <use xlink:href="#DejaVuSans-35" transform="translate(86.279297 -16.3125)scale(0.7)"/>
     </g>
    </g>
    <g id="PathCollection_14">
     <g>
      <use xlink:href="#m5d0e0aacf8" x="100.5" y="222.183281" style="fill: #3cb371; stroke: #3cb371"/>
     </g>
    </g>
    <g id="text_57">
     <!-- $M_6$ -->
     <g transform="translate(127.5 226.120781)scale(0.15 -0.15)">
      <use xlink:href="#DejaVuSans-Oblique-4d" transform="translate(0 0.09375)"/>
      <use xlink:href="#DejaVuSans-36" transform="translate(86.279297 -16.3125)scale(0.7)"/>
     </g>
    </g>
   </g>
   <g id="PathCollection_15">
    <g clip-path="url(#pae99eaca16)">
     <use xlink:href="#m298c873142" x="146.4" y="425.784" style="fill: #7b68ee; stroke: #7b68ee"/>
    </g>
   </g>
   <g id="PathCollection_16">
    <g clip-path="url(#pae99eaca16)">
     <use xlink:href="#m11d058384a" x="157.675651" y="432.252" style="fill: #ffe4b5; stroke: #ffe4b5"/>
    </g>
   </g>
   <g id="PathCollection_17">
    <g clip-path="url(#pae99eaca16)">
     <use xlink:href="#mb16ccec24f" x="157.675651" y="445.188" style="fill: #c54f85; stroke: #c54f85"/>
    </g>
   </g>
   <g id="PathCollection_18">
    <g clip-path="url(#pae99eaca16)">
     <use xlink:href="#m1629505ed8" x="146.4" y="451.656" style="fill: #00bfff; stroke: #00bfff"/>
    </g>
   </g>
   <g id="PathCollection_19">
    <g clip-path="url(#pae99eaca16)">
     <use xlink:href="#m6ec1ed4aae" x="135.124349" y="445.188" style="fill: #86f2c0; stroke: #86f2c0"/>
    </g>
   </g>
   <g id="PathCollection_20">
    <g clip-path="url(#pae99eaca16)">
     <use xlink:href="#m5d0e0aacf8" x="135.124349" y="432.252" style="fill: #3cb371; stroke: #3cb371"/>
    </g>
   </g>
   <g id="PathCollection_21">
    <defs>
     <path id="m9005d75960" d="M -2.251476 0.685287 
L 1.498524 1.814713 
L 1.505902 -5 
z
" style="stroke: #7b68ee"/>
    </defs>
    <g clip-path="url(#pae99eaca16)">
     <use xlink:href="#m9005d75960" x="214.771087" y="377.113561" style="fill: #7b68ee; stroke: #7b68ee"/>
    </g>
   </g>
   <g id="PathCollection_22">
    <defs>
     <path id="m0302bde388" d="M -2.232744 0.713384 
L 1.517256 1.786616 
L 1.430977 -5 
z
" style="stroke: #ffe4b5"/>
    </defs>
    <g clip-path="url(#pae99eaca16)">
     <use xlink:href="#m0302bde388" x="226.023135" y="383.68926" style="fill: #ffe4b5; stroke: #ffe4b5"/>
    </g>
   </g>
   <g id="PathCollection_23">
    <defs>
     <path id="m20b0840da8" d="M -2.239769 0.702846 
L 1.510231 1.797154 
L 1.459076 -5 
z
" style="stroke: #c54f85"/>
    </defs>
    <g clip-path="url(#pae99eaca16)">
     <use xlink:href="#m20b0840da8" x="226.000665" y="396.658504" style="fill: #c54f85; stroke: #c54f85"/>
    </g>
   </g>
   <g id="PathCollection_24">
    <defs>
     <path id="me641c91dad" d="M -2.239262 0.703608 
L 1.510738 1.796392 
L 1.457046 -5 
z
" style="stroke: #00bfff"/>
    </defs>
    <g clip-path="url(#pae99eaca16)">
     <use xlink:href="#me641c91dad" x="214.873254" y="403.195836" style="fill: #00bfff; stroke: #00bfff"/>
    </g>
   </g>
   <g id="PathCollection_25">
    <defs>
     <path id="m3c7f024535" d="M -2.245421 0.694368 
L 1.504579 1.805632 
L 1.481684 -5 
z
" style="stroke: #86f2c0"/>
    </defs>
    <g clip-path="url(#pae99eaca16)">
     <use xlink:href="#m3c7f024535" x="203.661101" y="396.705161" style="fill: #86f2c0; stroke: #86f2c0"/>
    </g>
   </g>
   <g id="PathCollection_26">
    <defs>
     <path id="maceb35776c" d="M -2.249304 0.688544 
L 1.500696 1.811456 
L 1.497215 -5 
z
" style="stroke: #3cb371"/>
    </defs>
    <g clip-path="url(#pae99eaca16)">
     <use xlink:href="#maceb35776c" x="203.686035" y="383.78476" style="fill: #3cb371; stroke: #3cb371"/>
    </g>
   </g>
   <g id="PathCollection_27">
    <defs>
     <path id="mb78a1bed6e" d="M -1.289608 -1.848594 
L -1.210392 1.901406 
L 5 -0.105622 
z
" style="stroke: #7b68ee"/>
    </defs>
    <g clip-path="url(#pae99eaca16)">
     <use xlink:href="#mb78a1bed6e" x="281.750088" y="326.078281" style="fill: #7b68ee; stroke: #7b68ee"/>
    </g>
   </g>
   <g id="PathCollection_28">
    <defs>
     <path id="md668b03d9a" d="M -1.322561 -1.826626 
L -1.177439 1.923374 
L 5 -0.193495 
z
" style="stroke: #ffe4b5"/>
    </defs>
    <g clip-path="url(#pae99eaca16)">
     <use xlink:href="#md668b03d9a" x="293.019963" y="331.917166" style="fill: #ffe4b5; stroke: #ffe4b5"/>
    </g>
   </g>
   <g id="PathCollection_29">
    <defs>
     <path id="ma62c311cba" d="M -1.310566 -1.834622 
L -1.189434 1.915378 
L 5 -0.16151 
z
" style="stroke: #c54f85"/>
    </defs>
    <g clip-path="url(#pae99eaca16)">
     <use xlink:href="#ma62c311cba" x="293.109853" y="344.927627" style="fill: #c54f85; stroke: #c54f85"/>
    </g>
   </g>
   <g id="PathCollection_30">
    <defs>
     <path id="m2393a77450" d="M -1.303794 -1.839138 
L -1.196206 1.910862 
L 5 -0.143449 
z
" style="stroke: #00bfff"/>
    </defs>
    <g clip-path="url(#pae99eaca16)">
     <use xlink:href="#m2393a77450" x="281.852075" y="351.477448" style="fill: #00bfff; stroke: #00bfff"/>
    </g>
   </g>
   <g id="PathCollection_31">
    <defs>
     <path id="m83852cb283" d="M -1.29702 -1.843653 
L -1.20298 1.906347 
L 5 -0.125388 
z
" style="stroke: #86f2c0"/>
    </defs>
    <g clip-path="url(#pae99eaca16)">
     <use xlink:href="#m83852cb283" x="270.523109" y="345.075801" style="fill: #86f2c0; stroke: #86f2c0"/>
    </g>
   </g>
   <g id="PathCollection_32">
    <defs>
     <path id="m43380d8095" d="M -1.293622 -1.845919 
L -1.206378 1.904081 
L 5 -0.116325 
z
" style="stroke: #3cb371"/>
    </defs>
    <g clip-path="url(#pae99eaca16)">
     <use xlink:href="#m43380d8095" x="270.55542" y="332.085785" style="fill: #3cb371; stroke: #3cb371"/>
    </g>
   </g>
   <g id="PathCollection_33">
    <defs>
     <path id="mca3a6b4230" d="M -2.238296 0.705056 
L 1.511704 1.794944 
L 1.453183 -5 
z
" style="stroke: #ffe4b5"/>
    </defs>
    <g clip-path="url(#pae99eaca16)">
     <use xlink:href="#mca3a6b4230" x="360.558305" y="284.581106" style="fill: #ffe4b5; stroke: #ffe4b5"/>
    </g>
   </g>
   <g id="PathCollection_34">
    <defs>
     <path id="m545d64d70b" d="M -2.231692 0.714962 
L 1.518308 1.785038 
L 1.426767 -5 
z
" style="stroke: #c54f85"/>
    </defs>
    <g clip-path="url(#pae99eaca16)">
     <use xlink:href="#m545d64d70b" x="360.634452" y="297.719814" style="fill: #c54f85; stroke: #c54f85"/>
    </g>
   </g>
   <g id="PathCollection_35">
    <defs>
     <path id="m9babfe7fce" d="M -2.233307 0.712539 
L 1.516693 1.787461 
L 1.433228 -5 
z
" style="stroke: #86f2c0"/>
    </defs>
    <g clip-path="url(#pae99eaca16)">
     <use xlink:href="#m9babfe7fce" x="338.212741" y="297.737847" style="fill: #86f2c0; stroke: #86f2c0"/>
    </g>
   </g>
   <g id="PathCollection_36">
    <defs>
     <path id="md83776fd68" d="M -2.232528 0.713708 
L 1.517472 1.786292 
L 1.430112 -5 
z
" style="stroke: #3cb371"/>
    </defs>
    <g clip-path="url(#pae99eaca16)">
     <use xlink:href="#md83776fd68" x="338.218807" y="284.819647" style="fill: #3cb371; stroke: #3cb371"/>
    </g>
   </g>
   <g id="PathCollection_37">
    <defs>
     <path id="m558ddb06f1" d="M -1.287481 -1.850013 
L -1.212519 1.899987 
L 5 -0.099949 
z
" style="stroke: #ffe4b5"/>
    </defs>
    <g clip-path="url(#pae99eaca16)">
     <use xlink:href="#m558ddb06f1" x="427.048045" y="233.346984" style="fill: #ffe4b5; stroke: #ffe4b5"/>
    </g>
   </g>
   <g id="PathCollection_38">
    <defs>
     <path id="mcf13348b6b" d="M -1.292659 -1.846561 
L -1.207341 1.903439 
L 5 -0.113756 
z
" style="stroke: #c54f85"/>
    </defs>
    <g clip-path="url(#pae99eaca16)">
     <use xlink:href="#mcf13348b6b" x="427.152829" y="245.742808" style="fill: #c54f85; stroke: #c54f85"/>
    </g>
   </g>
   <g id="PathCollection_39">
    <defs>
     <path id="m19888cebc2" d="M -1.28982 -1.848453 
L -1.21018 1.901547 
L 5 -0.106188 
z
" style="stroke: #86f2c0"/>
    </defs>
    <g clip-path="url(#pae99eaca16)">
     <use xlink:href="#m19888cebc2" x="404.580685" y="245.792242" style="fill: #86f2c0; stroke: #86f2c0"/>
    </g>
   </g>
   <g id="PathCollection_40">
    <defs>
     <path id="mc5358bb027" d="M -1.290565 -1.847957 
L -1.209435 1.902043 
L 5 -0.108173 
z
" style="stroke: #3cb371"/>
    </defs>
    <g clip-path="url(#pae99eaca16)">
     <use xlink:href="#mc5358bb027" x="404.634093" y="232.776336" style="fill: #3cb371; stroke: #3cb371"/>
    </g>
   </g>
   <g id="line2d_56">
    <path d="M 157.675651 432.252 
L 146.4 425.784 
" clip-path="url(#pae99eaca16)" style="fill: none; stroke: #ff0000; stroke-opacity: 0.3; stroke-width: 0.6; stroke-linecap: square"/>
   </g>
   <g id="line2d_57">
    <path d="M 157.675651 432.252 
L 157.675651 445.188 
" clip-path="url(#pae99eaca16)" style="fill: none; stroke: #ff0000; stroke-opacity: 0.3; stroke-width: 0.6; stroke-linecap: square"/>
   </g>
   <g id="line2d_58">
    <path d="M 157.675651 445.188 
L 146.4 425.784 
" clip-path="url(#pae99eaca16)" style="fill: none; stroke: #ff0000; stroke-opacity: 0.3; stroke-width: 0.6; stroke-linecap: square"/>
   </g>
   <g id="line2d_59">
    <path d="M 146.4 451.656 
L 146.4 425.784 
" clip-path="url(#pae99eaca16)" style="fill: none; stroke: #ff0000; stroke-opacity: 0.3; stroke-width: 0.6; stroke-linecap: square"/>
   </g>
   <g id="line2d_60">
    <path d="M 146.4 451.656 
L 157.675651 445.188 
" clip-path="url(#pae99eaca16)" style="fill: none; stroke: #ff0000; stroke-opacity: 0.3; stroke-width: 0.6; stroke-linecap: square"/>
   </g>
   <g id="line2d_61">
    <path d="M 135.124349 445.188 
L 146.4 425.784 
" clip-path="url(#pae99eaca16)" style="fill: none; stroke: #ff0000; stroke-opacity: 0.3; stroke-width: 0.6; stroke-linecap: square"/>
   </g>
   <g id="line2d_62">
    <path d="M 135.124349 445.188 
L 146.4 451.656 
" clip-path="url(#pae99eaca16)" style="fill: none; stroke: #ff0000; stroke-opacity: 0.3; stroke-width: 0.6; stroke-linecap: square"/>
   </g>
   <g id="line2d_63">
    <path d="M 135.124349 432.252 
L 146.4 425.784 
" clip-path="url(#pae99eaca16)" style="fill: none; stroke: #ff0000; stroke-opacity: 0.3; stroke-width: 0.6; stroke-linecap: square"/>
   </g>
   <g id="line2d_64">
    <path d="M 135.124349 432.252 
L 135.124349 445.188 
" clip-path="url(#pae99eaca16)" style="fill: none; stroke: #ff0000; stroke-opacity: 0.3; stroke-width: 0.6; stroke-linecap: square"/>
   </g>
   <g id="line2d_65">
    <path d="M 226.023135 383.68926 
L 214.771087 377.113561 
" clip-path="url(#pae99eaca16)" style="fill: none; stroke: #ff0000; stroke-opacity: 0.3; stroke-width: 0.6; stroke-linecap: square"/>
   </g>
   <g id="line2d_66">
    <path d="M 226.023135 383.68926 
L 226.000665 396.658504 
" clip-path="url(#pae99eaca16)" style="fill: none; stroke: #ff0000; stroke-opacity: 0.3; stroke-width: 0.6; stroke-linecap: square"/>
   </g>
   <g id="line2d_67">
    <path d="M 226.000665 396.658504 
L 214.771087 377.113561 
" clip-path="url(#pae99eaca16)" style="fill: none; stroke: #ff0000; stroke-opacity: 0.3; stroke-width: 0.6; stroke-linecap: square"/>
   </g>
   <g id="line2d_68">
    <path d="M 214.873254 403.195836 
L 214.771087 377.113561 
" clip-path="url(#pae99eaca16)" style="fill: none; stroke: #ff0000; stroke-opacity: 0.3; stroke-width: 0.6; stroke-linecap: square"/>
   </g>
   <g id="line2d_69">
    <path d="M 214.873254 403.195836 
L 226.000665 396.658504 
" clip-path="url(#pae99eaca16)" style="fill: none; stroke: #ff0000; stroke-opacity: 0.3; stroke-width: 0.6; stroke-linecap: square"/>
   </g>
   <g id="line2d_70">
    <path d="M 203.661101 396.705161 
L 214.771087 377.113561 
" clip-path="url(#pae99eaca16)" style="fill: none; stroke: #ff0000; stroke-opacity: 0.3; stroke-width: 0.6; stroke-linecap: square"/>
   </g>
   <g id="line2d_71">
    <path d="M 203.661101 396.705161 
L 214.873254 403.195836 
" clip-path="url(#pae99eaca16)" style="fill: none; stroke: #ff0000; stroke-opacity: 0.3; stroke-width: 0.6; stroke-linecap: square"/>
   </g>
   <g id="line2d_72">
    <path d="M 203.686035 383.78476 
L 214.771087 377.113561 
" clip-path="url(#pae99eaca16)" style="fill: none; stroke: #ff0000; stroke-opacity: 0.3; stroke-width: 0.6; stroke-linecap: square"/>
   </g>
   <g id="line2d_73">
    <path d="M 203.686035 383.78476 
L 203.661101 396.705161 
" clip-path="url(#pae99eaca16)" style="fill: none; stroke: #ff0000; stroke-opacity: 0.3; stroke-width: 0.6; stroke-linecap: square"/>
   </g>
   <g id="line2d_74">
    <path d="M 293.019963 331.917166 
L 281.750088 326.078281 
" clip-path="url(#pae99eaca16)" style="fill: none; stroke: #ff0000; stroke-opacity: 0.3; stroke-width: 0.6; stroke-linecap: square"/>
   </g>
   <g id="line2d_75">
    <path d="M 293.019963 331.917166 
L 293.109853 344.927627 
" clip-path="url(#pae99eaca16)" style="fill: none; stroke: #ff0000; stroke-opacity: 0.3; stroke-width: 0.6; stroke-linecap: square"/>
   </g>
   <g id="line2d_76">
    <path d="M 293.109853 344.927627 
L 281.750088 326.078281 
" clip-path="url(#pae99eaca16)" style="fill: none; stroke: #ff0000; stroke-opacity: 0.3; stroke-width: 0.6; stroke-linecap: square"/>
   </g>
   <g id="line2d_77">
    <path d="M 281.852075 351.477448 
L 281.750088 326.078281 
" clip-path="url(#pae99eaca16)" style="fill: none; stroke: #ff0000; stroke-opacity: 0.3; stroke-width: 0.6; stroke-linecap: square"/>
   </g>
   <g id="line2d_78">
    <path d="M 281.852075 351.477448 
L 293.109853 344.927627 
" clip-path="url(#pae99eaca16)" style="fill: none; stroke: #ff0000; stroke-opacity: 0.3; stroke-width: 0.6; stroke-linecap: square"/>
   </g>
   <g id="line2d_79">
    <path d="M 270.523109 345.075801 
L 281.750088 326.078281 
" clip-path="url(#pae99eaca16)" style="fill: none; stroke: #ff0000; stroke-opacity: 0.3; stroke-width: 0.6; stroke-linecap: square"/>
   </g>
   <g id="line2d_80">
    <path d="M 270.523109 345.075801 
L 281.852075 351.477448 
" clip-path="url(#pae99eaca16)" style="fill: none; stroke: #ff0000; stroke-opacity: 0.3; stroke-width: 0.6; stroke-linecap: square"/>
   </g>
   <g id="line2d_81">
    <path d="M 270.55542 332.085785 
L 281.750088 326.078281 
" clip-path="url(#pae99eaca16)" style="fill: none; stroke: #ff0000; stroke-opacity: 0.3; stroke-width: 0.6; stroke-linecap: square"/>
   </g>
   <g id="line2d_82">
    <path d="M 270.55542 332.085785 
L 270.523109 345.075801 
" clip-path="url(#pae99eaca16)" style="fill: none; stroke: #ff0000; stroke-opacity: 0.3; stroke-width: 0.6; stroke-linecap: square"/>
   </g>
   <g id="line2d_83">
    <path d="M 360.634452 297.719814 
L 360.558305 284.581106 
" clip-path="url(#pae99eaca16)" style="fill: none; stroke: #ff0000; stroke-opacity: 0.3; stroke-width: 0.6; stroke-linecap: square"/>
   </g>
   <g id="line2d_84">
    <path d="M 360.634452 297.719814 
L 338.212741 297.737847 
" clip-path="url(#pae99eaca16)" style="fill: none; stroke: #ff0000; stroke-opacity: 0.3; stroke-width: 0.6; stroke-linecap: square"/>
   </g>
   <g id="line2d_85">
    <path d="M 338.212741 297.737847 
L 360.558305 284.581106 
" clip-path="url(#pae99eaca16)" style="fill: none; stroke: #ff0000; stroke-opacity: 0.3; stroke-width: 0.6; stroke-linecap: square"/>
   </g>
   <g id="line2d_86">
    <path d="M 338.212741 297.737847 
L 338.218807 284.819647 
" clip-path="url(#pae99eaca16)" style="fill: none; stroke: #ff0000; stroke-opacity: 0.3; stroke-width: 0.6; stroke-linecap: square"/>
   </g>
   <g id="line2d_87">
    <path d="M 338.218807 284.819647 
L 360.558305 284.581106 
" clip-path="url(#pae99eaca16)" style="fill: none; stroke: #ff0000; stroke-opacity: 0.3; stroke-width: 0.6; stroke-linecap: square"/>
   </g>
   <g id="line2d_88">
    <path d="M 427.152829 245.742808 
L 427.048045 233.346984 
" clip-path="url(#pae99eaca16)" style="fill: none; stroke: #ff0000; stroke-opacity: 0.3; stroke-width: 0.6; stroke-linecap: square"/>
   </g>
   <g id="line2d_89">
    <path d="M 427.152829 245.742808 
L 404.580685 245.792242 
" clip-path="url(#pae99eaca16)" style="fill: none; stroke: #ff0000; stroke-opacity: 0.3; stroke-width: 0.6; stroke-linecap: square"/>
   </g>
   <g id="line2d_90">
    <path d="M 404.580685 245.792242 
L 427.048045 233.346984 
" clip-path="url(#pae99eaca16)" style="fill: none; stroke: #ff0000; stroke-opacity: 0.3; stroke-width: 0.6; stroke-linecap: square"/>
   </g>
   <g id="line2d_91">
    <path d="M 404.580685 245.792242 
L 404.634093 232.776336 
" clip-path="url(#pae99eaca16)" style="fill: none; stroke: #ff0000; stroke-opacity: 0.3; stroke-width: 0.6; stroke-linecap: square"/>
   </g>
   <g id="line2d_92">
    <path d="M 404.634093 232.776336 
L 427.048045 233.346984 
" clip-path="url(#pae99eaca16)" style="fill: none; stroke: #ff0000; stroke-opacity: 0.3; stroke-width: 0.6; stroke-linecap: square"/>
   </g>
  </g>
 </g>
 <defs>
  <clipPath id="pae99eaca16">
   <rect x="72" y="69.12" width="446.4" height="443.52"/>
  </clipPath>
 </defs>
</svg>
