<?xml version="1.0" encoding="UTF-8" standalone="no"?>
<svg
   width="460.8pt"
   height="345.6pt"
   viewBox="0 0 460.8 345.6"
   version="1.1"
   id="svg456"
   sodipodi:docname="resultant_error_formal.svg"
   inkscape:version="1.1.2 (b8e25be833, 2022-02-05)"
   xmlns:inkscape="http://www.inkscape.org/namespaces/inkscape"
   xmlns:sodipodi="http://sodipodi.sourceforge.net/DTD/sodipodi-0.dtd"
   xmlns:xlink="http://www.w3.org/1999/xlink"
   xmlns="http://www.w3.org/2000/svg"
   xmlns:svg="http://www.w3.org/2000/svg"
   xmlns:rdf="http://www.w3.org/1999/02/22-rdf-syntax-ns#"
   xmlns:cc="http://creativecommons.org/ns#"
   xmlns:dc="http://purl.org/dc/elements/1.1/">
  <sodipodi:namedview
     id="namedview458"
     pagecolor="#ffffff"
     bordercolor="#666666"
     borderopacity="1.0"
     inkscape:pageshadow="2"
     inkscape:pageopacity="0.0"
     inkscape:pagecheckerboard="0"
     inkscape:document-units="pt"
     showgrid="false"
     inkscape:zoom="5.3585435"
     inkscape:cx="130.4459"
     inkscape:cy="240.92368"
     inkscape:window-width="2560"
     inkscape:window-height="1406"
     inkscape:window-x="-11"
     inkscape:window-y="-11"
     inkscape:window-maximized="1"
     inkscape:current-layer="matplotlib.axis_2" />
  <metadata
     id="metadata2">
    <rdf:RDF>
      <cc:Work>
        <dc:type
           rdf:resource="http://purl.org/dc/dcmitype/StillImage" />
        <dc:date>2022-08-07T21:23:47.660013</dc:date>
        <dc:format>image/svg+xml</dc:format>
        <dc:creator>
          <cc:Agent>
            <dc:title>Matplotlib v3.5.2, https://matplotlib.org/</dc:title>
          </cc:Agent>
        </dc:creator>
      </cc:Work>
    </rdf:RDF>
  </metadata>
  <defs
     id="defs6">
    <style
       type="text/css"
       id="style4">*{stroke-linejoin: round; stroke-linecap: butt}</style>
    <path
       id="DejaVuSans-7c"
       d="M 1344,4891 V -1509 H 813 v 6400 z"
       transform="scale(0.015625)" />
    <path
       id="DejaVuSans-Oblique-65-2"
       d="m 3078,2063 q 10,50 14,103 5,53 5,106 0,381 -224,603 -223,222 -607,222 -428,0 -757,-271 -328,-270 -496,-767 z m 500,-450 H 903 q -19,-119 -25,-188 -6,-69 -6,-119 0,-434 267,-672 267,-237 755,-237 375,0 709,84 335,85 622,247 L 3116,159 Q 2806,34 2476,-28 2147,-91 1806,-91 1078,-91 686,257 294,606 294,1247 q 0,547 195,1017 195,470 574,839 243,231 579,356 336,125 714,125 594,0 945,-356 352,-356 352,-956 0,-144 -19,-308 -18,-164 -56,-351 z"
       transform="scale(0.015625)" />
    <path
       id="DejaVuSans-Oblique-72-4"
       d="m 2853,2969 q -87,47 -200,72 -112,25 -240,25 -460,0 -804,-349 -343,-348 -456,-933 L 800,0 H 225 l 684,3500 h 575 l -109,-544 q 228,303 545,465 318,163 677,163 94,0 184,-11 91,-10 182,-35 z"
       transform="scale(0.015625)" />
    <path
       id="DejaVuSans-Oblique-69-9"
       d="m 1172,4863 h 575 L 1606,4134 H 1031 Z M 909,3500 h 575 L 800,0 H 225 Z"
       transform="scale(0.015625)" />
  </defs>
  <g
     id="figure_1">
    <g
       id="patch_1">
      <path
         d="M 0 345.6  L 460.8 345.6  L 460.8 0  L 0 0  z "
         style="fill: #ffffff"
         id="path8" />
    </g>
    <g
       id="axes_1">
      <g
         id="patch_2">
        <path
           d="M 57.6 307.584  L 414.72 307.584  L 414.72 41.472  L 57.6 41.472  z "
           style="fill: #ffffff"
           id="path11" />
      </g>
      <g
         id="matplotlib.axis_1">
        <g
           id="xtick_1">
          <g
             id="line2d_1">
            <defs
               id="defs15">
              <path
                 id="m03c8c17de3"
                 d="M 0 0  L 0 3.5  "
                 style="stroke: #000000; stroke-width: 0.8" />
            </defs>
            <g
               id="g19">
              <use
                 xlink:href="#m03c8c17de3"
                 x="73.832727"
                 y="307.584"
                 style="stroke: #000000; stroke-width: 0.8"
                 id="use17" />
            </g>
          </g>
          <g
             id="text_1">
            <!-- 0.0 -->
            <g
               transform="translate(65.881165 322.182437)scale(0.1 -0.1)"
               id="g32">
              <defs
                 id="defs24">
                <path
                   id="DejaVuSans-30"
                   d="M 2034 4250  Q 1547 4250 1301 3770  Q 1056 3291 1056 2328  Q 1056 1369 1301 889  Q 1547 409 2034 409  Q 2525 409 2770 889  Q 3016 1369 3016 2328  Q 3016 3291 2770 3770  Q 2525 4250 2034 4250  z M 2034 4750  Q 2819 4750 3233 4129  Q 3647 3509 3647 2328  Q 3647 1150 3233 529  Q 2819 -91 2034 -91  Q 1250 -91 836 529  Q 422 1150 422 2328  Q 422 3509 836 4129  Q 1250 4750 2034 4750  z "
                   transform="scale(0.015625)" />
                <path
                   id="DejaVuSans-2e"
                   d="M 684 794  L 1344 794  L 1344 0  L 684 0  L 684 794  z "
                   transform="scale(0.015625)" />
              </defs>
              <use
                 xlink:href="#DejaVuSans-30"
                 id="use26" />
              <use
                 xlink:href="#DejaVuSans-2e"
                 x="63.623047"
                 id="use28" />
              <use
                 xlink:href="#DejaVuSans-30"
                 x="95.410156"
                 id="use30" />
            </g>
          </g>
        </g>
        <g
           id="xtick_2">
          <g
             id="line2d_2">
            <g
               id="g38">
              <use
                 xlink:href="#m03c8c17de3"
                 x="106.298182"
                 y="307.584"
                 style="stroke: #000000; stroke-width: 0.8"
                 id="use36" />
            </g>
          </g>
          <g
             id="text_2">
            <!-- 3.0 -->
            <g
               transform="translate(98.346619 322.182437)scale(0.1 -0.1)"
               id="g50">
              <defs
                 id="defs42">
                <path
                   id="DejaVuSans-33"
                   d="M 2597 2516  Q 3050 2419 3304 2112  Q 3559 1806 3559 1356  Q 3559 666 3084 287  Q 2609 -91 1734 -91  Q 1441 -91 1130 -33  Q 819 25 488 141  L 488 750  Q 750 597 1062 519  Q 1375 441 1716 441  Q 2309 441 2620 675  Q 2931 909 2931 1356  Q 2931 1769 2642 2001  Q 2353 2234 1838 2234  L 1294 2234  L 1294 2753  L 1863 2753  Q 2328 2753 2575 2939  Q 2822 3125 2822 3475  Q 2822 3834 2567 4026  Q 2313 4219 1838 4219  Q 1578 4219 1281 4162  Q 984 4106 628 3988  L 628 4550  Q 988 4650 1302 4700  Q 1616 4750 1894 4750  Q 2613 4750 3031 4423  Q 3450 4097 3450 3541  Q 3450 3153 3228 2886  Q 3006 2619 2597 2516  z "
                   transform="scale(0.015625)" />
              </defs>
              <use
                 xlink:href="#DejaVuSans-33"
                 id="use44" />
              <use
                 xlink:href="#DejaVuSans-2e"
                 x="63.623047"
                 id="use46" />
              <use
                 xlink:href="#DejaVuSans-30"
                 x="95.410156"
                 id="use48" />
            </g>
          </g>
        </g>
        <g
           id="xtick_3">
          <g
             id="line2d_3">
            <g
               id="g56">
              <use
                 xlink:href="#m03c8c17de3"
                 x="138.763636"
                 y="307.584"
                 style="stroke: #000000; stroke-width: 0.8"
                 id="use54" />
            </g>
          </g>
          <g
             id="text_3">
            <!-- 6.0 -->
            <g
               transform="translate(130.812074 322.182437)scale(0.1 -0.1)"
               id="g68">
              <defs
                 id="defs60">
                <path
                   id="DejaVuSans-36"
                   d="M 2113 2584  Q 1688 2584 1439 2293  Q 1191 2003 1191 1497  Q 1191 994 1439 701  Q 1688 409 2113 409  Q 2538 409 2786 701  Q 3034 994 3034 1497  Q 3034 2003 2786 2293  Q 2538 2584 2113 2584  z M 3366 4563  L 3366 3988  Q 3128 4100 2886 4159  Q 2644 4219 2406 4219  Q 1781 4219 1451 3797  Q 1122 3375 1075 2522  Q 1259 2794 1537 2939  Q 1816 3084 2150 3084  Q 2853 3084 3261 2657  Q 3669 2231 3669 1497  Q 3669 778 3244 343  Q 2819 -91 2113 -91  Q 1303 -91 875 529  Q 447 1150 447 2328  Q 447 3434 972 4092  Q 1497 4750 2381 4750  Q 2619 4750 2861 4703  Q 3103 4656 3366 4563  z "
                   transform="scale(0.015625)" />
              </defs>
              <use
                 xlink:href="#DejaVuSans-36"
                 id="use62" />
              <use
                 xlink:href="#DejaVuSans-2e"
                 x="63.623047"
                 id="use64" />
              <use
                 xlink:href="#DejaVuSans-30"
                 x="95.410156"
                 id="use66" />
            </g>
          </g>
        </g>
        <g
           id="xtick_4">
          <g
             id="line2d_4">
            <g
               id="g74">
              <use
                 xlink:href="#m03c8c17de3"
                 x="171.229091"
                 y="307.584"
                 style="stroke: #000000; stroke-width: 0.8"
                 id="use72" />
            </g>
          </g>
          <g
             id="text_4">
            <!-- 9.0 -->
            <g
               transform="translate(163.277528 322.182437)scale(0.1 -0.1)"
               id="g86">
              <defs
                 id="defs78">
                <path
                   id="DejaVuSans-39"
                   d="M 703 97  L 703 672  Q 941 559 1184 500  Q 1428 441 1663 441  Q 2288 441 2617 861  Q 2947 1281 2994 2138  Q 2813 1869 2534 1725  Q 2256 1581 1919 1581  Q 1219 1581 811 2004  Q 403 2428 403 3163  Q 403 3881 828 4315  Q 1253 4750 1959 4750  Q 2769 4750 3195 4129  Q 3622 3509 3622 2328  Q 3622 1225 3098 567  Q 2575 -91 1691 -91  Q 1453 -91 1209 -44  Q 966 3 703 97  z M 1959 2075  Q 2384 2075 2632 2365  Q 2881 2656 2881 3163  Q 2881 3666 2632 3958  Q 2384 4250 1959 4250  Q 1534 4250 1286 3958  Q 1038 3666 1038 3163  Q 1038 2656 1286 2365  Q 1534 2075 1959 2075  z "
                   transform="scale(0.015625)" />
              </defs>
              <use
                 xlink:href="#DejaVuSans-39"
                 id="use80" />
              <use
                 xlink:href="#DejaVuSans-2e"
                 x="63.623047"
                 id="use82" />
              <use
                 xlink:href="#DejaVuSans-30"
                 x="95.410156"
                 id="use84" />
            </g>
          </g>
        </g>
        <g
           id="xtick_5">
          <g
             id="line2d_5">
            <g
               id="g92">
              <use
                 xlink:href="#m03c8c17de3"
                 x="203.694545"
                 y="307.584"
                 style="stroke: #000000; stroke-width: 0.8"
                 id="use90" />
            </g>
          </g>
          <g
             id="text_5">
            <!-- 12.0 -->
            <g
               transform="translate(192.561733 322.182437)scale(0.1 -0.1)"
               id="g107">
              <defs
                 id="defs97">
                <path
                   id="DejaVuSans-31"
                   d="M 794 531  L 1825 531  L 1825 4091  L 703 3866  L 703 4441  L 1819 4666  L 2450 4666  L 2450 531  L 3481 531  L 3481 0  L 794 0  L 794 531  z "
                   transform="scale(0.015625)" />
                <path
                   id="DejaVuSans-32"
                   d="M 1228 531  L 3431 531  L 3431 0  L 469 0  L 469 531  Q 828 903 1448 1529  Q 2069 2156 2228 2338  Q 2531 2678 2651 2914  Q 2772 3150 2772 3378  Q 2772 3750 2511 3984  Q 2250 4219 1831 4219  Q 1534 4219 1204 4116  Q 875 4013 500 3803  L 500 4441  Q 881 4594 1212 4672  Q 1544 4750 1819 4750  Q 2544 4750 2975 4387  Q 3406 4025 3406 3419  Q 3406 3131 3298 2873  Q 3191 2616 2906 2266  Q 2828 2175 2409 1742  Q 1991 1309 1228 531  z "
                   transform="scale(0.015625)" />
              </defs>
              <use
                 xlink:href="#DejaVuSans-31"
                 id="use99" />
              <use
                 xlink:href="#DejaVuSans-32"
                 x="63.623047"
                 id="use101" />
              <use
                 xlink:href="#DejaVuSans-2e"
                 x="127.246094"
                 id="use103" />
              <use
                 xlink:href="#DejaVuSans-30"
                 x="159.033203"
                 id="use105" />
            </g>
          </g>
        </g>
        <g
           id="xtick_6">
          <g
             id="line2d_6">
            <g
               id="g113">
              <use
                 xlink:href="#m03c8c17de3"
                 x="236.16"
                 y="307.584"
                 style="stroke: #000000; stroke-width: 0.8"
                 id="use111" />
            </g>
          </g>
          <g
             id="text_6">
            <!-- 15.0 -->
            <g
               transform="translate(225.027187 322.182437)scale(0.1 -0.1)"
               id="g127">
              <defs
                 id="defs117">
                <path
                   id="DejaVuSans-35"
                   d="M 691 4666  L 3169 4666  L 3169 4134  L 1269 4134  L 1269 2991  Q 1406 3038 1543 3061  Q 1681 3084 1819 3084  Q 2600 3084 3056 2656  Q 3513 2228 3513 1497  Q 3513 744 3044 326  Q 2575 -91 1722 -91  Q 1428 -91 1123 -41  Q 819 9 494 109  L 494 744  Q 775 591 1075 516  Q 1375 441 1709 441  Q 2250 441 2565 725  Q 2881 1009 2881 1497  Q 2881 1984 2565 2268  Q 2250 2553 1709 2553  Q 1456 2553 1204 2497  Q 953 2441 691 2322  L 691 4666  z "
                   transform="scale(0.015625)" />
              </defs>
              <use
                 xlink:href="#DejaVuSans-31"
                 id="use119" />
              <use
                 xlink:href="#DejaVuSans-35"
                 x="63.623047"
                 id="use121" />
              <use
                 xlink:href="#DejaVuSans-2e"
                 x="127.246094"
                 id="use123" />
              <use
                 xlink:href="#DejaVuSans-30"
                 x="159.033203"
                 id="use125" />
            </g>
          </g>
        </g>
        <g
           id="xtick_7">
          <g
             id="line2d_7">
            <g
               id="g133">
              <use
                 xlink:href="#m03c8c17de3"
                 x="268.625455"
                 y="307.584"
                 style="stroke: #000000; stroke-width: 0.8"
                 id="use131" />
            </g>
          </g>
          <g
             id="text_7">
            <!-- 18.0 -->
            <g
               transform="translate(257.492642 322.182437)scale(0.1 -0.1)"
               id="g147">
              <defs
                 id="defs137">
                <path
                   id="DejaVuSans-38"
                   d="M 2034 2216  Q 1584 2216 1326 1975  Q 1069 1734 1069 1313  Q 1069 891 1326 650  Q 1584 409 2034 409  Q 2484 409 2743 651  Q 3003 894 3003 1313  Q 3003 1734 2745 1975  Q 2488 2216 2034 2216  z M 1403 2484  Q 997 2584 770 2862  Q 544 3141 544 3541  Q 544 4100 942 4425  Q 1341 4750 2034 4750  Q 2731 4750 3128 4425  Q 3525 4100 3525 3541  Q 3525 3141 3298 2862  Q 3072 2584 2669 2484  Q 3125 2378 3379 2068  Q 3634 1759 3634 1313  Q 3634 634 3220 271  Q 2806 -91 2034 -91  Q 1263 -91 848 271  Q 434 634 434 1313  Q 434 1759 690 2068  Q 947 2378 1403 2484  z M 1172 3481  Q 1172 3119 1398 2916  Q 1625 2713 2034 2713  Q 2441 2713 2670 2916  Q 2900 3119 2900 3481  Q 2900 3844 2670 4047  Q 2441 4250 2034 4250  Q 1625 4250 1398 4047  Q 1172 3844 1172 3481  z "
                   transform="scale(0.015625)" />
              </defs>
              <use
                 xlink:href="#DejaVuSans-31"
                 id="use139" />
              <use
                 xlink:href="#DejaVuSans-38"
                 x="63.623047"
                 id="use141" />
              <use
                 xlink:href="#DejaVuSans-2e"
                 x="127.246094"
                 id="use143" />
              <use
                 xlink:href="#DejaVuSans-30"
                 x="159.033203"
                 id="use145" />
            </g>
          </g>
        </g>
        <g
           id="xtick_8">
          <g
             id="line2d_8">
            <g
               id="g153">
              <use
                 xlink:href="#m03c8c17de3"
                 x="301.090909"
                 y="307.584"
                 style="stroke: #000000; stroke-width: 0.8"
                 id="use151" />
            </g>
          </g>
          <g
             id="text_8">
            <!-- 21.0 -->
            <g
               transform="translate(289.958097 322.182437)scale(0.1 -0.1)"
               id="g164">
              <use
                 xlink:href="#DejaVuSans-32"
                 id="use156" />
              <use
                 xlink:href="#DejaVuSans-31"
                 x="63.623047"
                 id="use158" />
              <use
                 xlink:href="#DejaVuSans-2e"
                 x="127.246094"
                 id="use160" />
              <use
                 xlink:href="#DejaVuSans-30"
                 x="159.033203"
                 id="use162" />
            </g>
          </g>
        </g>
        <g
           id="xtick_9">
          <g
             id="line2d_9">
            <g
               id="g170">
              <use
                 xlink:href="#m03c8c17de3"
                 x="333.556364"
                 y="307.584"
                 style="stroke: #000000; stroke-width: 0.8"
                 id="use168" />
            </g>
          </g>
          <g
             id="text_9">
            <!-- 24.0 -->
            <g
               transform="translate(322.423551 322.182437)scale(0.1 -0.1)"
               id="g184">
              <defs
                 id="defs174">
                <path
                   id="DejaVuSans-34"
                   d="M 2419 4116  L 825 1625  L 2419 1625  L 2419 4116  z M 2253 4666  L 3047 4666  L 3047 1625  L 3713 1625  L 3713 1100  L 3047 1100  L 3047 0  L 2419 0  L 2419 1100  L 313 1100  L 313 1709  L 2253 4666  z "
                   transform="scale(0.015625)" />
              </defs>
              <use
                 xlink:href="#DejaVuSans-32"
                 id="use176" />
              <use
                 xlink:href="#DejaVuSans-34"
                 x="63.623047"
                 id="use178" />
              <use
                 xlink:href="#DejaVuSans-2e"
                 x="127.246094"
                 id="use180" />
              <use
                 xlink:href="#DejaVuSans-30"
                 x="159.033203"
                 id="use182" />
            </g>
          </g>
        </g>
        <g
           id="xtick_10">
          <g
             id="line2d_10">
            <g
               id="g190">
              <use
                 xlink:href="#m03c8c17de3"
                 x="366.021818"
                 y="307.584"
                 style="stroke: #000000; stroke-width: 0.8"
                 id="use188" />
            </g>
          </g>
          <g
             id="text_10">
            <!-- 27.0 -->
            <g
               transform="translate(354.889006 322.182437)scale(0.1 -0.1)"
               id="g204">
              <defs
                 id="defs194">
                <path
                   id="DejaVuSans-37"
                   d="M 525 4666  L 3525 4666  L 3525 4397  L 1831 0  L 1172 0  L 2766 4134  L 525 4134  L 525 4666  z "
                   transform="scale(0.015625)" />
              </defs>
              <use
                 xlink:href="#DejaVuSans-32"
                 id="use196" />
              <use
                 xlink:href="#DejaVuSans-37"
                 x="63.623047"
                 id="use198" />
              <use
                 xlink:href="#DejaVuSans-2e"
                 x="127.246094"
                 id="use200" />
              <use
                 xlink:href="#DejaVuSans-30"
                 x="159.033203"
                 id="use202" />
            </g>
          </g>
        </g>
        <g
           id="xtick_11">
          <g
             id="line2d_11">
            <g
               id="g210">
              <use
                 xlink:href="#m03c8c17de3"
                 x="398.487273"
                 y="307.584"
                 style="stroke: #000000; stroke-width: 0.8"
                 id="use208" />
            </g>
          </g>
          <g
             id="text_11">
            <!-- 30.0 -->
            <g
               transform="translate(387.35446 322.182437)scale(0.1 -0.1)"
               id="g221">
              <use
                 xlink:href="#DejaVuSans-33"
                 id="use213" />
              <use
                 xlink:href="#DejaVuSans-30"
                 x="63.623047"
                 id="use215" />
              <use
                 xlink:href="#DejaVuSans-2e"
                 x="127.246094"
                 id="use217" />
              <use
                 xlink:href="#DejaVuSans-30"
                 x="159.033203"
                 id="use219" />
            </g>
          </g>
        </g>
        <g
           id="text_12">
          <!-- time(s) -->
          <g
             transform="translate(218.357656 335.860562)scale(0.1 -0.1)"
             id="g248">
            <defs
               id="defs232">
              <path
                 id="DejaVuSans-74"
                 d="M 1172 4494  L 1172 3500  L 2356 3500  L 2356 3053  L 1172 3053  L 1172 1153  Q 1172 725 1289 603  Q 1406 481 1766 481  L 2356 481  L 2356 0  L 1766 0  Q 1100 0 847 248  Q 594 497 594 1153  L 594 3053  L 172 3053  L 172 3500  L 594 3500  L 594 4494  L 1172 4494  z "
                 transform="scale(0.015625)" />
              <path
                 id="DejaVuSans-69"
                 d="M 603 3500  L 1178 3500  L 1178 0  L 603 0  L 603 3500  z M 603 4863  L 1178 4863  L 1178 4134  L 603 4134  L 603 4863  z "
                 transform="scale(0.015625)" />
              <path
                 id="DejaVuSans-6d"
                 d="M 3328 2828  Q 3544 3216 3844 3400  Q 4144 3584 4550 3584  Q 5097 3584 5394 3201  Q 5691 2819 5691 2113  L 5691 0  L 5113 0  L 5113 2094  Q 5113 2597 4934 2840  Q 4756 3084 4391 3084  Q 3944 3084 3684 2787  Q 3425 2491 3425 1978  L 3425 0  L 2847 0  L 2847 2094  Q 2847 2600 2669 2842  Q 2491 3084 2119 3084  Q 1678 3084 1418 2786  Q 1159 2488 1159 1978  L 1159 0  L 581 0  L 581 3500  L 1159 3500  L 1159 2956  Q 1356 3278 1631 3431  Q 1906 3584 2284 3584  Q 2666 3584 2933 3390  Q 3200 3197 3328 2828  z "
                 transform="scale(0.015625)" />
              <path
                 id="DejaVuSans-65"
                 d="M 3597 1894  L 3597 1613  L 953 1613  Q 991 1019 1311 708  Q 1631 397 2203 397  Q 2534 397 2845 478  Q 3156 559 3463 722  L 3463 178  Q 3153 47 2828 -22  Q 2503 -91 2169 -91  Q 1331 -91 842 396  Q 353 884 353 1716  Q 353 2575 817 3079  Q 1281 3584 2069 3584  Q 2775 3584 3186 3129  Q 3597 2675 3597 1894  z M 3022 2063  Q 3016 2534 2758 2815  Q 2500 3097 2075 3097  Q 1594 3097 1305 2825  Q 1016 2553 972 2059  L 3022 2063  z "
                 transform="scale(0.015625)" />
              <path
                 id="DejaVuSans-28"
                 d="M 1984 4856  Q 1566 4138 1362 3434  Q 1159 2731 1159 2009  Q 1159 1288 1364 580  Q 1569 -128 1984 -844  L 1484 -844  Q 1016 -109 783 600  Q 550 1309 550 2009  Q 550 2706 781 3412  Q 1013 4119 1484 4856  L 1984 4856  z "
                 transform="scale(0.015625)" />
              <path
                 id="DejaVuSans-73"
                 d="M 2834 3397  L 2834 2853  Q 2591 2978 2328 3040  Q 2066 3103 1784 3103  Q 1356 3103 1142 2972  Q 928 2841 928 2578  Q 928 2378 1081 2264  Q 1234 2150 1697 2047  L 1894 2003  Q 2506 1872 2764 1633  Q 3022 1394 3022 966  Q 3022 478 2636 193  Q 2250 -91 1575 -91  Q 1294 -91 989 -36  Q 684 19 347 128  L 347 722  Q 666 556 975 473  Q 1284 391 1588 391  Q 1994 391 2212 530  Q 2431 669 2431 922  Q 2431 1156 2273 1281  Q 2116 1406 1581 1522  L 1381 1569  Q 847 1681 609 1914  Q 372 2147 372 2553  Q 372 3047 722 3315  Q 1072 3584 1716 3584  Q 2034 3584 2315 3537  Q 2597 3491 2834 3397  z "
                 transform="scale(0.015625)" />
              <path
                 id="DejaVuSans-29"
                 d="M 513 4856  L 1013 4856  Q 1481 4119 1714 3412  Q 1947 2706 1947 2009  Q 1947 1309 1714 600  Q 1481 -109 1013 -844  L 513 -844  Q 928 -128 1133 580  Q 1338 1288 1338 2009  Q 1338 2731 1133 3434  Q 928 4138 513 4856  z "
                 transform="scale(0.015625)" />
            </defs>
            <use
               xlink:href="#DejaVuSans-74"
               id="use234" />
            <use
               xlink:href="#DejaVuSans-69"
               x="39.208984"
               id="use236" />
            <use
               xlink:href="#DejaVuSans-6d"
               x="66.992188"
               id="use238" />
            <use
               xlink:href="#DejaVuSans-65"
               x="164.404297"
               id="use240" />
            <use
               xlink:href="#DejaVuSans-28"
               x="225.927734"
               id="use242" />
            <use
               xlink:href="#DejaVuSans-73"
               x="264.941406"
               id="use244" />
            <use
               xlink:href="#DejaVuSans-29"
               x="317.041016"
               id="use246" />
          </g>
        </g>
      </g>
      <g
         id="matplotlib.axis_2">
        <g
           id="ytick_1">
          <g
             id="line2d_12">
            <defs
               id="defs253">
              <path
                 id="m84591c138c"
                 d="M 0 0  L -3.5 0  "
                 style="stroke: #000000; stroke-width: 0.8" />
            </defs>
            <g
               id="g257">
              <use
                 xlink:href="#m84591c138c"
                 x="57.6"
                 y="291.704097"
                 style="stroke: #000000; stroke-width: 0.8"
                 id="use255" />
            </g>
          </g>
          <g
             id="text_13">
            <!-- −8 -->
            <g
               transform="translate(35.857813 295.503316)scale(0.1 -0.1)"
               id="g267">
              <defs
                 id="defs261">
                <path
                   id="DejaVuSans-2212"
                   d="M 678 2272  L 4684 2272  L 4684 1741  L 678 1741  L 678 2272  z "
                   transform="scale(0.015625)" />
              </defs>
              <use
                 xlink:href="#DejaVuSans-2212"
                 id="use263" />
              <use
                 xlink:href="#DejaVuSans-38"
                 x="83.789062"
                 id="use265" />
            </g>
          </g>
        </g>
        <g
           id="ytick_2">
          <g
             id="line2d_13">
            <g
               id="g273">
              <use
                 xlink:href="#m84591c138c"
                 x="57.6"
                 y="252.22603"
                 style="stroke: #000000; stroke-width: 0.8"
                 id="use271" />
            </g>
          </g>
          <g
             id="text_14">
            <!-- −6 -->
            <g
               transform="translate(35.857813 256.025248)scale(0.1 -0.1)"
               id="g280">
              <use
                 xlink:href="#DejaVuSans-2212"
                 id="use276" />
              <use
                 xlink:href="#DejaVuSans-36"
                 x="83.789062"
                 id="use278" />
            </g>
          </g>
        </g>
        <g
           id="ytick_3">
          <g
             id="line2d_14">
            <g
               id="g286">
              <use
                 xlink:href="#m84591c138c"
                 x="57.6"
                 y="212.747962"
                 style="stroke: #000000; stroke-width: 0.8"
                 id="use284" />
            </g>
          </g>
          <g
             id="text_15">
            <!-- −4 -->
            <g
               transform="translate(35.857813 216.547181)scale(0.1 -0.1)"
               id="g293">
              <use
                 xlink:href="#DejaVuSans-2212"
                 id="use289" />
              <use
                 xlink:href="#DejaVuSans-34"
                 x="83.789062"
                 id="use291" />
            </g>
          </g>
        </g>
        <g
           id="ytick_4">
          <g
             id="line2d_15">
            <g
               id="g299">
              <use
                 xlink:href="#m84591c138c"
                 x="57.6"
                 y="173.269894"
                 style="stroke: #000000; stroke-width: 0.8"
                 id="use297" />
            </g>
          </g>
          <g
             id="text_16">
            <!-- −2 -->
            <g
               transform="translate(35.857813 177.069113)scale(0.1 -0.1)"
               id="g306">
              <use
                 xlink:href="#DejaVuSans-2212"
                 id="use302" />
              <use
                 xlink:href="#DejaVuSans-32"
                 x="83.789062"
                 id="use304" />
            </g>
          </g>
        </g>
        <g
           id="ytick_5">
          <g
             id="line2d_16">
            <g
               id="g312">
              <use
                 xlink:href="#m84591c138c"
                 x="57.6"
                 y="133.791827"
                 style="stroke: #000000; stroke-width: 0.8"
                 id="use310" />
            </g>
          </g>
          <g
             id="text_17">
            <!-- 0 -->
            <g
               transform="translate(44.2375 137.591045)scale(0.1 -0.1)"
               id="g317">
              <use
                 xlink:href="#DejaVuSans-30"
                 id="use315" />
            </g>
          </g>
        </g>
        <g
           id="ytick_6">
          <g
             id="line2d_17">
            <g
               id="g323">
              <use
                 xlink:href="#m84591c138c"
                 x="57.6"
                 y="94.313759"
                 style="stroke: #000000; stroke-width: 0.8"
                 id="use321" />
            </g>
          </g>
          <g
             id="text_18">
            <!-- 2 -->
            <g
               transform="translate(44.2375 98.112978)scale(0.1 -0.1)"
               id="g328">
              <use
                 xlink:href="#DejaVuSans-32"
                 id="use326" />
            </g>
          </g>
        </g>
        <g
           id="ytick_7">
          <g
             id="line2d_18">
            <g
               id="g334">
              <use
                 xlink:href="#m84591c138c"
                 x="57.6"
                 y="54.835691"
                 style="stroke: #000000; stroke-width: 0.8"
                 id="use332" />
            </g>
          </g>
          <g
             id="text_19">
            <!-- 4 -->
            <g
               transform="translate(44.2375 58.63491)scale(0.1 -0.1)"
               id="g339">
              <use
                 xlink:href="#DejaVuSans-34"
                 id="use337" />
            </g>
          </g>
        </g>
      </g>
      <g
         id="line2d_19">
        <path
           d="M 73.832727 88.722959  L 75.997091 87.693315  L 78.161455 86.975039  L 80.325818 86.560113  L 82.490182 86.44218  L 84.654545 86.616067  L 86.818909 87.077466  L 88.983273 87.822728  L 91.147636 88.848832  L 93.312 90.153927  L 97.640727 93.257213  L 99.805091 94.984491  L 101.969455 96.948246  L 105.216 100.333052  L 121.448727 118.137116  L 124.695273 121.290128  L 127.941818 124.075533  L 130.106182 125.673821  L 132.270545 127.029189  L 134.434909 128.124381  L 136.599273 128.967069  L 138.763636 129.586549  L 140.928 130.021427  L 144.174545 130.414925  L 148.503273 130.662681  L 156.078545 131.076621  L 161.489455 131.624926  L 175.557818 133.21601  L 180.968727 133.540661  L 187.461818 133.683943  L 245.899636 133.890513  L 398.487273 133.90563  L 398.487273 133.90563  "
           clip-path="url(#p4946c59be5)"
           style="fill: none; stroke: #1f77b4; stroke-width: 1.5; stroke-linecap: square"
           id="path365" />
      </g>
      <g
         id="line2d_20">
        <path
           d="M 73.832727 279.544994  L 74.914909 281.266258  L 75.997091 282.772673  L 77.079273 284.070387  L 78.161455 285.167398  L 79.243636 286.073293  L 80.325818 286.798896  L 81.408 287.339764  L 82.490182 287.688694  L 83.572364 287.844966  L 84.654545 287.806541  L 85.736727 287.56189  L 86.818909 287.090982  L 87.901091 286.377178  L 88.983273 285.408147  L 90.065455 284.178353  L 91.147636 282.6912  L 92.229818 280.958638  L 94.394182 276.843562  L 96.558545 272.178397  L 99.805091 264.642874  L 105.216 251.365702  L 111.709091 235.275395  L 113.873455 229.129806  L 117.12 218.871137  L 120.366545 207.601329  L 129.024 176.678399  L 132.270545 165.605354  L 135.517091 155.415663  L 137.681455 149.31348  L 139.845818 143.984322  L 142.010182 139.514744  L 144.174545 135.927416  L 145.256727 134.45735  L 146.338909 133.19436  L 147.421091 132.130562  L 148.503273 131.258255  L 149.585455 130.571047  L 150.667636 130.064813  L 151.749818 129.737871  L 152.832 129.589055  L 153.914182 129.612599  L 154.996364 129.791587  L 157.160727 130.48504  L 161.489455 132.190537  L 163.653818 132.82071  L 165.818182 133.203299  L 167.982545 133.340654  L 170.146909 133.276076  L 179.886545 132.589846  L 183.133091 132.81906  L 187.461818 133.464986  L 192.872727 134.314651  L 196.119273 134.618545  L 199.365818 134.714649  L 203.694545 134.584632  L 215.598545 133.992654  L 223.173818 133.967987  L 235.077818 133.912015  L 244.817455 133.921269  L 264.296727 134.143832  L 289.186909 133.927114  L 336.802909 133.967802  L 372.514909 133.971592  L 398.487273 133.967959  L 398.487273 133.967959  "
           clip-path="url(#p4946c59be5)"
           style="fill: none; stroke: #ff7f0e; stroke-width: 1.5; stroke-linecap: square"
           id="path368" />
      </g>
      <g
         id="line2d_21">
        <path
           d="M 73.832727 65.870388  L 75.997091 64.201223  L 78.161455 62.909529  L 80.325818 61.979343  L 82.490182 61.407303  L 84.654545 61.211034  L 86.818909 61.420832  L 87.901091 61.698786  L 88.983273 62.09995  L 91.147636 63.271768  L 93.312 64.880064  L 95.476364 66.847499  L 99.805091 71.090953  L 100.887273 71.950336  L 101.969455 72.663065  L 103.051636 73.222531  L 104.133818 73.63526  L 105.216 73.913172  L 107.380364 74.115889  L 109.544727 73.944372  L 111.709091 73.77138  L 112.791273 74.021183  L 113.873455 74.568488  L 116.037818 76.141436  L 119.284364 78.974323  L 122.530909 82.157111  L 125.777455 85.604483  L 129.024 89.354701  L 132.270545 93.665533  L 134.434909 96.910209  L 140.928 107.255147  L 143.092364 110.221769  L 145.256727 112.709156  L 147.421091 114.684998  L 149.585455 116.168522  L 151.749818 117.202012  L 153.914182 117.850874  L 157.160727 118.420234  L 160.407273 119.064878  L 162.571636 119.716657  L 164.736 120.576617  L 167.982545 122.206574  L 175.557818 126.433859  L 177.722182 127.395922  L 179.886545 128.163329  L 182.050909 128.741918  L 185.297455 129.324341  L 190.708364 129.920348  L 196.119273 130.583769  L 202.612364 131.66744  L 208.023273 132.497342  L 212.352 132.915944  L 216.680727 133.101955  L 232.913455 133.485712  L 245.899636 134.127098  L 255.639273 134.281991  L 291.351273 134.539283  L 375.761455 134.708811  L 398.487273 134.70852  L 398.487273 134.70852  "
           clip-path="url(#p4946c59be5)"
           style="fill: none; stroke: #2ca02c; stroke-width: 1.5; stroke-linecap: square"
           id="path371" />
      </g>
      <g
         id="line2d_22">
        <path
           d="M 73.832727 257.852206  L 74.914909 259.574092  L 75.997091 261.082451  L 77.079273 262.385673  L 78.161455 263.497417  L 79.243636 264.428866  L 80.325818 265.185328  L 81.408 265.770128  L 82.490182 266.185718  L 83.572364 266.434035  L 84.654545 266.516663  L 85.736727 266.434925  L 86.818909 266.189965  L 87.901091 265.782832  L 88.983273 265.214589  L 90.065455 264.486464  L 91.147636 263.600078  L 93.312 261.363267  L 95.476364 258.61697  L 98.722909 253.98669  L 101.969455 248.864875  L 105.216 243.190778  L 108.462545 237.190087  L 110.626909 232.814203  L 112.791273 227.749095  L 114.955636 221.881321  L 118.202182 212.343345  L 125.777455 189.613907  L 130.106182 177.435993  L 137.681455 157.025932  L 139.845818 151.831597  L 142.010182 147.391752  L 144.174545 143.770233  L 145.256727 142.261673  L 146.338909 140.945035  L 147.421091 139.810007  L 148.503273 138.844045  L 150.667636 137.352256  L 153.914182 135.744855  L 156.078545 134.610538  L 159.325091 132.68581  L 160.407273 132.285948  L 162.571636 131.975885  L 165.818182 131.647112  L 173.393455 130.609014  L 175.557818 130.553554  L 177.722182 130.676379  L 180.968727 131.158873  L 185.297455 132.141378  L 190.708364 133.359387  L 193.954909 133.854976  L 197.201455 134.120815  L 201.530182 134.195847  L 212.352 134.169095  L 228.584727 134.534804  L 236.16 134.257939  L 244.817455 134.003124  L 253.474909 134.033743  L 272.954182 134.16959  L 296.762182 134.162577  L 315.159273 134.091662  L 358.446545 134.137465  L 398.487273 134.138015  L 398.487273 134.138015  "
           clip-path="url(#p4946c59be5)"
           style="fill: none; stroke: #d62728; stroke-width: 1.5; stroke-linecap: square"
           id="path374" />
      </g>
      <g
         id="line2d_23">
        <path
           d="M 73.832727 237.771331  L 75.997091 239.365012  L 78.161455 240.520204  L 80.325818 241.271516  L 82.490182 241.618643  L 84.654545 241.531631  L 86.818909 241.005806  L 88.983273 240.03854  L 91.147636 238.62869  L 93.312 236.775668  L 95.476364 234.550451  L 97.640727 232.080139  L 99.805091 229.247225  L 100.887273 227.424566  L 101.969455 224.842649  L 104.133818 217.951967  L 110.626909 195.954495  L 114.955636 182.683895  L 118.202182 173.437158  L 120.366545 167.803463  L 122.530909 162.807561  L 124.695273 158.624066  L 126.859636 155.125139  L 129.024 152.107607  L 131.188364 149.616021  L 133.352727 147.686558  L 134.434909 146.936124  L 136.599273 145.823913  L 139.845818 144.675975  L 144.174545 143.131332  L 148.503273 141.290288  L 154.996364 138.379232  L 158.242909 137.301371  L 160.407273 136.524916  L 162.571636 135.709882  L 164.736 135.181208  L 169.064727 134.526395  L 177.722182 133.467654  L 182.050909 133.134426  L 186.379636 133.032778  L 190.708364 133.154302  L 208.023273 133.980998  L 219.927273 133.92653  L 248.064 133.80792  L 263.214545 133.627616  L 328.145455 133.416533  L 398.487273 133.366088  L 398.487273 133.366088  "
           clip-path="url(#p4946c59be5)"
           style="fill: none; stroke: #9467bd; stroke-width: 1.5; stroke-linecap: square"
           id="path377" />
      </g>
      <g
         id="patch_3">
        <path
           d="M 57.6 307.584  L 57.6 41.472  "
           style="fill: none; stroke: #000000; stroke-width: 0.8; stroke-linejoin: miter; stroke-linecap: square"
           id="path380" />
      </g>
      <g
         id="patch_4">
        <path
           d="M 414.72 307.584  L 414.72 41.472  "
           style="fill: none; stroke: #000000; stroke-width: 0.8; stroke-linejoin: miter; stroke-linecap: square"
           id="path383" />
      </g>
      <g
         id="patch_5">
        <path
           d="M 57.6 307.584  L 414.72 307.584  "
           style="fill: none; stroke: #000000; stroke-width: 0.8; stroke-linejoin: miter; stroke-linecap: square"
           id="path386" />
      </g>
      <g
         id="patch_6">
        <path
           d="M 57.6 41.472  L 414.72 41.472  "
           style="fill: none; stroke: #000000; stroke-width: 0.8; stroke-linejoin: miter; stroke-linecap: square"
           id="path389" />
      </g>
      <g
         id="legend_1">
        <g
           id="patch_7">
          <path
             d="M 362.32 122.862625  L 407.72 122.862625  Q 409.72 122.862625 409.72 120.862625  L 409.72 48.472  Q 409.72 46.472 407.72 46.472  L 362.32 46.472  Q 360.32 46.472 360.32 48.472  L 360.32 120.862625  Q 360.32 122.862625 362.32 122.862625  z "
             style="fill: #ffffff; opacity: 0.8; stroke: #cccccc; stroke-linejoin: miter"
             id="path392" />
        </g>
        <g
           id="line2d_24">
          <path
             d="M 364.32 54.570438  L 374.32 54.570438  L 384.32 54.570438  "
             style="fill: none; stroke: #1f77b4; stroke-width: 1.5; stroke-linecap: square"
             id="path395" />
        </g>
        <g
           id="text_21">
          <!-- $M_1$ -->
          <g
             transform="translate(392.32 58.070438)scale(0.1 -0.1)"
             id="g405">
            <defs
               id="defs399">
              <path
                 id="DejaVuSans-Oblique-4d"
                 d="M 1081 4666  L 2028 4666  L 2572 1522  L 4378 4666  L 5350 4666  L 4441 0  L 3828 0  L 4622 4091  L 2791 897  L 2175 897  L 1581 4103  L 788 0  L 172 0  L 1081 4666  z "
                 transform="scale(0.015625)" />
            </defs>
            <use
               xlink:href="#DejaVuSans-Oblique-4d"
               transform="translate(0 0.09375)"
               id="use401" />
            <use
               xlink:href="#DejaVuSans-31"
               transform="translate(86.279297 -16.3125)scale(0.7)"
               id="use403" />
          </g>
        </g>
        <g
           id="line2d_25">
          <path
             d="M 364.32 69.248563  L 374.32 69.248563  L 384.32 69.248563  "
             style="fill: none; stroke: #ff7f0e; stroke-width: 1.5; stroke-linecap: square"
             id="path408" />
        </g>
        <g
           id="text_22">
          <!-- $M_2$ -->
          <g
             transform="translate(392.32 72.748563)scale(0.1 -0.1)"
             id="g415">
            <use
               xlink:href="#DejaVuSans-Oblique-4d"
               transform="translate(0 0.09375)"
               id="use411" />
            <use
               xlink:href="#DejaVuSans-32"
               transform="translate(86.279297 -16.3125)scale(0.7)"
               id="use413" />
          </g>
        </g>
        <g
           id="line2d_26">
          <path
             d="M 364.32 83.926688  L 374.32 83.926688  L 384.32 83.926688  "
             style="fill: none; stroke: #2ca02c; stroke-width: 1.5; stroke-linecap: square"
             id="path418" />
        </g>
        <g
           id="text_23">
          <!-- $M_3$ -->
          <g
             transform="translate(392.32 87.426688)scale(0.1 -0.1)"
             id="g425">
            <use
               xlink:href="#DejaVuSans-Oblique-4d"
               transform="translate(0 0.09375)"
               id="use421" />
            <use
               xlink:href="#DejaVuSans-33"
               transform="translate(86.279297 -16.3125)scale(0.7)"
               id="use423" />
          </g>
        </g>
        <g
           id="line2d_27">
          <path
             d="M 364.32 98.604813  L 374.32 98.604813  L 384.32 98.604813  "
             style="fill: none; stroke: #d62728; stroke-width: 1.5; stroke-linecap: square"
             id="path428" />
        </g>
        <g
           id="text_24">
          <!-- $M_4$ -->
          <g
             transform="translate(392.32 102.104813)scale(0.1 -0.1)"
             id="g435">
            <use
               xlink:href="#DejaVuSans-Oblique-4d"
               transform="translate(0 0.09375)"
               id="use431" />
            <use
               xlink:href="#DejaVuSans-34"
               transform="translate(86.279297 -16.3125)scale(0.7)"
               id="use433" />
          </g>
        </g>
        <g
           id="line2d_28">
          <path
             d="M 364.32 113.282938  L 374.32 113.282938  L 384.32 113.282938  "
             style="fill: none; stroke: #9467bd; stroke-width: 1.5; stroke-linecap: square"
             id="path438" />
        </g>
        <g
           id="text_25">
          <!-- $M_5$ -->
          <g
             transform="translate(392.32 116.782938)scale(0.1 -0.1)"
             id="g445">
            <use
               xlink:href="#DejaVuSans-Oblique-4d"
               transform="translate(0 0.09375)"
               id="use441" />
            <use
               xlink:href="#DejaVuSans-35"
               transform="translate(86.279297 -16.3125)scale(0.7)"
               id="use443" />
          </g>
        </g>
      </g>
    </g>
  </g>
  <g
     id="text_25-1"
     style="stroke-linecap:butt;stroke-linejoin:round"
     transform="translate(16.26875,5.8691406)">
    <!-- $|e_{ri}|$ -->
    <g
       transform="matrix(0,-0.1,-0.1,0,13.554687,183.528)"
       id="g486">
      <defs
         id="defs474">
        <path
           id="path481"
           d="M 1344,4891 V -1509 H 813 v 6400 z"
           transform="scale(0.015625)" />
        <path
           id="path483"
           d="m 3078,2063 q 10,50 14,103 5,53 5,106 0,381 -224,603 -223,222 -607,222 -428,0 -757,-271 -328,-270 -496,-767 z m 500,-450 H 903 q -19,-119 -25,-188 -6,-69 -6,-119 0,-434 267,-672 267,-237 755,-237 375,0 709,84 335,85 622,247 L 3116,159 Q 2806,34 2476,-28 2147,-91 1806,-91 1078,-91 686,257 294,606 294,1247 q 0,547 195,1017 195,470 574,839 243,231 579,356 336,125 714,125 594,0 945,-356 352,-356 352,-956 0,-144 -19,-308 -18,-164 -56,-351 z"
           transform="scale(0.015625)" />
        <path
           id="path485"
           d="m 2853,2969 q -87,47 -200,72 -112,25 -240,25 -460,0 -804,-349 -343,-348 -456,-933 L 800,0 H 225 l 684,3500 h 575 l -109,-544 q 228,303 545,465 318,163 677,163 94,0 184,-11 91,-10 182,-35 z"
           transform="scale(0.015625)" />
        <path
           id="path487"
           d="m 1172,4863 h 575 L 1606,4134 H 1031 Z M 909,3500 h 575 L 800,0 H 225 Z"
           transform="scale(0.015625)" />
      </defs>
      <use
         xlink:href="#DejaVuSans-7c"
         transform="translate(0,0.578125)"
         id="use476"
         x="0"
         y="0"
         width="100%"
         height="100%" />
      <use
         xlink:href="#DejaVuSans-Oblique-65-2"
         transform="translate(33.691406,0.578125)"
         id="use478"
         x="0"
         y="0"
         width="100%"
         height="100%" />
      <use
         xlink:href="#DejaVuSans-Oblique-72-4"
         transform="matrix(0.7,0,0,0.7,95.214844,-15.828125)"
         id="use480"
         x="0"
         y="0"
         width="100%"
         height="100%" />
      <use
         xlink:href="#DejaVuSans-Oblique-69-9"
         transform="matrix(0.7,0,0,0.7,123.99414,-15.828125)"
         id="use482"
         x="0"
         y="0"
         width="100%"
         height="100%" />
      <use
         xlink:href="#DejaVuSans-7c"
         transform="translate(146.17676,0.578125)"
         id="use484"
         x="0"
         y="0"
         width="100%"
         height="100%" />
    </g>
  </g>
  <defs
     id="defs454">
    <clipPath
       id="p4946c59be5">
      <rect
         x="57.6"
         y="41.472"
         width="357.12"
         height="266.112"
         id="rect451" />
    </clipPath>
  </defs>
</svg>
