<?xml version="1.0" encoding="utf-8" standalone="no"?>
<!DOCTYPE svg PUBLIC "-//W3C//DTD SVG 1.1//EN"
  "http://www.w3.org/Graphics/SVG/1.1/DTD/svg11.dtd">
<svg xmlns:xlink="http://www.w3.org/1999/xlink" width="460.8pt" height="345.6pt" viewBox="0 0 460.8 345.6" xmlns="http://www.w3.org/2000/svg" version="1.1">
 <metadata>
  <rdf:RDF xmlns:dc="http://purl.org/dc/elements/1.1/" xmlns:cc="http://creativecommons.org/ns#" xmlns:rdf="http://www.w3.org/1999/02/22-rdf-syntax-ns#">
   <cc:Work>
    <dc:type rdf:resource="http://purl.org/dc/dcmitype/StillImage"/>
    <dc:date>2022-08-07T16:14:58.827078</dc:date>
    <dc:format>image/svg+xml</dc:format>
    <dc:creator>
     <cc:Agent>
      <dc:title>Matplotlib v3.5.2, https://matplotlib.org/</dc:title>
     </cc:Agent>
    </dc:creator>
   </cc:Work>
  </rdf:RDF>
 </metadata>
 <defs>
  <style type="text/css">*{stroke-linejoin: round; stroke-linecap: butt}</style>
 </defs>
 <g id="figure_1">
  <g id="patch_1">
   <path d="M 0 345.6 
L 460.8 345.6 
L 460.8 0 
L 0 0 
z
" style="fill: #ffffff"/>
  </g>
  <g id="axes_1">
   <g id="patch_2">
    <path d="M 57.6 307.584 
L 414.72 307.584 
L 414.72 41.472 
L 57.6 41.472 
z
" style="fill: #ffffff"/>
   </g>
   <g id="matplotlib.axis_1">
    <g id="xtick_1">
     <g id="line2d_1">
      <defs>
       <path id="m94ff2a0ce7" d="M 0 0 
L 0 3.5 
" style="stroke: #000000; stroke-width: 0.8"/>
      </defs>
      <g>
       <use xlink:href="#m94ff2a0ce7" x="73.832727" y="307.584" style="stroke: #000000; stroke-width: 0.8"/>
      </g>
     </g>
     <g id="text_1">
      <!-- 0.0 -->
      <g transform="translate(65.881165 322.182437)scale(0.1 -0.1)">
       <defs>
        <path id="DejaVuSans-30" d="M 2034 4250 
Q 1547 4250 1301 3770 
Q 1056 3291 1056 2328 
Q 1056 1369 1301 889 
Q 1547 409 2034 409 
Q 2525 409 2770 889 
Q 3016 1369 3016 2328 
Q 3016 3291 2770 3770 
Q 2525 4250 2034 4250 
z
M 2034 4750 
Q 2819 4750 3233 4129 
Q 3647 3509 3647 2328 
Q 3647 1150 3233 529 
Q 2819 -91 2034 -91 
Q 1250 -91 836 529 
Q 422 1150 422 2328 
Q 422 3509 836 4129 
Q 1250 4750 2034 4750 
z
" transform="scale(0.015625)"/>
        <path id="DejaVuSans-2e" d="M 684 794 
L 1344 794 
L 1344 0 
L 684 0 
L 684 794 
z
" transform="scale(0.015625)"/>
       </defs>
       <use xlink:href="#DejaVuSans-30"/>
       <use xlink:href="#DejaVuSans-2e" x="63.623047"/>
       <use xlink:href="#DejaVuSans-30" x="95.410156"/>
      </g>
     </g>
    </g>
    <g id="xtick_2">
     <g id="line2d_2">
      <g>
       <use xlink:href="#m94ff2a0ce7" x="95.476364" y="307.584" style="stroke: #000000; stroke-width: 0.8"/>
      </g>
     </g>
     <g id="text_2">
      <!-- 3.0 -->
      <g transform="translate(87.524801 322.182437)scale(0.1 -0.1)">
       <defs>
        <path id="DejaVuSans-33" d="M 2597 2516 
Q 3050 2419 3304 2112 
Q 3559 1806 3559 1356 
Q 3559 666 3084 287 
Q 2609 -91 1734 -91 
Q 1441 -91 1130 -33 
Q 819 25 488 141 
L 488 750 
Q 750 597 1062 519 
Q 1375 441 1716 441 
Q 2309 441 2620 675 
Q 2931 909 2931 1356 
Q 2931 1769 2642 2001 
Q 2353 2234 1838 2234 
L 1294 2234 
L 1294 2753 
L 1863 2753 
Q 2328 2753 2575 2939 
Q 2822 3125 2822 3475 
Q 2822 3834 2567 4026 
Q 2313 4219 1838 4219 
Q 1578 4219 1281 4162 
Q 984 4106 628 3988 
L 628 4550 
Q 988 4650 1302 4700 
Q 1616 4750 1894 4750 
Q 2613 4750 3031 4423 
Q 3450 4097 3450 3541 
Q 3450 3153 3228 2886 
Q 3006 2619 2597 2516 
z
" transform="scale(0.015625)"/>
       </defs>
       <use xlink:href="#DejaVuSans-33"/>
       <use xlink:href="#DejaVuSans-2e" x="63.623047"/>
       <use xlink:href="#DejaVuSans-30" x="95.410156"/>
      </g>
     </g>
    </g>
    <g id="xtick_3">
     <g id="line2d_3">
      <g>
       <use xlink:href="#m94ff2a0ce7" x="117.12" y="307.584" style="stroke: #000000; stroke-width: 0.8"/>
      </g>
     </g>
     <g id="text_3">
      <!-- 6.0 -->
      <g transform="translate(109.168438 322.182437)scale(0.1 -0.1)">
       <defs>
        <path id="DejaVuSans-36" d="M 2113 2584 
Q 1688 2584 1439 2293 
Q 1191 2003 1191 1497 
Q 1191 994 1439 701 
Q 1688 409 2113 409 
Q 2538 409 2786 701 
Q 3034 994 3034 1497 
Q 3034 2003 2786 2293 
Q 2538 2584 2113 2584 
z
M 3366 4563 
L 3366 3988 
Q 3128 4100 2886 4159 
Q 2644 4219 2406 4219 
Q 1781 4219 1451 3797 
Q 1122 3375 1075 2522 
Q 1259 2794 1537 2939 
Q 1816 3084 2150 3084 
Q 2853 3084 3261 2657 
Q 3669 2231 3669 1497 
Q 3669 778 3244 343 
Q 2819 -91 2113 -91 
Q 1303 -91 875 529 
Q 447 1150 447 2328 
Q 447 3434 972 4092 
Q 1497 4750 2381 4750 
Q 2619 4750 2861 4703 
Q 3103 4656 3366 4563 
z
" transform="scale(0.015625)"/>
       </defs>
       <use xlink:href="#DejaVuSans-36"/>
       <use xlink:href="#DejaVuSans-2e" x="63.623047"/>
       <use xlink:href="#DejaVuSans-30" x="95.410156"/>
      </g>
     </g>
    </g>
    <g id="xtick_4">
     <g id="line2d_4">
      <g>
       <use xlink:href="#m94ff2a0ce7" x="138.763636" y="307.584" style="stroke: #000000; stroke-width: 0.8"/>
      </g>
     </g>
     <g id="text_4">
      <!-- 9.0 -->
      <g transform="translate(130.812074 322.182437)scale(0.1 -0.1)">
       <defs>
        <path id="DejaVuSans-39" d="M 703 97 
L 703 672 
Q 941 559 1184 500 
Q 1428 441 1663 441 
Q 2288 441 2617 861 
Q 2947 1281 2994 2138 
Q 2813 1869 2534 1725 
Q 2256 1581 1919 1581 
Q 1219 1581 811 2004 
Q 403 2428 403 3163 
Q 403 3881 828 4315 
Q 1253 4750 1959 4750 
Q 2769 4750 3195 4129 
Q 3622 3509 3622 2328 
Q 3622 1225 3098 567 
Q 2575 -91 1691 -91 
Q 1453 -91 1209 -44 
Q 966 3 703 97 
z
M 1959 2075 
Q 2384 2075 2632 2365 
Q 2881 2656 2881 3163 
Q 2881 3666 2632 3958 
Q 2384 4250 1959 4250 
Q 1534 4250 1286 3958 
Q 1038 3666 1038 3163 
Q 1038 2656 1286 2365 
Q 1534 2075 1959 2075 
z
" transform="scale(0.015625)"/>
       </defs>
       <use xlink:href="#DejaVuSans-39"/>
       <use xlink:href="#DejaVuSans-2e" x="63.623047"/>
       <use xlink:href="#DejaVuSans-30" x="95.410156"/>
      </g>
     </g>
    </g>
    <g id="xtick_5">
     <g id="line2d_5">
      <g>
       <use xlink:href="#m94ff2a0ce7" x="160.407273" y="307.584" style="stroke: #000000; stroke-width: 0.8"/>
      </g>
     </g>
     <g id="text_5">
      <!-- 12.0 -->
      <g transform="translate(149.27446 322.182437)scale(0.1 -0.1)">
       <defs>
        <path id="DejaVuSans-31" d="M 794 531 
L 1825 531 
L 1825 4091 
L 703 3866 
L 703 4441 
L 1819 4666 
L 2450 4666 
L 2450 531 
L 3481 531 
L 3481 0 
L 794 0 
L 794 531 
z
" transform="scale(0.015625)"/>
        <path id="DejaVuSans-32" d="M 1228 531 
L 3431 531 
L 3431 0 
L 469 0 
L 469 531 
Q 828 903 1448 1529 
Q 2069 2156 2228 2338 
Q 2531 2678 2651 2914 
Q 2772 3150 2772 3378 
Q 2772 3750 2511 3984 
Q 2250 4219 1831 4219 
Q 1534 4219 1204 4116 
Q 875 4013 500 3803 
L 500 4441 
Q 881 4594 1212 4672 
Q 1544 4750 1819 4750 
Q 2544 4750 2975 4387 
Q 3406 4025 3406 3419 
Q 3406 3131 3298 2873 
Q 3191 2616 2906 2266 
Q 2828 2175 2409 1742 
Q 1991 1309 1228 531 
z
" transform="scale(0.015625)"/>
       </defs>
       <use xlink:href="#DejaVuSans-31"/>
       <use xlink:href="#DejaVuSans-32" x="63.623047"/>
       <use xlink:href="#DejaVuSans-2e" x="127.246094"/>
       <use xlink:href="#DejaVuSans-30" x="159.033203"/>
      </g>
     </g>
    </g>
    <g id="xtick_6">
     <g id="line2d_6">
      <g>
       <use xlink:href="#m94ff2a0ce7" x="182.050909" y="307.584" style="stroke: #000000; stroke-width: 0.8"/>
      </g>
     </g>
     <g id="text_6">
      <!-- 15.0 -->
      <g transform="translate(170.918097 322.182437)scale(0.1 -0.1)">
       <defs>
        <path id="DejaVuSans-35" d="M 691 4666 
L 3169 4666 
L 3169 4134 
L 1269 4134 
L 1269 2991 
Q 1406 3038 1543 3061 
Q 1681 3084 1819 3084 
Q 2600 3084 3056 2656 
Q 3513 2228 3513 1497 
Q 3513 744 3044 326 
Q 2575 -91 1722 -91 
Q 1428 -91 1123 -41 
Q 819 9 494 109 
L 494 744 
Q 775 591 1075 516 
Q 1375 441 1709 441 
Q 2250 441 2565 725 
Q 2881 1009 2881 1497 
Q 2881 1984 2565 2268 
Q 2250 2553 1709 2553 
Q 1456 2553 1204 2497 
Q 953 2441 691 2322 
L 691 4666 
z
" transform="scale(0.015625)"/>
       </defs>
       <use xlink:href="#DejaVuSans-31"/>
       <use xlink:href="#DejaVuSans-35" x="63.623047"/>
       <use xlink:href="#DejaVuSans-2e" x="127.246094"/>
       <use xlink:href="#DejaVuSans-30" x="159.033203"/>
      </g>
     </g>
    </g>
    <g id="xtick_7">
     <g id="line2d_7">
      <g>
       <use xlink:href="#m94ff2a0ce7" x="203.694545" y="307.584" style="stroke: #000000; stroke-width: 0.8"/>
      </g>
     </g>
     <g id="text_7">
      <!-- 18.0 -->
      <g transform="translate(192.561733 322.182437)scale(0.1 -0.1)">
       <defs>
        <path id="DejaVuSans-38" d="M 2034 2216 
Q 1584 2216 1326 1975 
Q 1069 1734 1069 1313 
Q 1069 891 1326 650 
Q 1584 409 2034 409 
Q 2484 409 2743 651 
Q 3003 894 3003 1313 
Q 3003 1734 2745 1975 
Q 2488 2216 2034 2216 
z
M 1403 2484 
Q 997 2584 770 2862 
Q 544 3141 544 3541 
Q 544 4100 942 4425 
Q 1341 4750 2034 4750 
Q 2731 4750 3128 4425 
Q 3525 4100 3525 3541 
Q 3525 3141 3298 2862 
Q 3072 2584 2669 2484 
Q 3125 2378 3379 2068 
Q 3634 1759 3634 1313 
Q 3634 634 3220 271 
Q 2806 -91 2034 -91 
Q 1263 -91 848 271 
Q 434 634 434 1313 
Q 434 1759 690 2068 
Q 947 2378 1403 2484 
z
M 1172 3481 
Q 1172 3119 1398 2916 
Q 1625 2713 2034 2713 
Q 2441 2713 2670 2916 
Q 2900 3119 2900 3481 
Q 2900 3844 2670 4047 
Q 2441 4250 2034 4250 
Q 1625 4250 1398 4047 
Q 1172 3844 1172 3481 
z
" transform="scale(0.015625)"/>
       </defs>
       <use xlink:href="#DejaVuSans-31"/>
       <use xlink:href="#DejaVuSans-38" x="63.623047"/>
       <use xlink:href="#DejaVuSans-2e" x="127.246094"/>
       <use xlink:href="#DejaVuSans-30" x="159.033203"/>
      </g>
     </g>
    </g>
    <g id="xtick_8">
     <g id="line2d_8">
      <g>
       <use xlink:href="#m94ff2a0ce7" x="225.338182" y="307.584" style="stroke: #000000; stroke-width: 0.8"/>
      </g>
     </g>
     <g id="text_8">
      <!-- 21.0 -->
      <g transform="translate(214.205369 322.182437)scale(0.1 -0.1)">
       <use xlink:href="#DejaVuSans-32"/>
       <use xlink:href="#DejaVuSans-31" x="63.623047"/>
       <use xlink:href="#DejaVuSans-2e" x="127.246094"/>
       <use xlink:href="#DejaVuSans-30" x="159.033203"/>
      </g>
     </g>
    </g>
    <g id="xtick_9">
     <g id="line2d_9">
      <g>
       <use xlink:href="#m94ff2a0ce7" x="246.981818" y="307.584" style="stroke: #000000; stroke-width: 0.8"/>
      </g>
     </g>
     <g id="text_9">
      <!-- 24.0 -->
      <g transform="translate(235.849006 322.182437)scale(0.1 -0.1)">
       <defs>
        <path id="DejaVuSans-34" d="M 2419 4116 
L 825 1625 
L 2419 1625 
L 2419 4116 
z
M 2253 4666 
L 3047 4666 
L 3047 1625 
L 3713 1625 
L 3713 1100 
L 3047 1100 
L 3047 0 
L 2419 0 
L 2419 1100 
L 313 1100 
L 313 1709 
L 2253 4666 
z
" transform="scale(0.015625)"/>
       </defs>
       <use xlink:href="#DejaVuSans-32"/>
       <use xlink:href="#DejaVuSans-34" x="63.623047"/>
       <use xlink:href="#DejaVuSans-2e" x="127.246094"/>
       <use xlink:href="#DejaVuSans-30" x="159.033203"/>
      </g>
     </g>
    </g>
    <g id="xtick_10">
     <g id="line2d_10">
      <g>
       <use xlink:href="#m94ff2a0ce7" x="268.625455" y="307.584" style="stroke: #000000; stroke-width: 0.8"/>
      </g>
     </g>
     <g id="text_10">
      <!-- 27.0 -->
      <g transform="translate(257.492642 322.182437)scale(0.1 -0.1)">
       <defs>
        <path id="DejaVuSans-37" d="M 525 4666 
L 3525 4666 
L 3525 4397 
L 1831 0 
L 1172 0 
L 2766 4134 
L 525 4134 
L 525 4666 
z
" transform="scale(0.015625)"/>
       </defs>
       <use xlink:href="#DejaVuSans-32"/>
       <use xlink:href="#DejaVuSans-37" x="63.623047"/>
       <use xlink:href="#DejaVuSans-2e" x="127.246094"/>
       <use xlink:href="#DejaVuSans-30" x="159.033203"/>
      </g>
     </g>
    </g>
    <g id="xtick_11">
     <g id="line2d_11">
      <g>
       <use xlink:href="#m94ff2a0ce7" x="290.269091" y="307.584" style="stroke: #000000; stroke-width: 0.8"/>
      </g>
     </g>
     <g id="text_11">
      <!-- 30.0 -->
      <g transform="translate(279.136278 322.182437)scale(0.1 -0.1)">
       <use xlink:href="#DejaVuSans-33"/>
       <use xlink:href="#DejaVuSans-30" x="63.623047"/>
       <use xlink:href="#DejaVuSans-2e" x="127.246094"/>
       <use xlink:href="#DejaVuSans-30" x="159.033203"/>
      </g>
     </g>
    </g>
    <g id="xtick_12">
     <g id="line2d_12">
      <g>
       <use xlink:href="#m94ff2a0ce7" x="311.912727" y="307.584" style="stroke: #000000; stroke-width: 0.8"/>
      </g>
     </g>
     <g id="text_12">
      <!-- 33.0 -->
      <g transform="translate(300.779915 322.182437)scale(0.1 -0.1)">
       <use xlink:href="#DejaVuSans-33"/>
       <use xlink:href="#DejaVuSans-33" x="63.623047"/>
       <use xlink:href="#DejaVuSans-2e" x="127.246094"/>
       <use xlink:href="#DejaVuSans-30" x="159.033203"/>
      </g>
     </g>
    </g>
    <g id="xtick_13">
     <g id="line2d_13">
      <g>
       <use xlink:href="#m94ff2a0ce7" x="333.556364" y="307.584" style="stroke: #000000; stroke-width: 0.8"/>
      </g>
     </g>
     <g id="text_13">
      <!-- 36.0 -->
      <g transform="translate(322.423551 322.182437)scale(0.1 -0.1)">
       <use xlink:href="#DejaVuSans-33"/>
       <use xlink:href="#DejaVuSans-36" x="63.623047"/>
       <use xlink:href="#DejaVuSans-2e" x="127.246094"/>
       <use xlink:href="#DejaVuSans-30" x="159.033203"/>
      </g>
     </g>
    </g>
    <g id="xtick_14">
     <g id="line2d_14">
      <g>
       <use xlink:href="#m94ff2a0ce7" x="355.2" y="307.584" style="stroke: #000000; stroke-width: 0.8"/>
      </g>
     </g>
     <g id="text_14">
      <!-- 39.0 -->
      <g transform="translate(344.067188 322.182437)scale(0.1 -0.1)">
       <use xlink:href="#DejaVuSans-33"/>
       <use xlink:href="#DejaVuSans-39" x="63.623047"/>
       <use xlink:href="#DejaVuSans-2e" x="127.246094"/>
       <use xlink:href="#DejaVuSans-30" x="159.033203"/>
      </g>
     </g>
    </g>
    <g id="xtick_15">
     <g id="line2d_15">
      <g>
       <use xlink:href="#m94ff2a0ce7" x="376.843636" y="307.584" style="stroke: #000000; stroke-width: 0.8"/>
      </g>
     </g>
     <g id="text_15">
      <!-- 42.0 -->
      <g transform="translate(365.710824 322.182437)scale(0.1 -0.1)">
       <use xlink:href="#DejaVuSans-34"/>
       <use xlink:href="#DejaVuSans-32" x="63.623047"/>
       <use xlink:href="#DejaVuSans-2e" x="127.246094"/>
       <use xlink:href="#DejaVuSans-30" x="159.033203"/>
      </g>
     </g>
    </g>
    <g id="xtick_16">
     <g id="line2d_16">
      <g>
       <use xlink:href="#m94ff2a0ce7" x="398.487273" y="307.584" style="stroke: #000000; stroke-width: 0.8"/>
      </g>
     </g>
     <g id="text_16">
      <!-- 45.0 -->
      <g transform="translate(387.35446 322.182437)scale(0.1 -0.1)">
       <use xlink:href="#DejaVuSans-34"/>
       <use xlink:href="#DejaVuSans-35" x="63.623047"/>
       <use xlink:href="#DejaVuSans-2e" x="127.246094"/>
       <use xlink:href="#DejaVuSans-30" x="159.033203"/>
      </g>
     </g>
    </g>
    <g id="text_17">
     <!-- time(s) -->
     <g transform="translate(218.357656 335.860562)scale(0.1 -0.1)">
      <defs>
       <path id="DejaVuSans-74" d="M 1172 4494 
L 1172 3500 
L 2356 3500 
L 2356 3053 
L 1172 3053 
L 1172 1153 
Q 1172 725 1289 603 
Q 1406 481 1766 481 
L 2356 481 
L 2356 0 
L 1766 0 
Q 1100 0 847 248 
Q 594 497 594 1153 
L 594 3053 
L 172 3053 
L 172 3500 
L 594 3500 
L 594 4494 
L 1172 4494 
z
" transform="scale(0.015625)"/>
       <path id="DejaVuSans-69" d="M 603 3500 
L 1178 3500 
L 1178 0 
L 603 0 
L 603 3500 
z
M 603 4863 
L 1178 4863 
L 1178 4134 
L 603 4134 
L 603 4863 
z
" transform="scale(0.015625)"/>
       <path id="DejaVuSans-6d" d="M 3328 2828 
Q 3544 3216 3844 3400 
Q 4144 3584 4550 3584 
Q 5097 3584 5394 3201 
Q 5691 2819 5691 2113 
L 5691 0 
L 5113 0 
L 5113 2094 
Q 5113 2597 4934 2840 
Q 4756 3084 4391 3084 
Q 3944 3084 3684 2787 
Q 3425 2491 3425 1978 
L 3425 0 
L 2847 0 
L 2847 2094 
Q 2847 2600 2669 2842 
Q 2491 3084 2119 3084 
Q 1678 3084 1418 2786 
Q 1159 2488 1159 1978 
L 1159 0 
L 581 0 
L 581 3500 
L 1159 3500 
L 1159 2956 
Q 1356 3278 1631 3431 
Q 1906 3584 2284 3584 
Q 2666 3584 2933 3390 
Q 3200 3197 3328 2828 
z
" transform="scale(0.015625)"/>
       <path id="DejaVuSans-65" d="M 3597 1894 
L 3597 1613 
L 953 1613 
Q 991 1019 1311 708 
Q 1631 397 2203 397 
Q 2534 397 2845 478 
Q 3156 559 3463 722 
L 3463 178 
Q 3153 47 2828 -22 
Q 2503 -91 2169 -91 
Q 1331 -91 842 396 
Q 353 884 353 1716 
Q 353 2575 817 3079 
Q 1281 3584 2069 3584 
Q 2775 3584 3186 3129 
Q 3597 2675 3597 1894 
z
M 3022 2063 
Q 3016 2534 2758 2815 
Q 2500 3097 2075 3097 
Q 1594 3097 1305 2825 
Q 1016 2553 972 2059 
L 3022 2063 
z
" transform="scale(0.015625)"/>
       <path id="DejaVuSans-28" d="M 1984 4856 
Q 1566 4138 1362 3434 
Q 1159 2731 1159 2009 
Q 1159 1288 1364 580 
Q 1569 -128 1984 -844 
L 1484 -844 
Q 1016 -109 783 600 
Q 550 1309 550 2009 
Q 550 2706 781 3412 
Q 1013 4119 1484 4856 
L 1984 4856 
z
" transform="scale(0.015625)"/>
       <path id="DejaVuSans-73" d="M 2834 3397 
L 2834 2853 
Q 2591 2978 2328 3040 
Q 2066 3103 1784 3103 
Q 1356 3103 1142 2972 
Q 928 2841 928 2578 
Q 928 2378 1081 2264 
Q 1234 2150 1697 2047 
L 1894 2003 
Q 2506 1872 2764 1633 
Q 3022 1394 3022 966 
Q 3022 478 2636 193 
Q 2250 -91 1575 -91 
Q 1294 -91 989 -36 
Q 684 19 347 128 
L 347 722 
Q 666 556 975 473 
Q 1284 391 1588 391 
Q 1994 391 2212 530 
Q 2431 669 2431 922 
Q 2431 1156 2273 1281 
Q 2116 1406 1581 1522 
L 1381 1569 
Q 847 1681 609 1914 
Q 372 2147 372 2553 
Q 372 3047 722 3315 
Q 1072 3584 1716 3584 
Q 2034 3584 2315 3537 
Q 2597 3491 2834 3397 
z
" transform="scale(0.015625)"/>
       <path id="DejaVuSans-29" d="M 513 4856 
L 1013 4856 
Q 1481 4119 1714 3412 
Q 1947 2706 1947 2009 
Q 1947 1309 1714 600 
Q 1481 -109 1013 -844 
L 513 -844 
Q 928 -128 1133 580 
Q 1338 1288 1338 2009 
Q 1338 2731 1133 3434 
Q 928 4138 513 4856 
z
" transform="scale(0.015625)"/>
      </defs>
      <use xlink:href="#DejaVuSans-74"/>
      <use xlink:href="#DejaVuSans-69" x="39.208984"/>
      <use xlink:href="#DejaVuSans-6d" x="66.992188"/>
      <use xlink:href="#DejaVuSans-65" x="164.404297"/>
      <use xlink:href="#DejaVuSans-28" x="225.927734"/>
      <use xlink:href="#DejaVuSans-73" x="264.941406"/>
      <use xlink:href="#DejaVuSans-29" x="317.041016"/>
     </g>
    </g>
   </g>
   <g id="matplotlib.axis_2">
    <g id="ytick_1">
     <g id="line2d_17">
      <defs>
       <path id="mb4aa8b6155" d="M 0 0 
L -3.5 0 
" style="stroke: #000000; stroke-width: 0.8"/>
      </defs>
      <g>
       <use xlink:href="#mb4aa8b6155" x="57.6" y="304.945689" style="stroke: #000000; stroke-width: 0.8"/>
      </g>
     </g>
     <g id="text_18">
      <!-- −0.05 -->
      <g transform="translate(19.954687 308.744908)scale(0.1 -0.1)">
       <defs>
        <path id="DejaVuSans-2212" d="M 678 2272 
L 4684 2272 
L 4684 1741 
L 678 1741 
L 678 2272 
z
" transform="scale(0.015625)"/>
       </defs>
       <use xlink:href="#DejaVuSans-2212"/>
       <use xlink:href="#DejaVuSans-30" x="83.789062"/>
       <use xlink:href="#DejaVuSans-2e" x="147.412109"/>
       <use xlink:href="#DejaVuSans-30" x="179.199219"/>
       <use xlink:href="#DejaVuSans-35" x="242.822266"/>
      </g>
     </g>
    </g>
    <g id="ytick_2">
     <g id="line2d_18">
      <g>
       <use xlink:href="#mb4aa8b6155" x="57.6" y="271.428241" style="stroke: #000000; stroke-width: 0.8"/>
      </g>
     </g>
     <g id="text_19">
      <!-- −0.04 -->
      <g transform="translate(19.954687 275.227459)scale(0.1 -0.1)">
       <use xlink:href="#DejaVuSans-2212"/>
       <use xlink:href="#DejaVuSans-30" x="83.789062"/>
       <use xlink:href="#DejaVuSans-2e" x="147.412109"/>
       <use xlink:href="#DejaVuSans-30" x="179.199219"/>
       <use xlink:href="#DejaVuSans-34" x="242.822266"/>
      </g>
     </g>
    </g>
    <g id="ytick_3">
     <g id="line2d_19">
      <g>
       <use xlink:href="#mb4aa8b6155" x="57.6" y="237.910792" style="stroke: #000000; stroke-width: 0.8"/>
      </g>
     </g>
     <g id="text_20">
      <!-- −0.03 -->
      <g transform="translate(19.954687 241.710011)scale(0.1 -0.1)">
       <use xlink:href="#DejaVuSans-2212"/>
       <use xlink:href="#DejaVuSans-30" x="83.789062"/>
       <use xlink:href="#DejaVuSans-2e" x="147.412109"/>
       <use xlink:href="#DejaVuSans-30" x="179.199219"/>
       <use xlink:href="#DejaVuSans-33" x="242.822266"/>
      </g>
     </g>
    </g>
    <g id="ytick_4">
     <g id="line2d_20">
      <g>
       <use xlink:href="#mb4aa8b6155" x="57.6" y="204.393343" style="stroke: #000000; stroke-width: 0.8"/>
      </g>
     </g>
     <g id="text_21">
      <!-- −0.02 -->
      <g transform="translate(19.954687 208.192562)scale(0.1 -0.1)">
       <use xlink:href="#DejaVuSans-2212"/>
       <use xlink:href="#DejaVuSans-30" x="83.789062"/>
       <use xlink:href="#DejaVuSans-2e" x="147.412109"/>
       <use xlink:href="#DejaVuSans-30" x="179.199219"/>
       <use xlink:href="#DejaVuSans-32" x="242.822266"/>
      </g>
     </g>
    </g>
    <g id="ytick_5">
     <g id="line2d_21">
      <g>
       <use xlink:href="#mb4aa8b6155" x="57.6" y="170.875894" style="stroke: #000000; stroke-width: 0.8"/>
      </g>
     </g>
     <g id="text_22">
      <!-- −0.01 -->
      <g transform="translate(19.954687 174.675113)scale(0.1 -0.1)">
       <use xlink:href="#DejaVuSans-2212"/>
       <use xlink:href="#DejaVuSans-30" x="83.789062"/>
       <use xlink:href="#DejaVuSans-2e" x="147.412109"/>
       <use xlink:href="#DejaVuSans-30" x="179.199219"/>
       <use xlink:href="#DejaVuSans-31" x="242.822266"/>
      </g>
     </g>
    </g>
    <g id="ytick_6">
     <g id="line2d_22">
      <g>
       <use xlink:href="#mb4aa8b6155" x="57.6" y="137.358445" style="stroke: #000000; stroke-width: 0.8"/>
      </g>
     </g>
     <g id="text_23">
      <!-- 0.00 -->
      <g transform="translate(28.334375 141.157664)scale(0.1 -0.1)">
       <use xlink:href="#DejaVuSans-30"/>
       <use xlink:href="#DejaVuSans-2e" x="63.623047"/>
       <use xlink:href="#DejaVuSans-30" x="95.410156"/>
       <use xlink:href="#DejaVuSans-30" x="159.033203"/>
      </g>
     </g>
    </g>
    <g id="ytick_7">
     <g id="line2d_23">
      <g>
       <use xlink:href="#mb4aa8b6155" x="57.6" y="103.840997" style="stroke: #000000; stroke-width: 0.8"/>
      </g>
     </g>
     <g id="text_24">
      <!-- 0.01 -->
      <g transform="translate(28.334375 107.640215)scale(0.1 -0.1)">
       <use xlink:href="#DejaVuSans-30"/>
       <use xlink:href="#DejaVuSans-2e" x="63.623047"/>
       <use xlink:href="#DejaVuSans-30" x="95.410156"/>
       <use xlink:href="#DejaVuSans-31" x="159.033203"/>
      </g>
     </g>
    </g>
    <g id="ytick_8">
     <g id="line2d_24">
      <g>
       <use xlink:href="#mb4aa8b6155" x="57.6" y="70.323548" style="stroke: #000000; stroke-width: 0.8"/>
      </g>
     </g>
     <g id="text_25">
      <!-- 0.02 -->
      <g transform="translate(28.334375 74.122767)scale(0.1 -0.1)">
       <use xlink:href="#DejaVuSans-30"/>
       <use xlink:href="#DejaVuSans-2e" x="63.623047"/>
       <use xlink:href="#DejaVuSans-30" x="95.410156"/>
       <use xlink:href="#DejaVuSans-32" x="159.033203"/>
      </g>
     </g>
    </g>
    <g id="text_26">
     <!-- $e_f(t)$ -->
     <g transform="translate(13.875 184.878)rotate(-90)scale(0.1 -0.1)">
      <defs>
       <path id="DejaVuSans-Oblique-65" d="M 3078 2063 
Q 3088 2113 3092 2166 
Q 3097 2219 3097 2272 
Q 3097 2653 2873 2875 
Q 2650 3097 2266 3097 
Q 1838 3097 1509 2826 
Q 1181 2556 1013 2059 
L 3078 2063 
z
M 3578 1613 
L 903 1613 
Q 884 1494 878 1425 
Q 872 1356 872 1306 
Q 872 872 1139 634 
Q 1406 397 1894 397 
Q 2269 397 2603 481 
Q 2938 566 3225 728 
L 3116 159 
Q 2806 34 2476 -28 
Q 2147 -91 1806 -91 
Q 1078 -91 686 257 
Q 294 606 294 1247 
Q 294 1794 489 2264 
Q 684 2734 1063 3103 
Q 1306 3334 1642 3459 
Q 1978 3584 2356 3584 
Q 2950 3584 3301 3228 
Q 3653 2872 3653 2272 
Q 3653 2128 3634 1964 
Q 3616 1800 3578 1613 
z
" transform="scale(0.015625)"/>
       <path id="DejaVuSans-Oblique-66" d="M 3059 4863 
L 2969 4384 
L 2419 4384 
Q 2106 4384 1964 4261 
Q 1822 4138 1753 3809 
L 1691 3500 
L 2638 3500 
L 2553 3053 
L 1606 3053 
L 1013 0 
L 434 0 
L 1031 3053 
L 481 3053 
L 563 3500 
L 1113 3500 
L 1159 3744 
Q 1278 4363 1576 4613 
Q 1875 4863 2516 4863 
L 3059 4863 
z
" transform="scale(0.015625)"/>
       <path id="DejaVuSans-Oblique-74" d="M 2706 3500 
L 2619 3053 
L 1472 3053 
L 1100 1153 
Q 1081 1047 1072 975 
Q 1063 903 1063 863 
Q 1063 663 1183 572 
Q 1303 481 1569 481 
L 2150 481 
L 2053 0 
L 1503 0 
Q 991 0 739 200 
Q 488 400 488 806 
Q 488 878 497 964 
Q 506 1050 525 1153 
L 897 3053 
L 409 3053 
L 500 3500 
L 978 3500 
L 1172 4494 
L 1747 4494 
L 1556 3500 
L 2706 3500 
z
" transform="scale(0.015625)"/>
      </defs>
      <use xlink:href="#DejaVuSans-Oblique-65" transform="translate(0 0.125)"/>
      <use xlink:href="#DejaVuSans-Oblique-66" transform="translate(61.523438 -16.28125)scale(0.7)"/>
      <use xlink:href="#DejaVuSans-28" transform="translate(88.901367 0.125)"/>
      <use xlink:href="#DejaVuSans-Oblique-74" transform="translate(127.915039 0.125)"/>
      <use xlink:href="#DejaVuSans-29" transform="translate(167.124023 0.125)"/>
     </g>
    </g>
   </g>
   <g id="line2d_25">
    <path d="M 73.832727 137.358445 
L 398.487273 137.358445 
L 398.487273 137.358445 
" clip-path="url(#pcec57f69d3)" style="fill: none; stroke: #1f77b4; stroke-width: 1.5; stroke-linecap: square"/>
   </g>
   <g id="line2d_26">
    <path d="M 73.832727 137.358445 
L 74.554182 103.675222 
L 75.275636 77.737492 
L 75.997091 61.807634 
L 76.718545 54.774068 
L 77.44 54.897856 
L 78.161455 60.217004 
L 78.882909 68.814234 
L 81.047273 98.920058 
L 81.768727 106.966147 
L 82.490182 113.196874 
L 83.211636 117.613192 
L 83.933091 120.473175 
L 84.654545 122.218918 
L 86.097455 124.583544 
L 86.818909 126.315539 
L 87.540364 129.041281 
L 88.261818 133.083674 
L 88.983273 138.620515 
L 89.704727 145.679955 
L 91.147636 163.788558 
L 94.754909 216.254768 
L 95.476364 224.700346 
L 96.197818 231.617604 
L 96.919273 236.752642 
L 97.640727 239.920914 
L 98.362182 241.008778 
L 99.083636 239.972522 
L 99.805091 236.835383 
L 100.526545 231.683196 
L 101.248 224.659075 
L 101.969455 215.957189 
L 103.412364 194.508828 
L 105.576727 156.679149 
L 107.741091 119.629699 
L 109.184 99.081877 
L 109.905455 90.665621 
L 110.626909 83.660373 
L 111.348364 78.141771 
L 112.069818 74.145679 
L 112.791273 71.672685 
L 113.512727 70.69321 
L 114.234182 71.152557 
L 114.955636 72.975617 
L 115.677091 76.070711 
L 116.398545 80.332749 
L 117.12 85.645607 
L 118.562909 98.913477 
L 120.005818 114.781917 
L 125.056 173.716386 
L 126.498909 186.910756 
L 127.220364 192.335894 
L 127.941818 196.882101 
L 128.663273 200.498571 
L 129.384727 203.152902 
L 130.106182 204.831213 
L 130.827636 205.537506 
L 131.549091 205.292708 
L 132.270545 204.133261 
L 132.992 202.109374 
L 133.713455 199.283145 
L 134.434909 195.726475 
L 135.877818 186.743957 
L 137.320727 175.846098 
L 139.485091 157.430983 
L 143.092364 126.284426 
L 145.256727 109.776843 
L 146.699636 100.249686 
L 148.142545 92.066051 
L 149.585455 85.290272 
L 151.028364 79.939884 
L 152.471273 75.998423 
L 153.192727 74.544063 
L 153.914182 73.42491 
L 154.635636 72.6328 
L 155.357091 72.158523 
L 156.078545 71.991941 
L 156.8 72.12186 
L 157.521455 72.536306 
L 158.242909 73.222469 
L 158.964364 74.166823 
L 159.685818 75.354977 
L 161.128727 78.402892 
L 162.571636 82.241917 
L 164.014545 86.743484 
L 166.178909 94.455383 
L 169.064727 105.876797 
L 175.557818 132.123029 
L 177.722182 140.005093 
L 179.886545 147.102691 
L 182.050909 153.285911 
L 183.493818 156.860819 
L 184.936727 159.986135 
L 186.379636 162.663115 
L 187.822545 164.902278 
L 189.265455 166.722461 
L 190.708364 168.150224 
L 192.151273 169.217779 
L 193.594182 169.962458 
L 195.037091 170.424894 
L 196.48 170.647959 
L 197.922909 170.675311 
L 200.087273 170.442834 
L 202.973091 169.832053 
L 208.744727 168.531175 
L 211.630545 168.16535 
L 214.516364 168.07513 
L 217.402182 168.245781 
L 221.009455 168.740556 
L 226.781091 169.841622 
L 232.552727 170.890467 
L 237.602909 171.57951 
L 242.653091 172.053037 
L 247.703273 172.333517 
L 252.032 172.376709 
L 255.639273 172.198172 
L 258.525091 171.857292 
L 261.410909 171.294245 
L 264.296727 170.471946 
L 267.182545 169.364413 
L 270.068364 167.96129 
L 272.954182 166.272384 
L 275.84 164.328725 
L 279.447273 161.627596 
L 288.104727 154.950013 
L 290.990545 153.102019 
L 293.154909 151.998518 
L 295.319273 151.218967 
L 296.762182 150.918018 
L 298.205091 150.820626 
L 299.648 150.952354 
L 301.090909 151.34026 
L 302.533818 152.012973 
L 303.976727 153.000402 
L 305.419636 154.334901 
L 306.862545 156.05084 
L 308.305455 158.185828 
L 309.748364 160.780894 
L 311.191273 163.881188 
L 312.634182 167.53807 
L 314.077091 171.808652 
L 315.52 176.75894 
L 316.962909 182.465372 
L 318.405818 189.017274 
L 319.848727 196.520085 
L 321.291636 205.100621 
L 322.734545 214.740683 
L 323.456 218.430437 
L 324.177455 221.053963 
L 324.898909 222.70755 
L 325.620364 223.648519 
L 327.063273 224.643331 
L 328.506182 225.309538 
L 329.949091 225.711616 
L 332.113455 226.082756 
L 336.442182 226.525266 
L 341.492364 226.827521 
L 345.821091 226.895073 
L 349.428364 226.765709 
L 353.035636 226.415467 
L 355.921455 225.938519 
L 358.807273 225.25141 
L 361.693091 224.318792 
L 364.578909 223.101185 
L 366.743273 221.975582 
L 368.907636 220.646176 
L 371.072 219.092489 
L 373.236364 217.292714 
L 375.400727 215.224097 
L 377.565091 212.862326 
L 379.729455 210.182294 
L 381.893818 207.157606 
L 384.058182 203.761237 
L 386.222545 199.965064 
L 388.386909 195.740296 
L 390.551273 191.057499 
L 392.715636 185.887147 
L 394.88 180.199601 
L 397.044364 173.965644 
L 398.487273 169.491586 
L 398.487273 169.491586 
" clip-path="url(#pcec57f69d3)" style="fill: none; stroke: #ff7f0e; stroke-width: 1.5; stroke-linecap: square"/>
   </g>
   <g id="line2d_27">
    <path d="M 73.832727 137.358445 
L 74.554182 108.075098 
L 75.275636 96.005494 
L 75.997091 92.817535 
L 76.718545 95.868984 
L 77.44 103.065633 
L 79.604364 130.679817 
L 80.325818 137.546111 
L 81.047273 142.223478 
L 81.768727 144.627374 
L 82.490182 144.871099 
L 83.211636 143.183585 
L 83.933091 139.852102 
L 84.654545 135.181326 
L 86.097455 122.962854 
L 88.261818 100.879299 
L 90.426182 78.646296 
L 91.869091 66.158692 
L 92.590545 61.201974 
L 93.312 57.34876 
L 94.033455 54.762815 
L 94.754909 53.568 
L 95.476364 53.84213 
L 96.197818 55.613582 
L 96.919273 58.860481 
L 97.640727 63.51265 
L 98.362182 69.455692 
L 99.805091 84.571921 
L 101.969455 112.259449 
L 104.133818 140.60496 
L 105.576727 157.198123 
L 107.019636 170.69303 
L 107.741091 176.131275 
L 108.462545 180.701925 
L 109.184 184.459511 
L 109.905455 187.494242 
L 110.626909 189.925648 
L 112.069818 193.551887 
L 114.234182 198.146069 
L 115.677091 202.099501 
L 117.12 207.409023 
L 118.562909 214.10904 
L 120.727273 225.934066 
L 122.891636 237.988 
L 124.334545 244.998348 
L 125.777455 250.473808 
L 126.498909 252.481975 
L 127.220364 253.939042 
L 127.941818 254.807629 
L 128.663273 255.059048 
L 129.384727 254.673357 
L 130.106182 253.638817 
L 130.827636 251.951752 
L 131.549091 249.616204 
L 132.270545 246.643477 
L 132.992 243.05215 
L 134.434909 234.120481 
L 135.877818 223.095793 
L 137.320727 210.33906 
L 139.485091 188.909193 
L 145.256727 129.813023 
L 146.699636 117.010911 
L 148.142545 105.665981 
L 149.585455 95.965363 
L 151.028364 88.008533 
L 152.471273 81.816751 
L 153.192727 79.371216 
L 153.914182 77.346575 
L 154.635636 75.730059 
L 155.357091 74.506877 
L 156.078545 73.6607 
L 156.8 73.174226 
L 157.521455 73.029277 
L 158.242909 73.207287 
L 158.964364 73.689435 
L 159.685818 74.456963 
L 160.407273 75.491159 
L 161.128727 76.773507 
L 162.571636 80.009898 
L 164.014545 84.023274 
L 165.457455 88.674387 
L 167.621818 96.550608 
L 171.229091 110.986551 
L 174.836364 125.402414 
L 177.000727 133.344867 
L 179.165091 140.404854 
L 180.608 144.515917 
L 182.050909 148.098872 
L 183.493818 151.12696 
L 184.936727 153.588458 
L 186.379636 155.486363 
L 187.822545 156.837076 
L 189.265455 157.669112 
L 190.708364 158.020799 
L 192.151273 157.938764 
L 193.594182 157.475236 
L 195.037091 156.685951 
L 196.48 155.628192 
L 198.644364 153.660732 
L 201.530182 150.599259 
L 208.744727 142.709995 
L 211.630545 139.954199 
L 214.516364 137.528005 
L 217.402182 135.413789 
L 220.288 133.564352 
L 223.895273 131.54531 
L 227.502545 129.780991 
L 231.109818 128.242869 
L 234.717091 126.946566 
L 237.602909 126.110406 
L 240.488727 125.476009 
L 243.374545 125.057395 
L 246.260364 124.856808 
L 249.146182 124.862703 
L 252.753455 125.121296 
L 257.082182 125.700345 
L 272.954182 128.121809 
L 279.447273 128.68402 
L 288.104727 129.411722 
L 292.433455 130.018779 
L 296.040727 130.754443 
L 299.648 131.74545 
L 303.255273 133.005992 
L 306.862545 134.502231 
L 314.077091 137.631033 
L 316.241455 138.301069 
L 317.684364 138.559131 
L 319.127273 138.593409 
L 320.570182 138.321567 
L 322.013091 137.638239 
L 322.734545 137.187103 
L 323.456 137.374754 
L 324.177455 138.24647 
L 324.898909 139.327445 
L 325.620364 140.038376 
L 327.063273 140.851433 
L 328.506182 141.344191 
L 330.670545 141.812298 
L 342.935273 144.048388 
L 347.264 145.138078 
L 351.592727 146.46244 
L 355.2 147.784571 
L 358.807273 149.348099 
L 361.693091 150.806011 
L 364.578909 152.480297 
L 367.464727 154.405818 
L 370.350545 156.622422 
L 373.236364 159.175448 
L 376.122182 162.115881 
L 378.286545 164.609603 
L 380.450909 167.379462 
L 382.615273 170.45371 
L 384.779636 173.862601 
L 386.944 177.638269 
L 389.108364 181.814811 
L 391.272727 186.427695 
L 393.437091 191.514114 
L 395.601455 197.112643 
L 397.765818 203.263156 
L 398.487273 205.442842 
L 398.487273 205.442842 
" clip-path="url(#pcec57f69d3)" style="fill: none; stroke: #2ca02c; stroke-width: 1.5; stroke-linecap: square"/>
   </g>
   <g id="line2d_28">
    <path d="M 73.832727 137.358445 
L 74.554182 88.874021 
L 75.275636 66.458073 
L 75.997091 58.167688 
L 76.718545 59.585362 
L 77.44 68.067782 
L 78.161455 81.394874 
L 79.604364 115.174534 
L 81.768727 165.705818 
L 83.211636 193.15215 
L 84.654545 214.831593 
L 86.097455 231.159349 
L 86.818909 237.413302 
L 87.540364 242.401815 
L 88.261818 246.109916 
L 88.983273 248.51636 
L 89.704727 249.602292 
L 90.426182 249.35873 
L 91.147636 247.792783 
L 91.869091 244.932046 
L 92.590545 240.82768 
L 93.312 235.556162 
L 94.754909 221.98595 
L 96.197818 205.385822 
L 100.526545 152.414712 
L 101.969455 138.55273 
L 102.690909 132.922185 
L 103.412364 128.231977 
L 104.133818 124.494044 
L 104.855273 121.687192 
L 105.576727 119.76033 
L 106.298182 118.636516 
L 107.019636 118.217739 
L 107.741091 118.390317 
L 108.462545 119.030222 
L 109.184 120.008144 
L 112.069818 124.802934 
L 112.791273 125.687391 
L 113.512727 126.296625 
L 114.234182 126.602592 
L 114.955636 126.610461 
L 115.677091 126.359338 
L 117.12 125.384825 
L 118.562909 124.474345 
L 119.284364 124.317928 
L 120.005818 124.486275 
L 120.727273 125.046733 
L 121.448727 126.040253 
L 122.170182 127.480459 
L 122.891636 129.355191 
L 124.334545 134.250278 
L 125.777455 140.250627 
L 129.384727 155.926967 
L 130.827636 160.91452 
L 131.549091 162.909967 
L 132.270545 164.527331 
L 132.992 165.744217 
L 133.713455 166.547619 
L 134.434909 166.932968 
L 135.156364 166.903398 
L 135.877818 166.468922 
L 136.599273 165.645392 
L 137.320727 164.453605 
L 138.042182 162.918555 
L 139.485091 158.934339 
L 140.928 153.945391 
L 143.092364 145.181488 
L 148.142545 123.567076 
L 149.585455 118.206718 
L 151.028364 113.571885 
L 152.471273 109.795713 
L 153.914182 106.96332 
L 154.635636 105.91397 
L 155.357091 105.109862 
L 156.078545 104.547942 
L 156.8 104.222377 
L 157.521455 104.124792 
L 158.242909 104.244774 
L 158.964364 104.56997 
L 159.685818 105.086341 
L 160.407273 105.778747 
L 161.850182 107.626868 
L 163.293091 109.981002 
L 165.457455 114.171783 
L 169.064727 121.934636 
L 171.950545 128.014339 
L 174.114909 132.156624 
L 176.279273 135.780906 
L 177.722182 137.859974 
L 179.165091 139.644738 
L 180.608 141.120635 
L 182.050909 142.278456 
L 183.493818 143.114037 
L 184.936727 143.628841 
L 186.379636 143.829124 
L 187.822545 143.726601 
L 189.265455 143.337872 
L 190.708364 142.683958 
L 192.151273 141.789941 
L 193.594182 140.683966 
L 195.758545 138.694426 
L 197.922909 136.402786 
L 201.530182 132.189372 
L 209.466182 122.771343 
L 213.073455 118.847742 
L 216.680727 115.208621 
L 221.009455 111.179438 
L 225.338182 107.47045 
L 229.666909 104.055793 
L 233.995636 100.948119 
L 237.602909 98.63028 
L 241.210182 96.607991 
L 244.096 95.232974 
L 246.981818 94.08973 
L 249.867636 93.181884 
L 252.753455 92.50156 
L 255.639273 92.034042 
L 258.525091 91.762492 
L 262.132364 91.676215 
L 265.739636 91.855666 
L 269.346909 92.297323 
L 272.954182 93.009578 
L 275.84 93.78764 
L 278.725818 94.767981 
L 281.611636 95.974358 
L 284.497455 97.437576 
L 287.383273 99.196118 
L 289.547636 100.735931 
L 291.712 102.48834 
L 293.876364 104.477141 
L 296.040727 106.726644 
L 298.205091 109.26287 
L 300.369455 112.113584 
L 302.533818 115.308177 
L 304.698182 118.877803 
L 306.862545 122.856503 
L 309.026909 127.283077 
L 311.191273 132.200299 
L 313.355636 137.658303 
L 315.52 143.716984 
L 317.684364 150.449736 
L 319.848727 157.949765 
L 322.013091 166.339161 
L 323.456 172.496614 
L 324.177455 174.42273 
L 324.898909 175.681894 
L 325.620364 176.291795 
L 327.063273 176.643293 
L 328.506182 176.706782 
L 331.392 176.517944 
L 334.999273 176.040321 
L 338.606545 175.36061 
L 342.213818 174.442172 
L 345.099636 173.494815 
L 347.985455 172.319052 
L 350.871273 170.876655 
L 353.757091 169.12652 
L 355.921455 167.585745 
L 358.085818 165.82761 
L 360.250182 163.831354 
L 362.414545 161.576252 
L 364.578909 159.039402 
L 366.743273 156.197648 
L 368.907636 153.027079 
L 371.072 149.502533 
L 373.236364 145.597389 
L 375.400727 141.285441 
L 377.565091 136.538405 
L 379.729455 131.328226 
L 381.893818 125.625255 
L 384.058182 119.400142 
L 386.222545 112.622811 
L 388.386909 105.262573 
L 390.551273 97.288755 
L 393.437091 85.650456 
L 396.322909 72.796228 
L 398.487273 62.316465 
L 398.487273 62.316465 
" clip-path="url(#pcec57f69d3)" style="fill: none; stroke: #d62728; stroke-width: 1.5; stroke-linecap: square"/>
   </g>
   <g id="line2d_29">
    <path d="M 73.832727 137.358445 
L 74.554182 105.318175 
L 75.275636 81.949711 
L 75.997091 70.315661 
L 76.718545 68.360412 
L 77.44 73.798764 
L 78.161455 84.445959 
L 79.604364 113.958459 
L 81.768727 160.704565 
L 83.211636 187.327627 
L 84.654545 210.042536 
L 86.097455 229.997768 
L 88.261818 256.226847 
L 89.704727 271.054366 
L 91.147636 283.022906 
L 91.869091 287.689479 
L 92.590545 291.348619 
L 93.312 293.911694 
L 94.033455 295.310515 
L 94.754909 295.488 
L 95.476364 294.401741 
L 96.197818 292.027566 
L 96.919273 288.362886 
L 97.640727 283.4295 
L 98.362182 277.27639 
L 99.805091 261.652265 
L 101.248 242.469813 
L 106.298182 170.094015 
L 107.741091 155.12219 
L 108.462545 149.481759 
L 109.184 145.204985 
L 109.905455 142.346487 
L 110.626909 140.924389 
L 111.348364 140.921544 
L 112.069818 142.287307 
L 112.791273 144.93974 
L 113.512727 148.76764 
L 114.234182 153.633324 
L 115.677091 165.813958 
L 118.562909 194.616153 
L 120.005818 208.266579 
L 121.448727 219.902481 
L 122.891636 228.869316 
L 123.613091 232.235814 
L 124.334545 234.825355 
L 125.056 236.627377 
L 125.777455 237.640519 
L 126.498909 237.872115 
L 127.220364 237.338201 
L 127.941818 236.063952 
L 128.663273 234.08372 
L 129.384727 231.441198 
L 130.106182 228.188809 
L 131.549091 220.101829 
L 132.992 210.372853 
L 135.156364 194.002421 
L 138.763636 166.395058 
L 140.928 151.613837 
L 143.092364 138.777839 
L 144.535273 131.29085 
L 145.978182 124.583201 
L 147.421091 118.57771 
L 148.864 113.213453 
L 150.306909 108.458829 
L 151.749818 104.316121 
L 153.192727 100.816307 
L 154.635636 98.009862 
L 156.078545 95.953944 
L 156.8 95.22394 
L 157.521455 94.699518 
L 158.242909 94.384322 
L 158.964364 94.280358 
L 159.685818 94.387934 
L 160.407273 94.705636 
L 161.128727 95.230048 
L 161.850182 95.956034 
L 162.571636 96.876711 
L 164.014545 99.266579 
L 165.457455 102.31502 
L 166.900364 105.919847 
L 169.064727 112.120681 
L 171.950545 121.252315 
L 176.279273 135.04798 
L 178.443636 141.353536 
L 180.608 146.988662 
L 182.772364 151.829697 
L 184.215273 154.582586 
L 185.658182 156.948597 
L 187.101091 158.932043 
L 188.544 160.545396 
L 189.986909 161.8079 
L 191.429818 162.744555 
L 192.872727 163.384211 
L 194.315636 163.759228 
L 195.758545 163.90388 
L 197.201455 163.853125 
L 199.365818 163.48666 
L 201.530182 162.871226 
L 205.137455 161.557318 
L 211.630545 159.146244 
L 216.680727 157.571004 
L 231.109818 153.292607 
L 237.602909 151.078249 
L 243.374545 148.882314 
L 255.639273 143.866598 
L 260.689455 141.663747 
L 264.296727 139.891956 
L 267.904 137.899801 
L 272.232727 135.251524 
L 279.447273 130.518971 
L 285.940364 126.070459 
L 290.269091 122.853629 
L 293.876364 119.921015 
L 298.205091 116.085263 
L 303.976727 110.604282 
L 318.405818 96.511057 
L 321.291636 93.291951 
L 323.456 90.546761 
L 324.177455 90.166973 
L 324.898909 90.34487 
L 325.620364 90.925387 
L 329.949091 93.099915 
L 335.720727 95.41649 
L 338.606545 96.7969 
L 341.492364 98.395504 
L 344.378182 100.249577 
L 347.264 102.400021 
L 350.149818 104.892277 
L 352.314182 107.016896 
L 354.478545 109.387502 
L 356.642909 112.031818 
L 358.807273 114.979083 
L 360.971636 118.262286 
L 363.136 121.917484 
L 365.300364 125.983875 
L 367.464727 130.504265 
L 369.629091 135.525215 
L 371.793455 141.097197 
L 373.957818 147.274273 
L 376.122182 154.115142 
L 378.286545 161.682308 
L 380.450909 170.042329 
L 382.615273 179.265832 
L 384.779636 189.427308 
L 386.944 200.604772 
L 389.108364 212.87902 
L 391.272727 226.333788 
L 393.437091 241.054591 
L 395.601455 257.128348 
L 397.765818 274.641923 
L 398.487273 280.81451 
L 398.487273 280.81451 
" clip-path="url(#pcec57f69d3)" style="fill: none; stroke: #9467bd; stroke-width: 1.5; stroke-linecap: square"/>
   </g>
   <g id="patch_3">
    <path d="M 57.6 307.584 
L 57.6 41.472 
" style="fill: none; stroke: #000000; stroke-width: 0.8; stroke-linejoin: miter; stroke-linecap: square"/>
   </g>
   <g id="patch_4">
    <path d="M 414.72 307.584 
L 414.72 41.472 
" style="fill: none; stroke: #000000; stroke-width: 0.8; stroke-linejoin: miter; stroke-linecap: square"/>
   </g>
   <g id="patch_5">
    <path d="M 57.6 307.584 
L 414.72 307.584 
" style="fill: none; stroke: #000000; stroke-width: 0.8; stroke-linejoin: miter; stroke-linecap: square"/>
   </g>
   <g id="patch_6">
    <path d="M 57.6 41.472 
L 414.72 41.472 
" style="fill: none; stroke: #000000; stroke-width: 0.8; stroke-linejoin: miter; stroke-linecap: square"/>
   </g>
   <g id="legend_1">
    <g id="patch_7">
     <path d="M 213.46 302.584 
L 258.86 302.584 
Q 260.86 302.584 260.86 300.584 
L 260.86 228.193375 
Q 260.86 226.193375 258.86 226.193375 
L 213.46 226.193375 
Q 211.46 226.193375 211.46 228.193375 
L 211.46 300.584 
Q 211.46 302.584 213.46 302.584 
z
" style="fill: #ffffff; opacity: 0.8; stroke: #cccccc; stroke-linejoin: miter"/>
    </g>
    <g id="line2d_30">
     <path d="M 215.46 234.291812 
L 225.46 234.291812 
L 235.46 234.291812 
" style="fill: none; stroke: #1f77b4; stroke-width: 1.5; stroke-linecap: square"/>
    </g>
    <g id="text_27">
     <!-- $M_1$ -->
     <g transform="translate(243.46 237.791812)scale(0.1 -0.1)">
      <defs>
       <path id="DejaVuSans-Oblique-4d" d="M 1081 4666 
L 2028 4666 
L 2572 1522 
L 4378 4666 
L 5350 4666 
L 4441 0 
L 3828 0 
L 4622 4091 
L 2791 897 
L 2175 897 
L 1581 4103 
L 788 0 
L 172 0 
L 1081 4666 
z
" transform="scale(0.015625)"/>
      </defs>
      <use xlink:href="#DejaVuSans-Oblique-4d" transform="translate(0 0.09375)"/>
      <use xlink:href="#DejaVuSans-31" transform="translate(86.279297 -16.3125)scale(0.7)"/>
     </g>
    </g>
    <g id="line2d_31">
     <path d="M 215.46 248.969937 
L 225.46 248.969937 
L 235.46 248.969937 
" style="fill: none; stroke: #ff7f0e; stroke-width: 1.5; stroke-linecap: square"/>
    </g>
    <g id="text_28">
     <!-- $M_2$ -->
     <g transform="translate(243.46 252.469937)scale(0.1 -0.1)">
      <use xlink:href="#DejaVuSans-Oblique-4d" transform="translate(0 0.09375)"/>
      <use xlink:href="#DejaVuSans-32" transform="translate(86.279297 -16.3125)scale(0.7)"/>
     </g>
    </g>
    <g id="line2d_32">
     <path d="M 215.46 263.648062 
L 225.46 263.648062 
L 235.46 263.648062 
" style="fill: none; stroke: #2ca02c; stroke-width: 1.5; stroke-linecap: square"/>
    </g>
    <g id="text_29">
     <!-- $M_3$ -->
     <g transform="translate(243.46 267.148062)scale(0.1 -0.1)">
      <use xlink:href="#DejaVuSans-Oblique-4d" transform="translate(0 0.09375)"/>
      <use xlink:href="#DejaVuSans-33" transform="translate(86.279297 -16.3125)scale(0.7)"/>
     </g>
    </g>
    <g id="line2d_33">
     <path d="M 215.46 278.326188 
L 225.46 278.326188 
L 235.46 278.326188 
" style="fill: none; stroke: #d62728; stroke-width: 1.5; stroke-linecap: square"/>
    </g>
    <g id="text_30">
     <!-- $M_4$ -->
     <g transform="translate(243.46 281.826188)scale(0.1 -0.1)">
      <use xlink:href="#DejaVuSans-Oblique-4d" transform="translate(0 0.09375)"/>
      <use xlink:href="#DejaVuSans-34" transform="translate(86.279297 -16.3125)scale(0.7)"/>
     </g>
    </g>
    <g id="line2d_34">
     <path d="M 215.46 293.004312 
L 225.46 293.004312 
L 235.46 293.004312 
" style="fill: none; stroke: #9467bd; stroke-width: 1.5; stroke-linecap: square"/>
    </g>
    <g id="text_31">
     <!-- $M_5$ -->
     <g transform="translate(243.46 296.504312)scale(0.1 -0.1)">
      <use xlink:href="#DejaVuSans-Oblique-4d" transform="translate(0 0.09375)"/>
      <use xlink:href="#DejaVuSans-35" transform="translate(86.279297 -16.3125)scale(0.7)"/>
     </g>
    </g>
   </g>
  </g>
 </g>
 <defs>
  <clipPath id="pcec57f69d3">
   <rect x="57.6" y="41.472" width="357.12" height="266.112"/>
  </clipPath>
 </defs>
</svg>
