<?xml version="1.0" encoding="utf-8" standalone="no"?>
<!DOCTYPE svg PUBLIC "-//W3C//DTD SVG 1.1//EN"
  "http://www.w3.org/Graphics/SVG/1.1/DTD/svg11.dtd">
<svg xmlns:xlink="http://www.w3.org/1999/xlink" width="576pt" height="576pt" viewBox="0 0 576 576" xmlns="http://www.w3.org/2000/svg" version="1.1">
 <metadata>
  <rdf:RDF xmlns:dc="http://purl.org/dc/elements/1.1/" xmlns:cc="http://creativecommons.org/ns#" xmlns:rdf="http://www.w3.org/1999/02/22-rdf-syntax-ns#">
   <cc:Work>
    <dc:type rdf:resource="http://purl.org/dc/dcmitype/StillImage"/>
    <dc:date>2022-08-07T16:15:01.448291</dc:date>
    <dc:format>image/svg+xml</dc:format>
    <dc:creator>
     <cc:Agent>
      <dc:title>Matplotlib v3.5.2, https://matplotlib.org/</dc:title>
     </cc:Agent>
    </dc:creator>
   </cc:Work>
  </rdf:RDF>
 </metadata>
 <defs>
  <style type="text/css">*{stroke-linejoin: round; stroke-linecap: butt}</style>
 </defs>
 <g id="figure_1">
  <g id="patch_1">
   <path d="M 0 576 
L 576 576 
L 576 0 
L 0 0 
z
" style="fill: #ffffff"/>
  </g>
  <g id="axes_1">
   <g id="patch_2">
    <path d="M 72 512.64 
L 518.4 512.64 
L 518.4 69.12 
L 72 69.12 
z
" style="fill: #ffffff"/>
   </g>
   <g id="PathCollection_1">
    <defs>
     <path id="mccf2f82594" d="M 0 -5 
L -1.12257 -1.545085 
L -4.755283 -1.545085 
L -1.816356 0.59017 
L -2.938926 4.045085 
L -0 1.90983 
L 2.938926 4.045085 
L 1.816356 0.59017 
L 4.755283 -1.545085 
L 1.12257 -1.545085 
z
" style="stroke: #cc1a1a; stroke-opacity: 0.5"/>
    </defs>
    <g clip-path="url(#pc4a4b94b6f)">
     <use xlink:href="#mccf2f82594" x="170.515239" y="292.252894" style="fill: #cc1a1a; fill-opacity: 0.5; stroke: #cc1a1a; stroke-opacity: 0.5"/>
    </g>
   </g>
   <g id="PathCollection_2">
    <defs>
     <path id="m7bb1039e7c" d="M -1.25 -1.875 
L -1.25 1.875 
L 5 0 
z
" style="stroke: #7b68ee"/>
    </defs>
    <g clip-path="url(#pc4a4b94b6f)"/>
   </g>
   <g id="PathCollection_3">
    <defs>
     <path id="md6a8b88d62" d="M -1.25 -1.875 
L -1.25 1.875 
L 5 0 
z
" style="stroke: #ffe4b5"/>
    </defs>
    <g clip-path="url(#pc4a4b94b6f)"/>
   </g>
   <g id="PathCollection_4">
    <defs>
     <path id="m58da72d6ab" d="M -1.25 -1.875 
L -1.25 1.875 
L 5 0 
z
" style="stroke: #c54f85"/>
    </defs>
    <g clip-path="url(#pc4a4b94b6f)"/>
   </g>
   <g id="PathCollection_5">
    <defs>
     <path id="m4154a19cda" d="M -1.25 -1.875 
L -1.25 1.875 
L 5 0 
z
" style="stroke: #00bfff"/>
    </defs>
    <g clip-path="url(#pc4a4b94b6f)"/>
   </g>
   <g id="PathCollection_6">
    <defs>
     <path id="m7c535fc62d" d="M -1.25 -1.875 
L -1.25 1.875 
L 5 0 
z
" style="stroke: #86f2c0"/>
    </defs>
    <g clip-path="url(#pc4a4b94b6f)"/>
   </g>
   <g id="matplotlib.axis_1">
    <g id="xtick_1">
     <g id="line2d_1">
      <defs>
       <path id="mccaaedb06c" d="M 0 0 
L 0 3.5 
" style="stroke: #000000; stroke-width: 0.8"/>
      </defs>
      <g>
       <use xlink:href="#mccaaedb06c" x="72" y="512.64" style="stroke: #000000; stroke-width: 0.8"/>
      </g>
     </g>
     <g id="text_1">
      <!-- 1 -->
      <g transform="translate(71.642027 531.486248)rotate(-45)scale(0.12 -0.12)">
       <defs>
        <path id="DejaVuSans-31" d="M 794 531 
L 1825 531 
L 1825 4091 
L 703 3866 
L 703 4441 
L 1819 4666 
L 2450 4666 
L 2450 531 
L 3481 531 
L 3481 0 
L 794 0 
L 794 531 
z
" transform="scale(0.015625)"/>
       </defs>
       <use xlink:href="#DejaVuSans-31"/>
      </g>
     </g>
    </g>
    <g id="xtick_2">
     <g id="line2d_2">
      <g>
       <use xlink:href="#mccaaedb06c" x="99.9" y="512.64" style="stroke: #000000; stroke-width: 0.8"/>
      </g>
     </g>
     <g id="text_2">
      <!-- 2 -->
      <g transform="translate(99.542027 531.486248)rotate(-45)scale(0.12 -0.12)">
       <defs>
        <path id="DejaVuSans-32" d="M 1228 531 
L 3431 531 
L 3431 0 
L 469 0 
L 469 531 
Q 828 903 1448 1529 
Q 2069 2156 2228 2338 
Q 2531 2678 2651 2914 
Q 2772 3150 2772 3378 
Q 2772 3750 2511 3984 
Q 2250 4219 1831 4219 
Q 1534 4219 1204 4116 
Q 875 4013 500 3803 
L 500 4441 
Q 881 4594 1212 4672 
Q 1544 4750 1819 4750 
Q 2544 4750 2975 4387 
Q 3406 4025 3406 3419 
Q 3406 3131 3298 2873 
Q 3191 2616 2906 2266 
Q 2828 2175 2409 1742 
Q 1991 1309 1228 531 
z
" transform="scale(0.015625)"/>
       </defs>
       <use xlink:href="#DejaVuSans-32"/>
      </g>
     </g>
    </g>
    <g id="xtick_3">
     <g id="line2d_3">
      <g>
       <use xlink:href="#mccaaedb06c" x="127.8" y="512.64" style="stroke: #000000; stroke-width: 0.8"/>
      </g>
     </g>
     <g id="text_3">
      <!-- 3 -->
      <g transform="translate(127.442027 531.486248)rotate(-45)scale(0.12 -0.12)">
       <defs>
        <path id="DejaVuSans-33" d="M 2597 2516 
Q 3050 2419 3304 2112 
Q 3559 1806 3559 1356 
Q 3559 666 3084 287 
Q 2609 -91 1734 -91 
Q 1441 -91 1130 -33 
Q 819 25 488 141 
L 488 750 
Q 750 597 1062 519 
Q 1375 441 1716 441 
Q 2309 441 2620 675 
Q 2931 909 2931 1356 
Q 2931 1769 2642 2001 
Q 2353 2234 1838 2234 
L 1294 2234 
L 1294 2753 
L 1863 2753 
Q 2328 2753 2575 2939 
Q 2822 3125 2822 3475 
Q 2822 3834 2567 4026 
Q 2313 4219 1838 4219 
Q 1578 4219 1281 4162 
Q 984 4106 628 3988 
L 628 4550 
Q 988 4650 1302 4700 
Q 1616 4750 1894 4750 
Q 2613 4750 3031 4423 
Q 3450 4097 3450 3541 
Q 3450 3153 3228 2886 
Q 3006 2619 2597 2516 
z
" transform="scale(0.015625)"/>
       </defs>
       <use xlink:href="#DejaVuSans-33"/>
      </g>
     </g>
    </g>
    <g id="xtick_4">
     <g id="line2d_4">
      <g>
       <use xlink:href="#mccaaedb06c" x="155.7" y="512.64" style="stroke: #000000; stroke-width: 0.8"/>
      </g>
     </g>
     <g id="text_4">
      <!-- 4 -->
      <g transform="translate(155.342027 531.486248)rotate(-45)scale(0.12 -0.12)">
       <defs>
        <path id="DejaVuSans-34" d="M 2419 4116 
L 825 1625 
L 2419 1625 
L 2419 4116 
z
M 2253 4666 
L 3047 4666 
L 3047 1625 
L 3713 1625 
L 3713 1100 
L 3047 1100 
L 3047 0 
L 2419 0 
L 2419 1100 
L 313 1100 
L 313 1709 
L 2253 4666 
z
" transform="scale(0.015625)"/>
       </defs>
       <use xlink:href="#DejaVuSans-34"/>
      </g>
     </g>
    </g>
    <g id="xtick_5">
     <g id="line2d_5">
      <g>
       <use xlink:href="#mccaaedb06c" x="183.6" y="512.64" style="stroke: #000000; stroke-width: 0.8"/>
      </g>
     </g>
     <g id="text_5">
      <!-- 5 -->
      <g transform="translate(183.242027 531.486248)rotate(-45)scale(0.12 -0.12)">
       <defs>
        <path id="DejaVuSans-35" d="M 691 4666 
L 3169 4666 
L 3169 4134 
L 1269 4134 
L 1269 2991 
Q 1406 3038 1543 3061 
Q 1681 3084 1819 3084 
Q 2600 3084 3056 2656 
Q 3513 2228 3513 1497 
Q 3513 744 3044 326 
Q 2575 -91 1722 -91 
Q 1428 -91 1123 -41 
Q 819 9 494 109 
L 494 744 
Q 775 591 1075 516 
Q 1375 441 1709 441 
Q 2250 441 2565 725 
Q 2881 1009 2881 1497 
Q 2881 1984 2565 2268 
Q 2250 2553 1709 2553 
Q 1456 2553 1204 2497 
Q 953 2441 691 2322 
L 691 4666 
z
" transform="scale(0.015625)"/>
       </defs>
       <use xlink:href="#DejaVuSans-35"/>
      </g>
     </g>
    </g>
    <g id="xtick_6">
     <g id="line2d_6">
      <g>
       <use xlink:href="#mccaaedb06c" x="211.5" y="512.64" style="stroke: #000000; stroke-width: 0.8"/>
      </g>
     </g>
     <g id="text_6">
      <!-- 6 -->
      <g transform="translate(211.142027 531.486248)rotate(-45)scale(0.12 -0.12)">
       <defs>
        <path id="DejaVuSans-36" d="M 2113 2584 
Q 1688 2584 1439 2293 
Q 1191 2003 1191 1497 
Q 1191 994 1439 701 
Q 1688 409 2113 409 
Q 2538 409 2786 701 
Q 3034 994 3034 1497 
Q 3034 2003 2786 2293 
Q 2538 2584 2113 2584 
z
M 3366 4563 
L 3366 3988 
Q 3128 4100 2886 4159 
Q 2644 4219 2406 4219 
Q 1781 4219 1451 3797 
Q 1122 3375 1075 2522 
Q 1259 2794 1537 2939 
Q 1816 3084 2150 3084 
Q 2853 3084 3261 2657 
Q 3669 2231 3669 1497 
Q 3669 778 3244 343 
Q 2819 -91 2113 -91 
Q 1303 -91 875 529 
Q 447 1150 447 2328 
Q 447 3434 972 4092 
Q 1497 4750 2381 4750 
Q 2619 4750 2861 4703 
Q 3103 4656 3366 4563 
z
" transform="scale(0.015625)"/>
       </defs>
       <use xlink:href="#DejaVuSans-36"/>
      </g>
     </g>
    </g>
    <g id="xtick_7">
     <g id="line2d_7">
      <g>
       <use xlink:href="#mccaaedb06c" x="239.4" y="512.64" style="stroke: #000000; stroke-width: 0.8"/>
      </g>
     </g>
     <g id="text_7">
      <!-- 7 -->
      <g transform="translate(239.042027 531.486248)rotate(-45)scale(0.12 -0.12)">
       <defs>
        <path id="DejaVuSans-37" d="M 525 4666 
L 3525 4666 
L 3525 4397 
L 1831 0 
L 1172 0 
L 2766 4134 
L 525 4134 
L 525 4666 
z
" transform="scale(0.015625)"/>
       </defs>
       <use xlink:href="#DejaVuSans-37"/>
      </g>
     </g>
    </g>
    <g id="xtick_8">
     <g id="line2d_8">
      <g>
       <use xlink:href="#mccaaedb06c" x="267.3" y="512.64" style="stroke: #000000; stroke-width: 0.8"/>
      </g>
     </g>
     <g id="text_8">
      <!-- 8 -->
      <g transform="translate(266.942027 531.486248)rotate(-45)scale(0.12 -0.12)">
       <defs>
        <path id="DejaVuSans-38" d="M 2034 2216 
Q 1584 2216 1326 1975 
Q 1069 1734 1069 1313 
Q 1069 891 1326 650 
Q 1584 409 2034 409 
Q 2484 409 2743 651 
Q 3003 894 3003 1313 
Q 3003 1734 2745 1975 
Q 2488 2216 2034 2216 
z
M 1403 2484 
Q 997 2584 770 2862 
Q 544 3141 544 3541 
Q 544 4100 942 4425 
Q 1341 4750 2034 4750 
Q 2731 4750 3128 4425 
Q 3525 4100 3525 3541 
Q 3525 3141 3298 2862 
Q 3072 2584 2669 2484 
Q 3125 2378 3379 2068 
Q 3634 1759 3634 1313 
Q 3634 634 3220 271 
Q 2806 -91 2034 -91 
Q 1263 -91 848 271 
Q 434 634 434 1313 
Q 434 1759 690 2068 
Q 947 2378 1403 2484 
z
M 1172 3481 
Q 1172 3119 1398 2916 
Q 1625 2713 2034 2713 
Q 2441 2713 2670 2916 
Q 2900 3119 2900 3481 
Q 2900 3844 2670 4047 
Q 2441 4250 2034 4250 
Q 1625 4250 1398 4047 
Q 1172 3844 1172 3481 
z
" transform="scale(0.015625)"/>
       </defs>
       <use xlink:href="#DejaVuSans-38"/>
      </g>
     </g>
    </g>
    <g id="xtick_9">
     <g id="line2d_9">
      <g>
       <use xlink:href="#mccaaedb06c" x="295.2" y="512.64" style="stroke: #000000; stroke-width: 0.8"/>
      </g>
     </g>
     <g id="text_9">
      <!-- 9 -->
      <g transform="translate(294.842027 531.486248)rotate(-45)scale(0.12 -0.12)">
       <defs>
        <path id="DejaVuSans-39" d="M 703 97 
L 703 672 
Q 941 559 1184 500 
Q 1428 441 1663 441 
Q 2288 441 2617 861 
Q 2947 1281 2994 2138 
Q 2813 1869 2534 1725 
Q 2256 1581 1919 1581 
Q 1219 1581 811 2004 
Q 403 2428 403 3163 
Q 403 3881 828 4315 
Q 1253 4750 1959 4750 
Q 2769 4750 3195 4129 
Q 3622 3509 3622 2328 
Q 3622 1225 3098 567 
Q 2575 -91 1691 -91 
Q 1453 -91 1209 -44 
Q 966 3 703 97 
z
M 1959 2075 
Q 2384 2075 2632 2365 
Q 2881 2656 2881 3163 
Q 2881 3666 2632 3958 
Q 2384 4250 1959 4250 
Q 1534 4250 1286 3958 
Q 1038 3666 1038 3163 
Q 1038 2656 1286 2365 
Q 1534 2075 1959 2075 
z
" transform="scale(0.015625)"/>
       </defs>
       <use xlink:href="#DejaVuSans-39"/>
      </g>
     </g>
    </g>
    <g id="xtick_10">
     <g id="line2d_10">
      <g>
       <use xlink:href="#mccaaedb06c" x="323.1" y="512.64" style="stroke: #000000; stroke-width: 0.8"/>
      </g>
     </g>
     <g id="text_10">
      <!-- 10 -->
      <g transform="translate(320.042647 536.885009)rotate(-45)scale(0.12 -0.12)">
       <defs>
        <path id="DejaVuSans-30" d="M 2034 4250 
Q 1547 4250 1301 3770 
Q 1056 3291 1056 2328 
Q 1056 1369 1301 889 
Q 1547 409 2034 409 
Q 2525 409 2770 889 
Q 3016 1369 3016 2328 
Q 3016 3291 2770 3770 
Q 2525 4250 2034 4250 
z
M 2034 4750 
Q 2819 4750 3233 4129 
Q 3647 3509 3647 2328 
Q 3647 1150 3233 529 
Q 2819 -91 2034 -91 
Q 1250 -91 836 529 
Q 422 1150 422 2328 
Q 422 3509 836 4129 
Q 1250 4750 2034 4750 
z
" transform="scale(0.015625)"/>
       </defs>
       <use xlink:href="#DejaVuSans-31"/>
       <use xlink:href="#DejaVuSans-30" x="63.623047"/>
      </g>
     </g>
    </g>
    <g id="xtick_11">
     <g id="line2d_11">
      <g>
       <use xlink:href="#mccaaedb06c" x="351" y="512.64" style="stroke: #000000; stroke-width: 0.8"/>
      </g>
     </g>
     <g id="text_11">
      <!-- 11 -->
      <g transform="translate(347.942647 536.885009)rotate(-45)scale(0.12 -0.12)">
       <use xlink:href="#DejaVuSans-31"/>
       <use xlink:href="#DejaVuSans-31" x="63.623047"/>
      </g>
     </g>
    </g>
    <g id="xtick_12">
     <g id="line2d_12">
      <g>
       <use xlink:href="#mccaaedb06c" x="378.9" y="512.64" style="stroke: #000000; stroke-width: 0.8"/>
      </g>
     </g>
     <g id="text_12">
      <!-- 12 -->
      <g transform="translate(375.842647 536.885009)rotate(-45)scale(0.12 -0.12)">
       <use xlink:href="#DejaVuSans-31"/>
       <use xlink:href="#DejaVuSans-32" x="63.623047"/>
      </g>
     </g>
    </g>
    <g id="xtick_13">
     <g id="line2d_13">
      <g>
       <use xlink:href="#mccaaedb06c" x="406.8" y="512.64" style="stroke: #000000; stroke-width: 0.8"/>
      </g>
     </g>
     <g id="text_13">
      <!-- 13 -->
      <g transform="translate(403.742647 536.885009)rotate(-45)scale(0.12 -0.12)">
       <use xlink:href="#DejaVuSans-31"/>
       <use xlink:href="#DejaVuSans-33" x="63.623047"/>
      </g>
     </g>
    </g>
    <g id="xtick_14">
     <g id="line2d_14">
      <g>
       <use xlink:href="#mccaaedb06c" x="434.7" y="512.64" style="stroke: #000000; stroke-width: 0.8"/>
      </g>
     </g>
     <g id="text_14">
      <!-- 14 -->
      <g transform="translate(431.642647 536.885009)rotate(-45)scale(0.12 -0.12)">
       <use xlink:href="#DejaVuSans-31"/>
       <use xlink:href="#DejaVuSans-34" x="63.623047"/>
      </g>
     </g>
    </g>
    <g id="xtick_15">
     <g id="line2d_15">
      <g>
       <use xlink:href="#mccaaedb06c" x="462.6" y="512.64" style="stroke: #000000; stroke-width: 0.8"/>
      </g>
     </g>
     <g id="text_15">
      <!-- 15 -->
      <g transform="translate(459.542647 536.885009)rotate(-45)scale(0.12 -0.12)">
       <use xlink:href="#DejaVuSans-31"/>
       <use xlink:href="#DejaVuSans-35" x="63.623047"/>
      </g>
     </g>
    </g>
    <g id="xtick_16">
     <g id="line2d_16">
      <g>
       <use xlink:href="#mccaaedb06c" x="490.5" y="512.64" style="stroke: #000000; stroke-width: 0.8"/>
      </g>
     </g>
     <g id="text_16">
      <!-- 16 -->
      <g transform="translate(487.442647 536.885009)rotate(-45)scale(0.12 -0.12)">
       <use xlink:href="#DejaVuSans-31"/>
       <use xlink:href="#DejaVuSans-36" x="63.623047"/>
      </g>
     </g>
    </g>
    <g id="text_17">
     <!-- $X$(km) -->
     <g transform="translate(280.1 550.248119)scale(0.1 -0.1)">
      <defs>
       <path id="DejaVuSans-Oblique-58" d="M 878 4666 
L 1516 4666 
L 2316 2981 
L 3763 4666 
L 4500 4666 
L 2578 2438 
L 3738 0 
L 3103 0 
L 2163 1966 
L 459 0 
L -275 0 
L 1906 2509 
L 878 4666 
z
" transform="scale(0.015625)"/>
       <path id="DejaVuSans-28" d="M 1984 4856 
Q 1566 4138 1362 3434 
Q 1159 2731 1159 2009 
Q 1159 1288 1364 580 
Q 1569 -128 1984 -844 
L 1484 -844 
Q 1016 -109 783 600 
Q 550 1309 550 2009 
Q 550 2706 781 3412 
Q 1013 4119 1484 4856 
L 1984 4856 
z
" transform="scale(0.015625)"/>
       <path id="DejaVuSans-6b" d="M 581 4863 
L 1159 4863 
L 1159 1991 
L 2875 3500 
L 3609 3500 
L 1753 1863 
L 3688 0 
L 2938 0 
L 1159 1709 
L 1159 0 
L 581 0 
L 581 4863 
z
" transform="scale(0.015625)"/>
       <path id="DejaVuSans-6d" d="M 3328 2828 
Q 3544 3216 3844 3400 
Q 4144 3584 4550 3584 
Q 5097 3584 5394 3201 
Q 5691 2819 5691 2113 
L 5691 0 
L 5113 0 
L 5113 2094 
Q 5113 2597 4934 2840 
Q 4756 3084 4391 3084 
Q 3944 3084 3684 2787 
Q 3425 2491 3425 1978 
L 3425 0 
L 2847 0 
L 2847 2094 
Q 2847 2600 2669 2842 
Q 2491 3084 2119 3084 
Q 1678 3084 1418 2786 
Q 1159 2488 1159 1978 
L 1159 0 
L 581 0 
L 581 3500 
L 1159 3500 
L 1159 2956 
Q 1356 3278 1631 3431 
Q 1906 3584 2284 3584 
Q 2666 3584 2933 3390 
Q 3200 3197 3328 2828 
z
" transform="scale(0.015625)"/>
       <path id="DejaVuSans-29" d="M 513 4856 
L 1013 4856 
Q 1481 4119 1714 3412 
Q 1947 2706 1947 2009 
Q 1947 1309 1714 600 
Q 1481 -109 1013 -844 
L 513 -844 
Q 928 -128 1133 580 
Q 1338 1288 1338 2009 
Q 1338 2731 1133 3434 
Q 928 4138 513 4856 
z
" transform="scale(0.015625)"/>
      </defs>
      <use xlink:href="#DejaVuSans-Oblique-58" transform="translate(0 0.015625)"/>
      <use xlink:href="#DejaVuSans-28" transform="translate(68.505859 0.015625)"/>
      <use xlink:href="#DejaVuSans-6b" transform="translate(107.519531 0.015625)"/>
      <use xlink:href="#DejaVuSans-6d" transform="translate(165.429688 0.015625)"/>
      <use xlink:href="#DejaVuSans-29" transform="translate(262.841797 0.015625)"/>
     </g>
    </g>
   </g>
   <g id="matplotlib.axis_2">
    <g id="ytick_1">
     <g id="line2d_17">
      <defs>
       <path id="m77e9a7b839" d="M 0 0 
L -3.5 0 
" style="stroke: #000000; stroke-width: 0.8"/>
      </defs>
      <g>
       <use xlink:href="#m77e9a7b839" x="72" y="512.64" style="stroke: #000000; stroke-width: 0.8"/>
      </g>
     </g>
     <g id="text_18">
      <!-- 1 -->
      <g transform="translate(57.365 517.199062)scale(0.12 -0.12)">
       <use xlink:href="#DejaVuSans-31"/>
      </g>
     </g>
    </g>
    <g id="ytick_2">
     <g id="line2d_18">
      <g>
       <use xlink:href="#m77e9a7b839" x="72" y="484.92" style="stroke: #000000; stroke-width: 0.8"/>
      </g>
     </g>
     <g id="text_19">
      <!-- 2 -->
      <g transform="translate(57.365 489.479062)scale(0.12 -0.12)">
       <use xlink:href="#DejaVuSans-32"/>
      </g>
     </g>
    </g>
    <g id="ytick_3">
     <g id="line2d_19">
      <g>
       <use xlink:href="#m77e9a7b839" x="72" y="457.2" style="stroke: #000000; stroke-width: 0.8"/>
      </g>
     </g>
     <g id="text_20">
      <!-- 3 -->
      <g transform="translate(57.365 461.759063)scale(0.12 -0.12)">
       <use xlink:href="#DejaVuSans-33"/>
      </g>
     </g>
    </g>
    <g id="ytick_4">
     <g id="line2d_20">
      <g>
       <use xlink:href="#m77e9a7b839" x="72" y="429.48" style="stroke: #000000; stroke-width: 0.8"/>
      </g>
     </g>
     <g id="text_21">
      <!-- 4 -->
      <g transform="translate(57.365 434.039062)scale(0.12 -0.12)">
       <use xlink:href="#DejaVuSans-34"/>
      </g>
     </g>
    </g>
    <g id="ytick_5">
     <g id="line2d_21">
      <g>
       <use xlink:href="#m77e9a7b839" x="72" y="401.76" style="stroke: #000000; stroke-width: 0.8"/>
      </g>
     </g>
     <g id="text_22">
      <!-- 5 -->
      <g transform="translate(57.365 406.319063)scale(0.12 -0.12)">
       <use xlink:href="#DejaVuSans-35"/>
      </g>
     </g>
    </g>
    <g id="ytick_6">
     <g id="line2d_22">
      <g>
       <use xlink:href="#m77e9a7b839" x="72" y="374.04" style="stroke: #000000; stroke-width: 0.8"/>
      </g>
     </g>
     <g id="text_23">
      <!-- 6 -->
      <g transform="translate(57.365 378.599063)scale(0.12 -0.12)">
       <use xlink:href="#DejaVuSans-36"/>
      </g>
     </g>
    </g>
    <g id="ytick_7">
     <g id="line2d_23">
      <g>
       <use xlink:href="#m77e9a7b839" x="72" y="346.32" style="stroke: #000000; stroke-width: 0.8"/>
      </g>
     </g>
     <g id="text_24">
      <!-- 7 -->
      <g transform="translate(57.365 350.879063)scale(0.12 -0.12)">
       <use xlink:href="#DejaVuSans-37"/>
      </g>
     </g>
    </g>
    <g id="ytick_8">
     <g id="line2d_24">
      <g>
       <use xlink:href="#m77e9a7b839" x="72" y="318.6" style="stroke: #000000; stroke-width: 0.8"/>
      </g>
     </g>
     <g id="text_25">
      <!-- 8 -->
      <g transform="translate(57.365 323.159063)scale(0.12 -0.12)">
       <use xlink:href="#DejaVuSans-38"/>
      </g>
     </g>
    </g>
    <g id="ytick_9">
     <g id="line2d_25">
      <g>
       <use xlink:href="#m77e9a7b839" x="72" y="290.88" style="stroke: #000000; stroke-width: 0.8"/>
      </g>
     </g>
     <g id="text_26">
      <!-- 9 -->
      <g transform="translate(57.365 295.439062)scale(0.12 -0.12)">
       <use xlink:href="#DejaVuSans-39"/>
      </g>
     </g>
    </g>
    <g id="ytick_10">
     <g id="line2d_26">
      <g>
       <use xlink:href="#m77e9a7b839" x="72" y="263.16" style="stroke: #000000; stroke-width: 0.8"/>
      </g>
     </g>
     <g id="text_27">
      <!-- 10 -->
      <g transform="translate(49.73 267.719063)scale(0.12 -0.12)">
       <use xlink:href="#DejaVuSans-31"/>
       <use xlink:href="#DejaVuSans-30" x="63.623047"/>
      </g>
     </g>
    </g>
    <g id="ytick_11">
     <g id="line2d_27">
      <g>
       <use xlink:href="#m77e9a7b839" x="72" y="235.44" style="stroke: #000000; stroke-width: 0.8"/>
      </g>
     </g>
     <g id="text_28">
      <!-- 11 -->
      <g transform="translate(49.73 239.999063)scale(0.12 -0.12)">
       <use xlink:href="#DejaVuSans-31"/>
       <use xlink:href="#DejaVuSans-31" x="63.623047"/>
      </g>
     </g>
    </g>
    <g id="ytick_12">
     <g id="line2d_28">
      <g>
       <use xlink:href="#m77e9a7b839" x="72" y="207.72" style="stroke: #000000; stroke-width: 0.8"/>
      </g>
     </g>
     <g id="text_29">
      <!-- 12 -->
      <g transform="translate(49.73 212.279063)scale(0.12 -0.12)">
       <use xlink:href="#DejaVuSans-31"/>
       <use xlink:href="#DejaVuSans-32" x="63.623047"/>
      </g>
     </g>
    </g>
    <g id="ytick_13">
     <g id="line2d_29">
      <g>
       <use xlink:href="#m77e9a7b839" x="72" y="180" style="stroke: #000000; stroke-width: 0.8"/>
      </g>
     </g>
     <g id="text_30">
      <!-- 13 -->
      <g transform="translate(49.73 184.559062)scale(0.12 -0.12)">
       <use xlink:href="#DejaVuSans-31"/>
       <use xlink:href="#DejaVuSans-33" x="63.623047"/>
      </g>
     </g>
    </g>
    <g id="ytick_14">
     <g id="line2d_30">
      <g>
       <use xlink:href="#m77e9a7b839" x="72" y="152.28" style="stroke: #000000; stroke-width: 0.8"/>
      </g>
     </g>
     <g id="text_31">
      <!-- 14 -->
      <g transform="translate(49.73 156.839063)scale(0.12 -0.12)">
       <use xlink:href="#DejaVuSans-31"/>
       <use xlink:href="#DejaVuSans-34" x="63.623047"/>
      </g>
     </g>
    </g>
    <g id="ytick_15">
     <g id="line2d_31">
      <g>
       <use xlink:href="#m77e9a7b839" x="72" y="124.56" style="stroke: #000000; stroke-width: 0.8"/>
      </g>
     </g>
     <g id="text_32">
      <!-- 15 -->
      <g transform="translate(49.73 129.119063)scale(0.12 -0.12)">
       <use xlink:href="#DejaVuSans-31"/>
       <use xlink:href="#DejaVuSans-35" x="63.623047"/>
      </g>
     </g>
    </g>
    <g id="ytick_16">
     <g id="line2d_32">
      <g>
       <use xlink:href="#m77e9a7b839" x="72" y="96.84" style="stroke: #000000; stroke-width: 0.8"/>
      </g>
     </g>
     <g id="text_33">
      <!-- 16 -->
      <g transform="translate(49.73 101.399063)scale(0.12 -0.12)">
       <use xlink:href="#DejaVuSans-31"/>
       <use xlink:href="#DejaVuSans-36" x="63.623047"/>
      </g>
     </g>
    </g>
    <g id="text_34">
     <!-- $Y$(km) -->
     <g transform="translate(43.650312 305.63)rotate(-90)scale(0.1 -0.1)">
      <defs>
       <path id="DejaVuSans-Oblique-59" d="M 403 4666 
L 1081 4666 
L 1953 2747 
L 3616 4666 
L 4325 4666 
L 2209 2222 
L 1778 0 
L 1147 0 
L 1575 2222 
L 403 4666 
z
" transform="scale(0.015625)"/>
      </defs>
      <use xlink:href="#DejaVuSans-Oblique-59" transform="translate(0 0.015625)"/>
      <use xlink:href="#DejaVuSans-28" transform="translate(61.083984 0.015625)"/>
      <use xlink:href="#DejaVuSans-6b" transform="translate(100.097656 0.015625)"/>
      <use xlink:href="#DejaVuSans-6d" transform="translate(158.007812 0.015625)"/>
      <use xlink:href="#DejaVuSans-29" transform="translate(255.419922 0.015625)"/>
     </g>
    </g>
   </g>
   <g id="line2d_33">
    <path d="M 183.6 374.04 
L 187.478718 373.963062 
L 193.387517 373.543599 
L 200.066592 372.844053 
L 207.333504 371.876118 
L 214.893213 370.609611 
L 220.584429 369.449832 
L 226.201047 368.106534 
L 231.690605 366.581126 
L 237.021018 364.877532 
L 242.174228 363.001017 
L 247.141625 360.957288 
L 251.920951 358.752031 
L 256.51417 356.390826 
L 260.926006 353.879327 
L 265.162996 351.223506 
L 269.232924 348.429822 
L 273.144424 345.505158 
L 276.906538 342.456505 
L 280.528081 339.290469 
L 284.016821 336.012846 
L 288.471745 331.477287 
L 292.707769 326.761104 
L 296.723309 321.872806 
L 300.50933 316.821998 
L 304.051792 311.62054 
L 307.334531 306.282687 
L 309.616583 302.199391 
L 311.737692 298.055501 
L 313.692842 293.858222 
L 315.478006 289.614694 
L 317.090142 285.331914 
L 318.52711 281.016709 
L 319.787573 276.675759 
L 320.870891 272.315628 
L 321.777023 267.942807 
L 322.506442 263.563744 
L 323.060073 259.184869 
L 323.439238 254.81259 
L 323.64562 250.453294 
L 323.681222 246.113326 
L 323.548344 241.798972 
L 323.11357 236.097051 
L 322.390632 230.466095 
L 321.386984 224.920117 
L 320.110697 219.472674 
L 318.5704 214.136814 
L 316.775222 208.925046 
L 314.734754 203.849303 
L 312.459006 198.920919 
L 309.958376 194.150606 
L 307.243619 189.548433 
L 304.325819 185.123812 
L 301.216358 180.885481 
L 297.926889 176.841496 
L 294.469304 172.999216 
L 290.855706 169.365301 
L 287.098379 165.945708 
L 283.209755 162.745684 
L 279.202385 159.769767 
L 275.088905 157.02179 
L 270.882007 154.504881 
L 266.594405 152.221465 
L 262.238802 150.173275 
L 257.827863 148.361358 
L 253.374178 146.78608 
L 248.890236 145.447141 
L 244.38839 144.343586 
L 239.880828 143.473815 
L 235.379542 142.835601 
L 230.896302 142.426105 
L 226.44262 142.241894 
L 222.029728 142.278959 
L 217.668547 142.532733 
L 213.36966 142.99812 
L 209.143288 143.66951 
L 204.999259 144.540807 
L 200.946995 145.605455 
L 196.995478 146.856462 
L 193.153237 148.28643 
L 189.428326 149.887584 
L 185.828308 151.651798 
L 182.360238 153.570627 
L 179.03065 155.635337 
L 175.845545 157.836936 
L 172.810383 160.166203 
L 169.930077 162.61372 
L 167.208983 165.169898 
L 164.650901 167.82501 
L 162.259073 170.569218 
L 160.036186 173.392595 
L 157.498346 177.017929 
L 155.230729 180.731758 
L 153.234979 184.514423 
L 151.51145 188.346218 
L 150.046842 192.240583 
L 148.829895 196.218226 
L 147.865375 200.263622 
L 147.157057 204.360975 
L 146.707715 208.494285 
L 146.519111 212.64741 
L 146.591993 216.804129 
L 146.926091 220.948206 
L 147.520119 225.06345 
L 148.371782 229.133776 
L 149.477779 233.143272 
L 150.833826 237.076254 
L 152.434662 240.917326 
L 154.274076 244.651442 
L 156.34493 248.263957 
L 158.639182 251.740687 
L 161.147917 255.067958 
L 163.861382 258.23266 
L 166.769019 261.222295 
L 169.8595 264.025024 
L 170.49849 264.562148 
L 170.49849 264.562148 
" clip-path="url(#pc4a4b94b6f)" style="fill: none; stroke-dasharray: 3.7,1.6; stroke-dashoffset: 0; stroke: #7b68ee; stroke-opacity: 0.5"/>
   </g>
   <g id="line2d_34">
    <path d="M 183.6 387.9 
L 188.84764 387.806597 
L 193.286036 387.53135 
L 198.107764 387.054258 
L 205.044 386.105499 
L 212.423476 384.81233 
L 220.060666 383.184328 
L 225.824481 381.749921 
L 231.511827 380.142968 
L 237.041114 378.377435 
L 242.356435 376.468231 
L 247.429995 374.427715 
L 252.258634 372.26322 
L 256.857279 369.976005 
L 261.250545 367.56198 
L 265.464197 365.014043 
L 269.519251 362.324924 
L 273.429979 359.489322 
L 277.204551 356.505022 
L 280.846394 353.373375 
L 284.35541 350.099418 
L 287.7291 346.691636 
L 290.963754 343.161248 
L 294.055634 339.52107 
L 297.001886 335.784181 
L 300.701232 330.671936 
L 304.138652 325.432758 
L 307.315259 320.083844 
L 310.231068 314.637338 
L 312.883242 309.102898 
L 315.265843 303.490032 
L 317.370805 297.809391 
L 319.189377 292.073016 
L 320.360411 287.742025 
L 321.362801 283.392873 
L 322.194178 279.031557 
L 322.8528 274.664232 
L 323.33757 270.297187 
L 323.64805 265.936834 
L 323.784454 261.589682 
L 323.747629 257.262307 
L 323.539041 252.961332 
L 323.16074 248.69339 
L 322.615337 244.465094 
L 321.905957 240.28299 
L 320.711333 234.789806 
L 319.241327 229.404932 
L 317.506686 224.142416 
L 315.518941 219.015424 
L 313.290125 214.036146 
L 310.832511 209.215753 
L 308.158402 204.564408 
L 305.279989 200.091314 
L 302.209274 195.804793 
L 298.958068 191.71238 
L 295.538049 187.820918 
L 291.960849 184.136635 
L 288.238159 180.665192 
L 284.381813 177.411706 
L 280.403849 174.380731 
L 276.316528 171.576239 
L 272.132323 169.001583 
L 267.863878 166.659461 
L 263.523942 164.551893 
L 259.125298 162.680203 
L 254.680686 161.045014 
L 250.202728 159.646253 
L 245.703869 158.483165 
L 241.196331 157.554331 
L 236.692084 156.857692 
L 232.202823 156.390569 
L 227.739964 156.149684 
L 223.314634 156.13118 
L 218.937668 156.330639 
L 214.619603 156.743094 
L 210.370664 157.363052 
L 206.200751 158.184507 
L 202.119422 159.200961 
L 198.135865 160.405447 
L 194.258878 161.790551 
L 190.496843 163.34844 
L 186.857696 165.070893 
L 183.348904 166.949328 
L 179.977442 168.974835 
L 176.749775 171.138206 
L 173.671836 173.429967 
L 170.749023 175.840407 
L 167.98618 178.359598 
L 165.387607 180.977419 
L 162.957052 183.683569 
L 160.697723 186.467567 
L 158.118382 190.040756 
L 155.814856 193.697518 
L 153.790112 197.415654 
L 152.03607 201.193685 
L 150.528094 205.071662 
L 149.268037 209.036032 
L 148.259653 213.070857 
L 147.506615 217.160331 
L 147.011772 221.28851 
L 146.776995 225.439313 
L 146.803143 229.596585 
L 147.090057 233.744153 
L 147.636566 237.865895 
L 148.440486 241.945799 
L 149.498633 245.968027 
L 150.806837 249.916977 
L 152.359961 253.777344 
L 154.151918 257.534176 
L 156.175703 261.172937 
L 158.423416 264.679554 
L 160.886301 268.040481 
L 163.554773 271.242737 
L 166.418466 274.273967 
L 169.466267 277.122474 
L 170.734314 278.20823 
L 170.734314 278.20823 
" clip-path="url(#pc4a4b94b6f)" style="fill: none; stroke-dasharray: 3.7,1.6; stroke-dashoffset: 0; stroke: #ffe4b5; stroke-opacity: 0.5"/>
   </g>
   <g id="line2d_35">
    <path d="M 183.6 401.76 
L 188.848664 401.659732 
L 193.277606 401.366132 
L 198.0808 400.869571 
L 204.981543 399.905026 
L 212.298479 398.610625 
L 219.830868 396.997191 
L 225.504249 395.583302 
L 231.121746 393.99941 
L 236.627495 392.250764 
L 241.975486 390.344296 
L 247.129122 388.288749 
L 252.062874 386.093613 
L 256.76481 383.766978 
L 261.238073 381.313043 
L 265.49933 378.730704 
L 269.573122 376.0146 
L 273.483826 373.15849 
L 277.249381 370.158828 
L 280.879442 367.016537 
L 284.376996 363.736929 
L 287.741051 360.328671 
L 290.96887 356.802558 
L 294.05737 353.170378 
L 297.954087 348.182807 
L 301.593895 343.053339 
L 304.974195 337.803471 
L 308.093274 332.449747 
L 310.94897 327.004268 
L 313.537574 321.476139 
L 315.853359 315.873398 
L 317.888855 310.204799 
L 319.635751 304.480902 
L 320.751694 300.159151 
L 321.697895 295.819138 
L 322.47206 291.466989 
L 323.072564 287.108994 
L 323.498471 282.751539 
L 323.749519 278.401095 
L 323.826095 274.064226 
L 323.729216 269.7476 
L 323.460515 265.457976 
L 323.022217 261.202167 
L 322.417123 256.986995 
L 321.648568 252.819222 
L 320.376233 247.347374 
L 318.830378 241.986764 
L 317.02228 236.751748 
L 314.96394 231.65566 
L 312.66775 226.710708 
L 310.146215 221.927933 
L 307.411738 217.317265 
L 304.476502 212.887611 
L 301.352436 208.646986 
L 298.051262 204.60264 
L 294.58458 200.761165 
L 290.963988 197.128575 
L 287.201179 193.710341 
L 283.308035 190.511408 
L 279.296671 187.53617 
L 275.179445 184.788441 
L 270.968929 182.271413 
L 266.677854 179.987621 
L 262.319025 177.938913 
L 257.905248 176.126437 
L 253.44925 174.550637 
L 248.963613 173.211267 
L 244.460722 172.1074 
L 239.95273 171.237455 
L 235.451532 170.599212 
L 230.96875 170.189838 
L 226.515723 170.005907 
L 222.103499 170.043413 
L 217.742829 170.297796 
L 213.444159 170.76395 
L 209.217617 171.436251 
L 205.07299 172.308566 
L 201.019712 173.374286 
L 197.066827 174.62634 
L 193.22297 176.057232 
L 189.496338 177.659063 
L 185.894658 179.423568 
L 182.425173 181.342143 
L 179.094609 183.405883 
L 175.909168 185.605612 
L 172.874503 187.931917 
L 169.99571 190.37518 
L 167.277319 192.925608 
L 164.723282 195.57327 
L 162.336965 198.308122 
L 160.121145 201.120047 
L 157.594377 204.727869 
L 155.340222 208.420473 
L 153.359938 212.178362 
L 151.650825 215.988194 
L 150.192066 219.884716 
L 148.981828 223.864379 
L 148.024104 227.911369 
L 147.322507 232.009865 
L 146.879766 236.143878 
L 146.697619 240.297289 
L 146.776805 244.453895 
L 147.11705 248.597479 
L 147.717077 252.711863 
L 148.574604 256.780974 
L 149.686361 260.788898 
L 151.048101 264.719936 
L 152.654612 268.558668 
L 154.499745 272.289996 
L 156.576429 275.899204 
L 158.8767 279.372002 
L 161.391723 282.694579 
L 164.111827 285.853644 
L 167.026528 288.836473 
L 170.124561 291.630948 
L 170.765123 292.16622 
L 170.765123 292.16622 
" clip-path="url(#pc4a4b94b6f)" style="fill: none; stroke-dasharray: 3.7,1.6; stroke-dashoffset: 0; stroke: #c54f85; stroke-opacity: 0.5"/>
   </g>
   <g id="line2d_36">
    <path d="M 183.6 415.62 
L 188.871862 415.532576 
L 193.35959 415.250846 
L 198.256059 414.757826 
L 205.302206 413.782558 
L 212.728982 412.464539 
L 218.394902 411.263755 
L 224.04069 409.891014 
L 229.601276 408.354866 
L 235.034408 406.662584 
L 240.314306 404.819728 
L 245.425145 402.830309 
L 250.355876 400.697498 
L 255.097373 398.424512 
L 259.642381 396.015024 
L 263.987728 393.472577 
L 268.137201 390.799155 
L 272.102803 387.994046 
L 275.902648 385.054434 
L 279.555823 381.977833 
L 283.076977 378.764552 
L 286.473569 375.418625 
L 289.746413 371.947404 
L 292.892034 368.360616 
L 295.905138 364.669273 
L 299.707298 359.60426 
L 303.253969 354.398346 
L 306.53761 349.073026 
L 309.552568 343.645834 
L 312.293804 338.130846 
L 314.756048 332.539651 
L 316.9335 326.882482 
L 318.819945 321.169333 
L 320.040037 316.854129 
L 321.090457 312.51843 
L 321.969071 308.167722 
L 322.674214 303.807952 
L 323.204805 299.445436 
L 323.560419 295.086743 
L 323.741305 290.738574 
L 323.748378 286.407678 
L 323.583171 282.100787 
L 323.247792 277.824591 
L 322.744869 273.58571 
L 322.077505 269.390685 
L 320.938055 263.876639 
L 319.522021 258.466836 
L 317.839846 253.175533 
L 315.902762 248.016224 
L 313.722535 243.001482 
L 311.311218 238.142864 
L 308.680928 233.450865 
L 305.843694 228.934948 
L 302.811381 224.60363 
L 299.595691 220.464599 
L 296.208237 216.524839 
L 292.660641 212.790726 
L 288.964642 209.268088 
L 285.132171 205.962221 
L 281.175384 202.877864 
L 277.106658 200.019161 
L 272.938559 197.389623 
L 268.683789 194.992094 
L 264.355133 192.82873 
L 259.965397 190.900993 
L 255.527347 189.209647 
L 251.053647 187.754763 
L 246.556801 186.535731 
L 242.049106 185.551274 
L 237.542614 184.799468 
L 233.049115 184.277762 
L 228.580123 183.983003 
L 224.146872 183.91145 
L 219.760308 184.058794 
L 215.431073 184.420176 
L 211.169494 184.990207 
L 206.985553 185.762986 
L 202.888864 186.732124 
L 198.888653 187.890768 
L 194.993727 189.231625 
L 191.212459 190.746996 
L 187.552761 192.428793 
L 184.022064 194.268582 
L 180.627299 196.257603 
L 177.374878 198.386808 
L 174.27068 200.646893 
L 171.320035 203.028324 
L 168.527718 205.521371 
L 165.897941 208.116135 
L 163.434349 210.802573 
L 161.14002 213.570519 
L 158.513906 217.129423 
L 156.159805 220.779394 
L 154.079998 224.5 
L 152.274175 228.273321 
L 150.71969 232.133131 
L 149.411467 236.082073 
L 148.353414 240.104326 
L 147.549403 244.184213 
L 147.002462 248.305901 
L 146.714644 252.45341 
L 146.686994 256.610675 
L 146.919546 260.761606 
L 147.411323 264.890151 
L 148.160342 268.98036 
L 149.163622 273.016447 
L 150.4172 276.982853 
L 151.916151 280.864306 
L 153.654605 284.645878 
L 155.625773 288.313044 
L 157.821981 291.851737 
L 160.234698 295.2484 
L 162.85457 298.490035 
L 165.671465 301.564253 
L 168.674505 304.459317 
L 170.560893 306.105737 
L 170.560893 306.105737 
" clip-path="url(#pc4a4b94b6f)" style="fill: none; stroke-dasharray: 3.7,1.6; stroke-dashoffset: 0; stroke: #00bfff; stroke-opacity: 0.5"/>
   </g>
   <g id="line2d_37">
    <path d="M 183.6 429.48 
L 188.882717 429.390791 
L 193.393083 429.112802 
L 198.326551 428.623367 
L 203.618754 427.923747 
L 211.065407 426.678145 
L 216.787649 425.522069 
L 222.501917 424.187824 
L 228.123588 422.686535 
L 233.596951 421.028739 
L 238.890291 419.223551 
L 243.990173 417.277849 
L 248.895997 415.195694 
L 253.614689 412.978276 
L 258.155679 410.624611 
L 262.526963 408.13289 
L 266.733275 405.501898 
L 270.77684 402.731718 
L 274.659967 399.823373 
L 278.38752 396.778068 
L 281.967153 393.597407 
L 285.406881 390.285017 
L 288.712084 386.848075 
L 291.884325 383.297037 
L 295.904847 378.405276 
L 299.681558 373.357351 
L 303.209925 368.172873 
L 306.485515 362.866307 
L 309.502112 357.450226 
L 312.251209 351.937826 
L 314.723149 346.343435 
L 316.908795 340.681557 
L 318.800605 334.965788 
L 320.023114 330.651087 
L 321.075215 326.318038 
L 321.95543 321.971668 
L 322.662636 317.617268 
L 323.19609 313.260505 
L 323.555494 308.90744 
L 323.741063 304.564463 
L 323.753573 300.238181 
L 323.594385 295.935321 
L 323.265434 291.662639 
L 322.769205 287.426859 
L 322.108694 283.234621 
L 320.97849 277.723941 
L 319.571694 272.317205 
L 317.898618 267.028691 
L 315.970352 261.87184 
L 313.798512 256.859152 
L 311.395015 252.002139 
L 308.771888 247.311307 
L 305.941126 242.796189 
L 302.914608 238.465399 
L 299.704072 234.326712 
L 296.321154 230.387163 
L 292.777471 226.653148 
L 289.08474 223.130498 
L 285.25487 219.82452 
L 281.300033 216.739995 
L 277.232662 213.881138 
L 273.065402 211.251535 
L 268.811028 208.854096 
L 264.482355 206.691019 
L 260.09217 204.763783 
L 255.653193 203.073157 
L 251.178048 201.619221 
L 246.679239 200.40138 
L 242.169116 199.418385 
L 237.659821 198.668339 
L 233.163239 198.148719 
L 228.690948 197.856394 
L 224.254207 197.787643 
L 219.863956 197.938179 
L 215.53083 198.303162 
L 211.265165 198.877219 
L 207.076989 199.654458 
L 202.975985 200.628493 
L 198.971442 201.792478 
L 195.072203 203.13914 
L 191.286622 204.66082 
L 187.622539 206.349505 
L 184.087274 208.196851 
L 180.68763 210.194209 
L 177.429899 212.332638 
L 174.319867 214.602923 
L 171.362805 216.995607 
L 168.563457 219.501018 
L 165.926018 222.109313 
L 163.454121 224.810518 
L 161.150813 227.594574 
L 158.512438 231.175759 
L 156.144751 234.850872 
L 154.049758 238.600263 
L 152.227991 242.404475 
L 150.67065 246.265276 
L 149.360894 250.213712 
L 148.302156 254.235782 
L 147.498437 258.31572 
L 146.952906 262.437586 
L 146.667763 266.585271 
L 146.644213 270.742554 
L 146.882463 274.893158 
L 147.381717 279.020807 
L 148.140188 283.109284 
L 149.155101 287.142486 
L 150.422706 291.104475 
L 151.938292 294.979527 
L 153.696205 298.752188 
L 155.689861 302.407309 
L 157.911768 305.930101 
L 160.353542 309.306168 
L 163.005928 312.521555 
L 165.858812 315.562784 
L 168.901243 318.416898 
L 170.812817 320.034373 
L 170.812817 320.034373 
" clip-path="url(#pc4a4b94b6f)" style="fill: none; stroke-dasharray: 3.7,1.6; stroke-dashoffset: 0; stroke: #86f2c0; stroke-opacity: 0.5"/>
   </g>
   <g id="line2d_38">
    <path d="M 183.6 401.76 
L 190.835976 401.651573 
L 196.227404 401.378026 
L 201.582318 400.936372 
L 206.894883 400.323887 
L 212.158899 399.538141 
L 217.367805 398.577021 
L 222.514689 397.43876 
L 227.592298 396.121969 
L 232.593101 394.625828 
L 237.510178 392.952546 
L 242.337226 391.106245 
L 247.068132 389.091268 
L 251.696988 386.912167 
L 256.218091 384.573695 
L 260.625952 382.080801 
L 264.915307 379.438615 
L 269.081115 376.652442 
L 273.11857 373.727752 
L 277.023105 370.670168 
L 280.790395 367.485458 
L 284.416363 364.179526 
L 287.897183 360.758398 
L 291.229286 357.228213 
L 294.409359 353.595216 
L 297.434351 349.865742 
L 300.301475 346.046209 
L 303.008209 342.143105 
L 305.552298 338.162981 
L 307.931753 334.112435 
L 310.144854 329.998105 
L 312.190151 325.826659 
L 314.06646 321.60478 
L 315.772865 317.339162 
L 317.308717 313.036491 
L 318.67363 308.703445 
L 319.867481 304.346673 
L 320.89041 299.972793 
L 321.742811 295.588379 
L 322.425334 291.199951 
L 323.072704 285.353616 
L 323.422516 279.52671 
L 323.478349 273.734061 
L 323.244527 267.990191 
L 322.72609 262.309276 
L 321.928779 256.705115 
L 320.859004 251.191096 
L 319.52382 245.780162 
L 317.930898 240.48478 
L 316.088494 235.316918 
L 314.005418 230.288012 
L 311.691003 225.408945 
L 309.15507 220.690022 
L 306.407893 216.140949 
L 303.460165 211.770816 
L 300.322959 207.588078 
L 297.007694 203.600541 
L 293.526097 199.815349 
L 289.890163 196.238971 
L 286.112119 192.877197 
L 282.204385 189.735127 
L 278.179534 186.817168 
L 274.050257 184.127033 
L 269.829321 181.667739 
L 265.529533 179.441608 
L 261.163702 177.450274 
L 256.744601 175.694685 
L 252.284933 174.175114 
L 247.797291 172.891164 
L 243.294127 171.841785 
L 238.787714 171.025284 
L 234.290118 170.439342 
L 229.813159 170.081027 
L 225.368385 169.946817 
L 220.967042 170.032615 
L 216.620043 170.333776 
L 212.337943 170.845124 
L 208.130911 171.56098 
L 204.008711 172.475186 
L 199.980672 173.581131 
L 196.055676 174.871776 
L 192.242129 176.339688 
L 188.547953 177.977065 
L 184.980562 179.775765 
L 181.546854 181.72734 
L 178.253195 183.823064 
L 175.105412 186.053966 
L 172.108782 188.410861 
L 169.268025 190.884382 
L 166.5873 193.465014 
L 164.070203 196.143123 
L 161.719765 198.908989 
L 159.538451 201.75284 
L 157.052486 205.402398 
L 154.836202 209.1394 
L 152.89075 212.944861 
L 151.215957 216.800001 
L 149.801262 220.712538 
L 148.63529 224.705226 
L 147.722596 228.762474 
L 147.066741 232.868439 
L 146.670288 237.007087 
L 146.534785 241.162257 
L 146.660761 245.317723 
L 147.047724 249.457258 
L 147.694163 253.564697 
L 148.597553 257.624 
L 149.754367 261.619317 
L 151.160088 265.535045 
L 152.809226 269.355894 
L 154.695341 273.066943 
L 156.811068 276.653701 
L 159.148146 280.102161 
L 161.697447 283.398858 
L 164.449018 286.530918 
L 167.392113 289.48611 
L 170.515239 292.252894 
L 170.515239 292.252894 
" clip-path="url(#pc4a4b94b6f)" style="fill: none; stroke-dasharray: 1.85,0.8; stroke-dashoffset: 0; stroke: #cc1a1a; stroke-width: 0.5"/>
   </g>
   <g id="patch_3">
    <path d="M 72 512.64 
L 72 69.12 
" style="fill: none; stroke: #000000; stroke-width: 0.8; stroke-linejoin: miter; stroke-linecap: square"/>
   </g>
   <g id="patch_4">
    <path d="M 518.4 512.64 
L 518.4 69.12 
" style="fill: none; stroke: #000000; stroke-width: 0.8; stroke-linejoin: miter; stroke-linecap: square"/>
   </g>
   <g id="patch_5">
    <path d="M 72 512.64 
L 518.4 512.64 
" style="fill: none; stroke: #000000; stroke-width: 0.8; stroke-linejoin: miter; stroke-linecap: square"/>
   </g>
   <g id="patch_6">
    <path d="M 72 69.12 
L 518.4 69.12 
" style="fill: none; stroke: #000000; stroke-width: 0.8; stroke-linejoin: miter; stroke-linecap: square"/>
   </g>
   <g id="legend_1">
    <g id="PathCollection_7">
     <g>
      <use xlink:href="#mccf2f82594" x="431.484375" y="90.080156" style="fill: #cc1a1a; fill-opacity: 0.5; stroke: #cc1a1a; stroke-opacity: 0.5"/>
     </g>
    </g>
    <g id="text_35">
     <!-- Target -->
     <g transform="translate(458.484375 94.017656)scale(0.15 -0.15)">
      <defs>
       <path id="DejaVuSans-54" d="M -19 4666 
L 3928 4666 
L 3928 4134 
L 2272 4134 
L 2272 0 
L 1638 0 
L 1638 4134 
L -19 4134 
L -19 4666 
z
" transform="scale(0.015625)"/>
       <path id="DejaVuSans-61" d="M 2194 1759 
Q 1497 1759 1228 1600 
Q 959 1441 959 1056 
Q 959 750 1161 570 
Q 1363 391 1709 391 
Q 2188 391 2477 730 
Q 2766 1069 2766 1631 
L 2766 1759 
L 2194 1759 
z
M 3341 1997 
L 3341 0 
L 2766 0 
L 2766 531 
Q 2569 213 2275 61 
Q 1981 -91 1556 -91 
Q 1019 -91 701 211 
Q 384 513 384 1019 
Q 384 1609 779 1909 
Q 1175 2209 1959 2209 
L 2766 2209 
L 2766 2266 
Q 2766 2663 2505 2880 
Q 2244 3097 1772 3097 
Q 1472 3097 1187 3025 
Q 903 2953 641 2809 
L 641 3341 
Q 956 3463 1253 3523 
Q 1550 3584 1831 3584 
Q 2591 3584 2966 3190 
Q 3341 2797 3341 1997 
z
" transform="scale(0.015625)"/>
       <path id="DejaVuSans-72" d="M 2631 2963 
Q 2534 3019 2420 3045 
Q 2306 3072 2169 3072 
Q 1681 3072 1420 2755 
Q 1159 2438 1159 1844 
L 1159 0 
L 581 0 
L 581 3500 
L 1159 3500 
L 1159 2956 
Q 1341 3275 1631 3429 
Q 1922 3584 2338 3584 
Q 2397 3584 2469 3576 
Q 2541 3569 2628 3553 
L 2631 2963 
z
" transform="scale(0.015625)"/>
       <path id="DejaVuSans-67" d="M 2906 1791 
Q 2906 2416 2648 2759 
Q 2391 3103 1925 3103 
Q 1463 3103 1205 2759 
Q 947 2416 947 1791 
Q 947 1169 1205 825 
Q 1463 481 1925 481 
Q 2391 481 2648 825 
Q 2906 1169 2906 1791 
z
M 3481 434 
Q 3481 -459 3084 -895 
Q 2688 -1331 1869 -1331 
Q 1566 -1331 1297 -1286 
Q 1028 -1241 775 -1147 
L 775 -588 
Q 1028 -725 1275 -790 
Q 1522 -856 1778 -856 
Q 2344 -856 2625 -561 
Q 2906 -266 2906 331 
L 2906 616 
Q 2728 306 2450 153 
Q 2172 0 1784 0 
Q 1141 0 747 490 
Q 353 981 353 1791 
Q 353 2603 747 3093 
Q 1141 3584 1784 3584 
Q 2172 3584 2450 3431 
Q 2728 3278 2906 2969 
L 2906 3500 
L 3481 3500 
L 3481 434 
z
" transform="scale(0.015625)"/>
       <path id="DejaVuSans-65" d="M 3597 1894 
L 3597 1613 
L 953 1613 
Q 991 1019 1311 708 
Q 1631 397 2203 397 
Q 2534 397 2845 478 
Q 3156 559 3463 722 
L 3463 178 
Q 3153 47 2828 -22 
Q 2503 -91 2169 -91 
Q 1331 -91 842 396 
Q 353 884 353 1716 
Q 353 2575 817 3079 
Q 1281 3584 2069 3584 
Q 2775 3584 3186 3129 
Q 3597 2675 3597 1894 
z
M 3022 2063 
Q 3016 2534 2758 2815 
Q 2500 3097 2075 3097 
Q 1594 3097 1305 2825 
Q 1016 2553 972 2059 
L 3022 2063 
z
" transform="scale(0.015625)"/>
       <path id="DejaVuSans-74" d="M 1172 4494 
L 1172 3500 
L 2356 3500 
L 2356 3053 
L 1172 3053 
L 1172 1153 
Q 1172 725 1289 603 
Q 1406 481 1766 481 
L 2356 481 
L 2356 0 
L 1766 0 
Q 1100 0 847 248 
Q 594 497 594 1153 
L 594 3053 
L 172 3053 
L 172 3500 
L 594 3500 
L 594 4494 
L 1172 4494 
z
" transform="scale(0.015625)"/>
      </defs>
      <use xlink:href="#DejaVuSans-54"/>
      <use xlink:href="#DejaVuSans-61" x="44.583984"/>
      <use xlink:href="#DejaVuSans-72" x="105.863281"/>
      <use xlink:href="#DejaVuSans-67" x="145.226562"/>
      <use xlink:href="#DejaVuSans-65" x="208.703125"/>
      <use xlink:href="#DejaVuSans-74" x="270.226562"/>
     </g>
    </g>
    <g id="PathCollection_8">
     <g>
      <use xlink:href="#m7bb1039e7c" x="431.484375" y="112.097344" style="fill: #7b68ee; stroke: #7b68ee"/>
     </g>
    </g>
    <g id="text_36">
     <!-- $M_1$ -->
     <g transform="translate(458.484375 116.034844)scale(0.15 -0.15)">
      <defs>
       <path id="DejaVuSans-Oblique-4d" d="M 1081 4666 
L 2028 4666 
L 2572 1522 
L 4378 4666 
L 5350 4666 
L 4441 0 
L 3828 0 
L 4622 4091 
L 2791 897 
L 2175 897 
L 1581 4103 
L 788 0 
L 172 0 
L 1081 4666 
z
" transform="scale(0.015625)"/>
      </defs>
      <use xlink:href="#DejaVuSans-Oblique-4d" transform="translate(0 0.09375)"/>
      <use xlink:href="#DejaVuSans-31" transform="translate(86.279297 -16.3125)scale(0.7)"/>
     </g>
    </g>
    <g id="PathCollection_9">
     <g>
      <use xlink:href="#md6a8b88d62" x="431.484375" y="134.114531" style="fill: #ffe4b5; stroke: #ffe4b5"/>
     </g>
    </g>
    <g id="text_37">
     <!-- $M_2$ -->
     <g transform="translate(458.484375 138.052031)scale(0.15 -0.15)">
      <use xlink:href="#DejaVuSans-Oblique-4d" transform="translate(0 0.09375)"/>
      <use xlink:href="#DejaVuSans-32" transform="translate(86.279297 -16.3125)scale(0.7)"/>
     </g>
    </g>
    <g id="PathCollection_10">
     <g>
      <use xlink:href="#m58da72d6ab" x="431.484375" y="156.131719" style="fill: #c54f85; stroke: #c54f85"/>
     </g>
    </g>
    <g id="text_38">
     <!-- $M_3$ -->
     <g transform="translate(458.484375 160.069219)scale(0.15 -0.15)">
      <use xlink:href="#DejaVuSans-Oblique-4d" transform="translate(0 0.09375)"/>
      <use xlink:href="#DejaVuSans-33" transform="translate(86.279297 -16.3125)scale(0.7)"/>
     </g>
    </g>
    <g id="PathCollection_11">
     <g>
      <use xlink:href="#m4154a19cda" x="431.484375" y="178.148906" style="fill: #00bfff; stroke: #00bfff"/>
     </g>
    </g>
    <g id="text_39">
     <!-- $M_4$ -->
     <g transform="translate(458.484375 182.086406)scale(0.15 -0.15)">
      <use xlink:href="#DejaVuSans-Oblique-4d" transform="translate(0 0.09375)"/>
      <use xlink:href="#DejaVuSans-34" transform="translate(86.279297 -16.3125)scale(0.7)"/>
     </g>
    </g>
    <g id="PathCollection_12">
     <g>
      <use xlink:href="#m7c535fc62d" x="431.484375" y="200.166094" style="fill: #86f2c0; stroke: #86f2c0"/>
     </g>
    </g>
    <g id="text_40">
     <!-- $M_5$ -->
     <g transform="translate(458.484375 204.103594)scale(0.15 -0.15)">
      <use xlink:href="#DejaVuSans-Oblique-4d" transform="translate(0 0.09375)"/>
      <use xlink:href="#DejaVuSans-35" transform="translate(86.279297 -16.3125)scale(0.7)"/>
     </g>
    </g>
   </g>
   <g id="PathCollection_13">
    <g clip-path="url(#pc4a4b94b6f)">
     <use xlink:href="#m7bb1039e7c" x="183.6" y="374.04" style="fill: #7b68ee; stroke: #7b68ee"/>
    </g>
   </g>
   <g id="PathCollection_14">
    <g clip-path="url(#pc4a4b94b6f)">
     <use xlink:href="#md6a8b88d62" x="183.6" y="387.9" style="fill: #ffe4b5; stroke: #ffe4b5"/>
    </g>
   </g>
   <g id="PathCollection_15">
    <g clip-path="url(#pc4a4b94b6f)">
     <use xlink:href="#m58da72d6ab" x="183.6" y="401.76" style="fill: #c54f85; stroke: #c54f85"/>
    </g>
   </g>
   <g id="PathCollection_16">
    <g clip-path="url(#pc4a4b94b6f)">
     <use xlink:href="#m4154a19cda" x="183.6" y="415.62" style="fill: #00bfff; stroke: #00bfff"/>
    </g>
   </g>
   <g id="PathCollection_17">
    <g clip-path="url(#pc4a4b94b6f)">
     <use xlink:href="#m7c535fc62d" x="183.6" y="429.48" style="fill: #86f2c0; stroke: #86f2c0"/>
    </g>
   </g>
   <g id="PathCollection_18">
    <defs>
     <path id="mdffbc8ea06" d="M -2.549508 0.238237 
L 1.200492 2.261763 
L 2.698034 -5 
z
" style="stroke: #7b68ee"/>
    </defs>
    <g clip-path="url(#pc4a4b94b6f)">
     <use xlink:href="#mdffbc8ea06" x="308.873506" y="303.567578" style="fill: #7b68ee; stroke: #7b68ee"/>
    </g>
   </g>
   <g id="PathCollection_19">
    <defs>
     <path id="m5c822554f4" d="M -2.531012 0.265982 
L 1.218988 2.234018 
L 2.624048 -5 
z
" style="stroke: #ffe4b5"/>
    </defs>
    <g clip-path="url(#pc4a4b94b6f)">
     <use xlink:href="#m5c822554f4" x="308.805863" y="317.372159" style="fill: #ffe4b5; stroke: #ffe4b5"/>
    </g>
   </g>
   <g id="PathCollection_20">
    <defs>
     <path id="mc30dd5ff61" d="M -2.535148 0.259778 
L 1.214852 2.240222 
L 2.640593 -5 
z
" style="stroke: #c54f85"/>
    </defs>
    <g clip-path="url(#pc4a4b94b6f)">
     <use xlink:href="#mc30dd5ff61" x="308.832003" y="331.096586" style="fill: #c54f85; stroke: #c54f85"/>
    </g>
   </g>
   <g id="PathCollection_21">
    <defs>
     <path id="m73fc587ef2" d="M -2.537359 0.256461 
L 1.212641 2.243539 
L 2.649437 -5 
z
" style="stroke: #00bfff"/>
    </defs>
    <g clip-path="url(#pc4a4b94b6f)">
     <use xlink:href="#m73fc587ef2" x="308.824294" y="345.011361" style="fill: #00bfff; stroke: #00bfff"/>
    </g>
   </g>
   <g id="PathCollection_22">
    <defs>
     <path id="m2067dba91f" d="M -2.539359 0.253461 
L 1.210641 2.246539 
L 2.657437 -5 
z
" style="stroke: #86f2c0"/>
    </defs>
    <g clip-path="url(#pc4a4b94b6f)">
     <use xlink:href="#m2067dba91f" x="308.772676" y="358.813814" style="fill: #86f2c0; stroke: #86f2c0"/>
    </g>
   </g>
   <g id="PathCollection_23">
    <defs>
     <path id="m94f78e0b38" d="M -0.927511 2.671234 
L 2.822489 -0.171234 
L -3.789956 -5 
z
" style="stroke: #7b68ee"/>
    </defs>
    <g clip-path="url(#pc4a4b94b6f)">
     <use xlink:href="#m94f78e0b38" x="302.011059" y="181.927147" style="fill: #7b68ee; stroke: #7b68ee"/>
    </g>
   </g>
   <g id="PathCollection_24">
    <defs>
     <path id="m1e6ef1540d" d="M -0.92548 2.67428 
L 2.82452 -0.17428 
L -3.798081 -5 
z
" style="stroke: #ffe4b5"/>
    </defs>
    <g clip-path="url(#pc4a4b94b6f)">
     <use xlink:href="#m1e6ef1540d" x="302.209274" y="195.804793" style="fill: #ffe4b5; stroke: #ffe4b5"/>
    </g>
   </g>
   <g id="PathCollection_25">
    <defs>
     <path id="m253e9f4373" d="M -0.923817 2.676775 
L 2.826183 -0.176775 
L -3.804734 -5 
z
" style="stroke: #c54f85"/>
    </defs>
    <g clip-path="url(#pc4a4b94b6f)">
     <use xlink:href="#m253e9f4373" x="302.150512" y="209.689013" style="fill: #c54f85; stroke: #c54f85"/>
    </g>
   </g>
   <g id="PathCollection_26">
    <defs>
     <path id="m314935f034" d="M -0.922355 2.678968 
L 2.827645 -0.178968 
L -3.810581 -5 
z
" style="stroke: #00bfff"/>
    </defs>
    <g clip-path="url(#pc4a4b94b6f)">
     <use xlink:href="#m314935f034" x="302.024196" y="223.550561" style="fill: #00bfff; stroke: #00bfff"/>
    </g>
   </g>
   <g id="PathCollection_27">
    <defs>
     <path id="mafe10941b3" d="M -0.923833 2.676751 
L 2.826167 -0.176751 
L -3.804668 -5 
z
" style="stroke: #86f2c0"/>
    </defs>
    <g clip-path="url(#pc4a4b94b6f)">
     <use xlink:href="#mafe10941b3" x="302.12877" y="237.412431" style="fill: #86f2c0; stroke: #86f2c0"/>
    </g>
   </g>
   <g id="PathCollection_28">
    <defs>
     <path id="mc8ad056144" d="M 1.634642 1.618572 
L 0.865358 -2.131428 
L -5 1.025713 
z
" style="stroke: #7b68ee"/>
    </defs>
    <g clip-path="url(#pc4a4b94b6f)">
     <use xlink:href="#mc8ad056144" x="208.099186" y="143.868842" style="fill: #7b68ee; stroke: #7b68ee"/>
    </g>
   </g>
   <g id="PathCollection_29">
    <defs>
     <path id="meecdc5a3d1" d="M 1.634016 1.618989 
L 0.865984 -2.131011 
L -5 1.024043 
z
" style="stroke: #ffe4b5"/>
    </defs>
    <g clip-path="url(#pc4a4b94b6f)">
     <use xlink:href="#meecdc5a3d1" x="208.275224" y="157.748987" style="fill: #ffe4b5; stroke: #ffe4b5"/>
    </g>
   </g>
   <g id="PathCollection_30">
    <defs>
     <path id="m50ee15026a" d="M 1.63505 1.6183 
L 0.86495 -2.1317 
L -5 1.026801 
z
" style="stroke: #c54f85"/>
    </defs>
    <g clip-path="url(#pc4a4b94b6f)">
     <use xlink:href="#m50ee15026a" x="208.173406" y="171.635829" style="fill: #c54f85; stroke: #c54f85"/>
    </g>
   </g>
   <g id="PathCollection_31">
    <defs>
     <path id="m7610519d2a" d="M 1.635117 1.618255 
L 0.864883 -2.131745 
L -5 1.02698 
z
" style="stroke: #00bfff"/>
    </defs>
    <g clip-path="url(#pc4a4b94b6f)">
     <use xlink:href="#m7610519d2a" x="208.023727" y="185.551125" style="fill: #00bfff; stroke: #00bfff"/>
    </g>
   </g>
   <g id="PathCollection_32">
    <defs>
     <path id="m81263cc5e2" d="M 1.63682 1.61712 
L 0.86318 -2.13288 
L -5 1.03152 
z
" style="stroke: #86f2c0"/>
    </defs>
    <g clip-path="url(#pc4a4b94b6f)">
     <use xlink:href="#m81263cc5e2" x="208.116233" y="199.441441" style="fill: #86f2c0; stroke: #86f2c0"/>
    </g>
   </g>
   <g id="PathCollection_33">
    <defs>
     <path id="ma7047a3d12" d="M 2.187659 -0.781011 
L -1.562341 -1.718989 
L -1.250638 5 
z
" style="stroke: #7b68ee"/>
    </defs>
    <g clip-path="url(#pc4a4b94b6f)">
     <use xlink:href="#ma7047a3d12" x="148.616662" y="197.022387" style="fill: #7b68ee; stroke: #7b68ee"/>
    </g>
   </g>
   <g id="PathCollection_34">
    <defs>
     <path id="m8f5419a863" d="M 2.185382 -0.784427 
L -1.564618 -1.715573 
L -1.241529 5 
z
" style="stroke: #ffe4b5"/>
    </defs>
    <g clip-path="url(#pc4a4b94b6f)">
     <use xlink:href="#m8f5419a863" x="148.834262" y="210.64239" style="fill: #ffe4b5; stroke: #ffe4b5"/>
    </g>
   </g>
   <g id="PathCollection_35">
    <defs>
     <path id="m2bf8ba2a14" d="M 2.185434 -0.784349 
L -1.564566 -1.715651 
L -1.241737 5 
z
" style="stroke: #c54f85"/>
    </defs>
    <g clip-path="url(#pc4a4b94b6f)">
     <use xlink:href="#m2bf8ba2a14" x="148.769955" y="224.668895" style="fill: #c54f85; stroke: #c54f85"/>
    </g>
   </g>
   <g id="PathCollection_36">
    <defs>
     <path id="mcfb21ae987" d="M 2.185104 -0.784844 
L -1.564896 -1.715156 
L -1.240415 5 
z
" style="stroke: #00bfff"/>
    </defs>
    <g clip-path="url(#pc4a4b94b6f)">
     <use xlink:href="#mcfb21ae987" x="148.746351" y="238.487627" style="fill: #00bfff; stroke: #00bfff"/>
    </g>
   </g>
   <g id="PathCollection_37">
    <defs>
     <path id="m304a098b3a" d="M 2.185269 -0.784596 
L -1.564731 -1.715404 
L -1.241077 5 
z
" style="stroke: #86f2c0"/>
    </defs>
    <g clip-path="url(#pc4a4b94b6f)">
     <use xlink:href="#m304a098b3a" x="148.695258" y="252.619123" style="fill: #86f2c0; stroke: #86f2c0"/>
    </g>
   </g>
   <g id="PathCollection_38">
    <defs>
     <path id="mf1ebcfefaa" d="M 0.296378 -2.905919 
L -2.796378 0.844081 
L 5 4.123674 
z
" style="stroke: #7b68ee"/>
    </defs>
    <g clip-path="url(#pc4a4b94b6f)">
     <use xlink:href="#mf1ebcfefaa" x="170.49849" y="264.562148" style="fill: #7b68ee; stroke: #7b68ee"/>
    </g>
   </g>
   <g id="PathCollection_39">
    <defs>
     <path id="mf6f68068bd" d="M 0.305875 -2.91225 
L -2.805875 0.83775 
L 5 4.149001 
z
" style="stroke: #ffe4b5"/>
    </defs>
    <g clip-path="url(#pc4a4b94b6f)">
     <use xlink:href="#mf6f68068bd" x="170.734314" y="278.20823" style="fill: #ffe4b5; stroke: #ffe4b5"/>
    </g>
   </g>
   <g id="PathCollection_40">
    <defs>
     <path id="m8f19539934" d="M 0.286954 -2.899636 
L -2.786954 0.850364 
L 5 4.098543 
z
" style="stroke: #c54f85"/>
    </defs>
    <g clip-path="url(#pc4a4b94b6f)">
     <use xlink:href="#m8f19539934" x="170.765123" y="292.16622" style="fill: #c54f85; stroke: #c54f85"/>
    </g>
   </g>
   <g id="PathCollection_41">
    <defs>
     <path id="mcaa6c1623c" d="M 0.31657 -2.91938 
L -2.81657 0.83062 
L 5 4.177521 
z
" style="stroke: #00bfff"/>
    </defs>
    <g clip-path="url(#pc4a4b94b6f)">
     <use xlink:href="#mcaa6c1623c" x="170.560893" y="306.105737" style="fill: #00bfff; stroke: #00bfff"/>
    </g>
   </g>
   <g id="PathCollection_42">
    <defs>
     <path id="m9436444df1" d="M 0.265492 -2.885328 
L -2.765492 0.864672 
L 5 4.041311 
z
" style="stroke: #86f2c0"/>
    </defs>
    <g clip-path="url(#pc4a4b94b6f)">
     <use xlink:href="#m9436444df1" x="170.812817" y="320.034373" style="fill: #86f2c0; stroke: #86f2c0"/>
    </g>
   </g>
   <g id="line2d_39">
    <path d="M 183.6 387.9 
L 183.6 374.04 
" clip-path="url(#pc4a4b94b6f)" style="fill: none; stroke: #ff0000; stroke-opacity: 0.3; stroke-width: 0.6; stroke-linecap: square"/>
   </g>
   <g id="line2d_40">
    <path d="M 183.6 387.9 
L 183.6 401.76 
" clip-path="url(#pc4a4b94b6f)" style="fill: none; stroke: #ff0000; stroke-opacity: 0.3; stroke-width: 0.6; stroke-linecap: square"/>
   </g>
   <g id="line2d_41">
    <path d="M 183.6 401.76 
L 183.6 374.04 
" clip-path="url(#pc4a4b94b6f)" style="fill: none; stroke: #ff0000; stroke-opacity: 0.3; stroke-width: 0.6; stroke-linecap: square"/>
   </g>
   <g id="line2d_42">
    <path d="M 183.6 415.62 
L 183.6 374.04 
" clip-path="url(#pc4a4b94b6f)" style="fill: none; stroke: #ff0000; stroke-opacity: 0.3; stroke-width: 0.6; stroke-linecap: square"/>
   </g>
   <g id="line2d_43">
    <path d="M 183.6 415.62 
L 183.6 401.76 
" clip-path="url(#pc4a4b94b6f)" style="fill: none; stroke: #ff0000; stroke-opacity: 0.3; stroke-width: 0.6; stroke-linecap: square"/>
   </g>
   <g id="line2d_44">
    <path d="M 183.6 429.48 
L 183.6 374.04 
" clip-path="url(#pc4a4b94b6f)" style="fill: none; stroke: #ff0000; stroke-opacity: 0.3; stroke-width: 0.6; stroke-linecap: square"/>
   </g>
   <g id="line2d_45">
    <path d="M 183.6 429.48 
L 183.6 415.62 
" clip-path="url(#pc4a4b94b6f)" style="fill: none; stroke: #ff0000; stroke-opacity: 0.3; stroke-width: 0.6; stroke-linecap: square"/>
   </g>
   <g id="line2d_46">
    <path d="M 308.805863 317.372159 
L 308.873506 303.567578 
" clip-path="url(#pc4a4b94b6f)" style="fill: none; stroke: #ff0000; stroke-opacity: 0.3; stroke-width: 0.6; stroke-linecap: square"/>
   </g>
   <g id="line2d_47">
    <path d="M 308.805863 317.372159 
L 308.832003 331.096586 
" clip-path="url(#pc4a4b94b6f)" style="fill: none; stroke: #ff0000; stroke-opacity: 0.3; stroke-width: 0.6; stroke-linecap: square"/>
   </g>
   <g id="line2d_48">
    <path d="M 308.832003 331.096586 
L 308.873506 303.567578 
" clip-path="url(#pc4a4b94b6f)" style="fill: none; stroke: #ff0000; stroke-opacity: 0.3; stroke-width: 0.6; stroke-linecap: square"/>
   </g>
   <g id="line2d_49">
    <path d="M 308.824294 345.011361 
L 308.873506 303.567578 
" clip-path="url(#pc4a4b94b6f)" style="fill: none; stroke: #ff0000; stroke-opacity: 0.3; stroke-width: 0.6; stroke-linecap: square"/>
   </g>
   <g id="line2d_50">
    <path d="M 308.824294 345.011361 
L 308.832003 331.096586 
" clip-path="url(#pc4a4b94b6f)" style="fill: none; stroke: #ff0000; stroke-opacity: 0.3; stroke-width: 0.6; stroke-linecap: square"/>
   </g>
   <g id="line2d_51">
    <path d="M 308.772676 358.813814 
L 308.873506 303.567578 
" clip-path="url(#pc4a4b94b6f)" style="fill: none; stroke: #ff0000; stroke-opacity: 0.3; stroke-width: 0.6; stroke-linecap: square"/>
   </g>
   <g id="line2d_52">
    <path d="M 308.772676 358.813814 
L 308.824294 345.011361 
" clip-path="url(#pc4a4b94b6f)" style="fill: none; stroke: #ff0000; stroke-opacity: 0.3; stroke-width: 0.6; stroke-linecap: square"/>
   </g>
   <g id="line2d_53">
    <path d="M 302.209274 195.804793 
L 302.011059 181.927147 
" clip-path="url(#pc4a4b94b6f)" style="fill: none; stroke: #ff0000; stroke-opacity: 0.3; stroke-width: 0.6; stroke-linecap: square"/>
   </g>
   <g id="line2d_54">
    <path d="M 302.209274 195.804793 
L 302.150512 209.689013 
" clip-path="url(#pc4a4b94b6f)" style="fill: none; stroke: #ff0000; stroke-opacity: 0.3; stroke-width: 0.6; stroke-linecap: square"/>
   </g>
   <g id="line2d_55">
    <path d="M 302.150512 209.689013 
L 302.011059 181.927147 
" clip-path="url(#pc4a4b94b6f)" style="fill: none; stroke: #ff0000; stroke-opacity: 0.3; stroke-width: 0.6; stroke-linecap: square"/>
   </g>
   <g id="line2d_56">
    <path d="M 302.024196 223.550561 
L 302.011059 181.927147 
" clip-path="url(#pc4a4b94b6f)" style="fill: none; stroke: #ff0000; stroke-opacity: 0.3; stroke-width: 0.6; stroke-linecap: square"/>
   </g>
   <g id="line2d_57">
    <path d="M 302.024196 223.550561 
L 302.150512 209.689013 
" clip-path="url(#pc4a4b94b6f)" style="fill: none; stroke: #ff0000; stroke-opacity: 0.3; stroke-width: 0.6; stroke-linecap: square"/>
   </g>
   <g id="line2d_58">
    <path d="M 302.12877 237.412431 
L 302.011059 181.927147 
" clip-path="url(#pc4a4b94b6f)" style="fill: none; stroke: #ff0000; stroke-opacity: 0.3; stroke-width: 0.6; stroke-linecap: square"/>
   </g>
   <g id="line2d_59">
    <path d="M 302.12877 237.412431 
L 302.024196 223.550561 
" clip-path="url(#pc4a4b94b6f)" style="fill: none; stroke: #ff0000; stroke-opacity: 0.3; stroke-width: 0.6; stroke-linecap: square"/>
   </g>
   <g id="line2d_60">
    <path d="M 208.275224 157.748987 
L 208.099186 143.868842 
" clip-path="url(#pc4a4b94b6f)" style="fill: none; stroke: #ff0000; stroke-opacity: 0.3; stroke-width: 0.6; stroke-linecap: square"/>
   </g>
   <g id="line2d_61">
    <path d="M 208.275224 157.748987 
L 208.173406 171.635829 
" clip-path="url(#pc4a4b94b6f)" style="fill: none; stroke: #ff0000; stroke-opacity: 0.3; stroke-width: 0.6; stroke-linecap: square"/>
   </g>
   <g id="line2d_62">
    <path d="M 208.173406 171.635829 
L 208.099186 143.868842 
" clip-path="url(#pc4a4b94b6f)" style="fill: none; stroke: #ff0000; stroke-opacity: 0.3; stroke-width: 0.6; stroke-linecap: square"/>
   </g>
   <g id="line2d_63">
    <path d="M 208.023727 185.551125 
L 208.099186 143.868842 
" clip-path="url(#pc4a4b94b6f)" style="fill: none; stroke: #ff0000; stroke-opacity: 0.3; stroke-width: 0.6; stroke-linecap: square"/>
   </g>
   <g id="line2d_64">
    <path d="M 208.023727 185.551125 
L 208.173406 171.635829 
" clip-path="url(#pc4a4b94b6f)" style="fill: none; stroke: #ff0000; stroke-opacity: 0.3; stroke-width: 0.6; stroke-linecap: square"/>
   </g>
   <g id="line2d_65">
    <path d="M 208.116233 199.441441 
L 208.099186 143.868842 
" clip-path="url(#pc4a4b94b6f)" style="fill: none; stroke: #ff0000; stroke-opacity: 0.3; stroke-width: 0.6; stroke-linecap: square"/>
   </g>
   <g id="line2d_66">
    <path d="M 208.116233 199.441441 
L 208.023727 185.551125 
" clip-path="url(#pc4a4b94b6f)" style="fill: none; stroke: #ff0000; stroke-opacity: 0.3; stroke-width: 0.6; stroke-linecap: square"/>
   </g>
   <g id="line2d_67">
    <path d="M 148.834262 210.64239 
L 148.616662 197.022387 
" clip-path="url(#pc4a4b94b6f)" style="fill: none; stroke: #ff0000; stroke-opacity: 0.3; stroke-width: 0.6; stroke-linecap: square"/>
   </g>
   <g id="line2d_68">
    <path d="M 148.834262 210.64239 
L 148.769955 224.668895 
" clip-path="url(#pc4a4b94b6f)" style="fill: none; stroke: #ff0000; stroke-opacity: 0.3; stroke-width: 0.6; stroke-linecap: square"/>
   </g>
   <g id="line2d_69">
    <path d="M 148.769955 224.668895 
L 148.616662 197.022387 
" clip-path="url(#pc4a4b94b6f)" style="fill: none; stroke: #ff0000; stroke-opacity: 0.3; stroke-width: 0.6; stroke-linecap: square"/>
   </g>
   <g id="line2d_70">
    <path d="M 148.746351 238.487627 
L 148.616662 197.022387 
" clip-path="url(#pc4a4b94b6f)" style="fill: none; stroke: #ff0000; stroke-opacity: 0.3; stroke-width: 0.6; stroke-linecap: square"/>
   </g>
   <g id="line2d_71">
    <path d="M 148.746351 238.487627 
L 148.769955 224.668895 
" clip-path="url(#pc4a4b94b6f)" style="fill: none; stroke: #ff0000; stroke-opacity: 0.3; stroke-width: 0.6; stroke-linecap: square"/>
   </g>
   <g id="line2d_72">
    <path d="M 148.695258 252.619123 
L 148.616662 197.022387 
" clip-path="url(#pc4a4b94b6f)" style="fill: none; stroke: #ff0000; stroke-opacity: 0.3; stroke-width: 0.6; stroke-linecap: square"/>
   </g>
   <g id="line2d_73">
    <path d="M 148.695258 252.619123 
L 148.746351 238.487627 
" clip-path="url(#pc4a4b94b6f)" style="fill: none; stroke: #ff0000; stroke-opacity: 0.3; stroke-width: 0.6; stroke-linecap: square"/>
   </g>
   <g id="line2d_74">
    <path d="M 170.734314 278.20823 
L 170.49849 264.562148 
" clip-path="url(#pc4a4b94b6f)" style="fill: none; stroke: #ff0000; stroke-opacity: 0.3; stroke-width: 0.6; stroke-linecap: square"/>
   </g>
   <g id="line2d_75">
    <path d="M 170.734314 278.20823 
L 170.765123 292.16622 
" clip-path="url(#pc4a4b94b6f)" style="fill: none; stroke: #ff0000; stroke-opacity: 0.3; stroke-width: 0.6; stroke-linecap: square"/>
   </g>
   <g id="line2d_76">
    <path d="M 170.765123 292.16622 
L 170.49849 264.562148 
" clip-path="url(#pc4a4b94b6f)" style="fill: none; stroke: #ff0000; stroke-opacity: 0.3; stroke-width: 0.6; stroke-linecap: square"/>
   </g>
   <g id="line2d_77">
    <path d="M 170.560893 306.105737 
L 170.49849 264.562148 
" clip-path="url(#pc4a4b94b6f)" style="fill: none; stroke: #ff0000; stroke-opacity: 0.3; stroke-width: 0.6; stroke-linecap: square"/>
   </g>
   <g id="line2d_78">
    <path d="M 170.560893 306.105737 
L 170.765123 292.16622 
" clip-path="url(#pc4a4b94b6f)" style="fill: none; stroke: #ff0000; stroke-opacity: 0.3; stroke-width: 0.6; stroke-linecap: square"/>
   </g>
   <g id="line2d_79">
    <path d="M 170.812817 320.034373 
L 170.49849 264.562148 
" clip-path="url(#pc4a4b94b6f)" style="fill: none; stroke: #ff0000; stroke-opacity: 0.3; stroke-width: 0.6; stroke-linecap: square"/>
   </g>
   <g id="line2d_80">
    <path d="M 170.812817 320.034373 
L 170.560893 306.105737 
" clip-path="url(#pc4a4b94b6f)" style="fill: none; stroke: #ff0000; stroke-opacity: 0.3; stroke-width: 0.6; stroke-linecap: square"/>
   </g>
  </g>
 </g>
 <defs>
  <clipPath id="pc4a4b94b6f">
   <rect x="72" y="69.12" width="446.4" height="443.52"/>
  </clipPath>
 </defs>
</svg>
