<?xml version="1.0" encoding="utf-8" standalone="no"?>
<!DOCTYPE svg PUBLIC "-//W3C//DTD SVG 1.1//EN"
  "http://www.w3.org/Graphics/SVG/1.1/DTD/svg11.dtd">
<svg xmlns:xlink="http://www.w3.org/1999/xlink" width="460.8pt" height="345.6pt" viewBox="0 0 460.8 345.6" xmlns="http://www.w3.org/2000/svg" version="1.1">
 <metadata>
  <rdf:RDF xmlns:dc="http://purl.org/dc/elements/1.1/" xmlns:cc="http://creativecommons.org/ns#" xmlns:rdf="http://www.w3.org/1999/02/22-rdf-syntax-ns#">
   <cc:Work>
    <dc:type rdf:resource="http://purl.org/dc/dcmitype/StillImage"/>
    <dc:date>2022-08-06T05:27:33.983037</dc:date>
    <dc:format>image/svg+xml</dc:format>
    <dc:creator>
     <cc:Agent>
      <dc:title>Matplotlib v3.5.1, https://matplotlib.org/</dc:title>
     </cc:Agent>
    </dc:creator>
   </cc:Work>
  </rdf:RDF>
 </metadata>
 <defs>
  <style type="text/css">*{stroke-linejoin: round; stroke-linecap: butt}</style>
 </defs>
 <g id="figure_1">
  <g id="patch_1">
   <path d="M 0 345.6 
L 460.8 345.6 
L 460.8 0 
L 0 0 
z
" style="fill: #ffffff"/>
  </g>
  <g id="axes_1">
   <g id="patch_2">
    <path d="M 57.6 307.584 
L 414.72 307.584 
L 414.72 41.472 
L 57.6 41.472 
z
" style="fill: #ffffff"/>
   </g>
   <g id="matplotlib.axis_1">
    <g id="xtick_1">
     <g id="line2d_1">
      <defs>
       <path id="m7626bfa818" d="M 0 0 
L 0 3.5 
" style="stroke: #000000; stroke-width: 0.8"/>
      </defs>
      <g>
       <use xlink:href="#m7626bfa818" x="73.832727" y="307.584" style="stroke: #000000; stroke-width: 0.8"/>
      </g>
     </g>
     <g id="text_1">
      <!-- 0 -->
      <g transform="translate(70.651477 322.182437)scale(0.1 -0.1)">
       <defs>
        <path id="DejaVuSans-30" d="M 2034 4250 
Q 1547 4250 1301 3770 
Q 1056 3291 1056 2328 
Q 1056 1369 1301 889 
Q 1547 409 2034 409 
Q 2525 409 2770 889 
Q 3016 1369 3016 2328 
Q 3016 3291 2770 3770 
Q 2525 4250 2034 4250 
z
M 2034 4750 
Q 2819 4750 3233 4129 
Q 3647 3509 3647 2328 
Q 3647 1150 3233 529 
Q 2819 -91 2034 -91 
Q 1250 -91 836 529 
Q 422 1150 422 2328 
Q 422 3509 836 4129 
Q 1250 4750 2034 4750 
z
" transform="scale(0.015625)"/>
       </defs>
       <use xlink:href="#DejaVuSans-30"/>
      </g>
     </g>
    </g>
    <g id="xtick_2">
     <g id="line2d_2">
      <g>
       <use xlink:href="#m7626bfa818" x="138.776625" y="307.584" style="stroke: #000000; stroke-width: 0.8"/>
      </g>
     </g>
     <g id="text_2">
      <!-- 1000 -->
      <g transform="translate(126.051625 322.182437)scale(0.1 -0.1)">
       <defs>
        <path id="DejaVuSans-31" d="M 794 531 
L 1825 531 
L 1825 4091 
L 703 3866 
L 703 4441 
L 1819 4666 
L 2450 4666 
L 2450 531 
L 3481 531 
L 3481 0 
L 794 0 
L 794 531 
z
" transform="scale(0.015625)"/>
       </defs>
       <use xlink:href="#DejaVuSans-31"/>
       <use xlink:href="#DejaVuSans-30" x="63.623047"/>
       <use xlink:href="#DejaVuSans-30" x="127.246094"/>
       <use xlink:href="#DejaVuSans-30" x="190.869141"/>
      </g>
     </g>
    </g>
    <g id="xtick_3">
     <g id="line2d_3">
      <g>
       <use xlink:href="#m7626bfa818" x="203.720523" y="307.584" style="stroke: #000000; stroke-width: 0.8"/>
      </g>
     </g>
     <g id="text_3">
      <!-- 2000 -->
      <g transform="translate(190.995523 322.182437)scale(0.1 -0.1)">
       <defs>
        <path id="DejaVuSans-32" d="M 1228 531 
L 3431 531 
L 3431 0 
L 469 0 
L 469 531 
Q 828 903 1448 1529 
Q 2069 2156 2228 2338 
Q 2531 2678 2651 2914 
Q 2772 3150 2772 3378 
Q 2772 3750 2511 3984 
Q 2250 4219 1831 4219 
Q 1534 4219 1204 4116 
Q 875 4013 500 3803 
L 500 4441 
Q 881 4594 1212 4672 
Q 1544 4750 1819 4750 
Q 2544 4750 2975 4387 
Q 3406 4025 3406 3419 
Q 3406 3131 3298 2873 
Q 3191 2616 2906 2266 
Q 2828 2175 2409 1742 
Q 1991 1309 1228 531 
z
" transform="scale(0.015625)"/>
       </defs>
       <use xlink:href="#DejaVuSans-32"/>
       <use xlink:href="#DejaVuSans-30" x="63.623047"/>
       <use xlink:href="#DejaVuSans-30" x="127.246094"/>
       <use xlink:href="#DejaVuSans-30" x="190.869141"/>
      </g>
     </g>
    </g>
    <g id="xtick_4">
     <g id="line2d_4">
      <g>
       <use xlink:href="#m7626bfa818" x="268.664421" y="307.584" style="stroke: #000000; stroke-width: 0.8"/>
      </g>
     </g>
     <g id="text_4">
      <!-- 3000 -->
      <g transform="translate(255.939421 322.182437)scale(0.1 -0.1)">
       <defs>
        <path id="DejaVuSans-33" d="M 2597 2516 
Q 3050 2419 3304 2112 
Q 3559 1806 3559 1356 
Q 3559 666 3084 287 
Q 2609 -91 1734 -91 
Q 1441 -91 1130 -33 
Q 819 25 488 141 
L 488 750 
Q 750 597 1062 519 
Q 1375 441 1716 441 
Q 2309 441 2620 675 
Q 2931 909 2931 1356 
Q 2931 1769 2642 2001 
Q 2353 2234 1838 2234 
L 1294 2234 
L 1294 2753 
L 1863 2753 
Q 2328 2753 2575 2939 
Q 2822 3125 2822 3475 
Q 2822 3834 2567 4026 
Q 2313 4219 1838 4219 
Q 1578 4219 1281 4162 
Q 984 4106 628 3988 
L 628 4550 
Q 988 4650 1302 4700 
Q 1616 4750 1894 4750 
Q 2613 4750 3031 4423 
Q 3450 4097 3450 3541 
Q 3450 3153 3228 2886 
Q 3006 2619 2597 2516 
z
" transform="scale(0.015625)"/>
       </defs>
       <use xlink:href="#DejaVuSans-33"/>
       <use xlink:href="#DejaVuSans-30" x="63.623047"/>
       <use xlink:href="#DejaVuSans-30" x="127.246094"/>
       <use xlink:href="#DejaVuSans-30" x="190.869141"/>
      </g>
     </g>
    </g>
    <g id="xtick_5">
     <g id="line2d_5">
      <g>
       <use xlink:href="#m7626bfa818" x="333.608319" y="307.584" style="stroke: #000000; stroke-width: 0.8"/>
      </g>
     </g>
     <g id="text_5">
      <!-- 4000 -->
      <g transform="translate(320.883319 322.182437)scale(0.1 -0.1)">
       <defs>
        <path id="DejaVuSans-34" d="M 2419 4116 
L 825 1625 
L 2419 1625 
L 2419 4116 
z
M 2253 4666 
L 3047 4666 
L 3047 1625 
L 3713 1625 
L 3713 1100 
L 3047 1100 
L 3047 0 
L 2419 0 
L 2419 1100 
L 313 1100 
L 313 1709 
L 2253 4666 
z
" transform="scale(0.015625)"/>
       </defs>
       <use xlink:href="#DejaVuSans-34"/>
       <use xlink:href="#DejaVuSans-30" x="63.623047"/>
       <use xlink:href="#DejaVuSans-30" x="127.246094"/>
       <use xlink:href="#DejaVuSans-30" x="190.869141"/>
      </g>
     </g>
    </g>
    <g id="xtick_6">
     <g id="line2d_6">
      <g>
       <use xlink:href="#m7626bfa818" x="398.552217" y="307.584" style="stroke: #000000; stroke-width: 0.8"/>
      </g>
     </g>
     <g id="text_6">
      <!-- 5000 -->
      <g transform="translate(385.827217 322.182437)scale(0.1 -0.1)">
       <defs>
        <path id="DejaVuSans-35" d="M 691 4666 
L 3169 4666 
L 3169 4134 
L 1269 4134 
L 1269 2991 
Q 1406 3038 1543 3061 
Q 1681 3084 1819 3084 
Q 2600 3084 3056 2656 
Q 3513 2228 3513 1497 
Q 3513 744 3044 326 
Q 2575 -91 1722 -91 
Q 1428 -91 1123 -41 
Q 819 9 494 109 
L 494 744 
Q 775 591 1075 516 
Q 1375 441 1709 441 
Q 2250 441 2565 725 
Q 2881 1009 2881 1497 
Q 2881 1984 2565 2268 
Q 2250 2553 1709 2553 
Q 1456 2553 1204 2497 
Q 953 2441 691 2322 
L 691 4666 
z
" transform="scale(0.015625)"/>
       </defs>
       <use xlink:href="#DejaVuSans-35"/>
       <use xlink:href="#DejaVuSans-30" x="63.623047"/>
       <use xlink:href="#DejaVuSans-30" x="127.246094"/>
       <use xlink:href="#DejaVuSans-30" x="190.869141"/>
      </g>
     </g>
    </g>
    <g id="text_7">
     <!-- iterations -->
     <g transform="translate(212.432656 335.860562)scale(0.1 -0.1)">
      <defs>
       <path id="DejaVuSans-69" d="M 603 3500 
L 1178 3500 
L 1178 0 
L 603 0 
L 603 3500 
z
M 603 4863 
L 1178 4863 
L 1178 4134 
L 603 4134 
L 603 4863 
z
" transform="scale(0.015625)"/>
       <path id="DejaVuSans-74" d="M 1172 4494 
L 1172 3500 
L 2356 3500 
L 2356 3053 
L 1172 3053 
L 1172 1153 
Q 1172 725 1289 603 
Q 1406 481 1766 481 
L 2356 481 
L 2356 0 
L 1766 0 
Q 1100 0 847 248 
Q 594 497 594 1153 
L 594 3053 
L 172 3053 
L 172 3500 
L 594 3500 
L 594 4494 
L 1172 4494 
z
" transform="scale(0.015625)"/>
       <path id="DejaVuSans-65" d="M 3597 1894 
L 3597 1613 
L 953 1613 
Q 991 1019 1311 708 
Q 1631 397 2203 397 
Q 2534 397 2845 478 
Q 3156 559 3463 722 
L 3463 178 
Q 3153 47 2828 -22 
Q 2503 -91 2169 -91 
Q 1331 -91 842 396 
Q 353 884 353 1716 
Q 353 2575 817 3079 
Q 1281 3584 2069 3584 
Q 2775 3584 3186 3129 
Q 3597 2675 3597 1894 
z
M 3022 2063 
Q 3016 2534 2758 2815 
Q 2500 3097 2075 3097 
Q 1594 3097 1305 2825 
Q 1016 2553 972 2059 
L 3022 2063 
z
" transform="scale(0.015625)"/>
       <path id="DejaVuSans-72" d="M 2631 2963 
Q 2534 3019 2420 3045 
Q 2306 3072 2169 3072 
Q 1681 3072 1420 2755 
Q 1159 2438 1159 1844 
L 1159 0 
L 581 0 
L 581 3500 
L 1159 3500 
L 1159 2956 
Q 1341 3275 1631 3429 
Q 1922 3584 2338 3584 
Q 2397 3584 2469 3576 
Q 2541 3569 2628 3553 
L 2631 2963 
z
" transform="scale(0.015625)"/>
       <path id="DejaVuSans-61" d="M 2194 1759 
Q 1497 1759 1228 1600 
Q 959 1441 959 1056 
Q 959 750 1161 570 
Q 1363 391 1709 391 
Q 2188 391 2477 730 
Q 2766 1069 2766 1631 
L 2766 1759 
L 2194 1759 
z
M 3341 1997 
L 3341 0 
L 2766 0 
L 2766 531 
Q 2569 213 2275 61 
Q 1981 -91 1556 -91 
Q 1019 -91 701 211 
Q 384 513 384 1019 
Q 384 1609 779 1909 
Q 1175 2209 1959 2209 
L 2766 2209 
L 2766 2266 
Q 2766 2663 2505 2880 
Q 2244 3097 1772 3097 
Q 1472 3097 1187 3025 
Q 903 2953 641 2809 
L 641 3341 
Q 956 3463 1253 3523 
Q 1550 3584 1831 3584 
Q 2591 3584 2966 3190 
Q 3341 2797 3341 1997 
z
" transform="scale(0.015625)"/>
       <path id="DejaVuSans-6f" d="M 1959 3097 
Q 1497 3097 1228 2736 
Q 959 2375 959 1747 
Q 959 1119 1226 758 
Q 1494 397 1959 397 
Q 2419 397 2687 759 
Q 2956 1122 2956 1747 
Q 2956 2369 2687 2733 
Q 2419 3097 1959 3097 
z
M 1959 3584 
Q 2709 3584 3137 3096 
Q 3566 2609 3566 1747 
Q 3566 888 3137 398 
Q 2709 -91 1959 -91 
Q 1206 -91 779 398 
Q 353 888 353 1747 
Q 353 2609 779 3096 
Q 1206 3584 1959 3584 
z
" transform="scale(0.015625)"/>
       <path id="DejaVuSans-6e" d="M 3513 2113 
L 3513 0 
L 2938 0 
L 2938 2094 
Q 2938 2591 2744 2837 
Q 2550 3084 2163 3084 
Q 1697 3084 1428 2787 
Q 1159 2491 1159 1978 
L 1159 0 
L 581 0 
L 581 3500 
L 1159 3500 
L 1159 2956 
Q 1366 3272 1645 3428 
Q 1925 3584 2291 3584 
Q 2894 3584 3203 3211 
Q 3513 2838 3513 2113 
z
" transform="scale(0.015625)"/>
       <path id="DejaVuSans-73" d="M 2834 3397 
L 2834 2853 
Q 2591 2978 2328 3040 
Q 2066 3103 1784 3103 
Q 1356 3103 1142 2972 
Q 928 2841 928 2578 
Q 928 2378 1081 2264 
Q 1234 2150 1697 2047 
L 1894 2003 
Q 2506 1872 2764 1633 
Q 3022 1394 3022 966 
Q 3022 478 2636 193 
Q 2250 -91 1575 -91 
Q 1294 -91 989 -36 
Q 684 19 347 128 
L 347 722 
Q 666 556 975 473 
Q 1284 391 1588 391 
Q 1994 391 2212 530 
Q 2431 669 2431 922 
Q 2431 1156 2273 1281 
Q 2116 1406 1581 1522 
L 1381 1569 
Q 847 1681 609 1914 
Q 372 2147 372 2553 
Q 372 3047 722 3315 
Q 1072 3584 1716 3584 
Q 2034 3584 2315 3537 
Q 2597 3491 2834 3397 
z
" transform="scale(0.015625)"/>
      </defs>
      <use xlink:href="#DejaVuSans-69"/>
      <use xlink:href="#DejaVuSans-74" x="27.783203"/>
      <use xlink:href="#DejaVuSans-65" x="66.992188"/>
      <use xlink:href="#DejaVuSans-72" x="128.515625"/>
      <use xlink:href="#DejaVuSans-61" x="169.628906"/>
      <use xlink:href="#DejaVuSans-74" x="230.908203"/>
      <use xlink:href="#DejaVuSans-69" x="270.117188"/>
      <use xlink:href="#DejaVuSans-6f" x="297.900391"/>
      <use xlink:href="#DejaVuSans-6e" x="359.082031"/>
      <use xlink:href="#DejaVuSans-73" x="422.460938"/>
     </g>
    </g>
   </g>
   <g id="matplotlib.axis_2">
    <g id="ytick_1">
     <g id="line2d_7">
      <defs>
       <path id="m9f39042c52" d="M 0 0 
L -3.5 0 
" style="stroke: #000000; stroke-width: 0.8"/>
      </defs>
      <g>
       <use xlink:href="#m9f39042c52" x="57.6" y="282.975208" style="stroke: #000000; stroke-width: 0.8"/>
      </g>
     </g>
     <g id="text_8">
      <!-- 50 -->
      <g transform="translate(37.875 286.774427)scale(0.1 -0.1)">
       <use xlink:href="#DejaVuSans-35"/>
       <use xlink:href="#DejaVuSans-30" x="63.623047"/>
      </g>
     </g>
    </g>
    <g id="ytick_2">
     <g id="line2d_8">
      <g>
       <use xlink:href="#m9f39042c52" x="57.6" y="250.202731" style="stroke: #000000; stroke-width: 0.8"/>
      </g>
     </g>
     <g id="text_9">
      <!-- 100 -->
      <g transform="translate(31.5125 254.00195)scale(0.1 -0.1)">
       <use xlink:href="#DejaVuSans-31"/>
       <use xlink:href="#DejaVuSans-30" x="63.623047"/>
       <use xlink:href="#DejaVuSans-30" x="127.246094"/>
      </g>
     </g>
    </g>
    <g id="ytick_3">
     <g id="line2d_9">
      <g>
       <use xlink:href="#m9f39042c52" x="57.6" y="217.430254" style="stroke: #000000; stroke-width: 0.8"/>
      </g>
     </g>
     <g id="text_10">
      <!-- 150 -->
      <g transform="translate(31.5125 221.229472)scale(0.1 -0.1)">
       <use xlink:href="#DejaVuSans-31"/>
       <use xlink:href="#DejaVuSans-35" x="63.623047"/>
       <use xlink:href="#DejaVuSans-30" x="127.246094"/>
      </g>
     </g>
    </g>
    <g id="ytick_4">
     <g id="line2d_10">
      <g>
       <use xlink:href="#m9f39042c52" x="57.6" y="184.657776" style="stroke: #000000; stroke-width: 0.8"/>
      </g>
     </g>
     <g id="text_11">
      <!-- 200 -->
      <g transform="translate(31.5125 188.456995)scale(0.1 -0.1)">
       <use xlink:href="#DejaVuSans-32"/>
       <use xlink:href="#DejaVuSans-30" x="63.623047"/>
       <use xlink:href="#DejaVuSans-30" x="127.246094"/>
      </g>
     </g>
    </g>
    <g id="ytick_5">
     <g id="line2d_11">
      <g>
       <use xlink:href="#m9f39042c52" x="57.6" y="151.885299" style="stroke: #000000; stroke-width: 0.8"/>
      </g>
     </g>
     <g id="text_12">
      <!-- 250 -->
      <g transform="translate(31.5125 155.684517)scale(0.1 -0.1)">
       <use xlink:href="#DejaVuSans-32"/>
       <use xlink:href="#DejaVuSans-35" x="63.623047"/>
       <use xlink:href="#DejaVuSans-30" x="127.246094"/>
      </g>
     </g>
    </g>
    <g id="ytick_6">
     <g id="line2d_12">
      <g>
       <use xlink:href="#m9f39042c52" x="57.6" y="119.112821" style="stroke: #000000; stroke-width: 0.8"/>
      </g>
     </g>
     <g id="text_13">
      <!-- 300 -->
      <g transform="translate(31.5125 122.91204)scale(0.1 -0.1)">
       <use xlink:href="#DejaVuSans-33"/>
       <use xlink:href="#DejaVuSans-30" x="63.623047"/>
       <use xlink:href="#DejaVuSans-30" x="127.246094"/>
      </g>
     </g>
    </g>
    <g id="ytick_7">
     <g id="line2d_13">
      <g>
       <use xlink:href="#m9f39042c52" x="57.6" y="86.340344" style="stroke: #000000; stroke-width: 0.8"/>
      </g>
     </g>
     <g id="text_14">
      <!-- 350 -->
      <g transform="translate(31.5125 90.139563)scale(0.1 -0.1)">
       <use xlink:href="#DejaVuSans-33"/>
       <use xlink:href="#DejaVuSans-35" x="63.623047"/>
       <use xlink:href="#DejaVuSans-30" x="127.246094"/>
      </g>
     </g>
    </g>
    <g id="ytick_8">
     <g id="line2d_14">
      <g>
       <use xlink:href="#m9f39042c52" x="57.6" y="53.567866" style="stroke: #000000; stroke-width: 0.8"/>
      </g>
     </g>
     <g id="text_15">
      <!-- 400 -->
      <g transform="translate(31.5125 57.367085)scale(0.1 -0.1)">
       <use xlink:href="#DejaVuSans-34"/>
       <use xlink:href="#DejaVuSans-30" x="63.623047"/>
       <use xlink:href="#DejaVuSans-30" x="127.246094"/>
      </g>
     </g>
    </g>
    <g id="text_16">
     <!-- fitness -->
     <g transform="translate(25.432812 191.092062)rotate(-90)scale(0.1 -0.1)">
      <defs>
       <path id="DejaVuSans-66" d="M 2375 4863 
L 2375 4384 
L 1825 4384 
Q 1516 4384 1395 4259 
Q 1275 4134 1275 3809 
L 1275 3500 
L 2222 3500 
L 2222 3053 
L 1275 3053 
L 1275 0 
L 697 0 
L 697 3053 
L 147 3053 
L 147 3500 
L 697 3500 
L 697 3744 
Q 697 4328 969 4595 
Q 1241 4863 1831 4863 
L 2375 4863 
z
" transform="scale(0.015625)"/>
      </defs>
      <use xlink:href="#DejaVuSans-66"/>
      <use xlink:href="#DejaVuSans-69" x="35.205078"/>
      <use xlink:href="#DejaVuSans-74" x="62.988281"/>
      <use xlink:href="#DejaVuSans-6e" x="102.197266"/>
      <use xlink:href="#DejaVuSans-65" x="165.576172"/>
      <use xlink:href="#DejaVuSans-73" x="227.099609"/>
      <use xlink:href="#DejaVuSans-73" x="279.199219"/>
     </g>
    </g>
   </g>
   <g id="line2d_15">
    <path d="M 73.832727 289.251725 
L 73.897671 289.816108 
L 73.962615 284.507039 
L 74.027559 290.547365 
L 74.092503 281.642746 
L 74.157447 285.907983 
L 74.352278 278.00856 
L 74.417222 279.914029 
L 74.482166 277.481172 
L 74.54711 278.36195 
L 74.612054 276.824622 
L 74.741942 278.720877 
L 74.806886 276.021391 
L 74.87183 276.644318 
L 74.936774 281.721867 
L 75.131605 274.403188 
L 75.196549 270.67192 
L 75.261493 270.84264 
L 75.326437 273.862199 
L 75.391381 273.244073 
L 75.456325 265.273893 
L 75.521269 270.757703 
L 75.586213 263.582988 
L 75.651156 265.748058 
L 75.7161 265.835972 
L 75.781044 268.192914 
L 75.845988 266.773745 
L 75.910932 266.41854 
L 76.04082 261.986298 
L 76.235651 268.670728 
L 76.300595 269.338021 
L 76.365539 262.697919 
L 76.430483 268.458079 
L 76.495427 265.832462 
L 76.560371 263.938567 
L 76.625315 266.133656 
L 76.690259 260.2242 
L 76.755203 266.581775 
L 76.88509 261.142986 
L 76.950034 265.585675 
L 77.014978 263.110426 
L 77.079922 265.478758 
L 77.144866 265.322386 
L 77.20981 264.879156 
L 77.274754 268.646237 
L 77.404642 256.241228 
L 77.469586 268.330016 
L 77.534529 260.772395 
L 77.599473 266.251683 
L 77.664417 264.547315 
L 77.729361 265.381317 
L 77.794305 261.274208 
L 77.989137 267.683247 
L 78.054081 267.576227 
L 78.119025 265.011865 
L 78.183968 268.82336 
L 78.248912 262.555931 
L 78.313856 269.590781 
L 78.3788 262.689292 
L 78.443744 268.547905 
L 78.508688 264.197127 
L 78.573632 266.393001 
L 78.638576 266.689522 
L 78.70352 268.302991 
L 78.768464 267.89322 
L 78.898351 264.44154 
L 78.963295 268.556271 
L 79.028239 267.500845 
L 79.093183 268.774812 
L 79.223071 262.840627 
L 79.288015 267.803867 
L 79.417902 262.791289 
L 79.482846 267.142095 
L 79.54779 266.49569 
L 79.612734 263.339077 
L 79.677678 267.313732 
L 79.87251 262.872235 
L 79.937454 265.746066 
L 80.002398 263.810336 
L 80.067341 261.288093 
L 80.132285 263.334521 
L 80.262173 257.926397 
L 80.457005 265.03024 
L 80.521949 256.24667 
L 80.586893 266.689869 
L 80.651837 260.964273 
L 80.71678 259.58626 
L 80.846668 248.743277 
L 81.0415 258.877468 
L 81.106444 250.641814 
L 81.171388 252.45879 
L 81.236332 257.838941 
L 81.301276 255.783068 
L 81.431163 250.340995 
L 81.496107 250.893033 
L 81.561051 248.953762 
L 81.625995 255.52149 
L 81.820827 245.178169 
L 81.885771 246.506494 
L 81.950715 251.892291 
L 82.015658 249.229695 
L 82.080602 245.197333 
L 82.145546 245.528785 
L 82.275434 248.217476 
L 82.340378 243.243498 
L 82.405322 249.364617 
L 82.470266 246.150054 
L 82.665097 241.178353 
L 82.794985 250.01503 
L 82.859929 241.288514 
L 82.924873 241.844831 
L 82.989817 244.27838 
L 83.054761 237.865324 
L 83.119705 245.31289 
L 83.184649 244.732182 
L 83.249592 245.38861 
L 83.37948 237.180538 
L 83.444424 240.427981 
L 83.509368 238.496085 
L 83.574312 240.078705 
L 83.639256 230.008431 
L 83.7042 242.975402 
L 83.769144 240.235888 
L 83.899031 233.909942 
L 83.963975 237.944561 
L 84.093863 227.284558 
L 84.158807 229.678292 
L 84.223751 232.267887 
L 84.353639 229.111736 
L 84.418583 232.297301 
L 84.483527 231.009681 
L 84.54847 232.266641 
L 84.613414 225.444371 
L 84.678358 228.950507 
L 84.808246 225.731911 
L 84.87319 227.172911 
L 85.068022 215.131571 
L 85.132966 217.126071 
L 85.197909 218.956713 
L 85.327797 209.815554 
L 85.457685 217.756869 
L 85.522629 199.527613 
L 85.587573 205.733748 
L 85.652517 211.778009 
L 85.847348 191.51848 
L 85.912292 192.462969 
L 85.977236 200.326197 
L 86.107124 159.401112 
L 86.172068 175.908619 
L 86.3669 138.060366 
L 86.496787 141.053438 
L 86.561731 136.842206 
L 86.626675 147.572435 
L 86.691619 121.132203 
L 86.756563 129.271572 
L 86.821507 135.652581 
L 87.016339 101.999263 
L 87.146226 119.296849 
L 87.341058 108.694466 
L 87.470946 115.30497 
L 87.53589 103.203708 
L 87.730721 136.124497 
L 87.925553 95.379975 
L 88.185329 158.063993 
L 88.315216 148.099119 
L 88.38016 150.228192 
L 88.445104 164.946726 
L 88.574992 131.183188 
L 88.639936 158.30593 
L 88.769824 127.270425 
L 88.834768 133.979311 
L 88.899712 102.409525 
L 89.029599 146.987941 
L 89.159487 105.41538 
L 89.224431 127.194048 
L 89.289375 122.258405 
L 89.354319 118.99626 
L 89.419263 119.260906 
L 89.549151 137.137875 
L 89.614094 120.356871 
L 89.679038 132.849431 
L 89.87387 115.99736 
L 90.003758 133.532494 
L 90.19859 108.97566 
L 90.263533 113.316005 
L 90.328477 98.956057 
L 90.393421 122.498313 
L 90.458365 94.999088 
L 90.523309 101.495866 
L 90.588253 101.271784 
L 90.912972 75.505683 
L 90.977916 90.534182 
L 91.04286 68.22923 
L 91.107804 89.097371 
L 91.237692 67.55131 
L 91.302636 68.267941 
L 91.36758 62.584429 
L 91.562411 77.285954 
L 91.627355 61.066735 
L 91.692299 63.111708 
L 91.822187 60.944923 
L 92.017019 67.737482 
L 92.081963 61.497507 
L 92.146906 66.83573 
L 92.21185 63.370382 
L 92.276794 64.99121 
L 92.471626 60.218966 
L 92.53657 59.987876 
L 92.601514 57.861014 
L 92.861289 62.659989 
L 92.926233 62.847374 
L 92.991177 58.344309 
L 93.056121 60.587468 
L 93.186009 62.342554 
L 93.380841 57.013573 
L 93.445784 60.198644 
L 93.510728 59.973168 
L 93.575672 57.362083 
L 93.640616 57.42779 
L 93.70556 57.943396 
L 93.770504 56.245681 
L 93.835448 57.698749 
L 93.900392 57.049222 
L 93.965336 64.388344 
L 94.095223 56.599457 
L 94.160167 56.513866 
L 94.225111 58.591559 
L 94.354999 56.729106 
L 94.419943 59.031394 
L 94.484887 56.527997 
L 94.549831 57.06145 
L 94.614775 57.299739 
L 94.679718 55.633499 
L 94.744662 58.286895 
L 94.87455 55.669663 
L 95.004438 57.112019 
L 95.069382 56.996144 
L 95.19927 55.896685 
L 95.264214 57.114362 
L 95.329157 56.098726 
L 95.394101 56.232802 
L 95.459045 57.036623 
L 95.588933 55.722704 
L 95.653877 55.871086 
L 95.718821 57.43955 
L 95.783765 56.348768 
L 95.848709 55.972099 
L 95.913653 56.105091 
L 95.978596 55.971036 
L 96.04354 55.561095 
L 96.108484 55.897054 
L 96.173428 55.400561 
L 96.238372 58.490445 
L 96.36826 55.268984 
L 96.433204 56.320197 
L 96.498148 56.068706 
L 96.628035 55.212217 
L 96.887811 55.614831 
L 96.952755 55.022648 
L 97.017699 55.063162 
L 97.082643 55.535402 
L 97.147587 54.93928 
L 97.212531 55.570482 
L 97.277474 55.260062 
L 97.342418 55.537884 
L 97.407362 54.739753 
L 97.472306 55.637015 
L 97.53725 55.426167 
L 97.602194 55.111666 
L 97.667138 55.159108 
L 97.732082 55.270848 
L 97.861969 54.893106 
L 97.926913 55.133091 
L 97.991857 54.932021 
L 98.056801 54.979491 
L 98.121745 55.416097 
L 98.186689 54.873905 
L 98.251633 55.136009 
L 98.511408 54.623165 
L 98.576352 55.054695 
L 98.771184 54.399443 
L 98.901072 55.001156 
L 98.966016 54.397144 
L 99.03096 54.686996 
L 99.095904 54.653857 
L 99.225791 54.382006 
L 99.290735 54.42787 
L 99.355679 54.889853 
L 99.420623 54.712615 
L 99.550511 54.374779 
L 99.615455 54.894672 
L 99.680399 54.278938 
L 99.745343 54.462922 
L 99.810286 54.737068 
L 99.87523 54.299202 
L 99.940174 54.544309 
L 100.19995 54.300548 
L 100.394782 54.693453 
L 100.524669 54.283371 
L 100.654557 54.650617 
L 100.719501 54.386438 
L 100.784445 54.448785 
L 100.849389 54.430717 
L 100.979277 54.282925 
L 101.04422 54.610664 
L 101.109164 54.295655 
L 101.174108 54.356301 
L 101.303996 54.156033 
L 101.36894 54.60068 
L 101.433884 54.239089 
L 101.498828 54.470884 
L 101.563772 54.601856 
L 101.693659 54.148613 
L 101.823547 54.223421 
L 102.148267 54.096434 
L 102.343098 54.38884 
L 102.53793 54.076142 
L 102.732762 54.201886 
L 102.797706 54.282561 
L 102.86265 54.127806 
L 102.927594 54.273731 
L 102.992537 54.238835 
L 103.057481 54.28112 
L 103.187369 54.059537 
L 103.252313 54.281174 
L 103.317257 54.151846 
L 103.512089 54.071236 
L 103.577032 54.206901 
L 103.641976 54.033501 
L 103.70692 54.082209 
L 104.03164 54.191199 
L 104.096584 54.001737 
L 104.161528 54.070144 
L 104.226471 54.111016 
L 104.291415 53.986202 
L 104.356359 54.08103 
L 104.486247 54.263061 
L 104.681079 54.052973 
L 104.810967 54.181503 
L 104.87591 53.954973 
L 104.940854 54.203343 
L 105.005798 54.021786 
L 105.070742 53.942924 
L 105.135686 54.0743 
L 105.20063 53.958796 
L 105.265574 54.066543 
L 105.330518 53.957334 
L 105.460406 54.15359 
L 105.525349 53.932283 
L 105.590293 53.955512 
L 105.785125 54.018275 
L 105.850069 54.035853 
L 105.915013 53.930565 
L 105.979957 53.998106 
L 106.109845 53.882013 
L 106.174788 53.995066 
L 106.239732 53.949244 
L 106.304676 53.950617 
L 106.36962 54.20692 
L 106.499508 53.882127 
L 106.564452 54.143638 
L 106.629396 54.038729 
L 106.759283 54.017782 
L 106.954115 53.930174 
L 107.213891 54.010891 
L 107.278835 53.84974 
L 107.343779 53.928508 
L 107.408722 53.854854 
L 107.473666 54.170569 
L 107.53861 53.866078 
L 107.603554 54.03341 
L 107.798386 53.924475 
L 107.993218 53.864389 
L 108.058161 53.94384 
L 108.123105 53.879526 
L 108.317937 53.939664 
L 108.382881 53.844161 
L 108.447825 53.895622 
L 108.772544 53.910299 
L 108.967376 53.882049 
L 109.03232 53.961324 
L 109.097264 53.888335 
L 109.292096 53.832931 
L 109.551871 53.951992 
L 109.616815 53.831041 
L 109.681759 53.948746 
L 109.746703 53.864524 
L 110.006478 54.065222 
L 110.20131 53.835434 
L 110.266254 53.911509 
L 110.331198 53.732232 
L 110.396142 53.814974 
L 110.461086 53.94498 
L 110.52603 53.837178 
L 110.980637 53.873672 
L 111.110525 53.854609 
L 111.240412 53.849512 
L 111.3703 53.849688 
L 111.565132 53.841932 
L 111.69502 53.759974 
L 112.019739 53.822302 
L 113.773224 53.7748 
L 113.838168 53.69488 
L 113.903112 53.761109 
L 114.033 53.713957 
L 114.162888 53.785544 
L 114.682439 53.739475 
L 114.812327 53.714375 
L 114.942215 53.765925 
L 115.137046 53.747263 
L 115.396822 53.744195 
L 115.916373 53.738896 
L 115.981317 53.848722 
L 116.111205 53.730985 
L 117.150307 53.731685 
L 117.604914 53.751758 
L 117.929634 53.689925 
L 118.18941 53.738999 
L 119.03368 53.694371 
L 119.293456 53.757624 
L 119.423344 53.689808 
L 119.877951 53.725396 
L 120.072783 53.678513 
L 120.20267 53.682533 
L 120.722222 53.689264 
L 121.111885 53.678424 
L 121.761324 53.713847 
L 121.891212 53.663334 
L 122.021099 53.695387 
L 122.345819 53.677782 
L 124.03436 53.67103 
L 124.35908 53.663404 
L 124.618855 53.662965 
L 125.333238 53.653986 
L 125.463126 53.643716 
L 125.852789 53.673821 
L 126.047621 53.663142 
L 126.437285 53.664644 
L 126.69706 53.63257 
L 126.956836 53.683478 
L 127.216611 53.638358 
L 128.19077 53.647875 
L 128.320658 53.664657 
L 128.580433 53.644604 
L 128.905153 53.62768 
L 129.424704 53.633199 
L 129.879311 53.654506 
L 130.463806 53.65064 
L 132.087404 53.630683 
L 132.736843 53.632181 
L 134.165608 53.620768 
L 134.555272 53.624564 
L 135.204711 53.614269 
L 136.243813 53.621396 
L 137.02314 53.605801 
L 137.672579 53.618916 
L 139.101345 53.602584 
L 140.140447 53.616684 
L 219.696722 53.574795 
L 253.66238 53.573051 
L 296.915016 53.572498 
L 398.487273 53.57214 
L 398.487273 53.57214 
" clip-path="url(#p4405a2c3ee)" style="fill: none; stroke: #1f77b4; stroke-width: 0.5; stroke-linecap: square"/>
   </g>
   <g id="line2d_16">
    <path d="M 73.832727 294.426653 
L 73.962615 291.713558 
L 74.027559 293.473504 
L 74.092503 289.565719 
L 74.157447 290.785874 
L 74.482166 283.880855 
L 74.54711 286.140378 
L 74.612054 285.43386 
L 74.676998 284.482468 
L 74.741942 286.164203 
L 74.806886 282.349405 
L 74.87183 283.888191 
L 74.936774 286.672913 
L 75.001717 282.893947 
L 75.066661 283.702192 
L 75.196549 278.882422 
L 75.261493 273.808801 
L 75.391381 279.912716 
L 75.586213 268.976703 
L 75.651156 274.799778 
L 75.7161 271.351373 
L 75.845988 272.520032 
L 75.910932 275.5874 
L 76.04082 269.149534 
L 76.105764 271.603883 
L 76.235651 276.286189 
L 76.300595 275.509397 
L 76.365539 272.775586 
L 76.430483 275.898996 
L 76.560371 266.90825 
L 76.625315 272.394393 
L 76.690259 265.328764 
L 76.755203 274.661637 
L 76.820147 269.654653 
L 76.88509 266.174371 
L 76.950034 270.662228 
L 77.014978 269.342559 
L 77.079922 270.554414 
L 77.144866 264.745949 
L 77.20981 265.820974 
L 77.274754 272.292144 
L 77.339698 268.375025 
L 77.404642 261.086605 
L 77.469586 275.79713 
L 77.534529 263.023382 
L 77.599473 269.611573 
L 77.664417 266.095754 
L 77.794305 270.191623 
L 77.924193 266.226941 
L 77.989137 274.546929 
L 78.054081 271.71525 
L 78.119025 266.628905 
L 78.183968 270.324259 
L 78.248912 262.86255 
L 78.313856 272.245866 
L 78.3788 263.990068 
L 78.443744 273.494373 
L 78.573632 262.420929 
L 78.638576 268.913307 
L 78.70352 267.445457 
L 78.768464 265.997067 
L 78.833407 259.986873 
L 78.898351 267.121185 
L 78.963295 266.987016 
L 79.158127 262.419835 
L 79.223071 257.515735 
L 79.288015 270.064669 
L 79.352959 259.122262 
L 79.417902 264.274603 
L 79.482846 267.590351 
L 79.54779 267.522112 
L 79.807566 260.973731 
L 79.87251 260.670368 
L 79.937454 258.254689 
L 80.067341 265.685962 
L 80.262173 253.486905 
L 80.327117 270.307193 
L 80.392061 263.927415 
L 80.457005 262.724358 
L 80.521949 254.620434 
L 80.651837 268.181391 
L 80.846668 244.948579 
L 80.911612 257.953819 
L 80.976556 244.833719 
L 81.0415 256.288264 
L 81.171388 233.914686 
L 81.236332 254.312281 
L 81.431163 222.05304 
L 81.496107 224.080151 
L 81.561051 220.580099 
L 81.625995 235.639055 
L 81.690939 205.671331 
L 81.755883 220.861091 
L 81.885771 195.789532 
L 81.950715 216.525486 
L 82.015658 210.646237 
L 82.080602 212.861876 
L 82.21049 189.322549 
L 82.275434 213.93748 
L 82.340378 196.468326 
L 82.470266 184.820419 
L 82.53521 155.226325 
L 82.600153 171.566218 
L 82.665097 152.216498 
L 82.794985 182.35895 
L 82.924873 148.68431 
L 82.989817 163.556384 
L 83.054761 135.224504 
L 83.119705 176.645402 
L 83.184649 155.343207 
L 83.249592 152.825864 
L 83.314536 130.888695 
L 83.444424 158.96125 
L 83.639256 117.316893 
L 83.7042 151.80131 
L 83.769144 133.52194 
L 83.963975 122.136724 
L 84.093863 130.37149 
L 84.158807 118.685078 
L 84.288695 142.634149 
L 84.353639 120.124218 
L 84.418583 125.061667 
L 84.613414 147.067354 
L 84.678358 131.515608 
L 84.743302 143.614592 
L 84.808246 139.919819 
L 84.87319 128.67663 
L 84.938134 135.48953 
L 85.003078 136.507311 
L 85.197909 153.620316 
L 85.262853 152.419838 
L 85.327797 148.098363 
L 85.457685 168.949043 
L 85.522629 154.168082 
L 85.587573 158.644231 
L 85.782404 175.790434 
L 85.847348 173.266649 
L 86.107124 199.970182 
L 86.172068 203.584139 
L 86.237012 194.307739 
L 86.431843 213.463005 
L 86.561731 220.855268 
L 86.691619 222.89213 
L 86.821507 201.132027 
L 86.886451 204.002089 
L 86.951395 201.810746 
L 87.016339 203.720609 
L 87.146226 184.440334 
L 87.276114 202.209039 
L 87.341058 189.770562 
L 87.406002 197.157909 
L 87.470946 201.803681 
L 87.53589 185.619834 
L 87.600834 185.766889 
L 87.730721 210.04738 
L 87.925553 167.40917 
L 87.990497 174.05286 
L 88.185329 211.320252 
L 88.315216 191.670216 
L 88.445104 213.099545 
L 88.574992 177.806614 
L 88.639936 191.33881 
L 88.70488 181.743173 
L 88.899712 159.026061 
L 88.964655 192.926413 
L 89.029599 183.608573 
L 89.159487 147.061213 
L 89.224431 164.708238 
L 89.289375 163.848065 
L 89.354319 161.309958 
L 89.419263 168.489093 
L 89.484207 158.074861 
L 89.549151 173.376856 
L 89.614094 165.016268 
L 89.679038 164.266374 
L 89.743982 154.675907 
L 89.808926 156.738951 
L 89.87387 154.881955 
L 90.003758 167.9917 
L 90.328477 128.687808 
L 90.393421 148.730054 
L 90.458365 137.748344 
L 90.718141 124.538514 
L 90.783085 125.898687 
L 90.912972 103.830657 
L 90.977916 127.826324 
L 91.172748 93.134896 
L 91.237692 90.516639 
L 91.302636 94.18508 
L 91.36758 83.129598 
L 91.432524 100.224047 
L 91.497467 95.29475 
L 91.562411 102.665615 
L 91.627355 84.63193 
L 91.692299 92.278073 
L 91.757243 85.243585 
L 91.822187 90.533898 
L 91.887131 88.17783 
L 91.952075 81.306358 
L 92.017019 91.651313 
L 92.081963 78.117605 
L 92.146906 90.466918 
L 92.21185 77.836217 
L 92.276794 86.537186 
L 92.471626 73.643029 
L 92.53657 77.021816 
L 92.601514 67.818147 
L 92.666458 74.477819 
L 92.731402 69.471202 
L 92.796345 74.562728 
L 92.861289 73.239907 
L 92.926233 73.175684 
L 92.991177 65.040639 
L 93.056121 70.562393 
L 93.121065 71.433306 
L 93.186009 70.890292 
L 93.380841 63.627552 
L 93.510728 66.683868 
L 93.640616 61.916654 
L 93.70556 62.452916 
L 93.900392 61.728917 
L 93.965336 70.725938 
L 94.095223 60.78471 
L 94.160167 61.476406 
L 94.225111 63.445849 
L 94.354999 60.667274 
L 94.419943 63.225521 
L 94.484887 59.380831 
L 94.549831 61.053952 
L 94.679718 59.211327 
L 94.744662 61.206539 
L 94.809606 60.699261 
L 94.87455 60.293978 
L 94.939494 58.791971 
L 95.004438 59.353673 
L 95.069382 59.950366 
L 95.19927 58.776131 
L 95.264214 58.805227 
L 95.329157 58.820565 
L 95.459045 58.474608 
L 95.653877 57.611499 
L 95.718821 60.032631 
L 95.783765 57.612495 
L 95.848709 58.357352 
L 95.913653 57.063587 
L 95.978596 57.102954 
L 96.173428 57.663548 
L 96.238372 61.090598 
L 96.36826 56.198671 
L 96.563092 58.447701 
L 96.628035 56.667777 
L 96.692979 56.779949 
L 96.887811 56.834982 
L 97.017699 55.891916 
L 97.082643 56.607995 
L 97.147587 56.46832 
L 97.212531 56.500131 
L 97.277474 55.604725 
L 97.407362 56.575562 
L 97.602194 55.686939 
L 97.732082 56.686167 
L 97.797026 56.291234 
L 97.861969 55.33314 
L 97.926913 55.483917 
L 98.121745 56.376585 
L 98.251633 55.517949 
L 98.316577 55.54393 
L 98.381521 55.480056 
L 98.446465 55.658248 
L 98.511408 55.536107 
L 98.576352 55.650856 
L 98.771184 55.243592 
L 98.836128 55.538588 
L 98.966016 55.28124 
L 99.03096 55.428863 
L 99.095904 54.97108 
L 99.160847 55.267518 
L 99.225791 55.769676 
L 99.355679 55.100402 
L 99.420623 55.403889 
L 99.485567 55.130047 
L 99.550511 55.37368 
L 99.615455 55.351353 
L 99.680399 54.869215 
L 99.745343 55.052181 
L 99.87523 54.602242 
L 99.940174 54.983146 
L 100.005118 54.642164 
L 100.070062 55.091893 
L 100.135006 54.778764 
L 100.19995 54.922482 
L 100.264894 54.796645 
L 100.394782 54.872077 
L 100.524669 54.662797 
L 100.589613 54.997137 
L 100.654557 54.764649 
L 100.719501 54.434778 
L 100.784445 54.543389 
L 100.914333 54.642892 
L 100.979277 54.394927 
L 101.04422 54.459647 
L 101.109164 54.627873 
L 101.174108 54.269223 
L 101.239052 54.446828 
L 101.36894 54.501737 
L 101.433884 54.299445 
L 101.563772 54.529272 
L 101.693659 54.271414 
L 101.953435 54.608049 
L 102.083323 54.27849 
L 102.148267 54.33763 
L 102.278155 54.437389 
L 102.472986 54.14916 
L 102.53793 54.399046 
L 102.602874 54.175428 
L 102.667818 54.292309 
L 102.732762 54.305705 
L 102.797706 54.540315 
L 102.927594 54.225279 
L 102.992537 54.266087 
L 103.057481 54.299589 
L 103.122425 54.162852 
L 103.187369 54.519959 
L 103.382201 54.064942 
L 103.447145 54.212665 
L 103.512089 54.094582 
L 103.641976 54.208222 
L 103.70692 54.035773 
L 103.836808 54.346437 
L 103.966696 54.022654 
L 104.096584 54.308786 
L 104.226471 54.038391 
L 104.616135 54.188686 
L 104.746023 53.90835 
L 104.810967 54.025662 
L 104.87591 53.943939 
L 104.940854 54.006894 
L 105.070742 54.081256 
L 105.330518 53.907246 
L 105.525349 53.979524 
L 105.850069 53.969943 
L 106.044901 53.951821 
L 106.239732 54.017833 
L 106.434564 53.896404 
L 106.499508 54.062272 
L 106.564452 53.875342 
L 106.629396 53.906824 
L 106.69434 53.940174 
L 106.824227 53.86993 
L 106.889171 53.995101 
L 106.954115 53.937454 
L 107.019059 53.886319 
L 107.084003 53.97738 
L 107.148947 53.894087 
L 107.343779 53.888027 
L 107.408722 53.820528 
L 107.473666 53.893895 
L 107.603554 53.928103 
L 108.188049 53.869306 
L 108.902432 53.899291 
L 109.097264 53.808745 
L 110.20131 53.855351 
L 110.331198 53.800096 
L 110.52603 53.806189 
L 110.785805 53.759215 
L 111.110525 53.806442 
L 111.240412 53.824859 
L 111.3703 53.846585 
L 111.500188 53.801057 
L 112.53929 53.753684 
L 112.734122 53.793577 
L 112.993898 53.747639 
L 115.786485 53.708102 
L 115.851429 53.783785 
L 115.916373 53.714385 
L 116.825588 53.651247 
L 116.890532 53.7614 
L 116.955475 53.713456 
L 117.085363 53.751719 
L 117.280195 53.65705 
L 117.799746 53.701566 
L 121.241773 53.680477 
L 121.436604 53.644003 
L 121.69638 53.64377 
L 122.021099 53.660469 
L 122.345819 53.663613 
L 122.930314 53.638391 
L 123.125146 53.63093 
L 124.424024 53.656616 
L 124.813687 53.630717 
L 125.138407 53.634527 
L 125.398182 53.629028 
L 125.787846 53.635148 
L 126.112565 53.623589 
L 126.307397 53.618502 
L 128.060882 53.637904 
L 128.645377 53.618848 
L 129.814367 53.615453 
L 131.243133 53.611986 
L 134.36044 53.606217 
L 135.919094 53.621959 
L 136.373701 53.59605 
L 136.958196 53.616397 
L 138.127186 53.593392 
L 139.036401 53.605447 
L 139.68584 53.594625 
L 141.699101 53.597667 
L 142.413483 53.594365 
L 145.530791 53.593013 
L 146.699781 53.584021 
L 147.414164 53.590417 
L 149.102705 53.583566 
L 150.466527 53.584798 
L 155.921814 53.581104 
L 161.052382 53.579105 
L 188.458707 53.571974 
L 206.513111 53.570902 
L 224.047963 53.569918 
L 248.272037 53.569306 
L 398.487273 53.568165 
L 398.487273 53.568165 
" clip-path="url(#p4405a2c3ee)" style="fill: none; stroke: #ff7f0e; stroke-width: 0.5; stroke-linecap: square"/>
   </g>
   <g id="line2d_17">
    <path d="M 73.832727 293.614851 
L 73.962615 291.333039 
L 74.027559 293.329593 
L 74.092503 288.480883 
L 74.157447 290.032329 
L 74.352278 284.54059 
L 74.417222 285.114894 
L 74.482166 283.991817 
L 74.54711 286.159865 
L 74.612054 284.042032 
L 74.676998 285.029248 
L 74.741942 286.096785 
L 74.806886 282.143126 
L 74.87183 282.900008 
L 74.936774 285.705239 
L 75.001717 283.261007 
L 75.066661 283.726823 
L 75.131605 282.564091 
L 75.261493 275.541835 
L 75.326437 279.78013 
L 75.391381 279.265647 
L 75.456325 273.538166 
L 75.521269 278.327711 
L 75.586213 267.689378 
L 75.651156 272.441376 
L 75.781044 276.951108 
L 75.845988 276.404164 
L 75.975876 270.438051 
L 76.04082 271.91762 
L 76.105764 270.473694 
L 76.170708 275.953232 
L 76.235651 275.31488 
L 76.300595 276.070912 
L 76.365539 270.954924 
L 76.430483 273.708813 
L 76.560371 270.911257 
L 76.625315 272.142955 
L 76.690259 261.666823 
L 76.755203 269.996277 
L 76.820147 268.61974 
L 76.88509 266.3188 
L 77.014978 271.980006 
L 77.079922 264.636247 
L 77.144866 265.442689 
L 77.20981 266.433281 
L 77.339698 271.407888 
L 77.404642 254.677741 
L 77.469586 267.942537 
L 77.534529 260.702826 
L 77.664417 269.18773 
L 77.794305 261.170492 
L 78.054081 271.813526 
L 78.119025 266.748034 
L 78.183968 268.978791 
L 78.248912 269.119475 
L 78.3788 259.798073 
L 78.443744 270.732237 
L 78.508688 265.299715 
L 78.70352 261.781296 
L 78.768464 270.283424 
L 78.898351 259.53852 
L 79.028239 269.811167 
L 79.223071 255.362168 
L 79.288015 266.584038 
L 79.352959 262.942587 
L 79.417902 260.510483 
L 79.482846 268.490537 
L 79.54779 266.854118 
L 79.612734 263.982175 
L 79.677678 265.53325 
L 79.742622 264.505524 
L 79.807566 265.937388 
L 79.87251 262.13655 
L 79.937454 267.241014 
L 80.002398 265.019033 
L 80.067341 265.860276 
L 80.262173 256.40956 
L 80.327117 268.279965 
L 80.392061 261.994309 
L 80.457005 267.425654 
L 80.521949 257.717398 
L 80.651837 267.191548 
L 80.781724 253.820997 
L 80.846668 254.240267 
L 80.911612 265.359776 
L 80.976556 254.685566 
L 81.0415 263.911632 
L 81.171388 243.785175 
L 81.301276 253.08922 
L 81.496107 231.876688 
L 81.561051 249.661097 
L 81.625995 249.069011 
L 81.820827 228.68505 
L 81.885771 228.405572 
L 81.950715 223.350417 
L 82.080602 235.665583 
L 82.145546 236.889879 
L 82.21049 230.374502 
L 82.275434 235.57616 
L 82.470266 214.06052 
L 82.53521 191.800408 
L 82.600153 206.953221 
L 82.665097 198.053625 
L 82.730041 212.076491 
L 82.924873 188.856887 
L 82.989817 188.387577 
L 83.054761 172.090733 
L 83.184649 200.065272 
L 83.314536 160.01789 
L 83.37948 179.89776 
L 83.639256 140.20146 
L 83.7042 175.852798 
L 83.769144 170.967211 
L 83.963975 141.594129 
L 84.028919 149.194388 
L 84.093863 146.993596 
L 84.158807 146.302689 
L 84.223751 141.336178 
L 84.288695 155.902073 
L 84.418583 135.907517 
L 84.483527 157.221902 
L 84.54847 147.590693 
L 84.678358 146.226389 
L 84.743302 151.83342 
L 84.808246 150.180808 
L 84.87319 150.310817 
L 84.938134 149.835231 
L 85.003078 147.506103 
L 85.068022 150.357852 
L 85.197909 166.20089 
L 85.327797 157.605512 
L 85.457685 176.217075 
L 85.522629 164.068153 
L 85.587573 165.275005 
L 85.717461 178.537337 
L 85.782404 173.283954 
L 86.107124 204.828596 
L 86.172068 203.178407 
L 86.237012 203.588833 
L 86.431843 226.740059 
L 86.691619 239.012553 
L 86.821507 226.53634 
L 86.886451 227.154015 
L 87.016339 236.659493 
L 87.081282 230.780707 
L 87.146226 231.066118 
L 87.406002 253.083784 
L 87.470946 251.616461 
L 87.600834 249.886739 
L 87.665778 259.86616 
L 87.730721 256.562993 
L 87.795665 256.221073 
L 87.860609 252.462137 
L 87.925553 237.905273 
L 88.055441 257.268004 
L 88.120385 246.373139 
L 88.185329 248.668192 
L 88.250273 253.560379 
L 88.315216 241.963329 
L 88.38016 251.359604 
L 88.445104 250.029434 
L 88.510048 248.791687 
L 88.574992 238.353728 
L 88.639936 244.375305 
L 88.70488 235.772597 
L 88.769824 236.12391 
L 88.834768 240.704108 
L 88.899712 223.90333 
L 88.964655 233.942465 
L 89.029599 235.172417 
L 89.094543 232.558681 
L 89.159487 218.375667 
L 89.224431 223.737892 
L 89.289375 223.288921 
L 89.419263 215.71513 
L 89.484207 222.314676 
L 89.614094 199.644281 
L 89.679038 209.185456 
L 89.808926 187.961504 
L 89.87387 193.560003 
L 89.938814 187.373666 
L 90.003758 200.902452 
L 90.133646 170.839969 
L 90.19859 173.22603 
L 90.263533 177.159822 
L 90.328477 158.494088 
L 90.393421 173.524098 
L 90.458365 159.728027 
L 90.523309 160.364116 
L 90.588253 161.074932 
L 90.783085 144.756478 
L 90.912972 127.576856 
L 90.977916 142.502474 
L 91.04286 117.57136 
L 91.107804 127.086611 
L 91.237692 106.487859 
L 91.302636 113.916524 
L 91.36758 102.444683 
L 91.432524 107.132705 
L 91.497467 101.176584 
L 91.562411 110.651533 
L 91.757243 87.382094 
L 91.822187 87.407657 
L 92.017019 93.366151 
L 92.081963 85.391178 
L 92.146906 91.869288 
L 92.21185 79.651617 
L 92.276794 93.561775 
L 92.341738 88.254564 
L 92.406682 87.275473 
L 92.601514 76.164239 
L 92.666458 77.946571 
L 92.731402 75.139756 
L 92.796345 81.83279 
L 92.861289 81.070786 
L 92.926233 81.366009 
L 92.991177 73.28909 
L 93.056121 74.795253 
L 93.121065 84.425603 
L 93.315897 69.819273 
L 93.380841 69.343211 
L 93.510728 74.695943 
L 93.640616 66.610685 
L 93.70556 70.555047 
L 93.770504 65.329138 
L 93.835448 66.544195 
L 93.900392 67.144254 
L 93.965336 74.378976 
L 94.03028 66.126056 
L 94.095223 66.366778 
L 94.354999 64.177385 
L 94.419943 68.65918 
L 94.549831 62.632247 
L 94.614775 62.900557 
L 94.679718 61.349524 
L 94.744662 67.522484 
L 94.87455 61.854448 
L 94.939494 64.484254 
L 95.004438 64.456046 
L 95.19927 60.634462 
L 95.264214 63.803499 
L 95.329157 62.627856 
L 95.394101 61.67622 
L 95.459045 62.36296 
L 95.588933 59.804559 
L 95.653877 59.572198 
L 95.718821 62.50265 
L 95.783765 59.603519 
L 95.848709 60.678794 
L 95.913653 61.052307 
L 96.173428 58.768748 
L 96.238372 62.385144 
L 96.303316 58.578098 
L 96.36826 59.753274 
L 96.433204 61.330588 
L 96.563092 59.193864 
L 96.628035 59.230917 
L 96.692979 58.270433 
L 96.757923 58.284093 
L 96.822867 58.008866 
L 96.887811 60.338688 
L 97.017699 57.846829 
L 97.082643 57.915707 
L 97.147587 57.09562 
L 97.212531 57.862869 
L 97.277474 57.857048 
L 97.342418 57.747028 
L 97.407362 57.192373 
L 97.472306 58.565281 
L 97.53725 57.85632 
L 97.602194 57.001108 
L 97.667138 57.453081 
L 97.732082 57.604165 
L 97.991857 56.555443 
L 98.056801 56.690736 
L 98.121745 57.879838 
L 98.186689 57.055718 
L 98.381521 56.243623 
L 98.576352 56.871489 
L 98.70624 56.306533 
L 98.836128 55.543862 
L 98.966016 56.316819 
L 99.160847 55.317033 
L 99.225791 55.908151 
L 99.290735 55.799618 
L 99.355679 55.837135 
L 99.550511 55.152886 
L 99.615455 55.858268 
L 99.680399 55.336442 
L 99.745343 55.442471 
L 99.810286 55.527962 
L 100.005118 55.087169 
L 100.070062 55.251043 
L 100.135006 55.137756 
L 100.19995 55.035713 
L 100.264894 55.078607 
L 100.329838 55.222489 
L 100.394782 55.00513 
L 100.459725 55.417861 
L 100.524669 55.092332 
L 100.589613 55.288326 
L 100.654557 55.214755 
L 100.719501 54.83932 
L 100.784445 55.085792 
L 100.849389 55.009413 
L 100.979277 54.569873 
L 101.04422 55.069062 
L 101.109164 54.716753 
L 101.239052 54.88789 
L 101.303996 54.724445 
L 101.36894 55.170739 
L 101.433884 54.934413 
L 101.498828 55.040747 
L 101.693659 54.608135 
L 101.758603 54.953407 
L 101.823547 54.913683 
L 102.018379 54.737849 
L 102.083323 54.442354 
L 102.148267 54.685105 
L 102.213211 54.483623 
L 102.278155 54.762324 
L 102.343098 54.671652 
L 102.408042 54.688673 
L 102.53793 54.432684 
L 102.602874 54.734069 
L 102.667818 54.344456 
L 102.732762 54.652881 
L 102.797706 54.590767 
L 103.057481 54.403386 
L 103.187369 54.536228 
L 103.512089 54.364104 
L 103.577032 54.45744 
L 103.641976 54.286546 
L 103.70692 54.353667 
L 104.03164 54.729932 
L 104.161528 54.27099 
L 104.226471 54.657362 
L 104.291415 54.411738 
L 104.356359 54.474654 
L 104.421303 54.291871 
L 104.486247 54.471052 
L 104.551191 54.439929 
L 104.616135 54.321015 
L 104.681079 54.383356 
L 104.746023 54.393027 
L 104.940854 54.100871 
L 105.135686 54.193712 
L 105.265574 54.164985 
L 105.330518 54.238734 
L 105.395462 54.022497 
L 105.460406 54.264711 
L 105.525349 54.129196 
L 105.655237 54.194308 
L 105.850069 54.074875 
L 106.239732 54.131399 
L 106.304676 53.999114 
L 106.36962 54.045535 
L 106.434564 54.049828 
L 106.499508 54.207525 
L 106.564452 54.073812 
L 106.629396 53.949067 
L 106.69434 54.271071 
L 106.759283 53.944627 
L 106.824227 54.118269 
L 106.889171 53.976834 
L 106.954115 54.021213 
L 107.148947 53.947225 
L 107.278835 54.000985 
L 107.343779 53.938915 
L 107.53861 54.099194 
L 107.668498 54.026335 
L 107.733442 54.040574 
L 107.798386 53.848273 
L 107.86333 53.876589 
L 107.928274 54.054136 
L 107.993218 53.953121 
L 108.123105 54.048702 
L 108.512769 54.066284 
L 108.577713 53.900955 
L 108.642657 53.942556 
L 108.772544 53.962206 
L 108.967376 53.886314 
L 109.292096 54.042509 
L 109.357039 53.857073 
L 109.421983 53.950257 
L 109.486927 53.863372 
L 109.616815 54.108143 
L 109.811647 53.876876 
L 110.071422 53.851421 
L 110.136366 53.838561 
L 110.266254 53.936057 
L 110.52603 53.901845 
L 110.655917 53.854273 
L 110.720861 53.984374 
L 110.785805 53.892795 
L 110.850749 53.814283 
L 110.915693 53.900906 
L 111.110525 53.937439 
L 111.175469 53.837583 
L 111.240412 54.031033 
L 111.305356 54.006898 
L 111.630076 53.793793 
L 111.889851 53.909803 
L 112.149627 53.779242 
L 112.344459 53.837157 
L 113.058842 53.748417 
L 113.188729 53.891311 
L 113.318617 53.791352 
L 113.448505 53.794757 
L 113.643337 53.775193 
L 113.968056 53.808898 
L 114.097944 53.772768 
L 114.162888 53.840616 
L 114.227832 53.770348 
L 114.617495 53.863939 
L 114.747383 53.735925 
L 115.137046 53.784124 
L 115.331878 53.767634 
L 115.591654 53.871535 
L 115.721541 53.775187 
L 115.916373 53.763083 
L 116.046261 53.779875 
L 116.241093 53.719328 
L 116.435924 53.825219 
L 116.630756 53.697903 
L 116.825588 53.746516 
L 117.345139 53.767288 
L 117.994578 53.744856 
L 118.254353 53.719838 
L 118.514129 53.723369 
L 118.773905 53.735391 
L 118.968736 53.775487 
L 119.098624 53.701399 
L 119.293456 53.712188 
L 120.072783 53.73341 
L 120.787165 53.689295 
L 121.111885 53.737123 
L 121.241773 53.688998 
L 168.910594 53.578849 
L 173.391723 53.577459 
L 224.437626 53.569713 
L 398.487273 53.56835 
L 398.487273 53.56835 
" clip-path="url(#p4405a2c3ee)" style="fill: none; stroke: #2ca02c; stroke-width: 0.5; stroke-linecap: square"/>
   </g>
   <g id="line2d_18">
    <path d="M 73.832727 293.696774 
L 73.897671 295.488 
L 73.962615 288.353029 
L 74.027559 293.76187 
L 74.092503 287.803282 
L 74.157447 289.859038 
L 74.352278 285.322066 
L 74.417222 286.36492 
L 74.482166 286.260526 
L 74.612054 284.258614 
L 74.676998 285.674298 
L 74.806886 282.610247 
L 74.87183 284.055215 
L 74.936774 286.624122 
L 75.196549 279.572753 
L 75.261493 279.396552 
L 75.326437 280.986894 
L 75.391381 279.808877 
L 75.456325 271.739756 
L 75.521269 279.145365 
L 75.586213 267.963095 
L 75.651156 275.237831 
L 75.781044 270.767497 
L 75.845988 271.969247 
L 75.910932 275.710418 
L 76.04082 266.846555 
L 76.170708 273.595238 
L 76.235651 270.785109 
L 76.300595 278.065118 
L 76.365539 267.937469 
L 76.430483 273.831501 
L 76.495427 272.86314 
L 76.560371 267.338793 
L 76.625315 273.782975 
L 76.690259 263.046626 
L 76.755203 271.270108 
L 76.820147 266.158386 
L 76.88509 261.889076 
L 76.950034 272.817588 
L 77.014978 265.818819 
L 77.079922 271.530365 
L 77.144866 262.332398 
L 77.274754 273.134189 
L 77.404642 266.441739 
L 77.469586 275.549532 
L 77.534529 265.38741 
L 77.599473 267.1256 
L 77.664417 268.284795 
L 77.729361 265.467607 
L 77.794305 267.254073 
L 77.859249 267.615486 
L 77.924193 265.784494 
L 77.989137 273.862337 
L 78.054081 266.070609 
L 78.119025 270.011537 
L 78.183968 272.724539 
L 78.3788 263.827419 
L 78.443744 267.163486 
L 78.508688 262.871474 
L 78.573632 263.899826 
L 78.638576 266.269161 
L 78.70352 264.292038 
L 78.768464 268.859822 
L 78.833407 259.392656 
L 78.898351 260.979851 
L 78.963295 269.987753 
L 79.028239 267.24658 
L 79.093183 266.81768 
L 79.158127 258.348963 
L 79.223071 258.71437 
L 79.288015 266.113021 
L 79.352959 261.118295 
L 79.54779 267.241496 
L 79.742622 261.207551 
L 79.807566 262.246085 
L 79.87251 261.529116 
L 79.937454 269.05571 
L 80.002398 257.34783 
L 80.067341 264.695219 
L 80.197229 253.455164 
L 80.262173 256.623413 
L 80.327117 266.998778 
L 80.392061 263.820888 
L 80.521949 253.464717 
L 80.586893 263.883299 
L 80.651837 261.030119 
L 80.846668 239.537472 
L 80.976556 253.496477 
L 81.0415 250.166159 
L 81.106444 234.603795 
L 81.171388 234.821627 
L 81.236332 245.886904 
L 81.301276 244.048037 
L 81.431163 218.776009 
L 81.496107 231.924025 
L 81.561051 220.958973 
L 81.625995 237.040392 
L 81.885771 186.857877 
L 82.015658 209.113673 
L 82.21049 182.604934 
L 82.275434 188.529988 
L 82.340378 163.137199 
L 82.405322 186.393221 
L 82.470266 172.796013 
L 82.665097 133.99533 
L 82.794985 164.393443 
L 82.859929 158.121228 
L 82.924873 131.481696 
L 82.989817 144.497741 
L 83.054761 134.513909 
L 83.119705 141.371328 
L 83.184649 132.149309 
L 83.249592 142.221216 
L 83.314536 120.146801 
L 83.37948 149.464552 
L 83.509368 108.332106 
L 83.574312 119.356383 
L 83.639256 103.47548 
L 83.7042 140.388492 
L 83.769144 131.804516 
L 83.834088 113.689798 
L 83.899031 141.536974 
L 83.963975 117.298777 
L 84.028919 125.616949 
L 84.158807 110.654876 
L 84.288695 133.751241 
L 84.353639 118.643292 
L 84.418583 128.359629 
L 84.613414 142.32144 
L 84.678358 118.545862 
L 84.743302 137.144668 
L 84.808246 134.117374 
L 84.87319 134.441266 
L 84.938134 133.13346 
L 85.003078 127.765288 
L 85.197909 144.772104 
L 85.262853 146.581609 
L 85.327797 141.211756 
L 85.457685 163.774428 
L 85.522629 145.960199 
L 85.587573 158.261362 
L 85.652517 159.9942 
L 85.717461 170.499182 
L 85.782404 168.048474 
L 85.847348 169.363115 
L 86.172068 199.500317 
L 86.237012 198.383718 
L 86.496787 225.625007 
L 86.691619 233.573811 
L 86.886451 219.977089 
L 87.016339 226.151947 
L 87.081282 217.113332 
L 87.146226 219.475412 
L 87.276114 231.982192 
L 87.341058 230.377259 
L 87.406002 233.306341 
L 87.470946 228.657439 
L 87.600834 244.16979 
L 87.665778 244.059924 
L 87.730721 245.762223 
L 87.795665 239.360548 
L 87.860609 242.886289 
L 87.990497 245.6326 
L 88.120385 255.141744 
L 88.185329 255.038206 
L 88.250273 253.707326 
L 88.315216 256.267353 
L 88.38016 255.135164 
L 88.510048 258.975319 
L 88.574992 253.396035 
L 88.639936 254.631958 
L 88.70488 255.574275 
L 88.899712 245.506585 
L 88.964655 253.631613 
L 89.029599 251.720174 
L 89.159487 237.319421 
L 89.224431 250.323431 
L 89.289375 237.434078 
L 89.354319 243.090163 
L 89.419263 243.972846 
L 89.484207 242.739281 
L 89.679038 254.446415 
L 89.743982 244.38356 
L 89.808926 247.10435 
L 89.87387 242.065643 
L 89.938814 256.576813 
L 90.068702 239.091248 
L 90.133646 250.806333 
L 90.19859 243.78307 
L 90.263533 243.011401 
L 90.588253 224.577345 
L 90.783085 200.418381 
L 90.848029 195.586383 
L 90.912972 163.947743 
L 90.977916 181.038592 
L 91.04286 159.930215 
L 91.107804 175.614119 
L 91.172748 136.770645 
L 91.237692 140.916659 
L 91.432524 125.428732 
L 91.497467 128.374628 
L 91.562411 127.927721 
L 91.757243 102.249584 
L 91.822187 105.163641 
L 91.952075 97.57666 
L 92.017019 106.591586 
L 92.081963 91.580375 
L 92.146906 105.168667 
L 92.341738 88.383919 
L 92.471626 80.857944 
L 92.53657 82.413883 
L 92.601514 79.046002 
L 92.666458 89.32936 
L 92.731402 74.39821 
L 92.796345 81.466462 
L 92.861289 81.849106 
L 92.926233 85.170138 
L 92.991177 77.282474 
L 93.056121 79.802156 
L 93.380841 65.39038 
L 93.510728 72.549852 
L 93.575672 66.68414 
L 93.640616 67.651113 
L 93.70556 67.500177 
L 93.900392 63.793002 
L 93.965336 76.393671 
L 94.03028 62.223767 
L 94.095223 63.79695 
L 94.160167 65.081267 
L 94.225111 62.977302 
L 94.290055 63.400402 
L 94.354999 63.003934 
L 94.419943 66.416546 
L 94.549831 60.944613 
L 94.614775 61.603928 
L 94.679718 60.733643 
L 94.744662 65.412157 
L 94.939494 59.716342 
L 95.004438 64.076247 
L 95.069382 61.9224 
L 95.19927 59.01535 
L 95.329157 63.138302 
L 95.459045 62.805599 
L 95.523989 57.791508 
L 95.588933 59.850834 
L 95.653877 59.369875 
L 95.718821 61.63971 
L 95.913653 58.265908 
L 96.04354 57.721954 
L 96.108484 58.555079 
L 96.173428 57.243958 
L 96.238372 61.267109 
L 96.303316 57.598438 
L 96.36826 57.876114 
L 96.433204 58.602796 
L 96.628035 56.504254 
L 96.692979 58.353136 
L 96.757923 56.90412 
L 96.822867 58.194299 
L 96.887811 58.003269 
L 96.952755 56.329668 
L 97.017699 57.062368 
L 97.212531 55.840716 
L 97.342418 56.866685 
L 97.407362 56.594818 
L 97.472306 56.632067 
L 97.53725 56.828284 
L 97.667138 56.175983 
L 97.732082 56.584644 
L 97.861969 55.454309 
L 97.991857 56.192742 
L 98.056801 55.7191 
L 98.121745 55.897286 
L 98.251633 56.25914 
L 98.381521 55.539481 
L 98.446465 56.06335 
L 98.576352 55.46294 
L 98.641296 55.68463 
L 98.836128 55.151891 
L 98.901072 56.148657 
L 98.966016 55.543575 
L 99.03096 55.519605 
L 99.095904 55.265667 
L 99.160847 55.872418 
L 99.225791 54.991125 
L 99.290735 55.339216 
L 99.355679 55.210741 
L 99.485567 55.554105 
L 99.680399 54.836092 
L 99.745343 55.114173 
L 99.810286 55.097016 
L 99.87523 54.777569 
L 99.940174 54.923864 
L 100.005118 54.774116 
L 100.070062 54.870402 
L 100.135006 54.784073 
L 100.19995 55.063758 
L 100.264894 54.554261 
L 100.329838 55.199354 
L 100.394782 54.56806 
L 100.459725 54.580699 
L 100.589613 54.594932 
L 100.719501 54.798065 
L 100.784445 54.617004 
L 100.849389 54.966025 
L 100.979277 54.493583 
L 101.04422 54.51759 
L 101.109164 54.685049 
L 101.174108 54.607721 
L 101.36894 54.423515 
L 101.498828 54.528426 
L 101.628716 54.546414 
L 101.693659 54.426031 
L 101.823547 54.755469 
L 101.888491 54.201473 
L 101.953435 54.343488 
L 102.018379 54.310088 
L 102.083323 54.701228 
L 102.278155 54.16652 
L 102.343098 54.45412 
L 102.408042 54.339647 
L 102.472986 54.392055 
L 102.53793 54.140774 
L 102.602874 54.37354 
L 102.667818 54.218745 
L 102.86265 54.075919 
L 102.927594 54.294656 
L 102.992537 54.188455 
L 103.122425 54.223484 
L 103.317257 54.038533 
L 103.382201 54.3692 
L 103.447145 54.140226 
L 103.966696 54.05769 
L 104.03164 54.237462 
L 104.096584 54.040989 
L 104.161528 54.232836 
L 104.291415 54.036343 
L 104.356359 54.254011 
L 104.551191 53.99352 
L 104.940854 54.090788 
L 105.005798 54.005873 
L 105.070742 54.071219 
L 105.135686 54.106127 
L 105.20063 53.980224 
L 105.265574 54.031246 
L 105.460406 54.011049 
L 105.525349 53.981743 
L 105.590293 54.075248 
L 105.655237 54.029976 
L 105.915013 53.968348 
L 105.979957 54.058425 
L 106.044901 54.005049 
L 106.36962 54.016384 
L 106.434564 54.047946 
L 106.499508 53.918484 
L 106.564452 53.983164 
L 106.629396 54.061066 
L 106.69434 53.984221 
L 106.889171 53.919018 
L 107.084003 54.138954 
L 107.213891 53.774312 
L 107.278835 53.876468 
L 107.473666 53.925268 
L 107.603554 53.970427 
L 107.668498 54.011391 
L 107.86333 53.81114 
L 108.058161 53.996998 
L 108.317937 53.84988 
L 108.447825 53.894572 
L 108.512769 53.835602 
L 108.577713 53.995759 
L 108.642657 53.826099 
L 108.7076 53.863431 
L 108.837488 53.996506 
L 109.03232 53.840567 
L 109.097264 53.845297 
L 109.162208 53.969317 
L 109.357039 53.792956 
L 109.551871 53.885079 
L 109.811647 53.879337 
L 110.20131 53.876531 
L 110.266254 53.771581 
L 110.331198 53.827509 
L 110.850749 53.7798 
L 111.045581 53.836334 
L 112.279515 53.824602 
L 112.344459 53.880837 
L 112.474347 53.789384 
L 112.669178 53.860017 
L 112.799066 53.824041 
L 113.253673 53.777292 
L 113.448505 53.802551 
L 113.708281 53.72158 
L 113.968056 53.784996 
L 114.227832 53.768733 
L 114.552551 53.751075 
L 115.851429 53.797539 
L 115.916373 53.697894 
L 115.981317 53.754497 
L 116.500868 53.726308 
L 117.020419 53.757772 
L 131.632796 53.604584 
L 131.827628 53.611075 
L 132.542011 53.619607 
L 132.931674 53.627689 
L 133.905833 53.613454 
L 134.165608 53.604013 
L 134.620216 53.626366 
L 135.204711 53.612161 
L 142.608315 53.60067 
L 143.387642 53.597589 
L 148.388322 53.590394 
L 151.051022 53.584238 
L 151.960236 53.585549 
L 158.194851 53.580595 
L 160.987438 53.581491 
L 168.326099 53.575715 
L 171.638237 53.577811 
L 175.469927 53.57416 
L 189.627697 53.572194 
L 198.330179 53.570621 
L 217.618517 53.569566 
L 243.271357 53.568924 
L 286.199273 53.568293 
L 398.487273 53.568029 
L 398.487273 53.568029 
" clip-path="url(#p4405a2c3ee)" style="fill: none; stroke: #d62728; stroke-width: 0.5; stroke-linecap: square"/>
   </g>
   <g id="line2d_19">
    <path d="M 73.832727 294.876841 
L 73.897671 294.078865 
L 73.962615 291.687786 
L 74.027559 294.22209 
L 74.092503 289.642291 
L 74.157447 292.046475 
L 74.54711 285.287166 
L 74.676998 286.41817 
L 74.806886 283.074697 
L 74.936774 286.052463 
L 75.001717 281.797439 
L 75.066661 285.421925 
L 75.131605 276.255445 
L 75.196549 280.212 
L 75.261493 274.963707 
L 75.391381 282.244261 
L 75.456325 269.637499 
L 75.521269 276.47483 
L 75.586213 270.077712 
L 75.651156 277.317512 
L 75.7161 274.044076 
L 75.781044 273.555619 
L 75.845988 274.501634 
L 75.910932 273.382021 
L 75.975876 269.666662 
L 76.04082 270.81902 
L 76.105764 272.649282 
L 76.170708 272.627132 
L 76.235651 272.167155 
L 76.300595 273.484268 
L 76.365539 263.277783 
L 76.495427 274.492698 
L 76.560371 264.84365 
L 76.625315 272.336768 
L 76.690259 264.738811 
L 76.755203 268.75 
L 76.820147 264.195834 
L 76.88509 265.994199 
L 76.950034 267.022106 
L 77.014978 264.993548 
L 77.144866 272.091181 
L 77.20981 266.608969 
L 77.274754 270.336097 
L 77.404642 260.315577 
L 77.469586 271.305512 
L 77.534529 258.981448 
L 77.599473 269.871486 
L 77.664417 268.073969 
L 77.794305 259.037363 
L 77.989137 271.647757 
L 78.054081 264.282871 
L 78.119025 265.733789 
L 78.183968 265.729266 
L 78.3788 258.38662 
L 78.443744 270.945235 
L 78.508688 263.143813 
L 78.573632 263.869971 
L 78.70352 258.542396 
L 78.768464 269.42424 
L 78.833407 257.701029 
L 78.898351 259.375058 
L 78.963295 267.290658 
L 79.028239 266.356725 
L 79.093183 265.906205 
L 79.223071 257.625652 
L 79.288015 265.784843 
L 79.352959 258.50509 
L 79.417902 262.491092 
L 79.482846 261.893337 
L 79.54779 265.867214 
L 79.612734 261.868771 
L 79.677678 265.259497 
L 79.742622 263.604654 
L 79.807566 264.813096 
L 79.87251 257.937075 
L 79.937454 261.556941 
L 80.002398 258.411659 
L 80.067341 261.468828 
L 80.132285 253.886466 
L 80.197229 255.523964 
L 80.327117 265.193975 
L 80.392061 254.217041 
L 80.457005 263.657795 
L 80.521949 249.164142 
L 80.651837 264.386216 
L 80.781724 244.108054 
L 80.846668 245.132193 
L 80.976556 256.468814 
L 81.171388 240.199556 
L 81.236332 238.693423 
L 81.301276 247.879096 
L 81.366219 243.09635 
L 81.496107 228.528293 
L 81.561051 228.021074 
L 81.625995 242.800087 
L 81.690939 220.279547 
L 81.755883 224.267862 
L 81.950715 216.36347 
L 82.015658 222.040787 
L 82.080602 216.68074 
L 82.21049 188.551875 
L 82.275434 209.376319 
L 82.340378 181.909828 
L 82.405322 198.163976 
L 82.665097 168.679872 
L 82.794985 179.713777 
L 82.859929 177.251825 
L 82.924873 155.690995 
L 82.989817 168.404377 
L 83.054761 152.779297 
L 83.119705 167.849226 
L 83.314536 140.367823 
L 83.37948 168.740712 
L 83.444424 151.147144 
L 83.639256 116.76096 
L 83.769144 146.259279 
L 83.834088 129.152946 
L 83.899031 145.034452 
L 83.963975 122.858731 
L 84.028919 123.574074 
L 84.093863 134.654763 
L 84.158807 125.132151 
L 84.223751 129.080054 
L 84.288695 142.495953 
L 84.353639 127.565988 
L 84.418583 129.023077 
L 84.613414 151.42306 
L 84.678358 131.97154 
L 84.743302 147.143825 
L 84.808246 144.658788 
L 84.87319 136.746556 
L 84.938134 137.162517 
L 85.068022 144.919233 
L 85.132966 159.038388 
L 85.197909 154.347907 
L 85.262853 155.533391 
L 85.327797 150.642313 
L 85.457685 169.747648 
L 85.522629 153.607403 
L 85.587573 162.666302 
L 85.717461 175.34195 
L 85.782404 172.055031 
L 86.172068 203.836005 
L 86.237012 201.821216 
L 86.496787 228.252937 
L 86.561731 227.084315 
L 86.691619 235.329131 
L 86.821507 222.493481 
L 86.951395 222.56208 
L 87.016339 225.008262 
L 87.081282 219.179048 
L 87.146226 219.325865 
L 87.406002 233.668956 
L 87.470946 226.55326 
L 87.53589 230.535101 
L 87.600834 240.042079 
L 87.665778 238.091737 
L 87.730721 239.616494 
L 87.925553 224.461838 
L 87.990497 227.322561 
L 88.055441 239.458252 
L 88.120385 233.008673 
L 88.185329 232.069058 
L 88.250273 229.408871 
L 88.315216 230.258499 
L 88.38016 234.513269 
L 88.445104 232.938386 
L 88.510048 235.425287 
L 88.574992 227.092491 
L 88.639936 239.299914 
L 88.70488 234.137858 
L 88.899712 219.01253 
L 89.029599 242.159275 
L 89.159487 222.011598 
L 89.289375 239.553355 
L 89.419263 231.720259 
L 89.549151 241.976657 
L 89.614094 238.003714 
L 89.743982 222.17535 
L 89.808926 225.314238 
L 89.87387 211.511372 
L 89.938814 217.226181 
L 90.328477 165.265193 
L 90.393421 186.54787 
L 90.458365 157.91681 
L 90.523309 165.216186 
L 90.588253 173.59008 
L 90.718141 141.493477 
L 90.783085 146.285345 
L 91.04286 104.291917 
L 91.107804 129.047672 
L 91.237692 103.284295 
L 91.302636 104.249894 
L 91.36758 99.22401 
L 91.432524 100.727057 
L 91.562411 107.351936 
L 91.757243 82.940439 
L 91.822187 90.284756 
L 91.887131 89.830403 
L 92.081963 79.687527 
L 92.146906 82.039873 
L 92.21185 79.132654 
L 92.276794 79.910769 
L 92.341738 79.535034 
L 92.731402 69.396018 
L 92.926233 77.313573 
L 92.991177 68.889386 
L 93.056121 70.72759 
L 93.121065 72.015679 
L 93.186009 78.620595 
L 93.250953 70.624521 
L 93.315897 73.419012 
L 93.380841 68.6818 
L 93.445784 70.750916 
L 93.510728 73.199872 
L 93.575672 67.841384 
L 93.640616 67.917406 
L 93.70556 67.722598 
L 93.900392 64.729711 
L 93.965336 74.034807 
L 94.095223 63.715917 
L 94.160167 65.697779 
L 94.225111 65.073905 
L 94.354999 64.179196 
L 94.419943 67.556054 
L 94.549831 62.45446 
L 94.679718 61.774136 
L 94.744662 63.440808 
L 94.809606 62.125022 
L 94.87455 62.444622 
L 94.939494 62.470027 
L 95.004438 61.561334 
L 95.069382 64.161822 
L 95.134326 62.476819 
L 95.19927 58.94786 
L 95.264214 61.29954 
L 95.394101 60.069778 
L 95.459045 61.89307 
L 95.588933 58.989734 
L 95.718821 61.494258 
L 95.783765 58.275357 
L 95.848709 59.467133 
L 95.978596 57.690833 
L 96.04354 58.251767 
L 96.108484 59.46275 
L 96.173428 57.761672 
L 96.238372 60.67132 
L 96.303316 57.160934 
L 96.36826 57.305938 
L 96.433204 57.62507 
L 96.498148 56.480585 
L 96.563092 57.735983 
L 96.628035 56.830455 
L 96.692979 57.370109 
L 96.757923 57.384636 
L 96.822867 58.171598 
L 96.952755 56.174095 
L 97.017699 56.589127 
L 97.082643 56.816021 
L 97.212531 56.338868 
L 97.342418 58.416338 
L 97.407362 55.880315 
L 97.472306 56.997266 
L 97.732082 55.438533 
L 97.861969 55.998654 
L 97.926913 55.773099 
L 97.991857 56.429071 
L 98.056801 55.513133 
L 98.121745 57.065044 
L 98.251633 55.560826 
L 98.511408 55.078416 
L 98.576352 56.243731 
L 98.641296 55.094197 
L 98.70624 55.459096 
L 98.771184 55.191828 
L 98.836128 55.245129 
L 98.901072 55.446342 
L 98.966016 55.133584 
L 99.03096 55.318842 
L 99.095904 55.389178 
L 99.160847 55.015759 
L 99.225791 55.04354 
L 99.290735 55.226466 
L 99.355679 55.140644 
L 99.485567 55.199254 
L 99.550511 55.401273 
L 99.615455 55.218502 
L 99.745343 54.598373 
L 99.810286 55.070477 
L 99.87523 54.970982 
L 100.005118 54.842965 
L 100.135006 54.843157 
L 100.19995 54.81507 
L 100.264894 54.573524 
L 100.329838 54.816184 
L 100.394782 54.712631 
L 100.524669 54.724171 
L 100.654557 55.036246 
L 100.719501 54.50713 
L 100.784445 54.633868 
L 100.914333 54.533348 
L 100.979277 54.405423 
L 101.04422 54.707859 
L 101.109164 54.494987 
L 101.174108 54.604045 
L 101.239052 54.509637 
L 101.303996 54.459795 
L 101.36894 54.614121 
L 101.433884 54.276763 
L 101.498828 54.52443 
L 101.628716 54.432005 
L 101.758603 54.288637 
L 101.823547 54.542957 
L 101.888491 54.509347 
L 102.083323 54.258606 
L 102.213211 54.320221 
L 102.278155 54.205543 
L 102.343098 54.317653 
L 102.408042 54.23148 
L 102.472986 54.259136 
L 102.53793 54.150433 
L 102.602874 54.324545 
L 102.667818 54.212085 
L 102.797706 54.241183 
L 102.86265 54.103948 
L 102.927594 54.493625 
L 102.992537 54.278331 
L 103.122425 54.112299 
L 103.187369 54.143082 
L 103.252313 54.385952 
L 103.317257 54.037584 
L 103.382201 54.140258 
L 103.447145 53.969188 
L 103.512089 54.157483 
L 103.577032 54.112897 
L 103.771864 54.273418 
L 103.901752 54.036762 
L 104.03164 54.316291 
L 104.096584 54.044235 
L 104.161528 54.12757 
L 104.226471 54.022841 
L 104.291415 54.139174 
L 104.356359 54.000134 
L 104.421303 54.101695 
L 104.551191 54.090625 
L 105.070742 53.990588 
L 105.135686 54.109725 
L 105.20063 53.974663 
L 105.265574 54.022788 
L 108.123105 53.898459 
L 108.252993 53.90622 
L 108.317937 54.155765 
L 108.382881 53.901955 
L 108.447825 53.965135 
L 108.642657 53.874138 
L 108.837488 53.957186 
L 108.967376 53.877855 
L 109.227152 53.924103 
L 109.421983 53.856831 
L 109.681759 53.915799 
L 109.811647 53.865078 
L 110.006478 53.936817 
L 110.136366 53.782072 
L 110.20131 53.903309 
L 110.266254 53.854175 
L 110.396142 53.812996 
L 110.461086 54.019106 
L 110.52603 53.861352 
L 110.655917 53.754337 
L 110.785805 53.849617 
L 110.980637 53.836495 
L 112.214571 53.80847 
L 112.279515 53.879186 
L 112.344459 53.815781 
L 112.86401 53.773524 
L 112.993898 53.801048 
L 113.448505 53.74211 
L 113.643337 53.757436 
L 114.812327 53.803034 
L 115.007159 53.712427 
L 115.331878 53.739395 
L 115.851429 53.722523 
L 118.319297 53.729941 
L 118.514129 53.700939 
L 119.293456 53.738523 
L 119.553231 53.712635 
L 121.436604 53.663652 
L 121.631436 53.708269 
L 121.891212 53.661771 
L 122.280875 53.721398 
L 122.540651 53.659775 
L 124.35908 53.683747 
L 124.553912 53.641539 
L 125.138407 53.669057 
L 125.463126 53.640608 
L 126.112565 53.674468 
L 126.437285 53.629252 
L 126.826948 53.64657 
L 128.125826 53.663792 
L 128.450545 53.620258 
L 128.710321 53.664298 
L 129.164928 53.641367 
L 129.554592 53.641171 
L 138.451906 53.60711 
L 138.971457 53.623232 
L 139.296176 53.596976 
L 139.880671 53.602285 
L 142.803147 53.600675 
L 146.440005 53.596137 
L 147.34922 53.596683 
L 149.102705 53.592137 
L 151.765405 53.597617 
L 152.674619 53.590021 
L 154.103385 53.585484 
L 178.522291 53.575941 
L 181.899373 53.574093 
L 192.939836 53.57303 
L 247.622598 53.569275 
L 299.837492 53.568428 
L 398.487273 53.568241 
L 398.487273 53.568241 
" clip-path="url(#p4405a2c3ee)" style="fill: none; stroke: #9467bd; stroke-width: 0.5; stroke-linecap: square"/>
   </g>
   <g id="patch_3">
    <path d="M 57.6 307.584 
L 57.6 41.472 
" style="fill: none; stroke: #000000; stroke-width: 0.8; stroke-linejoin: miter; stroke-linecap: square"/>
   </g>
   <g id="patch_4">
    <path d="M 414.72 307.584 
L 414.72 41.472 
" style="fill: none; stroke: #000000; stroke-width: 0.8; stroke-linejoin: miter; stroke-linecap: square"/>
   </g>
   <g id="patch_5">
    <path d="M 57.6 307.584 
L 414.72 307.584 
" style="fill: none; stroke: #000000; stroke-width: 0.8; stroke-linejoin: miter; stroke-linecap: square"/>
   </g>
   <g id="patch_6">
    <path d="M 57.6 41.472 
L 414.72 41.472 
" style="fill: none; stroke: #000000; stroke-width: 0.8; stroke-linejoin: miter; stroke-linecap: square"/>
   </g>
   <g id="text_17">
    <!-- Mean fitness -->
    <g transform="translate(198.028125 35.472)scale(0.12 -0.12)">
     <defs>
      <path id="DejaVuSans-4d" d="M 628 4666 
L 1569 4666 
L 2759 1491 
L 3956 4666 
L 4897 4666 
L 4897 0 
L 4281 0 
L 4281 4097 
L 3078 897 
L 2444 897 
L 1241 4097 
L 1241 0 
L 628 0 
L 628 4666 
z
" transform="scale(0.015625)"/>
      <path id="DejaVuSans-20" transform="scale(0.015625)"/>
     </defs>
     <use xlink:href="#DejaVuSans-4d"/>
     <use xlink:href="#DejaVuSans-65" x="86.279297"/>
     <use xlink:href="#DejaVuSans-61" x="147.802734"/>
     <use xlink:href="#DejaVuSans-6e" x="209.082031"/>
     <use xlink:href="#DejaVuSans-20" x="272.460938"/>
     <use xlink:href="#DejaVuSans-66" x="304.248047"/>
     <use xlink:href="#DejaVuSans-69" x="339.453125"/>
     <use xlink:href="#DejaVuSans-74" x="367.236328"/>
     <use xlink:href="#DejaVuSans-6e" x="406.445312"/>
     <use xlink:href="#DejaVuSans-65" x="469.824219"/>
     <use xlink:href="#DejaVuSans-73" x="531.347656"/>
     <use xlink:href="#DejaVuSans-73" x="583.447266"/>
    </g>
   </g>
   <g id="legend_1">
    <g id="patch_7">
     <path d="M 335.47 302.584 
L 407.72 302.584 
Q 409.72 302.584 409.72 300.584 
L 409.72 226.80275 
Q 409.72 224.80275 407.72 224.80275 
L 335.47 224.80275 
Q 333.47 224.80275 333.47 226.80275 
L 333.47 300.584 
Q 333.47 302.584 335.47 302.584 
z
" style="fill: #ffffff; opacity: 0.8; stroke: #cccccc; stroke-linejoin: miter"/>
    </g>
    <g id="line2d_20">
     <path d="M 337.47 232.901187 
L 347.47 232.901187 
L 357.47 232.901187 
" style="fill: none; stroke: #1f77b4; stroke-width: 0.5; stroke-linecap: square"/>
    </g>
    <g id="text_18">
     <!-- agent_0 -->
     <g transform="translate(365.47 236.401187)scale(0.1 -0.1)">
      <defs>
       <path id="DejaVuSans-67" d="M 2906 1791 
Q 2906 2416 2648 2759 
Q 2391 3103 1925 3103 
Q 1463 3103 1205 2759 
Q 947 2416 947 1791 
Q 947 1169 1205 825 
Q 1463 481 1925 481 
Q 2391 481 2648 825 
Q 2906 1169 2906 1791 
z
M 3481 434 
Q 3481 -459 3084 -895 
Q 2688 -1331 1869 -1331 
Q 1566 -1331 1297 -1286 
Q 1028 -1241 775 -1147 
L 775 -588 
Q 1028 -725 1275 -790 
Q 1522 -856 1778 -856 
Q 2344 -856 2625 -561 
Q 2906 -266 2906 331 
L 2906 616 
Q 2728 306 2450 153 
Q 2172 0 1784 0 
Q 1141 0 747 490 
Q 353 981 353 1791 
Q 353 2603 747 3093 
Q 1141 3584 1784 3584 
Q 2172 3584 2450 3431 
Q 2728 3278 2906 2969 
L 2906 3500 
L 3481 3500 
L 3481 434 
z
" transform="scale(0.015625)"/>
       <path id="DejaVuSans-5f" d="M 3263 -1063 
L 3263 -1509 
L -63 -1509 
L -63 -1063 
L 3263 -1063 
z
" transform="scale(0.015625)"/>
      </defs>
      <use xlink:href="#DejaVuSans-61"/>
      <use xlink:href="#DejaVuSans-67" x="61.279297"/>
      <use xlink:href="#DejaVuSans-65" x="124.755859"/>
      <use xlink:href="#DejaVuSans-6e" x="186.279297"/>
      <use xlink:href="#DejaVuSans-74" x="249.658203"/>
      <use xlink:href="#DejaVuSans-5f" x="288.867188"/>
      <use xlink:href="#DejaVuSans-30" x="338.867188"/>
     </g>
    </g>
    <g id="line2d_21">
     <path d="M 337.47 247.857437 
L 347.47 247.857437 
L 357.47 247.857437 
" style="fill: none; stroke: #ff7f0e; stroke-width: 0.5; stroke-linecap: square"/>
    </g>
    <g id="text_19">
     <!-- agent_1 -->
     <g transform="translate(365.47 251.357437)scale(0.1 -0.1)">
      <use xlink:href="#DejaVuSans-61"/>
      <use xlink:href="#DejaVuSans-67" x="61.279297"/>
      <use xlink:href="#DejaVuSans-65" x="124.755859"/>
      <use xlink:href="#DejaVuSans-6e" x="186.279297"/>
      <use xlink:href="#DejaVuSans-74" x="249.658203"/>
      <use xlink:href="#DejaVuSans-5f" x="288.867188"/>
      <use xlink:href="#DejaVuSans-31" x="338.867188"/>
     </g>
    </g>
    <g id="line2d_22">
     <path d="M 337.47 262.813688 
L 347.47 262.813688 
L 357.47 262.813688 
" style="fill: none; stroke: #2ca02c; stroke-width: 0.5; stroke-linecap: square"/>
    </g>
    <g id="text_20">
     <!-- agent_2 -->
     <g transform="translate(365.47 266.313688)scale(0.1 -0.1)">
      <use xlink:href="#DejaVuSans-61"/>
      <use xlink:href="#DejaVuSans-67" x="61.279297"/>
      <use xlink:href="#DejaVuSans-65" x="124.755859"/>
      <use xlink:href="#DejaVuSans-6e" x="186.279297"/>
      <use xlink:href="#DejaVuSans-74" x="249.658203"/>
      <use xlink:href="#DejaVuSans-5f" x="288.867188"/>
      <use xlink:href="#DejaVuSans-32" x="338.867188"/>
     </g>
    </g>
    <g id="line2d_23">
     <path d="M 337.47 277.769937 
L 347.47 277.769937 
L 357.47 277.769937 
" style="fill: none; stroke: #d62728; stroke-width: 0.5; stroke-linecap: square"/>
    </g>
    <g id="text_21">
     <!-- agent_3 -->
     <g transform="translate(365.47 281.269937)scale(0.1 -0.1)">
      <use xlink:href="#DejaVuSans-61"/>
      <use xlink:href="#DejaVuSans-67" x="61.279297"/>
      <use xlink:href="#DejaVuSans-65" x="124.755859"/>
      <use xlink:href="#DejaVuSans-6e" x="186.279297"/>
      <use xlink:href="#DejaVuSans-74" x="249.658203"/>
      <use xlink:href="#DejaVuSans-5f" x="288.867188"/>
      <use xlink:href="#DejaVuSans-33" x="338.867188"/>
     </g>
    </g>
    <g id="line2d_24">
     <path d="M 337.47 292.726187 
L 347.47 292.726187 
L 357.47 292.726187 
" style="fill: none; stroke: #9467bd; stroke-width: 0.5; stroke-linecap: square"/>
    </g>
    <g id="text_22">
     <!-- agent_4 -->
     <g transform="translate(365.47 296.226187)scale(0.1 -0.1)">
      <use xlink:href="#DejaVuSans-61"/>
      <use xlink:href="#DejaVuSans-67" x="61.279297"/>
      <use xlink:href="#DejaVuSans-65" x="124.755859"/>
      <use xlink:href="#DejaVuSans-6e" x="186.279297"/>
      <use xlink:href="#DejaVuSans-74" x="249.658203"/>
      <use xlink:href="#DejaVuSans-5f" x="288.867188"/>
      <use xlink:href="#DejaVuSans-34" x="338.867188"/>
     </g>
    </g>
   </g>
  </g>
 </g>
 <defs>
  <clipPath id="p4405a2c3ee">
   <rect x="57.6" y="41.472" width="357.12" height="266.112"/>
  </clipPath>
 </defs>
</svg>
